<?xml version="1.0" encoding="UTF-8" standalone="no"?>
<svg
   xmlns:dc="http://purl.org/dc/elements/1.1/"
   xmlns:cc="http://creativecommons.org/ns#"
   xmlns:rdf="http://www.w3.org/1999/02/22-rdf-syntax-ns#"
   xmlns:svg="http://www.w3.org/2000/svg"
   xmlns="http://www.w3.org/2000/svg"
   xmlns:sodipodi="http://sodipodi.sourceforge.net/DTD/sodipodi-0.dtd"
   xmlns:inkscape="http://www.inkscape.org/namespaces/inkscape"
   width="611.29755"
   height="454.65115"
   viewBox="0 0 611.96627 454.80398"
   overflow="visible"
   version="1.1"
   id="svg36"
   sodipodi:docname="3DVee.svg"
   inkscape:version="0.92.3 (2405546, 2018-03-11)"
   style="overflow:visible">
  <metadata
     id="metadata42">
    <rdf:RDF>
      <cc:Work
         rdf:about="">
        <dc:format>image/svg+xml</dc:format>
        <dc:type
           rdf:resource="http://purl.org/dc/dcmitype/StillImage" />
        <dc:title></dc:title>
      </cc:Work>
    </rdf:RDF>
  </metadata>
  <defs
     id="defs40" />
  <sodipodi:namedview
     pagecolor="#ffffff"
     bordercolor="#666666"
     borderopacity="1"
     objecttolerance="10"
     gridtolerance="10"
     guidetolerance="10"
     inkscape:pageopacity="0"
     inkscape:pageshadow="2"
     inkscape:window-width="2560"
     inkscape:window-height="1377"
     id="namedview38"
     showgrid="false"
     inkscape:zoom="1.4142136"
     inkscape:cx="80.39562"
     inkscape:cy="125.80874"
     inkscape:window-x="-8"
     inkscape:window-y="-8"
     inkscape:window-maximized="1"
     inkscape:current-layer="svg36"
     inkscape:snap-text-baseline="false"
     fit-margin-top="0"
     fit-margin-left="0"
     fit-margin-right="0"
     fit-margin-bottom="0" />
  <path
     d="m 138.04061,360.87215 6.6073,-10.432 6.6249,-10.5497 6.5548,-10.5192 6.3973,-10.3405 6.1521,-10.0136 5.9714,-9.7677 5.8549,-9.6023 5.8029,-9.518 5.8151,-9.5143 5.8917,-9.5916 6.0328,-9.7495 6.2381,-9.9885 6.5079,-10.3081 6.659,-10.4605 6.6919,-10.4457 6.6062,-10.2637 6.4022,-9.9144 6.0797,-9.3979 5.6386,-8.7142 5.0792,-7.8632 4.4012,-6.845 3.8048,-5.943 3.2895,-5.1574 2.8556,-4.4881 2.503,-3.9349 2.2317,-3.4981 2.0418,-3.1776 1.9332,-2.9733 1.9059,-2.8854 1.8869,-2.7804 1.8762,-2.6587 1.8737,-2.5199 1.8795,-2.3644 1.8936,-2.1918 1.916,-2.0024 1.9467,-1.7961 1.9855,-1.5729 2.018,-1.3493 2.0438,-1.1255 2.0631,-0.9013 2.0759,-0.6769 2.0821,-0.4522 2.0818,-0.2271 2.0749,-0.002 2.0616,0.2238 2.0436,0.4346 2.021,0.6306 1.9936,0.8116 1.9618,0.9778 1.9252,1.1292 1.8841,1.2657 1.8383,1.3874 1.7878,1.4942 1.8573,1.8075 2.0466,2.3275 2.3556,3.0542 2.7847,3.9872 3.3335,5.127 4.0021,6.4734 4.7907,8.0263 5.6991,9.7858 6.4287,11.2115 6.9795,12.3035 7.3515,13.0614 7.5449,13.4857 7.5595,13.5762 7.3952,13.3326 7.0522,12.7555 6.5304,11.8444 6.0973,11.0791 5.7528,10.4595 5.4968,9.9857 5.3294,9.6578 5.2507,9.4753 5.2606,9.4388 5.3591,9.5481 5.5461,9.803 5.6655,9.9327 5.7175,9.9375 5.7016,9.8168 5.6182,9.5712 5.4671,9.2003 5.2485,8.7044 4.9622,8.0831 4.6082,7.3368 4.2996,6.6358 4.0358,5.9802 3.8175,5.3699 3.6441,4.8049 3.5159,4.2854 3.4329,3.8111 3.395,3.3822 2.2854,2.0144 1.1183,0.9856 0.002,0.002 0.003,0.002 0.004,0.003 0.005,0.005 0.007,0.006 0.01,0.008 0.0124,0.0106 0.0153,0.0134 0.0188,0.0163 3.4267,2.6174 3.4657,2.2361 3.521,1.8562 3.5919,1.4773 3.679,1.0999 3.7819,0.7237 3.9007,0.3485 4.0356,-0.0252 4.1235,-0.3943 0.0406,-0.007 4.162,-0.7572 4.156,-1.1165 4.1033,-1.4715 4.0038,-1.8216 3.8573,-2.167 3.664,-2.5076 3.4239,-2.8438 0.0212,-0.0209 3.1485,-3.1412 2.8488,-3.4107 2.5191,-3.647 2.1593,-3.8498 1.7691,-4.0194 1.349,-4.1557 0.8987,-4.2587 10e-4,-0.0127 0.4191,-4.3328 -0.0489,-4.3856 -0.504,-4.4218 -0.9465,-4.4413 -1.3757,-4.4442 -1.792,-4.4303 -2.1958,-4.3997 -2.5864,-4.3524 -2.9641,-4.2885 -3.3571,-4.2969 -0.0171,-0.0213 -3.7651,-4.3771 -4.1884,-4.5297 -4.6268,-4.7545 -5.0804,-5.0516 -5.5495,-5.4208 -6.0335,-5.8624 -6.5327,-6.3761 -6.9432,-6.8112 -7.2649,-7.1678 -7.4976,-7.4459 -7.6415,-7.6453 -7.6842,-7.7538 -7.6635,-7.8094 -7.5411,-7.7729 -7.3297,-7.6579 -7.1872,-7.8099 -7.1134,-8.2287 -7.1086,-8.9147 -7.1726,-9.8674 -7.3054,-11.0872 -7.5069,-12.5739 -7.7774,-14.3276 -8.1166,-16.3482 -8.3142,-17.7987 -8.37,-18.6791 -8.2839,-18.9893 -8.0562,-18.7295 -7.6868,-17.899402 -7.1755,-16.4993 -6.5226,-14.5291 -5.728,-11.9886 -5.0555,-9.7398 -4.5056,-7.7825 -4.0778,-6.11674 -3.7725,-4.74243 -3.5895,-3.65975 -3.5288,-2.86851 -3.5905,-2.36885 -3.7745,-2.1606896 -3.9362,-1.93506 -4.0758,-1.6919 -4.193,-1.43117 -4.2881,-1.15295 -4.361,-0.85724 -4.4116,-0.54395 -4.4399,-0.21323 -4.4461,0.13508 -4.4311,0.46098 -4.3952,0.76441 -4.3381,1.04552 -4.26,1.30416 -4.1607,1.54038 -4.0406,1.75421 -3.8992,1.9456496 -3.7368,2.11464 -3.619,2.39326 -3.5457,2.78141 -3.5171,3.27914 -3.533,3.88642 -3.5934,4.60338 -3.6985,5.42983 -3.8481,6.3659 -4.0422,7.4115 -4.0912,8.0607 -0.1499,0.2952 -4.4372,9.1825 -4.6371,9.9084 -4.839,10.5277 -5.0427,11.0405 -5.2483,11.446802 -5.4559,11.7463 -5.6653,11.9395 -5.8456,12.0304 -5.9966,12.0193 -6.1186,11.9062 -6.2113,11.691 -6.2749,11.3736 -6.3093,10.9543 -6.3145,10.4329 -6.2905,9.8094 -6.3179,9.2692 -6.3967,8.8125 -6.5268,8.4392 -6.7083,8.1491 -6.941,7.9426 -7.2252,7.8194 -7.5607,7.7795 -7.9475,7.8231 -8.207701,7.8003 -8.3409,7.7112 -8.3474,7.5556 -8.2272,7.3339 -7.9801,7.0457 -7.6063,6.6912 -7.1056,6.2704 -6.4783,5.7832 -5.8883,5.3579 -5.3358,4.9948 -4.8208,4.6934 -4.343,4.4541 -3.9029,4.2768 -3.5001,4.1615 -3.1347,4.1081 -2.8069,4.1166 -2.4615995,4.1246 -2.099,4.1318 -1.7189,4.1383 -1.3217,4.144 -0.9071,4.1493 -0.4749,4.1536 -0.0255,4.1574 10e-4,0.0298 0.4399,4.1582 0.8813,4.1246 1.298,4.0546 1.6896,3.9478 2.0565,3.8048 2.3981995,3.6249 2.7151,3.4086 3.007,3.1558 3.2741,2.8664 3.5062,2.557 3.7036,2.2278 3.8661,1.8786 3.9937,1.5097 4.0866,1.1206 4.1446,0.7118 4.1677,0.2831 4.156,-0.1657 4.138,-0.6033 4.1135,-1.0298 0.0266,-0.009 4.0838,-1.4455 4.0465,-1.8499 4.0029,-2.2432 3.9529,-2.6255 3.8964,-2.9967 0.0194,-0.0161 0.0158,-0.0132 0.0127,-0.0107 0.01,-0.008 0.008,-0.006 0.006,-0.005 0.004,-0.003 0.003,-0.002 0.002,-0.002 0.001,-0.001 3.8323,-3.3555 3.8343,-3.7777 3.9011,-4.2624 4.0326,-4.8093 4.2289,-5.4186 4.489801,-6.0901 4.8157,-6.8242 5.2063,-7.6206 5.6616,-8.4791 6.0293,-9.1897 6.3097,-9.752 z"
     id="path12"
     inkscape:connector-curvature="0"
     style="fill-opacity:0;stroke:#000000;stroke-width:0.37836622;stroke-miterlimit:4;stroke-dasharray:none" />
  <path
     d="m 324.18351,103.55365 -1.6739,-0.6804 -0.337,-0.1049 -1.6968,-0.5287 -0.3408,-0.0723 -1.7158,-0.3644 -0.3438,-0.0372 -1.7309,-0.1876 -1.742,0.002 -0.3461,3e-4 -1.7478,0.1907 -0.3471,0.0379 -1.748,0.3794 -0.3472,0.0753 -1.7427,0.5678 -0.3462,0.1127 -0.344,0.1501 -1.7319,0.756 -0.3407,0.1873 -1.7157,0.9439 -0.3364,0.2245 -1.6939,1.1315 -0.3309,0.2617 -1.6666,1.3189 -1.6339,1.5059 -0.3244,0.2987 -1.6081,1.679 -0.3193,0.333 -1.5893,1.838 -0.3157,0.3646 -1.5776,1.9828 -0.3133,0.3935 -0.3124,0.4194 -1.5729,2.1137 -0.313,0.4428 -1.5752,2.2305 -0.3148,0.4633 -1.5846,2.3333 -0.3181,0.481 -1.601,2.422 -1.6242,2.4967 -0.3229,0.496 -1.7157,2.6686 -0.341,0.5303 -1.875,2.9378 -0.3728,0.5837 -2.1024,3.3042 -0.4178,0.6565 -0.4763,0.7484 -2.3978,3.7679 -0.5484,0.8597 -2.7612,4.3288 -0.6338,0.9902 -3.1926,4.987 -0.7328,1.1398 -3.692,5.7425 -4.2594,6.5951 -0.8451,1.3088 -4.7276,7.3078 -0.9379,1.4499 -5.0966,7.8803 -1.011,1.5633 -5.3664,8.3127 -1.0644,1.649 -1.0981,1.707 -5.5371,8.6049 -1.1122,1.737 -5.6087,8.7571 -1.1066,1.7395 -5.5809,8.7692 -1.0815,1.7139 -5.454,8.6413 -5.2279,8.3732 -1.0365,1.6607 -5.0558,8.1728 -1.0025,1.621 -4.9377,8.0401 -0.9791,1.5946 -4.8736,7.9752 -0.9664,1.5817 -0.9644,1.5821 -4.8635,7.978 -0.9732,1.596 -4.9074,8.0483 -0.9927,1.6235 -5.0053,8.1864 -1.0229,1.6642 -5.1572,8.3923 -5.3632,8.6659 -1.0638,1.7183 -5.4956,8.8153 -1.0902,1.7479 -5.5546,8.8406 -1.1019,1.7529 -5.5401,8.7418 -1.0991,1.7332 -1.0817,1.689 -5.4521,8.5189 -1.0497,1.6202 -5.2906,8.1719 -1.0031,1.5268 -5.0558,7.7006 -0.9419,1.4088 -4.7473,7.1054 -4.3656,6.386 -0.8661,1.2661 -4.0377,5.7187 -0.8011,1.1339 -3.764101,5.1035 -0.7466,1.0119 -3.5445,4.5407 -0.7029,0.9002 -0.6699,0.799 -3.379,4.0297 -0.6476,0.708 -3.2676,3.5711 -0.6359,0.6272 -3.2103,3.1645 -0.635,0.5568 -3.207,2.8102 -3.258,2.5079 -0.6447,0.4968 -3.3036,2.1965 -0.6535,0.435 -3.3443,1.8763 -0.6613,0.3714 -3.3797,1.5468 -0.6682,0.3061 -0.6739,0.2392 -3.4102,1.2083 -0.6788,0.1703 -3.4354,0.8608 -0.6828,0.0997 -3.4555,0.5043 -0.6857,0.0274 -3.4705,0.1386 -3.4804,-0.2361 -0.6877,-0.0465 -3.4609,-0.594 -0.6838,-0.1173 -3.4122,-0.9352 -0.6741,-0.1846 -3.334,-1.2596 -0.6586,-0.2487 -0.6371,-0.3093 -3.2267,-1.5671 -0.6099,-0.3667 -3.0899,-1.858 -0.5768,-0.4206 -2.9237,-2.1322 -0.5379,-0.4712 -2.7284,-2.3894 -2.5037,-2.6299 -0.493,-0.5185 -2.2584995,-2.8402 -0.4443,-0.5598 -1.9928,-3.0199 -0.3916,-0.5952 -1.7067,-3.1694 -0.3349,-0.6245 -0.2743,-0.648 -1.4002,-3.2886 -0.2096,-0.6655 -1.0732,-3.3773 -0.141,-0.677 -0.72570003,-3.4357 -0.0686,-0.6826 -0.3577,-3.4637 0.0308,-3.4615 0.008,-0.6821 0.40490003,-3.4589 0.0817,-0.6818 0.7648,-3.4562 0.1526,-0.6813 1.1104,-3.4531 0.2209,-0.681 0.2863,-0.6807 1.4418,-3.4498 0.3489,-0.6804 1.7591,-3.4463 0.4088,-0.6801 2.062,-3.4426 0.4659995,-0.6798 2.3507,-3.4386 2.6251,-3.4343 0.5203,-0.6795 2.9309,-3.4819 0.5808,-0.6896 3.2679,-3.5813 0.6476,-0.7097 3.6363,-3.7324 0.7205,-0.7403 0.7997,-0.781 4.0359,-3.9354 0.8851,-0.832 4.4668,-4.1901 0.9766,-0.8932 4.9291,-4.4967 1.0743,-0.9648 5.4227,-4.8551 5.9475,-5.2652 1.1782,-1.0465 6.3664,-5.6193 1.2612,-1.117 6.6793,-5.9175 1.3231,-1.1763 6.8861,-6.1596 1.3641,-1.2244 1.3842,-1.2614 6.9869,-6.3456 1.3832,-1.2871 6.9816,-6.4755 1.3612,-1.3016 6.870501,-6.5496 1.3183,-1.3049 6.6532,-6.5674 6.33,-6.5293 1.2544,-1.2971 6.0496,-6.5612 1.1989,-1.3031 5.8122,-6.663 1.1519,-1.3231 5.6177,-6.8349 1.1134,-1.3569 1.0834,-1.4046 5.466,-7.0768 1.0619,-1.4663 5.3571,-7.3887 1.0488,-1.5418 5.2912,-7.7705 1.0442,-1.6313 5.2681,-8.2224 5.288,-8.7443 1.0481,-1.7347 5.2833,-9.1806 1.0471,-1.821 5.2541,-9.5314 1.0412,-1.8906 5.2002,-9.7967 1.0305,-1.943 1.0148,-1.9785 5.1219,-9.9765 0.9943,-1.9971 5.019,-10.0706 0.9688,-1.9987 4.8916,-10.0794 0.9385,-1.9834 4.7396,-10.0024 4.5631,-9.8402 0.9032,-1.951 4.3884,-9.588702 0.8685,-1.9011 4.2155,-9.2481 0.834,-1.8335 4.0444,-8.8185 0.8,-1.7483 0.7665,-1.6455 3.875,-8.2997 0.7333,-1.525 3.7075,-7.6918 0.7005,-1.3869 3.5418,-6.9949 0.668,-1.2312 3.3781,-6.2088 3.2159,-5.3338 0.636,-1.0578 3.0912,-4.55018 0.6115,-0.90262 3.0039,-3.85837 0.5942,-0.76556 2.954,-3.25819 0.5844,-0.64661 0.5822,-0.54583 2.9413,-2.74969 0.5872,-0.4632 2.9661,-2.33283 0.5997,-0.39868 3.0283,-2.00762 0.6196,-0.35234 3.1277,-1.7740496 3.2646,-1.63214 0.6469,-0.32415 3.3837,-1.47151 0.6707,-0.29222 3.485,-1.29206 0.6909,-0.25657 3.5684,-1.09388 0.7075,-0.21723 0.7206,-0.17412 3.6341,-0.87694 0.7301,-0.12733 3.6819,-0.64123004 0.736,-0.07682 3.712,-0.38675 0.7384,-0.0226 3.7243,-0.11351 3.7186,0.17847 0.7373,0.03537 3.6946,0.45580004 0.7323,0.0904 3.6519,0.71846 0.7239,0.14254 3.5907,0.96644 0.7116,0.19177 0.6958,0.23807 3.5109,1.19975 0.6763,0.28149 3.4126,1.41839 0.6531,0.32198 3.2957,1.62237 0.6263,0.35959 3.1602,1.8116396 3.0062,1.98628 0.5957,0.39427 2.9547,2.405 0.5855,0.47734 3.0056,3.06781 0.5956,0.60877 3.1589,3.97471 0.626,0.78858 0.6768,1.01674 3.4147,5.1257 0.7478,1.2933 3.773,6.5208 0.8391,1.6183 4.2336,8.16 0.9508,1.9915 4.7968,10.0433 5.4624,12.1706 1.0828,2.4132 6.0093,13.8206 1.1912,2.7403 6.4376,14.993002 1.2762,2.9726 6.7472,15.6881 1.3375,3.1104 1.3755,3.1536 6.9382,15.9056 1.3899,3.102 7.0104,15.6458 1.3808,2.9558 6.9641,14.9085 1.3481,2.715 6.7991,13.6938 6.5153,12.0015 1.292,2.3796 6.2893,10.533 1.2471,2.0884 6.1207,9.288 1.2138,1.8418 6.0095,8.2666 1.1919,1.6393 1.1813,1.4812 5.9561,7.4689 1.182,1.3675 5.9601,6.8948 1.1942,1.2981 6.0216,6.5443 1.2178,1.2731 6.1408,6.4174 6.3174,6.5142 1.2527,1.2923 6.4198,6.5451 1.2729,1.2985 6.4477,6.5099 1.2784,1.2916 6.4013,6.4088 1.2692,1.2716 1.2452,1.2384 6.2805,6.2418 1.2066,1.1923 6.0854,6.0089 1.153,1.1329 5.816,5.71 1.0849,1.0605 5.4721,5.3451 5.0539,4.9143 1.002,0.975 4.6485,4.5439 0.9215,0.9014 4.2557,4.2338 0.8437,0.8399 3.8755,3.984 0.7683,0.7902 0.6954,0.7523 3.5081,3.7947 0.6251,0.7266 3.1533,3.6656 0.5572,0.7127 2.8113,3.597 0.4919,0.7107 2.4819,3.5887 2.1653,3.6407 0.4289,0.7207 1.838,3.679 0.3641,0.728 1.5,3.7033 0.2971,0.7326 1.1516,3.7139 0.2281,0.7344 0.157,0.7337 0.7924,3.7107 0.0838,0.7301 0.4226,3.6935 0.009,0.7239 0.0422,3.6627 -0.0686,0.7148 -0.3488,3.618 -0.7504,3.5595 -0.1479,0.7032 -1.1267,3.473 -0.2223,0.686 -1.4776,3.3588 -0.2916,0.6632 -1.8033,3.2165 -0.3558,0.635 -0.415,0.6012 -2.1036,3.0463 -0.4692,0.5619 -2.3787,2.8483 -0.5182,0.5171 -2.6283,2.6223 -0.5623,0.4666 -2.8528,2.3686 -3.0519,2.0867 -0.6013,0.4107 -3.2121,1.8013 -0.6327,0.354 -3.3335,1.5121 -0.6564,0.2967 -3.416,1.219 -0.6726,0.2387 -0.6811,0.18 -3.4595,0.9223 -0.682,0.1206 -3.4641,0.6218 -0.6753,0.0604 -3.4301,0.3175 -0.6609,-4e-4 -3.357,0.01 -3.245,-0.3022 -0.6389,-0.062 -3.1468,-0.6151 -0.6196,-0.1237 -3.0621,-0.929 -0.6031,-0.1857 -2.9909,-1.2441 -0.5895,-0.2479 -0.5784,-0.3104 -2.9334,-1.5601 -0.5702,-0.3731 -2.8896,-1.8774 -0.5647,-0.436 -2.8592,-2.1957 -0.5619,-0.4991 -2.8426,-2.5151 -2.8395,-2.8356 -0.5619,-0.5624 -2.874,-3.1942 -0.5693,-0.6333 -2.9461,-3.5906 -0.584,-0.7118 -3.0557,-4.0251 -0.6062,-0.7978 -0.6358,-0.8913 -3.2028,-4.4976 -0.6727,-0.9923 -3.3875,-5.0081 -0.717,-1.101 -3.6098,-5.5566 -0.7687,-1.217 -3.8695,-6.1432 -4.1669,-6.7677 -0.8278,-1.3407 -4.4075,-7.2874 -0.8757,-1.4436 -4.5913,-7.7024 -0.9122,-1.5257 -4.7184,-8.0126 -0.9375,-1.587 -0.9516,-1.6277 -4.7886,-8.2179 -0.9544,-1.6475 -4.8021,-8.3185 -0.9458,-1.6466 -4.7589,-8.3142 -0.9261,-1.625 -4.6589,-8.2052 -4.5022,-7.9913 -0.8949,-1.5826 -4.4198,-7.9 -0.8786,-1.5644 -4.4116,-7.9311 -0.877,-1.5707 -4.4779,-8.0847 -0.8902,-1.6013 -0.9181,-1.6562 -4.6184,-8.3607 -0.9607,-1.7356 -4.8333,-8.7591 -1.0182,-1.8392 -5.1223,-9.2801 -1.0904,-1.9672 -5.4858,-9.9235 -5.9237,-10.6894 -1.1772,-2.1195 -6.2113,-11.1751 -1.2344,-2.2162 -6.3489,-11.3805 -1.2616,-2.2572 -6.3366,-11.3058 -1.2591,-2.2426 -1.2268,-2.1724 -6.1739,-10.9509 -1.1647,-2.0464 -5.8613,-10.3158 -1.0727,-1.8649 -5.3987,-9.4004 -0.9509,-1.6277 -4.7859,-8.2049 -4.023,-6.7293 -0.7994,-1.3348 -3.3608,-5.4268 -0.6678,-1.0764 -2.7993,-4.2977 -0.5562,-0.8524 -2.3383,-3.3419 -0.4646,-0.6627 -0.393,-0.5075 -1.9781,-2.5594 -0.3415,-0.3866 -1.7184,-1.9502 -0.3098,-0.3002 -1.5596,-1.5144 -0.2982,-0.2481 -1.5012,-1.2518 -1.5435,-1.1625 -0.3067,-0.2305 -1.5819,-1.0608 -0.3143,-0.2103 -1.6164,-0.9465 -0.3212,-0.1877 -1.6471,-0.8197 -0.3272,-0.1626 z"
     id="path14"
     style="fill-opacity:0;stroke:#000000;stroke-width:1.13509864;stroke-miterlimit:4;stroke-dasharray:none"
     inkscape:connector-curvature="0" />
  <path
     d="m 338.17041,15.497118 1.3364,0.61234 2.4727,1.12923 1.2891,0.7027 2.3849,1.29625 1.2363,0.7871 2.2867,1.45233 2.1781,1.5975 1.1778,0.86553 2.1466,1.92103 1.1615,1.04086 2.192,2.42286 1.1875,1.313 2.3145,3.1031 1.2556,1.6822 1.3658,2.148 2.5141,3.9617 1.5182,2.7109 2.7907,4.9985 1.7128,3.3706 3.1444,6.2138 1.9496,4.1272 3.575,7.6073 4.0827,9.1794 2.2285,4.9806 4.503,10.3988 2.4594,5.643102 4.8356,11.2659 2.6423,6.1144 5.0808,11.7805 2.7769,6.3948 2.8636,6.4842 5.2387,11.9426 2.9021,6.3825 5.309,11.7523 2.8926,6.0897 5.2918,11.2096 2.835,5.6059 5.1871,10.3144 4.9948,9.0668 2.7294,4.9311 4.8405,7.9875 2.6443,4.3475 4.724,7.0766 2.5798,3.8552 4.6453,6.3341 2.5358,3.4541 2.5126,3.1442 4.6044,5.7599 2.5097,2.9256 4.6014,5.3542 2.5275,2.7982 4.6363,5.1167 2.5658,2.7621 4.7088,5.0476 4.8194,5.1471 2.6248,2.8171 4.877,5.1902 2.6551,2.8414 4.8817,5.1772 2.6569,2.8348 4.8336,5.1079 2.6299,2.7974 2.5746,2.7291 4.7326,4.9827 2.4905,2.6299 4.5788,4.8012 2.3778,2.4999 4.3721,4.5636 2.2366,2.3391 4.1125,4.2697 3.8001,3.9198 2.0668,2.1474 3.4961,3.6091 1.9017,1.9773 3.2006,3.338 1.7414,1.8287 2.9137,3.1059 1.5858,1.7018 1.435,1.5963 2.6351,2.9133 1.2889,1.5124 2.3651,2.7601 1.1476,1.4501 2.1036,2.6463 1.011,1.4093 1.8505,2.5717 1.6059,2.5365 0.8792,1.3901 1.3431,2.4623 0.755,1.3808 1.0528,2.3147 0.6476,1.4149 0.7423,2.0682 0.5501,1.5159 0.4572,1.7721 0.415,1.6266 0.3317,2.1232 0.1556,1.0253 0.1248,2.4386 0.0169,0.3591 -0.1442,2.4649 -8e-4,0.0122 -0.002,0.0118 -0.3835,2.3891 -0.088,0.3245 -0.5957,2.1837 -0.3278,0.8515 -0.6753,1.7409 -0.6242,1.225 -0.6733,1.3156 -0.6599,0.9963 -0.9093,1.3871 -0.6713,0.8153 -1.1105,1.3608 -0.6903,0.6839 -1.2478,1.2415 -0.7146,0.5743 -1.3255,1.0613 -1.3586,0.8465 -0.7301,0.462 -1.3672,0.6264 -0.75,0.3542 -1.3298,0.4006 -0.7941,0.2519 -1.2268,0.1818 -0.8783,0.1435 -1.062,0.005 -0.9928,-0.004 -1.3054,-0.1854 -0.6407,-0.0953 -1.5319,-0.4425 -0.2287,-0.0663 -1.5718,-0.6975 -0.008,-0.003 -0.008,-0.004 -1.5408,-0.9021 -0.2199,-0.1538 -1.4773,-1.0776 -0.6184,-0.5122 -1.2652,-1.0945 -0.9801,-0.927 -1.0547,-1.0388 -0.9101,-1.0023 -1.2605,-1.3257 -0.874,-1.0277 -1.45,-1.6391 -0.8912,-1.0859 -1.6091,-1.8984 -0.9504,-1.1716 -1.7519,-2.1074 -1.8987,-2.2853 -1.0332,-1.2636 -2.0601,-2.494 -1.1238,-1.3726 -2.2367,-2.7336 -1.2222,-1.499 -2.4281,-3.0041 -1.3286,-1.6426 -1.443,-1.8034 -2.6343,-3.3055 -1.5652,-1.9815 -2.8554,-3.6377 -1.6954,-2.1768 -3.0914,-4.0008 -1.8335,-2.3894 -3.3423,-4.3949 -3.608,-4.8196 -1.9795,-2.6193 -3.8262,-5.1704 -2.0997,-2.809 -3.9969,-5.4472 -2.1939,-2.9588 -4.1202,-5.6497 -2.2622,-3.0685 -2.3046,-3.1381 -4.1959,-5.7782 -2.3212,-3.1677 -4.2241,-5.8328 -2.3118,-3.1571 -4.2048,-5.8132 -2.2765,-3.1067 -4.138,-5.7195 -4.0237,-5.5518 -2.2154,-3.016 -3.9677,-5.4954 -2.1855,-2.9871 -3.9699,-5.5503 -2.1872,-3.0199 -4.0305,-5.7165 -2.22,-3.1143 -2.2843,-3.2705 -4.1494,-5.994 -2.38,-3.4883 -4.3265,-6.3829 -2.5072,-3.7678 -4.5618,-6.883 -2.6655,-4.109 -4.8557,-7.4946 -5.2075,-8.2173 -2.8553,-4.5118 -5.4335,-8.7001 -2.9767,-4.782 -5.5334,-8.9427 -3.0296,-4.9191 -5.5071,-8.9453 -3.0141,-4.9236 -2.9301,-4.7953 -5.3549,-8.7077 -2.7777,-4.5342 -5.0766,-8.23 -2.5568,-4.1403 -4.6723,-7.5123 -2.2674,-3.6135 -4.1419,-6.5546 -3.4854,-5.3566 -1.9097,-2.9539 -2.9158,-4.3011 -1.5994,-2.3727 -2.433,-3.3879 -1.3365,-1.8697 -2.037,-2.617 -1.1211,-1.4451 -0.9531,-1.0987 -1.728,-1.9885 -0.8326,-0.8306 -1.5056,-1.502302 -0.7595,-0.6409 -1.3702,-1.1584 -0.7339,-0.5294 -1.3216,-0.9569 -1.3598,-0.8977 -0.7557,-0.4962 -1.3943,-0.8264 -0.7754,-0.4564 -1.425,-0.7431 -0.7928,-0.41 -1.4519,-0.6476 -0.8081,-0.357 -0.8212,-0.2974 -1.4751,-0.54 -0.8322,-0.2311 -1.4945,-0.4203 -0.8409,-0.1584 -1.5102,-0.2885 -0.8474,-0.0789 -1.5221,-0.1445 -1.5302,0.0114 -0.8519,0.007 -1.5329,0.1655 -0.8532,0.092 -1.5304,0.3177 -0.8516,0.1757 -1.5224,0.468 -0.8468,0.2582 -0.8392,0.3395 -1.5091,0.6165 -0.8284,0.4195 -1.4904,0.763 -0.8147,0.4986 -1.4663,0.9076 -0.7979,0.5763 -1.437,1.0503 -1.4022,1.1912 -0.778,0.6529 -1.3775,1.3296 -0.7639,0.7289 -1.3628,1.465602 -0.7557,0.8045 -1.3582,1.5992 -0.7531,0.8795 -0.7563,0.9542 -1.3636,1.7303 -0.7653,1.0282 -1.3791,1.859 -0.7799,1.1019 -1.4048,1.9853 -0.8003,1.1749 -1.4404,2.1091 -1.486,2.2306 -0.8265,1.2475 -1.5741,2.4129 -0.8752,1.352 -1.7046,2.6559 -0.9462,1.4884 -1.8776,2.9597 -1.0397,1.6567 -1.1555,1.8568 -2.093,3.3245 -1.2938,2.0889 -2.3508,3.7499 -1.4545,2.3529 -2.6511,4.2363 -1.6376,2.6486 -2.9937,4.7835 -3.3789,5.3915 -1.8431,2.9763 -3.695,5.8956 -2.012,3.2475 -3.9421,6.2959 -2.1441,3.4622 -4.1203,6.5923 -2.2395,3.6203 -2.2984,3.7219 -4.2294,6.7848 -2.3203,3.7669 -4.2696,6.8736 -2.3058,3.7554 -4.2407,6.8585 -2.2544,3.6874 -4.1429,6.7395 -3.976,6.5167 -2.1664,3.5628 -3.8529,6.3449 -2.1021,3.4662 -3.7737,6.2243 -2.0613,3.3976 -3.7383,6.1545 -2.0442,3.3572 -2.0508,3.3446 -3.7465,6.1359 -2.081,3.3601 -3.7986,6.1682 -2.1349,3.4037 -3.8945,6.2517 -2.2124,3.4752 -4.0341,6.3862 -4.2176,6.5716 -2.3135,3.5748 -4.3397,6.6673 -2.3809,3.6258 -4.4003,6.6731 -2.4144,3.6283 -4.3996,6.5892 -2.4142,3.5822 -2.3803,3.4874 -4.3375,6.4154 -2.3124,3.3442 -4.214,6.1519 -2.2109,3.1523 -4.0291,5.7985 -2.0756,2.9119 -3.7828,5.3553 -3.4751,4.8222 -1.906501,2.623 -3.2005,4.3249 -1.7555,2.3535 -2.9589,3.8633 -1.6226,2.1036 -2.7504,3.4373 -1.5077,1.8734 -1.4111,1.6626 -2.5749,3.047 -1.3325,1.4715 -2.4325,2.6923 -1.2719,1.2998 -2.3232,2.3734 -1.2296,1.1478 -2.2468,2.0901 -2.2035,1.8425 -1.2053,1.0153 -2.1374,1.5738 -1.1958,0.8913 -2.0183,1.2718 -1.2305,0.7891 -1.8214,0.9412 -1.3317,0.7044 -1.5836,0.6408 -1.4557,0.5765 -1.9338,0.5576 -0.9353,0.2611 -2.2732,0.3911 -0.3352,0.0553 -2.363,0.1326 -0.0116,7e-4 -0.0118,-6e-4 -2.3613,-0.1087 -0.3302,-0.0486 -2.2248,-0.3389 -0.8908,-0.2217 -1.8247,-0.4679 -1.3178,-0.4686 -1.4181,-0.516 -1.1084,-0.5424 -1.5375,-0.732 -0.9332,-0.5777 -1.5522,-0.9397 -0.8046,-0.6163 -1.457,-1.0989 -0.6946,-0.6588 -1.2839,-1.2092 -1.0619,-1.2819 -0.5764,-0.6938 -0.8357,-1.3297 -0.4666,-0.7331 -0.602,-1.3306 -0.3692,-0.797 -0.3699,-1.2616 -0.2747,-0.9048 -0.1701,-1.1235 -0.1528,-1.0491 -0.0277,-1.4164 -0.0103,-0.6949 0.1783,-1.7065 0.0268,-0.2547 0.4063,-1.8016 0.002,-0.009 0.003,-0.009 0.5951,-1.8146 0.1093,-0.2635 0.7694,-1.7774 0.3842,-0.7517 0.8226,-1.5461 0.7232,-1.203 0.8096,-1.301 0.8032,-1.1289 1.0654,-1.5545 0.8426,-1.0819 1.3484,-1.7862 0.9079,-1.0948 1.593,-1.9689 0.9973,-1.1533 1.8,-2.12 1.9847,-2.2643 1.0943,-1.2338 2.1915,-2.4428 1.2037,-1.3331 2.4206,-2.6553 1.3256,-1.4511 2.6719,-2.9022 1.4602,-1.5878 1.6071,-1.7431 2.9454,-3.1832 1.7667,-1.9173 3.2412,-3.4984 1.9386,-2.1102 3.5593,-3.8476 2.1231,-2.3218 3.8995,-4.2311 4.2621,-4.6488 2.3202,-2.552 4.5537,-5.0002 2.4787,-2.7458 4.7746,-5.2854 2.5987,-2.9028 4.9246,-5.5043 2.680201,-3.0233 2.7233,-3.1071 5.0038,-5.657 2.7278,-3.1542 5.0122,-5.7435 2.6938,-3.1648 4.9497,-5.7638 2.6213,-3.1386 4.8164,-5.7178 4.6123,-5.6056 2.5103,-3.076 4.4345,-5.5539 2.4137,-3.0462 4.2829,-5.5625 2.3314,-3.0496 4.1576,-5.6315 2.2636,-3.086 2.2099,-3.1554 4.0587,-5.7612 2.1708,-3.2579 3.9859,-5.9511 2.146,-3.3934 3.9395,-6.2015 2.1355,-3.562 3.9193,-6.5123 3.9254,-6.8835 2.1395,-3.7636 3.9071,-7.1865 2.1297,-3.9271 3.8643,-7.421 2.1065,-4.0527 3.797,-7.5873 2.0698,-4.14 2.0193,-4.1894 3.7053,-7.6852 1.9554,-4.2007 3.589,-7.7147 1.8779,-4.174 3.4484,-7.6759 1.7868,-4.1092 3.2832,-7.5688 3.0938,-7.3932 1.682,-4.0064 2.9166,-7.1638 1.5843,-3.8759 2.7518,-6.880602 1.4937,-3.7175 2.5993,-6.5435 1.41,-3.5315 1.3333,-3.3179 2.4593,-6.1524 1.2635,-3.0765 2.3318,-5.7075 1.2007,-2.8073 2.2165,-5.2089 1.145,-2.5104 2.1137,-4.6562 2.0233,-4.0496 1.0962,-2.1859 1.9624,-3.5032 1.0633,-1.8933 1.9309,-3.0167 1.0463,-1.6325 1.929,-2.5903 1.0451,-1.4037 1.0599,-1.2068 1.9565,-2.22392 1.0904,-1.04187 2.0135,-1.9175 1.137,-0.9088 2.1,-1.67115 1.1992,-0.80766 2.2162,-1.48486 2.3616,-1.35858 1.2774,-0.73843 2.4858,-1.219 1.3441,-0.6621 2.5885,-1.06616 1.3993,-0.57867 2.6699,-0.9 1.443,-0.48809 1.4752,-0.39047 2.7299,-0.72054 1.4959,-0.28567 2.7685,-0.52782 1.5051,-0.17382 2.7858,-0.32179 1.5028,-0.05485 2.7817,-0.10245 2.7561,0.13012 1.489,0.07125 2.7203,0.35183 1.4696,0.19138 2.6739,0.56257 1.4447,0.30554 2.6173,0.76238 1.4141,0.41378 1.378,0.51605 z"
     id="path16"
     style="fill-opacity:0;stroke:#000000;stroke-width:0.37836622;stroke-miterlimit:4;stroke-dasharray:none"
     inkscape:connector-curvature="0" />
  <path
     d="m 339.23161,8.5593484 3.9386,1.7218296 0.0379,0.01645 3.8004,1.97411 0.0366,0.01885 3.6434,2.20935 0.0351,0.0211 0.0334,0.02318 3.4676,2.4275 0.0328,0.02796 3.4112,2.92736 0.0334,0.03546 3.474,3.70898 0.0351,0.04567 3.6561,4.77226 3.9576,6.11734 0.0381,0.0586 4.3782,7.744 0.0421,0.0742 4.9184,9.6525 0.0473,0.0926 5.5776,11.8427 0.0537,0.1137 0.0611,0.1374 6.3563,14.3146 0.0673,0.1559 6.9988,16.2311 0.0722,0.169 7.5051,17.592402 0.0757,0.1767 7.8752,18.3984 8.1093,18.649 0.0779,0.1792 8.207,18.3443 0.0789,0.1761 8.1686,17.4843 0.0785,0.1679 7.9941,16.069 0.0768,0.1543 0.0737,0.1354 7.6833,14.0983 0.0714,0.1189 7.4353,12.3907 0.0695,0.1051 7.2499,10.9462 0.0683,0.0937 7.1271,9.7647 7.0668,8.8463 0.0677,0.0849 7.0694,8.191 0.0677,0.0785 7.1345,7.7989 0.0684,0.0747 7.2621,7.6696 0.0697,0.0735 0.0715,0.0747 7.4525,7.8035 0.0725,0.0752 7.5581,7.8552 0.0727,0.0748 7.5788,7.8247 0.0721,0.0737 7.5146,7.7117 7.3654,7.5167 0.0708,0.0719 7.1316,7.2393 0.0684,0.0693 6.813,6.8797 0.0654,0.0658 6.4094,6.438 0.0615,0.0615 0.0569,0.0566 5.9209,5.9139 0.0523,0.0522 5.4456,5.4541 0.0479,0.0485 4.9836,5.059 0.0436,0.0453 4.5347,4.7284 4.0991,4.4621 0.0394,0.0428 3.6765,4.2602 0.0353,0.041 3.2672,4.1228 0.0315,0.0398 2.871,4.0499 0.0276,0.0391 0.024,0.0391 2.4881,4.0415 0.0203,0.0391 2.1014,4.0238 0.0165,0.0389 1.7109,3.997 0.0127,0.0386 1.3167,3.9609 0.9188,3.9157 0.009,0.0382 0.5171,3.8613 0.005,0.0377 0.1116,3.7977 0.001,0.0371 -0.2977,3.7248 -0.003,0.0365 -0.007,0.0358 -0.7106,3.6427 -0.0108,0.0347 -1.089,3.528 -0.0142,0.0332 -1.4332,3.3803 -0.0173,0.0315 -1.7428,3.1997 -2.0179,2.9862 -0.02,0.0295 -2.2587,2.74 -0.0225,0.0271 -2.465,2.4608 -0.0245,0.0245 -2.6369,2.1488 -0.0263,0.0215 -0.0278,0.0182 -2.7743,1.8039 -0.0289,0.015 -2.8836,1.4636 -0.0298,0.0117 -2.9646,1.1278 -0.0304,0.009 -3.0175,0.7965 -3.0423,0.4699 -0.0307,0.005 -3.0389,0.1476 -0.0307,0.002 -3.0074,-0.1699 -0.0303,-8e-4 -2.9478,-0.4829 -0.0297,-0.004 -0.0288,-0.007 -2.8598,-0.7914 -0.0282,-0.01 -2.7984,-1.1036 -0.0277,-0.0132 -2.7632,-1.4191 -0.0275,-0.0163 -2.7546,-1.7384 -2.7722,-2.0611 -0.0276,-0.0194 -2.8161,-2.3875 -0.0279,-0.0226 -2.8866,-2.7173 -0.0284,-0.0258 -2.9834,-3.0508 -0.0291,-0.0291 -0.0302,-0.0325 -3.1065,-3.3876 -0.0315,-0.0362 -3.2619,-3.7694 -0.0331,-0.0403 -3.4497,-4.1961 -0.0352,-0.0449 -3.6696,-4.6675 -3.922,-5.1838 -0.0375,-0.0499 -4.2065,-5.7448 -0.0401,-0.0554 -4.5235,-6.3507 -0.043,-0.0612 -4.8726,-7.0014 -0.0464,-0.0675 -0.0499,-0.0743 -5.2541,-7.697 -0.0529,-0.0798 -5.5651,-8.2733 -0.0551,-0.0843 -5.8054,-8.7303 -0.0568,-0.0876 -5.9751,-9.0681 -6.0743,-9.2868 -0.0577,-0.0896 -6.1029,-9.3862 -0.0579,-0.0906 -6.061,-9.3662 -0.0575,-0.0905 -5.9485,-9.2271 -0.0564,-0.0892 -0.0547,-0.0867 -5.7653,-8.9688 -0.0538,-0.0857 -5.6724,-8.8678 -0.0537,-0.0862 -5.6693,-8.9242 -0.0546,-0.0882 -5.7563,-9.138 -5.9335,-9.5092 -0.0562,-0.0918 -6.2006,-10.0377 -0.0588,-0.0968 -6.5578,-10.7237 -0.0622,-0.1032 -7.005,-11.5671 -0.0665,-0.1112 -0.0716,-0.1207 -7.5424,-12.5678 -0.0749,-0.1268 -7.8919,-13.2204 -0.0764,-0.1296 -8.0537,-13.5246 -0.0763,-0.1291 -8.0277,-13.4806 -7.8139,-13.0884 -0.0742,-0.1254 -7.4125,-12.3478 -0.0704,-0.1182 -6.8232,-11.2592 -0.0649,-0.1078 -6.0462,-9.8222 -0.0574,-0.094 -0.0483,-0.077 -5.0815,-8.0369 -0.0403,-0.0619 -4.2438,-6.463 -0.0336,-0.0489 -3.5334,-5.1003 -0.028,-0.0379 -2.95,-3.949 -2.4939,-3.0089 -0.0238,-0.0289 -2.1648,-2.2801 -0.0206,-0.0219 -1.9631,-1.7626 -0.0186,-0.017 -1.8884,-1.4564 -0.0179,-0.014 -0.0185,-0.0131 -1.9408,-1.3615 -0.0189,-0.012 -1.9883,-1.2496 -0.0193,-0.0108 -2.0308,-1.120802 -0.0197,-0.009 -2.0685,-0.975 -2.1012,-0.8122 -0.02,-0.008 -2.129,-0.6325 -0.0202,-0.006 -2.1518,-0.4358 -0.0205,-0.004 -2.1697,-0.2221 -0.0206,-0.002 -0.0208,10e-5 -2.1826,0.008 -0.0208,0.002 -2.1884,0.2376 -0.0208,0.005 -2.1868,0.4654 -0.0207,0.007 -2.1782,0.6919 -2.1621,0.9168 -0.0205,0.009 -2.139,1.140402 -0.0204,0.011 -2.1085,1.3626 -0.0201,0.013 -2.0709,1.5835 -0.0197,0.0152 -0.0193,0.0172 -2.026,1.8029 -0.019,0.0192 -1.9928,2.0108 -0.0188,0.0211 -1.9713,2.2072 -0.0187,0.0229 -1.9614,2.3921 -1.9632,2.5657 -0.0187,0.0245 -1.9767,2.7275 -0.0188,0.0261 -2.0018,2.8781 -0.019,0.0274 -2.0387,3.0171 -0.0193,0.0287 -0.0198,0.0299 -2.0871,3.1446 -0.021,0.0321 -2.2093,3.3784 -0.0228,0.0353 -2.4054,3.7184 -0.0254,0.0396 -2.6752,4.1647 -3.0188,4.7172 -0.0287,0.0449 -3.4361,5.376 -0.0327,0.0512 -3.9273,6.1411 -0.0374,0.0586 -4.4922,7.0124 -0.0429,0.067 -0.049,0.0763 -5.1309,7.99 -0.0541,0.0842 -5.656,8.8049 -0.0582,0.0905 -6.0676,9.4572 -0.0611,0.0952 -6.3658,9.9468 -6.5504,10.2737 -0.0629,0.0984 -6.6216,10.4379 -0.0635,0.1001 -6.5792,10.4396 -0.0632,0.1001 -6.4233,10.2786 -0.0617,0.0985 -0.059,0.0954 -6.154,9.9549 -0.0571,0.0931 -5.9512,9.71 -0.0558,0.0915 -5.8147,9.5439 -0.0552,0.0906 -5.7449,9.4563 -5.7417,9.4476 -0.0551,0.0906 -5.805,9.5175 -0.0556,0.0913 -5.9347,9.6662 -0.0569,0.0927 -6.131,9.8936 -0.0587,0.095 -0.0613,0.0979 -6.3938,10.1997 -0.0628,0.0994 -6.5662,10.3629 -0.0636,0.0996 -6.6481,10.3829 -0.0635,0.0985 -6.6396,10.2599 -6.5406,9.9937 -0.0626,0.0959 -6.3512,9.5847 -0.0608,0.092 -6.0713,9.0325 -0.0581,0.0867 -5.7011,8.3372 -0.0545,0.0801 -0.0502,0.072 -5.2402,7.4989 -0.0463,0.0645 -4.835601,6.7179 -0.0429,0.0575 -4.4867,5.9938 -0.0402,0.0512 -4.1939,5.327 -3.957,4.7172 -0.038,0.0453 -3.776,4.1646 -0.0364,0.0401 -3.651,3.6691 -0.0352,0.0352 -3.5821,3.2308 -0.0346,0.0311 -0.0347,0.0274 -3.569,2.8496 -0.0347,0.0238 -3.5593,2.4676 -0.0347,0.0202 -3.5533,2.0847 -0.0346,0.0165 -3.5506,1.7011 -3.5514,1.3168 -0.0348,0.0128 -3.5556,0.9317 -0.0348,0.009 -3.5633,0.5458 -0.0349,0.005 -3.5744,0.1591 -0.035,0.001 -0.0351,-0.002 -3.589,-0.2283 -0.0349,-0.006 -3.5625,-0.5917 -0.0343,-0.009 -3.4949,-0.931 -0.0332,-0.0123 -3.3861,-1.2463 -3.2362,-1.5375 -0.0318,-0.0152 -3.0452,-1.8047 -0.0301,-0.0179 -2.8131,-2.0478 -0.0279,-0.0203 -2.5398,-2.267 -0.0254,-0.0225 -0.0223,-0.0245 -2.2256,-2.4619 -0.0194,-0.0263 -1.9072,-2.6333 -0.0163,-0.0278 -1.5849,-2.7815 -0.0132,-0.029 -1.2587,-2.9058 -0.9284,-3.0067 -0.01,-0.0301 -0.5943,-3.0841 -0.007,-0.0308 -0.2561,-3.1379 -0.003,-0.0314 0.0861,-3.1683 v -0.0317 l 0.004,-0.0317 0.4321,-3.1751 0.007,-0.0319 0.7738,-3.196 0.0103,-0.0322 1.1113,-3.231 0.0136,-0.0326 1.4445,-3.2801 1.7732,-3.3433 0.0169,-0.0331 2.0978,-3.4205 0.0201,-0.0338 2.418,-3.5119 0.0232,-0.0345 2.7338,-3.6173 0.0263,-0.0354 0.0293,-0.0363 3.0454,-3.737 0.0326,-0.0378 3.3915,-3.9126 0.0363,-0.0399 3.7718,-4.1444 0.0403,-0.0425 4.1867,-4.4323 4.6359,-4.7762 0.0446,-0.0456 5.1196,-5.1763 0.0493,-0.0493 5.6376,-5.6325 0.0544,-0.0535 6.1901,-6.1447 0.0597,-0.0583 0.0653,-0.0637 6.777,-6.713 0.0699,-0.0682 7.2475,-7.1961 0.0733,-0.072 7.6015,-7.5939 0.0756,-0.0749 7.8393,-7.9065 7.9604,-8.1338 0.0768,-0.0771 7.965301,-8.2758 0.0768,-0.0785 7.8536,-8.3326 0.0757,-0.0791 7.6257,-8.3041 0.0735,-0.0789 0.0701,-0.0779 7.2812,-8.1904 0.0672,-0.0778 6.9816,-8.1651 0.0648,-0.0785 6.7268,-8.2282 0.0626,-0.08 6.5168,-8.3797 6.3515,-8.6198 0.0611,-0.0823 6.231,-8.948 0.06,-0.0856 6.1554,-9.3648 0.0592,-0.0896 6.1245,-9.87 0.0589,-0.0945 0.0591,-0.1001 6.1384,-10.4636 0.0589,-0.105 6.1191,-10.9558 0.0584,-0.1087 6.0664,-11.3466 0.0576,-0.1115 5.9802,-11.6361 5.861,-11.824 0.0565,-0.1133 5.7082,-11.9107 0.055,-0.1143 5.5222,-11.8959 0.0533,-0.1141 5.3028,-11.7798 0.0513,-0.113 0.0489,-0.111 5.05,-11.5622 0.0467,-0.1081 4.8085,-11.2476 0.0445,-0.1041 4.5781,-10.835902 0.0424,-0.0992 4.359,-10.3272 4.1509,-9.7214 0.0405,-0.0934 3.9541,-9.0185 0.0385,-0.0867 3.7685,-8.2186 0.0368,-0.0789 3.594,-7.3216 0.0351,-0.0702 0.0334,-0.0607 3.4308,-6.3275 0.0323,-0.0521 3.3129,-5.4349 0.0316,-0.0445 3.2406,-4.64388 0.0313,-0.03778 3.2137,-3.95432 3.2324,-3.36631 0.0314,-0.03212 3.2964,-2.87974 0.032,-0.02746 3.4059,-2.49469 0.033,-0.02376 3.5609,-2.21117 0.0344,-0.02106 0.0362,-0.01931 3.7615,-2.02915 0.0378,-0.01738 3.9337,-1.8255096 0.0392,-0.01523 4.0777,-1.60032 0.0402,-0.01289 4.1934,-1.35351 4.2808,-1.08513 0.0411,-0.01034 4.34,-0.79516 0.0417,-0.0076 4.371,-0.48362 0.0419,-0.0046 4.3737,-0.15046 0.042,-0.0014 0.0418,0.002 4.3481,0.20424 0.0414,0.0052 4.3037,0.5419 0.0408,0.0083 4.2406,0.8625 0.0401,0.01116 4.1587,1.16601 4.0581,1.45247 z"
     id="path18"
     style="fill-opacity:0;stroke:#000000;stroke-width:0.37836622;stroke-miterlimit:4;stroke-dasharray:none"
     inkscape:connector-curvature="0" />
  <path
     d="m 335.38761,5.4514984 3.4004,1.19261 0.742,0.26194 3.3025,1.41214 0.7204,0.31028 3.1879,1.6173896 0.6954,0.35549 3.0564,1.80837 0.6667,0.39759 0.6344,0.4366 2.9083,1.98509 0.6239,0.5271 2.8599,2.39806 0.6351,0.66916 2.911,3.04722 0.6682,0.86272 3.0618,3.93263 3.3123,5.05426 0.723,1.1078 3.6623,6.4121 0.7995,1.4045 4.1121,8.0061 0.8979,1.7527 4.6614,9.8364 1.0179,2.1524 1.1598,2.6035 5.3105,11.903 1.2767,2.9534 5.8449,13.5054 1.3687,3.2021 6.265,14.643802 1.4356,3.3492 6.5707,15.3182 6.7617,15.5285 1.4777,3.3951 6.8384,15.2748 1.4948,3.3397 6.8005,14.557 1.487,3.1829 6.6483,13.3752 1.4541,2.9247 1.3964,2.5652 6.3815,11.7294 1.3503,2.2536 6.1687,10.3023 1.3158,1.9897 6.0098,9.0939 1.2931,1.7738 5.9048,8.1043 5.8537,7.3334 1.2819,1.6057 5.8566,6.7811 1.2827,1.4854 5.9133,6.4477 1.2948,1.4129 6.0242,6.333 1.3187,1.3884 1.3543,1.4117 6.1888,6.4369 1.3743,1.4203 6.2819,6.4742 1.3787,1.4141 6.3037,6.4449 1.3675,1.3932 6.2538,6.3488 6.1324,6.1861 1.3408,1.3577 5.9396,5.9567 1.2985,1.3075 5.6751,5.6606 1.2407,1.2425 5.3392,5.2979 1.1673,1.1628 1.0782,1.0684 4.9318,4.8685 0.9917,0.9861 4.5361,4.495 0.9076,0.9158 4.1517,4.1775 0.8261,0.8576 3.779,3.9159 3.418,3.7101 0.747,0.8115 3.0683,3.5604 0.6704,0.7775 2.7303,3.4666 0.5962,0.7555 2.4038,3.4286 0.5246,0.7455 0.4554,0.7478 2.089,3.4467 0.3851,0.7478 1.7678,3.4546 0.3137,0.7459 1.4404,3.4524 0.2412,0.7419 1.1068,3.4401 0.7669,3.4176 0.1675,0.7359 0.4208,3.3851 0.0926,0.7279 0.0685,3.3423 0.0167,0.7179 -0.2901,3.2895 -0.0606,0.7058 -0.1387,0.6916 -0.6549,3.2266 -0.211,0.6716 -0.9928,3.1362 -0.2773,0.6455 -1.3038,3.0185 -0.3375,0.6134 -1.5879,2.8736 -1.8452,2.7012 -0.3918,0.5753 -2.0755,2.5015 -0.44,0.5313 -2.279,2.2743 -0.4822,0.4812 -2.4555,2.0199 -0.5185,0.4252 -0.5486,0.3633 -2.6052,1.738 -0.5729,0.3016 -2.725,1.4568 -0.5908,0.2403 -2.8149,1.176 -0.6028,0.1794 -2.875,0.8959 -2.905,0.6163 -0.6088,0.1187 -2.9053,0.3373 -0.6086,0.0586 -2.8757,0.0586 -0.6024,-0.001 -2.8161,-0.2192 -0.59,-0.0609 -0.5717,-0.1199 -2.7268,-0.4967 -0.5574,-0.1797 -2.6556,-0.7763 -0.5476,-0.24 -2.6026,-1.0582 -0.542,-0.3007 -2.5679,-1.3423 -2.5513,-1.6285 -0.5406,-0.3622 -2.553,-1.9171 -0.5433,-0.424 -2.573,-2.2079 -0.5505,-0.4865 -2.6111,-2.501 -0.5618,-0.5494 -0.5774,-0.613 -2.6674,-2.7962 -0.5995,-0.6847 -2.7549,-3.1287 -0.6281,-0.7645 -2.8736,-3.4982 -0.6632,-0.8524 -3.0233,-3.905 -3.2043,-4.3489 -0.7049,-0.9486 -3.4164,-4.8301 -0.7531,-1.0527 -3.6596,-5.3483 -0.8078,-1.1651 -3.934,-5.9037 -0.8689,-1.2856 -0.9366,-1.4142 -4.2396,-6.4964 -0.9916,-1.5209 -4.4879,-6.9884 -1.034,-1.6057 -4.6791,-7.3798 -1.0637,-1.6686 -4.8127,-7.6706 -4.8891,-7.8608 -1.081,-1.7096 -4.9082,-7.9503 -1.0855,-1.7287 -4.8701,-7.9392 -1.0773,-1.7259 -4.7747,-7.8275 -1.0566,-1.7011 -1.0232,-1.6545 -4.622,-7.6153 -1.0061,-1.6358 -4.5432,-7.5289 -1.0052,-1.645 -4.5383,-7.5685 -1.0206,-1.6821 -4.6073,-7.7342 -4.7503,-8.0258 -1.052,-1.7471 -4.9672,-8.4434 -1.0999,-1.84 -5.2579,-8.987 -1.1639,-1.9608 -5.6226,-9.6565 -1.2442,-2.1095 -1.3407,-2.2862 -6.0611,-10.4521 -1.4038,-2.4004 -6.3476,-10.965 -1.4332,-2.4523 -6.4822,-11.1951 -1.4291,-2.442 -6.4648,-11.1424 -6.2953,-10.807 -1.3914,-2.3693 -5.9739,-10.1889 -1.3201,-2.2343 -5.5004,-9.288 -1.2154,-2.0369 -4.8749,-8.1045 -1.0772,-1.7772 -0.9053,-1.4551 -4.0973,-6.6382 -0.7562,-1.1711 -3.4224,-5.3448 -0.6296,-0.9252 -2.8499,-4.2244 -0.5258,-0.7172 -2.3799,-3.277 -2.0125,-2.5025 -0.4446,-0.5473 -1.7475,-1.901 -0.386,-0.4154 -1.5852,-1.4724 -0.3501,-0.3216 -1.5253,-1.2169 -0.3368,-0.2658 -0.3462,-0.2479 -1.568,-1.1342 -0.3547,-0.2272 -1.6066,-1.0384 -0.3624,-0.2034 -1.6412,-0.9292 -0.3692,-0.1768 -1.672,-0.8067 -1.6987,-0.671 -0.375,-0.147102 -1.7215,-0.5221 -0.38,-0.1144 -1.7403,-0.3598 -0.3842,-0.0789 -1.7551,-0.1841 -0.3874,-0.0404 -0.3898,0.001 -1.7659,0.005 -0.3909,0.0425 -1.7711,0.1928 -0.3907,0.0836 -1.7705,0.38 -0.3892,0.1245 -1.7641,0.566502 -1.7521,0.7523 -0.3865,0.1652 -1.7343,0.9373 -0.3825,0.2058 -1.7107,1.1214 -0.3772,0.2462 -1.6815,1.3048 -0.3707,0.2863 -0.3628,0.3262 -1.6466,1.4875 -0.3569,0.3638 -1.62,1.6588 -0.353,0.399 -1.6019,1.8186 -0.351,0.4319 -1.5922,1.9671 -1.591,2.1043 -0.351,0.4623 -1.5983,2.23 -0.3528,0.4905 -1.614,2.3442 -0.3567,0.5162 -1.6381,2.4472 -0.3624,0.5396 -0.3701,0.5607 -1.6708,2.5387 -0.3915,0.6015 -1.767,2.7215 -0.4267,0.6621 -1.927,2.9956 -0.4756,0.7425 -2.1504,3.3611 -2.4375,3.818 -0.5383,0.8426 -2.7882,4.3661 -0.6148,0.9624 -3.2026,5.0056 -0.7049,1.1021 -3.6805,5.7364 -0.809,1.2615 -0.9267,1.4406 -4.2221,6.5586 -1.0235,1.5901 -4.6681,7.2447 -1.0997,1.7099 -5.0186,7.7948 -1.1549,1.7999 -5.2736,8.2088 -5.433,8.4869 -1.1894,1.8603 -5.4968,8.6289 -1.2031,1.8911 -5.4652,8.6348 -1.1958,1.892 -5.338,8.5048 -1.1679,1.8633 -1.119,1.8049 -5.1153,8.2386 -1.0821,1.7609 -4.9468,8.0384 -1.0572,1.7311 -4.8325,7.904 -1.0442,1.7158 -4.7724,7.8353 -4.7664,7.8322 -1.0432,1.7149 -4.8148,7.8952 -1.0541,1.7283 -4.9174,8.0239 -1.0768,1.7561 -5.0742,8.2184 -1.1116,1.7983 -1.1583,1.8547 -5.2851,8.4786 -1.1888,1.8852 -5.4224,8.6188 -1.2029,1.8894 -5.486,8.6391 -1.2009,1.8672 -5.4758,8.5393 -5.3917,8.3194 -1.1827,1.8192 -5.2342,7.9796 -1.1482,1.7447 -5.0027,7.5197 -1.0976,1.6443 -4.6975,6.9398 -1.0306,1.5175 -0.9474,1.3646 -4.3188,6.2399 -0.8748,1.2223 -3.9892,5.5891 -0.812801,1.0906 -3.7089,4.9871 -0.7614,0.9695 -3.4779,4.4342 -3.2963,3.9302 -0.7206,0.8591 -3.1638,3.4754 -0.6904,0.7593 -3.0808,3.0693 -0.6706,0.67 -3.0471,2.7125 -0.6616,0.5914 -0.6631,0.5234 -3.0625,2.4045 -0.6647,0.4547 -3.0776,2.0924 -0.6665,0.3854 -3.092,1.7761 -0.6684,0.3154 -3.106,1.4558 -3.1194,1.131 -0.6705,0.2447 -3.1323,0.8022 -0.6726,0.1735 -3.1447,0.4693 -0.6748,0.1015 -3.1566,0.1321 -0.6773,0.0289 -0.6798,-0.0445 -3.168,-0.2091 -0.6752,-0.1136 -3.1475,-0.532 -0.6636,-0.1785 -3.0953,-0.8365 -0.6448,-0.2395 -3.0113,-1.1225 -2.8956,-1.3902 -0.6189,-0.2962 -2.7481,-1.6394 -0.5858,-0.3487 -2.5689,-1.8703 -0.5456,-0.3971 -2.3579,-2.0826 -0.4983,-0.4415 -0.444,-0.4816 -2.115,-2.2766 -0.3877,-0.5168 -1.8616,-2.4466 -0.3297,-0.5472 -1.5973,-2.5927 -0.2698,-0.5726 -1.3223,-2.7149 -1.0366995,-2.8132 -0.2081,-0.593 -0.7403,-2.8875 -0.1445,-0.6085 -0.4331,-2.9379 -0.0792,-0.6192 -0.1153,-2.9643 -0.012,-0.6249 0.057,-0.6257 0.2133,-2.9669 0.1245,-0.6283 0.5337,-2.9758 0.1906,-0.6327 0.846,-2.9911 0.2552,-0.6388 1.1500995,-3.0129 1.4459,-3.0411 0.3184,-0.6467 1.7336,-3.0757 0.38,-0.6564 2.0132,-3.1167 0.4402,-0.6678 2.2846,-3.1642 0.4989,-0.681 0.5562,-0.6961 2.5477,-3.218 0.6199,-0.7215 2.8404,-3.3202 0.6899,-0.7575 3.1626,-3.471 0.7664,-0.8039 3.5143,-3.6699 3.8954,-3.9176 0.8492,-0.8607 4.3061,-4.2134 0.9384,-0.9281 4.7463,-4.5578 1.034,-1.0058 5.2159,-4.9505 1.1361,-1.0942 1.2444,-1.1929 5.7151,-5.3916 1.3312,-1.2771 6.1144,-5.7689 1.3963,-1.347 6.4139,-6.0825 1.4399,-1.4022 6.6136,-6.3322 6.7134,-6.5181 1.4618,-1.4431 6.713401,-6.6402 1.4621,-1.4696 6.6135,-6.6984 1.4408,-1.4816 6.4139,-6.6929 1.3978,-1.4791 1.3332,-1.462 6.1145,-6.6236 1.277,-1.4609 5.8543,-6.6255 1.2294,-1.4754 5.6335,-6.6988 1.1902,-1.5057 5.4519,-6.8433 5.3097,-7.059 1.1595,-1.5518 5.2067,-7.3462 1.1371,-1.6135 5.1432,-7.7046 1.1233,-1.6911 5.1189,-8.1343 1.1178,-1.7844 1.1209,-1.8935 5.1339,-8.6353 1.1181,-1.9841 5.1229,-9.0522 1.1095,-2.0564 5.0857,-9.3851 1.0951,-2.1103 5.0225,-9.634 4.9333,-9.799 1.0748,-2.1457 4.8178,-9.8798 1.0488,-2.1628 4.6764,-9.8767 1.0168,-2.1615 4.5088,-9.7895 0.9792,-2.1417 0.9357,-2.1036 4.3152,-9.6184 0.8936,-2.0474 4.1275,-9.363702 0.8533,-1.9731 3.9458,-9.0255 0.8143,-1.8807 3.7702,-8.6037 3.6005,-8.0983 0.777,-1.7704 3.4367,-7.5094 0.7412,-1.6419 3.279,-6.8371 0.7069,-1.4952 3.1272,-6.0812 0.6742,-1.3306 0.643,-1.148 2.9815,-5.2416 0.62,-0.984 2.873,-4.4889 0.6052,-0.8389 2.8017,-3.82277 0.5986,-0.71262 2.7677,-3.24342 2.7709,-2.75076 0.6002,-0.60512 2.8114,-2.3448 0.6099,-0.51643 2.8892,-2.02558 0.6279,-0.44653 3.0041,-1.79304 0.654,-0.39544 0.6884,-0.36316 3.1564,-1.6471996 0.7179,-0.32691 3.2879,-1.48325 0.7428,-0.28673 3.3984,-1.30118 0.7629,-0.24256 3.4882,-1.10099 3.5572,-0.88266 0.7783,-0.19446 3.6053,-0.64617 0.7889,-0.14243 3.6327,-0.39162 0.7947,-0.08641 3.6393,-0.11892 0.7958,-0.02644 0.7923,0.03746 3.6249,0.17191 0.785,0.09825 3.594,0.44849 0.7742,0.15594 3.5462,0.71078 0.7599,0.2105 z"
     id="path20"
     style="fill-opacity:0;stroke:#000000;stroke-width:0.37836622;stroke-miterlimit:4;stroke-dasharray:none"
     inkscape:connector-curvature="0" />
  <path
     d="m 334.86721,8.8320984 3.1047,1.13225 0.9446,0.3462896 3.0114,1.34366 0.9161,0.41107 2.9047,1.54199 0.8836,0.47184 2.7844,1.72724 0.8469,0.52864 0.8063,0.58143 2.6507,1.89933 0.7936,0.6998 2.6084,2.28684 0.8087,0.88365 2.6578,2.88979 0.8518,1.13309 2.7987,3.70804 3.0312,4.7418 0.9227,1.4481 3.3552,5.9909 1.0216,1.8286 3.7708,7.4554 1.1483,2.2746 4.278,9.1353 1.303,2.7862 1.4855,3.3633 4.8767,11.0306 1.6364,3.8107 5.3715,12.5 1.7558,4.128502 5.7625,13.5433 1.8435,4.3164 6.0496,14.1608 6.2327,14.3522 1.8998,4.3748 6.3121,14.1177 1.9244,4.3033 6.2876,13.4573 1.9172,4.1021 6.1593,12.3709 1.8786,3.7713 1.8083,3.3107 5.9271,10.8585 1.7522,2.912 5.7416,9.5488 1.7101,2.5751 5.6027,8.4419 1.6822,2.2999 5.5105,7.5377 5.4651,6.8364 1.6683,2.0866 5.4662,6.3376 1.6686,1.9351 5.5141,6.0416 1.6829,1.8455 5.6086,5.9484 1.7115,1.8176 1.754,1.8515 5.7498,6.0579 1.777,1.8656 5.8264,6.1025 1.7804,1.8597 5.8385,6.0823 1.764,1.834 5.7861,5.9973 5.669,5.8474 1.7282,1.7882 5.4874,5.6326 1.6726,1.7227 5.2413,5.353 1.5976,1.6371 4.9304,5.0086 1.5028,1.5317 1.3885,1.4065 4.5553,4.5992 1.2771,1.2956 4.1897,4.2377 1.1686,1.1992 3.834,3.9241 1.0632,1.1173 3.4881,3.6583 3.1517,3.4403 0.9607,1.0498 2.8254,3.2701 0.8612,0.9968 2.5088,3.1478 0.7646,0.9582 2.2018,3.0734 0.6711,0.9341 0.5804,0.9244 1.9048,3.0467 0.4898,0.9132 1.6072,3.0146 0.3993,0.9005 1.3089,2.977 0.3089,0.8864 1.0103,2.9337 0.7114,2.8858 0.218,0.8698 0.412,2.8315 0.1276,0.8532 0.1122,2.7717 0.0371,0.8353 -0.1876,2.7069 -0.0536,0.8158 -0.1441,0.7939 -0.4881,2.6379 -0.2258,0.7638 -0.7606,2.5448 -0.2985,0.7259 -1.0052,2.4267 -0.3625,0.6808 -1.2219,2.2833 -1.4099,2.1139 -0.4183,0.6292 -1.5702,1.9197 -0.4649,0.5694 -1.7021,1.7002 -0.5027,0.5021 -1.8059,1.4554 -0.5319,0.4272 -0.5523,0.3447 -1.8813,1.1854 -0.5683,0.2642 -1.9406,0.9214 -0.5801,0.1859 -1.9838,0.6636 -0.5874,0.1095 -2.0108,0.4118 -2.0221,0.1663 -0.5899,0.035 -2.0168,-0.073 -0.5888,-0.0375 -1.9952,-0.3062 -0.5835,-0.108 -1.958,-0.5332 -0.5737,-0.1768 -0.559,-0.2434 -1.9053,-0.754 -0.5511,-0.3107 -1.8768,-0.9781 -0.5505,-0.3786 -1.8716,-1.2056 -0.5573,-0.4475 -1.8895,-1.4364 -1.9299,-1.6694 -0.5723,-0.5179 -1.9941,-1.9062 -0.5942,-0.5885 -2.0812,-2.1457 -0.6233,-0.6601 -2.1915,-2.3881 -0.6599,-0.7327 -0.7036,-0.806 -2.325,-2.6333 -0.7538,-0.8899 -2.4798,-2.9134 -0.8101,-0.9847 -2.6558,-3.2282 -0.8726,-1.09 -2.8532,-3.578 -3.0721,-3.9626 -0.9412,-1.2059 -3.312,-4.3817 -1.0162,-1.3326 -3.5733,-4.8359 -1.0973,-1.4699 -3.856,-5.3248 -1.1846,-1.6179 -1.2783,-1.7766 -4.1598,-5.8484 -1.3548,-1.9077 -4.4083,-6.2815 -1.4141,-2.0113 -4.6011,-6.6239 -1.4565,-2.0874 -4.7383,-6.8758 -4.8199,-7.0371 -1.4819,-2.1359 -4.846,-7.1077 -1.4902,-2.157 -4.8165,-7.0876 -1.4815,-2.1505 -4.7312,-6.977 -1.4557,-2.1165 -1.4129,-2.0549 -4.5906,-6.7758 -1.3915,-2.0321 -4.5201,-6.7 -1.3916,-2.0478 -4.5199,-6.7497 -1.4132,-2.1023 -4.5898,-6.9249 -4.7301,-7.2256 -1.4562,-2.1953 -4.9404,-7.6517 -1.5208,-2.3271 -5.2211,-8.2034 -1.6067,-2.4973 -5.5719,-8.8806 -1.7142,-2.7064 -1.8432,-2.954 -5.993,-9.6831 -1.9265,-3.1175 -6.2659,-10.2115 -1.9645,-3.1968 -6.3906,-10.4656 -1.957,-3.1919 -6.3669,-10.4456 -6.1951,-10.1513 -1.9041,-3.1027 -5.8751,-9.5827 -1.8055,-2.9296 -5.4068,-8.7399 -1.6616,-2.6721 -4.7904,-7.6229 -1.472,-2.3305 -1.2371,-1.9047 -4.0258,-6.2316 -1.033,-1.5295 -3.3618,-5.0055 -0.8601,-1.2049 -2.7986,-3.9446 -0.7179,-0.9309 -2.3362,-3.0488 -1.9744,-2.3182 -0.6068,-0.7074 -1.7134,-1.7527 -0.5267,-0.5346 -1.5532,-1.3524 -0.4774,-0.4123 -1.4938,-1.1173 -0.4591,-0.3405 -0.4718,-0.3195 -1.535,-1.0474 -0.4833,-0.294102 -1.5724,-0.9635 -0.4936,-0.2645 -1.6057,-0.8661 -0.5026,-0.2305 -1.6353,-0.7548 -1.6608,-0.6296 -0.5105,-0.1924 -1.6825,-0.4908 -0.5171,-0.15 -1.7002,-0.3381 -0.5226,-0.1034 -1.714,-0.1716 -0.5268,-0.0524 -0.5298,0.003 -1.7239,0.008 -0.5311,0.0575 -1.728,0.1873 -0.5304,0.1119 -1.7264,0.3647 -0.528,0.1656 -1.7188,0.5406 -1.7055,0.7153 -0.5239,0.2189 -1.6864,0.8883 -0.5179,0.2718 -1.6614,1.0601 -0.5102,0.3242 -1.6306,1.230402 -0.5006,0.3761 -0.4893,0.4277 -1.5941,1.3992 -0.481,0.4771 -1.5676,1.5608 -0.4761,0.5244 -1.5511,1.7152 -0.4743,0.5697 -1.5447,1.8623 -1.5485,2.002 -0.4756,0.613 -1.5622,2.1346 -0.4801,0.6542 -1.586,2.2599 -0.4877,0.6933 -1.62,2.3778 -0.4985,0.7304 -0.5125,0.7654 -1.6639,2.4886 -0.5431,0.8243 -1.7628,2.6788 -0.5902,0.9071 -1.9165,2.9482 -0.6539,1.014 -2.1252,3.2969 -2.3887,3.7249 -0.7341,1.1448 -2.7071,4.2322 -0.8309,1.2995 -3.0805,4.819 -0.9442,1.4781 -3.5087,5.485 -1.0742,1.6808 -1.2205,1.9072 -3.9919,6.2303 -1.3407,2.0959 -4.3885,6.8509 -1.4348,2.2465 -4.6986,7.3469 -1.5024,2.3591 -4.9224,7.7182 -5.0596,7.9649 -1.5438,2.4338 -5.1103,8.0868 -1.559,2.4705 -5.0747,8.0842 -1.5478,2.4692 -4.9525,7.9568 -1.5104,2.43 -1.4469,2.3528 -4.7437,7.7048 -1.3992,2.2941 -4.5874,7.513 -1.3675,2.2537 -4.4831,7.3818 -1.3519,2.2317 -4.431,7.3109 -4.4312,7.3003 -1.3522,2.2281 -4.4836,7.3503 -1.3686,2.2428 -4.5881,7.4605 -1.4009,2.2761 -4.745,7.631 -1.4492,2.3277 -1.5135,2.3977 -4.9539,7.862 -1.5561,2.4344 -5.092,7.9837 -1.5768,2.4379 -5.1591,7.9961 -1.5759,2.4082 -5.1552,7.8991 -5.0804,7.693 -1.5532,2.3451 -4.9345,7.3773 -1.5087,2.2489 -4.7179,6.9525 -1.4424,2.1194 -4.4301,6.4184 -1.3545,1.9566 -1.2448,1.7607 -4.0713,5.7748 -1.1474,1.5777 -3.753501,5.1743 -1.0622,1.4077 -3.4766,4.6166 -0.9893,1.2507 -3.2405,4.1017 -3.0453,3.6298 -0.9288,1.1068 -2.8909,3.2008 -0.8805,0.9757 -2.7775,2.8146 -0.8445,0.8578 -2.7048,2.4713 -0.8209,0.7529 -0.8094,0.6609 -2.6731,2.1709 -0.7998,0.5698 -2.6466,1.8726 -0.7921,0.4795 -2.6251,1.5763 -0.7862,0.3901 -2.6089,1.282 -2.5984,0.9904 -0.7814,0.3012 -2.5922,0.7004 -0.7796,0.2135 -2.5914,0.413 -0.7799,0.1264 -2.596,0.1279 -0.7819,0.0401 -0.7852,-0.0454 -2.6069,-0.1549 -0.7771,-0.1245 -2.5851,-0.4181 -0.7584,-0.1975 -2.5298,-0.6615 -0.7297,-0.264 -2.4405,-0.8853 -2.3163,-1.0889 -0.6918,-0.3248 -2.159,-1.273 -0.6426,-0.379 -1.9676,-1.437 -0.5831,-0.427 -1.7423,-1.581 -0.5132,-0.4689 -0.4327,-0.5045 -1.4831,-1.7052 -0.354,-0.536 -1.2274,-1.8145 -0.277,-0.5632 -0.9752,-1.909 -0.2016,-0.5865 -0.7267,-1.9885 -0.4818,-2.054 -0.1276,-0.605 -0.2405,-2.1038 -0.0555,-0.6201 -0.003,-2.1389 0.0153,-0.6312 0.2309,-2.1595 0.0846,-0.6382 0.1522,-0.6403 0.4611,-2.1663 0.2201,-0.647 0.6923,-2.1893 0.2886,-0.6588 0.9245,-2.2283 0.3574,-0.6759 1.1577,-2.2827 1.3911,-2.3516 0.4274,-0.6992 1.6257,-2.4368 0.4974,-0.7269 1.8611,-2.5373 0.568,-0.7599 2.0969,-2.6532 0.6392,-0.798 0.711,-0.8414 2.3335,-2.7845 0.7905,-0.8973 2.5959,-2.9576 0.8778,-0.9658 2.884,-3.1723 0.973,-1.047 3.1978,-3.4287 3.5374,-3.727 1.076,-1.1407 3.9029,-4.0668 1.1867,-1.247 4.294,-4.4483 1.3054,-1.3659 4.7109,-4.8717 1.4317,-1.4974 1.566,-1.6416 5.1536,-5.3365 1.6738,-1.7633 5.5091,-5.7298 1.7553,-1.8625 5.7777,-6.0512 1.8105,-1.9395 5.9589,-6.3008 6.053301,-6.4787 1.8393,-1.9939 6.0604,-6.5847 1.8417,-2.026 5.9805,-6.6189 1.8179,-2.0357 5.8134,-6.5815 1.7676,-2.0229 1.6911,-1.9877 5.5592,-6.4722 1.6243,-1.974 5.3379,-6.4329 1.5674,-1.982 5.1492,-6.4637 1.5204,-2.0114 4.9932,-6.5645 4.8701,-6.7355 1.4831,-2.0622 4.7797,-6.9764 1.4557,-2.1347 4.722,-7.2874 1.4382,-2.2287 4.697,-7.6683 1.4305,-2.3442 1.4327,-2.4811 4.7048,-8.1194 1.4265,-2.5943 4.6854,-8.4921 1.4119,-2.6833 4.639,-8.7864 1.3888,-2.7485 4.5656,-9.0023 4.4649,-9.1398 1.3575,-2.7897 4.3373,-9.199 1.3177,-2.807 4.1826,-9.1797 1.2695,-2.8003 4.0007,-9.0821 1.213,-2.7697 1.148,-2.7151 3.7918,-8.9061 1.0868,-2.6387 3.5943,-8.6577 1.0294,-2.5405 3.4083,-8.337002 0.9757,-2.4205 3.2338,-7.9439 3.0707,-7.4785 0.9257,-2.2785 2.9191,-6.9407 0.8795,-2.1149 2.7789,-6.3305 0.837,-1.9293 2.6503,-5.6479 0.7982,-1.7221 0.7632,-1.493 2.5331,-4.8929 0.739,-1.2869 2.4514,-4.2143 0.7257,-1.1039 2.4052,-3.6118 0.7233,-0.9439 2.3946,-3.08561 2.4193,-2.63563 0.7318,-0.80705 2.4797,-2.26188 0.7511,-0.69323 2.5756,-1.96437 0.7812,-0.60246 2.707,-1.74309 0.8222,-0.53478 0.8742,-0.49013 2.8739,-1.59805 0.9185,-0.44049 3.0168,-1.43654 0.9553,-0.38582 3.1355,-1.25854 0.9847,-0.3261696 3.2302,-1.06406 3.3008,-0.85309 1.0064,-0.26148 3.3474,-0.62563 1.0207,-0.19181 3.3698,-0.3817 1.0274,-0.11711 3.3682,-0.12128 1.0266,-0.03739 1.0183,0.04732 3.3425,0.15562 1.006,0.12805 3.3033,0.41944 0.9895,0.20479 3.2506,0.67012 0.9691,0.27755 z"
     id="path22"
     style="fill-opacity:0;stroke:#000000;stroke-width:0.37836622;stroke-miterlimit:4;stroke-dasharray:none"
     inkscape:connector-curvature="0" />
  <path
     d="m 323.02601,101.93225 -0.4178,-0.1672 -1.6364,-0.5047 -0.4236,-0.13 -1.6545,-0.3479 -0.4281,-0.0896 -1.6689,-0.1787 -0.4319,-0.046 -0.4346,9e-4 -1.6795,0.003 -0.436,0.0475 -1.6848,0.1836 -0.4358,0.094 -1.6848,0.3642 -0.4344,0.1404 -1.6792,0.5442 -1.6684,0.7237 -0.4316,0.1867 -1.6523,0.903 -0.4274,0.2328 -1.6307,1.0817 -0.4217,0.2787 -1.6039,1.2601 -0.4147,0.3246 -0.4063,0.3703 -1.5716,1.4378 -0.3998,0.413 -1.5467,1.6031 -0.3952,0.4524 -1.529,1.756 -0.3926,0.4888 -1.5184,1.8962 -1.5152,2.024 -0.3919,0.522 -1.5192,2.1392 -0.3932,0.5522 -1.5304,2.242 -0.3964,0.5792 -1.549,2.3321 -0.4014,0.6031 -0.4086,0.624 -1.5747,2.4098 -0.4318,0.668 -1.6641,2.5786 -0.4713,0.7353 -1.8171,2.8386 -0.5272,0.8259 -2.0337,3.1898 -2.3142,3.632 -0.5991,0.9398 -2.6582,4.1655 -0.6873,1.0769 -3.0658,4.79 -0.7919,1.2374 -3.537,5.5057 -0.9126,1.421 -1.0495,1.6279 -4.072,6.3127 -1.1624,1.8007 -4.5132,6.9867 -1.2512,1.9394 -4.8605,7.5277 -1.3159,2.0439 -5.114,7.9359 -5.2736,8.2111 -1.3567,2.1144 -5.3395,8.3534 -1.3733,2.1506 -5.3115,8.3629 -1.3659,2.1527 -5.1896,8.2394 -1.3344,2.1208 -1.2789,2.0547 -4.974,7.983 -1.2368,2.0051 -4.8102,7.7907 -1.2081,1.9721 -4.6982,7.6628 -1.1928,1.9554 -4.6382,7.5993 -4.6301,7.5997 -1.1908,1.9553 -4.6738,7.6647 -1.2023,1.9717 -4.7693,7.7938 -1.2272,2.0046 -4.9168,7.9871 -1.2655,2.054 -1.3172,2.1199 -5.1161,8.2448 -1.3507,2.1556 -5.2449,8.3848 -1.3659,2.1612 -5.3031,8.4072 -1.3628,2.1366 -5.2908,8.3121 -5.2078,8.0994 -1.3416,2.0819 -5.0543,7.7691 -1.3022,1.9969 -4.8303,7.3212 -1.2445,1.8818 -4.5356,6.7557 -1.1686,1.7366 -1.0745,1.5611 -4.1704,6.0727 -0.9931,1.3981 -3.8554,5.4386 -0.9244,1.2476 -3.590601,4.8533 -0.8684,1.1096 -3.3758,4.3169 -3.2113,3.8295 -0.8252,0.9841 -3.0969,3.3907 -0.7948,0.8711 -3.0326,3.001 -0.777,0.7704 -3.0185,2.6602 -0.7721,0.6823 -0.7797,0.6067 -3.0546,2.3683 -0.7869,0.5295 -3.0874,2.0693 -0.7933,0.4507 -3.1169,1.7635 -0.7992,0.3704 -3.1432,1.4508 -3.1664,1.131 -0.8043,0.2885 -3.186,0.8045 -0.8089,0.205 -3.2026,0.4709 -0.8128,0.12 -3.216,0.1305 -0.8161,0.0334 -0.8187,-0.0549 -3.226,-0.2168 -0.8138,-0.1386 -3.2069,-0.5476 -0.8013,-0.218 -3.159,-0.8616 -0.7811,-0.2931 -3.082,-1.1589 -2.976,-1.4396 -0.7534,-0.3637 -2.841,-1.7035 -0.7181,-0.43 -2.677,-1.951 -0.6752,-0.4919 -2.484,-2.1815 -0.6246,-0.5494 -0.5666,-0.6026 -2.2619,-2.3955 -0.5047,-0.649 -2.0239,-2.5827 -0.4391,-0.689 -1.7694995,-2.743 -0.3699,-0.7222 -1.4991,-2.8766 -1.2126,-2.9833 -0.2968,-0.7489 -0.9099,-3.0632 -0.22,-0.7688 -0.5911,-3.1165 -0.1396,-0.7823 -0.2561,-3.1428 -0.0553,-0.7889 0.0327,-0.7891 0.095,-3.1423 0.1179,-0.79 0.4346,-3.1441 0.2005,-0.7919 0.7626,-3.1479 0.2804,-0.7944 1.0793,-3.1541 1.3845,-3.1621 0.3575,-0.798 1.6781,-3.1725 0.4320995,-0.8023 1.9602,-3.185 0.5039,-0.8076 2.231,-3.1996 0.5729,-0.8137 0.6393,-0.8206 2.4901,-3.2164 0.7132,-0.8399 2.7787,-3.2817 0.7947,-0.8715 3.0966,-3.3954 0.8836,-0.9156 3.4439,-3.5576 3.8206,-3.7682 0.98,-0.9719 4.2267,-4.0274 1.0839,-1.0407 4.6622,-4.335 1.1953,-1.1217 5.1269,-4.6912 1.3142,-1.2152 1.4407,-1.321 5.6211,-5.0956 1.5417,-1.4119 6.0159,-5.4436 1.6173,-1.4879 6.3112,-5.735 1.6675,-1.5488 6.507,-5.9701 6.6033,-6.1484 1.6924,-1.5948 6.6002,-6.2703 1.6918,-1.6259 6.497601,-6.3356 1.6658,-1.6421 6.2956,-6.3443 1.6145,-1.6433 1.5376,-1.6296 5.9941,-6.2965 1.4711,-1.6334 5.7324,-6.3164 1.4146,-1.6546 5.5106,-6.4038 1.3681,-1.6935 5.3287,-6.5588 5.1866,-6.7814 1.3319,-1.7498 5.0844,-7.0717 1.3057,-1.8236 5.022,-7.4295 1.2897,-1.9149 4.9994,-7.855 1.2839,-2.0237 1.2881,-2.1501 5.0167,-8.348 1.2861,-2.2554 5.0099,-8.7596 1.2777,-2.3398 4.9791,-9.0897 1.2631,-2.4032 4.9241,-9.3383 4.8449,-9.5052 1.2423,-2.4458 4.7418,-9.5908 1.215,-2.4673 4.6145,-9.5949 1.1816,-2.4678 4.4632,-9.5175 1.1418,-2.4473 1.0957,-2.4059 4.2877,-9.3587 1.0507,-2.3432 4.1155,-9.116302 1.0067,-2.2592 3.9464,-8.7905 0.9637,-2.1538 3.7808,-8.3813 3.6182,-7.8884 0.9217,-2.0273 3.4589,-7.3122 0.8808,-1.8794 3.3028,-6.6526 0.8408,-1.7102 3.15,-5.9094 0.8019,-1.5198 0.7641,-1.3079 3.0004,-5.0828 0.7354,-1.1182 2.8866,-4.34238 0.7159,-0.95042 2.8086,-3.68803 0.7058,-0.80468 2.7664,-3.11984 2.76,-2.6378 0.7049,-0.68094 2.7894,-2.24187 0.7131,-0.57925 2.8546,-1.93206 0.7307,-0.49955 2.9556,-1.70843 0.7574,-0.44186 0.7935,-0.4061796 3.0924,-1.5709 0.8246,-0.36596 3.2111,-1.41563 0.8509,-0.32117 3.3116,-1.24257 0.8725,-0.27182 3.3939,-1.05176 3.458,-0.84318 0.8893,-0.21791 3.504,-0.61684 0.9011,-0.15944 3.532,-0.37272 0.9081,-0.09643 3.5416,-0.11081 0.9105,-0.02886 0.9078,0.0433 3.5332,0.16883 0.9009,0.11184 3.5076,0.43457 0.8896,0.17684 3.4648,0.68636 0.8741,0.23824 3.4049,0.92424 3.3279,1.14819 0.8541,0.29607 3.2337,1.35821 0.8298,0.35033 3.1224,1.55433 0.8012,0.40098 2.9938,1.7365196 0.7683,0.44811 0.7308,0.49164 2.8483,1.90473 0.7186,0.59453 2.7999,2.30428 0.7312,0.75675 2.8488,2.93514 0.7688,0.97833 2.995,3.7973 3.2385,4.89073 0.8314,1.2593 3.5791,6.2154 0.9189,1.5996 4.0172,7.7715 1.0314,1.9993 4.5523,9.5588 1.1691,2.4583 1.3316,2.9766 5.1847,11.5775 1.4653,3.3786 5.7049,13.143 1.5702,3.6642 6.1128,14.255402 1.6463,3.8334 6.4082,14.9146 6.5915,15.1207 1.6936,3.8863 6.6624,14.8737 1.7121,3.8228 6.621,14.1735 1.7019,3.643 6.4672,13.0202 1.6627,3.3467 1.5948,2.9342 6.2012,11.4136 1.5406,2.5762 5.9891,10.02 1.5002,2.273 5.8308,8.839 1.4736,2.0245 5.7265,7.8707 5.6761,7.1153 1.4606,1.8306 5.6795,6.5724 1.4615,1.6915 5.7368,6.2424 1.4761,1.6071 5.8481,6.125 1.5044,1.5773 1.5465,1.6023 6.0132,6.2205 1.5707,1.6108 6.1081,6.2523 1.5766,1.6029 6.1326,6.2207 1.5647,1.5785 6.0869,6.1256 5.9708,5.9669 1.5347,1.5378 5.7845,5.7448 1.4867,1.4806 5.5279,5.4591 1.4207,1.4069 5.2009,5.1099 1.3367,1.317 1.2345,1.2104 4.8037,4.6972 1.1355,1.1183 4.4183,4.3408 1.0394,1.0405 4.0445,4.0406 0.9463,0.9771 3.6826,3.7968 3.3324,3.6093 0.8562,0.9279 2.994,3.4781 0.769,0.8931 2.6674,3.4031 0.6849,0.8727 2.3524,3.3845 0.6038,0.8665 0.5255,0.8747 2.0493,3.4222 0.4454,0.88 1.7375,3.4479 0.3632,0.8824 1.4171,3.4618 0.2789,0.8818 1.0883,3.4636 0.7506,3.4537 0.1927,0.8784 0.4045,3.4317 0.1043,0.872 0.0498,3.3979 0.014,0.8628 -0.3135,3.3521 -0.0784,0.8506 -0.1727,0.8355 -0.6855,3.2944 -0.2606,0.8136 -1.0326,3.2101 -0.342,0.7849 -1.355,3.0993 -0.4169,0.7492 -1.6523,2.962 -1.9249,2.7979 -0.4854,0.7068 -2.1727,2.6073 -0.5473,0.6576 -2.3955,2.3903 -0.6028,0.6014 -2.5936,2.1466 -0.6518,0.5386 -0.6943,0.4687 -2.7668,1.8763 -0.7283,0.3986 -2.906,1.604 -0.7541,0.3283 -3.0111,1.3295 -0.7715,0.2575 -3.0821,1.0532 -3.1189,0.7748 -0.7804,0.1862 -3.122,0.4943 -0.7809,0.1149 -3.0908,0.2117 -0.773,0.0431 -3.0256,-0.0729 -0.7568,-0.029 -0.7323,-0.1015 -2.9262,-0.3595 -0.7116,-0.1744 -2.8417,-0.6476 -0.6949,-0.2477 -2.7719,-0.9373 -0.6824,-0.3215 -2.7166,-1.2282 -2.6762,-1.5208 -0.6738,-0.3956 -2.6505,-1.8147 -0.6691,-0.4702 -2.6396,-2.1102 -0.6685,-0.5452 -2.6433,-2.4072 -0.6719,-0.6207 -0.6794,-0.6967 -2.6616,-2.7055 -0.6952,-0.7818 -2.7138,-3.04 -0.7195,-0.8763 -2.7996,-3.4108 -0.7522,-0.98 -2.9192,-3.8176 -3.0725,-4.2605 -0.7932,-1.0931 -3.2594,-4.7397 -0.8427,-1.2155 -3.4803,-5.2549 -0.9006,-1.3472 -3.7347,-5.8063 -0.967,-1.4881 -1.0417,-1.6384 -4.0228,-6.394 -1.1023,-1.7632 -4.2564,-6.8825 -1.1488,-1.8627 -4.4353,-7.2721 -1.1812,-1.9369 -4.5596,-7.5624 -4.6291,-7.7541 -1.1995,-1.9857 -4.6442,-7.8465 -1.2036,-2.009 -4.6045,-7.84 -1.1936,-2.0071 -4.5102,-7.7345 -1.1695,-1.9796 -1.1312,-1.927 -4.3614,-7.5299 -1.1112,-1.905 -4.2837,-7.4441 -1.1097,-1.9139 -4.277,-7.477 -1.1264,-1.9536 -4.3416,-7.6287 -4.4771,-7.8989 -1.1616,-2.0241 -4.684,-8.288 -1.2151,-2.1254 -4.9619,-8.7959 -1.2869,-2.2574 -5.3109,-9.4224 -1.377,-2.4204 -1.4856,-2.614 -5.7311,-10.1677 -1.5567,-2.738 -6.0066,-10.6433 -1.5903,-2.7923 -6.1376,-10.8491 -1.5865,-2.7769 -6.1238,-10.7854 -5.9655,-10.4521 -1.5453,-2.6916 -5.6624,-9.8489 -1.4667,-2.5367 -5.2148,-8.9762 -1.3506,-2.3121 -4.6224,-7.8338 -1.1972,-2.0177 -1.0063,-1.6536 -3.8855,-6.4217 -0.8406,-1.3324 -3.2457,-5.1757 -0.7,-1.054 -2.7032,-4.0959 -0.5846,-0.8185 -2.2578,-3.1821 -1.9097,-2.4345 -0.4945,-0.6258 -1.6588,-1.8529 -0.4295,-0.4761 -1.505,-1.4375 -0.3897,-0.3692 -1.4485,-1.1881 -0.375,-0.3051 -0.3855,-0.284 -1.4893,-1.1049 -0.3951,-0.2595 -1.5262,-1.0094 -0.4036,-0.232 -1.5594,-0.9016 -0.4112,-0.2012 -1.5888,-0.7816 z"
     id="path24"
     style="fill-opacity:0;stroke:#000000;stroke-width:0.37836622;stroke-miterlimit:4;stroke-dasharray:none"
     inkscape:connector-curvature="0" />
</svg>
