<?xml version="1.0" encoding="UTF-8" standalone="no"?>
<!-- Created with Inkscape (http://www.inkscape.org/) -->

<svg
   xmlns:dc="http://purl.org/dc/elements/1.1/"
   xmlns:cc="http://creativecommons.org/ns#"
   xmlns:rdf="http://www.w3.org/1999/02/22-rdf-syntax-ns#"
   xmlns:svg="http://www.w3.org/2000/svg"
   xmlns="http://www.w3.org/2000/svg"
   xmlns:sodipodi="http://sodipodi.sourceforge.net/DTD/sodipodi-0.dtd"
   xmlns:inkscape="http://www.inkscape.org/namespaces/inkscape"
   id="svg2"
   version="1.1"
   inkscape:version="0.48.2 r9819"
   width="1126.9321"
   height="735.76318"
   sodipodi:docname="Albatros.svg">
  <metadata
     id="metadata8">
    <rdf:RDF>
      <cc:Work
         rdf:about="">
        <dc:format>image/svg+xml</dc:format>
        <dc:type
           rdf:resource="http://purl.org/dc/dcmitype/StillImage" />
        <dc:title></dc:title>
      </cc:Work>
    </rdf:RDF>
  </metadata>
  <defs
     id="defs6">
    <inkscape:path-effect
       effect="spiro"
       id="path-effect3953"
       is_visible="true" />
  </defs>
  <sodipodi:namedview
     pagecolor="#ffffff"
     bordercolor="#666666"
     borderopacity="1"
     objecttolerance="10"
     gridtolerance="10"
     guidetolerance="10"
     inkscape:pageopacity="0"
     inkscape:pageshadow="2"
     inkscape:window-width="1280"
     inkscape:window-height="752"
     id="namedview4"
     showgrid="false"
     fit-margin-top="0.3"
     fit-margin-left="0.3"
     fit-margin-right="0.3"
     fit-margin-bottom="0.3"
     inkscape:zoom="0.48873932"
     inkscape:cx="681.00001"
     inkscape:cy="347.00378"
     inkscape:window-x="0"
     inkscape:window-y="0"
     inkscape:window-maximized="0"
     inkscape:current-layer="svg2"
     units="mm" />
  <g
     id="g4498"
     transform="matrix(0.24944999,0,0,0.24944999,-0.12834537,0.90897148)">
    <path
       sodipodi:nodetypes="sssssssssssssssssssssssssssssssssssssssssssssssssss"
       inkscape:connector-curvature="0"
       inkscape:original-d="m 70.893073,2571.1909 c 19.825137,-20.4867 36.328197,-40.2785 57.879247,-59.5497 36.07308,-32.2569 78.46907,-62.8347 117.05003,-91.157 59.91525,-43.9839 121.09749,-82.6044 178.08929,-129.972 58.94805,-48.9935 120.0607,-96.5233 180.51983,-144.9107 82.22149,-65.8044 159.61732,-133.918 232.33339,-208.7321 19.52117,-20.0843 42.06139,-39.9803 60.24953,-61.2477 173.07051,-202.3711 280.19091,-448.5682 424.93461,-672.0782 83.8988,-129.5548 168.1004,-262.20451 251.5959,-392.21765 75.923,-118.22192 151.3217,-236.31065 233.6368,-349.63368 23.9074,-32.91335 48.3983,-65.4247 73.6549,-97.42054 81.4085,-103.13074 160.1985,-213.75651 267.6576,-289.359478 51.4287,-36.182681 110.8572,-69.8527716 173.6156,-73.7866675 40.5283,-2.5404402 81.8434,13.2870505 117.1906,33.2763405 81.6736,46.187499 145.2978,122.409195 205.4453,194.424055 61.6784,73.84777 122.1118,150.3085 180.6479,228.74458 51.0307,68.37921 100.4457,138.25969 150.2181,209.21897 90.6805,129.28091 181.8257,262.14271 257.2864,396.03057 50.4389,89.4924 110.1468,178.3106 162.8167,267.3174 71.5745,120.9536 136.277,241.6429 203.9611,359.1555 45.9315,79.7459 93.5991,157.0877 139.6376,233.7955 40.52,67.5129 78.3947,134.8807 131.976,198.1485 43.4807,51.3412 91.3215,95.9246 141.6116,138.4816 32.1319,27.191 69.2638,53.5547 102.8971,80.3252 95.4578,75.9799 216.86,116.2882 296.9339,208.3388 47.8448,55.0009 99.1576,122.4292 100.3822,195.3177 0.3253,19.3607 -1.6453,45.4727 -7.4059,65.1137 -10.994,37.484 -35.4311,70.7466 -65.4871,92.2468 -30.8132,22.0418 -70.032,40.0182 -109.957,40.0669 -28.5486,0.035 -58.1816,-11.4518 -84.6373,-17.2798 -54.4251,-11.9894 -103.5529,-46.6759 -149.6945,-80.4065 -31.0333,-22.6862 -60.7158,-41.654 -89.7505,-65.3584 -125.8737,-102.7651 -229.1641,-225.596 -328.423,-354.2525 -90.2935,-117.0358 -186.1009,-242.768 -264.4892,-368.2008 -113.0003,-180.8171 -207.423,-369.5812 -326.3573,-546.388 -60.3048,-89.6487 -115.8298,-181.6057 -175.1379,-272.2112 -75.3052,-115.0443 -153.4851,-227.9095 -243.8802,-331.10333 -34.1748,-39.01341 -69.3757,-70.32214 -107.7025,-105.69469 -30.284,-27.94967 -62.5196,-61.44183 -97.7427,-82.38897 -39.4565,-23.46476 -82.7472,-45.20533 -128.2118,-38.85072 -39.8627,5.57163 -81.5142,20.11463 -114.58,44.58823 -43.7593,32.38832 -82.9903,73.16339 -121.4608,110.00628 -242.8502,232.5755 -422.5113,515.5863 -611.892,795.5633 -106.6916,157.731 -221.929,313.1339 -339.8878,461.3633 -105.8541,133.0183 -198.58919,270.119 -308.45532,398.0982 -45.53077,53.0371 -98.97323,104.5078 -149.6263,153.472 -92.45154,89.3691 -192.74335,181.4709 -309.27426,235.8279 -67.55306,31.5108 -146.18295,69.95 -218.46641,51.7444 C 104.54347,2915.539 46.490521,2865.5906 22.935948,2812.8061 -3.0123322,2754.6575 12.593413,2682.0516 33.27634,2621.8288 c 6.829939,-19.8869 22.99439,-35.5276 37.616733,-50.6379 z"
       inkscape:path-effect="#path-effect3953"
       id="path3951"
       d="m 70.893073,2571.1909 c 18.168529,-20.9047 37.414487,-40.887 57.879247,-59.5497 36.56259,-33.3429 76.83642,-62.3223 117.05003,-91.157 59.72639,-42.8261 119.5591,-85.525 178.08929,-129.972 61.45844,-46.6706 121.45302,-95.2479 180.51983,-144.9107 79.70367,-67.0141 157.76524,-136.0468 232.33339,-208.7321 20.5096,-19.9917 40.75749,-40.2626 60.24953,-61.2477 180.84141,-194.6936 290.27841,-442.9998 424.93461,-672.0782 78.7208,-133.9206 166.6925,-262.12878 251.5959,-392.21765 76.6215,-117.39925 150.853,-236.49539 233.6368,-349.63368 24.0403,-32.85524 48.787,-65.18715 73.6549,-97.42054 80.4887,-104.32822 163.3958,-208.78471 267.6576,-289.359478 25.335,-19.579206 51.9738,-37.74174 80.9979,-51.262462 29.0241,-13.520722 60.5995,-22.316379 92.6177,-22.5242055 41.0492,-0.26644579 81.1817,13.5666965 117.1906,33.2763405 83.2607,45.573196 145.6102,120.742135 205.4453,194.424055 61.2513,75.42582 122.1094,151.19453 180.6479,228.74458 51.7291,68.52915 101.6304,138.42786 150.2181,209.21897 89.09,129.80203 173.7525,262.58509 257.2864,396.03057 55.3607,88.4388 110.2421,177.1945 162.8167,267.3174 69.3748,118.9217 134.7001,240.1675 203.9611,359.1555 45.6656,78.4518 93.0292,155.9001 139.6376,233.7955 40.7904,68.1718 81.2355,137.0203 131.976,198.1485 42.2245,50.8687 91.1154,95.8123 141.6116,138.4816 33.2467,28.0935 67.2864,55.2958 102.8971,80.3252 99.1109,69.6612 210.9599,122.9918 296.9339,208.3388 26.5743,26.3805 50.4722,55.7334 68.4353,88.5885 17.9632,32.855 29.8817,69.3412 31.9469,106.7292 1.2111,21.9243 -0.9859,44.1154 -7.4059,65.1137 -11.2015,36.6377 -35.1897,68.7976 -65.4871,92.2468 -31.3983,24.3013 -70.2548,39.6855 -109.957,40.0669 -28.9542,0.2782 -57.4701,-7.2614 -84.6373,-17.2798 -53.269,-19.6439 -102.5092,-48.8309 -149.6945,-80.4065 -30.7664,-20.5884 -60.8142,-42.2685 -89.7505,-65.3584 -126.1722,-100.68 -229.5059,-226.6936 -328.423,-354.2525 -92.6328,-119.4549 -182.3802,-241.2818 -264.4892,-368.2008 -115.2424,-178.1347 -215.0874,-365.7453 -326.3573,-546.388 -56.5883,-91.869 -116.1054,-181.8933 -175.1379,-272.2112 -75.0979,-114.8975 -149.9694,-230.9939 -243.8802,-331.10333 -34.4192,-36.69103 -71.2278,-71.04637 -107.7025,-105.69469 -30.9422,-29.39283 -61.9078,-59.21104 -97.7427,-82.38897 -38.1392,-24.66831 -82.8742,-41.6121 -128.2118,-38.85072 -41.4119,2.52228 -80.3099,21.20291 -114.58,44.58823 -45.2139,30.85319 -84.0357,70.06163 -121.4608,110.00628 -228.9196,244.3309 -415.7505,524.2142 -611.892,795.5633 -111.9006,154.8072 -227.1169,307.1889 -339.8878,461.3633 -99.1502,135.5528 -196.6441,272.7844 -308.45532,398.0982 -47.58106,53.3271 -97.6716,104.3961 -149.6263,153.472 -94.48825,89.2527 -195.83158,172.3863 -309.27426,235.8279 -33.41926,18.6894 -68.05924,35.7228 -104.90911,46.126 -36.84988,10.4031 -76.18856,13.968 -113.5573,5.6184 -30.48391,-6.8113 -59.09932,-21.5074 -82.784039,-41.8715 -23.684724,-20.3641 -42.437952,-46.3257 -54.874523,-74.9787 -26.3301731,-60.6629 -22.7829628,-133.74 10.340392,-190.9773 10.548334,-18.2276 23.801895,-34.7426 37.616733,-50.6379"
       style="fill:none;stroke:#000000;stroke-width:7.10223961;stroke-linecap:butt;stroke-linejoin:miter;stroke-miterlimit:4;stroke-opacity:1;stroke-dasharray:none" />
    <path
       style="fill:none;stroke:#000000;stroke-width:7.10223961;stroke-linecap:butt;stroke-linejoin:miter;stroke-miterlimit:4;stroke-opacity:1;stroke-dasharray:none"
       d="m 248.84915,2627.8288 c 42.1738,-39.5563 87.51295,-75.5706 132.97216,-111.3028 33.66284,-26.4599 67.42985,-52.7978 100.41797,-80.0943 37.38614,-30.9357 73.74917,-63.0838 110.05406,-95.2816 85.52627,-75.8508 170.79663,-152.0356 253.27083,-231.1943 56.21328,-53.9534 111.19449,-109.3642 161.06643,-169.2282 50.8499,-61.0379 96.2143,-126.5053 137.9899,-194.0785 33.7435,-54.5811 65.1677,-110.5548 96.8099,-166.3803 60.7936,-107.2565 122.4345,-214.0382 185.665,-319.8764 77.2737,-129.3444 156.9091,-257.2594 236.1509,-385.40746 92.3011,-149.26726 184.0978,-298.89758 281.2494,-445.05422 74.2325,-111.67673 151.8148,-221.59958 241.6152,-321.18902 17.3631,-19.255839 35.3029,-38.229397 56.2173,-53.554254 20.9145,-15.324857 45.1184,-26.94454 70.888,-29.806798 19.3313,-2.147146 39.0137,0.693935 57.5462,6.597624 18.5325,5.903689 35.9888,14.811618 52.6232,24.891527 72.9636,44.213531 129.7844,110.213631 183.7434,176.296471 60.3039,73.85336 118.701,149.25382 175.6563,225.71936 56.349,75.65159 111.304,152.37014 163.3372,231.05256 45.3996,68.65148 88.5544,138.76664 133.9586,207.41512 41.4217,62.62722 84.7062,124.01959 125.3278,187.16869 76.8696,119.4991 143.9901,244.9502 216.6589,367.0494 23.2977,39.1452 47.1722,77.9566 69.5168,117.6536 24.9639,44.3504 47.9947,89.7646 72.815,134.1955 20.8137,37.2588 42.8734,73.8042 64.6939,110.4824 66.1932,111.2646 130.5081,224.2405 210.3665,326.1424 72.8991,93.0216 158.4003,176.1698 253.5298,246.2959 92.8211,68.4245 194.7936,124.5661 282.1256,199.8708 24.2609,20.9197 47.4784,43.4557 65.5215,69.9259 18.0432,26.4702 30.7682,57.2241 32.3075,89.2219 0.7466,15.519 -1.2029,31.3655 -7.4506,45.591 -6.2477,14.2254 -17.0379,26.7372 -31.0597,33.4296 -8.7139,4.159 -18.4038,5.9903 -28.0513,6.3824 -9.6475,0.3921 -19.297,-0.6135 -28.8663,-1.9007 -21.0565,-2.8323 -41.992,-7.0542 -62.0819,-13.9676 -47.4472,-16.3276 -88.3831,-46.9262 -129.488,-75.7049 -48.2502,-33.7814 -97.987,-65.7534 -142.4883,-104.3396 -28.5578,-24.7619 -54.771,-52.089 -80.6187,-79.6679 -44.1651,-47.1232 -87.3997,-95.112 -130.1253,-143.5442 -26.427,-29.9567 -52.6625,-60.0869 -78.275,-90.7429 -91.0468,-108.9755 -174.1007,-224.4603 -252.0353,-343.1674 -57.0762,-86.9363 -111.4299,-175.6234 -165.8778,-264.2294 -54.0178,-87.9062 -108.1468,-175.7616 -164.593,-262.1285 -46.1643,-70.6347 -93.8645,-140.2524 -141.8342,-209.6737 -100.8169,-145.9015 -203.3658,-291.60646 -326.0347,-419.68318 -31.0915,-32.46214 -63.4196,-63.72967 -96.6145,-94.03754 -40.1713,-36.67751 -82.6997,-72.61725 -133.4262,-92.25893 -44.8642,-17.37177 -95.0516,-20.99599 -141.7862,-9.57438 -48.3686,11.82094 -91.6023,38.90475 -131.3884,68.84339 -46.9235,35.30941 -90.331,75.10995 -131.5883,116.89988 -117.6817,119.20091 -217.8257,254.37586 -315.033,390.78916 -98.4499,138.1572 -194.3557,278.1373 -294.7315,414.9017 -62.7728,85.5294 -127.2817,169.7845 -189.1918,255.9405 -50.3829,70.1144 -99.0313,141.4692 -149.93,211.21 -69.3997,95.0907 -142.92075,187.0956 -217.04122,278.5544 -26.32784,32.4865 -52.74839,64.9245 -80.72156,96.0055 -45.30714,50.3408 -94.5503,96.9709 -144.06363,143.1808 -93.90868,87.6434 -190.13285,174.8197 -302.38066,237.2747 -58.3894,32.488 -122.71206,58.3905 -189.53047,58.0848 -9.98838,-0.046 -20.03803,-0.6883 -29.7329,-3.0924 -9.69488,-2.404 -19.06556,-6.6435 -26.55135,-13.2566 -8.03943,-7.1022 -13.63689,-16.739 -16.71298,-27.0157 -3.07608,-10.2768 -3.71379,-21.1815 -2.78943,-31.8688 1.77663,-20.5411 9.23142,-40.2949 19.40785,-58.2263 10.17642,-17.9313 23.0404,-34.1854 36.33646,-49.9432 25.6882,-30.4443 53.20062,-59.3442 82.25464,-86.595"
       id="path4463"
       inkscape:path-effect="#path-effect3953"
       inkscape:original-d="m 248.84915,2627.8288 c 53.00931,-54.7783 71.34188,-66.0599 132.97216,-111.3028 28.11904,-20.6422 64.73472,-49.7419 100.41797,-80.0943 40.34959,-34.3217 79.80929,-70.1443 110.05406,-95.2816 97.13868,-80.7348 173.39734,-152.2046 253.27083,-231.1943 52.21133,-51.6335 107.40349,-106.4802 161.06643,-169.2282 52.4627,-61.3446 94.8223,-125.475 137.9899,-194.0785 33.758,-53.6497 65.5639,-110.8118 96.8099,-166.3803 60.6081,-107.7868 119.1095,-217.1029 185.665,-319.8764 83.8989,-129.5548 152.6554,-255.3944 236.1509,-385.40746 97.974,-152.5581 169.0325,-302.8944 281.2494,-445.05422 81.4085,-103.1307 134.1561,-245.58606 241.6152,-321.18902 51.4287,-36.182686 64.3469,-79.427156 127.1053,-83.361052 40.5283,-2.54044 74.8222,11.499861 110.1694,31.489151 81.6736,46.187501 123.5959,104.281611 183.7434,176.296471 58.3743,69.89178 117.5747,146.93266 175.6563,225.71936 56.788,77.03202 110.5064,155.73296 163.3372,231.05256 47.1491,67.21931 88.8282,138.99428 133.9586,207.41512 41.6675,63.1709 89.1027,122.89549 125.3278,187.16869 82.938,147.1546 143.9568,245.4934 216.6589,367.0494 21.8174,36.4781 44.687,75.0471 69.5168,117.6536 11.128,19.095 61.8001,115.0715 72.815,134.1955 21.0678,36.5778 44.3082,73.9746 64.6939,110.4824 63.1754,113.1381 123.8302,223.962 210.3665,326.1424 71.2619,84.1447 167.2564,177.6264 253.5298,246.2959 95.4578,75.9799 202.0517,107.8202 282.1256,199.8708 47.8448,55.0009 96.6043,86.2593 97.829,159.1478 0.9461,56.3099 7.2946,46.2547 -38.5103,79.0206 -18.1098,12.9546 -36.6243,9.5121 -56.9176,4.4817 -14.2351,-3.5287 -45.6219,-13.9877 -62.0819,-13.9676 -28.5486,0.035 -103.0323,-69.8769 -129.488,-75.7049 -91.0296,-20.0531 -70.2836,-45.3906 -142.4883,-104.3396 -32.8455,-26.8156 -55.364,-54.0182 -80.6187,-79.6679 -46.0364,-46.7567 -88.5618,-91.7142 -130.1253,-143.5442 -23.0152,-28.7001 -52.1309,-56.8556 -78.275,-90.7429 -89.1732,-115.5837 -175.3927,-226.9548 -252.0353,-343.1674 -57.2226,-86.7662 -111.0615,-175.0365 -165.8778,-264.2294 -53.2735,-86.6827 -105.4701,-174.2368 -164.593,-262.1285 -44.8601,-66.6888 -91.406,-138.1757 -141.8342,-209.6737 -103.4364,-146.654 -217.4064,-295.67475 -326.0347,-419.68318 -27.784,-31.71779 -60.8076,-65.50628 -96.6145,-94.03754 -43.0368,-34.29218 -89.867,-66.35429 -133.4262,-92.25893 -39.4565,-23.46476 -96.3216,-15.92899 -141.7862,-9.57438 -39.8627,5.57163 -98.3226,44.36979 -131.3884,68.84339 -43.7593,32.38832 -93.1178,80.05701 -131.5883,116.89988 -121.2985,116.1665 -217.7083,253.59106 -315.033,390.78916 -97.5278,137.4845 -199.9425,274.7672 -294.7315,414.9017 -57.608,85.1666 -126.6503,171.3417 -189.1918,255.9405 -53.2873,72.0805 -95.6629,143.0168 -149.93,211.21 -76.5716,96.2214 -145.16643,189.4707 -217.04122,278.5544 -26.28501,32.5784 -53.00868,64.5997 -80.72156,96.0055 -44.68073,50.6348 -91.93279,92.788 -144.06363,143.1808 -92.45154,89.3691 -185.84975,182.9177 -302.38066,237.2747 -67.55306,31.5108 -117.24703,76.2904 -189.53047,58.0848 -21.99713,-5.5404 -47.08138,-8.8056 -56.28425,-16.349 -14.24702,-11.6778 -5.19179,-26.8152 -19.50241,-58.8845 -25.948258,-58.1486 35.06139,-47.9467 55.74431,-108.1695 6.82994,-19.8869 67.63229,-71.4847 82.25464,-86.595 z"
       inkscape:connector-curvature="0"
       sodipodi:nodetypes="ssssssssssssssssssssssssssssssssssssssssssssssssssssssssss" />
    <path
       style="fill:none;stroke:#000000;stroke-width:4.26134348;stroke-linecap:butt;stroke-linejoin:miter;stroke-miterlimit:4;stroke-opacity:1;stroke-dasharray:none"
       d="m 182.29647,2642.084 c 41.55346,-44.5449 89.62992,-82.4121 137.31255,-120.324 57.49846,-45.7163 114.72634,-91.7738 171.5787,-138.2911 101.04266,-82.6744 200.94122,-166.8386 296.73668,-255.5398 63.05172,-58.3823 124.40885,-118.8244 179.62136,-184.6696 114.98984,-137.1343 201.46324,-295.3345 291.77054,-449.8436 49.0333,-83.8923 99.4027,-166.9954 149.8856,-250.0234 79.6662,-131.0251 159.6222,-261.875 240.2999,-392.27972 94.6311,-152.95857 190.2715,-305.32995 290.2918,-454.8201 72.0612,-107.70253 146.9199,-214.53669 238.7216,-305.997652 27.2075,-27.106497 56.8231,-53.398653 92.9117,-66.53724 21.0874,-7.677177 43.8894,-10.565139 66.236,-8.504722 35.4038,3.264319 68.668,18.655605 98.7439,37.616733 46.3303,29.208639 86.5933,67.097861 123.9835,107.118071 23.891,25.57147 46.7327,52.10459 69.164,78.96559 116.7056,139.75221 222.323,288.38013 325.0788,438.68695 89.5232,130.95074 176.9844,263.32019 261.6268,397.47739 129.1964,204.7746 251.8027,413.6799 368.948,625.5793 81.7877,147.9425 161.5585,298.3234 267.6349,429.944 71.1988,88.3441 153.8053,167.4982 245.2108,234.7216 98.2963,72.2912 207.0849,131.1725 295.8701,214.8707 24.5121,23.1076 47.5139,48.2017 64.8867,77.0633 17.3728,28.8616 28.9577,61.7827 29.3466,95.4673 0.19,16.4584 -2.3295,33.0756 -8.6692,48.2652 -6.3397,15.1896 -16.6255,28.9075 -30.224,38.1809 -18.3497,12.5135 -41.4622,16.2337 -63.6595,15.4714 -34.223,-1.1753 -67.4098,-12.1479 -98.7436,-25.9606 -72.9761,-32.1697 -138.0483,-79.8561 -199.2963,-130.9353 -116.5609,-97.2086 -221.3656,-207.8371 -319.3806,-323.7208 -97.5919,-115.3834 -188.7155,-236.2203 -273.2101,-361.5126 C 3377.7188,1838.6814 3273.3724,1656.4783 3160.1673,1479.944 3026.3376,1271.2474 2880.084,1070.4499 2721.0642,880.24642 2654.9898,801.21489 2584.8066,722.4492 2494.6404,672.63099 c -42.1759,-23.30281 -89.7775,-40.03722 -137.8074,-36.16993 -53.8253,4.33393 -102.2278,33.81027 -145.4947,66.11999 -45.6615,34.09791 -88.2176,72.23061 -128.5033,112.53818 -99.0212,99.07486 -184.1563,211.01307 -266.667,324.20767 -110.98,152.251 -217.8195,307.4712 -327.1826,460.8877 -88.4953,124.1427 -178.6402,247.1003 -269.1013,369.8179 -28.2004,38.256 -56.4318,76.4891 -84.7013,114.6941 -138.42036,187.0691 -278.68151,374.5155 -447.95403,534.2086 -40.83354,38.5227 -83.25939,75.3337 -126.56696,111.0525 -57.18066,47.1609 -116.26772,92.6639 -181.60089,127.669 -32.8622,17.6073 -67.21379,32.4941 -102.73079,43.8292 -34.57966,11.036 -71.62667,18.7076 -107.05484,10.8088 -21.21977,-4.731 -41.28871,-15.1437 -56.65026,-30.5282 -15.361552,-15.3845 -25.840525,-35.7929 -28.370388,-57.386 -2.286362,-19.5147 1.854343,-39.3891 9.317976,-57.5645 7.463632,-18.1754 18.156782,-34.8356 29.405162,-50.9454 18.08162,-25.8963 37.77423,-50.6911 59.31869,-73.7866"
       id="path4484"
       inkscape:path-effect="#path-effect3953"
       inkscape:original-d="m 182.29647,2642.084 c 53.00931,-54.7783 75.68226,-75.0811 137.31255,-120.324 59.91524,-43.9839 114.5869,-90.9235 171.5787,-138.2911 96.5281,-80.2274 200.03591,-165.6727 296.73668,-255.5398 64.22241,-59.684 125.4424,-121.3182 179.62136,-184.6696 112.01744,-130.9818 202.57444,-291.9641 291.77054,-449.8436 48.6148,-86.0494 98.8252,-171.1771 149.8856,-250.0234 83.8989,-129.5548 156.8044,-262.26661 240.2999,-392.27972 97.974,-152.5581 178.0749,-312.66028 290.2918,-454.8201 81.4085,-103.1307 131.2625,-230.39474 238.7216,-305.997652 33.0078,-23.222629 59.3509,-52.155117 92.9117,-66.53724 18.7295,-8.026355 43.7569,-7.095664 66.236,-8.504722 40.5283,-2.540442 63.3967,17.627429 98.7439,37.616733 50.7593,28.705032 87.2651,65.285161 123.9835,107.118071 22.363,25.47786 46.3975,51.70719 69.164,78.96559 115.4485,138.22699 218.2137,286.33205 325.0788,438.68695 90.6805,129.2809 186.1661,263.58952 261.6268,397.47739 118.9817,211.106 251.4569,421.592 368.948,625.5793 86.3572,149.9329 153.1748,294.7917 267.6349,429.944 71.2619,84.1447 158.9374,166.0521 245.2108,234.7216 95.4578,75.9799 215.7962,122.8201 295.8701,214.8707 47.8448,55.0009 93.0086,99.6421 94.2333,172.5306 0.9461,56.3099 6.9117,53.6802 -38.8932,86.4461 -30.8132,22.0418 -23.7345,15.4227 -63.6595,15.4714 -28.5486,0.035 -72.2879,-20.1326 -98.7436,-25.9606 -91.0296,-20.0531 -127.0916,-71.9863 -199.2963,-130.9353 -125.8736,-102.7652 -220.1217,-195.0643 -319.3806,-323.7208 -91.9174,-119.1406 -189.6311,-236.6819 -273.2101,-361.5126 -116.8776,-174.5645 -217.356,-358.0072 -334.8064,-532.6082 -136.8755,-203.4782 -277.5155,-415.2315 -439.1031,-599.69758 -61.178,-69.8399 -146.6231,-160.158 -226.4238,-207.61543 -39.4565,-23.46477 -92.3428,-42.52454 -137.8074,-36.16993 -39.8627,5.57163 -112.4289,41.64639 -145.4947,66.11999 -43.7593,32.38832 -90.0328,75.69531 -128.5033,112.53818 -105.8525,101.37395 -183.512,210.34117 -266.667,324.20767 -107.6218,147.3697 -220.3483,302.9458 -327.1826,460.8877 -80.3217,118.7461 -178.2397,249.2927 -269.1013,369.8179 -29.8302,39.5689 -55.5466,78.0577 -84.7013,114.6941 -149.72211,188.1438 -275.07463,367.0932 -447.95403,534.2086 -40.59152,39.2381 -82.48112,73.5609 -126.56696,111.0525 -56.32441,47.8995 -116.23371,97.1778 -181.60089,127.669 -33.65155,15.6971 -67.89769,31.8316 -102.73079,43.8292 -35.09183,12.0868 -70.77938,19.9453 -107.05484,10.8088 -56.05105,-14.1172 -61.46608,-35.1297 -85.020648,-87.9142 -25.94828,-58.1486 18.040208,-48.2871 38.723138,-108.5099 6.82994,-19.8869 44.69634,-58.6763 59.31869,-73.7866 z"
       inkscape:connector-curvature="0"
       sodipodi:nodetypes="ssssssssssssssssssssssssssssssssssssssssssssss" />
    <path
       style="fill:none;stroke:#000000;stroke-width:4.26134348;stroke-linecap:butt;stroke-linejoin:miter;stroke-miterlimit:4;stroke-opacity:1;stroke-dasharray:none"
       d="m 156.25412,2630.5096 c 44.53733,-46.595 92.68905,-89.6459 142.76632,-130.2283 71.29805,-57.7797 146.48737,-110.5676 219.0109,-166.8014 87.52882,-67.8687 171.11344,-140.7112 252.35405,-215.9934 66.32643,-61.4619 131.26392,-124.7281 189.03446,-194.2934 132.93595,-160.0769 224.74385,-349.3836 331.75215,-527.8375 28.8592,-48.1274 58.8801,-95.5463 88.4867,-143.2176 81.6605,-131.4862 160.1772,-264.90544 241.9691,-396.3099 50.8905,-81.75914 103.0422,-162.72757 153.9702,-244.46336 44.7757,-71.86176 88.6345,-144.36117 136.9528,-213.89038 45.0785,-64.86715 93.9541,-127.02427 144.4394,-187.77827 35.5585,-42.79102 71.9497,-84.92747 110.4302,-125.111136 12.4465,-12.997395 25.1625,-25.835275 39.4652,-36.756874 23.449,-17.905778 51.0145,-30.395888 79.9476,-36.1707 28.8513,-5.75848 59.1085,-4.812281 87.3383,3.472373 20.8648,6.123243 40.4044,16.123887 58.9907,27.410314 79.5308,48.294602 142.0565,119.659073 201.307,191.401013 115.2052,139.49338 223.2071,284.85464 325.7969,433.87139 91.1526,132.40366 178.0427,267.69925 262.9131,404.21493 126.9229,204.1578 249.3622,411.0946 367.8009,620.2885 85.2687,150.6069 168.9742,303.1552 276.3094,438.921 28.6042,36.1808 58.869,71.1298 92.0419,103.1736 44.5333,43.0176 94.0228,80.5357 143.771,117.3982 50.3241,37.2893 101.0599,74.0319 152.5818,109.6479 47.5117,32.8438 95.8806,64.8772 138.6332,103.7139 25.6748,23.3231 49.3298,49.1758 67.6386,78.6368 18.3089,29.4609 31.1644,62.7007 34.3242,97.2431 2.1777,23.8063 -0.3618,48.3245 -9.7296,70.3183 -9.3677,21.9938 -25.894,41.3025 -47.3523,51.8395 -15.4848,7.6037 -32.9998,10.4724 -50.2483,10.1788 -17.2485,-0.2936 -34.3117,-3.6441 -51.0129,-7.9644 -31.5299,-8.1563 -62.0986,-19.7984 -91.5867,-33.6227 -76.235,-35.7397 -144.9776,-85.8712 -208.4542,-141.1869 -109.494,-95.4169 -204.1506,-206.4773 -296.1972,-318.8194 -92.4665,-112.8547 -182.8878,-227.6463 -263.4979,-349.2532 -55.4895,-83.7105 -106.2074,-170.4651 -158.5879,-256.1553 -56.0799,-91.7421 -114.0875,-182.2984 -173.4104,-271.9776 -141.0778,-213.2692 -289.7966,-421.8408 -454.267,-617.63708 -62.0816,-73.90597 -128.3287,-147.5211 -213.6295,-192.68734 -44.6307,-23.63167 -95.6128,-39.02714 -145.5574,-31.5512 -44.6026,6.67632 -84.6078,30.88487 -120.7643,57.84168 -46.5417,34.69956 -88.8981,74.71544 -129.1336,116.56388 -66.6445,69.31613 -127.6884,143.81709 -186.4721,219.91366 -146.0867,189.1119 -278.4901,388.3384 -418.0743,582.2994 -50.7026,70.4544 -102.356,140.2185 -153.9305,210.0371 -61.9202,83.824 -123.7295,167.7303 -185.9573,251.3262 -37.7187,50.6708 -75.5912,101.2275 -113.7393,151.5757 -105.24366,138.9015 -213.1615,276.8522 -340.34232,395.9945 -93.1253,87.2393 -196.06219,163.8299 -305.27426,229.8279 -32.80757,19.826 -66.52487,38.8537 -103.1509,50.1647 -36.62604,11.3111 -76.72488,14.4937 -113.14531,2.5372 -20.88363,-6.8559 -40.09708,-18.5591 -56.15412,-33.5691 C 84.097975,2866 67.58672,2837.6668 64.361177,2807.0189 c -2.092774,-19.8847 1.404852,-40.1115 8.301005,-58.8792 6.896154,-18.7677 17.114614,-36.1671 28.613638,-52.5242 16.35135,-23.2594 35.33292,-44.5529 54.9783,-65.1059"
       id="path4486"
       inkscape:path-effect="#path-effect3953"
       inkscape:original-d="m 156.25412,2630.5096 c 53.00931,-54.7783 81.13603,-84.9854 142.76632,-130.2283 59.91524,-43.9839 162.0191,-119.4338 219.0109,-166.8014 88.50935,-73.5627 172.2704,-142.4282 252.35405,-215.9934 65.26036,-59.9485 128.07868,-123.0179 189.03446,-194.2934 136.69125,-159.8329 228.06705,-346.3656 331.75215,-527.8375 27.5949,-48.2972 58.0617,-96.236 88.4867,-143.2176 83.8989,-129.5548 158.4736,-266.29676 241.9691,-396.3099 52.4465,-81.66586 103.9308,-161.44234 153.9702,-244.46336 43.4381,-72.06863 84.8067,-147.83014 136.9528,-213.89038 46.7391,-59.21048 97.0957,-125.06694 144.4394,-187.77827 35.1178,-46.51706 64.6667,-92.91417 110.4302,-125.111136 12.7655,-8.981174 26.7975,-28.16141 39.4652,-36.756874 38.3669,-26.033319 32.7669,-33.213266 79.9476,-36.1707 31.697,-1.9868697 49.9497,-9.1856547 87.3383,3.472373 10.417,3.526723 51.2884,23.054567 58.9907,27.410314 81.6736,46.187467 141.1595,119.386143 201.307,191.401013 115.4485,138.22697 218.9318,281.51649 325.7969,433.87139 90.6805,129.2809 187.4524,270.32704 262.9131,404.21493 118.9817,211.106 250.3098,416.3012 367.8009,620.2885 86.3572,149.9329 161.8493,303.7687 276.3094,438.921 29.4586,34.7842 60.1162,72.7681 92.0419,103.1736 45.3041,43.147 93.1618,77.1157 143.771,117.3982 49.1258,39.1018 100.353,76.2353 152.5818,109.6479 49.2587,31.5124 99.768,59.0356 138.6332,103.7139 47.8448,55.0009 100.7381,102.9914 101.9628,175.8799 0.9461,56.3099 -11.277,89.3919 -57.0819,122.1578 -30.8132,22.0418 -61.3362,2.1657 -101.2612,2.2144 -28.5486,0.035 -65.131,-27.7947 -91.5867,-33.6227 -91.0296,-20.0531 -136.2495,-82.2379 -208.4542,-141.1869 -125.8736,-102.7652 -196.9383,-190.1629 -296.1972,-318.8194 -91.1885,-118.1959 -183.0563,-228.7965 -263.4979,-349.2532 -55.7099,-83.4224 -105.8645,-169.4769 -158.5879,-256.1553 -55.196,-90.7434 -112.9991,-182.1706 -173.4104,-271.9776 -136.8755,-203.4783 -292.6794,-433.1709 -454.267,-617.63708 -61.178,-69.8399 -133.8288,-145.22991 -213.6295,-192.68734 -39.4565,-23.46477 -100.0928,-37.90581 -145.5574,-31.5512 -39.8627,5.57163 -87.6985,33.36808 -120.7643,57.84168 -43.7593,32.38832 -90.6631,79.72101 -129.1336,116.56388 -70.1688,67.20007 -126.4423,144.79264 -186.4721,219.91366 -147.7297,184.8684 -283.4131,383.2186 -418.0743,582.2994 -47.7712,70.6241 -103.2556,140.7814 -153.9305,210.0371 -62.5018,85.4191 -120.8146,169.4665 -185.9573,251.3262 -39.9329,50.1805 -74.8528,100.9421 -113.7393,151.5757 -106.91211,139.2089 -213.57226,273.4511 -340.34232,395.9945 -92.45154,89.3691 -188.74335,175.4709 -305.27426,229.8279 -67.55306,31.5108 -144.01277,70.9076 -216.29621,52.7019 -24.7964,-6.2453 -42.30204,-16.8661 -56.15412,-33.5691 -17.459849,-21.0534 -29.115139,-50.5926 -42.249413,-80.0258 -25.948256,-58.1486 16.231714,-51.1806 36.914643,-111.4034 6.82994,-19.8869 40.35595,-49.9956 54.9783,-65.1059 z"
       inkscape:connector-curvature="0"
       sodipodi:nodetypes="sssssssssssssssssssssssssssssssssssssssssssssssssss" />
    <path
       style="fill:none;stroke:#000000;stroke-width:4.26134348;stroke-linecap:butt;stroke-linejoin:miter;stroke-miterlimit:4;stroke-opacity:1;stroke-dasharray:none"
       d="m 128.40327,2629.4245 c 19.19237,-20.6967 38.60822,-41.2041 58.96435,-60.7573 33.09356,-31.7882 68.59112,-60.9763 104.75225,-89.226 57.01725,-44.5429 115.76496,-86.8274 173.0255,-131.0571 60.79652,-46.961 119.89093,-96.0953 177.98793,-146.3575 80.50314,-69.6467 159.14508,-141.5072 234.14189,-217.0512 24.63706,-24.8168 48.88943,-50.0408 71.82391,-76.4391 91.4315,-105.2403 160.6257,-227.5482 229.5684,-348.7181 62.4864,-109.8227 125.2968,-219.4703 190.0028,-328.0001 78.5618,-131.7699 159.8988,-261.8603 240.6828,-392.2797 72.9583,-117.78543 145.4813,-235.86461 221.3391,-351.80388 23.3871,-35.74428 47.0937,-71.28875 71.8464,-106.10132 52.928,-74.4389 110.57,-145.43287 170.3287,-214.50839 26.188,-30.27089 52.8568,-60.25152 82.4992,-87.148867 23.2732,-21.118017 48.4802,-40.373911 76.4549,-54.692652 27.9748,-14.31874 58.867,-23.5993364 90.2884,-24.1578065 41.0718,-0.72999241 81.2388,13.4044055 117.1906,33.2763405 83.0561,45.908319 145.5397,120.822405 205.4453,194.424055 61.3352,75.35806 122.1313,151.17747 180.6479,228.74458 51.7094,68.54386 101.6235,138.43271 150.2181,209.21897 89.1028,129.79339 173.7563,262.58265 257.2864,396.03057 55.3582,88.4404 110.2394,177.1961 162.8167,267.3174 69.3784,118.9196 134.7121,240.1605 203.9611,359.1555 45.6576,78.4565 93.0046,155.9148 139.6376,233.7955 41.0895,68.6225 81.8145,137.8491 131.976,200.1485 42.3434,52.5895 91.0336,99.7549 141.6116,144.4816 33.2291,29.3848 67.3477,57.7944 102.8971,84.3252 98.5729,73.5657 208.4172,132.9379 296.9339,218.3388 25.7212,24.8158 49.6785,51.989 66.6221,83.4584 15.5216,28.8282 24.9025,61.1294 25.7601,93.8593 0.543,20.7247 -2.3413,41.6227 -9.4059,61.1137 -10.8607,29.9646 -32.3949,56.6994 -61.2743,70.1831 -16.6106,7.7554 -35.1077,10.9793 -53.4396,11.0045 -18.3319,0.025 -36.552,-3.0657 -54.3472,-7.4692 -27.6963,-6.8535 -54.5608,-16.8988 -80.2969,-29.2159 -45.6339,-21.8399 -87.5235,-50.6744 -128.7159,-80.0448 -26.2268,-18.6998 -52.2712,-37.6774 -77.4528,-57.7627 -119.3726,-95.214 -217.6275,-213.8518 -313.2316,-332.9122 -93.8023,-116.8166 -186.0835,-235.1123 -268.4679,-360.2434 -56.1069,-85.219 -107.5036,-173.4269 -160.8615,-260.3936 -54.5217,-88.8635 -111.1043,-176.4518 -168.9213,-263.2074 -60.4331,-90.6811 -122.2226,-180.4643 -185.8187,-268.9559 -85.1744,-118.517 -173.6231,-234.75707 -267.7523,-346.29469 -61.9233,-73.37546 -128.2534,-146.25263 -213.4026,-190.61556 -38.7332,-20.1801 -82.226,-34.19679 -125.6799,-29.80823 -47.7049,4.81789 -90.4818,31.14224 -128.3885,60.503 -42.8337,33.17697 -81.8405,71.01718 -119.4608,110.00628 -115.0803,119.26742 -217.9254,249.9011 -313.2012,385.5134 -34.7621,49.4791 -68.5379,99.6426 -102.8717,149.4199 -60.5823,87.8326 -122.898,174.4574 -185.8191,260.63 -112.6423,154.2676 -227.2364,307.1024 -339.8878,461.3633 -99.0445,135.6282 -196.81043,272.6381 -308.45532,398.0982 -47.51257,53.3919 -97.46941,104.6069 -149.6263,153.472 -94.8042,88.8208 -197.22099,170.0934 -309.27426,235.8279 -33.21949,19.4878 -67.57787,37.726 -104.60549,48.3214 -37.02762,10.5954 -77.18554,13.1799 -113.86092,1.423 -36.53401,-11.7115 -67.920504,-37.347 -89.190849,-69.2761 -11.16923,-16.7662 -19.777699,-35.4889 -23.124442,-55.3549 -3.890005,-23.0907 -0.51922,-47.0565 7.452864,-69.0737 7.972083,-22.0173 20.413184,-42.2033 34.692755,-60.7615 11.783272,-15.314 24.839902,-29.5973 37.978432,-43.7656"
       id="path4488"
       inkscape:path-effect="#path-effect3953"
       inkscape:original-d="m 128.40327,2629.4245 c 19.82514,-20.4867 37.4133,-41.4861 58.96435,-60.7573 36.07308,-32.2569 66.17129,-60.9037 104.75225,-89.226 59.91525,-43.9839 116.0337,-83.6895 173.0255,-131.0571 58.94805,-48.9935 117.5288,-97.9701 177.98793,-146.3575 82.22149,-65.8044 161.42582,-142.2371 234.14189,-217.0512 19.52117,-20.0843 53.63575,-55.1717 71.82391,-76.4391 91.0794,-106.499 161.855,-226.4206 229.5684,-348.7181 60.9565,-110.0941 121.4314,-222.1136 190.0028,-328.0001 83.8989,-129.5547 157.1873,-262.26656 240.6828,-392.2797 75.923,-118.22192 139.024,-238.48085 221.3391,-351.80388 23.9074,-32.91335 46.5898,-74.10549 71.8464,-106.10132 56.2354,-71.24069 110.6555,-146.50057 170.3287,-214.50839 26.7121,-30.44289 49.2707,-63.77094 82.4992,-87.148867 51.4287,-36.182706 103.9849,-74.9165626 166.7433,-78.8504585 40.5283,-2.5404402 81.8434,13.2870505 117.1906,33.2763405 81.6736,46.187499 145.2978,122.409195 205.4453,194.424055 61.6784,73.84777 122.1118,150.3085 180.6479,228.74458 51.0307,68.37921 100.4457,138.25969 150.2181,209.21897 90.6805,129.28091 181.8257,262.14271 257.2864,396.03057 50.4389,89.4924 110.1468,178.3106 162.8167,267.3174 71.5745,120.9536 136.277,241.6429 203.9611,359.1555 45.9315,79.7459 93.5991,157.0877 139.6376,233.7955 40.52,67.5129 78.3947,136.8807 131.976,200.1485 43.4807,51.3412 91.3215,101.9246 141.6116,144.4816 32.1319,27.191 69.2638,57.5547 102.8971,84.3252 95.4578,75.9799 216.8599,126.2883 296.9339,218.3388 24.3459,27.9873 48.554,54.5317 66.6221,83.4584 17.4395,27.9204 25.1586,58.0602 25.7601,93.8593 0.3253,19.3607 -3.6453,41.4727 -9.4059,61.1137 -10.994,37.484 -31.2183,48.6829 -61.2743,70.1831 -30.8132,22.0418 -67.8618,3.4866 -107.7868,3.5353 -28.5486,0.035 -53.8412,-23.3879 -80.2969,-29.2159 -54.4251,-11.9894 -82.5743,-46.3142 -128.7159,-80.0448 -31.0333,-22.6862 -48.4181,-34.0583 -77.4528,-57.7627 -125.8737,-102.7651 -213.9727,-204.2557 -313.2316,-332.9122 -90.2935,-117.0358 -190.0796,-234.8106 -268.4679,-360.2434 -55.8642,-89.3909 -108.0252,-175.1549 -160.8615,-260.3936 -54.0392,-87.1793 -108.7848,-173.809 -168.9213,-263.2074 -60.3048,-89.6487 -126.5106,-178.3504 -185.8187,-268.9559 -75.3052,-115.0443 -177.3572,-243.10086 -267.7523,-346.29469 -61.178,-69.83992 -133.6019,-143.15813 -213.4026,-190.61556 -39.4565,-23.46477 -80.2153,-36.16284 -125.6799,-29.80823 -39.8627,5.57163 -95.3227,36.0294 -128.3885,60.503 -43.7593,32.38832 -80.9903,73.16341 -119.4608,110.00628 -121.3411,116.20729 -216.8145,250.7932 -313.2012,385.5134 -35.5617,49.7049 -67.2449,99.4302 -102.8717,149.4199 -61.0702,85.6903 -125.9749,172.1575 -185.8191,260.63 -106.6916,157.731 -221.929,313.1339 -339.8878,461.3633 -105.8541,133.0183 -198.58919,270.119 -308.45532,398.0982 -45.53077,53.0371 -98.97323,104.5078 -149.6263,153.472 -92.45154,89.3691 -192.74335,181.4709 -309.27426,235.8279 -67.55306,31.5108 -146.18295,67.95 -218.46641,49.7444 -56.05104,-14.1173 -65.636254,-16.4916 -89.190849,-69.2761 -7.381262,-16.541 -22.633712,-37.7622 -23.124442,-55.3549 -1.234392,-44.2532 27.346169,-86.7434 42.145619,-129.8352 6.829958,-19.8869 23.356092,-28.6553 37.978432,-43.7656 z"
       inkscape:connector-curvature="0"
       sodipodi:nodetypes="sssssssssssssssssssssssssssssssssssssssssssssssssssssssss" />
    <path
       style="fill:none;stroke:#000000;stroke-width:4.26134348;stroke-linecap:butt;stroke-linejoin:miter;stroke-miterlimit:4;stroke-opacity:1;stroke-dasharray:none"
       d="m 121.02205,2598.813 c 21.30604,-22.0457 45.47733,-41.0783 69.13269,-60.5818 31.66648,-26.1085 62.53824,-53.1789 94.54314,-78.8715 57.78768,-46.3902 119.11639,-88.1672 178.08929,-133.0411 60.74836,-46.2249 118.94991,-95.7001 176.42767,-145.9337 78.71611,-68.7951 156.17213,-139.0955 230.28731,-212.8243 30.41617,-30.2576 60.29362,-61.1198 87.87162,-93.985 73.00543,-87.0018 128.90073,-186.7832 184.52583,-285.8032 69.815,-124.2798 139.9225,-248.4123 212.7867,-370.9293 48.3964,-81.3758 98.0017,-162.0267 148.0131,-242.42007 30.4285,-48.91384 61.0083,-97.73376 91.3063,-146.72854 73.8502,-119.42273 146.0707,-239.95239 225.4525,-355.77192 23.7937,-34.7154 48.2259,-68.99974 73.6549,-102.53574 40.1808,-52.99075 82.8138,-104.06611 125.2551,-155.26422 40.5977,-48.97414 81.3389,-98.38815 130.126,-139.210458 24.6183,-20.59921 51.3092,-38.972272 80.5062,-52.311042 29.1971,-13.3387705 61.0098,-21.5516916 93.1094,-21.4756255 41.0285,0.097225 81.1368,13.6940235 117.1906,33.2763405 83.4208,45.309251 145.6656,120.678975 205.4453,194.424055 61.1853,75.479 122.0921,151.20792 180.6479,228.74458 51.7446,68.5176 101.6357,138.4241 150.2181,209.21897 89.0802,129.80873 173.7503,262.58655 257.2864,396.03057 55.3622,88.4379 110.2426,177.1942 162.8167,267.3174 69.3741,118.9221 134.6994,240.1679 203.9611,359.1555 45.666,78.4516 93.0303,155.8994 139.6376,233.7955 40.7894,68.1725 81.2323,137.0229 131.976,198.1485 42.227,50.8664 91.1231,95.8036 141.6116,138.4816 33.242,28.0995 67.2725,55.3153 102.8971,80.3252 99.1578,69.6128 211.2679,122.6676 296.9339,208.3388 26.4512,26.4528 50.1556,55.9059 68.0396,88.7629 17.8841,32.8569 29.8488,69.2292 32.3426,106.5548 1.4656,21.9366 -0.3825,44.2803 -7.4059,65.1137 -11.5045,34.1257 -37.201,63.1815 -69.5793,78.9473 -32.4548,15.803 -70.2306,18.2115 -105.8648,12.4448 -29.3811,-4.7548 -57.7215,-14.8058 -84.6373,-27.5102 -45.0876,-21.2815 -86.2496,-49.9021 -127.1876,-78.3604 -37.004,-25.7235 -74.0559,-51.4549 -109.1883,-79.681 -111.3118,-89.4303 -201.271,-202.1248 -289.5474,-314.3539 -91.8724,-116.8008 -183.0904,-234.3194 -265.5123,-357.9704 -73.418,-110.1431 -139.6679,-224.8689 -209.6888,-337.2022 -43.7579,-70.1999 -88.9927,-139.4718 -135.0832,-208.1628 -60.4322,-90.0651 -122.3358,-179.1326 -184.3453,-268.119 -80.1827,-115.0658 -160.832,-230.36205 -255.1336,-334.17247 -32.6954,-35.99215 -66.9767,-70.5381 -102.5873,-103.64861 -33.3236,-30.98406 -68.0254,-60.86938 -106.9501,-84.43505 -38.648,-23.39814 -83.2943,-40.63509 -128.2118,-35.7816 -41.7116,4.50708 -79.0797,27.45477 -112.5339,52.77255 -43.5979,32.99445 -83.2341,70.91494 -121.4608,110.00628 -234.1735,239.4705 -416.8395,523.2806 -611.892,795.5633 -111.2395,155.2843 -226.9255,307.3276 -339.8878,461.3633 -99.3162,135.4278 -196.75858,272.686 -308.45532,398.0982 -47.53413,53.3709 -97.57081,104.5008 -149.6263,153.472 -94.64581,89.038 -196.48871,171.291 -309.27426,235.8279 -33.3243,19.0685 -67.82292,36.6697 -104.72204,47.2797 -36.89912,10.6099 -76.54514,13.9691 -113.74437,4.4647 -40.77635,-10.4183 -77.241033,-36.4308 -100.938835,-71.211 -20.226231,-29.6852 -31.269121,-66.1826 -27.512365,-101.9065 3.656316,-34.7688 20.704658,-66.6867 40.00856,-95.8345 14.5349,-21.9469 30.57687,-42.9629 48.87018,-61.8913"
       id="path4490"
       inkscape:path-effect="#path-effect3953"
       inkscape:original-d="m 121.02205,2598.813 c 19.82513,-20.4867 47.58164,-41.3106 69.13269,-60.5818 36.07308,-32.2569 55.96218,-50.5492 94.54314,-78.8715 59.91525,-43.9839 121.09749,-85.6735 178.08929,-133.0411 58.94805,-48.9935 115.96854,-97.5463 176.42767,-145.9337 82.22149,-65.8044 157.57124,-138.0102 230.28731,-212.8243 19.52117,-20.0843 69.68346,-72.7176 87.87162,-93.985 77.50663,-90.6283 130.73063,-186.9685 184.52583,-285.8032 66.3283,-121.8611 132.864,-247.5144 212.7867,-370.9293 52.3022,-80.7638 98.7282,-161.5377 148.0131,-242.42007 29.774,-48.86265 59.8615,-97.76492 91.3063,-146.72854 75.9231,-118.22188 143.1374,-242.44889 225.4525,-355.77192 23.9074,-32.91335 48.3983,-70.53991 73.6549,-102.53574 41.4511,-52.51156 84.1558,-103.17723 125.2551,-155.26422 39.6181,-50.20992 77.3824,-102.10261 130.126,-139.210458 51.4287,-36.182706 110.8572,-69.8527716 173.6156,-73.7866675 40.5283,-2.5404402 81.8434,13.2870505 117.1906,33.2763405 81.6736,46.187499 145.2978,122.409195 205.4453,194.424055 61.6784,73.84777 122.1118,150.3085 180.6479,228.74458 51.0307,68.37921 100.4457,138.25969 150.2181,209.21897 90.6805,129.28091 181.8257,262.14271 257.2864,396.03057 50.4389,89.4924 110.1468,178.3106 162.8167,267.3174 71.5745,120.9536 136.277,241.6429 203.9611,359.1555 45.9315,79.7459 93.5991,157.0877 139.6376,233.7955 40.52,67.5129 78.3947,134.8807 131.976,198.1485 43.4807,51.3412 91.3215,95.9246 141.6116,138.4816 32.1319,27.191 69.2638,53.5547 102.8971,80.3252 95.4578,75.9799 216.86,116.2882 296.9339,208.3388 47.8448,55.0009 99.1576,122.4292 100.3822,195.3177 0.3253,19.3607 -1.6453,45.4727 -7.4059,65.1137 -10.994,37.484 -39.5233,57.4471 -69.5793,78.9473 -30.8132,22.0418 -65.9398,12.3961 -105.8648,12.4448 -28.5486,0.035 -58.1816,-21.6822 -84.6373,-27.5102 -54.4251,-11.9894 -81.046,-44.6298 -127.1876,-78.3604 -31.0333,-22.6862 -80.1536,-55.9766 -109.1883,-79.681 -125.8737,-102.7651 -190.2885,-185.6974 -289.5474,-314.3539 -90.2935,-117.0358 -187.124,-232.5376 -265.5123,-357.9704 -69.4729,-111.1669 -138.8843,-224.951 -209.6888,-337.2022 -44.3616,-70.3295 -89.2701,-140.0574 -135.0832,-208.1628 -60.3048,-89.6487 -125.0372,-177.5135 -184.3453,-268.119 -75.3052,-115.0443 -164.7385,-230.97864 -255.1336,-334.17247 -34.1748,-39.01341 -64.2605,-68.27606 -102.5873,-103.64861 -30.284,-27.94967 -71.727,-63.48791 -106.9501,-84.43505 -39.4565,-23.46476 -82.7472,-42.13621 -128.2118,-35.7816 -39.8627,5.57163 -79.4681,28.29895 -112.5339,52.77255 -43.7593,32.38832 -82.9903,73.16339 -121.4608,110.00628 -242.8502,232.5755 -422.5113,515.5863 -611.892,795.5633 -106.6916,157.731 -221.929,313.1339 -339.8878,461.3633 -105.8541,133.0183 -198.58919,270.119 -308.45532,398.0982 -45.53077,53.0371 -98.97323,104.5078 -149.6263,153.472 -92.45154,89.3691 -192.74335,181.4709 -309.27426,235.8279 -67.55306,31.5108 -146.18297,69.9501 -218.46641,51.7444 -44.69422,-11.2569 -74.576658,-16.6204 -100.938835,-71.211 -6.698638,-13.8715 -22.73984,-91.2115 -27.512365,-101.9065 -25.9482552,-58.1486 19.325633,-35.6117 40.00856,-95.8345 6.829939,-19.8869 34.24783,-46.781 48.87018,-61.8913 z"
       inkscape:connector-curvature="0"
       sodipodi:nodetypes="ssssssssssssssssssssssssssssssssssssssssssssssssssssssss" />
    <path
       style="fill:none;stroke:#000000;stroke-width:4.26134348;stroke-linecap:butt;stroke-linejoin:miter;stroke-miterlimit:4;stroke-opacity:1;stroke-dasharray:none"
       d="m 85.215637,2608.9973 c 19.134293,-22.2877 40.409623,-42.6331 61.971403,-62.5818 33.82475,-31.2943 68.47645,-61.7354 104.77355,-90.1249 61.45148,-48.0639 127.38429,-90.0694 190.36577,-136.1102 69.11237,-50.5226 134.5832,-105.8404 198.93456,-162.3024 73.67307,-64.6409 146.00013,-130.8827 214.9417,-200.5478 22.362,-22.5967 44.37175,-45.5581 65.36474,-69.432 101.33934,-115.2463 177.55334,-250.0107 251.29064,-384.5997 53.598,-97.8298 106.3051,-196.1659 162.068,-292.778 78.3744,-135.7877 162.7121,-268.04255 248.6189,-399.19465 76.6021,-116.94681 154.475,-233.05539 231.6368,-349.63368 21.6144,-32.65572 43.1765,-65.35339 65.6549,-97.42054 75.7228,-108.02444 162.6193,-209.54615 267.6576,-289.359478 25.4813,-19.361964 52.1117,-37.482492 81.1001,-51.04182 28.9884,-13.559328 60.5138,-22.477366 92.5155,-22.7448475 41.0532,-0.34313694 81.1912,13.5398465 117.1906,33.2763405 83.2269,45.628741 145.5985,120.755435 205.4453,194.424055 61.2652,75.41461 122.113,151.19171 180.6479,228.74458 51.7259,68.53158 101.6293,138.42865 150.2181,209.21897 89.0921,129.80062 173.753,262.58479 257.2864,396.03057 55.3604,88.439 110.242,177.1945 162.8167,267.3174 69.3749,118.9216 134.7001,240.1675 203.9611,359.1555 45.6655,78.4518 93.0292,155.9001 139.6376,233.7955 40.7903,68.1718 81.2354,137.0204 131.976,198.1485 42.2246,50.8686 91.1157,95.812 141.6116,138.4816 33.2466,28.0937 67.2859,55.2965 102.8971,80.3252 99.1125,69.6595 210.9706,122.9805 296.9339,208.3388 26.5701,26.383 50.4612,55.7394 68.4216,88.5945 17.9604,32.8551 29.8804,69.3373 31.9606,106.7232 1.2199,21.9247 -0.9649,44.1209 -7.4059,65.1137 -10.82,35.2652 -34.1112,66.8495 -65.4871,86.2468 -32.4023,20.0318 -72.1224,26.5087 -109.957,22.0669 -29.3594,-3.4468 -57.6913,-13.1237 -84.6373,-25.2798 -47.8546,-21.5886 -91.72,-50.9551 -135.3719,-80.1207 -34.5371,-23.0756 -69.1305,-46.137 -102.027,-71.4967 -119.4809,-92.1073 -213.8244,-212.2527 -305.9161,-331.7456 -89.9239,-116.6801 -179.055,-234.1303 -260.3971,-356.9474 -118.9481,-179.5977 -220.8639,-370.1031 -341.7029,-548.434 -60.967,-89.9734 -126.6338,-176.6722 -188.4374,-266.073 -78.0307,-112.8737 -150.3839,-230.6657 -243.8802,-331.10333 -34.279,-36.82394 -71.1938,-71.08017 -107.7025,-105.69469 -30.9697,-29.36286 -61.9145,-59.20194 -97.7427,-82.38897 -38.1333,-24.67883 -82.8736,-41.61537 -128.2118,-38.85072 -41.4116,2.52521 -80.3096,21.20377 -114.58,44.58823 -45.2146,30.85221 -84.036,70.0613 -121.4608,110.00628 -228.9176,244.3328 -415.7549,524.211 -611.892,795.5633 -111.8981,154.8091 -227.1082,307.1952 -339.8878,461.3633 -99.1575,135.5469 -196.66892,272.7627 -308.45532,398.0982 -47.57086,53.3367 -97.64511,104.4236 -149.6263,153.472 -94.52942,89.196 -196.00831,172.0896 -309.27426,235.8279 -33.39346,18.7915 -67.99536,35.9783 -104.85802,46.4372 -36.86266,10.4589 -76.28253,13.9689 -113.60839,5.3072 -34.82885,-8.0822 -66.965328,-26.7034 -92.205943,-52.027 -18.264006,-18.324 -33.116667,-40.3312 -41.452619,-64.8232 -11.011065,-32.3517 -10.231736,-68.0969 -0.82089,-100.9498 10.974622,-38.312 33.140763,-72.6209 59.100579,-102.859"
       id="path4492"
       inkscape:path-effect="#path-effect3953"
       inkscape:original-d="m 85.215637,2608.9973 c 19.825133,-20.4867 40.420353,-43.3106 61.971403,-62.5818 36.07308,-32.2569 66.19259,-61.8026 104.77355,-90.1249 59.91525,-43.9839 133.37397,-88.7426 190.36577,-136.1102 58.94805,-48.9935 138.47543,-113.915 198.93456,-162.3024 82.22149,-65.8044 142.22563,-125.7337 214.9417,-200.5478 19.52117,-20.0843 47.17658,-48.1646 65.36474,-69.432 99.87224,-116.7805 179.26234,-249.9197 251.29064,-384.5997 52.7909,-98.7096 100.8502,-198.2469 162.068,-292.778 83.8989,-129.5548 165.1234,-269.18151 248.6189,-399.19465 75.923,-118.22192 149.3217,-236.31065 231.6368,-349.63368 23.9074,-32.91335 40.3983,-65.4247 65.6549,-97.42054 81.4085,-103.13074 160.1985,-213.75651 267.6576,-289.359478 51.4287,-36.182681 110.8572,-69.8527716 173.6156,-73.7866675 40.5283,-2.5404402 81.8434,13.2870505 117.1906,33.2763405 81.6736,46.187499 145.2978,122.409195 205.4453,194.424055 61.6784,73.84777 122.1118,150.3085 180.6479,228.74458 51.0307,68.37921 100.4457,138.25969 150.2181,209.21897 90.6805,129.28091 181.8257,262.14271 257.2864,396.03057 50.4389,89.4924 110.1468,178.3106 162.8167,267.3174 71.5745,120.9536 136.277,241.6429 203.9611,359.1555 45.9315,79.7459 93.5991,157.0877 139.6376,233.7955 40.52,67.5129 78.3947,134.8807 131.976,198.1485 43.4807,51.3412 91.3215,95.9246 141.6116,138.4816 32.1319,27.191 69.2638,53.5547 102.8971,80.3252 95.4578,75.9799 216.86,116.2882 296.9339,208.3388 47.8448,55.0009 99.1576,122.4292 100.3822,195.3177 0.3253,19.3607 -1.6453,45.4727 -7.4059,65.1137 -10.994,37.484 -35.4311,64.7466 -65.4871,86.2468 -30.8132,22.0418 -70.032,22.0182 -109.957,22.0669 -28.5486,0.035 -58.1816,-19.4518 -84.6373,-25.2798 -54.4251,-11.9894 -89.2303,-46.3901 -135.3719,-80.1207 -31.0333,-22.6862 -72.9923,-47.7923 -102.027,-71.4967 -125.8737,-102.7651 -206.6572,-203.0891 -305.9161,-331.7456 -90.2935,-117.0358 -182.0088,-231.5146 -260.3971,-356.9474 -113.0003,-180.8171 -222.7686,-371.6272 -341.7029,-548.434 -60.3048,-89.6487 -129.1293,-175.4675 -188.4374,-266.073 -75.3052,-115.0443 -153.4851,-227.9095 -243.8802,-331.10333 -34.1748,-39.01341 -69.3757,-70.32214 -107.7025,-105.69469 -30.284,-27.94967 -62.5196,-61.44183 -97.7427,-82.38897 -39.4565,-23.46476 -82.7472,-45.20533 -128.2118,-38.85072 -39.8627,5.57163 -81.5142,20.11463 -114.58,44.58823 -43.7593,32.38832 -82.9903,73.16339 -121.4608,110.00628 -242.8502,232.5755 -422.5113,515.5863 -611.892,795.5633 -106.6916,157.731 -221.929,313.1339 -339.8878,461.3633 -105.8541,133.0183 -198.58919,270.119 -308.45532,398.0982 -45.53077,53.0371 -98.97323,104.5078 -149.6263,153.472 -92.45154,89.3691 -192.74335,181.4709 -309.27426,235.8279 -67.55306,31.5108 -146.18297,69.9501 -218.46641,51.7444 -32.41986,-8.1654 -65.509452,-26.2719 -92.205943,-52.027 -19.459354,-18.7732 -31.521986,-42.5692 -41.452619,-64.8232 -25.94825567,-58.1486 -21.5038168,-40.727 -0.82089,-100.9498 6.829939,-19.8869 44.478236,-87.7487 59.100579,-102.859 z"
       inkscape:connector-curvature="0"
       sodipodi:nodetypes="sssssssssssssssssssssssssssssssssssssssssssssssssssss" />
    <path
       style="fill:none;stroke:#000000;stroke-width:4.26134348;stroke-linecap:butt;stroke-linejoin:miter;stroke-miterlimit:4;stroke-opacity:1;stroke-dasharray:none"
       d="m 84.192596,2585.5135 c 21.956134,-24.3187 44.849504,-47.818 69.148474,-69.796 32.85013,-29.7124 68.1698,-56.5581 103.73923,-82.9546 58.57418,-43.4686 117.96745,-85.836 176.0387,-129.9742 63.3489,-48.1496 125.09713,-98.3865 185.63503,-150.0259 77.17702,-65.8328 152.40642,-133.9618 225.17211,-204.64 22.62125,-21.9723 45.01274,-44.1995 66.38777,-67.3859 179.55779,-194.7741 279.66119,-447.4961 411.63509,-677.1934 77.3947,-134.7035 166.3702,-262.32715 251.5959,-392.21765 76.9065,-117.21132 150.8902,-236.46962 233.6368,-349.63368 24.0297,-32.86303 48.7829,-65.19025 73.6549,-97.42054 80.5016,-104.31779 163.3979,-208.78258 267.6576,-289.359478 25.3346,-19.579804 51.9734,-37.742455 80.9976,-51.26307 29.0242,-13.520616 60.5998,-22.3159355 92.618,-22.5235975 41.0492,-0.26623438 81.1817,13.5667705 117.1906,33.2763405 83.2608,45.573043 145.6103,120.742095 205.4453,194.424055 61.2512,75.42585 122.1093,151.19454 180.6479,228.74458 51.7291,68.52914 101.6304,138.42786 150.2181,209.21897 89.09,129.80203 173.7526,262.58508 257.2864,396.03057 55.3607,88.4388 110.2421,177.1945 162.8167,267.3174 69.3749,118.9216 134.7004,240.1674 203.9611,359.1555 45.6654,78.4519 93.0287,155.9004 139.6376,233.7955 40.7908,68.1715 81.2369,137.0192 131.976,198.1485 42.2233,50.8698 91.112,95.8163 141.6116,138.4816 33.2489,28.0908 67.2927,55.2871 102.8971,80.3252 99.0898,69.683 210.8215,123.1381 296.9339,208.3388 26.63,26.348 50.6151,55.6557 68.614,88.5101 17.9989,32.8544 29.8965,69.3928 31.7682,106.8076 1.0965,21.9189 -1.2586,44.0459 -7.4059,65.1137 -10.7743,36.9254 -33.7049,70.5797 -65.4871,92.2468 -31.5797,21.529 -70.7553,30.5917 -108.934,28.8135 -29.3635,-1.3676 -58.1932,-8.8546 -85.6603,-19.3259 -53.8424,-20.5264 -102.604,-52.3131 -149.6945,-85.5217 -27.4036,-19.3253 -54.4157,-39.2245 -80.5431,-60.2432 -124.5684,-100.2112 -227.3619,-224.4298 -327.4,-349.1373 -93.527,-116.5907 -185.6564,-234.6918 -265.5122,-361.0395 -59.2529,-93.7498 -111.5404,-191.7136 -168.9211,-286.6209 -53.081,-87.7955 -110.4707,-172.894 -166.6436,-258.7441 -59.0754,-90.286 -116.8232,-181.4321 -175.1379,-272.2112 -74.1957,-115.5011 -149.8415,-231.0923 -243.8802,-331.10333 -34.4618,-36.65046 -71.2381,-71.03607 -107.7025,-105.69469 -30.9338,-29.40195 -61.9057,-59.21381 -97.7427,-82.38897 -38.141,-24.66511 -82.8744,-41.61111 -128.2118,-38.85072 -41.4121,2.52139 -80.31,21.20266 -114.58,44.58823 -45.2137,30.85347 -84.0357,70.06166 -121.4608,110.00628 -228.9197,244.3307 -415.7427,524.22 -611.892,795.5633 -111.9051,154.804 -227.131,307.1786 -339.8878,461.3633 -99.1381,135.5624 -196.60373,272.8195 -308.45532,398.0982 -47.59767,53.3115 -97.71472,104.3514 -149.6263,153.472 -94.42144,89.345 -195.54549,172.8699 -309.27426,235.8279 -33.46148,18.5236 -68.1631,35.3083 -104.993,45.6211 -36.8299,10.3128 -76.03962,13.9659 -113.47341,6.1233 -30.71161,-6.4343 -59.77583,-20.6147 -83.710626,-40.9058 -23.934798,-20.2911 -42.687673,-46.656 -53.947936,-75.9444 -19.4119909,-50.4913 -15.5853345,-109.1956 9.317352,-157.217 13.422869,-25.8842 32.399882,-48.4336 51.939296,-70.0756"
       id="path4494"
       inkscape:path-effect="#path-effect3953"
       inkscape:original-d="m 84.192596,2585.5135 c 19.825134,-20.4867 47.597424,-50.5248 69.148474,-69.796 36.07308,-32.2569 65.15827,-54.6323 103.73923,-82.9546 59.91525,-43.9839 119.0469,-82.6066 176.0387,-129.9742 58.94805,-48.9935 125.1759,-101.6385 185.63503,-150.0259 82.22149,-65.8044 152.45604,-129.8259 225.17211,-204.64 19.52117,-20.0843 48.19963,-46.1185 66.38777,-67.3859 173.07049,-202.3711 266.89139,-453.6834 411.63509,-677.1934 83.8988,-129.5548 168.1004,-262.20451 251.5959,-392.21765 75.923,-118.22192 151.3217,-236.31065 233.6368,-349.63368 23.9074,-32.91335 48.3983,-65.4247 73.6549,-97.42054 81.4085,-103.13074 160.1985,-213.75651 267.6576,-289.359478 51.4287,-36.182681 110.8572,-69.8527716 173.6156,-73.7866675 40.5283,-2.5404402 81.8434,13.2870505 117.1906,33.2763405 81.6736,46.187499 145.2978,122.409195 205.4453,194.424055 61.6784,73.84777 122.1118,150.3085 180.6479,228.74458 51.0307,68.37921 100.4457,138.25969 150.2181,209.21897 90.6805,129.28091 181.8257,262.14271 257.2864,396.03057 50.4389,89.4924 110.1468,178.3106 162.8167,267.3174 71.5745,120.9536 136.277,241.6429 203.9611,359.1555 45.9315,79.7459 93.5991,157.0877 139.6376,233.7955 40.52,67.5129 78.3947,134.8807 131.976,198.1485 43.4807,51.3412 91.3215,95.9246 141.6116,138.4816 32.1319,27.191 69.2638,53.5547 102.8971,80.3252 95.4578,75.9799 216.86,116.2882 296.9339,208.3388 47.8448,55.0009 99.1576,122.4292 100.3822,195.3177 0.3253,19.3607 -1.6453,45.4727 -7.4059,65.1137 -10.994,37.484 -35.4311,70.7466 -65.4871,92.2468 -30.8132,22.0418 -69.009,28.7648 -108.934,28.8135 -28.5486,0.035 -59.2046,-13.4979 -85.6603,-19.3259 -54.4251,-11.9894 -103.5529,-51.7911 -149.6945,-85.5217 -31.0333,-22.6862 -51.5084,-36.5388 -80.5431,-60.2432 -125.8737,-102.7651 -228.1411,-220.4808 -327.4,-349.1373 -90.2935,-117.0358 -187.1239,-235.6067 -265.5122,-361.0395 -59.0564,-94.4989 -111.4613,-190.8889 -168.9211,-286.6209 -52.4857,-87.4446 -109.8669,-174.3403 -166.6436,-258.7441 -60.3048,-89.6487 -115.8298,-181.6057 -175.1379,-272.2112 -75.3052,-115.0443 -153.4851,-227.9095 -243.8802,-331.10333 -34.1748,-39.01341 -69.3757,-70.32214 -107.7025,-105.69469 -30.284,-27.94967 -62.5196,-61.44183 -97.7427,-82.38897 -39.4565,-23.46476 -82.7472,-45.20533 -128.2118,-38.85072 -39.8627,5.57163 -81.5142,20.11463 -114.58,44.58823 -43.7593,32.38832 -82.9903,73.16339 -121.4608,110.00628 -242.8502,232.5755 -422.5113,515.5863 -611.892,795.5633 -106.6916,157.731 -221.929,313.1339 -339.8878,461.3633 -105.8541,133.0183 -198.58919,270.119 -308.45532,398.0982 -45.53077,53.0371 -98.97323,104.5078 -149.6263,153.472 -92.45154,89.3691 -192.74335,181.4709 -309.27426,235.8279 -67.55306,31.5108 -146.18295,69.95 -218.46641,51.7444 -56.05104,-14.1173 -114.103989,-64.0657 -137.658562,-116.8502 -25.9482802,-58.1486 -11.365575,-96.9942 9.317352,-157.217 6.829939,-19.8869 37.316953,-54.9653 51.939296,-70.0756 z"
       inkscape:connector-curvature="0"
       sodipodi:nodetypes="ssssssssssssssssssssssssssssssssssssssssssssssssssss" />
  </g>
</svg>
