<?xml version="1.0" encoding="UTF-8" standalone="no"?>
<!-- Created with Inkscape (http://www.inkscape.org/) -->

<svg
   xmlns:dc="http://purl.org/dc/elements/1.1/"
   xmlns:cc="http://creativecommons.org/ns#"
   xmlns:rdf="http://www.w3.org/1999/02/22-rdf-syntax-ns#"
   xmlns:svg="http://www.w3.org/2000/svg"
   xmlns="http://www.w3.org/2000/svg"
   xmlns:sodipodi="http://sodipodi.sourceforge.net/DTD/sodipodi-0.dtd"
   xmlns:inkscape="http://www.inkscape.org/namespaces/inkscape"
   id="svg2"
   version="1.1"
   inkscape:version="0.48.2 r9819"
   width="890.97577"
   height="593.90765"
   sodipodi:docname="Bellen.svg">
  <metadata
     id="metadata8">
    <rdf:RDF>
      <cc:Work
         rdf:about="">
        <dc:format>image/svg+xml</dc:format>
        <dc:type
           rdf:resource="http://purl.org/dc/dcmitype/StillImage" />
        <dc:title></dc:title>
      </cc:Work>
    </rdf:RDF>
  </metadata>
  <defs
     id="defs6">
    <inkscape:path-effect
       is_visible="true"
       id="path-effect3821"
       effect="spiro" />
    <inkscape:path-effect
       is_visible="true"
       id="path-effect3818"
       effect="spiro" />
    <inkscape:path-effect
       is_visible="true"
       id="path-effect3815"
       effect="spiro" />
    <inkscape:path-effect
       is_visible="true"
       id="path-effect3812"
       effect="spiro" />
    <inkscape:path-effect
       is_visible="true"
       id="path-effect3809"
       effect="spiro" />
    <inkscape:path-effect
       effect="spiro"
       id="path-effect3771"
       is_visible="true" />
  </defs>
  <sodipodi:namedview
     pagecolor="#ffffff"
     bordercolor="#666666"
     borderopacity="1"
     objecttolerance="10"
     gridtolerance="10"
     guidetolerance="10"
     inkscape:pageopacity="0"
     inkscape:pageshadow="2"
     inkscape:window-width="1280"
     inkscape:window-height="752"
     id="namedview4"
     showgrid="false"
     fit-margin-top="0.3"
     fit-margin-left="0.3"
     fit-margin-right="0.3"
     fit-margin-bottom="0.3"
     inkscape:zoom="0.40851212"
     inkscape:cx="707.49869"
     inkscape:cy="97.663974"
     inkscape:window-x="0"
     inkscape:window-y="0"
     inkscape:window-maximized="0"
     inkscape:current-layer="svg2" />
  <g
     id="g3823">
    <path
       sodipodi:nodetypes="ccssssssssssssssssssssssssssssssssssssssc"
       inkscape:connector-curvature="0"
       inkscape:original-d="M 4.5907141,540.89309 C 10.99516,525.92933 19.790646,511.8872 28.78785,501.46669 c 8.231539,-9.43017 17.592388,-18.16877 27.374061,-26.62766 17.881653,-15.46354 39.144374,-29.00501 55.510469,-45.11537 20.73968,-20.4156 44.37696,-38.78509 64.63678,-59.677 44.40178,-45.78701 89.90593,-90.56499 122.23919,-145.54255 9.94455,-16.90914 19.33678,-35.16199 25.08466,-54.05875 4.04993,-13.3145 4.9587,-27.25293 10.44465,-39.93933 8.65731,-20.02018 13.47899,-43.010189 24.01229,-62.019446 4.35384,-7.857285 9.51481,-15.612487 16.01769,-21.857124 26.76407,-25.701199 65.15024,-45.1618585 102.18252,-42.8215785 20.52471,1.2970727 40.62257,9.7198585 58.68265,21.4095945 17.63193,11.41261 31.84051,24.434934 44.08871,40.344432 13.82711,17.960388 23.84357,39.655032 28.46331,62.414212 6.87984,33.89368 5.99921,70.14827 21.85865,99.9461 20.19843,37.9502 42.93379,73.95463 72.82009,105.57923 34.38519,36.38521 73.9907,68.04861 103.07986,108.05275 15.62796,21.49195 44.46084,39.73943 63.75899,62.06106 9.6898,11.20791 14.91171,23.68863 17.49247,36.28986 1.93906,9.46795 1.766,19.00394 -2.40689,28.11924 -4.46362,9.75032 -11.88275,17.96652 -22.96497,20.09964 -17.18522,3.30781 -39.19314,-3.76839 -54.75942,-9.61729 -17.98997,-6.75958 -28.07807,-19.11498 -41.06157,-30.73383 C 740.6869,525.70923 715.79137,500.6195 693.99645,469.76251 681.09637,451.49874 666.12412,432.66052 651.91029,413.77 627.92777,381.89666 603.29352,349.87437 582.11878,320.21124 559.04395,287.88629 512.24572,209.70917 534.0477,242.90595 c 40.14072,61.12029 -14.52448,-65.56218 -25.28549,-81.63691 -5.7735,-8.6244 -10.34582,-20.72233 -19.06699,-27.57135 -7.55679,-5.93461 -18.96669,-7.3132 -27.93203,-6.60977 -12.10656,0.9499 -23.82013,4.92075 -31.77424,15.50064 -6.03001,8.02059 -9.98736,21.7668 -14.50313,29.78934 -13.5211,24.02108 -6.86695,55.90596 -19.65412,80.32563 -6.64119,12.68271 -14.57351,24.25348 -24.21885,35.35347 -10.62243,12.22445 -22.12502,23.87793 -32.43364,35.81689 -39.04089,45.21526 -79.60852,87.41948 -120.9565,130.49824 -35.57229,37.06128 -68.29183,78.8956 -111.08864,107.30969 -12.990386,8.6247 -26.877795,18.47482 -41.568577,24.22005 -8.390154,3.28118 -17.042347,4.72978 -25.939133,4.3402 C 27.021487,589.69011 15.530007,582.94899 8.768174,572.29699 3.1497506,563.44621 1.0028918,550.74348 4.5907141,540.89309 z"
       inkscape:path-effect="#path-effect3821"
       id="path3769"
       d="m 4.5907141,540.89309 c 3.5585615,-15.18634 13.6186849,-27.96408 24.1971359,-39.4264 8.637165,-9.35883 17.809379,-18.21902 27.374061,-26.62766 17.909343,-15.74472 37.163294,-29.8831 55.510469,-45.11537 22.56902,-18.73734 43.73092,-39.10048 64.63678,-59.677 45.28622,-44.57281 89.93216,-90.82663 122.23919,-145.54255 10.12123,-17.14155 19.00427,-35.10351 25.08466,-54.05875 4.20408,-13.10596 7.0438,-26.60236 10.44465,-39.93933 5.49728,-21.55844 12.56538,-42.941848 24.01229,-62.019446 4.65405,-7.75651 10.01204,-15.092821 16.01769,-21.857124 12.72457,-14.331985 28.43524,-26.088266 46.03047,-33.68618 17.59523,-7.5979146 37.07515,-10.9772776 56.15205,-9.1353985 20.91528,2.0193749 40.90475,10.2081275 58.68265,21.4095945 16.95233,10.681291 32.19545,24.219247 44.08871,40.344432 13.65595,18.51508 22.69684,40.142232 28.46331,62.414212 8.55737,33.05133 10.17326,67.86697 21.85865,99.9461 14.72613,40.42667 44.2366,73.42088 72.82009,105.57923 33.08978,37.22822 65.92391,74.88184 103.07986,108.05275 22.17091,19.79304 46.05951,38.18551 63.75899,62.06106 8.06265,10.87603 14.82547,23.01652 17.49247,36.28986 1.88444,9.37861 1.60214,19.43378 -2.40689,28.11924 -4.38217,9.49387 -13.06798,16.72526 -22.96497,20.09964 -9.04155,3.08272 -18.95063,3.08856 -28.2878,1.07113 -9.33717,-2.01743 -18.15682,-5.98556 -26.47162,-10.68842 -14.91165,-8.43405 -28.34884,-19.25005 -41.06157,-30.73383 C 739.16107,524.12285 715.80871,497.49321 693.99645,469.76251 679.56081,451.40997 665.77783,432.5555 651.91029,413.77 628.80276,382.46764 605.45204,351.3457 582.11878,320.21124 563.8662,295.85613 545.42059,271.13688 534.0477,242.90595 c -10.65189,-26.44118 -14.75308,-55.14791 -25.28549,-81.63691 -4.19003,-10.53792 -9.74874,-21.10805 -19.06699,-27.57135 -8.02451,-5.56594 -18.2078,-7.51077 -27.93203,-6.60977 -12.00931,1.11272 -23.69009,6.55033 -31.77424,15.50064 -7.47328,8.27399 -11.60444,19.02335 -14.50313,29.78934 -7.18479,26.68492 -7.8879,55.32039 -19.65412,80.32563 -6.10001,12.96357 -14.9553,24.42411 -24.21885,35.35347 -10.41524,12.28815 -21.43368,24.04927 -32.43364,35.81689 -40.5023,43.32888 -80.8251,86.8256 -120.9565,130.49824 -34.88761,37.96613 -69.89119,76.30417 -111.08864,107.30969 -12.860883,9.6792 -26.450315,18.69489 -41.568577,24.22005 -8.296607,3.0321 -17.129866,4.99145 -25.939133,4.3402 -6.16168,-0.45552 -12.244538,-2.20533 -17.616562,-5.2574 -5.372025,-3.05207 -10.017694,-7.417 -13.241624,-12.68768 -5.6525704,-9.24117 -6.6489383,-20.85674 -4.1774599,-31.4039"
       style="fill:none;stroke:#000000;stroke-width:1.77165354;stroke-linecap:butt;stroke-linejoin:miter;stroke-miterlimit:4;stroke-opacity:1;stroke-dasharray:none" />
    <path
       style="fill:none;stroke:#000000;stroke-width:1.77165353999999997;stroke-linecap:butt;stroke-linejoin:miter;stroke-miterlimit:4;stroke-opacity:1;stroke-dasharray:none"
       d="m 21.207383,549.95673 c 5.018188,-12.41117 14.25023,-22.58727 23.592894,-32.1755 9.980747,-10.24308 20.306223,-20.15205 30.999515,-29.64886 16.51652,-14.66848 33.891618,-28.33782 50.676528,-42.6984 22.76928,-19.4806 44.43606,-40.21944 65.54315,-61.48972 45.2067,-45.5562 88.28725,-94.14214 119.21798,-150.3765 10.52753,-19.13983 19.60399,-39.10402 26.59525,-59.79905 4.6344,-13.71843 8.34478,-27.72932 11.95527,-41.75206 5.19987,-20.19577 10.3331,-40.770849 20.99108,-58.696117 3.99216,-6.714278 8.7226,-12.980971 13.98383,-18.754913 21.19867,-23.264514 51.89611,-38.302223 83.37,-38.179197 21.10981,0.08251 41.87402,6.80064 60.19326,17.290458 16.80478,9.622618 31.80819,22.478833 43.48446,37.927462 12.88063,17.042099 21.56468,36.989837 27.25484,57.580267 9.10021,32.93004 10.80996,67.78986 22.57345,99.86511 15.24227,41.56074 46.06849,75.19044 76.03286,107.77508 33.98873,36.96091 67.84289,74.11611 104.28834,108.65699 13.30846,12.61299 26.95247,24.86768 40.28717,37.45292 7.63801,7.20872 15.21808,14.57585 21.35697,23.09752 7.23885,10.04858 12.37561,21.66703 14.47127,33.8729 0.63613,3.70506 0.99418,7.48516 0.62403,11.22616 -0.37014,3.74101 -1.49739,7.45628 -3.63516,10.54854 -3.15808,4.56811 -8.40852,7.49837 -13.90134,8.31692 -4.38126,0.6529 -8.86332,0.048 -13.16693,-1.00111 -8.81818,-2.14967 -17.08613,-6.13336 -24.97581,-10.62049 -15.25808,-8.67779 -29.33765,-19.31356 -42.57219,-30.84438 -24.11507,-21.01067 -45.47455,-44.99878 -65.60529,-69.85312 -15.80076,-19.50834 -30.88268,-39.58572 -46.01374,-59.61795 -22.80781,-30.19559 -45.73645,-60.30035 -68.88513,-90.23542 -17.10485,-22.1194 -34.48167,-44.39179 -46.25836,-69.75226 -12.63736,-27.21388 -18.43038,-57.15338 -30.42154,-84.65812 -6.19475,-14.20923 -14.50628,-28.22348 -27.52639,-36.635 -10.12392,-6.54046 -22.60324,-9.18191 -34.57871,-7.81824 -15.70659,1.78854 -30.36527,10.40198 -40.23362,22.75154 -9.33526,11.68244 -14.37926,26.18921 -18.1286,40.66571 -6.45421,24.92021 -9.67432,50.95585 -20.56047,74.28321 -5.8423,12.51916 -13.77326,23.96332 -22.40612,34.74922 -10.60565,13.25071 -22.30316,25.58078 -33.94426,37.93174 -39.46312,41.86954 -78.45543,84.18223 -117.02892,126.87278 -34.10596,37.74618 -68.16066,76.04509 -108.67167,106.816 -11.596845,8.8086 -23.871044,17.06319 -37.641,21.80309 -7.269924,2.50246 -14.92753,3.99521 -22.6158,3.92753 -3.367902,-0.0297 -6.766405,-0.36488 -9.957379,-1.44253 -3.190975,-1.07765 -6.178353,-2.94122 -8.211713,-5.62619 -2.290502,-3.02452 -3.236947,-6.92352 -3.142037,-10.71629 0.09491,-3.79277 1.167877,-7.5024 2.590032,-11.01973"
       id="path3773"
       inkscape:path-effect="#path-effect3818"
       inkscape:original-d="m 21.207383,549.95673 c 6.404445,-14.96376 14.59569,-21.75498 23.592894,-32.1755 8.23154,-9.43017 21.217842,-21.18996 30.999515,-29.64886 17.881653,-15.46354 34.310438,-26.58804 50.676528,-42.6984 20.73968,-20.4156 45.28332,-40.59782 65.54315,-61.48972 44.40178,-45.78702 86.88472,-95.39895 119.21798,-150.3765 9.94455,-16.90914 20.84737,-40.9023 26.59525,-59.79905 4.04993,-13.3145 6.46931,-29.06567 11.95527,-41.75206 8.65731,-20.02018 10.45778,-39.686859 20.99108,-58.696117 4.35385,-7.857285 7.48094,-12.510276 13.98383,-18.754913 26.76406,-25.701199 46.33772,-40.519477 83.37,-38.179197 20.5247,1.297072 42.13318,5.600722 60.19326,17.290458 17.63193,11.412611 31.23627,22.017965 43.48446,37.927462 13.82711,17.960389 22.6351,34.821097 27.25484,57.580267 6.87983,33.89368 6.71401,70.06728 22.57345,99.86511 20.19843,37.9502 46.14657,76.15048 76.03286,107.77508 34.38519,36.38521 133.98119,69.09887 104.28834,108.65699 -60.14483,80.1276 17.27485,19.0388 40.28717,37.45292 0.63013,0.50422 20.84263,22.50259 21.35697,23.09752 9.6898,11.20791 11.8905,21.27167 14.47127,33.8729 1.93905,9.46795 1.16175,12.6594 -3.01113,21.7747 -4.46362,9.75032 -2.81912,6.18382 -13.90134,8.31692 -5.1505,0.99136 -9.54376,-0.18745 -13.16693,-1.00111 -8.46594,-1.90117 -14.07482,-6.52451 -24.97581,-10.62049 -17.98997,-6.7596 -29.58868,-19.22553 -42.57219,-30.84438 -24.65513,-22.06366 -37.50564,-44.60268 -65.60529,-69.85312 -12.90007,-11.59204 -31.7999,-40.72743 -46.01374,-59.61795 -23.98252,-31.87334 -47.71039,-60.57228 -68.88513,-90.23542 -23.07484,-32.32495 -68.06034,-102.94904 -46.25836,-69.75226 40.14072,61.12028 -19.66054,-68.5834 -30.42154,-84.65812 -5.7735,-8.6244 -18.80522,-29.78597 -27.52639,-36.635 -7.55679,-5.9346 -25.61336,-8.52167 -34.57871,-7.81824 -12.10655,0.94989 -32.27951,12.17166 -40.23362,22.75154 -6.03002,8.0206 -13.61283,32.64317 -18.1286,40.66571 -13.5211,24.02108 -7.77333,49.86353 -20.56047,74.28321 -6.64119,12.6827 -80.12402,117.95776 -22.40612,34.74922 9.23037,-13.30689 -23.63564,25.99279 -33.94426,37.93174 -39.04089,45.21526 -75.68094,83.79402 -117.02892,126.87278 -35.57229,37.06128 -65.87486,78.40191 -108.67167,106.816 -12.990385,8.6247 -22.950217,16.05786 -37.641,21.80309 -8.390154,3.28118 -13.719013,4.31712 -22.6158,3.92753 -12.604873,-0.55196 -11.40726,3.58328 -18.169092,-7.06872 -5.618423,-8.85078 -4.139827,-11.88563 -0.552005,-21.73602 z"
       inkscape:connector-curvature="0"
       sodipodi:nodetypes="ccssssssssssssssssssssssssssssssssssssssssc" />
    <path
       style="fill:none;stroke:#000000;stroke-width:1.06299210000000000;stroke-linecap:butt;stroke-linejoin:miter;stroke-miterlimit:4;stroke-opacity:1;stroke-dasharray:none"
       d="m 16.373443,544.21643 c 5.720457,-12.15547 14.977208,-22.24719 24.348197,-31.87339 9.180119,-9.43013 18.61274,-18.61971 28.431486,-27.38294 16.673119,-14.88075 34.425084,-28.50224 51.431824,-43.00054 22.93734,-19.55415 44.48703,-40.6757 65.69421,-62.09395 46.17256,-46.63211 91.32767,-95.45259 122.69237,-153.09559 8.63448,-15.86871 16.18734,-32.35805 21.92495,-49.48843 4.85543,-14.49652 8.39386,-29.39348 12.15373,-44.21197 5.42,-21.36146 11.4161,-42.858058 22.30322,-62.019453 3.97787,-7.00108 8.5918,-13.649661 13.88139,-19.720805 12.70198,-14.578727 29.20182,-25.642222 47.10983,-32.934881 10.36377,-4.220426 21.27798,-7.227009 32.42769,-8.17764 24.70423,-2.1062969 49.40796,6.011391 70.87405,18.418747 18.14917,10.490181 34.58822,24.192067 47.10872,41.004957 12.90099,17.323829 21.42967,37.651145 26.54001,58.637695 5.22651,21.46363 6.97,43.63733 11.76162,65.20221 2.65939,11.96868 6.25963,23.74033 11.00341,35.04601 16.81003,40.06276 47.12322,72.64189 76.14342,104.97499 33.27086,37.06901 65.72581,75.10224 103.07986,108.05275 22.30184,19.67276 46.57841,37.78726 63.75899,62.06106 7.68522,10.85816 13.93306,23.18735 15.07551,36.44092 0.51975,6.02963 -0.0406,12.16897 -1.83087,17.95011 -0.8187,2.6438 -1.89431,5.21412 -3.29512,7.60111 -1.82173,3.10424 -4.22734,5.91684 -7.25466,7.86371 -3.77277,2.42626 -8.34947,3.39827 -12.83494,3.36561 -4.48547,-0.0327 -8.91183,-1.01876 -13.22296,-2.25759 -26.09744,-7.49929 -48.57966,-24.12851 -68.96731,-42.06338 C 751.48605,510.3246 728.49119,485.64558 707.5919,459.33932 692.2591,440.03969 678.05527,419.87414 663.23984,400.17455 640.54593,369.9992 616.42191,340.92367 593.59938,310.84548 578.72706,291.245 564.35874,271.13911 552.95346,249.33809 544.14751,232.50565 537.15731,214.74371 531.7903,196.5209 c -4.24062,-14.39832 -7.50762,-29.18389 -13.81339,-42.80489 -6.34089,-13.69686 -16.06433,-26.28002 -29.3391,-33.46272 -7.73262,-4.18395 -16.5907,-6.42705 -25.36401,-5.85446 -7.64108,0.49869 -15.08153,3.1162 -21.58847,7.15285 -6.50694,4.03665 -12.09778,9.46473 -16.68137,15.59869 -7.4449,9.96308 -12.21724,21.67469 -15.86268,33.56587 -7.93637,25.88789 -10.96968,53.42069 -22.52428,77.90865 -5.58888,11.84466 -13.05939,22.70796 -21.04658,33.08757 -10.01853,13.01941 -20.89206,25.35733 -31.98044,37.47854 -8.47434,9.26369 -17.07918,18.40694 -25.64496,27.58614 -31.88483,34.1682 -63.22957,68.8357 -94.55625,103.51635 -33.98937,37.62842 -68.25262,75.54333 -108.97379,105.75859 -12.484543,9.26358 -25.696277,17.84919 -40.360093,23.01157 -7.793191,2.74359 -16.019832,4.49904 -24.277466,4.22964 -5.062573,-0.16516 -10.158504,-1.11294 -14.707714,-3.34041 -4.54921,-2.22747 -8.528019,-5.80487 -10.71229,-10.37498 -1.890888,-3.95627 -2.37082,-8.49351 -1.850881,-12.84749 0.519938,-4.35399 1.999758,-8.54645 3.866907,-12.51398"
       id="path3775"
       inkscape:path-effect="#path-effect3815"
       inkscape:original-d="m 16.373443,544.21643 c 6.404446,-14.96376 15.350993,-21.45287 24.348197,-31.87339 8.231539,-9.43017 18.649813,-18.92404 28.431486,-27.38294 17.881653,-15.46354 35.065734,-26.89018 51.431824,-43.00054 20.73969,-20.4156 45.43439,-41.20205 65.69421,-62.09395 44.40178,-45.78702 90.35911,-98.11802 122.69237,-153.09559 9.94455,-16.90915 16.17708,-30.59167 21.92495,-49.48843 4.04994,-13.3145 6.66778,-31.52558 12.15373,-44.21197 8.65731,-20.02019 11.76992,-43.010196 22.30322,-62.019453 4.35384,-7.857285 7.3785,-13.476165 13.88139,-19.720805 24.20398,-23.242775 17.03601,-31.675705 47.10983,-32.934881 3.18096,-0.133185 28.88541,-8.4014969 32.42769,-8.17764 20.52471,1.297073 52.81397,6.729011 70.87405,18.418747 17.63193,11.412611 34.86053,25.09546 47.10872,41.004957 13.82711,17.960388 21.92029,35.878515 26.54001,58.637695 4.34642,21.41275 7.1657,44.03944 11.76162,65.20221 2.67884,12.33521 5.16336,24.07333 11.00341,35.04601 20.19843,37.9502 46.25712,73.35039 76.14342,104.97499 34.38519,36.38521 73.9907,68.04861 103.07986,108.05275 15.62796,21.49195 44.46084,39.73943 63.75899,62.06106 9.6898,11.20791 12.49474,23.8397 15.07551,36.44092 1.84846,9.0257 8.2632,10.51614 -1.83087,17.95011 -0.64215,0.47292 -3.10019,8.39697 -3.29512,7.60111 -2.55099,-10.41563 3.82756,5.73059 -7.25466,7.86371 -17.18523,3.30781 -10.49163,6.95693 -26.0579,1.10802 -17.98998,-6.75958 -55.9838,-30.44453 -68.96731,-42.06338 -24.65513,-22.06365 -47.32525,-42.31943 -69.12017,-73.17643 -12.90008,-18.26377 -30.13822,-40.27425 -44.35206,-59.16477 -23.98252,-31.87334 -48.46573,-59.66594 -69.64046,-89.32907 -22.56993,-31.61764 -29.57543,-39.56746 -40.64592,-61.50739 -9.55537,-18.93717 -15.3423,-33.09834 -21.16316,-52.81719 -3.49284,-11.83247 -3.90455,-26.82612 -13.81339,-42.80489 -5.7735,-8.6244 -20.61793,-26.6137 -29.3391,-33.46272 -7.5568,-5.93461 -16.39867,-6.55789 -25.36401,-5.85446 -12.10656,0.94989 -30.31573,12.17166 -38.26984,22.75154 -6.03001,8.0206 -11.34691,25.54332 -15.86268,33.56587 -13.5211,24.02107 -9.73711,53.48898 -22.52428,77.90865 -6.64119,12.68271 -11.40124,21.98758 -21.04658,33.08757 -10.62243,12.22445 -21.67182,25.53959 -31.98044,37.47854 -1.24627,1.44335 -24.39711,26.14761 -25.64496,27.58614 -37.84308,43.62581 -54.52818,61.81274 -94.55625,103.51635 -35.57228,37.06128 -66.17698,77.3445 -108.97379,105.75859 -12.990389,8.6247 -25.669311,17.26634 -40.360093,23.01157 -8.390155,3.28118 -15.380679,4.61923 -24.277466,4.22964 C 27.172549,582.74133 21.11925,580.2299 14.357417,569.5779 8.738994,560.72711 12.785621,554.06682 16.373443,544.21643 z"
       inkscape:connector-curvature="0"
       sodipodi:nodetypes="ccssssssssssssssssssssssssssssscsssssssssssssc" />
    <path
       style="fill:none;stroke:#000000;stroke-width:1.06299210000000000;stroke-linecap:butt;stroke-linejoin:miter;stroke-miterlimit:4;stroke-opacity:1;stroke-dasharray:none"
       d="m 13.050109,541.34627 c 5.535444,-13.02 14.954226,-23.98079 24.801379,-34.13929 8.444003,-8.71099 17.312574,-17.00569 26.467698,-24.96598 18.013066,-15.66218 37.120304,-30.01913 55.359404,-45.41749 22.73384,-19.19304 44.08041,-39.97151 64.93891,-61.18761 44.52234,-45.28565 87.24064,-93.09167 119.21797,-147.95951 10.29149,-17.6585 19.45785,-36.05196 25.99103,-55.4183 4.39692,-13.0338 7.57952,-26.43905 10.89783,-39.78827 5.41491,-21.78362 11.32359,-43.762641 22.50168,-63.227934 4.06455,-7.077926 8.80416,-13.773783 14.20497,-19.893334 11.09383,-12.570208 24.92585,-22.615239 40.00809,-29.937065 18.32624,-8.896656 38.85347,-13.8384816 59.15322,-12.129211 20.27487,1.7071754 39.53868,9.925273 56.86991,20.584228 16.45214,10.118303 31.57704,22.598733 43.62459,37.695404 14.53908,18.218785 24.32676,39.920632 30.43804,62.414212 8.95095,32.94548 10.28914,67.82647 21.85865,99.9461 14.58309,40.48605 44.19662,73.44695 72.82009,105.57923 33.13009,37.19134 65.94433,74.86011 103.07986,108.05275 22.15828,19.80561 46.03005,38.20868 63.75899,62.06106 7.92373,10.66053 14.62812,22.59652 16.88823,35.68561 1.6584,9.60439 0.72622,19.96271 -4.37068,28.27031 -4.48852,7.31599 -12.2072,12.65769 -20.69907,13.90615 -7.99229,1.17501 -16.07724,-1.16075 -23.60562,-4.09004 -8.32059,-3.23754 -16.33765,-7.2293 -24.05393,-11.72073 -14.14417,-8.23292 -27.26528,-18.13209 -39.70203,-28.77003 -25.72234,-22.00195 -48.58447,-47.19331 -69.53286,-73.7807 -14.76868,-18.74419 -28.60857,-38.19785 -42.84147,-57.35205 -23.05161,-31.02216 -47.13577,-61.26085 -70.69788,-91.89707 -17.7264,-23.04844 -35.33226,-46.62015 -46.71153,-73.37773 -11.6184,-27.31987 -16.4312,-57.25861 -29.21307,-84.05388 -5.01626,-10.51584 -11.43738,-20.69261 -20.72864,-27.72242 -8.41755,-6.36875 -19.05106,-9.84694 -29.59372,-9.32885 -14.03858,0.68988 -27.2399,8.43959 -36.00392,19.42821 -7.61288,9.54528 -12.0487,21.22393 -15.4095,32.96162 -7.66566,26.77258 -10.46587,55.2196 -22.8264,80.17457 -5.88065,11.87258 -13.7825,22.62665 -22.10399,32.9365 -9.88148,12.24259 -20.408,23.94931 -31.07409,35.51475 -22.69246,24.60585 -46.04008,48.6 -68.80239,73.14126 -17.74607,19.13299 -35.13339,38.5953 -52.45625,58.1123 -34.03421,38.34504 -68.2317,77.2775 -110.03121,106.96707 -12.506067,8.88287 -25.700192,16.92356 -39.906907,22.70944 -7.923535,3.22697 -16.33263,5.76823 -24.881709,5.43811 -5.122495,-0.1978 -10.20072,-1.43855 -14.845101,-3.60853 -5.785926,-2.70334 -10.994016,-6.98711 -13.898236,-12.67486 -2.283176,-4.47147 -3.0495677,-9.62451 -2.6823207,-14.63171 0.367247,-5.0072 1.8276177,-9.88588 3.7919827,-14.50629"
       id="path3777"
       inkscape:path-effect="#path-effect3812"
       inkscape:original-d="m 13.050109,541.34627 c 6.404446,-14.96376 15.804175,-23.71877 24.801379,-34.13929 8.23154,-9.43016 16.686026,-16.50708 26.467698,-24.96598 17.881654,-15.46354 38.993314,-29.30713 55.359404,-45.41749 20.73969,-20.4156 44.67908,-40.29571 64.93891,-61.18761 44.40177,-45.78702 86.88472,-92.98196 119.21797,-147.95951 9.94456,-16.90915 20.24316,-36.52154 25.99103,-55.4183 4.04994,-13.3145 5.41188,-27.10188 10.89783,-39.78827 8.65731,-20.02018 11.96838,-44.218677 22.50168,-63.227934 4.35384,-7.857285 7.70208,-13.648694 14.20497,-19.893334 11.80963,-11.34064 25.44492,-22.527664 40.00809,-29.937065 18.4412,-9.382467 38.46141,-13.4368438 59.15322,-12.129211 20.52471,1.2970727 38.80983,8.894493 56.86991,20.584228 17.63193,11.412612 31.3764,21.785906 43.62459,37.695404 13.82711,17.960388 25.8183,39.655032 30.43804,62.414212 6.87984,33.89368 5.99921,70.14827 21.85865,99.9461 20.19843,37.9502 42.93379,73.95463 72.82009,105.57923 34.38519,36.38521 73.9907,68.04861 103.07986,108.05275 15.62796,21.49195 44.46084,39.73943 63.75899,62.06106 9.6898,11.20791 14.30746,23.08439 16.88823,35.68561 1.93906,9.46796 -0.19779,19.15502 -4.37068,28.27031 -4.46361,9.75032 -9.61683,11.77306 -20.69907,13.90615 -8.28846,1.59538 -16.04722,-0.66546 -23.60562,-4.09004 -8.11308,-3.67595 -15.99531,-8.69276 -24.05393,-11.72073 -17.98997,-6.7596 -26.71852,-17.15118 -39.70203,-28.77003 -24.65513,-22.06366 -47.73794,-42.9237 -69.53286,-73.7807 -12.90008,-18.26377 -28.62764,-38.46153 -42.84147,-57.35205 -23.98252,-31.87334 -49.52315,-62.23394 -70.69788,-91.89707 -23.07484,-32.32496 -68.51351,-106.57451 -46.71153,-73.37773 40.14071,61.1203 -18.45206,-67.97915 -29.21307,-84.05388 -5.7735,-8.6244 -12.00748,-20.87339 -20.72864,-27.72242 -7.5568,-5.9346 -20.62838,-10.03228 -29.59372,-9.32885 -12.10656,0.94989 -28.04981,8.84833 -36.00392,19.42821 -6.03001,8.0206 -10.89373,24.93908 -15.4095,32.96162 -13.52111,24.02107 -10.03923,55.7549 -22.8264,80.17457 -6.64119,12.6827 -12.45865,21.83651 -22.10399,32.9365 -10.62243,12.22445 -20.76547,23.5758 -31.07409,35.51475 -22.41642,25.96159 -45.43576,48.21744 -68.80239,73.14126 -17.32918,18.48405 -34.84935,39.7684 -52.45625,58.1123 -35.57228,37.06128 -67.2344,78.55298 -110.03121,106.96707 -12.990384,8.6247 -25.216125,16.9642 -39.906907,22.70944 -8.390154,3.28117 -15.984922,5.8277 -24.881709,5.43811 -5.687553,-0.24903 -15.022569,1.32889 -14.845101,-3.60853 0.408131,-11.35471 -10.187468,-6.82923 -13.898236,-12.67486 -5.618427,-8.85078 -2.4781598,-19.28761 1.109662,-29.138 z"
       inkscape:connector-curvature="0"
       sodipodi:nodetypes="ccssssssssssssssssssssssssssssssssssssssssssc" />
    <path
       style="fill:none;stroke:#000000;stroke-width:1.06299210000000000;stroke-linecap:butt;stroke-linejoin:miter;stroke-miterlimit:4;stroke-opacity:1;stroke-dasharray:none"
       d="m 8.6693512,542.25264 c 4.7401218,-13.68363 13.7494828,-25.48151 23.5928928,-36.10307 8.658795,-9.3433 18.060766,-17.96996 27.676182,-26.32555 17.817142,-15.48271 36.395466,-30.06481 54.453044,-45.26641 22.93571,-19.3082 45.02495,-39.61098 66.44951,-60.58337 45.70686,-44.74221 88.71622,-92.97604 120.87963,-148.26164 10.15053,-17.44773 19.2096,-35.59745 25.83997,-54.66299 4.55951,-13.11079 7.9512,-26.59493 11.19997,-40.09039 5.09902,-21.18143 10.01531,-42.835363 21.14212,-61.566273 4.48225,-7.545442 9.91454,-14.501196 15.86663,-20.950761 11.92777,-12.924691 26.05989,-23.903144 41.88091,-31.585258 15.82101,-7.6821136 33.34928,-12.0172776 50.93587,-11.8405614 24.05215,0.2416844 47.50053,8.8860724 67.86777,21.6821504 16.37116,10.285472 31.08173,23.340548 42.60767,38.863391 13.71709,18.473829 22.71898,40.133192 28.46331,62.414212 8.52336,33.0603 10.16182,67.87095 21.85865,99.9461 14.74016,40.42061 44.24658,73.41321 72.82009,105.57923 33.07932,37.23834 65.89522,74.91308 103.07986,108.05275 22.18928,19.77551 46.11937,38.13871 63.75899,62.06106 8.03192,10.89266 14.73326,23.04038 17.49247,36.28986 1.95345,9.38033 1.79866,19.50995 -2.40689,28.11924 -2.17951,4.46174 -5.41182,8.41075 -9.38236,11.39274 -3.97054,2.98198 -8.67495,4.98834 -13.58261,5.74482 -7.93867,1.22369 -16.00979,-0.80194 -23.62573,-3.35483 -9.63413,-3.22939 -18.9816,-7.33425 -27.81035,-12.36402 -14.53277,-8.27938 -27.53472,-18.98226 -40.00416,-30.12958 -25.5939,-22.88021 -49.29265,-47.8821 -70.74135,-74.68704 -14.84059,-18.54663 -28.59053,-37.93413 -42.6904,-57.04995 -22.95855,-31.12592 -46.85613,-61.54613 -70.24468,-92.35025 -18.02338,-23.73787 -35.93427,-48.03556 -47.16471,-75.64364 -10.63762,-26.15073 -14.98472,-54.58252 -26.34293,-80.42842 -4.98557,-11.34478 -11.64265,-22.48597 -21.93712,-29.38408 -8.25436,-5.53107 -18.50188,-7.93473 -28.38524,-6.91188 -12.94311,1.33951 -25.03486,8.52105 -32.98271,18.82396 -6.89108,8.93302 -10.68793,19.83648 -13.74783,30.69571 -7.4967,26.60497 -11.35261,54.5033 -23.32007,79.41926 -5.90992,12.30432 -13.69484,23.63124 -22.21455,34.29605 -10.03724,12.56442 -21.11175,24.25577 -32.13154,35.96795 -40.5477,43.09539 -80.55149,86.69882 -120.50332,130.34718 -34.58594,37.78599 -69.38079,75.83399 -110.18227,106.80507 -12.943202,9.82476 -26.56536,18.96595 -41.568577,25.20742 -8.240773,3.42823 -17.015152,5.9815 -25.939133,5.82124 -6.261986,-0.11246 -12.53941,-1.59647 -18.015341,-4.63609 -5.475931,-3.03962 -10.118087,-7.66977 -12.842845,-13.30899 -2.2359108,-4.62749 -3.1501046,-9.83267 -3.0299939,-14.97062 0.1201107,-5.13795 1.2489303,-10.21749 2.9311711,-15.07373"
       id="path3779"
       inkscape:path-effect="#path-effect3809"
       inkscape:original-d="M 8.6693512,542.25264 C 15.073797,527.28888 23.26504,516.57008 32.262244,506.14957 c 8.23154,-9.43017 17.894509,-17.86665 27.676182,-26.32555 17.881653,-15.46354 38.086951,-29.15605 54.453044,-45.26641 20.73969,-20.4156 46.18969,-39.69146 66.44951,-60.58337 44.40178,-45.78702 88.54638,-93.28409 120.87963,-148.26164 9.94456,-16.90915 20.0921,-35.76624 25.83997,-54.66299 4.04994,-13.3145 5.71401,-27.404 11.19997,-40.09039 8.6573,-20.02019 10.60882,-42.557016 21.14212,-61.566273 4.35385,-7.857285 9.36374,-14.706123 15.86663,-20.950761 26.76406,-25.701197 55.7845,-45.7660995 92.81678,-43.4258194 20.5247,1.2970727 49.8077,9.9924164 67.86777,21.6821504 17.63194,11.412612 30.35947,22.953893 42.60767,38.863391 13.82711,17.960388 23.84357,39.655032 28.46331,62.414212 6.87984,33.89368 5.99921,70.14827 21.85865,99.9461 20.19843,37.9502 42.93379,73.95463 72.82009,105.57923 34.38519,36.38521 73.9907,68.04861 103.07986,108.05275 15.62796,21.49195 44.46084,39.73943 63.75899,62.06106 9.6898,11.20791 14.91171,23.68863 17.49247,36.28986 1.93906,9.46795 1.766,19.00394 -2.40689,28.11924 -4.46362,9.75032 -11.88275,15.00446 -22.96497,17.13756 -7.7124,1.48447 -15.72677,-0.3513 -23.62573,-3.35483 -9.70202,-3.68913 -19.22991,-9.13999 -27.81035,-12.36402 -17.98998,-6.7596 -27.02066,-18.51073 -40.00416,-30.12958 -24.65514,-22.06366 -48.94643,-43.83004 -70.74135,-74.68704 -12.90008,-18.26377 -28.47657,-38.15943 -42.6904,-57.04995 -23.98252,-31.87334 -49.06995,-62.68712 -70.24468,-92.35025 -23.07484,-32.32496 -68.96669,-108.84042 -47.16471,-75.64364 40.14072,61.12029 -15.58192,-64.35369 -26.34293,-80.42842 -5.7735,-8.6244 -13.21596,-22.53506 -21.93712,-29.38408 -7.5568,-5.93461 -19.4199,-7.61532 -28.38524,-6.91188 -12.10656,0.94989 -25.0286,8.24408 -32.98271,18.82396 -6.03002,8.0206 -9.23206,22.67317 -13.74783,30.69571 -13.5211,24.02108 -10.53293,54.99959 -23.32007,79.41926 -6.64119,12.68271 -29.77522,40.40207 -22.21455,34.29605 12.59918,-10.17513 -21.82291,24.029 -32.13154,35.96795 -39.04089,45.21526 -79.15534,87.26843 -120.50332,130.34718 -35.57228,37.06129 -67.38546,78.39098 -110.18227,106.80507 -12.990386,8.62471 -26.877795,19.46218 -41.568577,25.20742 -8.390154,3.28117 -17.042347,6.21082 -25.939133,5.82124 C 27.021487,589.69011 15.530007,582.94899 8.768174,572.29699 3.1497506,563.44621 5.0815288,552.10303 8.6693512,542.25264 z"
       inkscape:connector-curvature="0"
       sodipodi:nodetypes="ccsssssssssssssssssssssssssssssssssssssssc" />
    <path
       style="fill:none;stroke:#000000;stroke-width:1.06299213;stroke-linecap:butt;stroke-linejoin:miter;stroke-miterlimit:4;stroke-opacity:1;stroke-dasharray:none"
       d="m 4.5907141,540.89309 c 3.5585615,-15.18634 13.6186849,-27.96408 24.1971359,-39.4264 8.637165,-9.35883 17.809379,-18.21902 27.374061,-26.62766 17.909343,-15.74472 37.163294,-29.8831 55.510469,-45.11537 22.56902,-18.73734 43.73092,-39.10048 64.63678,-59.677 45.28622,-44.57281 89.93216,-90.82662 122.23919,-145.54255 10.12123,-17.14156 19.00427,-35.10351 25.08466,-54.05875 4.20408,-13.10596 7.0438,-26.60236 10.44465,-39.93933 5.49727,-21.55844 12.56535,-42.941866 24.01229,-62.019446 4.65406,-7.756502 10.01207,-15.092795 16.01769,-21.857124 12.72455,-14.332094 28.43505,-26.088715 46.03028,-33.686805 17.59523,-7.5980894 37.07535,-10.9774202 56.15224,-9.1347735 20.91507,2.0201971 40.90353,10.2102915 58.68265,21.4095945 16.95387,10.679472 32.20202,24.213977 44.08871,40.344432 13.6473,18.519632 22.66043,40.153212 28.46331,62.414212 8.61091,33.03316 10.41876,67.78298 21.85865,99.9461 14.29441,40.18857 42.60121,73.6149 70.84537,105.57923 33.28497,37.66909 67.38365,74.76987 105.05458,108.05275 22.27266,19.67826 45.99265,38.2354 63.75899,62.06106 8.09737,10.85903 14.96385,22.98227 17.49247,36.28986 1.78162,9.37628 1.30057,19.32472 -2.40689,28.11924 -2.05536,4.87555 -5.09514,9.36055 -9.02452,12.90393 -3.92937,3.54338 -8.7589,6.1247 -13.94045,7.19571 -7.502,1.55064 -15.27988,-0.078 -22.65143,-2.16237 -10.36209,-2.93001 -20.48483,-6.78097 -29.99313,-11.83567 -14.80357,-7.86971 -27.92358,-18.54165 -40.45734,-29.67641 -26.34074,-23.40061 -50.57314,-49.17794 -72.25196,-76.95296 -14.19439,-18.18593 -27.28068,-37.20465 -40.87768,-55.84145 -22.92092,-31.41669 -47.29197,-61.74636 -70.69785,-92.80344 -18.17436,-24.11541 -35.91475,-48.92809 -47.76897,-76.70106 -11.19229,-26.22215 -16.88361,-54.50318 -27.70246,-80.8816 -4.30066,-10.48583 -9.77262,-21.08575 -19.06699,-27.57135 -8.01056,-5.58976 -18.20642,-7.51919 -27.93203,-6.60977 -12.00756,1.1228 -23.68856,6.55279 -31.77424,15.50064 -7.47529,8.27237 -11.60531,19.02297 -14.50313,29.78934 -7.18253,26.68554 -7.88749,55.32056 -19.65412,80.32563 -6.10021,12.96347 -14.95536,24.42407 -24.21885,35.35347 -10.41518,12.2882 -21.43366,24.04929 -32.43364,35.81689 -40.50239,43.3288 -80.82512,86.82558 -120.9565,130.49824 -34.88759,37.96615 -69.89119,76.30417 -111.08864,107.30969 -12.860884,9.6792 -26.450315,18.69489 -41.568577,24.22005 -8.296607,3.0321 -17.129866,4.99145 -25.939133,4.3402 -6.16168,-0.45552 -12.244538,-2.20533 -17.616562,-5.2574 -5.372025,-3.05207 -10.017694,-7.417 -13.241624,-12.68768 -5.6525705,-9.24117 -6.6489383,-20.85674 -4.1774599,-31.4039"
       id="path3783"
       inkscape:path-effect="#path-effect3771"
       inkscape:original-d="M 4.5907141,540.89309 C 10.99516,525.92933 19.790646,511.8872 28.78785,501.46669 c 8.231539,-9.43017 17.592388,-18.16877 27.374061,-26.62766 17.881653,-15.46354 39.144374,-29.00501 55.510469,-45.11537 20.73968,-20.4156 44.37696,-38.78509 64.63678,-59.677 44.40178,-45.78701 89.90593,-90.56499 122.23919,-145.54255 9.94455,-16.90914 19.33678,-35.16199 25.08466,-54.05875 4.04993,-13.3145 4.9587,-27.25293 10.44465,-39.93933 8.65731,-20.02018 13.47899,-43.010189 24.01229,-62.019446 4.35384,-7.857285 9.51481,-15.612487 16.01769,-21.857124 26.76407,-25.701199 65.15024,-45.1618585 102.18252,-42.8215785 20.52471,1.2970727 40.62257,9.7198585 58.68265,21.4095945 17.63193,11.41261 31.84051,24.434934 44.08871,40.344432 13.82711,17.960388 23.84357,39.655032 28.46331,62.414212 6.87984,33.89368 5.99921,70.14827 21.85865,99.9461 20.19843,37.9502 40.95907,73.95463 70.84537,105.57923 34.38519,36.38521 75.96542,68.04861 105.05458,108.05275 15.62796,21.49195 44.46084,39.73943 63.75899,62.06106 9.6898,11.20791 14.91171,23.68863 17.49247,36.28986 1.93906,9.46795 1.766,19.00394 -2.40689,28.11924 -4.46362,9.75032 -11.88275,17.96655 -22.96497,20.09964 -7.24491,1.3945 -14.97107,0.16489 -22.65143,-2.16237 -10.53774,-3.1931 -20.98926,-8.45255 -29.99313,-11.83567 -17.98998,-6.7596 -27.47383,-18.05756 -40.45734,-29.67641 C 743.406,522.38589 717.60409,498.35358 695.80917,467.49659 682.90909,449.23282 669.14532,430.54566 654.93149,411.65514 630.94897,379.7818 605.40837,348.51483 584.23364,318.8517 561.1588,286.52674 514.66269,208.95386 536.46467,242.15064 c 40.14071,61.12029 -16.94145,-64.80687 -27.70246,-80.8816 -5.7735,-8.6244 -10.34582,-20.72233 -19.06699,-27.57135 -7.55679,-5.93461 -18.96669,-7.3132 -27.93203,-6.60977 -12.10656,0.9499 -23.82013,4.92075 -31.77424,15.50064 -6.03001,8.02059 -9.98736,21.7668 -14.50313,29.78934 -13.5211,24.02108 -6.86695,55.90596 -19.65412,80.32563 -6.64119,12.68271 -14.57351,24.25348 -24.21885,35.35347 -10.62243,12.22445 -22.12502,23.87793 -32.43364,35.81689 -39.04089,45.21526 -79.60852,87.41948 -120.9565,130.49824 -35.57229,37.06128 -68.29183,78.8956 -111.08864,107.30969 -12.990386,8.6247 -26.877795,18.47482 -41.568577,24.22005 -8.390154,3.28118 -17.042347,4.72978 -25.939133,4.3402 C 27.021487,589.69011 15.530007,582.94899 8.768174,572.29699 3.1497506,563.44621 1.0028918,550.74348 4.5907141,540.89309 z"
       inkscape:connector-curvature="0"
       sodipodi:nodetypes="ccsssssssssssssssssssssssssssssssssssssssc" />
  </g>
</svg>
