<?xml version="1.0" encoding="UTF-8" standalone="no"?>
<!-- Created with Inkscape (http://www.inkscape.org/) -->

<svg
   xmlns:dc="http://purl.org/dc/elements/1.1/"
   xmlns:cc="http://creativecommons.org/ns#"
   xmlns:rdf="http://www.w3.org/1999/02/22-rdf-syntax-ns#"
   xmlns:svg="http://www.w3.org/2000/svg"
   xmlns="http://www.w3.org/2000/svg"
   xmlns:sodipodi="http://sodipodi.sourceforge.net/DTD/sodipodi-0.dtd"
   xmlns:inkscape="http://www.inkscape.org/namespaces/inkscape"
   id="svg2"
   version="1.1"
   inkscape:version="0.48.2 r9819"
   width="746.60236"
   height="1105.0835"
   sodipodi:docname="Floater.svg">
  <metadata
     id="metadata8">
    <rdf:RDF>
      <cc:Work
         rdf:about="">
        <dc:format>image/svg+xml</dc:format>
        <dc:type
           rdf:resource="http://purl.org/dc/dcmitype/StillImage" />
        <dc:title></dc:title>
      </cc:Work>
    </rdf:RDF>
  </metadata>
  <defs
     id="defs6">
    <inkscape:path-effect
       is_visible="true"
       id="path-effect5792"
       effect="spiro" />
    <inkscape:path-effect
       is_visible="true"
       id="path-effect5789"
       effect="spiro" />
    <inkscape:path-effect
       is_visible="true"
       id="path-effect5786"
       effect="spiro" />
    <inkscape:path-effect
       is_visible="true"
       id="path-effect5783"
       effect="spiro" />
    <inkscape:path-effect
       effect="spiro"
       id="path-effect5240"
       is_visible="true" />
  </defs>
  <sodipodi:namedview
     pagecolor="#ffffff"
     bordercolor="#666666"
     borderopacity="1"
     objecttolerance="10"
     gridtolerance="10"
     guidetolerance="10"
     inkscape:pageopacity="0"
     inkscape:pageshadow="2"
     inkscape:window-width="1280"
     inkscape:window-height="752"
     id="namedview4"
     showgrid="false"
     fit-margin-top="0.3"
     fit-margin-left="0.3"
     fit-margin-right="0.3"
     fit-margin-bottom="0.3"
     inkscape:zoom="1.9339356"
     inkscape:cx="125.105"
     inkscape:cy="1152.3537"
     inkscape:window-x="0"
     inkscape:window-y="0"
     inkscape:window-maximized="0"
     inkscape:current-layer="svg2" />
  <path
     style="fill:none;stroke:#000000;stroke-width:1.77165353999999997;stroke-linecap:butt;stroke-linejoin:miter;stroke-miterlimit:4;stroke-opacity:1;stroke-dasharray:none"
     d="m 119.05827,1031.0712 c 36.51476,16.4524 76.70174,22.6404 116.39799,27.9522 80.46381,10.767 161.28461,18.6176 241.97433,27.535 26.03882,2.8777 52.06524,5.8666 78.08599,8.9034 32.9872,3.8498 66.02227,7.7808 99.22278,8.6189 20.3532,0.5138 41.53044,-0.3292 59.65919,-9.5955 11.90272,-6.084 22.15147,-15.9587 27.11781,-28.3694 2.48286,-6.2046 3.61629,-12.9676 3.10084,-19.6306 -0.51544,-6.663 -2.69718,-13.2141 -6.43841,-18.7516 -4.21898,-6.2447 -10.31211,-11.0779 -17.0089,-14.5346 -6.69679,-3.4567 -14.00054,-5.5979 -21.37324,-7.1596 -12.05214,-2.5529 -24.36684,-3.6026 -36.65317,-4.5068 -17.39361,-1.2801 -34.80648,-2.2799 -52.20983,-3.41995 -25.94062,-1.69931 -51.85995,-3.71027 -77.76847,-5.84383 -20.25911,-1.66833 -40.51277,-3.41171 -60.74096,-5.4205 -48.15503,-4.7821 -96.15593,-11.06729 -144.3502,-15.43628 -43.54902,-3.94788 -87.77049,-6.43069 -129.33111,-20.02546 -14.8514,-4.858 -29.58012,-11.32456 -40.88531,-22.11144 -13.9322,-13.29345 -21.44657,-31.99523 -25.9378,-50.7209 -3.40215,-14.18487 -5.29855,-28.69247 -6.58545,-43.22275 -1.95084,-22.02677 -2.51284,-44.15116 -2.93851,-66.26005 -1.15654,-60.06979 -1.31389,-120.16446 0.0827,-180.22915 1.09009,-46.8828 3.12657,-93.73766 5.00637,-140.59544 3.7082,-92.43464 6.80758,-184.93401 5.67544,-277.43607 -0.28298,-23.1213 -0.83277,-46.27691 -3.42024,-69.25472 C 127.81592,84.468396 124.71917,67.345706 118.05855,51.49241 112.62627,38.56275 104.756,26.510729 94.195657,17.282247 89.011858,12.752225 83.200862,8.9220575 76.921359,6.1005843 70.100427,3.035839 62.703265,1.1693031 55.22711,1.0115593 45.142845,0.79878546 34.797078,3.8873787 27.274903,10.607093 21.679412,15.605661 17.901606,22.289127 14.5033,28.978426 11.392736,35.101328 8.5045623,41.360826 6.4150473,47.902956 1.8116751,62.315804 1.2072947,77.666321 0.99148478,92.794924 0.63229577,117.97461 1.2454934,143.16512 2.6602732,168.3076 c 2.5636346,45.55912 7.7554998,90.92737 11.2643218,136.42346 4.721513,61.22008 6.392597,122.62775 8.76114,183.98393 2.974441,77.05172 7.050887,154.06007 9.595532,231.12718 1.660118,50.27834 2.674856,100.67195 8.761141,150.60816 3.355057,27.52727 8.250529,54.87837 15.019096,81.77063 4.18312,16.62 9.279612,33.46696 19.608264,47.14328 10.911053,14.44746 26.881922,24.26966 43.388502,31.70696"
     id="path5238"
     inkscape:path-effect="#path-effect5792"
     inkscape:original-d="m 119.05827,1031.0712 c 36.21348,16.7567 77.10151,21.0248 116.39799,27.9522 79.94591,14.0934 161.2505,18.9539 241.97433,27.535 26.04337,2.7685 52.05354,5.3552 78.08599,8.9034 33.00084,4.498 66.03748,9.6309 99.22278,8.6189 20.13261,-0.6139 41.82802,-0.2281 59.65919,-9.5955 11.58098,-6.0839 22.7792,-16.028 27.11781,-28.3694 4.25918,-12.1155 3.60921,-27.5809 -3.33757,-38.3822 -7.94965,-12.3605 -24.34968,-17.3272 -38.38214,-21.6942 -11.87944,-3.697 -24.18619,-3.7708 -36.65317,-4.5068 -17.33271,-1.0233 -34.97519,-1.95047 -52.20983,-3.41995 -25.9089,-2.20907 -51.8435,-3.82481 -77.76847,-5.84383 -20.25845,-1.57772 -40.51102,-3.51654 -60.74096,-5.4205 -48.17817,-4.5343 -96.36795,-9.15952 -144.3502,-15.43628 -43.25557,-5.65843 -87.98641,-6.10865 -129.33111,-20.02546 -14.68424,-4.94279 -30.08965,-10.99785 -40.88531,-22.11144 -13.99685,-14.40908 -20.53114,-31.37404 -25.9378,-50.7209 -3.83994,-13.74062 -5.40134,-28.35396 -6.58545,-43.22275 -1.76811,-22.20206 -2.08036,-44.97377 -2.93851,-66.26005 -2.42,-60.02778 -0.91692,-120.16093 0.0827,-180.22915 0.78026,-46.88835 3.60797,-93.72144 5.00637,-140.59544 2.75851,-92.46431 6.51206,-184.93441 5.67544,-277.43607 -0.20897,-23.10448 -0.29473,-46.36167 -3.42024,-69.25472 C 127.42203,84.577425 124.95518,67.179472 118.05855,51.49241 112.50102,38.851248 104.16565,26.836539 94.195657,17.282247 88.874181,12.182648 83.759121,8.8517709 76.921359,6.1005843 70.064151,3.3415735 62.604757,0.56017269 55.22711,1.0115593 45.394381,1.6131552 34.872985,4.3370356 27.274903,10.607093 21.368561,15.4811 17.982931,21.946622 14.5033,28.978426 11.642097,34.760482 8.3935619,41.925133 6.4150473,47.902956 1.5750141,62.526485 1.7270415,77.40881 0.99148478,92.794924 -0.21076907,117.94324 1.3456508,143.16491 2.6602732,168.3076 c 2.3825366,45.56699 8.3013058,90.89052 11.2643218,136.42346 3.986955,61.26787 6.027538,122.64735 8.76114,183.98393 3.433117,77.03229 5.757154,154.11401 9.595532,231.12718 2.503253,50.22524 2.747216,100.68146 8.761141,150.60816 3.314196,27.51395 7.150182,55.19845 15.019096,81.77063 4.832598,16.31901 9.080264,33.77073 19.608264,47.14328 11.080729,14.07466 27.131482,24.18456 43.388502,31.70696 z"
     inkscape:connector-curvature="0"
     sodipodi:nodetypes="sssssssssssssssssssssssssssssssssssssss" />
  <path
     sodipodi:nodetypes="ssssssssssssssssssssssssssssssssssssssss"
     inkscape:connector-curvature="0"
     inkscape:original-d="m 124.07332,1017.5011 c 17.43027,8.0653 35.49753,11.1006 53.47333,14.076 19.37109,3.2064 38.70732,6.153 59.08962,9.7461 79.94591,14.0934 162.7255,14.3486 243.44933,22.9297 59.05809,6.2781 115.58553,17.4478 174.94875,15.6376 20.13261,-0.6139 39.173,3.6069 57.00417,-5.7605 11.58099,-6.0839 16.87914,-4.8179 21.21775,-17.1593 4.25918,-12.1155 2.13422,-14.6008 -4.81257,-25.402 -7.94965,-12.3606 -14.61459,-6.1666 -28.64705,-10.5336 -11.87944,-3.697 -24.18619,-3.271 -36.65317,-4.007 -17.33271,-1.0233 -34.97519,-2.4503 -52.20983,-3.9197 -25.9089,-2.2091 -51.8435,-3.8249 -77.76847,-5.8439 -20.25845,-1.5777 -40.51102,-4.5162 -60.74096,-6.4202 -48.17817,-4.53429 -100.79298,-9.88038 -148.77524,-16.15713 -43.25556,-5.65843 -166.57955,-42.17917 -127.8561,-22.09048 127.80809,66.30341 -30.08965,-10.99785 -40.88531,-22.11144 -13.99686,-14.40907 -29.38122,-30.78403 -34.78789,-50.13089 -3.83994,-13.74062 -11.5964,-37.79405 -12.78051,-52.66284 -1.76811,-22.20207 -7.685409,-44.67878 -8.54356,-65.96506 -1.01552,-25.18976 -2.015533,-50.39807 -2.760365,-75.61237 -1.030117,-34.87194 -1.572132,-69.7553 -0.992011,-104.61679 0.780257,-46.88834 2.132947,-101.98149 3.531349,-148.85549 2.758507,-92.46432 6.012207,-171.06928 5.175587,-263.57095 -0.20897,-23.10447 -2.7449,-54.03174 -5.870411,-76.92479 C 95.561721,85.167431 96.929906,78.094579 90.033277,62.407517 84.475741,49.766355 87.940486,46.30673 77.970496,36.752439 72.649021,31.65284 69.893985,21.241893 63.056223,18.490706 56.199014,15.731695 51.099645,10.295269 43.721998,10.746655 c -9.832729,0.601596 -5.60398,2.145465 -13.202062,8.415522 -5.906343,4.874007 -5.456937,7.209488 -8.936566,14.241291 -2.861203,5.782057 -4.044718,12.651704 -6.023233,18.629527 -4.840033,14.62353 -2.622985,25.375815 -3.358542,40.761929 -1.202254,25.148316 -0.23584,51.254996 1.078783,76.397686 2.382536,45.56699 7.121294,90.89051 10.08431,136.42344 3.986956,61.26788 5.732536,121.76236 8.466135,183.09894 3.43312,77.03229 4.872148,154.409 8.710526,231.42217 2.503253,50.22524 2.747215,100.38647 8.761141,150.31317 3.314195,27.51395 6.855179,53.42843 14.724093,80.00062 4.832598,16.319 10.260276,29.05068 20.788276,42.42322 11.080729,14.07463 23.001441,17.10453 39.258461,24.62693 z"
     inkscape:path-effect="#path-effect5789"
     id="path5750"
     d="m 124.07332,1017.5011 c 17.26995,6.5041 35.35701,10.5613 53.47333,14.076 19.59958,3.8025 39.31512,6.9944 59.08962,9.7461 80.74142,11.2354 162.30538,15.115 243.44933,22.9297 58.28911,5.6137 116.43805,13.2645 174.94875,15.6376 19.21277,0.7792 38.96778,0.9048 57.00417,-5.7605 4.3853,-1.6206 8.65636,-3.6492 12.39652,-6.4542 3.74015,-2.8051 6.94223,-6.4242 8.82123,-10.7051 1.83837,-4.1884 2.35219,-8.9409 1.4884,-13.4326 -0.8638,-4.4918 -3.09639,-8.7055 -6.30097,-11.9694 -3.6354,-3.7027 -8.41102,-6.1277 -13.36871,-7.6598 -4.95768,-1.532 -10.13022,-2.2237 -15.27834,-2.8738 -12.19425,-1.54 -24.41367,-2.8819 -36.65317,-4.007 -17.37947,-1.5976 -34.7958,-2.7579 -52.20983,-3.9197 -25.93896,-1.7306 -51.88087,-3.4654 -77.76847,-5.8439 -20.27479,-1.8628 -40.51114,-4.1199 -60.74096,-6.4202 -49.56493,-5.63595 -99.10572,-11.53266 -148.77524,-16.15713 -43.19374,-4.02154 -87.10633,-7.21336 -127.8561,-22.09048 -14.62404,-5.33902 -28.84893,-12.23757 -40.88531,-22.11144 -15.9034,-13.04613 -27.43925,-30.91847 -34.78789,-50.13089 -6.46466,-16.90131 -9.81436,-34.81212 -12.78051,-52.66284 -3.63544,-21.87854 -6.7453,-43.85956 -8.54356,-65.96506 -2.045338,-25.14283 -2.389769,-50.3892 -2.760365,-75.61237 -0.512342,-34.87053 -1.076716,-69.7426 -0.992011,-104.61679 0.120558,-49.63523 1.555952,-99.25943 3.531349,-148.85549 3.498287,-87.83103 8.691297,-175.74062 5.175587,-263.57095 -1.02883,-25.70237 -2.80422,-51.38523 -5.870411,-76.92479 C 96.267544,88.717255 94.279833,75.24882 90.033277,62.407517 87.059215,53.414151 82.989212,44.786004 77.970496,36.752439 73.792529,30.064678 68.927413,23.7548 63.056223,18.490706 c -2.67334,-2.39691 -5.576876,-4.58753 -8.846889,-6.070413 -3.270012,-1.482883 -6.940133,-2.229761 -10.487336,-1.673638 -2.632338,0.412692 -5.124593,1.528896 -7.327355,3.028015 -2.202762,1.499119 -4.12855,3.374933 -5.874707,5.387507 -3.6854,4.247695 -6.602074,9.125118 -8.936566,14.241291 -2.714601,5.949203 -4.657291,12.234507 -6.023233,18.629527 -2.852687,13.355611 -3.193259,27.106056 -3.358542,40.761929 -0.308273,25.469926 -0.04416,50.950656 1.078783,76.397686 2.010354,45.55685 6.7695,90.94289 10.08431,136.42344 4.441591,60.94044 6.288996,122.03565 8.466135,183.09894 2.750563,77.14638 6.029073,154.27336 8.710526,231.42217 1.743825,50.17206 3.239447,100.4154 8.761141,150.31317 2.986054,26.98401 7.166574,53.92502 14.724093,80.00062 4.421348,15.25492 10.219079,30.56772 20.788276,42.42322 10.381922,11.64543 24.658271,19.12833 39.258461,24.62693"
     style="fill:none;stroke:#000000;stroke-width:1.77165353999999997;stroke-linecap:butt;stroke-linejoin:miter;stroke-miterlimit:4;stroke-opacity:1;stroke-dasharray:none" />
  <path
     sodipodi:nodetypes="sssssssssssssssssssssssssssssssssssssssss"
     inkscape:connector-curvature="0"
     inkscape:original-d="m 122.8933,1023.139 c 15.30266,7.0808 31.00807,10.3718 46.83815,12.9493 21.63154,3.5222 43.62377,6.2499 66.31482,10.25 15.10833,2.6634 30.30205,3.3956 45.55413,5.2818 65.45458,8.0949 131.9842,11.7537 197.4527,18.7132 59.05809,6.278 119.71556,19.3325 179.07879,17.5223 20.13261,-0.614 35.33795,3.1644 53.16912,-6.203 11.58098,-6.084 18.35417,-3.933 22.69278,-16.2743 4.25918,-12.1155 8.18175,-21.8284 1.23497,-32.6296 -7.94965,-12.3606 -21.39965,-11.7222 -35.43211,-16.0892 -11.87944,-3.697 -24.18619,-3.7708 -36.65317,-4.5068 -17.33271,-1.0233 -34.97519,-1.9505 -52.20983,-3.4199 -25.9089,-2.2091 -51.54851,-4.4149 -77.47348,-6.4339 -20.25845,-1.5777 -43.46103,-4.40154 -63.69096,-6.3055 -48.17818,-4.5343 -94.30294,-9.15952 -142.2852,-15.43628 -43.25556,-5.65843 -87.98641,-7.10836 -129.3311,-21.02517 -14.68425,-4.94279 -38.64474,-18.84823 -49.4404,-29.96182 -13.99686,-14.40908 -21.71115,-30.48902 -27.11782,-49.83588 -3.83994,-13.74061 -8.35136,-31.00897 -9.53547,-45.87776 -1.76811,-22.20207 -5.91539,-45.26879 -6.77355,-66.55506 -2.42,-60.02779 -4.16195,-118.98093 -3.16237,-179.04915 0.78026,-46.88834 2.1084,-93.72143 3.5068,-140.59543 2.75851,-92.46432 6.94632,-183.7544 6.1097,-276.25606 -0.20896,-23.10448 -1.79429,-46.36167 -4.91981,-69.25472 C 104.50196,85.167431 102.53496,67.769478 95.638331,52.082416 90.080796,39.441254 89.120498,36.424133 79.150509,26.869842 73.829033,21.770243 74.319027,17.996861 67.481266,15.245674 60.624057,12.486664 64.079772,7.4927411 56.702125,7.9441276 46.869396,8.5457235 38.855524,7.1395632 31.257443,13.40962 25.351102,18.283627 22.99798,23.421637 19.518349,30.453441 16.657146,36.235497 14.736124,44.137654 12.75761,50.115477 7.9175765,64.739006 8.9546127,78.146317 8.2190559,93.53243 c -1.2022537,25.14832 -0.088338,50.22248 1.2262841,75.36518 1.218736,23.30882 4.06168,46.36096 6.224367,69.41446 2.065203,22.01435 3.445105,44.02995 4.892454,66.27148 3.986953,61.26788 5.585033,123.23735 8.318635,184.57394 3.433117,77.03228 4.282138,154.55651 8.120517,231.56968 2.503253,50.22524 3.189721,99.79646 9.203646,149.72316 3.314196,27.51395 7.297683,54.31345 15.166596,80.88564 4.832599,16.319 10.55528,31.70569 21.08328,45.07824 11.080729,14.07459 24.181455,19.20229 40.438465,26.72479 z"
     inkscape:path-effect="#path-effect5786"
     id="path5752"
     d="m 122.8933,1023.139 c 15.09806,5.9279 30.93035,9.7817 46.83815,12.9493 21.94158,4.3691 44.11663,7.464 66.31482,10.25 15.16767,1.9037 30.35328,3.6643 45.55413,5.2818 65.74287,6.9955 131.75434,11.3113 197.4527,18.7132 59.62442,6.7176 119.09686,15.9844 179.07879,17.5223 17.95399,0.4603 36.36956,0.1478 53.16912,-6.203 8.84011,-3.3418 17.28009,-8.5272 22.69278,-16.2743 3.31529,-4.7452 5.39853,-10.3846 5.70386,-16.1652 0.30533,-5.7805 -1.20662,-11.6826 -4.46889,-16.4644 -3.76753,-5.5223 -9.6543,-9.3287 -15.90582,-11.6971 -6.25151,-2.3683 -12.91237,-3.4191 -19.52629,-4.3921 -12.18012,-1.7918 -24.39462,-3.3693 -36.65317,-4.5068 -17.36689,-1.6115 -34.80191,-2.3383 -52.20983,-3.4199 -25.86469,-1.607 -51.67368,-3.9977 -77.47348,-6.4339 -21.23976,-2.0056 -42.47708,-4.04245 -63.69096,-6.3055 -47.43878,-5.06067 -94.76104,-11.25269 -142.2852,-15.43628 -43.64375,-3.842 -88.12869,-6.12887 -129.3311,-21.02517 -18.28622,-6.61119 -36.01611,-15.89476 -49.4404,-29.96182 -13.17728,-13.80823 -21.57142,-31.57266 -27.11782,-49.83588 -4.54327,-14.96011 -7.31085,-30.40206 -9.53547,-45.87776 -3.17369,-22.07793 -5.26178,-44.30148 -6.77355,-66.55506 -4.04694,-59.57205 -3.96787,-119.34523 -3.16237,-179.04915 0.63244,-46.87666 1.71162,-93.74889 3.5068,-140.59543 3.52812,-92.06894 9.82254,-184.19439 6.1097,-276.25606 -0.93276,-23.12831 -2.49727,-46.23473 -4.91981,-69.25472 C 105.02256,85.066142 102.67442,67.749202 95.638331,52.082416 91.508765,42.887385 85.821231,34.42652 79.150509,26.869842 75.514837,22.751306 71.587182,18.895592 67.481266,15.245674 64.219993,12.346594 60.767548,9.5293414 56.702125,7.9441276 52.45385,6.2876151 47.693237,6.0804309 43.253553,7.1201779 38.813868,8.1599249 34.696306,10.415276 31.257443,13.40962 26.014436,17.974899 22.402218,24.127764 19.518349,30.453441 16.639032,36.769132 14.392599,43.36972 12.75761,50.115477 9.3233836,64.284655 8.6050288,78.958119 8.2190559,93.53243 7.5536715,118.6573 7.8328329,143.81571 9.44534,168.89761 c 1.490501,23.18414 4.117991,46.27814 6.224367,69.41446 2.008405,22.06021 3.543198,44.16117 4.892454,66.27148 3.751401,61.47436 6.069226,123.02632 8.318635,184.57394 2.820946,77.18584 5.534815,154.3756 8.120517,231.56968 1.674469,49.98993 3.30057,100.05476 9.203646,149.72316 3.240707,27.26727 7.780601,54.43846 15.166596,80.88564 4.497761,16.10522 10.270824,32.3229 21.08328,45.07824 10.555752,12.45249 25.243245,20.75869 40.438465,26.72479"
     style="fill:none;stroke:#000000;stroke-width:1.06299213000000004;stroke-linecap:butt;stroke-linejoin:miter;stroke-miterlimit:4;stroke-opacity:1;stroke-dasharray:none" />
  <path
     sodipodi:nodetypes="sssssssssssssssssssssssssssssssssssssss"
     inkscape:connector-curvature="0"
     inkscape:original-d="m 120.93565,1026.4427 c 13.25925,6.1353 27.28499,9.5932 41.66726,12.4855 24.8984,5.0071 50.86531,8.3206 75.77373,12.7116 79.94592,14.0934 161.25051,15.699 241.97434,24.2801 59.05808,6.278 116.90254,19.4585 176.26577,17.6482 20.1326,-0.6139 38.07324,1.4407 55.90441,-7.9267 11.58098,-6.0839 20.48461,-7.6014 24.82322,-19.9428 4.25918,-12.1155 7.78119,-22.1651 0.83441,-32.9664 -7.94965,-12.3606 -26.01848,-15.6506 -40.05093,-20.0176 -11.87945,-3.697 -22.3699,-3.2513 -34.83688,-3.9873 -17.33271,-1.0233 -34.97518,-2.9501 -52.20982,-4.4196 -25.9089,-2.2091 -51.8435,-3.8248 -77.76847,-5.84383 -20.25845,-1.57772 -40.21604,-3.51654 -60.44597,-5.4205 -48.17817,-4.5343 -96.81045,-9.30701 -144.7927,-15.58376 -43.25557,-5.65843 -90.19893,-7.43617 -131.54363,-21.35298 -14.68425,-4.94279 -31.63191,-13.21472 -42.42757,-24.32831 -13.99685,-14.40907 -23.24291,-33.66863 -28.64958,-53.01549 -3.83994,-13.74062 -6.75723,-28.14534 -7.94134,-43.01413 -1.76811,-22.20207 -5.73083,-43.72218 -6.58898,-65.00846 -2.42001,-60.02778 -4.1502,-122.03832 -3.15061,-182.10654 0.78026,-46.88835 2.384,-92.92284 3.7824,-139.79684 2.75851,-92.46432 8.25752,-185.10721 7.4209,-277.60888 -0.20897,-23.10448 -1.12912,-43.2327 -4.25463,-66.12574 C 112.40294,88.123599 112.02207,73.646028 105.12544,57.958966 99.567906,45.317804 98.742085,38.51416 88.772095,28.959866 83.450619,23.860269 78.752755,14.271435 71.914993,11.520248 65.057785,8.7612375 62.604757,3.0594569 55.22711,3.5108435 45.394381,4.1124395 37.372269,4.3370356 29.774187,10.607093 23.867846,15.4811 20.277515,22.989615 16.797884,30.02142 13.936681,35.803476 12.356935,43.593922 10.37842,49.571745 5.5383867,64.195275 6.7256099,77.40881 5.9900531,92.794924 4.7877994,117.94324 5.8443623,143.16491 7.1589848,168.3076 c 2.3825366,45.56699 7.8014492,90.89052 10.7644652,136.42346 3.986955,61.26787 5.527681,122.64735 8.261283,183.98393 3.433117,77.03229 4.75744,154.11401 8.595818,231.12718 2.503253,50.22524 2.747216,100.68146 8.761141,150.60816 3.314196,27.51395 7.650039,55.19845 15.518953,81.77063 4.832598,16.31901 7.580694,28.77216 18.108693,42.14471 11.080729,14.07463 27.509302,24.55463 43.766312,32.07703 z"
     inkscape:path-effect="#path-effect5783"
     id="path5754"
     d="m 120.93565,1026.4427 c 13.40376,5.5777 27.49926,9.317 41.66726,12.4855 25.00253,5.5915 50.36166,9.4531 75.77373,12.7116 80.40949,10.3106 161.48457,14.6161 241.97434,24.2801 58.66306,7.0434 117.18558,16.9451 176.26577,17.6482 18.95642,0.2256 38.41902,-0.6016 55.90441,-7.9267 9.95847,-4.1719 19.29771,-10.6668 24.82322,-19.9428 2.95301,-4.9574 4.74162,-10.632 4.95684,-16.3982 0.21523,-5.7663 -1.16759,-11.6119 -4.12243,-16.5682 -3.95494,-6.6338 -10.52326,-11.4106 -17.63005,-14.4343 -7.10679,-3.0237 -14.78299,-4.438 -22.42088,-5.5833 -11.56043,-1.7335 -23.19787,-2.9001 -34.83688,-3.9873 -17.39,-1.6244 -34.79609,-3.0732 -52.20982,-4.4196 -25.91859,-2.004 -51.85449,-3.7811 -77.76847,-5.84383 -20.16611,-1.60519 -40.31891,-3.38332 -60.44597,-5.4205 -48.29722,-4.88845 -96.44094,-11.26797 -144.7927,-15.58376 -44.37981,-3.96126 -89.59972,-6.32076 -131.54363,-21.35298 -15.46264,-5.54163 -30.58356,-12.94751 -42.42757,-24.32831 -14.66503,-14.09149 -23.35118,-33.3798 -28.64958,-53.01549 -3.80129,-14.08744 -6.02954,-28.54862 -7.94134,-43.01413 -2.85418,-21.59591 -5.01966,-43.28136 -6.58898,-65.00846 -4.37516,-60.57375 -4.11308,-121.38262 -3.15061,-182.10654 0.73879,-46.61134 1.88894,-93.21811 3.7824,-139.79684 3.76095,-92.51854 10.45568,-185.06368 7.4209,-277.60888 -0.72406,-22.08007 -2.00247,-44.1489 -4.25463,-66.12574 C 113.08119,89.101 110.88252,72.978442 105.12544,57.958966 101.1403,47.562242 95.492239,37.837529 88.772095,28.959866 83.877087,22.493303 78.371898,16.427989 71.914993,11.520248 66.957537,7.7522035 61.349087,4.6492311 55.22711,3.5108435 46.273522,1.845915 36.689997,4.6816994 29.774187,10.607093 23.809882,15.717247 19.881873,22.79815 16.797884,30.02142 14.101244,36.337448 11.950661,42.886527 10.37842,49.571745 7.0568634,63.695105 6.3375757,78.290398 5.9900531,92.794924 5.3869264,117.96758 5.8636263,143.16106 7.1589848,168.3076 c 2.3467791,45.55756 7.3766792,90.93146 10.7644652,136.42346 4.55941,61.22485 6.142024,122.62613 8.261283,183.98393 2.661253,77.04988 6.170725,154.06951 8.595818,231.12718 1.5824,50.28096 2.70955,100.66762 8.761141,150.60816 3.340427,27.56675 8.186368,54.98785 15.518953,81.77063 4.060819,14.83243 9.021919,29.73819 18.108693,42.14471 10.821943,14.77563 26.857082,25.04063 43.766312,32.07703"
     style="fill:none;stroke:#000000;stroke-width:1.06299213000000004;stroke-linecap:butt;stroke-linejoin:miter;stroke-miterlimit:4;stroke-opacity:1;stroke-dasharray:none" />
  <path
     sodipodi:nodetypes="ssssssssssssssssssssssssssssssssssssssssss"
     inkscape:connector-curvature="0"
     inkscape:original-d="m 119.05827,1029.0718 c 22.2444,10.2929 46.25257,15.7113 70.57222,19.5798 15.2723,2.4294 30.66745,3.9448 45.82577,6.6171 79.94591,14.0933 160.83329,17.285 241.55712,25.8662 20.86385,2.2179 41.75847,4.7035 62.67558,7.5577 38.29173,5.2249 76.65882,11.5092 115.0504,10.3385 10.17266,-0.3102 19.89223,0.199 29.31968,-0.9243 4.63957,-0.5528 9.20841,-1.2537 13.72569,-2.4026 4.4697,-1.1368 8.8889,-2.7122 13.27625,-5.0171 11.58098,-6.0839 26.11677,-12.2299 30.45538,-24.5713 4.25918,-12.1155 3.60921,-27.5809 -3.33757,-38.3822 -7.94965,-12.3605 -25.60127,-13.9896 -39.63373,-18.3566 -11.87945,-3.697 -24.1862,-3.7708 -36.65317,-4.5069 -17.33272,-1.0232 -34.97519,-1.9504 -52.20983,-3.4199 -25.9089,-2.20905 -51.00911,-3.82479 -76.93409,-5.84381 -20.25845,-1.57772 -40.09381,-3.51654 -60.32375,-5.4205 -48.17817,-4.5343 -96.36795,-9.57671 -144.3502,-15.85346 -43.25557,-5.65843 -87.98641,-7.02961 -129.33111,-20.94642 -14.68424,-4.94279 -30.08965,-10.99785 -40.88531,-22.11145 -13.99685,-14.40907 -23.53028,-33.37346 -28.93694,-52.72032 -3.83995,-13.74062 -6.40106,-28.35396 -7.58517,-43.22275 -1.76811,-22.20206 -3.29646,-44.55656 -4.15461,-65.84284 -2.42001,-60.02778 -3.8373,-120.16094 -2.83772,-180.22916 0.78026,-46.88834 2.14777,-93.09563 3.54617,-139.96963 2.75851,-92.46432 8.80665,-185.14303 7.97003,-277.64468 -0.20896,-23.10448 -1.49134,-47.19607 -4.61685,-70.08912 C 118.92447,84.577425 116.45762,67.179472 109.56099,51.49241 104.00345,38.851248 101.45387,32.299482 91.483876,22.74519 86.1624,17.645592 81.007959,10.351341 74.170197,7.6001548 67.312989,4.841144 62.604757,0.56017269 55.22711,1.0115593 45.394381,1.6131552 34.872985,4.3370356 27.274903,10.607093 21.368561,15.4811 17.982931,21.946622 14.5033,28.978426 11.642097,34.760482 9.8931325,41.925133 7.9146179,47.902956 3.0745846,62.526485 4.2263257,77.40881 3.4907689,92.794924 2.2885152,117.94324 3.3450781,143.16491 4.6597006,168.3076 c 2.3825366,45.56699 6.3018784,90.89052 9.2648944,136.42346 3.986955,61.26787 6.027538,122.64735 8.76114,183.98393 3.433117,77.03229 5.757154,154.11401 9.595532,231.12718 2.503253,50.22524 2.747216,100.68146 8.761141,150.60816 3.314196,27.51395 7.150182,55.19845 15.019096,81.77063 4.832598,16.31901 11.079691,33.77073 21.607691,47.14328 11.080729,14.07466 25.132055,22.18516 41.389075,29.70756 z"
     inkscape:path-effect="#path-effect5240"
     id="path5756"
     d="m 119.05827,1029.0718 c 22.35501,9.9712 46.44346,15.4599 70.57222,19.5798 15.21471,2.5978 30.51356,4.6749 45.82577,6.6171 80.33762,10.1901 161.09866,16.6788 241.55712,25.8662 20.90743,2.3874 41.79362,4.9569 62.67558,7.5577 38.22852,4.7613 76.53295,9.6343 115.0504,10.3385 9.78262,0.1788 19.58787,0.087 29.31968,-0.9243 4.62517,-0.4808 9.24144,-1.1718 13.72569,-2.4026 4.56702,-1.2535 8.96457,-3.0579 13.27625,-5.0171 6.04853,-2.7484 11.98493,-5.8296 17.30541,-9.8084 5.32049,-3.9787 10.02777,-8.8986 13.14997,-14.7629 3.19502,-6.0011 4.64851,-12.9253 4.07873,-19.7 -0.56978,-6.7747 -3.16857,-13.3739 -7.4163,-18.6822 -4.65436,-5.8164 -11.13767,-9.973 -18.04004,-12.775 -6.90236,-2.802 -14.25077,-4.3264 -21.59369,-5.5816 -12.1373,-2.0747 -24.38505,-3.4524 -36.65317,-4.5069 -17.37704,-1.4936 -34.80217,-2.3403 -52.20983,-3.4199 -25.66978,-1.59207 -51.30524,-3.69098 -76.93409,-5.84381 -20.1183,-1.68994 -40.23463,-3.41327 -60.32375,-5.4205 -48.16696,-4.81266 -96.16224,-11.25585 -144.3502,-15.85346 -43.58254,-4.15821 -87.86018,-6.91467 -129.33111,-20.94642 -14.78392,-5.00216 -29.36345,-11.58374 -40.88531,-22.11145 -15.00346,-13.70889 -23.68155,-33.08825 -28.93694,-52.72032 -3.78633,-14.14424 -6.00188,-28.66635 -7.58517,-43.22275 -2.37848,-21.86718 -3.3442,-43.86163 -4.15461,-65.84284 -2.21385,-60.04793 -3.27894,-120.14205 -2.83772,-180.22916 0.34272,-46.67257 1.59418,-93.33663 3.54617,-139.96963 3.87309,-92.52808 10.50583,-185.0703 7.97003,-277.64468 -0.64133,-23.41292 -1.87074,-46.82896 -4.61685,-70.08912 C 119.22622,84.477614 116.33706,67.298218 109.56099,51.49241 105.08283,41.046698 98.940337,31.322368 91.483876,22.74519 86.433395,16.935614 80.738135,11.615218 74.170197,7.6001548 68.414539,4.0816491 61.948777,1.5831146 55.22711,1.0115593 45.132723,0.1532155 34.807049,3.8321255 27.274903,10.607093 21.691453,15.62926 17.661814,22.16514 14.5033,28.978426 11.689579,35.047953 9.5079766,41.405465 7.9146179,47.902956 4.3255638,62.53861 3.7412059,77.727709 3.4907689,92.794924 3.0723379,117.96928 3.539011,143.15472 4.6597006,168.3076 c 2.028848,45.53569 6.1990394,90.94582 9.2648944,136.42346 4.129847,61.26048 6.255322,122.63556 8.76114,183.98393 3.146947,77.04472 6.894702,154.06553 9.595532,231.12718 1.761873,50.27079 3.083097,100.628 8.761141,150.60816 3.131496,27.56453 7.599082,55.0395 15.019096,81.77063 4.656797,16.77644 10.669117,33.59772 21.607691,47.14328 10.770212,13.33706 25.733065,22.72436 41.389075,29.70756"
     style="fill:none;stroke:#000000;stroke-width:1.06299213000000004;stroke-linecap:butt;stroke-linejoin:miter;stroke-miterlimit:4;stroke-opacity:1;stroke-dasharray:none" />
</svg>
