<?xml version="1.0" encoding="UTF-8" standalone="no"?>
<!-- Created with Inkscape (http://www.inkscape.org/) -->

<svg
   xmlns:dc="http://purl.org/dc/elements/1.1/"
   xmlns:cc="http://creativecommons.org/ns#"
   xmlns:rdf="http://www.w3.org/1999/02/22-rdf-syntax-ns#"
   xmlns:svg="http://www.w3.org/2000/svg"
   xmlns="http://www.w3.org/2000/svg"
   xmlns:sodipodi="http://sodipodi.sourceforge.net/DTD/sodipodi-0.dtd"
   xmlns:inkscape="http://www.inkscape.org/namespaces/inkscape"
   id="svg2"
   version="1.1"
   inkscape:version="0.48.2 r9819"
   width="1004.4847"
   height="744.08881"
   xml:space="preserve"
   sodipodi:docname="Ghoul.svg"><metadata
     id="metadata8"><rdf:RDF><cc:Work
         rdf:about=""><dc:format>image/svg+xml</dc:format><dc:type
           rdf:resource="http://purl.org/dc/dcmitype/StillImage" /><dc:title></dc:title></cc:Work></rdf:RDF></metadata><defs
     id="defs6"><inkscape:path-effect
       is_visible="true"
       id="path-effect4007"
       effect="spiro" /><inkscape:path-effect
       is_visible="true"
       id="path-effect4004"
       effect="spiro" /><inkscape:path-effect
       is_visible="true"
       id="path-effect4001"
       effect="spiro" /><inkscape:path-effect
       is_visible="true"
       id="path-effect3998"
       effect="spiro" /><inkscape:path-effect
       effect="spiro"
       id="path-effect3948"
       is_visible="true" /><clipPath
       clipPathUnits="userSpaceOnUse"
       id="clipPath18"><path
         d="m 0,10865.3 14670,0 L 14670,3.16016 0,3.16016 0,10865.3 z"
         id="path20"
         inkscape:connector-curvature="0" /></clipPath><clipPath
       id="clipPath3162"
       clipPathUnits="userSpaceOnUse"><path
         id="path3164"
         d="m 0,10865.3 14670,0 L 14670,3.16016 0,3.16016 0,10865.3 z"
         inkscape:connector-curvature="0" /></clipPath></defs><sodipodi:namedview
     pagecolor="#ffffff"
     bordercolor="#666666"
     borderopacity="1"
     objecttolerance="10"
     gridtolerance="10"
     guidetolerance="10"
     inkscape:pageopacity="0"
     inkscape:pageshadow="2"
     inkscape:window-width="1280"
     inkscape:window-height="752"
     id="namedview4"
     showgrid="false"
     inkscape:zoom="0.49698189"
     inkscape:cx="434.52907"
     inkscape:cy="285.1031"
     inkscape:window-x="0"
     inkscape:window-y="0"
     inkscape:window-maximized="1"
     inkscape:current-layer="g10"
     fit-margin-top="0.5"
     fit-margin-left="0.5"
     fit-margin-right="0.5"
     fit-margin-bottom="0.5" /><g
     id="g10"
     inkscape:groupmode="layer"
     inkscape:label="ink_ext_XXXXXX"
     transform="matrix(1.25,0,0,-1.25,-57.581046,657.64324)"><g
       style="stroke-width:3.06876659000000007;stroke-miterlimit:4;stroke-dasharray:none;stroke:#000000"
       inkscape:label="ink_ext_XXXXXX"
       id="g3154"
       transform="matrix(0.27711253,0,0,0.27711253,46.107012,-69.375814)"><g
         style="stroke-width:15.51833725000000008;stroke-miterlimit:4;stroke-dasharray:none;stroke:#000000"
         transform="scale(0.197751,0.197751)"
         id="g3156"><g
           style="stroke-width:15.51833725000000008;stroke-miterlimit:4;stroke-dasharray:none;stroke:#000000"
           id="g3158"><g
             style="stroke-width:15.51833725000000008;stroke-miterlimit:4;stroke-dasharray:none;stroke:#000000"
             clip-path="url(#clipPath3162)"
             id="g3160" /></g></g></g><path
       style="fill:none;stroke:#000000;stroke-width:1.41732283000000003;stroke-miterlimit:4;stroke-dasharray:none"
       d="m 815.78293,-63.441552 c -6.52099,-3.749789 -14.37368,-5.066756 -21.79149,-3.817675 -7.79764,1.31304 -14.93096,5.325463 -21.08111,10.295661 -6.15016,4.970199 -11.43736,10.90393 -16.8232,16.693579 -6.0424,6.495436 -12.24557,12.844305 -18.69717,18.933483 -10.49549,9.9059 -21.63994,19.1155898 -33.23115,27.7136136 C 666.94263,33.982981 625.16397,55.216057 581.43687,70.548017 566.03683,75.947709 550.3207,80.653398 535.68798,87.878461 521.05526,95.103524 507.34709,105.13305 498.6656,118.9515 c -5.60745,8.92546 -8.91616,19.08115 -11.7979,29.22033 -3.75305,13.20482 -6.87458,26.58094 -9.80482,39.99237 -2.25908,10.33958 -4.40535,20.70361 -6.67988,31.03981 -3.65508,16.60987 -7.6928,33.29521 -15.05938,48.6243 -1.40059,2.91448 -2.9184,5.77262 -4.54855,8.56519 l -3.98238,-8.05638 c -3.63896,-7.36164 -6.47715,-15.08823 -8.7196,-22.98806 -2.18307,-7.69063 -4.33666,-15.39095 -6.27663,-23.14647 -3.0018,-12.00046 -5.48971,-24.12345 -8.37237,-36.15309 -2.87415,-11.99414 -6.13949,-23.89044 -9.22042,-35.83314 -2.52033,-9.76965 -4.94927,-19.65914 -9.42044,-28.70386 C 398.88313,109.5772 389.42346,99.398838 377.85371,92.810711 370.19662,88.450558 361.75954,85.68534 353.4861,82.653503 339.57619,77.556159 325.98401,71.639153 312.31297,65.93202 287.55734,55.597495 262.43914,45.903781 238.99253,32.869217 223.32286,24.158053 208.49475,14.004575 194.10846,3.3060904 183.83499,-4.3338574 173.7727,-12.260676 164.01144,-20.545042 c -9.44097,-8.012538 -18.59791,-16.35749 -27.51275,-24.951577 -8.16082,-7.867193 -16.44477,-16.159561 -27.01565,-20.252017 -7.36834,-2.852609 -15.680958,-3.451863 -23.241389,-1.156296 -6.289977,1.90982 -11.893338,5.741686 -16.465599,10.464573 -4.572261,4.722887 -8.160954,10.32037 -11.178215,16.160521 -7.165031,13.868491 -11.23232,29.347112 -11.641645,44.9517634 -0.251082,9.5719676 0.876526,19.2385696 3.997212,28.2910226 2.100184,6.092191 5.133609,11.931861 9.458356,16.709112 5.098596,5.632068 11.823929,9.601827 18.896604,12.375477 7.072676,2.77365 14.529581,4.41716 21.965446,5.974009 15.23829,3.190444 30.54127,6.062824 45.79987,9.15467 20.80708,4.216134 41.57445,8.852112 61.72682,15.529849 48.07623,15.930655 92.90957,44.226155 123.28539,84.752925 26.85465,35.8289 41.32038,79.32299 52.62054,122.64953 7.34297,28.15406 13.53989,56.6183 18.10769,85.3534 5.49523,34.56937 8.64124,69.56691 16.58513,103.65699 1.77608,7.62179 3.84163,15.31218 7.92019,21.99136 2.03929,3.33958 4.57796,6.39784 7.6443,8.82871 3.06633,2.43087 6.67244,4.22192 10.51532,4.95937 4.13361,0.79325 8.4669,0.34827 12.43568,-1.05342 3.96878,-1.40169 7.57791,-3.73956 10.64469,-6.6224 6.13358,-5.76569 10.01427,-13.54918 12.73147,-21.51666 3.0249,-8.86974 4.75279,-18.12535 6.21339,-27.38218 3.64109,-23.07612 5.68056,-46.37869 9.13917,-69.48286 4.70084,-31.40251 12.00969,-62.35169 19.67197,-93.16573 8.92636,-35.89757 18.55171,-72.1853 37.19213,-104.13604 11.53932,-19.77905 26.40835,-37.58911 43.66218,-52.64475 22.40198,-19.5479 48.57537,-34.3133 75.44051,-47.05038 13.45918,-6.381159 27.16381,-12.297488 41.30936,-16.963542 18.98389,-6.262029 38.64469,-10.23463 58.35238,-13.582488 9.37022,-1.591774 18.76625,-3.04614 28.08608,-4.910459 7.16209,-1.432689 14.34135,-3.129401 20.93524,-6.270854 9.68543,-4.61432 17.92601,-12.454923 22.38823,-22.21136 2.99485,-6.548088 4.25612,-13.765825 4.78354,-20.946938 1.09777,-14.946735 -0.91073,-30.155759 -6.22054,-44.170603 -3.10463,-8.194422 -7.32578,-15.969191 -12.5535,-23.001845 -3.84411,-5.171342 -8.32219,-10.015302 -13.90811,-13.227393"
       id="path3088"
       inkscape:connector-curvature="0"
       sodipodi:nodetypes="ssssssssssscsssssssssssssssssssssssssssssssssssssssssss"
       inkscape:path-effect="#path-effect4007"
       inkscape:original-d="m 815.78293,-63.441552 c -7.99425,-5.800091 -13.67373,-5.819627 -21.79149,-3.817675 -14.38422,3.547348 -28.07139,16.22598 -37.90431,26.98924 -5.98478,6.551027 -12.22618,12.861303 -18.69717,18.933483 -10.50994,9.862152 -21.62553,19.0962342 -33.23115,27.7136136 C 667.00747,33.962675 624.83499,55.228665 581.43687,70.548017 551.30149,81.185674 516.68581,89.673162 498.6656,118.9515 c -5.5568,9.02842 -8.86006,18.94171 -11.7979,29.22033 -3.74304,13.09591 -6.61656,26.78487 -9.80482,39.99237 -2.04623,8.4766 -4.63859,19.60555 -6.67988,31.03981 -3.37653,18.91341 -6.78482,38.66216 -15.05938,48.6243 -3.20572,3.85954 1.30814,8.62641 -4.54855,8.56519 l -3.98238,-8.05638 c -2.83922,-5.74371 -6.01415,-14.50091 -8.7196,-22.98806 -2.23774,-7.01993 -5.05528,-14.38369 -6.27663,-23.14647 -1.84288,-13.22222 -5.44872,-25.88768 -8.37237,-36.15309 -2.766,-9.71188 -6.67586,-25.22897 -9.22042,-35.83314 -2.69838,-11.24502 -5.24552,-19.756 -9.42044,-28.70386 C 399.54331,110.28208 391.73921,99.361424 377.85371,92.810711 369.81595,89.018767 361.67907,85.987128 353.4861,82.653503 339.85097,77.105533 326.06047,71.505812 312.31297,65.93202 287.33413,55.804583 262.4973,45.600906 238.99253,32.869217 223.3215,24.380778 208.24258,14.768609 194.10846,3.3060904 184.25429,-4.6854637 174.96392,-11.978157 164.01144,-20.545042 c -9.81521,-7.677323 -18.63838,-16.622022 -27.51275,-24.951577 -8.55913,-8.033664 -15.80482,-15.051731 -27.01565,-20.252017 -7.87901,-3.654775 -15.862198,-3.891949 -23.241389,-1.156296 -11.648006,4.318211 -21.791056,14.9389 -27.643814,26.625094 -6.548855,13.07609 -10.905575,29.120022 -11.641645,44.9517634 -0.448886,9.6548636 0.770897,19.3880366 3.997212,28.2910226 2.191602,6.047704 5.309087,11.71233 9.458356,16.709112 10.879679,13.101917 24.645299,15.354706 40.86205,18.349486 14.97533,2.765522 31.34998,6.177395 45.79987,9.15467 20.70866,4.26684 41.52878,8.424229 61.72682,15.529849 47.83066,16.826705 92.17284,44.500885 123.28539,84.752925 27.87334,36.06129 40.54832,80.57811 52.62054,122.64953 8.08129,28.16311 13.28577,56.67976 18.10769,85.3534 5.79149,34.43929 10.39147,69.10513 16.58513,103.65699 3.22715,18.00295 4.19601,41.64056 26.07981,35.77944 15.00188,-4.01794 28.54132,-14.75289 35.81184,-29.19248 4.22618,-8.39337 4.97672,-19.60485 6.21339,-27.38218 3.68651,-23.18423 5.76735,-46.3878 9.13917,-69.48286 4.57878,-31.36205 10.78973,-62.52399 19.67197,-93.16573 10.14035,-34.98202 19.52604,-71.95005 37.19213,-104.13604 10.75789,-19.59984 26.31003,-37.59079 43.66218,-52.64475 21.68893,-18.81635 47.96688,-34.31514 75.44051,-47.05038 13.61381,-6.310619 27.52123,-11.942662 41.30936,-16.963542 18.73577,-6.822544 38.65656,-10.401516 58.35238,-13.582488 9.46617,-1.52883 18.88037,-2.888871 28.08608,-4.910459 7.12764,-1.565234 14.13024,-3.527052 20.93524,-6.270854 12.37067,-4.987912 18.24354,-11.089767 22.38823,-22.21136 2.32885,-6.249037 4.18936,-13.442196 4.78354,-20.946938 1.20314,-15.1965855 -1.41153,-31.670762 -6.22054,-44.170603 -3.06192,-7.958725 -7.0649,-15.991514 -12.5535,-23.001845 -3.98297,-5.087246 -8.95819,-9.636055 -13.90811,-13.227393 z" /><path
       inkscape:original-d="m 823.57023,-16.128404 c -7.99425,-5.80009 0.30303,-6.884895 -7.81474,-4.882944 -14.38421,3.547348 -8.5153,-5.734483 -18.34823,5.028777 -5.98477,6.551026 -19.48084,10.0225144 -25.95183,16.09469284 C 760.94549,9.9742741 736.26679,21.258593 724.66118,29.875972 687.50984,57.461538 631.30114,70.842008 587.90301,86.161357 c -10.87716,3.839591 -21.45452,7.890048 -31.37878,10.042253 -17.57112,3.81052 -33.09502,6.40302 -44.61096,25.11354 -5.5568,9.02842 -13.59137,17.04919 -16.52921,27.32781 -3.74304,13.09591 -7.2474,24.73463 -10.43567,37.94214 -2.04622,8.4766 -4.79629,19.92096 -6.83758,31.35523 -3.37653,18.91339 -15.65229,39.49086 -14.74394,52.40934 0.3319,4.72045 -2.80133,10.41436 -5.93597,14.38896 -1.91197,2.42424 -2.98916,4.20887 -5.70957,4.74284 -2.90955,0.5711 -4.99709,-3.00856 -6.77579,-6.84266 -2.26257,-4.87712 -4.71718,-10.80431 -4.71718,-10.80431 -3.36243,-5.45394 -5.09765,-15.95005 -7.8031,-24.4372 -2.23774,-7.01992 -4.92731,-15.32996 -6.14866,-24.09274 -1.84288,-13.22222 -7.34126,-27.62249 -10.26491,-37.8879 -2.766,-9.71188 -5.25646,-24.59813 -7.80102,-35.2023 -2.69838,-11.24502 -6.50721,-18.3366 -10.68213,-27.28446 -5.23993,-11.23042 -5.63162,-14.58098 -19.51712,-21.13169 -8.03776,-3.791946 -17.1209,-8.873821 -25.31387,-12.207446 C 339.06242,84.044793 326.06047,78.287362 312.31297,72.713571 287.33413,62.586133 262.4973,50.805353 238.99253,38.073665 223.3215,29.585226 208.08487,20.288477 193.95075,8.8259586 184.09658,0.83440457 173.54452,-7.0891322 162.59204,-15.656016 c -9.8152,-7.677324 -21.00403,-16.779733 -29.8784,-25.109288 -8.55913,-8.033664 -12.96603,-14.420889 -24.17686,-19.621175 -7.87901,-3.654775 -12.707991,-3.261107 -20.087182,-0.525454 -11.648007,4.318211 -10.59361,10.207584 -16.446368,21.893779 -6.548856,13.07609 1.711264,11.141026 0.975195,26.972767 -0.448886,9.654864 7.552447,14.1835894 10.778763,23.086575 2.1916,6.047704 18.241342,9.819804 22.390612,14.816586 10.87968,13.101917 -8.316191,0.372209 7.90056,3.366989 14.97533,2.765522 26.30324,12.012684 40.75314,14.989959 20.70865,4.26684 44.36756,18.517702 64.56561,25.623321 47.83065,16.826703 94.53849,55.225207 125.65104,95.477237 27.87334,36.06129 41.49458,91.61786 53.56679,133.68927 8.0813,28.16312 13.2858,55.26037 18.1077,83.93401 3.737,22.22215 8.4102,56.13067 12.1362,78.17045 2.04847,12.11689 3.04034,12.28321 5.23748,24.54026 3.22717,18.00294 -13.69374,12.87775 8.19009,7.01662 10.3412,-2.76965 6.77446,-1.73342 6.76811,-5.55192 -0.003,-1.72095 1.33408,-4.42801 3.59282,-8.91396 4.22616,-8.39338 4.66128,-9.8268 5.89795,-17.60413 3.68652,-23.18423 11.09977,-45.28384 14.4716,-68.3789 4.57878,-31.36204 15.93466,-62.05084 24.81689,-92.69259 10.14035,-34.98202 29.99444,-69.42669 47.66053,-101.61267 10.7579,-19.59984 29.46427,-41.37585 46.81642,-56.4298 21.68893,-18.81635 50.1748,-33.36888 77.64842,-46.104125 13.61382,-6.310614 29.09837,-12.258078 42.88649,-17.278958 18.73578,-6.822544 38.34113,-11.19007 58.03696,-14.371042 9.46616,-1.52883 18.72266,-3.835132 27.92837,-5.856721 7.12764,-1.565234 14.13024,-4.788737 20.93524,-7.532539 12.37066,-4.987912 8.30778,-2.5734 12.45247,-13.694993 2.32885,-6.249037 12.23321,-18.935905 5.00074,-16.846466 -19.67854,5.685089 2.52114,-11.1298641 -1.07558,-15.940424 -4.61603,-6.1738621 -0.8468,-11.3750232 -12.52361,-19.985056 z"
       inkscape:path-effect="#path-effect4004"
       sodipodi:nodetypes="csssssssssssssssssssssssssssssssssssssssssssssssssssssssssc"
       inkscape:connector-curvature="0"
       id="path3950"
       d="m 823.57023,-16.128404 c -2.27694,-2.105399 -4.82871,-4.045804 -7.81474,-4.882944 -3.14439,-0.881537 -6.54076,-0.459719 -9.62776,0.605488 -3.08701,1.065208 -5.91993,2.743639 -8.72047,4.423289 -8.72982,5.235783 -17.38502,10.5962521 -25.95183,16.09469284 C 755.8966,10.098254 740.62121,20.544431 724.66118,29.875972 682.01133,54.81257 635.06729,71.45169 587.90301,86.161357 c -10.48459,3.26995 -20.99917,6.452974 -31.37878,10.042253 -16.28852,5.63259 -32.75058,12.6086 -44.61096,25.11354 -7.37194,7.77258 -12.61693,17.35522 -16.52921,27.32781 -4.79598,12.22516 -7.68124,25.102 -10.43567,37.94214 -2.24376,10.45957 -4.41305,20.93607 -6.83758,31.35523 -4.11468,17.68237 -8.96517,35.19881 -14.74394,52.40934 -1.65402,4.92604 -3.3967,9.85533 -5.93597,14.38896 -0.63298,1.13014 -1.32522,2.24704 -2.26263,3.14098 -0.93741,0.89395 -2.15248,1.55435 -3.44694,1.60186 -0.85768,0.0315 -1.7148,-0.20799 -2.46557,-0.62387 -0.75078,-0.41588 -1.39845,-1.00337 -1.9385,-1.67042 -1.0801,-1.33411 -1.72493,-2.95837 -2.37172,-4.54837 -1.48089,-3.64047 -3.05396,-7.24345 -4.71718,-10.80431 -2.94286,-8.03127 -5.54698,-16.18665 -7.8031,-24.4372 -2.18623,-7.99495 -4.04495,-16.07568 -6.14866,-24.09274 -3.32124,-12.65695 -7.25274,-25.15385 -10.26491,-37.8879 -2.76688,-11.6971 -4.7534,-23.57519 -7.80102,-35.2023 -2.48443,-9.47846 -5.70383,-18.84466 -10.68213,-27.28446 -4.91083,-8.32542 -11.53614,-15.67891 -19.51712,-21.13169 C 370.25981,96.504148 361.41198,93.084798 352.69755,89.592764 339.15408,84.165648 325.72621,78.455014 312.31297,72.713571 287.45092,62.071541 262.58339,51.296585 238.99253,38.073665 223.36613,29.31491 208.33677,19.500343 193.95075,8.8259586 183.30053,0.92352992 173.00691,-7.4459043 162.59204,-15.656016 c -10.22222,-8.058239 -20.5914,-15.988947 -29.8784,-25.109288 -7.45783,-7.324 -14.5193,-15.622206 -24.17686,-19.621175 -6.34958,-2.629213 -13.730575,-3.137639 -20.087182,-0.525454 -4.390869,1.804384 -8.136024,5.018432 -10.888427,8.886224 -2.752403,3.867792 -4.541322,8.370528 -5.557941,13.007555 -1.942992,8.862421 -1.104945,18.14153 0.975195,26.972767 1.966719,8.3497094 5.141323,16.6209036 10.778763,23.086575 5.929564,6.800713 14.151235,11.139345 22.390612,14.816586 2.61427,1.166752 5.25096,2.282865 7.90056,3.366989 13.39762,5.481832 27.11361,10.141263 40.75314,14.989959 21.82404,7.758192 43.49011,16.015949 64.56561,25.623321 48.41662,22.07096 94.62809,52.246777 125.65104,95.477237 28.16884,39.25326 42.13764,86.74593 53.56679,133.68927 6.77145,27.81261 12.82514,55.8006 18.1077,83.93401 4.8672,25.92132 9.08079,51.97372 12.1362,78.17045 0.97284,8.34101 1.86765,16.8485 5.23748,24.54026 0.76973,1.75692 1.68596,3.48887 3.04659,4.84088 0.68032,0.67601 1.46856,1.24993 2.3446,1.64028 0.87604,0.39036 1.84159,0.59361 2.7989,0.53546 1.52294,-0.0925 2.95435,-0.8433 4.07803,-1.87541 1.12368,-1.0321 1.96715,-2.33291 2.69008,-3.67651 1.51974,-2.82451 2.55168,-5.88023 3.59282,-8.91396 2.00897,-5.8538 4.07906,-11.68851 5.89795,-17.60413 6.85132,-22.28269 10.07488,-45.48506 14.4716,-68.3789 6.03779,-31.43891 14.32775,-62.44631 24.81689,-92.69259 12.28487,-35.4244 27.64483,-69.90813 47.66053,-101.61267 13.09478,-20.74192 28.27402,-40.37117 46.81642,-56.4298 22.83569,-19.77683 50.13686,-33.62592 77.64842,-46.104125 14.04275,-6.369261 28.24442,-12.444062 42.88649,-17.278958 18.93644,-6.252923 38.49517,-10.395345 58.03696,-14.371042 9.32121,-1.896362 18.65063,-3.757945 27.92837,-5.856721 7.27237,-1.64513 14.664,-3.499497 20.93524,-7.532539 5.24589,-3.373643 9.51441,-8.193295 12.45247,-13.694993 2.77649,-5.199147 4.38034,-10.985143 5.00074,-16.846466 0.56377,-5.326249 0.32086,-10.7696692 -1.07558,-15.940424 -2.07687,-7.6902362 -6.67498,-14.577044 -12.52361,-19.985056"
       style="fill:none;stroke:#000000;stroke-width:1.41732283000000003;stroke-miterlimit:4;stroke-dasharray:none" /><path
       inkscape:original-d="m 811.05162,-38.523294 c -7.99425,-5.800091 -12.09663,6.166371 -20.21439,8.168323 -14.38422,3.547347 -15.76997,6.76335 -25.6029,17.526611 -5.98477,6.5510262 -14.43412,9.3916707 -20.90512,15.4638519 C 733.81928,12.497644 719.23407,18.577515 707.62846,27.194895 670.47712,54.780461 625.1504,64.060452 581.75228,79.379804 551.6169,90.017461 520.47087,90.304003 502.45066,119.58234 c -5.5568,9.02842 -9.49092,18.31087 -12.42875,28.58949 -3.74304,13.09591 -6.67606,26.78487 -9.86432,39.99237 -2.04623,8.4766 -4.8945,19.92097 -6.93579,31.35523 -3.37654,18.9134 -7.41567,39.60844 -15.69023,49.57058 -3.20572,3.85954 -1.34319,12.24189 -7.19988,12.18067 l -6.3778,-12.30271 c -2.94881,-5.68824 -6.32955,-16.39345 -9.035,-24.88061 -2.23774,-7.01992 -4.42444,-13.12199 -5.64578,-21.88477 -1.84289,-13.22222 -5.76417,-26.04539 -8.68781,-36.3108 -2.766,-9.71188 -6.04502,-25.07126 -8.58958,-35.67543 -2.69838,-11.24502 -6.03407,-19.12516 -10.20899,-28.07302 C 396.54681,110.91293 390.16211,102.0425 376.27661,95.491788 368.23885,91.699844 358.68257,87.721944 350.4896,84.388319 336.85447,78.840349 322.90626,73.082917 309.15875,67.509126 284.17991,57.381688 262.4973,45.600906 238.99253,32.869217 223.3215,24.380778 208.24258,14.768609 194.10846,3.3060904 184.25429,-4.6854637 174.96392,-11.978157 164.01144,-20.545042 c -9.81521,-7.677323 -18.63838,-16.622022 -27.51275,-24.951577 -8.55913,-8.033664 -15.80482,-15.051731 -27.01565,-20.252017 -7.87901,-3.654775 -15.862198,-3.005189 -23.241389,-0.269536 -11.648006,4.318211 -16.428899,13.105876 -22.281657,24.792071 -6.548855,13.07609 -2.389208,15.872341 -3.125278,31.7040815 -0.448887,9.65486382 -0.285419,5.5095125 2.940896,14.412498 2.191602,6.0477035 5.309085,11.7123305 9.458355,16.7091125 10.879679,13.101916 22.862826,17.878076 39.079583,20.872856 14.97533,2.765522 25.98782,9.331603 40.43771,12.308878 20.70866,4.26684 48.46804,19.463966 68.66608,26.569586 47.83066,16.826702 87.44153,52.070989 118.55406,92.323029 27.87334,36.06129 39.28666,84.04775 51.35888,126.11917 8.08129,28.16311 13.91664,55.41807 18.73854,84.09171 3.72373,22.14331 6.17251,44.38029 9.09273,66.6204 1.62158,12.34974 3.38853,24.70042 5.59986,37.03659 2.63182,14.68192 0.61796,20.93055 11.18961,21.65196 2.39131,0.16317 4.22943,5.43063 8.26635,4.34942 15.00187,-4.01794 10.87775,-6.55194 18.14826,-20.99152 4.22619,-8.39338 7.81552,-26.54411 9.05219,-34.32144 3.68651,-23.18423 10.49866,-46.0724 13.87048,-69.16746 4.57879,-31.36204 15.83648,-58.73893 24.71871,-89.38067 10.14036,-34.98203 22.99566,-66.5879 40.66175,-98.77388 10.7579,-19.59984 27.57173,-40.42958 44.92388,-55.48354 21.68893,-18.81635 49.22857,-34.31514 76.7022,-47.050386 13.61381,-6.310615 27.52123,-11.627238 41.30936,-16.648118 18.73577,-6.822543 38.02571,-11.34778 57.72154,-14.528749 9.46616,-1.52883 16.41434,-29.556288 29.03233,-4.279618 3.25931,6.529165 13.81484,-4.788734 20.61983,-7.532536 12.37067,-4.987912 14.14305,-7.620138 18.28774,-18.741731 2.32885,-6.249037 4.18936,-13.126773 4.78354,-20.631515 1.20314,-15.19658524 -3.30404,-20.9464486 -8.11305,-33.446291 -3.06193,-7.958724 -7.69575,-9.367672 -13.18435,-16.378004 -3.98296,-5.087246 -6.75024,-1.119688 -11.70016,-4.711026 z"
       inkscape:path-effect="#path-effect4001"
       sodipodi:nodetypes="ssssssssssscsssssssssssssssssssssssssssssssssssssssssssss"
       inkscape:connector-curvature="0"
       id="path3971"
       d="m 811.05162,-38.523294 c -3.69839,-0.226978 -7.38618,0.802102 -10.73802,2.381591 -3.35183,1.57949 -6.41577,3.698109 -9.47637,5.786732 -8.54305,5.829974 -17.19436,11.504262 -25.6029,17.526611 -7.04682,5.0470597 -13.91778,10.3347529 -20.90512,15.4638519 -11.87038,8.7135301 -24.08095,16.9717591 -36.70075,24.5594031 -39.05487,23.481716 -81.85379,40.407677 -125.87618,52.184909 -14.64385,3.917644 -29.51047,7.299669 -43.47826,13.189591 -13.96779,5.889922 -27.19019,14.552655 -35.82336,27.012945 -5.94398,8.57896 -9.47331,18.57975 -12.42875,28.58949 -3.88886,13.17113 -6.90069,26.58272 -9.86432,39.99237 -2.31001,10.45218 -4.5926,20.91044 -6.93579,31.35523 -3.80417,16.95715 -7.83566,34.06824 -15.69023,49.57058 -2.13319,4.21022 -4.53989,8.28184 -7.19988,12.18067 l -6.3778,-12.30271 c -2.03755,-3.93042 -3.9775,-7.92296 -5.44908,-12.09839 -1.47158,-4.17544 -2.51846,-8.48567 -3.58592,-12.78222 -1.81652,-7.31152 -3.77963,-14.58576 -5.64578,-21.88477 -3.08281,-12.05769 -5.90061,-24.18137 -8.68781,-36.3108 -2.73944,-11.92157 -5.45033,-23.85285 -8.58958,-35.67543 -2.56168,-9.64742 -5.44196,-19.30317 -10.20899,-28.07302 -5.94405,-10.9352 -14.81205,-20.29061 -25.51012,-26.651552 C 368.22021,90.701553 359.2786,87.64492 350.4896,84.388319 336.53326,79.217054 322.79857,73.465353 309.15875,67.509126 285.2416,57.064998 261.56567,45.967446 238.99253,32.869217 223.48934,23.873375 208.53182,13.947553 194.10846,3.3060904 183.80593,-4.2950475 173.7742,-12.262056 164.01144,-20.545042 c -9.44247,-8.011239 -18.6346,-16.319162 -27.51275,-24.951577 -8.13353,-7.908405 -16.37052,-16.330494 -27.01565,-20.252017 -7.42483,-2.735208 -15.825848,-3.029829 -23.241389,-0.269536 -5.376974,2.001475 -10.122317,5.541328 -13.863162,9.891481 -3.740844,4.350153 -6.500678,9.493213 -8.418495,14.90059 -3.57934,10.092123 -4.246058,21.054834 -3.125278,31.7040815 0.514187,4.8856145 1.400248,9.74773444 2.940896,14.412498 2.021022,6.1192335 5.184632,11.8857485 9.458355,16.7091125 4.961355,5.599432 11.31683,9.831078 18.053986,13.083679 6.737156,3.252601 13.880737,5.571155 21.025597,7.789177 13.45651,4.177384 27.0114,8.035407 40.43771,12.308878 23.40271,7.448868 46.41957,16.164537 68.66608,26.569586 45.88483,21.461069 89.2791,50.983309 118.55406,92.323029 26.38311,37.25609 39.89828,81.92936 51.35888,126.11917 7.21146,27.80597 13.78287,55.79651 18.73854,84.09171 3.86731,22.08099 6.74687,44.32638 9.09273,66.6204 1.30792,12.42986 2.46099,24.93868 5.59986,37.03659 2.06823,7.97142 5.18393,16.01699 11.18961,21.65196 2.30947,2.16692 5.12242,3.96873 8.26635,4.34942 2.52134,0.3053 5.11233,-0.33899 7.31651,-1.60072 2.20418,-1.26174 4.03494,-3.11665 5.46367,-5.21644 2.85745,-4.19958 4.10405,-9.25463 5.36808,-14.17436 2.94437,-11.45979 6.26185,-22.82317 9.05219,-34.32144 5.54606,-22.85389 8.99124,-46.16198 13.87048,-69.16746 6.41623,-30.25234 15.3,-59.9246 24.71871,-89.38067 10.86731,-33.98645 22.58329,-68.01113 40.66175,-98.77388 12.10654,-20.60078 27.05077,-39.6244 44.92388,-55.48354 22.52155,-19.98379 49.27682,-34.62379 76.7022,-47.050386 13.52721,-6.129256 27.28393,-11.765439 41.30936,-16.648118 18.76697,-6.533354 38.0492,-11.7211 57.72154,-14.528749 9.68707,-1.382545 19.47286,-2.189801 29.03233,-4.279618 7.17674,-1.568924 14.24611,-3.879749 20.61983,-7.532536 7.68219,-4.402675 14.31145,-10.830429 18.28774,-18.741731 3.19639,-6.359612 4.61745,-13.515756 4.78354,-20.631515 0.27056,-11.5917446 -2.74327,-23.1697569 -8.11305,-33.446291 -3.27373,-6.265173 -7.50539,-12.168599 -13.18435,-16.378004 -3.42525,-2.538887 -7.44457,-4.449852 -11.70016,-4.711026"
       style="fill:none;stroke:#000000;stroke-width:0.85039365000000000;stroke-miterlimit:4;stroke-dasharray:none" /><path
       inkscape:original-d="m 814.83667,-52.086396 c -7.99425,-5.800091 -6.26133,-4.242523 -14.37909,-2.240571 -5.86844,1.447242 -9.80879,4.520604 -13.83213,7.262833 -5.83831,3.979279 -11.15391,8.307589 -16.97522,14.679672 -5.98477,6.551023 -19.32314,16.173223 -25.79413,22.245402 -10.50994,9.86215187 -27.77626,18.9385239 -39.38188,27.555903 -37.15134,27.585566 -79.16609,40.019769 -122.56421,55.33912 -30.13538,10.637658 -65.2242,16.917199 -83.24441,46.195537 -5.5568,9.02842 -8.86006,18.94171 -11.7979,29.22033 -3.74304,13.09591 -6.61656,26.78487 -9.80482,39.99237 -2.04623,8.4766 -4.63859,19.60555 -6.67988,31.03981 -3.37653,18.91341 -6.78482,38.66216 -15.05938,48.6243 -3.20572,3.85954 1.30814,8.62641 -4.54855,8.56519 l -3.98238,-8.05638 c -2.83922,-5.74371 -6.01415,-14.50091 -8.7196,-22.98806 -2.23774,-7.01993 -5.05528,-14.38369 -6.27663,-23.14647 -1.84288,-13.22222 -5.44872,-25.88768 -8.37237,-36.15309 -2.766,-9.71188 -6.67586,-25.22897 -9.22042,-35.83314 -2.69838,-11.24502 -5.24552,-19.756 -9.42044,-28.70386 C 399.54331,110.28208 391.73921,99.361424 377.85371,92.810711 369.81595,89.018767 361.67907,85.987128 353.4861,82.653503 339.85097,77.105533 326.06047,71.505812 312.31297,65.93202 287.33413,55.804583 262.4973,45.600906 238.99253,32.869217 223.3215,24.380778 208.24258,14.768609 194.10846,3.3060904 184.25429,-4.6854637 174.96392,-11.978157 164.01144,-20.545042 c -9.81521,-7.677323 -18.63838,-16.622022 -27.51275,-24.951577 -8.55913,-8.033664 -15.80482,-15.051731 -27.01565,-20.252017 -7.87901,-3.654775 -15.862198,-3.891949 -23.241389,-1.156296 -11.648006,4.318211 -21.791056,14.9389 -27.643814,26.625094 -6.548855,13.07609 -4.597155,28.646892 -5.333225,44.4786325 -0.448886,9.6548635 3.294265,11.9756425 6.52058,20.8786275 2.191602,6.047704 6.728481,7.611858 10.87775,12.60864 10.879679,13.101916 16.128933,10.781102 32.345688,13.775882 14.97533,2.765522 37.02755,11.539553 51.47745,14.516828 20.70865,4.26684 40.10938,14.732646 60.30742,21.838268 17.31521,6.091447 33.01267,14.4703 48.4767,23.98808 27.25301,16.77364 52.12043,38.08098 71.9699,63.76134 27.87333,36.06129 39.61101,82.47064 51.68323,124.54206 8.08129,28.16311 14.17253,56.67976 18.99445,85.3534 5.79149,34.43929 9.50472,69.10513 15.69837,103.65699 3.22715,18.00295 1.97911,37.65014 23.86291,31.78902 15.00188,-4.01794 22.86375,-13.28583 30.13427,-27.72542 4.22619,-8.39337 4.66128,-18.34318 5.89795,-26.12051 3.68652,-23.18423 7.8176,-46.23008 11.18942,-69.32513 4.57879,-31.36205 12.99769,-61.89317 21.87992,-92.53491 10.14035,-34.98203 21.26085,-71.47691 38.92694,-103.6629 10.75789,-19.59984 26.31003,-37.59079 43.66218,-52.64475 21.68893,-18.81635 47.96688,-34.31514 75.44051,-47.05038 13.61381,-6.310619 27.52123,-11.942662 41.30936,-16.963542 18.73577,-6.822544 38.65656,-10.401516 58.35238,-13.582488 9.46617,-1.52883 18.88037,-2.888871 28.08608,-4.910459 7.12764,-1.565234 14.13024,-3.527052 20.93524,-6.270854 12.37067,-4.987912 18.24354,-11.089767 22.38823,-22.21136 2.32885,-6.249037 2.85922,-13.442196 3.4534,-20.946938 1.20314,-15.1965855 -3.3933,-30.882211 -8.20231,-43.382051 -3.06192,-7.958724 -8.642,-12.364172 -14.1306,-19.374504 -3.98297,-5.087245 -5.01543,-2.696793 -9.96536,-6.28813 z"
       inkscape:path-effect="#path-effect3998"
       sodipodi:nodetypes="sssssssssssscssssssssssssssssssssssssssssssssssssssssssss"
       inkscape:connector-curvature="0"
       id="path3973"
       d="m 814.83667,-52.086396 c -4.50363,-1.989567 -9.53331,-3.112057 -14.37909,-2.240571 -5.17809,0.93125 -9.68631,4.023705 -13.83213,7.262833 -5.89622,4.606717 -11.4236,9.663021 -16.97522,14.679672 -8.42533,7.613441 -16.9263,15.152292 -25.79413,22.245402 -12.51927,10.01377835 -25.74868,19.1212311 -39.38188,27.555903 -38.22202,23.647436 -79.64164,42.005823 -122.56421,55.33912 -15.50253,4.815643 -31.28162,9.010118 -46.00127,15.854878 -14.71964,6.844761 -28.54034,16.637379 -37.24314,30.340659 -5.65192,8.89942 -8.93045,19.0753 -11.7979,29.22033 -3.73379,13.21014 -6.86995,26.58209 -9.80482,39.99237 -2.26267,10.3388 -4.40649,20.70336 -6.67988,31.03981 -3.65325,16.61031 -7.69256,33.29529 -15.05938,48.6243 -1.40063,2.91446 -2.91845,5.77259 -4.54855,8.56519 l -3.98238,-8.05638 c -3.63896,-7.36164 -6.47715,-15.08823 -8.7196,-22.98806 -2.18307,-7.69063 -4.33666,-15.39095 -6.27663,-23.14647 -3.0018,-12.00046 -5.48971,-24.12345 -8.37237,-36.15309 -2.87415,-11.99414 -6.13949,-23.89044 -9.22042,-35.83314 -2.52033,-9.76965 -4.94927,-19.65914 -9.42044,-28.70386 C 398.88313,109.5772 389.42345,99.398842 377.85371,92.810711 370.19663,88.450555 361.75955,85.68533 353.4861,82.653503 339.57618,77.556176 325.98397,71.639234 312.31297,65.93202 287.55741,55.597352 262.43954,45.903046 238.99253,32.869217 223.32257,24.158528 208.4937,14.006024 194.10846,3.3060904 183.83578,-4.3348645 173.77532,-12.263814 164.01144,-20.545042 c -9.4436,-8.009584 -18.60782,-16.347083 -27.51275,-24.951577 -8.15332,-7.878246 -16.42559,-16.203047 -27.01565,-20.252017 -7.37312,-2.819015 -15.658743,-3.350191 -23.241389,-1.156296 -6.345397,1.835921 -12.084503,5.520276 -16.73326,10.21322 -4.648758,4.692944 -8.235607,10.372062 -10.910554,16.411874 -6.126448,13.833019 -7.472577,29.501685 -5.333225,44.4786325 1.037098,7.2604035 2.905677,14.4972865 6.52058,20.8786275 2.753166,4.860128 6.490813,9.15096 10.87775,12.60864 9.269346,7.30588 20.963294,10.655341 32.345688,13.775882 17.19473,4.714021 34.4348,9.27958 51.47745,14.516828 20.44533,6.2829 40.59766,13.530932 60.30742,21.838268 16.62667,7.007867 32.95942,14.781 48.4767,23.98808 27.75366,16.46746 52.95331,37.68813 71.9699,63.76134 26.64552,36.53306 40.11192,80.8299 51.68323,124.54206 7.46187,28.18821 14.33612,56.56878 18.99445,85.3534 5.58472,34.50892 7.97966,69.56188 15.69837,103.65699 1.56177,6.89864 3.39164,13.87284 7.13555,19.87395 1.87196,3.00056 4.21881,5.72874 7.05328,7.84377 2.83448,2.11502 6.16863,3.60289 9.67408,4.0713 3.68544,0.49246 7.48528,-0.15503 10.8966,-1.63419 3.41132,-1.47915 6.44142,-3.76992 8.96941,-6.49651 5.05598,-5.45318 8.04704,-12.4978 10.26826,-19.59472 2.66813,-8.52482 4.36245,-17.32087 5.89795,-26.12051 4.02383,-23.05969 6.99532,-46.2958 11.18942,-69.32513 5.68071,-31.19214 13.5909,-61.93242 21.87992,-92.53491 9.68065,-35.74029 20.07885,-71.79077 38.92694,-103.6629 11.65369,-19.70639 26.43855,-37.56174 43.66218,-52.64475 22.36857,-19.58852 48.56879,-34.32349 75.44051,-47.05038 13.46166,-6.375665 27.16545,-12.292872 41.30936,-16.963542 18.98213,-6.268369 38.64106,-10.254175 58.35238,-13.582488 9.37191,-1.582474 18.77136,-3.020235 28.08608,-4.910459 7.15625,-1.452208 14.31483,-3.190118 20.93524,-6.270854 9.75657,-4.540113 18.30918,-12.253215 22.38823,-22.21136 2.69856,-6.587978 3.35653,-13.82835 3.4534,-20.946938 0.20193,-14.839187 -1.97784,-29.909922 -8.20231,-43.382051 -3.3792,-7.313883 -7.98856,-14.160368 -14.1306,-19.374504 -3.0047,-2.550771 -6.36009,-4.695429 -9.96536,-6.28813"
       style="fill:none;stroke:#000000;stroke-width:0.85039365000000000;stroke-miterlimit:4;stroke-dasharray:none" /><path
       inkscape:original-d="m 814.89617,-61.224652 c -7.99425,-5.80009 -13.67373,-4.310978 -21.79149,-2.309026 -14.38422,3.547348 -22.76873,13.446694 -32.60166,24.209954 -5.98477,6.551027 -14.27642,13.492145 -20.74741,19.564325 -10.50994,9.8621525 -23.99118,21.3041815 -35.5968,29.921561 -37.15134,27.585566 -79.32382,45.066503 -122.72194,60.385855 -30.13538,10.637657 -64.75106,19.125145 -82.77127,48.403483 -5.5568,9.02842 -8.86006,18.94171 -11.7979,29.22033 -3.74304,13.09591 -6.61656,26.78487 -9.80482,39.99237 -2.04623,8.4766 -4.63859,19.60555 -6.67988,31.03981 -3.37653,18.91341 -6.78482,38.66216 -15.05938,48.6243 -3.20572,3.85954 1.30814,8.62641 -4.54855,8.56519 l -3.98238,-8.05638 c -2.83922,-5.74371 -6.01415,-14.50091 -8.7196,-22.98806 -2.23774,-7.01993 -5.05528,-14.38369 -6.27663,-23.14647 -1.84288,-13.22222 -5.44872,-25.88768 -8.37237,-36.15309 -2.766,-9.71188 -6.67586,-25.22897 -9.22042,-35.83314 -2.69838,-11.24502 -5.24552,-19.756 -9.42044,-28.70386 C 399.54331,110.28208 391.73921,99.361424 377.85371,92.810711 369.81595,89.018767 361.67907,85.987128 353.4861,82.653503 339.85097,77.105533 326.06047,71.505812 312.31297,65.93202 287.33413,55.804583 262.4973,45.600906 238.99253,32.869217 223.3215,24.380778 208.24258,14.768609 194.10846,3.3060904 184.25429,-4.6854637 174.96392,-11.978157 164.01144,-20.545042 c -9.81521,-7.677323 -18.63838,-16.622022 -27.51275,-24.951577 -8.55913,-8.033664 -15.80482,-15.051731 -27.01565,-20.252017 -7.87901,-3.654775 -15.862198,-3.891949 -23.241389,-1.156296 -11.648006,4.318211 -21.791056,14.9389 -27.643814,26.625094 -6.548855,13.07609 -10.905575,29.120022 -11.641645,44.9517634 -0.448886,9.6548636 3.136554,16.8646696 6.362869,25.7676546 2.191602,6.047704 7.201613,11.081487 11.350883,16.078269 10.879678,13.101916 21.175666,12.989048 37.392416,15.983828 14.97533,2.765523 32.45395,7.596791 46.90385,10.574066 20.70865,4.26684 39.95167,10.159045 60.14971,17.264665 47.83066,16.826702 91.85742,46.866542 122.96997,87.118582 27.87334,36.06129 40.54832,80.57811 52.62054,122.64953 8.08129,28.16311 13.28577,56.67976 18.10769,85.3534 5.79149,34.43929 10.39147,69.10513 16.58513,103.65699 3.22715,18.00295 4.19601,41.64056 26.07981,35.77944 15.00188,-4.01794 28.54132,-14.75289 35.81184,-29.19248 4.22618,-8.39337 4.97672,-19.60485 6.21339,-27.38218 3.68651,-23.18423 5.76735,-46.3878 9.13917,-69.48286 4.57878,-31.36205 10.78973,-62.52399 19.67197,-93.16573 10.14035,-34.98202 19.52604,-71.95005 37.19213,-104.13604 10.75789,-19.59984 26.31003,-37.59079 43.66218,-52.64475 21.68893,-18.81635 47.96688,-34.31514 75.44051,-47.05038 13.61381,-6.310619 27.52123,-11.942662 41.30936,-16.963542 18.73577,-6.822544 38.65656,-10.401516 58.35238,-13.582488 9.46617,-1.52883 18.88037,-2.888871 28.08608,-4.910459 7.12764,-1.565234 14.13024,-3.527052 20.93524,-6.270854 12.37067,-4.987912 18.24354,-11.089767 22.38823,-22.21136 2.32885,-6.249037 4.18936,-13.442196 4.78354,-20.946938 1.20314,-15.1965855 -1.41153,-31.670762 -6.22054,-44.170603 -3.06192,-7.958725 -8.83842,-15.991514 -14.32702,-23.001845 -3.98297,-5.087246 -8.07143,-7.419155 -13.02135,-11.010493 z"
       inkscape:path-effect="#path-effect3948"
       sodipodi:nodetypes="ssssssssssscsssssssssssssssssssssssssssssssssssssssssss"
       inkscape:connector-curvature="0"
       id="path3975"
       d="m 814.89617,-61.224652 c -6.63925,-3.415883 -14.55459,-4.146189 -21.79149,-2.309026 -6.65096,1.688417 -12.63184,5.416942 -17.89552,9.819186 -5.26367,4.402243 -9.89709,9.495975 -14.70614,14.390768 -6.66294,6.781728 -13.68391,13.200874 -20.74741,19.564325 -11.52055,10.3787723 -23.18078,20.63261297 -35.5968,29.921561 -36.6655,27.431008 -79.26619,45.949199 -122.72194,60.385855 -15.50069,5.149563 -31.24113,9.842939 -45.86116,17.126084 -14.62002,7.283146 -28.25376,17.426159 -36.91011,31.277399 -5.58583,8.93804 -8.90922,19.08398 -11.7979,29.22033 -3.7624,13.20223 -6.87683,26.58038 -9.80482,39.99237 -2.25733,10.33997 -4.4048,20.70374 -6.67988,31.03981 -3.65596,16.60966 -7.69293,33.29517 -15.05938,48.6243 -1.40057,2.91449 -2.91838,5.77263 -4.54855,8.56519 l -3.98238,-8.05638 c -3.63896,-7.36164 -6.47715,-15.08823 -8.7196,-22.98806 -2.18307,-7.69063 -4.33666,-15.39095 -6.27663,-23.14647 -3.0018,-12.00046 -5.48971,-24.12345 -8.37237,-36.15309 -2.87415,-11.99414 -6.13949,-23.89044 -9.22042,-35.83314 -2.52033,-9.76965 -4.94927,-19.65914 -9.42044,-28.70386 C 398.88313,109.5772 389.42346,99.398837 377.85371,92.810711 370.19662,88.450559 361.75954,85.685343 353.4861,82.653503 339.57619,77.556154 325.98402,71.63913 312.31297,65.93202 287.55732,55.597536 262.43903,45.903992 238.99253,32.869217 223.32294,24.157916 208.49505,14.004159 194.10846,3.3060904 183.83477,-4.3335684 173.77195,-12.259775 164.01144,-20.545042 c -9.44022,-8.013386 -18.59507,-16.360479 -27.51275,-24.951577 -8.16297,-7.864024 -16.4503,-16.147098 -27.01565,-20.252017 -7.36698,-2.862267 -15.687546,-3.481032 -23.241389,-1.156296 -6.274618,1.931047 -11.839138,5.80491 -16.389896,10.536756 -4.550759,4.731846 -8.140936,10.308276 -11.253918,16.088338 -7.429179,13.794204 -12.3264,29.299164 -11.641645,44.9517634 0.389186,8.8962856 2.585654,17.7036596 6.362869,25.7676546 2.800274,5.97832 6.503031,11.597179 11.350883,16.078269 5.036913,4.655848 11.189778,7.976044 17.600789,10.414558 6.411011,2.438514 13.106967,4.032152 19.791627,5.56927 15.61945,3.591647 31.30071,6.912188 46.90385,10.574066 20.31981,4.768827 40.53651,10.126107 60.14971,17.264665 47.88123,17.427192 92.56792,46.228062 122.96997,87.118582 26.71141,35.92664 41.28619,79.33954 52.62054,122.64953 7.36646,28.14818 13.54666,56.61698 18.10769,85.3534 5.48705,34.57071 8.63983,69.5672 16.58513,103.65699 1.77638,7.62168 3.84197,15.31199 7.92047,21.99117 2.03924,3.33958 4.57786,6.39786 7.64415,8.82876 3.06628,2.4309 6.67234,4.22201 10.51519,4.95951 4.13361,0.7933 8.46691,0.34836 12.43571,-1.05332 3.9688,-1.40167 7.57793,-3.73955 10.64472,-6.62241 6.13357,-5.76571 10.01423,-13.54925 12.73141,-21.51675 3.02487,-8.86974 4.75278,-18.12535 6.21339,-27.38218 3.64111,-23.07612 5.68057,-46.37869 9.13917,-69.48286 4.70083,-31.40251 12.00969,-62.35169 19.67197,-93.16573 8.92636,-35.89757 18.5517,-72.1853 37.19213,-104.13604 11.53933,-19.77905 26.40837,-37.5891 43.66218,-52.64475 22.40196,-19.54792 48.57532,-34.31339 75.44051,-47.05038 13.4592,-6.381109 27.16386,-12.297339 41.30936,-16.963542 18.98384,-6.262233 38.64453,-10.235501 58.35238,-13.582488 9.3703,-1.59136 18.76648,-3.044968 28.08608,-4.910459 7.16182,-1.433573 14.34014,-3.132149 20.93524,-6.270854 9.68861,-4.610949 17.94317,-12.445533 22.38823,-22.21136 2.98231,-6.552144 4.21529,-13.77046 4.78354,-20.946938 1.1847,-14.9615867 -0.46783,-30.308465 -6.22054,-44.170603 -3.47688,-8.378141 -8.4109,-16.125688 -14.32702,-23.001845 -3.73068,-4.336077 -7.93498,-8.393562 -13.02135,-11.010493"
       style="fill:none;stroke:#000000;stroke-width:0.85039365000000000;stroke-miterlimit:4;stroke-dasharray:none" /></g></svg>