<?xml version="1.0" encoding="UTF-8" standalone="no"?>
<!-- Created with Inkscape (http://www.inkscape.org/) -->

<svg
   xmlns:dc="http://purl.org/dc/elements/1.1/"
   xmlns:cc="http://creativecommons.org/ns#"
   xmlns:rdf="http://www.w3.org/1999/02/22-rdf-syntax-ns#"
   xmlns:svg="http://www.w3.org/2000/svg"
   xmlns="http://www.w3.org/2000/svg"
   xmlns:sodipodi="http://sodipodi.sourceforge.net/DTD/sodipodi-0.dtd"
   xmlns:inkscape="http://www.inkscape.org/namespaces/inkscape"
   id="svg2"
   version="1.1"
   inkscape:version="0.48.2 r9819"
   width="554.48132"
   height="933.33484"
   xml:space="preserve"
   sodipodi:docname="PaffIII.svg"><metadata
     id="metadata8"><rdf:RDF><cc:Work
         rdf:about=""><dc:format>image/svg+xml</dc:format><dc:type
           rdf:resource="http://purl.org/dc/dcmitype/StillImage" /><dc:title></dc:title></cc:Work></rdf:RDF></metadata><defs
     id="defs6"><inkscape:path-effect
       is_visible="true"
       id="path-effect3876"
       effect="spiro" /><inkscape:path-effect
       is_visible="true"
       id="path-effect3873"
       effect="spiro" /><inkscape:path-effect
       is_visible="true"
       id="path-effect3870"
       effect="spiro" /><inkscape:path-effect
       is_visible="true"
       id="path-effect3867"
       effect="spiro" /><inkscape:path-effect
       is_visible="true"
       id="path-effect3864"
       effect="spiro" /><inkscape:path-effect
       effect="spiro"
       id="path-effect3074"
       is_visible="true" /><clipPath
       clipPathUnits="userSpaceOnUse"
       id="clipPath18"><path
         d="m 0,0 8654.95,0 0,14670 L 0,14670 0,0 z"
         id="path20"
         inkscape:connector-curvature="0" /></clipPath></defs><sodipodi:namedview
     pagecolor="#ffffff"
     bordercolor="#666666"
     borderopacity="1"
     objecttolerance="10"
     gridtolerance="10"
     guidetolerance="10"
     inkscape:pageopacity="0"
     inkscape:pageshadow="2"
     inkscape:window-width="1280"
     inkscape:window-height="752"
     id="namedview4"
     showgrid="false"
     inkscape:zoom="0.81000097"
     inkscape:cx="259.78273"
     inkscape:cy="710.06831"
     inkscape:window-x="0"
     inkscape:window-y="0"
     inkscape:window-maximized="1"
     inkscape:current-layer="g10"
     fit-margin-top="0.5"
     fit-margin-left="0.5"
     fit-margin-right="0.5"
     fit-margin-bottom="0.5" /><g
     id="g10"
     inkscape:groupmode="layer"
     inkscape:label="ink_ext_XXXXXX"
     transform="matrix(1.25,0,0,-1.25,2.1427428,934.32492)"><g
       id="g3878"><g
         style="stroke:#000000"
         transform="scale(0.202658,0.202658)"
         id="g12"><g
           style="stroke:#000000"
           id="g14"><g
             style="stroke:#000000"
             clip-path="url(#clipPath18)"
             id="g16" /></g></g><path
         sodipodi:nodetypes="csssssssssssssssssssssssssssssssscsc"
         inkscape:connector-curvature="0"
         inkscape:original-d="m 434.03574,22.693884 c 3.16023,2.757657 5.38059,7.223161 5.29055,11.416444 -0.13456,6.266938 -3.93475,12.556182 -8.63194,16.706972 -12.45499,11.006183 -30.06421,13.289239 -46.37943,16.46364 -17.13684,3.334268 -34.95362,2.771362 -52.46603,2.584826 -27.85108,-0.296648 -55.94428,-0.6767 -83.53906,2.392169 -19.24167,2.139895 -39.08031,3.354055 -58.42883,6.230067 -11.89254,1.767724 -24.07928,5.283146 -35.70192,9.14273 -6.76894,2.247786 -13.34655,4.08349 -19.56327,7.146498 -15.57102,7.67191 -29.35136,18.55422 -37.782593,33.72754 -3.264797,5.87552 -5.13533,13.75998 -6.738017,20.28647 -3.9421,16.05308 -4.24313,31.97288 -4.956869,48.49057 -0.855892,19.80744 0.829258,27.29559 2.423814,42.71721 1.185055,11.46117 1.96183,30.52842 3.507524,45.19817 1.617773,15.35385 2.170617,31.78464 3.917627,48.72641 2.077046,20.14231 4.364914,41.00691 6.437784,61.64261 2.77371,27.61274 5.16246,54.81569 6.146,79.32991 1.99815,49.8025 8.85197,100.45544 0.12167,149.52747 -6.49067,36.48337 -12.422992,77.74635 -38.147599,104.41862 -10.086698,10.45828 -38.734356,13.35055 -52.778877,9.62651 C 3.9874668,735.0803 9.2951131,730.33938 5.4666189,717.68545 2.8151025,708.92166 3.8033209,697.05257 5.2512704,687.51443 6.615455,678.52808 7.942644,669.4798 8.8431265,660.90049 11.063816,639.74299 14.48311,618.7047 17.907125,597.6721 22.845592,567.33673 27.793881,537.01321 29.169951,506.36093 31.200643,461.1268 32.666603,415.81665 29.666656,370.56448 27.87215,343.49557 22.424067,316.4474 20.259562,289.44865 16.009052,236.43034 4.0164072,184.1311 1.3249859,131.01081 0.79417915,120.53435 0.4195358,109.86924 2.2820039,99.546004 3.470354,92.959252 4.706692,84.880377 8.5646768,79.411056 17.312961,67.00892 30.63123,59.248699 43.927783,51.93111 69.410771,37.906873 98.287132,31.035697 126.62733,24.486255 172.86374,13.800988 220.42482,8.0377998 267.8013,5.3083507 289.33731,4.067623 311.45548,3.2569427 333.08301,3.463704 c 20.05629,0.8213234 47.92665,2.3106049 68.80208,6.224385 14.12364,2.647945 22.87574,5.137703 32.15065,13.005795 z"
         inkscape:path-effect="#path-effect3876"
         id="path3072"
         d="m 434.03574,22.693884 c 2.89289,3.153166 5.06643,7.143149 5.29055,11.416444 0.16989,3.239257 -0.79179,6.475967 -2.39154,9.297747 -1.59975,2.82178 -3.81597,5.254284 -6.2404,7.409225 -6.2332,5.540342 -13.87886,9.328402 -21.83654,11.823075 -7.95769,2.494674 -16.25173,3.743402 -24.54289,4.640565 -17.41435,1.884359 -34.95313,2.254824 -52.46603,2.584826 -27.8542,0.524867 -55.71717,0.951788 -83.53906,2.392169 -19.5764,1.0135 -39.17758,2.535247 -58.42883,6.230067 -12.0709,2.316722 -23.96861,5.481678 -35.70192,9.14273 -6.63148,2.069169 -13.22548,4.302122 -19.56327,7.146498 -15.7094,7.05033 -30.07774,18.32859 -37.782593,33.72754 -3.196398,6.38834 -5.176972,13.31575 -6.738017,20.28647 -3.558085,15.88834 -5.01873,32.20881 -4.956869,48.49057 0.0542,14.26571 1.26916,28.49821 2.423814,42.71721 1.223093,15.0618 2.379454,30.12895 3.507524,45.19817 1.216413,16.24934 2.400042,32.50243 3.917627,48.72641 1.924077,20.56965 4.384312,41.08547 6.437784,61.64261 2.63643,26.39309 4.60193,52.85045 6.146,79.32991 2.90399,49.80099 4.31458,99.81841 0.12167,149.52747 -1.5923,18.87746 -4.01758,37.80923 -9.718944,55.87545 -5.701367,18.06621 -14.846001,35.33691 -28.428655,48.54317 -7.031591,6.83674 -15.405678,12.61628 -24.925355,14.97424 -4.759839,1.17898 -9.761178,1.47646 -14.591391,0.63083 -4.830214,-0.84563 -9.482282,-2.85465 -13.262131,-5.97856 -6.197981,-5.1224 -9.6994392,-12.90334 -11.2996551,-20.78327 -2.0098758,-9.89722 -1.3258185,-20.13303 -0.2153485,-30.17102 0.9843513,-8.89796 2.2964127,-17.75593 3.5918561,-26.61394 3.0810245,-21.0675 6.0697525,-42.14838 9.0639985,-63.22839 4.313403,-30.36711 8.640466,-60.75155 11.262826,-91.31117 3.874396,-45.15018 4.013252,-90.61699 0.496705,-135.79645 C 27.554011,343.4219 24.126186,316.39734 20.259562,289.44865 12.701501,236.77225 3.4466212,184.18436 1.3249859,131.01081 0.9060284,120.51067 0.76938267,109.94506 2.2820039,99.546004 3.2998387,92.548535 5.0972996,85.573673 8.5646768,79.411056 12.288331,72.792954 17.828273,67.325576 24.009467,62.914487 30.190662,58.503397 37.023514,55.092747 43.927783,51.93111 70.379756,39.81809 98.296919,31.105917 126.62733,24.486255 172.92485,13.668412 220.35696,8.3939615 267.8013,5.3083507 289.532,3.8950635 311.3128,2.9359022 333.08301,3.463704 c 23.03611,0.5584925 46.01773,2.7823358 68.80208,6.224385 5.83276,0.88116 11.6874,1.850539 17.26183,3.780127 5.57443,1.929588 10.90089,4.878944 14.88882,9.225668"
         style="fill:none;stroke:#000000;stroke-width:0.85039370999999997;stroke-linecap:butt;stroke-linejoin:miter;stroke-miterlimit:4;stroke-opacity:1;stroke-dasharray:none" /><path
         style="fill:none;stroke:#000000;stroke-width:1.41732283000000003;stroke-linecap:butt;stroke-linejoin:miter;stroke-miterlimit:4;stroke-opacity:1;stroke-dasharray:none"
         d="m 414.8227,39.400856 c 1.57166,0.502297 3.17151,1.073013 4.41519,2.1573 0.80536,0.702145 1.43748,1.6127 1.75909,2.631613 0.32161,1.018913 0.32351,2.145257 -0.0484,3.146919 -0.45638,1.229287 -1.43351,2.200459 -2.50958,2.949795 -1.36179,0.9483 -2.90578,1.598183 -4.45166,2.201512 -9.95085,3.883649 -20.47993,6.116385 -31.06471,7.553259 -16.99681,2.307303 -34.19952,2.596813 -51.35222,2.584826 -27.86139,-0.01947 -55.77949,-0.822923 -83.53907,1.556822 -19.52359,1.673699 -38.87803,4.915282 -58.15038,8.457667 -17.82858,3.277011 -35.77227,6.864125 -52.39413,14.096738 -17.31903,7.535968 -33.20932,19.309173 -43.1597,35.363123 -4.387666,7.07906 -7.553743,14.85616 -10.079413,22.79252 -5.390484,16.9384 -7.922711,34.6661 -9.290394,52.38886 -1.822139,23.61171 -1.614216,47.32888 -1.272009,71.00833 0.624093,43.18498 1.691242,86.36787 3.759196,129.50783 1.276234,26.62375 2.933755,53.23472 3.517037,79.88266 1.038518,47.44599 -1.338249,94.99347 -7.796591,142.00932 -2.328073,16.94806 -5.190263,33.84671 -9.456103,50.41352 -4.68075,18.17815 -11.41949,36.53556 -24.549867,49.95002 -1.998959,2.04221 -4.155525,3.97039 -6.65452,5.35657 -2.498996,1.38617 -5.376833,2.20763 -8.220091,1.92068 -2.231695,-0.22523 -4.393692,-1.14321 -6.082788,-2.61906 -1.402346,-1.22531 -2.463413,-2.80716 -3.242551,-4.49858 -0.779139,-1.69141 -1.286684,-3.49542 -1.695867,-5.31215 -2.076729,-9.22047 -1.669913,-18.81314 -0.772248,-28.22187 0.876536,-9.18727 2.209531,-18.3244 3.591856,-27.44928 3.193162,-21.07841 6.652715,-42.11714 9.620899,-63.2284 4.210414,-29.94664 7.430842,-60.03353 9.592127,-90.19738 3.263977,-45.55352 4.110178,-91.3084 1.610505,-136.91024 -1.533597,-27.9776 -4.32562,-55.8846 -8.293296,-83.62186 -4.1798,-29.22018 -9.66324,-58.25128 -13.309148,-87.54287 C 12.532541,175.46364 10.827159,153.0817 8.8431265,130.73237 7.9402758,120.56212 7.0200567,110.03089 10.357044,100.38135 12.216864,95.003323 15.372053,90.089117 19.424213,86.093857 27.531582,78.100331 38.673095,74.119067 49.496776,70.58724 75.825099,61.996162 102.57837,54.675767 129.69027,49.024929 174.05641,39.777853 219.2471,35.026648 264.45991,31.917858 c 22.37699,-1.53862 44.80792,-2.678861 67.23085,-2.123109 17.50591,0.433883 34.97389,1.901008 52.37355,3.875128 10.38018,1.177708 20.80746,2.550704 30.75839,5.730979"
         id="path3844"
         inkscape:path-effect="#path-effect3873"
         inkscape:original-d="m 414.8227,39.400856 c 1.85709,1.620521 3.00954,1.662293 4.41519,2.1573 0.98637,0.347363 1.74786,4.0494 1.71073,5.778532 -0.0806,3.751853 -0.87612,2.969901 -2.50958,2.949795 -1.09501,-0.0134 -2.56657,0.535699 -4.45166,2.201512 -12.45502,11.006163 -14.7495,4.378858 -31.06471,7.553259 -17.13684,3.334269 -33.83981,2.771362 -51.35222,2.584826 -27.85108,-0.296648 -55.94429,-1.512048 -83.53907,1.556822 -19.24166,2.139894 -38.80186,5.581634 -58.15038,8.457667 -18.81867,2.797249 -35.50299,5.774391 -52.39413,14.096738 -15.57103,7.671914 -34.72846,20.189803 -43.1597,35.363123 -3.264797,5.87552 -8.476726,16.26602 -10.079413,22.79252 -3.942101,16.05307 -8.576654,35.87117 -9.290394,52.38886 -1.01792,23.55715 -1.371685,47.24941 -1.272009,71.00833 0.180754,43.08601 1.852715,86.39131 3.759196,129.50783 1.182031,26.73252 2.454214,53.39251 3.517037,79.88266 1.998146,49.8025 0.933702,92.93729 -7.796591,142.00932 -3.355957,18.86346 -4.655214,32.71908 -9.456103,50.41352 -4.484395,16.52794 -12.125984,37.06846 -24.549867,49.95002 -10.086698,10.45828 -0.83009,11.00128 -14.874611,7.27725 -3.362459,-0.89159 -4.757276,-2.27303 -6.082788,-2.61906 -3.712013,-0.96904 -2.117307,-0.4864 -4.938418,-9.81073 -2.651516,-8.76379 -2.220197,-18.68373 -0.772248,-28.22187 1.364185,-8.98635 2.691374,-18.86998 3.591856,-27.44928 2.22069,-21.15751 6.196884,-42.1958 9.620899,-63.2284 4.938467,-30.33536 8.216057,-59.54509 9.592127,-90.19738 2.030692,-45.23412 4.610452,-91.65806 1.610505,-136.91024 -1.794506,-27.0689 -6.12879,-56.62312 -8.293296,-83.62186 C 26.199941,255.17221 19.821877,226.56075 15.303904,197.72905 11.863812,175.7759 10.006567,153.69507 8.8431265,130.73237 8.3123202,120.2559 8.4945758,110.70459 10.357044,100.38135 11.545394,93.794599 15.566229,91.563178 19.424213,86.093857 28.172497,73.69172 36.200223,77.904829 49.496776,70.58724 74.979764,56.563003 101.35008,55.57437 129.69027,49.024929 175.92669,38.339662 217.08343,34.647307 264.45991,31.917858 c 21.53601,-1.240728 45.60332,-2.32987 67.23085,-2.123109 20.05629,0.821323 31.49812,-0.03865 52.37355,3.875128 14.12364,2.647945 21.48348,-2.137113 30.75839,5.730979 z"
         inkscape:connector-curvature="0"
         sodipodi:nodetypes="csssssssssssssssssssssssssssssssssscsc" /><path
         style="fill:none;stroke:#000000;stroke-width:0.85039370999999997;stroke-linecap:butt;stroke-linejoin:miter;stroke-miterlimit:4;stroke-opacity:1;stroke-dasharray:none"
         d="m 416.7091,29.788387 c 4.11221,1.473405 8.1816,3.584674 10.80356,7.078458 1.03947,1.385108 1.8294,2.973349 2.18275,4.66869 0.35334,1.695341 0.25662,3.499842 -0.39331,5.105027 -0.56568,1.397112 -1.52963,2.607184 -2.64716,3.618639 -1.11753,1.011455 -2.38946,1.836515 -3.67932,2.616369 -4.00334,2.420425 -8.24184,4.451243 -12.63503,6.059056 -8.35086,3.056236 -17.18927,4.564082 -26.02567,5.561809 -17.40146,1.964817 -34.95474,2.006032 -52.46603,2.167162 -27.86329,0.256384 -55.73593,0.822712 -83.53906,2.670612 -19.66677,1.307127 -39.3155,3.258654 -58.70728,6.786972 -18.96628,3.450898 -37.77514,8.450635 -55.17863,16.742022 -8.869,4.225379 -17.39491,9.333557 -24.65038,15.957087 -5.97793,5.45726 -11.053174,11.92694 -14.750245,19.12757 -3.370268,6.56413 -5.572734,13.66838 -7.294917,20.84338 -3.808674,15.86778 -5.332545,32.1957 -6.209892,48.49057 -1.894807,35.19206 -0.823265,70.47285 0.634716,105.68571 2.351331,56.78887 5.706611,113.53856 7.309999,170.35346 0.842449,29.85158 1.200541,59.7444 -0.437174,89.56293 -1.101451,20.05456 -3.104877,40.05443 -5.748086,59.96453 -2.762115,20.80576 -6.256723,41.6509 -13.301668,61.42153 -3.54521,9.94912 -7.996334,19.61562 -13.819889,28.42696 -3.049675,4.61432 -6.479072,8.99502 -10.433743,12.86193 -3.584347,3.50481 -7.681239,6.62538 -12.422003,8.25522 -2.370382,0.81492 -4.884518,1.24438 -7.388819,1.13816 -2.504301,-0.10622 -4.99795,-0.75708 -7.176608,-1.99654 -2.750512,-1.56479 -4.925367,-4.0223 -6.483816,-6.77641 -1.558448,-2.75411 -2.5314997,-5.80365 -3.2406906,-8.88763 -2.2355399,-9.72145 -1.9223738,-19.84872 -0.9586038,-29.77723 0.8650049,-8.91106 2.2426444,-17.76324 3.5918564,-26.61394 3.250336,-21.32187 6.339856,-42.6679 9.413467,-64.01596 4.408258,-30.61798 8.786546,-61.26433 11.262825,-92.09875 3.605489,-44.89526 3.164342,-90.0474 0.509369,-135.00888 -1.61712,-27.38563 -4.05551,-54.73299 -7.844609,-81.90339 -4.143428,-29.71118 -9.897146,-59.17959 -14.0619,-88.88779 C 7.6865914,175.89886 5.4122933,152.68441 3.6877096,129.43566 2.9166378,119.041 2.2770977,108.40559 5.0511775,98.358312 6.6932304,92.411054 9.5496075,86.753606 13.683911,82.173895 18.886148,76.411196 25.857417,72.575926 32.869596,69.244062 38.932882,66.363068 45.133226,63.775626 51.409741,61.394675 77.484157,51.503534 104.77596,45.207176 132.14035,39.831304 176.93417,31.031332 222.23554,24.613668 267.8013,21.841091 c 22.64898,-1.378141 45.3614,-1.855177 68.03823,-1.057073 19.70657,0.693567 39.37246,2.349472 58.9574,4.642896 7.41361,0.868144 14.88533,1.843756 21.91217,4.361473"
         id="path3846"
         inkscape:path-effect="#path-effect3870"
         inkscape:original-d="m 416.7091,29.788387 c 3.16024,2.757657 10.89361,2.885175 10.80356,7.078458 -0.13456,6.266938 6.48663,5.622927 1.78944,9.773717 -1.76525,1.559902 -3.45813,4.185901 -6.32648,6.235008 -3.99552,2.854306 -9.75553,4.712777 -12.63503,6.059056 -9.63867,4.506436 -15.24383,3.464027 -26.02567,5.561809 -17.13684,3.334268 -34.95362,2.353697 -52.46603,2.167162 -27.85108,-0.296648 -55.94428,-0.398258 -83.53906,2.670612 -19.24167,2.139894 -39.35875,3.910939 -58.70728,6.786972 -18.81867,2.797249 -38.28748,8.419675 -55.17863,16.742022 -8.65979,4.266705 -17.26616,9.145927 -24.65038,15.957087 -5.89323,5.43589 -11.008018,12.39286 -14.750245,19.12757 -3.264802,5.87552 -5.692229,14.31689 -7.294917,20.84338 -3.9421,16.05308 -5.496153,31.97288 -6.209892,48.49057 -1.532903,35.47512 -0.475613,70.61904 0.634716,105.68571 1.793075,56.62931 5.011193,113.05721 7.309999,170.35346 1.192555,29.72367 1.067924,59.75029 -0.437174,89.56293 -1.016717,20.13892 -2.228302,40.18021 -5.748086,59.96453 -4.786723,26.90565 -4.108361,41.24681 -13.301668,61.42153 -3.272583,7.18168 -7.066587,21.42488 -13.819889,28.42696 -3.105312,3.21971 -6.792675,9.65375 -10.433743,12.86193 -8.18587,7.21265 -17.266686,9.97439 -26.98743,7.39684 -12.7788077,-3.38842 -5.896012,-3.01011 -9.7245066,-15.66404 -2.6515164,-8.76379 -2.4065533,-20.23909 -0.9586038,-29.77723 1.3641846,-8.98635 2.6913734,-18.03463 3.5918564,-26.61394 2.220689,-21.1575 5.989451,-42.98337 9.413467,-64.01596 4.938466,-30.33537 9.886755,-61.44646 11.262825,-92.09875 2.030692,-45.23413 3.509316,-89.7567 0.509369,-135.00888 C 31.035112,342.708 27.149514,314.87225 24.985009,287.87351 22.598725,258.10844 15.827216,228.57003 10.923109,198.98572 7.091891,175.87369 4.8681377,152.73365 3.6877096,129.43566 3.1569032,118.9592 3.1887085,108.68155 5.0511775,98.358312 6.2395276,91.771559 28.252885,63.073933 13.683911,82.173895 7.6719828,90.055551 19.934679,77.77119 32.869596,69.244062 39.73886,64.71562 46.797708,63.932848 51.409741,61.394675 76.892729,47.370438 103.80015,46.380745 132.14035,39.831304 178.37677,29.146037 220.42482,24.57054 267.8013,21.841091 c 21.53601,-1.240728 46.4107,-1.263834 68.03823,-1.057073 20.05629,0.821323 38.08197,0.729116 58.9574,4.642896 14.12364,2.647945 12.63726,-3.506619 21.91217,4.361473 z"
         inkscape:connector-curvature="0"
         sodipodi:nodetypes="csssssssssssssssssssssssssssssssssssscsc" /><path
         style="fill:none;stroke:#000000;stroke-width:0.85039370999999997;stroke-linecap:butt;stroke-linejoin:miter;stroke-miterlimit:4;stroke-opacity:1;stroke-dasharray:none"
         d="m 427.26639,27.009863 c 1.45487,0.871508 2.86357,1.83579 4.09611,3.000691 1.23255,1.164901 2.28825,2.539005 2.9517,4.099774 1.0655,2.506578 1.05937,5.389185 0.30987,8.00767 -0.74951,2.618485 -2.20274,4.992707 -3.92972,7.098828 -4.99781,6.095024 -12.21387,10.002 -19.65415,12.603876 -8.60149,3.007954 -17.66851,4.456113 -26.72528,5.460238 -17.40984,1.93023 -34.95235,2.269548 -52.46603,2.584826 -27.8547,0.501436 -55.71736,0.946921 -83.53906,2.392169 -19.57618,1.01692 -39.1776,2.535322 -58.42883,6.230067 -12.0709,2.316677 -23.96826,5.482832 -35.70192,9.14273 -6.63171,2.068527 -13.22634,4.300152 -19.56327,7.146498 -15.70515,7.05425 -30.04955,18.34527 -37.782593,33.72754 -3.208965,6.38315 -5.212917,13.30678 -6.738017,20.28647 -3.473693,15.89753 -4.537364,32.22337 -4.956869,48.49057 -0.358741,13.91096 -0.254002,27.83053 0.05699,41.74264 0.33691,15.07151 0.915811,30.1366 1.558376,45.19817 0.701038,16.43217 1.477892,32.86127 2.386153,49.28329 2.604743,47.09563 6.290108,94.13091 8.407044,141.25099 2.235909,49.76824 2.711966,99.78497 -3.219729,149.24902 -2.383125,19.87273 -5.818427,39.70586 -12.096415,58.7109 -4.516785,13.67344 -10.557085,26.97197 -19.22917,38.46802 -5.431337,7.19999 -12.079582,13.79131 -20.379159,17.32065 -4.149789,1.76468 -8.670961,2.72422 -13.176115,2.52824 -4.505154,-0.19599 -8.988861,-1.5751 -12.680032,-4.16548 -3.109997,-2.18253 -5.60507,-5.17685 -7.4487717,-8.49894 -1.8437017,-3.32209 -3.0535431,-6.96906 -3.8508834,-10.68386 -2.1202685,-9.87831 -1.355153,-20.13222 -0.2153485,-30.17102 1.0099356,-8.89498 2.3057659,-17.75467 3.5918561,-26.61394 3.0588155,-21.07073 6.0638595,-42.14923 9.0639985,-63.22839 4.321896,-30.36591 8.635776,-60.75195 11.262826,-91.31117 3.881393,-45.1504 4.066293,-90.62033 0.496705,-135.79645 -2.144421,-27.13944 -5.639205,-54.1538 -9.407094,-81.11583 C 12.895886,236.75612 4.4741841,184.1221 1.3249859,131.01081 0.70220664,120.50763 0.29390382,109.8781 2.2820039,99.546004 3.6645512,92.360947 6.2476925,85.318255 10.56527,79.411056 14.723205,73.722276 20.369911,69.245968 26.470751,65.720293 32.571592,62.194617 39.14565,59.571501 45.737706,57.082437 72.593659,46.94202 100.21158,38.809629 128.29803,32.874862 157.00044,26.80994 186.1364,23.046907 215.2806,19.696195 c 18.4889,-2.125671 37.00507,-4.088703 55.58365,-5.181455 20.43348,-1.201853 40.91745,-1.349323 61.38342,-1.0093 23.16007,0.384783 46.38439,1.401091 69.21973,5.284927 8.95094,1.522377 18.01006,3.553701 25.79899,8.219496"
         id="path3848"
         inkscape:path-effect="#path-effect3867"
         inkscape:original-d="m 427.26639,27.009863 c 3.16024,2.757658 7.13786,2.907182 7.04781,7.100465 -0.13456,6.266938 1.07734,10.955707 -3.61985,15.106498 -4.72628,4.176498 -13.79583,10.128202 -19.65415,12.603876 -9.57988,4.04838 -16.60118,3.490414 -26.72528,5.460238 -17.13684,3.334268 -34.95362,2.771362 -52.46603,2.584826 -27.85108,-0.296648 -55.94428,-0.6767 -83.53906,2.392169 -19.24167,2.139895 -39.08031,3.354055 -58.42883,6.230067 -11.89254,1.767724 -24.07928,5.283146 -35.70192,9.14273 -6.76894,2.247786 -13.34655,4.08349 -19.56327,7.146498 -15.57102,7.67191 -29.35136,18.55422 -37.782593,33.72754 -3.264797,5.87552 -5.13533,13.75998 -6.738017,20.28647 -3.9421,16.05308 -4.24313,31.97288 -4.956869,48.49057 -0.855892,19.80744 -1.537564,26.32103 0.05699,41.74264 1.185055,11.46117 0.01268,30.52843 1.558376,45.19817 1.617773,15.35386 0.639145,32.34153 2.386153,49.28329 4.856353,47.09488 6.68847,98.41667 8.407044,141.25099 1.998146,49.8025 5.510566,100.17698 -3.219729,149.24902 -3.674615,20.65461 -6.984326,40.52074 -12.096415,58.7109 -3.917671,13.94011 -8.068234,26.89593 -19.22917,38.46802 C 52.914885,731.64312 30.810795,740.59229 16.766274,736.86825 3.9874668,733.47983 9.2951131,730.33938 5.4666189,717.68545 2.8151025,708.92166 3.8033209,697.05257 5.2512704,687.51443 6.615455,678.52808 7.942644,669.4798 8.8431265,660.90049 11.063816,639.74299 14.48311,618.7047 17.907125,597.6721 22.845592,567.33673 27.793881,537.01321 29.169951,506.36093 31.200643,461.1268 32.666603,415.81665 29.666656,370.56448 27.87215,343.49557 22.424067,316.4474 20.259562,289.44865 16.009052,236.43034 4.0164072,184.1311 1.3249859,131.01081 0.79417915,120.53435 0.4195358,109.86924 2.2820039,99.546004 3.470354,92.959252 6.707285,84.880377 10.56527,79.411056 19.313554,67.00892 32.441153,64.400026 45.737706,57.082437 71.220693,43.0582 99.957829,39.424303 128.29803,32.874862 156.6024,26.333703 185.92494,22.743779 215.2806,19.696195 c 18.59809,-1.930752 37.20945,-4.122882 55.58365,-5.181455 21.53601,-1.240728 39.75589,-1.216061 61.38342,-1.0093 20.05628,0.821324 48.34431,1.371147 69.21973,5.284927 14.12365,2.647945 16.52408,0.351404 25.79899,8.219496 z"
         inkscape:connector-curvature="0"
         sodipodi:nodetypes="csssssssssssssssssssssssssssssssssscsc" /><path
         style="fill:none;stroke:#000000;stroke-width:1.41732283000000003;stroke-linecap:butt;stroke-linejoin:miter;stroke-miterlimit:4;stroke-opacity:1;stroke-dasharray:none"
         d="m 434.03574,22.693884 c 2.89264,3.153314 5.06571,7.143247 5.29055,11.416444 0.17045,3.239429 -0.79019,6.476663 -2.38967,9.298827 -1.59948,2.822165 -3.81617,5.254775 -6.24227,7.408145 -5.95432,5.284966 -13.20618,8.966632 -20.76898,11.454355 -8.27841,2.723116 -16.94724,4.062605 -25.61045,5.009285 -17.41255,1.902773 -34.95282,2.260749 -52.46603,2.584826 -27.8544,0.515438 -55.71725,0.949716 -83.53906,2.392169 -19.5763,1.014956 -39.17754,2.535545 -58.42883,6.230067 -12.07094,2.316537 -23.96862,5.481641 -35.70192,9.14273 -6.63147,2.06919 -13.22548,4.302129 -19.56327,7.146498 -15.70941,7.05031 -30.07775,18.32858 -37.782593,33.72754 -3.196397,6.38834 -5.176971,13.31575 -6.738017,20.28647 -3.558086,15.88834 -5.01873,32.20881 -4.956869,48.49057 0.0542,14.26571 1.26916,28.49821 2.423814,42.71721 1.223093,15.0618 2.379454,30.12895 3.507524,45.19817 1.216413,16.24934 2.400042,32.50243 3.917627,48.72641 1.924077,20.56965 4.384312,41.08547 6.437784,61.64261 2.63643,26.39309 4.60193,52.85045 6.146,79.32991 2.90399,49.80099 4.31458,99.81841 0.12167,149.52747 -1.5923,18.87746 -4.01758,37.80923 -9.718944,55.87545 -5.701367,18.06621 -14.846001,35.33691 -28.428655,48.54317 -7.031591,6.83674 -15.405678,12.61628 -24.925355,14.97424 -4.759839,1.17898 -9.761178,1.47646 -14.591391,0.63083 -4.830214,-0.84563 -9.482282,-2.85465 -13.262131,-5.97856 -6.197981,-5.1224 -9.6994392,-12.90334 -11.2996551,-20.78327 -2.0098758,-9.89722 -1.3258185,-20.13303 -0.2153485,-30.17102 0.9843513,-8.89796 2.2964127,-17.75593 3.5918561,-26.61394 3.0810245,-21.0675 6.0697525,-42.14838 9.0639985,-63.22839 4.313403,-30.36711 8.640466,-60.75155 11.262826,-91.31117 3.874396,-45.15018 4.013252,-90.61699 0.496705,-135.79645 C 27.554011,343.4219 24.126186,316.39734 20.259562,289.44865 12.701501,236.77225 3.4466211,184.18436 1.3249859,131.01081 0.90602842,120.51067 0.76938272,109.94506 2.2820039,99.546004 3.2998387,92.548535 5.0972995,85.573673 8.5646768,79.411056 12.288331,72.792954 17.828273,67.325576 24.009467,62.914487 30.190662,58.503398 37.023515,55.092748 43.927783,51.93111 70.379755,39.818088 98.296916,31.105905 126.62733,24.486255 172.92486,13.668432 220.35697,8.3940634 267.8013,5.3083507 289.532,3.8950167 311.3128,2.93577 333.08301,3.463704 c 23.0361,0.5586322 46.01766,2.7828537 68.80208,6.224385 5.83282,0.881033 11.68753,1.850228 17.26201,3.779769 5.57448,1.929541 10.90098,4.879013 14.88864,9.226026"
         id="path3850"
         inkscape:path-effect="#path-effect3864"
         inkscape:original-d="m 434.03574,22.693884 c 3.16023,2.757657 5.38059,7.223161 5.29055,11.416444 -0.13456,6.266938 -3.93475,12.556182 -8.63194,16.706972 -5.75591,5.086348 -13.44795,9.145051 -20.76898,11.454355 -8.52072,2.687697 -16.83509,3.301879 -25.61045,5.009285 -17.13684,3.334268 -34.95362,2.771362 -52.46603,2.584826 -27.85108,-0.296648 -55.94428,-0.6767 -83.53906,2.392169 -19.24167,2.139895 -39.08031,3.354055 -58.42883,6.230067 -11.89254,1.767724 -24.07928,5.283146 -35.70192,9.14273 -6.76894,2.247786 -13.34655,4.08349 -19.56327,7.146498 -15.57102,7.67191 -29.35136,18.55422 -37.782593,33.72754 -3.264797,5.87552 -5.13533,13.75998 -6.738017,20.28647 -3.9421,16.05308 -4.24313,31.97288 -4.956869,48.49057 -0.855892,19.80744 0.829258,27.29559 2.423814,42.71721 1.185055,11.46117 1.96183,30.52842 3.507524,45.19817 1.617773,15.35385 2.170617,31.78464 3.917627,48.72641 2.077046,20.14231 4.364914,41.00691 6.437784,61.64261 2.77371,27.61274 5.16246,54.81569 6.146,79.32991 1.99815,49.8025 8.85197,100.45544 0.12167,149.52747 -6.49067,36.48337 -12.422992,77.74635 -38.147599,104.41862 -10.086698,10.45828 -38.734356,13.35055 -52.778877,9.62651 C 3.9874668,735.0803 9.2951131,730.33938 5.4666189,717.68545 2.8151025,708.92166 3.8033209,697.05257 5.2512704,687.51443 6.615455,678.52808 7.942644,669.4798 8.8431265,660.90049 11.063816,639.74299 14.48311,618.7047 17.907125,597.6721 22.845592,567.33673 27.793881,537.01321 29.169951,506.36093 31.200643,461.1268 32.666603,415.81665 29.666656,370.56448 27.87215,343.49557 22.424067,316.4474 20.259562,289.44865 16.009052,236.43034 4.0164072,184.1311 1.3249859,131.01081 0.79417915,120.53435 0.4195358,109.86924 2.2820039,99.546004 3.470354,92.959252 4.706692,84.880377 8.5646768,79.411056 17.312961,67.00892 30.63123,59.248699 43.927783,51.93111 69.410771,37.906873 98.287132,31.035697 126.62733,24.486255 172.86374,13.800988 220.42482,8.0377998 267.8013,5.3083507 289.33731,4.067623 311.45548,3.2569427 333.08301,3.463704 c 20.05629,0.8213234 47.92665,2.3106049 68.80208,6.224385 14.12364,2.647945 22.87574,5.137703 32.15065,13.005795 z"
         inkscape:connector-curvature="0"
         sodipodi:nodetypes="cssssssssssssssssssssssssssssssssscsc" /><path
         sodipodi:nodetypes="cssssssssssssssssssssssssssssssssssscsssc"
         inkscape:connector-curvature="0"
         inkscape:original-d="m 433.06117,24.364579 c 3.16024,2.757658 5.15481,5.552466 5.06476,9.745749 -0.13456,6.266938 -2.73439,12.556182 -7.43158,16.706972 -5.70347,5.040034 -12.0701,8.492958 -19.31605,10.797801 -8.57738,2.728348 -18.21934,3.945089 -27.06338,5.665839 -17.13684,3.334268 -34.95362,2.771362 -52.46603,2.584826 -27.85108,-0.296648 -55.94428,-0.6767 -83.53906,2.392169 -19.24167,2.139895 -39.08031,3.354055 -58.42883,6.230067 -11.89254,1.767724 -24.07928,5.283146 -35.70192,9.14273 -6.76894,2.247786 -13.34655,4.08349 -19.56327,7.146498 -15.57102,7.67191 -29.35136,18.55422 -37.782593,33.72754 -3.264797,5.87552 -5.13533,13.75998 -6.738017,20.28647 -3.9421,16.05308 -4.24313,31.97288 -4.956869,48.49057 -0.855892,19.80744 0.829258,27.29559 2.423814,42.71721 1.185055,11.46117 1.96183,30.52842 3.507524,45.19817 1.617773,15.35385 2.170617,31.78464 3.917627,48.72641 2.077046,20.14231 1.564084,41.00691 3.63695,61.64261 2.773714,27.61274 3.962104,54.81569 4.945654,79.32991 1.99814,49.8025 8.25873,98.64552 -0.47157,147.71755 -3.619681,20.34584 -6.556553,42.17814 -12.554101,62.13738 -4.75702,15.83088 -11.291123,30.48341 -22.669775,42.28124 -10.086698,10.45827 -37.063659,15.16047 -51.10818,11.43643 C 3.9874668,735.0803 9.2951131,730.33938 5.4666189,717.68545 2.8151025,708.92166 3.8033209,697.05257 5.2512704,687.51443 6.615455,678.52808 7.942644,669.4798 8.8431265,660.90049 11.063816,639.74299 14.48311,618.7047 17.907125,597.6721 22.845592,567.33673 27.793881,537.01321 29.169951,506.36093 31.200643,461.1268 32.666603,415.81665 29.666656,370.56448 27.87215,343.49557 24.42466,316.4474 22.260155,289.44865 18.009645,236.43034 4.0164072,184.1311 1.3249859,131.01081 0.79417915,120.53435 0.4195358,109.86924 2.2820039,99.546004 3.470354,92.959252 4.706692,84.880377 8.5646768,79.411056 17.312961,67.00892 30.63123,60.849174 43.927783,53.531585 69.410771,39.507348 99.818606,33.820202 128.1588,27.270761 c 30.79893,-7.11765 62.30917,-10.818647 93.92005,-13.837682 15.84448,-1.513249 31.71424,-3.4543439 47.53237,-4.365654 21.536,-1.2407278 42.67961,-1.6512895 64.30714,-1.4445282 12.51055,0.5123119 27.73646,0.4510337 42.48902,1.5833693 8.89799,0.6829825 17.62378,2.0547289 25.47771,3.5272059 8.61591,1.615338 14.87017,3.060347 20.54339,5.415845 3.62661,1.505766 7.0158,3.146973 10.63269,6.215262 z"
         inkscape:path-effect="#path-effect3074"
         id="path3852"
         d="m 433.06117,24.364579 c 2.68452,2.594702 4.6229,6.038474 5.06476,9.745749 0.37432,3.140582 -0.33097,6.356765 -1.7122,9.202036 -1.38123,2.845271 -3.41569,5.33782 -5.71938,7.504936 -5.41461,5.093608 -12.27405,8.415985 -19.31605,10.797801 -8.74671,2.9584 -17.89497,4.571655 -27.06338,5.665839 -17.39482,2.075946 -34.94983,2.316489 -52.46603,2.584826 -27.85618,0.426739 -55.71799,0.93022 -83.53906,2.392169 -19.57541,1.028654 -39.17717,2.538363 -58.42883,6.230067 -12.07129,2.314795 -23.96871,5.481271 -35.70192,9.14273 -6.63141,2.069394 -13.22544,4.302227 -19.56327,7.146498 -15.70956,7.05009 -30.07817,18.32832 -37.782593,33.72754 -3.196208,6.38842 -5.17646,13.31588 -6.738017,20.28647 -3.559291,15.88822 -5.02553,32.2087 -4.956869,48.49057 0.06016,14.26553 1.290506,28.49664 2.423814,42.71721 1.200494,15.0636 2.293025,30.13569 3.507524,45.19817 1.309599,16.24193 2.761026,32.47287 3.917627,48.72641 1.461025,20.53157 2.451187,41.09331 3.63695,61.64261 1.526294,26.45068 3.376724,52.88172 4.945654,79.32991 2.91934,49.21281 4.85725,98.70708 -0.47157,147.71755 -2.28831,21.04611 -5.934035,42.02892 -12.554101,62.13738 -5.036661,15.29886 -11.936425,30.27215 -22.669775,42.28124 -6.428409,7.19248 -14.383847,13.32998 -23.650687,16.00988 -4.633419,1.33994 -9.548342,1.78702 -14.318279,1.07166 -4.769937,-0.71536 -9.387289,-2.61409 -13.139214,-5.64511 C 10.506101,733.41139 7.0421209,725.57748 5.4666189,717.68545 3.4897296,707.78278 4.1491603,697.55217 5.2512704,687.51443 6.2283273,678.61564 7.5462066,669.75832 8.8431265,660.90049 11.927653,639.8335 14.89544,618.74962 17.907125,597.6721 22.245774,567.30771 26.678298,536.93235 29.169951,506.36093 32.85003,461.20808 32.280284,415.7916 29.666656,370.56448 28.099887,343.45258 25.79887,316.37424 22.260155,289.44865 15.314953,236.60356 3.5969996,184.26188 1.3249859,131.01081 0.87704472,120.51204 0.80098131,109.94944 2.2820039,99.546004 3.2790876,92.541997 5.0217916,85.534638 8.5646768,79.411056 12.289767,72.972548 17.876639,67.757095 24.069173,63.636025 c 6.192534,-4.12107 13.005646,-7.211764 19.85861,-10.10444 27.135161,-11.453909 55.430706,-20.09227 84.231017,-26.260824 30.95697,-6.630476 62.44716,-10.409176 93.92005,-13.837682 15.81864,-1.723207 31.65192,-3.360644 47.53237,-4.365654 21.40259,-1.3544842 42.86204,-1.5583999 64.30714,-1.4445282 14.17718,0.07528 28.37074,0.2901138 42.48902,1.5833693 8.54087,0.7823568 17.04567,1.9589939 25.47771,3.5272059 6.97235,1.296736 13.92423,2.869893 20.54339,5.415845 3.85806,1.48394 7.66049,3.342503 10.63269,6.215262"
         style="fill:none;stroke:#000000;stroke-width:0.85039370999999997;stroke-linecap:butt;stroke-linejoin:miter;stroke-miterlimit:4;stroke-opacity:1;stroke-dasharray:none" /></g></g></svg>