<?xml version="1.0" encoding="UTF-8" standalone="no"?>
<!-- Created with Inkscape (http://www.inkscape.org/) -->

<svg
   xmlns:dc="http://purl.org/dc/elements/1.1/"
   xmlns:cc="http://creativecommons.org/ns#"
   xmlns:rdf="http://www.w3.org/1999/02/22-rdf-syntax-ns#"
   xmlns:svg="http://www.w3.org/2000/svg"
   xmlns="http://www.w3.org/2000/svg"
   xmlns:sodipodi="http://sodipodi.sourceforge.net/DTD/sodipodi-0.dtd"
   xmlns:inkscape="http://www.inkscape.org/namespaces/inkscape"
   width="1041.3516"
   height="1601.8218"
   id="svg2"
   version="1.1"
   inkscape:version="0.92.3 (2405546, 2018-03-11)"
   sodipodi:docname="Reversible.svg">
  <defs
     id="defs4">
    <inkscape:path-effect
       effect="spiro"
       id="path-effect905"
       is_visible="true" />
    <marker
       inkscape:stockid="StopL"
       orient="auto"
       refY="0"
       refX="0"
       id="StopL"
       style="overflow:visible"
       inkscape:isstock="true">
      <path
         id="path1096"
         d="M 0,5.65 V -5.65"
         style="fill:none;fill-opacity:0.75;fill-rule:evenodd;stroke:#000000;stroke-width:1.00000003pt;stroke-opacity:1"
         transform="scale(0.8)"
         inkscape:connector-curvature="0" />
    </marker>
    <inkscape:path-effect
       effect="spiro"
       id="path-effect895"
       is_visible="true" />
    <inkscape:path-effect
       is_visible="true"
       id="path-effect56"
       effect="spiro" />
    <marker
       style="overflow:visible"
       id="DistanceEnd"
       refX="0"
       refY="0"
       orient="auto"
       inkscape:stockid="DistanceEnd">
      <g
         id="g4104">
        <path
           style="fill:none;stroke:#ffffff;stroke-width:1.22666669;stroke-linecap:square"
           d="M 0,0 H -2.1333333"
           id="path2316"
           inkscape:connector-curvature="0" />
        <path
           style="fill:#000000;fill-rule:evenodd;stroke:none;stroke-width:1.06666672"
           d="M 0,0 -13.866667,4.2666667 -9.6,0 -13.866667,-4.2666667 Z"
           id="path2312"
           inkscape:connector-curvature="0" />
        <path
           style="fill:none;stroke:#000000;stroke-width:1.06666672;stroke-linecap:square"
           d="M 0,-4.2666667 V 42.666667"
           id="path2314"
           inkscape:connector-curvature="0" />
      </g>
    </marker>
    <marker
       style="overflow:visible"
       id="DistanceStart"
       refX="0"
       refY="0"
       orient="auto"
       inkscape:stockid="DistanceStart">
      <g
         id="g2300">
        <path
           style="fill:none;stroke:#ffffff;stroke-width:1.22666669;stroke-linecap:square"
           d="M 0,0 H 2.1333333"
           id="path2306"
           inkscape:connector-curvature="0" />
        <path
           style="fill:#000000;fill-rule:evenodd;stroke:none;stroke-width:1.06666672"
           d="M 0,0 13.866667,4.2666667 9.6,0 13.866667,-4.2666667 Z"
           id="path2302"
           inkscape:connector-curvature="0" />
        <path
           style="fill:none;stroke:#000000;stroke-width:1.06666672;stroke-linecap:square"
           d="M 0,-4.2666667 V 42.666667"
           id="path2304"
           inkscape:connector-curvature="0" />
      </g>
    </marker>
    <inkscape:path-effect
       effect="spiro"
       id="path-effect4043"
       is_visible="true" />
    <inkscape:path-effect
       effect="spiro"
       id="path-effect3989"
       is_visible="true" />
    <inkscape:path-effect
       effect="spiro"
       id="path-effect3982"
       is_visible="true" />
    <inkscape:path-effect
       effect="spiro"
       id="path-effect3979"
       is_visible="true" />
    <inkscape:path-effect
       is_visible="true"
       id="path-effect3872"
       effect="spiro" />
    <inkscape:path-effect
       is_visible="true"
       id="path-effect3869"
       effect="spiro" />
    <inkscape:path-effect
       is_visible="true"
       id="path-effect3866"
       effect="spiro" />
    <inkscape:path-effect
       is_visible="true"
       id="path-effect3863"
       effect="spiro" />
    <inkscape:path-effect
       is_visible="true"
       id="path-effect3842"
       effect="spiro" />
    <inkscape:path-effect
       is_visible="true"
       id="path-effect2993"
       effect="spiro" />
    <inkscape:path-effect
       effect="spiro"
       id="path-effect3786"
       is_visible="true" />
    <inkscape:path-effect
       effect="spiro"
       id="path-effect3879"
       is_visible="true" />
    <inkscape:path-effect
       is_visible="true"
       id="path-effect3885"
       effect="spiro" />
    <inkscape:path-effect
       effect="spiro"
       id="path-effect3006"
       is_visible="true" />
  </defs>
  <sodipodi:namedview
     id="base"
     pagecolor="#ffffff"
     bordercolor="#666666"
     borderopacity="1.0"
     inkscape:pageopacity="0.0"
     inkscape:pageshadow="2"
     inkscape:zoom="0.5"
     inkscape:cx="1073.743"
     inkscape:cy="748.71364"
     inkscape:document-units="px"
     inkscape:current-layer="layer1"
     showgrid="false"
     inkscape:window-width="2560"
     inkscape:window-height="1377"
     inkscape:window-x="-8"
     inkscape:window-y="-8"
     inkscape:window-maximized="1"
     showguides="true"
     inkscape:guide-bbox="true"
     fit-margin-top="1"
     fit-margin-right="1"
     fit-margin-bottom="1"
     fit-margin-left="1"
     inkscape:object-nodes="false"
     inkscape:snap-nodes="false"
     inkscape:snap-others="false"
     inkscape:snap-global="false">
    <sodipodi:guide
       orientation="0,1"
       position="211.91181,434.54065"
       id="guide4741"
       inkscape:locked="false" />
  </sodipodi:namedview>
  <metadata
     id="metadata7">
    <rdf:RDF>
      <cc:Work
         rdf:about="">
        <dc:format>image/svg+xml</dc:format>
        <dc:type
           rdf:resource="http://purl.org/dc/dcmitype/StillImage" />
        <dc:title></dc:title>
      </cc:Work>
    </rdf:RDF>
  </metadata>
  <g
     inkscape:label="Layer 1"
     inkscape:groupmode="layer"
     id="layer1"
     transform="translate(123.82539,364.33076)">
    <g
       id="g57"
       transform="translate(0,306)">
      <path
         style="fill:none;stroke:#000000;stroke-width:1.88567507;stroke-linecap:butt;stroke-linejoin:miter;stroke-miterlimit:4;stroke-dasharray:none;stroke-opacity:1"
         d="m 913.01207,827.35446 c -1.86832,-10.81317 -4.64722,-21.60897 -9.93522,-31.22418 -6.79532,-12.35599 -17.39447,-22.16811 -28.45781,-30.91165 -11.5949,-9.16364 -23.89118,-17.40385 -36.3779,-25.30927 C 802.51613,717.29163 764.90526,697.17834 732.713,669.7649 707.17348,648.01662 685.5311,622.06589 665.49949,595.15884 644.04537,566.34103 624.30165,536.29725 604.38934,506.39332 579.48545,468.99313 554.2977,431.78292 529.19811,394.51378 506.98306,361.52774 484.83456,328.4919 461.91913,295.98851 c -18.87035,-26.76582 -38.28297,-53.19806 -59.6368,-78.02775 -8.44813,-9.82327 -17.19638,-19.39096 -26.30728,-28.60285 -14.80291,-14.967 -31.29081,-29.41095 -51.4779,-35.3791 -5.37844,-1.59009 -10.94398,-2.54709 -16.54483,-2.84114 -14.37904,-0.75492 -28.86848,2.92866 -41.48859,9.86116 -9.69136,5.32367 -18.28928,12.49981 -25.84488,20.57302 -7.38737,7.89345 -13.80794,16.64968 -19.65623,25.74238 -25.66968,39.91029 -40.13794,85.76564 -57.26477,130.01986 -11.90825,30.76986 -25.207,60.97876 -38.17625,91.31668 -21.47516,50.23512 -42.080864,100.90112 -66.563116,149.74136 -13.508204,26.94784 -28.183465,53.31064 -43.970863,78.98974 -8.3902138,12.63643 -17.3252366,24.91111 -26.771928,36.7785 -11.748764,14.75937 -24.288962,28.88827 -37.540367,42.31484 -18.638628,18.885 -38.845186,36.57209 -53.797426,58.49177 -7.90025,11.58161 -14.28834,24.39457 -17.04436,38.14055 -4.77898,23.8357 2.2173,49.74405 18.3449,67.93415 8.470817,9.63731 19.264843,17.21828 31.204817,21.91609 11.752444,4.62403 24.641392,6.44837 37.176576,4.90866 10.690917,-1.31318 21.036584,-5.047 30.3118948,-10.5232 9.483206,-5.59894 17.8190952,-12.96016 25.4933632,-20.85858 13.837689,-14.24186 25.67306,-30.31817 36.43382,-47.00703 17.947509,-27.83479 32.980619,-57.43447 47.398489,-87.2508 13.52232,-27.96432 26.53716,-56.17939 38.65377,-84.78086 19.18397,-45.28412 36.09667,-91.48898 53.55168,-137.46722 9.72589,-25.61897 19.63464,-51.20182 31.39792,-75.95156 3.90808,-8.22253 8.0217,-16.35391 12.60006,-24.22295 4.15236,-7.13685 8.70972,-14.08565 14.26939,-20.1903 4.91951,-5.40174 10.58953,-10.09942 16.68837,-14.12241 6.52813,-4.30616 13.5483,-7.84516 20.815,-10.73558 25.10883,-9.98736 54.16839,-11.90941 78.98131,-1.20804 13.06667,5.63542 24.48879,14.47841 35.15153,23.90188 12.27207,10.84575 23.73955,22.57666 34.72754,34.72154 19.53346,21.59006 37.56534,44.49704 54.92189,67.87303 17.81125,23.98838 34.92523,48.48617 51.87602,73.0901 22.89214,33.22775 45.4921,66.65669 67.81481,100.26964 19.8877,29.94637 39.57053,60.06049 61.09741,88.8511 13.81971,18.48284 28.38909,36.40512 43.6603,53.708 14.57988,18.14269 30.07308,35.55137 46.40131,52.13809 11.74925,11.93525 24.12327,23.58703 38.8626,31.53985 8.67777,4.68222 18.12912,8.02397 27.90462,9.31489 15.60139,2.06027 31.90249,-1.29375 45.3036,-9.5435 15.07739,-9.28167 26.17277,-24.5724 31.09424,-41.57993 4.71883,-16.30724 3.93167,-33.74974 1.0413,-50.47813 z"
         id="path3784"
         inkscape:path-effect="#path-effect3872"
         inkscape:original-d="m 913.01207,827.35446 c -79.30396,-976.99352 -3.82236,-17.21086 -9.93522,-31.22418 -5.47067,-12.541 -18.79606,-21.20318 -28.45781,-30.91165 -10.605,-10.65629 -23.83413,-17.00501 -36.3779,-25.30927 C 823.39069,730.078 747.69314,679.39873 732.713,669.7649 677.84544,636.38259 700.42223,644.36499 665.49949,595.15884 646.38911,568.27606 622.42688,534.0029 604.38934,506.39332 579.60309,468.4537 554.26851,432.26741 529.19811,394.51378 c -21.99866,-33.12799 -44.4264,-65.97675 -67.27898,-98.52527 -18.97586,-27.08092 -40.11558,-54.67177 -59.6368,-78.02775 -6.81984,-8.13691 -18.84792,-21.04401 -26.30728,-28.60285 -17.17703,-16.10715 -29.27653,-29.34657 -51.4779,-35.3791 -5.67331,-1.5025 -10.6755,-2.93448 -16.54483,-2.84114 -16.04444,0.79882 -28.54512,2.2046 -41.48859,9.86116 -7.98888,4.79739 -19.27887,13.9705 -25.84488,20.57302 -5.68321,5.71485 -14.82694,19.29406 -19.65623,25.74238 -30.19871,39.87695 -40.33928,87.74168 -57.26477,130.01986 C 151.2144,368.2509 139.13012,398.20942 125.5216,428.65077 100.92624,483.6689 2.7585553,556.24379 58.958484,578.39213 578.55539,783.16519 27.623101,638.16402 14.987621,657.38187 c -11.6218379,27.55539 -32.107061,22.21449 -26.771928,36.7785 47.957105,109.27886 -21.036378,21.87012 -37.540367,42.31484 -4.392017,5.44071 -50.387915,52.39113 -53.797426,58.49177 -6.2572,12.48542 -15.52199,25.2426 -17.04436,38.14055 -2.16845,26.04265 1.50416,49.62826 18.3449,67.93415 7.808746,4.23423 26.427843,19.29137 31.204817,21.91609 16.573089,9.10617 17.473116,8.09515 37.176576,4.90866 8.31308,-1.49763 22.629931,-7.0197 30.3118948,-10.5232 9.1800429,-4.1867 17.9347902,-14.18784 25.4933632,-20.85858 15.866456,-14.00276 24.642363,-29.45501 36.43382,-47.00703 18.431141,-27.43545 32.136847,-57.94518 47.398489,-87.2508 14.14176,-27.15519 26.13664,-56.84454 38.65377,-84.78086 12.25934,-27.36103 42.01561,-109.79548 53.55168,-137.46722 18.23863,-43.74941 10.86204,-33.22581 31.39792,-75.95156 3.91303,-8.14119 7.80683,-16.5636 12.60006,-24.22295 4.3712,-6.98485 8.69862,-14.11255 14.26939,-20.1903 4.92208,-5.36988 10.62775,-10.07154 16.68837,-14.12241 6.48844,-4.33687 13.55534,-7.85938 20.815,-10.73558 29.078,-12.39069 53.54365,-16.29433 78.98131,-1.20804 8.1985,5.05878 27.84686,17.62799 35.15153,23.90188 12.34213,10.60021 23.86963,22.61445 34.72754,34.72154 19.67434,21.93786 37.67817,43.98908 54.92189,67.87303 17.38762,24.08318 35.35874,48.40255 51.87602,73.0901 22.31214,33.34884 45.31546,67.05031 67.81481,100.26964 20.49597,30.26155 39.71487,59.20537 61.09741,88.8511 13.53505,18.76564 28.65774,36.08604 43.6603,53.708 17.915,17.46707 29.2853,36.8509 46.40131,52.13809 9.72162,8.56755 27.3908,25.49461 38.8626,31.53985 12.65051,6.03079 14.84725,9.57574 27.90462,9.31489 14.34989,-0.14575 34.31479,-1.8655 45.3036,-9.5435 11.68468,-8.33422 23.79625,-30.69196 31.09424,-41.57993 10.64048,-14.42783 2.55387,-26.85281 1.0413,-50.47813 z"
         inkscape:connector-curvature="0"
         sodipodi:nodetypes="csssccssccccccsccssccscccscssssssssssccssssssccccccc" />
      <path
         sodipodi:nodetypes="csssssccsssccccccssssssssccsscscssssssssssssscssssssssssssccscc"
         inkscape:connector-curvature="0"
         inkscape:original-d="m 910.12825,865.47066 c 0.56833,11.61234 4.81359,-20.6762 4.07015,-29.83468 -79.30401,-976.9935 -4.12112,-21.22943 -10.23398,-35.24276 -5.47067,-12.54096 -30.36989,-19.10623 -29.13908,-32.725 11.28687,-124.88124 -23.19574,-15.99704 -35.7395,-24.3013 -14.85046,-9.83136 -32.49404,-16.51787 -47.47418,-26.1517 -9.59841,-6.17288 -18.08931,-10.36282 -27.31391,-17.07811 -12.16984,-27.47669 -18.20046,-2.69649 -66.61021,-54.9736 -14.90513,-16.13285 -28.69449,-36.03218 -41.41555,-53.92713 -19.1104,-26.88278 -39.30842,-58.69594 -57.34599,-86.30562 -24.78621,-37.93962 -47.87996,-71.63163 -72.95036,-109.38527 -21.99865,-33.12798 -46.27038,-67.41948 -69.12298,-99.9679 -18.94139,-27.61944 -39.53161,-53.08449 -58.95071,-76.41597 -11.4719,-14.39048 -24.34122,-27.08589 -37.66418,-38.3854 -6.29019,-5.36679 -34.46275,-15.53307 -41.55431,-19.79293 -17.5852,-10.36212 -15.24979,3.58307 -29.40154,7.58932 -15.50088,6.71708 -29.72999,18.57363 -40.01932,31.89783 -3.99378,5.33262 -9.70526,11.88683 -13.15365,17.58505 -5.52843,9.13555 -9.90534,18.69627 -14.34767,28.40292 -13.52163,29.5451 -22.21245,65.83489 -34.37652,95.96076 -7.35284,18.21004 -15.28597,39.214 -22.71592,59.73712 -5.18449,14.32065 -9.7308,28.47822 -15.32384,40.98945 -24.59531,55.01813 -116.094706,206.43344 -71.435884,165.8533 61.657564,-56.02653 -52.466985,46.7572 -33.310133,59.5358 43.16777,28.7955 -12.188155,20.66238 -18.749268,29.17215 -11.719381,15.20005 -25.81431945,38.37763 -38.744248,52.56888 -21.714242,28.98378 -17.152337,9.25039 -37.130754,43.38569 -4.046193,7.23983 -14.782107,21.36869 -17.66144,29.1434 -1.992776,5.38077 -10.241759,24.61468 -9.736604,30.3283 0.929787,10.51657 -3.714422,21.50991 5.277403,31.75266 5.267638,1.42494 5.677612,8.87131 7.70974,16.68627 1.706893,6.56424 10.769933,16.27145 10.769933,16.27145 0,0 -4.165636,-133.40593 17.406344,3.94997 1.306632,8.31977 20.92869,-3.71411 28.6106541,-7.21761 9.1800429,-4.1867 20.1459369,-14.5129 27.7045199,-21.18365 15.866455,-14.00276 12.050472,-12.91264 23.841928,-30.46468 7.365156,-10.96332 15.743155,-26.09964 23.537355,-41.06717 11.710635,-22.48842 22.7159,-45.77492 31.878931,-63.36995 14.141743,-27.15521 25.571393,-58.62529 38.088523,-86.5616 12.25935,-27.36114 21.79473,-53.67631 33.33079,-81.34814 18.23864,-43.74941 18.0837,-54.39553 38.61955,-97.12139 2.84177,-5.91249 11.98736,-26.62946 21.65658,-45.12679 3.64503,-6.9729 11.78113,-19.76126 13.41788,-21.61749 9.4493,-10.71666 14.50744,-19.20531 27.77279,-27.17177 5.39523,-3.2401 14.95164,-7.97364 21.28215,-10.95543 8.66115,-4.07936 18.01639,-8.38226 25.26271,-9.73952 5.5691,-1.02027 9.64704,-2.28897 15.30383,-2.03844 5.70142,0.25253 12.6594,-8.12276 16.63103,0.52597 2.84847,6.20267 24.96979,0.84195 25.23664,7.65736 3.3716,86.11206 10.99832,4.61051 15.17934,7.19026 8.1985,5.05878 20.40661,12.78985 27.7113,19.06354 12.34212,10.60031 22.46705,17.70151 33.32495,29.8086 19.67435,21.93786 43.20562,44.81589 60.44932,68.69984 17.38763,24.08328 39.59753,45.21883 56.11484,69.90638 22.31213,33.34884 50.524,66.20975 73.02331,99.42908 20.49597,30.26155 42.64876,52.22292 64.03126,81.86866 13.53506,18.76565 19.86331,20.75462 34.86587,38.37658 9.43101,11.07764 33.35122,34.23085 43.34158,44.81002 6.7357,7.13271 11.87509,10.98568 19.23736,17.47398 15.199,12.54775 7.97459,26.37681 29.79057,20.76051 6.25971,-1.98283 42.67339,15.49904 43.40034,8.99187 60.62733,-542.69571 11.40621,-0.85543 15.48605,-5.44379 5.73974,2.56875 18.18745,-21.79835 18.25621,-20.45818 z"
         inkscape:path-effect="#path-effect3869"
         id="path3887"
         d="m 910.12825,865.47066 c 4.08629,-9.28131 4.87832,-19.7259 4.07015,-29.83468 -0.98222,-12.28583 -4.28546,-24.44825 -10.23398,-35.24276 -7.09403,-12.8732 -17.72018,-23.4701 -29.13908,-32.725 -11.2029,-9.07983 -23.28377,-17.03474 -35.7395,-24.3013 -15.60615,-9.10449 -31.81329,-17.1417 -47.47418,-26.1517 -9.30951,-5.35594 -18.42233,-11.05375 -27.31391,-17.07811 -24.68819,-15.0008 -47.19889,-33.57895 -66.61021,-54.9736 -15.24129,-16.79856 -28.53056,-35.2599 -41.41555,-53.92713 -19.62151,-28.42681 -38.38783,-57.43219 -57.34599,-86.30562 -24.05472,-36.63555 -48.42242,-73.06485 -72.95036,-109.38527 -22.67401,-33.57518 -45.48819,-67.06197 -69.12298,-99.9679 -18.7729,-26.13688 -38.07723,-51.92401 -58.95071,-76.41597 -11.64276,-13.66106 -23.81964,-26.96143 -37.66418,-38.3854 -12.02753,-9.92465 -26.00346,-18.63921 -41.55431,-19.79293 -10.27579,-0.76236 -20.77853,1.94868 -29.40154,7.58932 -15.08389,8.15738 -28.70348,19.01302 -40.01932,31.89783 -4.8355,5.50595 -9.25458,11.38064 -13.15365,17.58505 -5.6499,8.99042 -10.18637,18.63396 -14.34767,28.40292 -13.31873,31.26672 -22.89887,63.97233 -34.37652,95.96076 -7.19488,20.05225 -15.13717,39.82678 -22.71592,59.73712 -5.18915,13.63255 -10.20803,27.32921 -15.32384,40.98945 -21.12317,56.40308 -43.93746,112.26849 -71.435884,165.8533 -10.384904,20.23655 -21.433085,40.13735 -33.310133,59.5358 -6.036364,9.85902 -12.286247,19.5874 -18.749268,29.17215 -12.173502,18.05347 -25.10334773,35.59691 -38.744248,52.56888 -13.687185,13.26814 -26.135624,27.81361 -37.130754,43.38569 -6.558374,9.28843 -12.609286,18.95699 -17.66144,29.1434 -4.743144,9.56337 -8.631247,19.71069 -9.736604,30.3283 -1.124447,10.80098 0.719599,21.89609 5.277403,31.75266 2.15555,5.74133 4.734763,11.32355 7.70974,16.68627 3.158483,5.69351 6.763105,11.13945 10.769933,16.27145 5.47196,2.43046 11.421297,3.78053 17.406344,3.94997 9.936494,0.28131 19.766836,-2.6789 28.6106541,-7.21761 10.3886804,-5.33155 19.5670659,-12.80917 27.7045199,-21.18365 9.000455,-9.26262 16.78938,-19.64498 23.841928,-30.46468 8.618904,-13.22273 16.159067,-27.11414 23.537355,-41.06717 11.054324,-20.90475 21.770907,-41.99158 31.878931,-63.36995 13.475703,-28.50098 25.861823,-57.5029 38.088523,-86.5616 11.3651,-27.01096 22.59657,-54.08032 33.33079,-81.34814 12.76236,-32.41984 24.82474,-65.12722 38.61955,-97.12139 6.60856,-15.32718 13.61917,-30.4982 21.65658,-45.12679 4.08658,-7.43784 8.44335,-14.74176 13.41788,-21.61749 7.63634,-10.55485 16.80641,-20.1392 27.77279,-27.17177 6.7222,-4.31084 14.02961,-7.61297 21.28215,-10.95543 8.21129,-3.78432 16.46229,-7.66615 25.26271,-9.73952 5.01583,-1.18172 10.15812,-1.76153 15.30383,-2.03844 5.54713,-0.29851 11.12981,-0.24627 16.63103,0.52597 8.73044,1.22554 17.1096,4.24066 25.23664,7.65736 5.16336,2.17073 10.2594,4.51323 15.17934,7.19026 9.86148,5.3658 18.9524,12.04056 27.7113,19.06354 11.63302,9.32749 22.73971,19.30708 33.32495,29.8086 21.66422,21.49287 41.08941,45.1101 60.44932,68.69984 18.95722,23.09906 37.89576,46.22078 56.11484,69.90638 25.07236,32.59517 48.75904,66.22798 73.02331,99.42908 20.44823,27.97956 41.33103,55.68306 64.03126,81.86866 11.32167,13.05999 23.0845,25.72972 34.86587,38.37658 14.16632,15.20701 28.37149,30.39357 43.34158,44.81002 6.24104,6.01023 12.61518,11.88648 19.23736,17.47398 9.26876,7.82056 19.0654,15.09995 29.79057,20.76051 13.30459,7.02193 28.56981,11.51676 43.40034,8.99187 5.41994,-0.92274 10.68091,-2.77212 15.48605,-5.44379 8.02453,-4.68411 14.51219,-11.95428 18.25621,-20.45818 z"
         style="fill:none;stroke:#000000;stroke-width:1.88567507;stroke-linecap:butt;stroke-linejoin:miter;stroke-miterlimit:4;stroke-dasharray:none;stroke-opacity:1" />
      <path
         sodipodi:nodetypes="csssccssccccccsccsscscsccssccsssssssssscscssssssccccccc"
         inkscape:connector-curvature="0"
         inkscape:original-d="m 913.01207,827.35446 c -79.30396,-976.99352 -3.82236,-17.21086 -9.93522,-31.22418 -5.47067,-12.541 -18.79606,-21.20318 -28.45781,-30.91165 -10.605,-10.65629 -23.83413,-17.00501 -36.3779,-25.30927 C 823.39069,730.078 747.69314,679.39873 732.713,669.7649 677.84544,636.38259 700.42223,644.36499 665.49949,595.15884 646.38911,568.27606 622.42688,534.0029 604.38934,506.39332 579.60309,468.4537 554.26851,432.26741 529.19811,394.51378 507.19945,361.38579 484.04772,329.47142 461.19514,296.923 c -18.97586,-27.08101 -40.35247,-54.67515 -59.8737,-78.03114 -6.81983,-8.1369 -19.09145,-20.57521 -26.55082,-28.13395 -17.17703,-16.10716 -29.28653,-28.63831 -51.48789,-34.67083 -5.67332,-1.50241 -8.31663,-2.19304 -14.18596,-2.0997 -16.04444,0.79872 -26.72664,7.66134 -39.67012,15.318 -7.98886,4.79729 -19.54574,16.09181 -26.11175,22.69444 -5.68321,5.71475 -9.55205,14.88148 -14.38132,21.3296 -30.19871,39.87695 -33.70971,88.07081 -50.63522,130.34899 -12.48344,30.91672 -22.23548,63.50558 -35.84401,93.94693 -24.59536,55.01813 -120.877909,128.32769 -64.67796,150.47613 519.59692,204.77311 -32.773401,60.93251 -45.408881,80.15036 -5.108982,12.11337 -12.619089,24.20522 -21.876834,33.56221 -11.8016616,11.92808 -24.827054,20.3201 -21.837263,28.48181 47.957105,109.27886 -36.4739,41.25327 -52.977891,61.69801 -4.392008,5.4407 -14.671472,23.13825 -18.080979,29.23894 -6.257201,12.48538 -7.654652,21.81079 -9.17702,34.70876 -1.328554,15.95564 1.913945,19.70764 5.176897,25.66436 2.062799,3.76573 0.519537,10.48292 8.082759,16.45924 6.965908,5.50434 15.33987,21.22141 15.33987,21.22141 0,0 8.911762,10.33651 28.615221,7.15004 8.31308,-1.49765 23.557495,-5.58988 31.2394588,-9.09338 9.1800429,-4.1867 17.9347902,-14.18784 25.4933632,-20.85858 15.866456,-14.00276 22.53035,-30.90145 34.321806,-48.45347 18.431142,-27.43545 32.120195,-56.76471 47.381843,-86.07035 14.14174,-27.15518 25.68284,-58.26774 38.19995,-86.20405 12.25936,-27.36104 42.23918,-108.84784 53.77524,-136.51968 18.23865,-43.7493 10.37495,-32.28783 30.91083,-75.01368 3.91303,-8.14119 8.53415,-17.73418 13.32739,-25.39353 4.37118,-6.98485 8.46174,-14.11593 14.0325,-20.19349 4.92208,-5.36988 10.86798,-10.30434 16.92859,-14.35531 6.48843,-4.33687 14.51957,-9.02657 21.77923,-11.90258 18.35949,-7.82341 36.12118,-10.3656 52.76481,-8.70142 9.71679,0.97165 18.73162,2.19493 28.10827,7.75597 8.19849,5.05868 29.06464,15.28373 36.36933,21.55743 12.34212,10.6004 26.97918,20.53288 37.83708,32.64007 19.67435,21.93795 40.04474,41.48175 57.28846,65.3657 17.3876,24.08318 38.52062,45.31985 55.03791,70.0075 22.31213,33.34883 49.833,65.93291 72.33232,99.15234 20.496,30.26145 43.09135,55.00209 64.47385,84.64785 13.53505,18.76561 29.41175,33.02677 44.41434,50.64876 17.91499,17.46705 33.7962,36.20572 50.9122,51.49292 9.72163,8.56754 27.20722,21.7138 38.67901,27.75903 12.65048,6.0308 22.22077,7.55386 35.27819,7.29299 14.34989,-0.14574 17.70918,-0.4453 28.69799,-8.12331 11.68468,-8.33422 17.27839,-19.57651 17.27839,-19.57651 0,0 2.03002,-23.31805 0.51745,-46.94337 z"
         inkscape:path-effect="#path-effect3866"
         id="path3034"
         d="m 913.01207,827.35446 c -1.65283,-10.85614 -4.58513,-21.63438 -9.93522,-31.22418 -6.8683,-12.31114 -17.41252,-22.15155 -28.45781,-30.91165 -11.57942,-9.18371 -23.88559,-17.41207 -36.3779,-25.30927 C 802.5006,717.31543 764.89778,697.18773 732.713,669.7649 707.18,648.00968 685.54373,622.05591 665.49949,595.15884 644.03137,566.35109 624.2515,536.33095 604.38934,506.39332 c -24.84112,-37.44228 -49.8323,-74.78601 -75.19123,-111.87954 -22.3769,-32.7316 -45.03977,-65.26781 -68.00297,-97.59078 -18.99635,-26.73924 -38.23607,-53.38035 -59.8737,-78.03114 -8.50819,-9.693 -17.37806,-19.06731 -26.55082,-28.13395 -14.88125,-14.70908 -31.33415,-29.04629 -51.48789,-34.67083 -4.61849,-1.28894 -9.39099,-2.09814 -14.18596,-2.0997 -7.19851,-0.002 -14.31777,1.82035 -20.9422,4.63734 -6.62443,2.817 -12.78879,6.61308 -18.72792,10.68066 -9.54316,6.53591 -18.63602,13.86814 -26.11175,22.69444 -5.55037,6.5531 -10.14893,13.85721 -14.38132,21.3296 -23.0112,40.62686 -35.39313,86.21583 -50.63522,130.34899 -10.94271,31.68439 -23.44166,62.80492 -35.84401,93.94693 -20.20657,50.73822 -40.20653,101.65174 -64.67796,150.47613 -13.764965,27.4633 -28.927345,54.22613 -45.408881,80.15036 -6.856048,11.46381 -14.155596,22.66236 -21.876834,33.56221 -6.9170725,9.76463 -14.1738854,19.29124 -21.837263,28.48181 -17.365314,20.82595 -36.815069,39.92561 -52.977891,61.69801 -6.840607,9.21476 -13.084634,18.90733 -18.080979,29.23894 -5.254377,10.86518 -9.14614,22.63981 -9.17702,34.70876 -0.02246,8.77787 2.005037,17.47957 5.176897,25.66436 2.21109,5.70558 4.975969,11.18757 8.082759,16.45924 4.438058,7.53059 9.581073,14.64552 15.33987,21.22141 8.679807,4.86095 18.669111,7.35696 28.615221,7.15004 10.954559,-0.2279 21.705866,-3.69293 31.2394588,-9.09338 9.5914941,-5.43325 17.9980332,-12.77545 25.4933632,-20.85858 13.482769,-14.54012 24.100405,-31.46162 34.321806,-48.45347 16.886828,-28.07233 32.93785,-56.66641 47.381843,-86.07035 13.85995,-28.21499 26.22303,-57.13969 38.19995,-86.20405 18.63521,-45.22199 36.35185,-90.81711 53.77524,-136.51968 9.63687,-25.27808 19.20017,-50.62698 30.91083,-75.01368 4.13913,-8.61947 8.5446,-17.11388 13.32739,-25.39353 4.10788,-7.1113 8.52349,-14.10284 14.0325,-20.19349 4.9751,-5.50037 10.78567,-10.19956 16.92859,-14.35531 6.8626,-4.64262 14.16665,-8.63182 21.77923,-11.90258 16.56656,-7.11786 34.85672,-10.80267 52.76481,-8.70142 9.68626,1.13654 19.13355,3.93895 28.10827,7.75597 12.99863,5.52843 25.01096,13.16008 36.36933,21.55743 13.40517,9.91057 25.97647,20.92496 37.83708,32.64007 20.62398,20.37097 39.06953,42.81807 57.28846,65.3657 18.65689,23.08964 37.12341,46.33723 55.03791,70.0075 24.68945,32.62195 48.31804,66.03023 72.33232,99.15234 20.82257,28.7199 41.94903,57.24266 64.47385,84.64785 14.26039,17.35014 29.07524,34.24455 44.41434,50.64876 16.04412,18.04861 33.04671,35.24514 50.9122,51.49292 11.79012,10.72253 24.16836,21.1696 38.67901,27.75903 11.02926,5.0085 23.17069,7.66467 35.27819,7.29299 10.05526,-0.30868 20.18334,-2.76568 28.69799,-8.12331 7.46809,-4.6991 13.54344,-11.58251 17.27839,-19.57651 2.70765,-15.48251 2.88316,-31.40493 0.51745,-46.94337 z"
         style="fill:none;stroke:#000000;stroke-width:1.131405;stroke-linecap:butt;stroke-linejoin:miter;stroke-miterlimit:4;stroke-dasharray:none;stroke-opacity:1" />
      <path
         sodipodi:nodetypes="csssccssccccccscscssccscccsccssssssssssccsssssscccccscsc"
         inkscape:connector-curvature="0"
         inkscape:original-d="m 913.01207,827.35446 c -79.30396,-976.99352 -3.82236,-17.21086 -9.93522,-31.22418 -5.47067,-12.541 -18.79606,-21.20318 -28.45781,-30.91165 -10.605,-10.65629 -23.83413,-17.00501 -36.3779,-25.30927 C 823.39069,730.078 747.69314,679.39873 732.713,669.7649 677.84544,636.38259 700.42223,644.36499 665.49949,595.15884 646.38911,568.27606 622.42688,534.0029 604.38934,506.39332 579.60309,468.4537 554.26851,432.26741 529.19811,394.51378 c -21.99866,-33.12799 -44.4264,-65.97675 -67.27898,-98.52527 -18.97586,-27.08092 -40.11558,-54.67177 -59.6368,-78.02775 -6.81984,-8.13691 -18.84792,-21.04401 -26.30728,-28.60285 -17.17703,-16.10715 -29.27653,-29.34657 -51.4779,-35.3791 -5.67331,-1.5025 -10.21172,-2.21953 -16.08106,-2.1261 -16.04444,0.79862 -28.83199,5.74255 -41.77545,13.39921 -7.98887,4.79729 -17.83419,12.3377 -24.40021,18.94022 -5.68321,5.71485 -12.91184,17.90412 -17.74113,24.35235 -10.87814,14.36457 -14.29909,30.52761 -20.24655,46.57958 -10.56321,28.50951 -20.28737,57.89105 -31.11597,84.93988 -12.48346,30.91672 -22.22217,62.56113 -35.83069,93.00258 C 112.71074,488.08466 13.782401,564.19092 69.98234,586.33927 589.57925,791.11234 37.709388,645.38964 25.073918,664.60749 13.45207,692.16288 -8.2509274,689.16624 -2.9157845,703.73025 45.04132,813.00917 -23.761914,728.90901 -40.265923,749.35373 c -4.391997,5.44071 -42.740789,47.77556 -46.150298,53.87623 -6.2572,12.48542 -15.348419,29.73168 -16.870789,42.62963 -2.16845,26.04261 -13.17694,15.41831 3.663805,33.72421 3.864657,2.09559 4.604567,8.12067 8.275161,15.46857 3.746029,7.49889 10.407553,16.31478 12.820336,17.64049 16.573091,9.10616 25.384081,18.36006 45.087541,15.17357 8.31308,-1.49763 22.629931,-7.0197 30.3118948,-10.5232 9.1800429,-4.1867 17.9347902,-14.18784 25.4933632,-20.85858 15.866456,-14.00276 24.642363,-29.45501 36.43382,-47.00703 18.431141,-27.43545 32.136847,-57.94518 47.398489,-87.2508 14.14176,-27.15519 26.13664,-56.84454 38.65377,-84.78086 12.25934,-27.36103 42.01561,-109.79548 53.55168,-137.46722 18.23863,-43.74941 10.86204,-33.22581 31.39792,-75.95156 3.91303,-8.14119 7.80683,-16.5636 12.60006,-24.22295 4.3712,-6.98485 8.69862,-14.11255 14.26939,-20.1903 4.92208,-5.36988 10.62775,-10.07154 16.68837,-14.12241 6.48844,-4.33687 13.55534,-7.85938 20.815,-10.73558 29.078,-12.39069 53.54365,-16.29433 78.98131,-1.20804 8.1985,5.05878 27.84686,17.62799 35.15153,23.90188 12.34213,10.60021 24.85384,20.03072 35.71174,32.13781 19.67434,21.93796 40.74876,41.96389 57.99249,65.84784 17.38759,24.08328 39.43814,47.4581 55.95548,72.14565 22.3121,33.34873 530.53636,-191.96416 70.21034,98.4142 -30.95448,19.52636 40.76575,51.89976 62.14825,81.54548 13.53506,18.76564 30.30931,36.58147 45.31187,54.20343 17.91503,17.46708 30.02931,34.49993 47.14532,49.78714 9.72162,8.56753 21.54855,19.74535 33.02031,25.79057 12.65053,6.03079 11.03034,11.41136 24.08772,11.15049 14.3499,-0.14573 15.89095,10.8639 26.87977,3.1859 4.41467,-3.14873 14.88953,-4.16934 20.73412,-6.35917 9.62497,-3.60632 14.77489,-8.24893 19.31571,-15.02335 3.58857,-4.86598 6.77873,-16.18918 7.37845,-22.16988 1.17863,-11.75234 -0.18352,-25.09406 -1.18593,-40.75143 z"
         inkscape:path-effect="#path-effect3863"
         id="path3834"
         d="m 913.01207,827.35446 c -1.79382,-10.82845 -4.62575,-21.61779 -9.93522,-31.22418 -6.82062,-12.34051 -17.40071,-22.1624 -28.45781,-30.91165 -11.58956,-9.17057 -23.88929,-17.40662 -36.3779,-25.30927 C 802.51091,717.29968 764.90376,697.18026 732.713,669.7649 707.17477,648.01518 685.53176,622.06533 665.49949,595.15884 644.04462,566.34158 624.30031,536.29816 604.38934,506.39332 579.48713,468.992 554.30405,431.77865 529.19811,394.51378 c -22.22064,-32.9822 -44.38317,-66.00813 -67.27898,-98.52527 -18.85466,-26.77781 -38.23144,-53.24147 -59.6368,-78.02775 -8.46796,-9.80546 -17.24758,-19.34136 -26.30728,-28.60285 -14.74231,-15.07066 -31.1137,-29.92383 -51.4779,-35.3791 -5.23828,-1.40326 -10.65813,-2.14927 -16.08106,-2.1261 -14.80033,0.0632 -29.0568,5.83023 -41.77545,13.39921 -8.87437,5.28122 -17.23385,11.50456 -24.40021,18.94022 -6.98797,7.25057 -12.78062,15.58902 -17.74113,24.35235 -8.34928,14.74999 -14.3653,30.68356 -20.24655,46.57958 -10.46305,28.27982 -20.60865,56.67648 -31.11597,84.93988 -11.57686,31.14034 -23.5919,62.1164 -35.83069,93.00258 -20.56529,51.89919 -41.79877,103.62465 -67.32375,153.27274 -13.757853,26.7601 -28.74848,52.88638 -44.908422,78.26822 -9.005865,13.26874 -18.3395609,26.31496 -27.9897025,39.12276 -11.8312215,15.70256 -24.1462515,31.05621 -37.3501385,45.62348 -15.901052,17.54294 -33.184497,34.06497 -46.150298,53.87623 -8.443184,12.90087 -15.014729,27.32359 -16.870789,42.62963 -1.37318,11.32394 -0.1091,22.95935 3.663805,33.72421 2.574916,5.25158 5.335602,10.41206 8.275161,15.46857 3.664055,6.30275 7.650688,12.49999 12.820336,17.64049 11.61965,11.55413 28.785672,16.83587 45.087541,15.17357 10.725867,-1.09371 21.059313,-4.98875 30.3118948,-10.5232 9.4493442,-5.65215 17.8049862,-12.97659 25.4933632,-20.85858 13.866182,-14.21536 25.683336,-30.31048 36.43382,-47.00703 17.929403,-27.84611 32.975678,-57.43719 47.398489,-87.2508 13.52708,-27.96204 26.53872,-56.17871 38.65377,-84.78086 19.18149,-45.28515 36.09606,-91.48922 53.55168,-137.46722 9.72623,-25.61884 19.6349,-51.2017 31.39792,-75.95156 3.90799,-8.22258 8.02151,-16.35402 12.60006,-24.22295 4.15252,-7.13674 8.71022,-14.08521 14.26939,-20.1903 4.91911,-5.40218 10.58834,-10.10112 16.68837,-14.12241 6.5292,-4.30421 13.55161,-7.83733 20.815,-10.73558 25.11478,-10.02134 54.24513,-12.13052 78.98131,-1.20804 13.00726,5.74347 24.26214,14.75872 35.15153,23.90188 12.26774,10.30048 24.29354,20.90296 35.71174,32.13781 20.86003,20.52506 39.60968,43.07744 57.99249,65.84784 19.11883,23.6821 37.88787,47.65212 55.95548,72.14565 23.92164,32.4296 46.59961,65.75754 70.21034,98.4142 20.02615,27.69873 40.72324,54.91402 62.14825,81.54548 14.76237,18.34974 29.86989,36.42181 45.31187,54.20343 14.53252,17.66452 30.29858,34.31404 47.14532,49.78714 10.30304,9.46295 21.06495,18.52631 33.02031,25.79057 7.57956,4.60545 15.63177,8.47526 24.08772,11.15049 8.6664,2.74182 17.84877,4.21793 26.87977,3.1859 7.21565,-0.82458 14.18032,-3.22976 20.73412,-6.35917 7.44572,-3.55531 14.62049,-8.23852 19.31571,-15.02335 4.47531,-6.46705 6.37512,-14.36959 7.37845,-22.16988 1.7399,-13.52671 1.04297,-27.29664 -1.18593,-40.75143 z"
         style="fill:none;stroke:#000000;stroke-width:1.131405;stroke-linecap:butt;stroke-linejoin:miter;stroke-miterlimit:4;stroke-dasharray:none;stroke-opacity:1" />
      <path
         sodipodi:nodetypes="csssccssccccccscscsssccssccssscssssssssssccssssssscccccscc"
         inkscape:connector-curvature="0"
         inkscape:original-d="m 913.01207,827.35446 c -79.30396,-976.99352 -3.82236,-17.21086 -9.93522,-31.22418 -5.47067,-12.541 -18.79606,-21.20318 -28.45781,-30.91165 -10.605,-10.65629 -23.83413,-17.00501 -36.3779,-25.30927 C 823.39069,730.078 747.69314,679.39873 732.713,669.7649 677.84544,636.38259 700.42223,644.36499 665.49949,595.15884 646.38911,568.27606 622.42688,534.0029 604.38934,506.39332 579.60309,468.4537 554.26851,432.26741 529.19811,394.51378 c -21.99866,-33.12799 -44.4264,-65.97675 -67.27898,-98.52527 -18.97586,-27.08092 -40.11558,-54.67177 -59.6368,-78.02775 -6.81984,-8.13691 -18.84792,-21.04401 -26.30728,-28.60285 -17.17703,-16.10715 -29.27653,-29.34657 -51.4779,-35.3791 -5.67331,-1.5025 -10.6755,-2.93448 -16.54483,-2.84114 -16.04444,0.79882 -28.54512,2.2046 -41.48859,9.86116 -7.98888,4.79739 -19.27887,13.9705 -25.84488,20.57302 -5.68321,5.71485 -14.82694,19.29406 -19.65623,25.74238 -6.19669,8.18273 -8.99973,17.50297 -13.73922,26.24096 -18.35771,33.84552 -24.6649,67.95531 -38.11731,101.55807 -12.48345,30.91671 -23.87899,66.49903 -37.48754,96.94038 -12.36677,27.66367 -15.33376,57.86185 -35.861412,85.76171 -20.298233,27.58806 -58.387736,52.97123 -30.445681,63.98324 519.596863,204.77317 -34.169299,61.00792 -46.804769,80.22587 -11.6218481,27.55539 -32.62985,22.97267 -27.294707,37.53668 47.957095,109.27891 -20.787588,22.38393 -37.291597,42.82875 -3.09678,3.8362 -24.171282,26.1876 -37.833321,41.47239 -5.71413,6.39285 -10.559946,11.96454 -11.565427,13.76367 -6.257196,12.48541 -15.752786,23.45311 -17.275146,36.35108 -2.16845,26.04261 -5.10431,48.77567 13.25748,65.56617 6.550304,5.98979 16.498194,15.32445 21.275165,17.94917 2.468452,1.35631 5.006692,3.12326 7.180808,4.2633 12.422794,6.51411 20.831138,8.82264 37.59989,6.11076 8.31308,-1.49763 22.629931,-7.0197 30.3118948,-10.5232 9.1800429,-4.1867 17.9347902,-14.18784 25.4933632,-20.85858 15.866456,-14.00276 24.642363,-29.45501 36.43382,-47.00703 18.431141,-27.43545 32.136847,-57.94518 47.398489,-87.2508 14.14176,-27.15519 26.13664,-56.84454 38.65377,-84.78086 12.25934,-27.36103 42.01561,-109.79548 53.55168,-137.46722 18.23863,-43.74941 10.86204,-33.22581 31.39792,-75.95156 3.91303,-8.14119 7.80683,-16.5636 12.60006,-24.22295 4.3712,-6.98485 8.69862,-14.11255 14.26939,-20.1903 4.92208,-5.36988 10.62775,-10.07154 16.68837,-14.12241 6.48844,-4.33687 13.55534,-7.85938 20.815,-10.73558 29.078,-12.39069 53.54365,-16.29433 78.98131,-1.20804 8.1985,5.05878 27.84686,17.62799 35.15153,23.90188 12.34213,10.60021 23.86963,22.61445 34.72754,34.72154 19.67434,21.93786 49.37414,-46.834 55.32027,66.85785 1.54967,29.62968 37.83385,45.37513 54.35116,70.06268 0.93664,1.3999 36.34504,50.18139 37.15093,52.19383 18.39083,45.92511 -29.11899,193.39249 31.33987,45.53352 33.19569,-81.18408 41.06144,54.50341 62.44397,84.14908 13.53506,18.76564 31.17625,39.05594 46.17881,56.6779 17.91499,17.46707 28.92836,34.93205 46.04434,50.21923 9.72162,8.56754 23.71496,22.89128 35.18673,28.93651 12.65053,6.03079 10.09701,10.52988 23.15435,10.26901 14.34988,-0.14573 26.85157,9.89577 37.84038,2.21778 1.34775,-0.96124 16.85859,-8.54189 18.40834,-9.82832 11.88688,-9.86733 15.06135,-21.99562 21.51765,-31.6278 10.64048,-14.42783 2.55387,-26.85281 1.0413,-50.47813 z"
         inkscape:path-effect="#path-effect3786"
         id="path3838"
         d="m 913.01207,827.35446 c -1.92661,-10.8009 -4.66402,-21.60203 -9.93522,-31.22418 -6.77548,-12.3681 -17.38958,-22.17259 -28.45781,-30.91165 -11.59909,-9.1582 -23.89265,-17.40168 -36.3779,-25.30927 -35.72092,-22.62403 -73.33477,-42.73245 -105.52814,-70.14446 -25.54048,-21.74721 -47.1822,-47.69874 -67.21351,-74.60606 -21.45377,-28.81806 -41.19774,-58.86166 -61.11015,-88.76552 -24.90401,-37.40011 -50.09165,-74.6104 -75.19123,-111.87954 -22.21505,-32.98604 -44.36363,-66.02183 -67.27898,-98.52527 -18.87029,-26.76587 -38.28275,-53.19824 -59.6368,-78.02775 -8.44821,-9.82319 -17.1966,-19.39075 -26.30728,-28.60285 -14.80265,-14.96743 -31.29005,-29.4131 -51.4779,-35.3791 -5.37857,-1.5895 -10.9441,-2.5456 -16.54483,-2.84114 -14.38007,-0.75882 -28.87853,2.90783 -41.48859,9.86116 -9.68108,5.33826 -18.24703,12.54227 -25.84488,20.57302 -7.43295,7.85645 -13.98677,16.53206 -19.65623,25.74238 -5.17888,8.41335 -9.61755,17.26226 -13.73922,26.24096 -15.09105,32.87452 -25.95703,67.49046 -38.11731,101.55807 -11.64767,32.6315 -24.50564,64.81635 -37.48754,96.94038 -11.6103,28.72999 -23.32465,57.42373 -35.861412,85.76171 -9.557278,21.60318 -19.593382,43.00071 -30.445681,63.98324 -14.22925,27.51174 -29.857702,54.29974 -46.804769,80.22587 -8.504375,12.93001 -17.61597034,25.46061 -27.294707,37.53668 -11.840708,14.77355 -24.518381,28.85359 -37.291597,42.82875 -12.624305,13.81223 -25.350572,27.5321 -37.833321,41.47239 -3.998945,4.46588 -7.978166,8.96084 -11.565427,13.76367 -8.083636,10.82284 -14.127086,23.21454 -17.275146,36.35108 -2.6946,11.24429 -3.25246,23.04918 -1.12709,34.41482 2.12537,11.36563 6.97576,22.27417 14.38457,31.15135 5.967842,7.15063 13.46307,12.8779 21.275165,17.94917 2.335797,1.5163 4.708639,2.98132 7.180808,4.2633 11.446468,5.93576 24.809701,7.74352 37.59989,6.11076 10.682325,-1.36368 21.031295,-5.0604 30.3118948,-10.5232 9.4909874,-5.58664 17.8223502,-12.95637 25.4933632,-20.85858 13.831107,-14.24796 25.670688,-30.31994 36.43382,-47.00703 17.951687,-27.83218 32.981759,-57.43384 47.398489,-87.2508 13.52122,-27.96484 26.53681,-56.17955 38.65377,-84.78086 19.18454,-45.28388 36.09677,-91.48894 53.55168,-137.46722 9.72583,-25.61899 19.63463,-51.20182 31.39792,-75.95156 3.90808,-8.22253 8.0217,-16.35391 12.60006,-24.22295 4.15236,-7.13686 8.70971,-14.08565 14.26939,-20.1903 4.91951,-5.40174 10.58953,-10.09941 16.68837,-14.12241 6.52813,-4.30617 13.54829,-7.84517 20.815,-10.73558 25.10881,-9.98728 54.1682,-11.90888 78.98131,-1.20804 13.06681,5.63516 24.48934,14.47774 35.15153,23.90188 12.27138,10.84647 23.73667,22.57932 34.72754,34.72154 19.41536,21.44922 37.35845,44.17751 55.32027,66.85785 18.35139,23.17225 36.7437,46.32023 54.35116,70.06268 12.72136,17.15388 25.02827,34.61174 37.15093,52.19383 10.45909,15.16933 20.78215,30.43267 31.33987,45.53352 20.01664,28.63008 40.87336,56.6708 62.44397,84.14908 15.04845,19.16986 30.44477,38.06664 46.17881,56.6779 14.5481,17.45045 29.91893,34.21496 46.04434,50.21923 10.80713,10.72594 22.07193,21.20077 35.18673,28.93651 7.28776,4.29867 15.08921,7.71099 23.15435,10.26901 12.22108,3.87616 25.51906,5.76241 37.84038,2.21778 6.729,-1.93582 12.95139,-5.44102 18.40834,-9.82832 10.0817,-8.10552 17.61121,-19.29574 21.51765,-31.6278 5.13305,-16.20428 4.02618,-33.74441 1.0413,-50.47813 z"
         style="fill:none;stroke:#000000;stroke-width:1.131405;stroke-linecap:butt;stroke-linejoin:miter;stroke-miterlimit:4;stroke-dasharray:none;stroke-opacity:1" />
    </g>
    <path
       sodipodi:nodetypes="ssssssssssssssssssssssssssssssssssssssssssssssss"
       inkscape:connector-curvature="0"
       inkscape:original-d="m -50.6802,292.29202 c 6.56228,-12.00206 11.20796,-11.45306 21.75018,-20.16789 19.29065,-15.94703 39.27913,-31.28202 59.46895,-44.82231 20.38029,-13.66795 34.69545,-29.86576 52.26925,-44.57247 13.49542,-11.29374 19.75783,-19.59474 31.68055,-32.53853 14.86243,-16.13525 28.18124,-35.57438 40.8666,-53.47258 19.05681,-26.8878 36.08683,-52.84912 54.07411,-80.46412 24.71717,-37.94706 -55.45819,-115.1076 72.19672,-113.45168 39.73491,0.51544 46.02253,-82.38126 69.49279,-114.44773 18.47589,-25.24287 28.65542,-47.05602 50.25722,-70.53341 13.87491,-15.0796 30.85626,-28.41834 46.66608,-39.92587 9.98067,-7.26465 33.96509,9.43597 37.43704,-16.35556 1.56514,-11.62676 50.88615,7.30017 57.46181,9.98177 22.60099,9.21696 16.52962,18.81564 29.21691,39.05787 5.66752,9.04238 9.46169,18.45815 13.88878,28.16849 13.47508,29.55664 23.31663,57.48608 35.43813,87.62334 12.43988,30.92855 26.06058,61.48624 39.62216,91.93943 24.51047,55.03947 45.77562,107.91598 74.43515,160.91262 10.93296,20.2169 52.0996,83.16711 37.32537,65.56211 -212.95614,-253.761 -130.87926,-135.246 51.46732,66.81372 23.65059,26.20739 59.79939,56.52146 75.07949,84.318 6.3943,11.63211 7.8051,33.60307 8.1411,45.26728 0.3653,12.68546 -18.0262,15.31016 -23.7218,22.93118 -11.2688,15.0783 -17.4767,8.94342 -35.1053,10.81473 -11.76764,1.24916 -31.36478,-20.52472 -32.97515,-12.72259 C 13.12589,4250.8777 1129.7326,-2933.3638 750.8917,282.13252 747.02701,314.93492 737.56811,258.65941 722.35834,229.34203 708.26454,202.17596 687.28586,165.66041 674.81189,137.7132 662.59485,110.34153 645.68958,80.344 634.19361,52.66162 616.01845,8.89545 604.131,-22.16732 583.66548,-64.91 c -3.89967,-8.14446 -10.08186,-21.97453 -14.85911,-29.63707 -4.3566,-6.98782 -18.50623,-21.85457 -24.0589,-27.93505 -4.90612,-5.37244 -46.58663,-20.63095 -52.63521,-24.67341 -24.54185,-16.40208 -26.93443,4.00698 -50.7387,3.0582 -18.46806,-0.73609 -35.89856,11.51147 -56.84551,29.40049 -12.35166,10.54851 -22.81357,45.53491 -38.82019,42.77169 -68.24301,-11.7808 -35.80891,48.00545 -53.00416,71.89373 -40.76048,56.626 -78.84273,114.43597 -117.88853,172.25809 -20.43874,30.26729 29.39644,73.18077 -39.93545,61.98692 -22.82258,-3.68477 -47.95026,66.1179 -62.91014,83.74269 -9.40407,11.07941 -19.86533,24.25451 -29.82707,34.83521 -6.71634,7.13371 -12.41167,16.02472 -19.75261,22.51372 -9.69337,8.56851 -16.22364,13.2252 -27.50755,19.55294 -15.3712,8.61979 -31.01968,0.99804 -43.84831,-0.91527 -13.72696,-2.04729 -15.402441,-22.52855 -23.355277,-28.58762 -5.543387,-4.22336 -5.226115,-15.81602 -2.40619,-27.29032 2.671616,-10.87081 7.718149,-21.76064 7.637693,-21.77691 -52.819466,-10.68342 -3.491726,12.4018 16.409534,-23.99601 z"
       inkscape:path-effect="#path-effect2993"
       id="path3763"
       d="m -50.6802,292.29202 c 6.570124,-7.40344 14.069239,-13.92445 21.75018,-20.16789 19.2637476,-15.65851 39.78693,-29.69291 59.46895,-44.82231 18.161765,-13.9608 35.605497,-28.85392 52.26925,-44.57247 11.016044,-10.39119 21.69847,-21.15046 31.68055,-32.53853 14.79492,-16.8788 28.00153,-35.08037 40.8666,-53.47258 18.52319,-26.481203 36.38649,-53.417663 54.07411,-80.46412 24.53467,-37.516406 48.73742,-75.253618 72.19672,-113.45168 23.35716,-38.03175 45.97437,-76.51548 69.49279,-114.44773 15.23317,-24.56918 30.93698,-49.0294 50.25722,-70.53341 13.72618,-15.27766 29.26789,-29.01174 46.66608,-39.92587 11.59092,-7.27114 24.0965,-13.31438 37.43704,-16.35556 9.77451,-2.22825 19.96544,-2.81262 29.8683,-1.25072 9.90286,1.5619 19.50914,5.30382 27.59351,11.23249 13.23208,9.70375 21.6342,24.50613 29.21691,39.05787 4.83822,9.28488 9.50723,18.65957 13.88878,28.16849 13.18714,28.61897 23.73247,58.36716 35.43813,87.62334 12.39746,30.98521 26.10069,61.42796 39.62216,91.93943 23.94799,54.0391 47.36055,108.370289 74.43515,160.91262 11.52339,22.36287 23.71391,44.4052 37.32537,65.56211 15.23107,23.67436 32.25209,46.24103 51.46732,66.81372 25.75385,27.57324 55.72031,51.93334 75.07949,84.318 4.08579,6.83484 7.69126,14.05764 9.50393,21.81154 1.81268,7.7539 1.73369,16.11951 -1.36283,23.45574 -2.17796,5.16 -5.76661,9.6413 -9.93696,13.37991 -4.17035,3.73861 -8.92204,6.77237 -13.78484,9.55127 -10.77167,6.15559 -22.70643,11.24845 -35.1053,10.81473 -11.93749,-0.41758 -23.14484,-5.93709 -32.97515,-12.72259 -28.52153,-19.68738 -47.81454,-49.90131 -64.86156,-80.0753 -9.83942,-17.41621 -19.19498,-35.10057 -28.53336,-52.79049 C 706.29412,198.91117 690.27528,168.45372 674.81189,137.7132 660.69231,109.64412 647.03542,81.337811 634.19361,52.66162 616.75919,13.729969 600.83667,-25.861532 583.66548,-64.91 c -4.45252,-10.125329 -9.00808,-20.250238 -14.85911,-29.63707 -6.5268,-10.47097 -14.64584,-19.95791 -24.0589,-27.93505 -14.96373,-12.68108 -33.2817,-21.48519 -52.63521,-24.67341 -16.84317,-2.77467 -34.23629,-1.30776 -50.7387,3.0582 -20.78861,5.49994 -40.34418,15.61202 -56.84551,29.40049 -14.80504,12.37106 -27.02177,27.506379 -38.82019,42.77169 -18.20839,23.55882 -35.67074,47.683893 -53.00416,71.89373 -40.50918,56.579766 -80.34636,113.66757 -117.88853,172.25809 -13.26091,20.69576 -26.23556,41.57909 -39.93545,61.98692 -19.46914,29.0019 -40.39883,57.03317 -62.91014,83.74269 -9.851671,11.68894 -20.003839,23.12236 -29.82707,34.83521 -6.41756,7.65206 -12.706411,15.43628 -19.75261,22.51372 -7.988527,8.02395 -17.0614923,15.18485 -27.50755,19.55294 -6.970126,2.9146 -14.505644,4.54296 -22.060354,4.48037 -7.55471,-0.0626 -15.122726,-1.83864 -21.787956,-5.39564 -11.116315,-5.93239 -19.28844,-16.66174 -23.355277,-28.58762 -2.977104,-8.73027 -3.884238,-18.18559 -2.40619,-27.29032 1.237768,-7.62462 4.106594,-14.90682 7.637693,-21.77691 4.441326,-8.64103 9.96072,-16.72927 16.409534,-23.99601 z"
       style="fill:none;stroke:#000000;stroke-width:1.88976371;stroke-linecap:butt;stroke-linejoin:miter;stroke-miterlimit:4;stroke-dasharray:none;stroke-opacity:1" />
    <path
       style="fill:none;stroke:#000000;stroke-width:1.88976371;stroke-linecap:butt;stroke-linejoin:miter;stroke-miterlimit:4;stroke-dasharray:none;stroke-opacity:1"
       d="m -107.8409,283.97177 c 7.43954,-11.95093 17.534691,-22.05569 28.427912,-30.97248 11.436949,-9.36187 23.81194,-17.51021 36.337158,-25.35669 38.8708138,-24.35081 79.778064,-46.22582 113.75439,-77.03996 22.232777,-20.16357 41.05688,-43.77877 58.79839,-67.98837 21.25785,-29.007892 41.10514,-59.017869 61.04994,-88.94376 24.94628,-37.430291 50.05916,-74.749217 75.1176,-112.10451 22.17816,-33.06157 44.31607,-66.15513 67.21284,-98.72315 18.85174,-26.81443 38.24023,-53.30039 59.57651,-78.18341 8.43864,-9.8414 17.17822,-19.42726 26.27967,-28.65913 14.77719,-14.98894 31.2395,-29.46433 51.4202,-35.44541 5.37127,-1.59192 10.93028,-2.55044 16.52478,-2.84415 14.36483,-0.75414 28.83848,2.94423 41.43533,9.88947 9.68378,5.33913 18.26829,12.53316 25.80914,20.62127 7.37892,7.91443 13.78854,16.69045 19.62723,25.80069 25.64545,40.01518 40.10531,85.94824 57.17069,130.30674 11.86614,30.84397 25.09737,61.14097 38.1127,91.51788 21.54861,50.293005 42.53083,100.864026 66.454,150.07186 13.20263,27.156632 27.32164,53.92929 43.90228,79.16566 8.33717,12.68949 17.28644,24.97412 26.73217,36.8615 11.74337,14.77894 24.25661,28.94681 37.48628,42.41157 18.60691,18.93754 38.78922,36.67334 53.7203,58.62579 7.89705,11.61065 14.28048,24.45216 17.0164,38.22479 4.74255,23.87402 -2.30588,49.75732 -18.3341,68.07553 -8.44858,9.65564 -19.23431,17.25072 -31.1699,21.95727 -11.73566,4.62771 -24.61109,6.45709 -37.13131,4.91256 -10.68124,-1.31767 -21.01385,-5.06417 -30.27238,-10.55096 -9.47512,-5.61514 -17.79772,-12.99372 -25.45801,-20.90748 -13.82279,-14.28016 -25.63878,-30.39189 -36.38026,-47.11353 -17.92426,-27.90331 -32.9316,-57.56637 -47.3242,-87.4449 -13.50117,-28.02796 -26.49497,-56.30569 -38.5908,-84.96819 -19.15369,-45.38693 -36.03632,-91.690963 -53.46087,-137.7694 -9.70843,-25.6735217 -19.59949,-51.311182 -31.34549,-76.11874 -3.90147,-8.239903 -8.00842,-16.389019 -12.58015,-24.27678 -4.14464,-7.1509 -8.69398,-14.114824 -14.2481,-20.23571 -4.9105,-5.411597 -10.57232,-10.12113 -16.66514,-14.15548 -6.51715,-4.31533 -13.52805,-7.8639 -20.78724,-10.76208 -25.06847,-10.00841 -54.10665,-11.93562 -78.88299,-1.22446 -13.05972,5.6459 -24.46599,14.50756 -35.1121,23.94646 -12.26029,10.870049 -23.7153,22.623224 -34.69054,34.78944 -19.51764,21.63559 -37.53173,44.586128 -54.86566,68.00774 -17.79166,24.040101 -34.88051,48.59178 -51.82453,73.23666 -22.88472,33.28557 -45.51121,66.74953 -67.74826,100.47123 -19.8118,30.0439 -39.3349,60.32151 -61.03733,89.02949 -13.92603,18.42136 -28.725113,36.16375 -43.61557,53.81467 -15.014388,17.79783 -30.141752,35.52587 -46.3529,52.24093 -11.663429,12.02598 -24.069577,23.65732 -38.81988,31.60014 -8.672781,4.67016 -18.110283,8.00911 -27.8716,9.32981 -15.592854,2.1097 -31.959376,-1.14192 -45.245658,-9.57179 -14.912522,-9.46168 -25.379402,-24.9476 -31.048332,-41.67393 -9.10519,-26.86509 -6.09344,-57.79332 8.89739,-81.8747 z"
       id="path3840"
       inkscape:path-effect="#path-effect56"
       inkscape:original-d="m -107.8409,283.97177 c 2.25553,13.51715 18.776454,-21.24502 28.427912,-30.97248 10.593738,-10.6771 23.807528,-17.03695 36.337158,-25.35669 14.83376,-9.84966 98.60536,-67.68252 113.75439,-77.03996 54.6232,-33.74034 23.89692,-18.69306 58.79839,-67.98837 19.07809,-26.94615 43.02993,-61.27855 61.04994,-88.94376 24.76218,-38.01607 50.07167,-74.27486 75.1176,-112.10451 21.9772,-33.1946 44.39679,-66.09969 67.21284,-98.72315 18.97098,-27.12563 40.06717,-54.78805 59.57651,-78.18341 6.80456,-8.15995 18.62861,-21.28728 26.27967,-28.65913 16.96288,-16.34388 29.23743,-29.43303 51.4202,-35.44541 5.65871,-1.53374 10.66691,-3.08444 16.52478,-2.84415 16.03101,0.65765 28.52875,2.18152 41.43533,9.88947 7.99769,4.77629 19.25246,14.00349 25.80914,20.62127 5.67513,5.72804 14.77545,19.36009 19.62723,25.80069 30.12455,39.98946 40.22079,87.95667 57.17069,130.30674 12.40961,31.00601 24.52647,61.0093 38.1127,91.51788 24.5551,55.13959 122.58806,127.88619 66.454,150.07186 -518.98774,205.11756 33.33356,58.70931 43.90228,79.16566 13.74928,26.61255 32.85876,22.58315 26.73217,36.8615 -47.13183,109.8433 21.00637,21.92038 37.48628,42.41157 4.3856,5.45307 50.5008,52.41227 53.7203,58.62579 6.4342,12.418 15.7947,25.2677 17.0164,38.22479 2.4582,26.07213 0.011,51.25252 -18.3341,68.07553 -6.5433,6.00138 -26.3985,19.32779 -31.1699,21.95727 -16.5542,9.12263 -17.4702,8.21438 -37.13131,4.91256 -8.32079,-1.39736 -22.60059,-7.03864 -30.27238,-10.55096 -9.16789,-4.19722 -17.91002,-14.2212 -25.45801,-20.90748 -15.8443,-14.03536 -24.60655,-29.52205 -36.38026,-47.11353 -18.40342,-27.49711 -32.08668,-58.07419 -47.3242,-87.4449 -14.1194,-27.2155 -26.09416,-56.97014 -38.5908,-84.96819 C 637.22479,137.7468 607.52002,55.13162 596.00318,27.39887 577.79494,-16.44691 585.1605,-5.89944 564.65769,-48.71987 c -3.90673,-8.15927 -7.79423,-16.6003 -12.58015,-24.27678 -4.36452,-7.00052 -8.68532,-14.14418 -14.2481,-20.23571 -4.91499,-5.38222 -10.61275,-10.09484 -16.66514,-14.15548 -6.47958,-4.34727 -13.59797,-7.7299 -20.78724,-10.76208 -29.10249,-12.27436 -53.53974,-16.448 -78.88299,-1.22446 -8.25565,4.9591 -27.81539,17.6606 -35.1121,23.94646 -12.32868,10.62068 -23.84397,22.65843 -34.69054,34.78944 -19.65377,21.98116 -37.63915,44.07601 -54.86566,68.00774 -17.37027,24.13146 -35.32337,48.49942 -51.82453,73.23666 -22.29029,33.41586 -45.271,67.18508 -67.74826,100.47123 -20.47586,30.32232 -39.67603,59.32441 -61.03733,89.02949 -13.52156,18.8032 -27.79554,36.9001 -43.61557,53.81467 -17.09821,18.28117 -29.2188,36.96521 -46.3529,52.24093 -9.67453,8.62521 -27.23731,25.7847 -38.81988,31.60014 -12.51676,6.28449 -14.82931,9.52626 -27.8716,9.32981 -14.33118,-0.21585 -34.310629,-1.82044 -45.245658,-9.57179 -11.707823,-8.29914 -31.923392,-28.58129 -31.048332,-41.67393 21.424075,-320.54798 -75.19602,-585.83799 8.89739,-81.8747 z"
       inkscape:connector-curvature="0"
       sodipodi:nodetypes="sssssssssssssssssssssssssssssssssssssssssssssssssss" />
    <path
       sodipodi:nodetypes="sssssssssssssssssssssssssssssssssssssssssssssss"
       inkscape:connector-curvature="0"
       inkscape:original-d="m -50.49337,273.05546 c 10.73106,-10.53908 11.87606,-10.73388 24.4057,-19.0536 6.04049,-4.01091 8.68172,-3.21445 31.64566,-21.51011 33.42909,-26.63338 88.99259,-76.30419 97.98325,-81.83413 54.68707,-33.63674 3.28176,1.85222 38.18324,-47.44309 19.07809,-26.94614 129.00821,-60.34903 68.60268,-99.21787 -38.15326,-24.5503 46.40272,-73.6088 71.44865,-111.43846 21.9772,-33.19459 40.99346,-69.88326 63.80951,-102.50672 18.97098,-27.12563 36.93339,-55.97128 56.44274,-79.36664 6.80456,-8.15995 23.18262,-21.33494 30.94555,-28.58887 2.99383,-2.79752 43.11238,-25.82077 47.39017,-27.41582 38.21027,-14.24735 66.29168,7.66832 73.17235,14.60118 5.68007,5.72314 13.86109,15.62697 18.71287,22.06757 30.12455,39.98946 41.12061,92.18531 58.07051,134.53537 12.40961,31.00602 24.37379,59.66345 37.96002,90.17202 24.5551,55.1396 124.25348,128.05382 68.11942,150.23949 -518.98774,205.11756 29.61364,53.10378 40.18235,73.56013 13.74928,26.61254 34.31596,26.36107 28.18937,40.63941 -47.13183,109.84331 20.85686,21.77088 37.33674,42.26207 4.3856,5.45307 51.0342,53.77795 54.2536,59.99148 6.4342,12.41799 10.3552,54.77649 11.5769,67.73358 2.4582,26.07213 1.1727,-1.32505 -17.1692,15.49796 -6.5433,6.00138 -35.1803,14.75461 -40.6142,15.14603 -126.64736,9.12263 -18.46453,16.02031 -21.87548,-3.62213 -8.88126,-51.14405 -37.01962,-34.89825 -58.73066,-48.66242 -78.11659,-49.52368 -45.94526,-80.0362 -59.12696,-105.44927 -14.11719,-27.21664 -28.94958,-55.1983 -41.44622,-83.19635 C 656.73593,112.7748 621.47471,39.35371 609.95786,11.62096 c -18.20824,-43.84578 -17.73619,-33.84267 -38.23901,-76.66309 -3.90674,-8.15927 -12.46507,-20.4154 -17.25099,-28.09188 -4.36453,-7.00053 -12.01723,-12.85228 -17.58,-18.94382 -4.915,-5.38222 -11.8213,-8.16356 -17.87367,-12.2242 -6.47959,-4.34728 -17.08304,-5.88016 -24.27231,-8.91233 -29.10247,-12.27437 -52.06638,-6.44021 -77.40963,8.78331 -8.25564,4.95912 -27.30403,17.65352 -34.60075,23.93936 -12.32867,10.6207 -22.77865,25.71232 -33.62521,37.84333 -19.65379,21.98116 -35.05401,46.08589 -52.28052,70.01762 -17.37027,24.13146 -35.32337,48.49942 -51.82453,73.23666 -22.29029,33.41586 -45.271,67.18508 -67.74826,100.47123 -20.47586,30.32232 -39.67603,59.32441 -61.03733,89.02949 -13.52156,18.8032 -27.79554,36.9001 -43.61557,53.81467 -17.09821,18.28117 -29.2188,36.96521 -46.3529,52.24093 -9.67453,8.62521 -29.35373,20.69963 -40.93631,26.51508 -12.51674,6.28448 -18.01103,1.38729 -31.05332,1.19085 -14.33119,-0.21586 -20.792852,-16.42493 -31.727883,-24.17629 -11.707823,-8.29914 -14.010702,-29.49539 -8.642232,-41.4688 22.444232,-50.05782 -13.30733,-17.11645 35.619195,-65.16762 z"
       inkscape:path-effect="#path-effect3982"
       id="path3900"
       d="m -50.49337,273.05546 c 7.618989,-6.97311 15.948391,-13.1251 24.4057,-19.0536 10.444296,-7.32136 21.1086732,-14.32279 31.64566,-21.51011 35.235213,-24.03409 69.237442,-50.32483 97.98325,-81.83413 13.68775,-15.00363 26.11139,-31.11111 38.18324,-47.44309 23.90305,-32.338385 46.4895,-65.630158 68.60268,-99.21787 24.26475,-36.855723 47.96747,-74.078635 71.44865,-111.43846 21.41761,-34.07659 42.65166,-68.26824 63.80951,-102.50672 17.09463,-27.66322 34.2917,-55.55883 56.44274,-79.36664 9.57398,-10.29006 20.01726,-19.75038 30.94555,-28.58887 14.28431,-11.55274 29.76543,-22.23164 47.39017,-27.41582 12.43946,-3.65897 25.74733,-4.44812 38.48133,-2.00403 12.73399,2.44409 24.86501,8.14486 34.69102,16.60521 7.33078,6.31192 13.30603,14.04594 18.71287,22.06757 27.37503,40.61381 40.80928,88.69954 58.07051,134.53537 11.49492,30.52386 24.82163,60.31868 37.96002,90.17202 22.15151,50.333165 43.80311,100.91572 68.11942,150.23949 12.35949,25.070275 25.4158,49.82778 40.18235,73.56013 8.71388,14.00468 18.02339,27.65035 28.18937,40.63941 11.59079,14.80953 24.27108,28.7359 37.33674,42.26207 18.75002,19.41089 38.41516,38.13994 54.2536,59.99148 7.17149,9.89416 13.61122,20.59803 16.50903,32.46932 1.4489,5.93564 1.98519,12.1225 1.24829,18.18783 -0.7369,6.06532 -2.77003,12.00687 -6.18042,17.07643 -4.33281,6.44074 -10.6787,11.24004 -17.1692,15.49796 -12.23934,8.02929 -25.98211,14.73028 -40.6142,15.14603 -7.42782,0.21105 -14.84411,-1.21863 -21.87548,-3.62213 -24.43811,-8.35356 -43.40979,-27.87122 -58.73066,-48.66242 -23.93961,-32.48728 -41.20378,-69.29283 -59.12696,-105.44927 -13.76079,-27.75964 -27.99776,-55.28406 -41.44622,-83.19635 -20.46958,-42.484636 -39.0949,-85.831367 -59.01733,-128.57531 -12.06588,-25.887575 -24.61187,-51.562232 -38.23901,-76.66309 -5.24756,-9.665867 -10.67462,-19.276142 -17.25099,-28.09188 -5.16164,-6.91927 -11.02297,-13.32917 -17.58,-18.94382 -5.49401,-4.70441 -11.47668,-8.84867 -17.87367,-12.2242 -7.64384,-4.03346 -15.85407,-6.95522 -24.27231,-8.91233 -25.78394,-5.99435 -53.55797,-2.69895 -77.40963,8.78331 -12.68275,6.10552 -24.23389,14.41793 -34.60075,23.93936 -12.44223,11.427554 -23.18541,24.561436 -33.62521,37.84333 -18.00122,22.901813 -35.24025,46.392079 -52.28052,70.01762 -17.49474,24.25565 -34.78428,48.65959 -51.82453,73.23666 -23.01581,33.19559 -45.57626,66.7062 -67.74826,100.47123 -19.75433,30.08323 -39.22488,60.40344 -61.03733,89.02949 -13.99543,18.36721 -28.925684,35.998 -43.61557,53.81467 -14.819901,17.97436 -29.455255,36.20421 -46.3529,52.24093 -11.898829,11.29259 -25.26737542,21.6582 -40.93631,26.51508 -10.022427,3.10664 -20.896975,3.82693 -31.05332,1.19085 -13.19602,-3.42502 -24.670773,-12.51169 -31.727883,-24.17629 -7.436369,-12.29147 -10.049188,-27.17193 -8.642232,-41.4688 2.479721,-25.19783 16.9414,-48.07319 35.619195,-65.16762 z"
       style="fill:none;stroke:#000000;stroke-width:1.1338582;stroke-linecap:butt;stroke-linejoin:miter;stroke-miterlimit:4;stroke-dasharray:none;stroke-opacity:1" />
    <path
       sodipodi:nodetypes="ssssssssssssssssssssssssssssssssssssssssssssssssss"
       inkscape:connector-curvature="0"
       inkscape:original-d="m -97.497699,338.38123 c 175.901979,-966.39402 -2.550081,-30.14449 9.294014,-39.85027 21.255836,-17.41835 34.330295,-41.49244 55.333535,-54.15237 16.94556,-10.21413 40.08921,-22.38014 60.15317,-38.74848 24.22957,-19.76669 45.90588,-43.18138 65.8106,-55.33882 54.79183,-33.46583 10.82964,-5.36362 45.7311,-54.65893 C 157.9028,68.6862 -873.52954,-2186.894 202.40829,2.56707 c 20.00976,40.7185 47.85621,-72.7122 72.90215,-110.54186 21.97718,-33.19459 146.78906,-44.85141 65.81444,-103.42255 -26.82048,-19.39998 37.27889,-55.80367 56.78822,-79.19903 6.80457,-8.15995 23.41683,-23.54925 31.06788,-30.9211 16.96288,-16.34388 27.43215,-31.22333 50.31613,-29.09088 149.95384,13.97352 -51.87743,-234.55424 51.10033,0.56134 9.36226,21.37562 29.41435,25.78337 43.13275,44.06919 9.43964,12.58249 15.78656,28.20345 22.12981,41.92132 13.84673,29.94488 23.41627,59.34081 35.04088,88.38542 12.40962,31.006 24.52645,61.00931 38.1127,91.51788 24.55507,55.1396 122.58807,127.88621 66.454,150.07186 -518.98773,205.11758 33.33356,58.70931 43.90228,79.16566 13.74928,26.61255 32.85876,22.58315 26.73217,36.8615 -47.13183,109.8433 21.00636,21.92039 37.48628,42.41157 4.3856,5.45308 50.5008,52.41228 53.7203,58.62579 6.4342,12.41801 11.7624,55.5182 12.984,68.47528 2.4583,26.07214 -12.2997,-4.04895 -18.0815,20.15867 -6.5432,27.39555 -37.6986,21.48469 -41.8566,17.96452 -35.39562,-29.96541 -29.97822,5.93581 -69.31588,-33.61705 -28.10321,-28.25695 -88.75374,-68.84319 -45.98362,-67.15447 1338.73909,52.85809 -17.1164,-32.56796 -32.35392,-61.93867 C 688.3817,199.65596 745.05837,80.59148 659.95527,140.75843 635.4354,158.0937 572.85186,49.1558 602.6899,14.53059 c 30.9924,-35.96477 -3.70142,-4.75281 -24.20423,-47.57324 -3.90673,-8.15928 -29.96144,-46.76202 -34.74738,-54.4385 -4.36452,-7.00052 -7.08669,-6.55696 -12.64945,-12.6485 -4.91501,-5.38221 -11.63853,-2.20701 -12.83472,-9.39652 -2.4635,-14.80652 -10.51522,-5.6008 -17.71491,-8.60813 -14.4454,-6.03388 -28.27561,-10.84242 -40.66332,-8.5029 -12.60541,2.38063 -25.61965,-0.44817 -38.38182,7.26282 -8.24283,4.98037 -27.81539,17.6606 -35.1121,23.94646 -12.32868,10.62068 -24.34822,23.17688 -35.19478,35.30789 -19.65378,21.98115 -36.38565,42.26854 -53.61216,66.20027 -17.37027,24.13146 -34.81911,47.98096 -51.32027,72.71821 -22.29029,33.41585 -45.7788,67.44785 -68.25606,100.73399 -20.47587,30.32233 -40.42177,60.8691 -61.78305,90.5742 -13.52158,18.80318 -27.79554,36.9001 -43.61557,53.81467 -17.09821,18.28117 -29.2188,36.96521 -46.3529,52.24093 -9.67453,8.62521 -28.11717,39.17732 -37.14709,29.88023 -18.52175,-19.06975 -16.31035,6.64048 -29.35263,6.44404 -14.33119,-0.21586 -24.690913,-8.85859 -35.625943,-16.60995 -11.707822,-8.29914 -32.036327,-31.98463 -18.930671,-32.63621 721.965274,-35.89426 -43.764076,200.80714 -2.688545,-24.85912 z"
       inkscape:path-effect="#path-effect3979"
       id="path3902"
       d="m -97.497699,338.38123 c 0.319668,-13.74458 3.210331,-27.52126 9.294014,-39.85027 11.561806,-23.4308 33.478137,-39.83387 55.333535,-54.15237 19.952012,-13.07151 40.530617,-25.18742 60.15317,-38.74848 23.616547,-16.3213 45.823137,-34.73233 65.8106,-55.33882 16.55149,-17.0641 31.54107,-35.58596 45.7311,-54.65893 22.42955,-30.147791 42.89274,-61.698686 63.58357,-93.06529 24.30463,-36.845014 48.94647,-73.46902 72.90215,-110.54186 22.17743,-34.32089 43.76299,-69.02058 65.81444,-103.42255 17.54656,-27.37398 35.4607,-54.65614 56.78822,-79.19903 9.59362,-11.03997 19.87082,-21.5113 31.06788,-30.9211 14.92991,-12.54682 31.70022,-23.27944 50.31613,-29.09088 16.6019,-5.18272 35.07933,-6.20705 51.10033,0.56134 9.63227,4.06934 17.988,10.77635 24.99999,18.53341 7.012,7.75706 12.75507,16.56803 18.13276,25.53578 8.13031,13.55797 15.49856,27.57047 22.12981,41.92132 13.29691,28.77619 23.59581,58.82383 35.04088,88.38542 11.93164,30.81834 25.1191,61.13202 38.1127,91.51788 21.5129,50.308487 42.51822,100.869955 66.454,150.07186 13.20945,27.153075 27.33179,53.92288 43.90228,79.16566 8.33222,12.69295 17.27367,24.98407 26.73217,36.8615 11.75859,14.76574 24.31504,28.89084 37.48628,42.41157 18.51808,19.00945 38.37702,36.97256 53.7203,58.62579 7.07014,9.97775 13.19193,20.83925 16.12501,32.71103 2.93308,11.87179 2.45259,24.88978 -3.14101,35.76425 -4.16251,8.0923 -10.8849,14.58904 -18.0815,20.15867 -12.17885,9.42551 -26.50369,16.75918 -41.8566,17.96452 -13.24679,1.03999 -26.60104,-2.57242 -38.31919,-8.83692 -11.71816,-6.2645 -21.90546,-15.08948 -30.99669,-24.78013 C 762.227,336.12582 747.9937,312.62914 734.85501,288.81013 723.60385,268.41301 713.04973,247.6406 702.50109,226.87146 688.00199,198.32427 673.50548,169.76804 659.95527,140.75843 640.40104,98.89482 622.83072,56.115167 602.6899,14.53059 c -7.75599,-16.0137295 -15.88946,-31.842394 -24.20423,-47.57324 -10.08358,-19.077286 -20.55357,-38.185582 -34.74738,-54.4385 -3.92554,-4.495025 -8.12525,-8.756615 -12.64945,-12.6485 -4.02402,-3.46162 -8.30473,-6.62981 -12.83472,-9.39652 -5.61028,-3.4265 -11.58704,-6.22792 -17.71491,-8.60813 -12.97422,-5.0395 -26.74773,-8.21413 -40.66332,-8.5029 -13.11851,-0.27223 -26.33788,2.0558 -38.38182,7.26282 -13.05959,5.64612 -24.46535,14.50832 -35.1121,23.94646 -12.44152,11.029165 -24.05495,22.965367 -35.19478,35.30789 -19.0328,21.087634 -36.70133,43.375732 -53.61216,66.20027 -17.66271,23.83935 -34.50726,48.272174 -51.32027,72.71821 -22.98484,33.41985 -45.91979,66.87722 -68.25606,100.73399 -20.12935,30.51157 -39.79225,61.37572 -61.78305,90.5742 -13.89311,18.4467 -28.689377,36.19343 -43.61557,53.81467 -15.049427,17.76673 -30.247594,35.42543 -46.3529,52.24093 -11.051219,11.53854 -22.7918583,22.86633 -37.14709,29.88023 -9.100941,4.44668 -19.24203,7.05708 -29.35263,6.44404 -13.358537,-0.80997 -26.030833,-7.2804 -35.625943,-16.60995 -9.127574,-8.87495 -15.674042,-20.32883 -18.930671,-32.63621 -2.139146,-8.08422 -2.882984,-16.49894 -2.688545,-24.85912 z"
       style="fill:none;stroke:#000000;stroke-width:1.1338582;stroke-linecap:butt;stroke-linejoin:miter;stroke-miterlimit:4;stroke-dasharray:none;stroke-opacity:1" />
    <path
       sodipodi:nodetypes="ssssssssssssssssssssssssssssssssssssssssssssssss"
       inkscape:connector-curvature="0"
       inkscape:original-d="m -107.8409,283.97177 c 2.25553,13.51715 18.776454,-21.24502 28.427912,-30.97248 10.593738,-10.6771 23.807528,-17.03695 36.337158,-25.35669 14.83376,-9.84966 98.60536,-67.3054 113.75439,-76.66284 54.6232,-33.74034 23.14267,-18.69306 58.04414,-67.98837 19.07809,-26.94615 45.6698,-63.54129 63.68982,-91.2065 24.76217,-38.01607 54.22003,-81.4402 79.26596,-119.26986 21.97719,-33.1946 39.49417,-59.31146 62.31022,-91.93492 18.97098,-27.12563 38.9358,-52.52531 58.44514,-75.92067 6.80456,-8.15995 20.89135,-22.79577 28.54241,-30.16762 16.96288,-16.34388 28.86031,-28.30166 51.04308,-34.31404 5.65871,-1.53374 9.91266,-1.95307 15.77053,-1.71278 16.03101,0.65765 27.39738,1.42727 40.30396,9.13522 7.99769,4.77629 19.25246,14.00349 25.80914,20.62127 5.67513,5.72804 14.77545,19.36009 19.62723,25.80069 30.12455,39.98946 40.22079,87.95667 57.17069,130.30674 12.40961,31.00601 24.52647,61.0093 38.1127,91.51788 24.5551,55.13959 122.58806,127.88619 66.454,150.07186 -518.98774,205.11756 33.33356,58.70931 43.90228,79.16566 13.74928,26.61255 32.85876,22.58315 26.73217,36.8615 -47.13183,109.8433 21.00637,21.92038 37.48628,42.41157 4.3856,5.45307 50.5008,52.41227 53.7203,58.62579 6.4342,12.418 15.7947,25.2677 17.0164,38.22479 2.4582,26.07213 -3.7227,48.58585 -22.0674,65.40886 -6.5433,6.00138 -36.708,18.23469 -41.9031,19.87524 -28.71055,9.06634 -56.85061,-12.55707 -76.26187,-29.79717 -15.82607,-14.05593 -21.40655,-26.8554 -33.18025,-44.44688 -18.40343,-27.4971 -31.55336,-55.94085 -46.79087,-85.31156 -14.1194,-27.2155 -30.36083,-62.03681 -42.85747,-90.03486 -12.23926,-27.42147 -43.93774,-102.78423 -55.32753,-130.56939 -1.93259,-4.71452 -27.18626,-67.12885 -29.32629,-71.54969 -16.83528,-34.77809 -14.48241,-5.97449 -25.11412,-44.54821 -6.14649,-22.30052 -14.07942,-13.56151 -20.13181,-17.62215 -6.47959,-4.34726 -13.59797,-7.7299 -20.78724,-10.76208 -29.10249,-12.27436 -53.53974,-16.448 -78.88299,-1.22446 -8.25565,4.9591 -27.81539,17.6606 -35.1121,23.94646 -12.32868,10.62068 -23.84397,22.65843 -34.69054,34.78944 -19.65377,21.98116 -37.63915,44.07601 -54.86566,68.00774 -17.37027,24.13146 -35.32337,48.49942 -51.82453,73.23666 -22.29029,33.41586 -45.271,67.18508 -67.74826,100.47123 -20.47586,30.32232 -39.67603,59.32441 -61.03733,89.02949 -13.52156,18.8032 -27.79554,36.9001 -43.61557,53.81467 -17.09821,18.28117 -29.2188,36.96521 -46.3529,52.24093 -9.67453,8.62521 -27.23731,25.7847 -38.81988,31.60014 -12.51676,6.28449 -14.82931,9.52626 -27.8716,9.32981 -14.33118,-0.21585 -34.310629,-1.82044 -45.245658,-9.57179 -11.707823,-8.29914 -31.923392,-28.58129 -31.048332,-41.67393 21.424075,-320.54798 -75.19602,-585.83799 8.89739,-81.8747 z"
       inkscape:path-effect="#path-effect3989"
       id="path4743"
       d="m -107.8409,283.97177 c 7.44129,-11.94958 17.538808,-22.05101 28.427912,-30.97248 11.433041,-9.36712 23.798784,-17.53067 36.337158,-25.35669 38.856782,-24.25305 79.986028,-45.71518 113.75439,-76.66284 22.004658,-20.16659 40.3827,-43.92658 58.04414,-67.98837 21.9429,-29.894801 42.96326,-60.455894 63.68982,-91.2065 26.68036,-39.583868 52.87945,-79.48951 79.26596,-119.26986 20.46398,-30.85154 41.04319,-61.63137 62.31022,-91.93492 18.35629,-26.15602 37.25902,-51.99915 58.44514,-75.92067 9.1796,-10.3648 18.77535,-20.35443 28.54241,-30.16762 7.33274,-7.36738 14.79589,-14.66471 23.17147,-20.82076 8.37559,-6.15606 17.73985,-11.17059 27.87161,-13.49328 5.16404,-1.18385 10.47282,-1.65771 15.77053,-1.71278 13.91602,-0.14465 27.9832,2.66411 40.30396,9.13522 9.79714,5.14566 18.3083,12.485 25.80914,20.62127 7.33351,7.95476 13.76796,16.70522 19.62723,25.80069 25.74044,39.95746 40.1276,85.93668 57.17069,130.30674 11.84997,30.85027 25.09245,61.14299 38.1127,91.51788 21.5567,50.289516 42.53015,100.864379 66.454,150.07186 13.20298,27.156401 27.325,53.92714 43.90228,79.16566 8.33552,12.69064 17.28176,24.97776 26.73217,36.8615 11.74894,14.77411 24.27819,28.92609 37.48628,42.41157 18.57396,18.96405 38.63601,36.78336 53.7203,58.62579 7.98734,11.56586 14.5653,24.38431 17.0164,38.22479 2.09027,11.80301 1.08422,24.12637 -2.78405,35.47171 -3.86827,11.34535 -10.58057,21.69446 -19.28335,29.93715 -11.415,10.81153 -26.29949,17.94685 -41.9031,19.87524 -14.01558,1.73213 -28.40646,-0.69645 -41.44731,-6.11613 C 795.66635,394.95627 783.94519,386.61372 773.89264,376.6949 760.69838,363.67616 750.38392,348.0606 740.71239,332.24802 723.78448,304.57154 708.51413,275.91227 693.92152,246.93646 678.97,217.24798 664.71904,187.20829 651.06405,156.9016 631.64503,113.80188 613.43332,70.167215 595.73652,26.33221 586.08703,2.4304144 576.58849,-21.536019 566.41023,-45.21748 c -6.75841,-15.724604 -13.96569,-31.56161 -25.11412,-44.54821 -5.82791,-6.788827 -12.66233,-12.69674 -20.13181,-17.62215 -6.52508,-4.30267 -13.53059,-7.85851 -20.78724,-10.76208 -25.06231,-10.02808 -54.1068,-11.93996 -78.88299,-1.22446 -13.0588,5.64783 -24.46564,14.50807 -35.1121,23.94646 -12.26077,10.869522 -23.71547,22.623057 -34.69054,34.78944 -19.51732,21.635873 -37.53164,44.586202 -54.86566,68.00774 -17.79176,24.04003 -34.88054,48.591759 -51.82453,73.23666 -22.88468,33.28559 -45.5112,66.74954 -67.74826,100.47123 -19.81181,30.0439 -39.3349,60.32151 -61.03733,89.02949 -13.92603,18.42136 -28.725112,36.16375 -43.61557,53.81467 -15.01439,17.79783 -30.141755,35.52586 -46.3529,52.24093 -11.663427,12.02598 -24.0695716,23.65733 -38.81988,31.60014 -8.672784,4.67016 -18.110286,8.00909 -27.8716,9.32981 -15.592859,2.10973 -31.95944,-1.1418 -45.245658,-9.57179 -14.912402,-9.46179 -25.378852,-24.94783 -31.048332,-41.67393 -9.10622,-26.86517 -6.09741,-57.79532 8.89739,-81.8747 z"
       style="fill:none;stroke:#000000;stroke-width:1.1338582;stroke-linecap:butt;stroke-linejoin:miter;stroke-miterlimit:4;stroke-dasharray:none;stroke-opacity:1" />
    <path
       sodipodi:nodetypes="ssssssssssssssssssssssssssssssssssssssssssssssss"
       inkscape:connector-curvature="0"
       inkscape:original-d="m -108.88284,338.53937 c 40.446607,-501.36919 7.38889,-38.06014 14.379609,-51.68418 11.542938,-22.49573 35.986451,-37.88112 56.282381,-51.32151 6.48479,-4.29437 30.39419,-16.44684 52.97195,-32.64763 29.11056,-20.88841 58.34025,-46.92729 66.88287,-52.17986 54.69219,-33.6284 -75.53894,-145.65693 57.51741,-68.75312 28.58507,16.52158 35.26316,-49.73772 53.28317,-77.40291 24.76218,-38.01609 124.05235,-112.47699 78.67431,-118.96011 -39.41034,-5.63053 13.66514,-22.22903 36.48118,-54.85249 18.97099,-27.12563 40.63286,-64.78183 60.1422,-88.17719 6.80456,-8.15995 46.72432,-56.17121 54.37538,-63.54306 16.96288,-16.34389 24.6318,-26.67715 47.05616,-31.71416 22.34782,-5.01982 47.2523,-4.38565 47.54392,-4.21141 7.99668,4.778 30.63858,18.51191 37.19526,25.12969 5.67513,5.72805 14.77545,19.3601 19.62723,25.8007 30.12455,39.98946 40.22079,87.95667 57.17069,130.30674 12.40961,31.006 24.52647,61.0093 38.1127,91.51788 24.5551,55.13959 122.58806,127.88618 66.454,150.07186 -518.98774,205.11755 33.33356,58.70931 43.90228,79.16566 13.74928,26.61255 32.85876,22.58315 26.73217,36.86149 -47.13183,109.84331 21.00637,21.92039 37.48628,42.41158 4.3856,5.45306 50.5008,52.41226 53.7203,58.62579 6.4342,12.41799 12.5947,58.8677 13.8164,71.82479 2.4582,26.07213 0.6801,10.80002 -20.1075,24.48644 -26.0142,17.12765 -35.4781,17.06987 -40.663,18.74245 -35.6154,11.48893 -64.98873,-27.3198 -85.98218,-46.49676 -15.62803,-14.27579 -34.07829,-58.14643 -45.852,-75.73791 C 699.91691,248.30503 700.90797,262.29726 693.61615,230.02266 679.49675,167.52821 671.16766,185.33065 658.67102,157.3326 646.43174,129.91114 609.05208,48.11669 597.68847,20.3208 594.14384,11.65048 566.66836,-42.76955 564.572,-48.47795 c -10.25273,-27.91829 15.69336,19.95673 -14.50587,-28.10462 -4.3891,-6.98514 -10.97086,-14.3772 -16.12256,-20.82011 -11.42985,-14.29461 -19.91697,-15.17846 -35.18579,-21.52882 -29.1633,-12.12915 -51.92046,-15.66647 -77.26371,-0.44294 -8.25565,4.95911 -27.81539,17.66061 -35.1121,23.94647 -12.32868,10.62068 -23.84397,22.65843 -34.69054,34.78944 -19.65377,21.98121 -37.63915,44.07606 -54.86566,68.00779 -17.37027,24.13146 -35.32337,48.49942 -51.82453,73.23666 -22.29029,33.41586 -45.271,67.18508 -67.74826,100.47123 -20.47586,30.32232 -39.67603,59.32441 -61.03733,89.02949 -13.52156,18.8032 -27.79554,36.9001 -43.61557,53.81467 -17.09821,18.28117 -29.2188,36.96521 -46.3529,52.24093 -9.67453,8.62521 -27.23731,25.7847 -38.81988,31.60014 -12.51676,6.28449 -14.82931,9.52626 -27.8716,9.32981 -14.33118,-0.21585 -30.989093,-8.39229 -41.924123,-16.14364 -11.707823,-8.29915 -16.611633,-28.01666 -24.179207,-38.73649 -10.34859,-14.65928 -42.7818,477.69652 -2.33521,-23.67269 z"
       inkscape:path-effect="#path-effect3842"
       id="path3904"
       d="m -108.88284,338.53937 c 0.446,-18.07599 5.09418,-36.16899 14.379609,-51.68418 13.161632,-21.992 34.640592,-37.59163 56.282381,-51.32151 17.514759,-11.11163 35.5315702,-21.41962 52.97195,-32.64763 23.815406,-15.33222 46.590863,-32.41917 66.88287,-52.17986 21.43308,-20.87189 39.92737,-44.55388 57.51741,-68.75312 18.41834,-25.338768 35.9219,-51.328499 53.28317,-77.40291 26.34814,-39.571543 52.37918,-79.353326 78.67431,-118.96011 12.14551,-18.29406 24.34732,-36.55071 36.48118,-54.85249 19.66154,-29.65596 39.15445,-59.44452 60.1422,-88.17719 16.46893,-22.54632 33.93554,-44.52267 54.37538,-63.54306 13.92633,-12.95922 29.40641,-24.61695 47.05616,-31.71416 15.03203,-6.04459 31.95002,-8.60793 47.54392,-4.21141 14.58963,4.11338 26.94807,13.95954 37.19526,25.12969 7.3136,7.97233 13.75897,16.71168 19.62723,25.8007 25.78193,39.93217 40.13736,85.93161 57.17069,130.30674 11.84289,30.85302 25.09025,61.14389 38.1127,91.51788 21.5603,50.287961 42.53017,100.864384 66.454,150.07186 13.20297,27.156391 27.326,53.92651 43.90228,79.16566 8.33504,12.69098 17.28036,24.97885 26.73217,36.86149 11.75062,14.77265 24.28472,28.91984 37.48628,42.41158 18.56403,18.97208 38.58989,36.81676 53.7203,58.62579 7.26967,10.47852 13.39319,21.93489 16.37252,34.33534 2.97934,12.40044 2.64136,25.84326 -2.55612,37.48945 -4.34444,9.73476 -11.82931,17.76995 -20.1075,24.48644 -11.74195,9.52681 -25.65997,16.86027 -40.663,18.74245 -16.92587,2.1234 -34.24611,-2.87662 -48.83741,-11.71335 -14.59131,-8.83673 -26.67294,-21.31735 -37.14477,-34.78341 -18.13939,-23.32601 -31.7895,-49.74971 -45.852,-75.73791 -8.25227,-15.25061 -16.68187,-30.40666 -24.70418,-45.77948 C 681.17647,206.18502 669.72521,181.84349 658.67102,157.3326 638.11878,111.76132 618.92528,65.577118 597.68847,20.3208 586.8764,-2.7200632 575.53928,-25.510559 564.572,-48.47795 c -4.54486,-9.51774 -9.03701,-19.086045 -14.50587,-28.10462 -4.56351,-7.525578 -9.82203,-14.674931 -16.12256,-20.82011 -9.91387,-9.66942 -22.22386,-16.65328 -35.18579,-21.52882 -24.71028,-9.2946 -53.02806,-10.91294 -77.26371,-0.44294 -13.0613,5.64259 -24.4666,14.50667 -35.1121,23.94647 -12.25946,10.870964 -23.71498,22.623535 -34.69054,34.78944 -19.51825,21.635077 -37.53214,44.585846 -54.86566,68.00779 -17.79123,24.040418 -34.87943,48.592531 -51.82453,73.23666 -22.88619,33.28457 -45.51737,66.74545 -67.74826,100.47123 -19.80641,30.04768 -39.31606,60.33553 -61.03733,89.02949 -13.9379,18.41207 -28.761016,36.13384 -43.61557,53.81467 -14.979313,17.82933 -30.016271,35.64638 -46.3529,52.24093 -11.743282,11.92869 -24.2784988,23.30879 -38.81988,31.60014 -8.586038,4.89567 -18.006975,8.71593 -27.8716,9.32981 -7.667464,0.47715 -15.401326,-1.01453 -22.516611,-3.91115 -7.115286,-2.89662 -13.625381,-7.17436 -19.407512,-12.23249 -11.634153,-10.17739 -20.427827,-23.74116 -24.179207,-38.73649 -1.93022,-7.71563 -2.53139,-15.7217 -2.33521,-23.67269 z"
       style="fill:none;stroke:#000000;stroke-width:1.1338582;stroke-linecap:butt;stroke-linejoin:miter;stroke-miterlimit:4;stroke-dasharray:none;stroke-opacity:1" />
  </g>
</svg>
