<?xml version="1.0" encoding="UTF-8" standalone="no"?>
<!-- Created with Inkscape (http://www.inkscape.org/) -->

<svg
   xmlns:dc="http://purl.org/dc/elements/1.1/"
   xmlns:cc="http://creativecommons.org/ns#"
   xmlns:rdf="http://www.w3.org/1999/02/22-rdf-syntax-ns#"
   xmlns:svg="http://www.w3.org/2000/svg"
   xmlns="http://www.w3.org/2000/svg"
   xmlns:sodipodi="http://sodipodi.sourceforge.net/DTD/sodipodi-0.dtd"
   xmlns:inkscape="http://www.inkscape.org/namespaces/inkscape"
   id="svg2"
   version="1.1"
   inkscape:version="0.48.2 r9819"
   width="746.59882"
   height="684.17499"
   sodipodi:docname="Triller.svg">
  <metadata
     id="metadata8">
    <rdf:RDF>
      <cc:Work
         rdf:about="">
        <dc:format>image/svg+xml</dc:format>
        <dc:type
           rdf:resource="http://purl.org/dc/dcmitype/StillImage" />
        <dc:title></dc:title>
      </cc:Work>
    </rdf:RDF>
  </metadata>
  <defs
     id="defs6">
    <inkscape:path-effect
       is_visible="true"
       id="path-effect5153"
       effect="spiro" />
    <inkscape:path-effect
       is_visible="true"
       id="path-effect5150"
       effect="spiro" />
    <inkscape:path-effect
       is_visible="true"
       id="path-effect5147"
       effect="spiro" />
    <inkscape:path-effect
       is_visible="true"
       id="path-effect5144"
       effect="spiro" />
    <inkscape:path-effect
       is_visible="true"
       id="path-effect5141"
       effect="spiro" />
    <inkscape:path-effect
       is_visible="true"
       id="path-effect5138"
       effect="spiro" />
    <inkscape:path-effect
       effect="spiro"
       id="path-effect4574"
       is_visible="true" />
  </defs>
  <sodipodi:namedview
     pagecolor="#ffffff"
     bordercolor="#666666"
     borderopacity="1"
     objecttolerance="10"
     gridtolerance="10"
     guidetolerance="10"
     inkscape:pageopacity="0"
     inkscape:pageshadow="2"
     inkscape:window-width="1280"
     inkscape:window-height="752"
     id="namedview4"
     showgrid="false"
     fit-margin-top="0.3"
     fit-margin-left="0.3"
     fit-margin-right="0.3"
     fit-margin-bottom="0.3"
     inkscape:zoom="0.43415206"
     inkscape:cx="695.18061"
     inkscape:cy="586.92343"
     inkscape:window-x="0"
     inkscape:window-y="0"
     inkscape:window-maximized="0"
     inkscape:current-layer="svg2" />
  <path
     style="fill:none;stroke:#000000;stroke-width:1.77165353999999997;stroke-linecap:butt;stroke-linejoin:miter;stroke-miterlimit:4;stroke-opacity:1;stroke-dasharray:none"
     d="M 13.379348,20.015389 C 21.753721,12.817186 32.615532,9.0473644 43.527257,7.3507462 56.312039,5.3628943 69.346057,6.0165234 82.258506,6.8355824 c 13.478815,0.8549846 26.961384,1.886381 40.317304,3.8935936 34.90592,5.245884 68.49326,17.086588 101.05564,30.711339 25.8038,10.796827 51.11523,22.749949 77.00502,33.338917 17.98794,7.357096 36.31938,14.073262 55.31181,18.193997 24.67595,5.353872 50.15398,6.249353 75.36428,4.832627 38.82515,-2.18183 77.42925,-9.853503 113.71994,-23.822705 43.4513,-16.7255 82.96793,-42.1583 125.18129,-61.799842 11.09575,-5.1627638 22.64595,-9.9921516 34.85495,-10.8347869 6.1045,-0.42131769 12.32071,0.1850027 18.09917,2.1979084 5.77847,2.0129056 11.10649,5.470765 14.9744,10.2122495 3.32534,4.076375 5.51712,9.031156 6.53599,14.192225 1.01888,5.16107 0.88331,10.522305 -0.15496,15.679507 -2.07655,10.314405 -7.6747,19.63721 -14.44033,27.694827 -14.94461,17.798467 -35.44416,29.965031 -56.16991,40.480251 -35.91742,18.22273 -73.76631,32.52969 -112.50012,43.56692 -21.53382,6.13608 -43.34486,11.26711 -65.26691,15.82567 -17.19291,3.57516 -34.46004,6.79979 -51.59121,10.65995 -11.39647,2.56796 -22.79387,5.43812 -33.49325,10.12822 -10.69939,4.69011 -20.74418,11.30552 -28.10496,20.37706 -11.21502,13.82156 -15.27725,31.97446 -18.34549,49.50723 -4.32911,24.73774 -7.35328,49.73502 -8.13513,74.83653 -0.9161,29.41197 1.24874,58.84899 4.7336,88.06814 2.16755,18.17407 4.85122,36.31418 9.08238,54.12126 7.2895,30.6783 19.09653,60.0735 31.17504,89.20089 9.6421,23.25197 19.55499,46.64961 24.08886,71.40982 1.41226,7.71256 2.25794,15.86841 -0.43497,23.23226 -1.51205,4.13477 -4.10439,7.84542 -7.33974,10.83124 -3.23534,2.98582 -7.10257,5.25612 -11.22227,6.80874 -10.65773,4.01665 -22.81596,3.11268 -33.34666,-1.22612 -15.77808,-6.50079 -27.67289,-20.00391 -36.68507,-34.49489 -13.60176,-21.87071 -21.82923,-46.61086 -28.98274,-71.35279 -12.68897,-43.88751 -22.40003,-88.71029 -27.29958,-134.13185 -4.49206,-41.64386 -4.92676,-83.66259 -2.78666,-125.49332 1.04352,-20.39671 2.69855,-40.76917 5.33568,-61.02158 2.21834,-17.03623 5.13644,-34.05356 5.25375,-51.23321 0.0513,-7.51289 -0.44571,-15.09336 -2.47127,-22.32822 -3.39266,-12.11787 -10.98174,-22.77577 -20.26259,-31.27393 C 256.03294,139.32556 245.08946,132.84265 233.85927,127.165 209.79542,114.99904 184.08522,106.27494 157.87141,99.957092 140.99858,95.890531 123.89865,92.808648 106.72115,90.326149 85.136188,87.206682 63.3586,85.020008 42.162626,79.884608 32.942841,77.650822 23.681336,74.779843 15.917282,69.328815 12.035256,66.603301 8.5685103,63.241553 5.9667147,59.275545 3.364919,55.309537 1.6471185,50.725983 1.2903703,45.996153 0.91764296,41.054469 2.0404678,36.048374 4.2225201,31.598901 6.4045724,27.149428 9.6211608,23.245744 13.379348,20.015389"
     id="path4572"
     inkscape:path-effect="#path-effect5153"
     inkscape:original-d="M 13.379348,20.015389 C 23.619768,10.89308 29.816507,7.6638707 43.527257,7.3507462 50.786502,7.1849605 67.121799,6.2253626 82.258506,6.8355824 c 16.876945,0.6803759 32.635024,2.9905998 40.317304,3.8935936 41.48219,4.875918 59.38009,15.09607 101.05564,30.711339 25.42969,9.528164 50.97814,27.49619 77.00502,33.338917 18.37627,4.125252 36.80459,13.576149 55.31181,18.193997 24.95605,6.226936 50.05554,6.938162 75.36428,4.832627 39.90478,-3.319838 76.93352,-6.371766 113.71994,-23.822705 40.82558,-19.367051 81.35267,-54.457796 125.18129,-61.799842 22.33247,-3.7410728 53.14095,-15.57288 67.92852,1.575371 12.65362,14.67362 3.25876,41.839813 -8.0593,57.566559 -14.67113,20.385944 -33.12502,29.511621 -56.16991,40.480251 -34.59119,16.46429 -77.02097,30.81728 -112.50012,43.56692 -20.61746,7.40901 -43.43319,12.42978 -65.26691,15.82567 -26.45656,4.11491 -27.18374,0.21894 -51.59121,10.65995 -13.50534,5.77732 -52.49944,18.97338 -61.59821,30.50528 -10.86575,13.77136 -14.33915,32.42905 -18.34549,49.50723 -5.73506,24.44735 -7.90895,49.72653 -8.13513,74.83653 -0.26435,29.34639 1.20129,58.85295 4.7336,88.06814 2.19923,18.1897 5.19962,36.26645 9.08238,54.12126 6.73137,30.95401 17.65048,59.84833 31.17504,89.20089 10.64804,23.10959 25.38128,46.50328 24.08886,71.40982 -0.36352,7.00526 2.11608,16.04115 -0.43497,23.23226 -2.91269,8.2105 -11.27113,14.32505 -18.56201,17.63998 -18.1878,8.26936 -18.21501,11.82041 -33.34666,-1.22612 -6.35323,-5.47779 -32.29086,-27.39696 -36.68507,-34.49489 -12.9672,-20.94586 -22.27081,-47.5253 -28.98274,-71.35279 -12.31755,-43.7275 -22.59842,-88.72557 -27.29958,-134.13185 -4.31843,-41.70951 -2.53863,-83.76343 -2.78666,-125.49332 -0.12156,-20.45305 2.19456,-40.73545 5.33568,-61.02158 2.6386,-17.04066 6.30075,-34.08394 5.25375,-51.23321 -0.72046,-11.8006 3.68032,-12.23211 -2.47127,-22.32822 C 274.95249,161.6614 251.47073,137.49585 233.85927,127.165 210.55474,113.49461 183.97098,106.94227 157.87141,99.957092 141.37155,95.54114 124.01056,91.739072 106.72115,90.326149 84.414801,88.503233 62.227607,88.99628 42.162626,79.884608 26.144723,72.610748 5.2801619,63.129857 1.2903703,45.996153 -0.9102582,36.545806 6.1340257,26.469623 13.379348,20.015389 z"
     inkscape:connector-curvature="0"
     sodipodi:nodetypes="sssssssssssssssssssssssssssssssssssssss" />
  <path
     sodipodi:nodetypes="ssssssssssssssssssssssssssssssssssssssss"
     inkscape:connector-curvature="0"
     inkscape:original-d="m 23.352245,33.244743 c 4.797188,-4.273401 9.236453,-4.178259 14.0099,-5.027452 5.416292,-0.963553 11.262836,-2.568131 18.5507,-2.73457 12.847504,-0.29341 25.261768,-0.534261 37.403062,0.267927 43.669903,2.885317 83.808403,13.297704 127.873203,29.808194 25.42968,9.528164 51.79226,23.147231 77.81914,28.989958 18.37626,4.125253 38.43281,10.523223 56.94003,15.141071 24.95605,6.226939 51.8873,7.752279 77.19604,5.646739 39.90478,-3.31984 80.39351,-8.203521 117.17992,-25.654459 40.82558,-19.367052 77.28209,-52.23692 121.11071,-59.578966 9.9255,-1.66269 20.08839,-4.891951 28.64579,-8.783305 10.69685,-4.8642432 18.88509,-9.3571119 20.96518,3.049586 7.96398,47.501167 12.62108,4.390566 1.30301,20.117311 -14.67115,20.385932 -15.21452,31.139848 -38.25941,42.108478 -34.59118,16.464291 -91.87854,43.436045 -127.35769,56.185695 -20.61745,7.409 -41.80496,16.90739 -63.63868,20.30329 -26.45656,4.11491 -1.9833,-11.28963 -52.20181,16.35875 -12.86783,7.08454 -59.4194,29.55687 -68.51817,41.08876 -10.86575,13.77136 -15.3568,36.70316 -19.36315,53.78132 -5.73506,24.44735 -6.2807,47.2842 -6.50688,72.3942 -0.26435,29.34639 2.42246,62.92352 5.95477,92.13872 2.19923,18.18969 6.62433,37.89466 10.50708,55.74948 6.73137,30.95401 17.85399,60.45892 31.37856,89.81148 10.64804,23.10959 24.36363,40.60094 23.07121,65.50748 -0.36352,7.00526 1.30196,12.17412 -1.24909,19.36522 -2.91269,8.21051 -0.4841,4.64849 -7.77498,7.96341 -18.18779,8.26936 -7.22447,12.02393 -22.35612,-1.0226 -6.35323,-5.47779 -16.82269,-14.05686 -21.2169,-21.15479 -12.96721,-20.94586 -24.71317,-45.28649 -31.42509,-69.11398 -12.31755,-43.72749 -25.44781,-90.15027 -30.14898,-135.55655 -4.31842,-41.70952 -6.81271,-83.15284 -7.06074,-124.88273 -0.12157,-20.45305 -1.87602,-40.93899 1.2651,-61.22512 2.6386,-17.04065 2.23017,-36.32275 1.18318,-53.47201 -0.72047,-11.80061 0.22033,-18.94856 -5.93126,-29.04467 C 282.07599,154.33437 255.21255,128.2852 237.60109,117.95435 214.29657,104.28396 185.80274,97.37643 159.70316,90.391252 143.2033,85.9753 125.43526,82.173232 108.14585,80.760308 85.839502,78.937392 62.431135,77.395154 42.366154,68.283482 26.348251,61.009622 21.155386,63.333385 17.165595,46.199681 14.964966,36.749334 16.106923,39.698978 23.352245,33.244743 z"
     inkscape:path-effect="#path-effect5150"
     id="path5103"
     d="m 23.352245,33.244743 c 3.967039,-3.062403 9.080101,-4.125905 14.0099,-5.027452 6.150286,-1.124746 12.327446,-2.132747 18.5507,-2.73457 12.427133,-1.201772 24.961692,-0.776199 37.403062,0.267927 43.739293,3.670765 86.570033,14.953963 127.873203,29.808194 26.0496,9.36845 51.57951,20.167755 77.81914,28.989958 18.63072,6.263962 37.61945,11.527741 56.94003,15.141071 25.4137,4.752859 51.36053,6.632739 77.19604,5.646739 40.17314,-1.53318 80.12851,-10.052385 117.17992,-25.654459 41.49074,-17.471445 79.02755,-43.587069 121.11071,-59.578966 9.3439,-3.550747 18.8931,-6.59213 28.64579,-8.783305 3.61351,-0.811862 7.30515,-1.5102037 10.9993,-1.245972 3.69416,0.264233 7.43684,1.589902 9.96588,4.295558 2.42216,2.591315 3.51528,6.228944 3.53273,9.77598 0.0174,3.547037 -0.95688,7.030494 -2.22972,10.341331 -3.45729,8.992887 -9.14394,17.018173 -15.85033,23.935483 -6.7064,6.91731 -14.42869,12.775 -22.40908,18.172995 -38.56323,26.084465 -83.12983,41.645445 -127.35769,56.185695 -21.15285,6.95416 -42.36127,13.74011 -63.63868,20.30329 -17.4253,5.37497 -34.89913,10.60126 -52.20181,16.35875 -12.84424,4.27394 -25.65192,8.86643 -37.54945,15.3232 -11.89753,6.45676 -22.92304,14.87942 -30.96872,25.76556 -11.43269,15.46892 -16.15145,34.81612 -19.36315,53.78132 -4.04935,23.91154 -6.12195,48.14526 -6.50688,72.3942 -0.48898,30.8032 1.74219,61.62101 5.95477,92.13872 2.58706,18.74176 5.92382,37.39355 10.50708,55.74948 7.69056,30.8007 18.85774,60.6386 31.37856,89.81148 9.154,21.32836 19.1349,42.63391 23.07121,65.50748 0.55804,3.2427 0.99312,6.52353 0.91019,9.81284 -0.0829,3.28932 -0.70066,6.60299 -2.15928,9.55238 -1.67169,3.38021 -4.44093,6.20147 -7.77498,7.96341 -3.42851,1.81186 -7.39819,2.49678 -11.26634,2.22304 -3.86815,-0.27375 -7.63766,-1.47918 -11.08978,-3.24564 -8.99023,-4.60032 -15.60713,-12.75731 -21.2169,-21.15479 -14.1022,-21.11012 -23.49602,-44.99679 -31.42509,-69.11398 -14.48012,-44.04295 -24.4279,-89.54867 -30.14898,-135.55655 -5.14811,-41.40021 -6.88031,-83.16405 -7.06074,-124.88273 -0.0883,-20.41531 0.19405,-40.83774 1.2651,-61.22512 0.93602,-17.81723 2.47418,-35.67698 1.18318,-53.47201 -0.71769,-9.89267 -2.33204,-19.80208 -5.93126,-29.04467 -4.76178,-12.22798 -12.90081,-22.96599 -22.58128,-31.82524 -9.68047,-8.85926 -20.88548,-15.91699 -32.51751,-21.99102 C 213.11946,105.1705 186.61343,96.605314 159.70316,90.391252 142.66456,86.456735 125.42565,83.444072 108.14585,80.760308 86.076714,77.332702 63.840149,74.420482 42.366154,68.283482 36.606081,66.637325 30.801551,64.706549 25.971557,61.16262 23.55656,59.390656 21.411514,57.220709 19.835144,54.673726 c -1.576371,-2.546984 -2.570315,-5.480348 -2.669549,-8.474045 -0.164617,-4.966158 2.253389,-9.91861 6.18665,-12.954938"
     style="fill:none;stroke:#000000;stroke-width:1.77165353999999997;stroke-linecap:butt;stroke-linejoin:miter;stroke-miterlimit:4;stroke-opacity:1;stroke-dasharray:none" />
  <path
     sodipodi:nodetypes="sssssssssssssssssssssssssssssssssssssssss"
     inkscape:connector-curvature="0"
     inkscape:original-d="m 22.014331,28.150521 c 10.24042,-9.12231 21.086182,-7.670382 34.796931,-7.983507 59.057518,-1.348748 106.618558,8.519844 162.934448,29.620653 25.42968,9.528164 54.71997,24.473945 80.74685,30.316672 18.37627,4.125252 36.9485,11.750212 55.45572,16.36806 24.95605,6.226931 50.05554,6.938161 75.36428,4.832631 24.47002,-2.035763 48.79836,-4.534657 72.43975,-10.187082 14.91208,-3.565338 29.55084,-8.385343 43.77945,-15.135186 40.03866,-18.993749 58.2455,-41.499523 101.01313,-49.696247 0.84055,-0.161098 20.82409,-10.96237 21.6689,-11.103889 13.58417,-2.275581 15.25658,-6.5665897 25.92856,-7.8562002 6.87283,-0.8305191 23.54257,-2.0120334 29.33531,4.7054582 12.65363,14.67363 -19.26722,46.995294 -2.59049,37.130429 93.26599,-55.1700182 -33.84458,35.412192 -56.88947,46.380822 -34.59119,16.464295 -69.53732,29.953775 -105.01647,42.703425 -20.61745,7.40901 -46.45542,17.46685 -68.28914,20.86274 -26.45656,4.11491 -27.32768,4.3925 -51.73514,14.83353 -1.09538,0.46858 -25.26484,8.25098 -26.68339,8.88539 -16.07157,7.18755 -27.99316,17.06779 -36.35397,27.66437 -10.86575,13.77137 -15.6344,33.14864 -19.64074,50.22681 -5.73506,24.44735 -6.61371,52.46095 -6.83989,77.57096 -0.26435,29.34638 1.48911,58.5651 5.02142,87.7803 2.19923,18.18969 6.49489,37.27387 10.37765,55.12869 6.73136,30.95401 17.21873,59.27264 30.74329,88.6252 10.64804,23.10959 25.38128,44.77629 24.08886,69.68283 -0.36352,7.00526 1.10865,12.73107 -1.4424,19.92218 -2.91269,8.21051 -8.96846,10.15149 -16.25934,13.46641 -18.18779,8.26936 -11.8827,8.51034 -27.01434,-4.53619 -6.35323,-5.47779 -20.63363,-24.51863 -25.02783,-31.61656 -12.96721,-20.94586 -20.68776,-42.63215 -27.39968,-66.45963 -12.31755,-43.7275 -23.31799,-85.27159 -28.01915,-130.67787 -4.31843,-41.70952 -6.42439,-81.02901 -6.67241,-122.7589 -0.12157,-20.45305 -0.97162,-43.90162 2.16951,-64.18775 2.6386,-17.04066 3.27851,-34.22786 2.23152,-51.37713 -0.72047,-11.8006 2.24116,-13.38344 -3.91043,-23.47955 -10.62389,-17.43624 -36.98398,-45.1997 -54.59545,-55.53055 C 212.42566,108.60145 183.97098,101.76128 157.87141,94.776103 141.37155,90.360151 123.86664,86.701998 106.57723,85.289074 84.270883,83.466159 63.378938,83.671373 43.313957,74.559702 27.296054,67.285841 14.202979,62.410274 10.213187,45.27657 8.0125583,35.826223 14.76901,34.604755 22.014331,28.150521 z"
     inkscape:path-effect="#path-effect5147"
     id="path5105"
     d="m 22.014331,28.150521 c 10.142784,-6.515763 22.745586,-7.673148 34.796931,-7.983507 55.490008,-1.429039 110.544678,11.276832 162.934448,29.620653 27.13581,9.501368 53.71614,20.52031 80.74685,30.316672 18.1381,6.573538 36.53266,12.610408 55.45572,16.36806 24.7494,4.914621 50.15316,5.874731 75.36428,4.832631 24.41242,-1.00909 48.82952,-3.898884 72.43975,-10.187082 14.93072,-3.976551 29.47506,-9.293641 43.77945,-15.135186 34.76081,-14.19542 68.16929,-31.499927 101.01313,-49.696247 7.10276,-3.935107 14.19855,-7.921434 21.6689,-11.103889 8.3228,-3.545609 17.0603,-6.0689117 25.92856,-7.8562002 5.06549,-1.0208869 10.2442,-1.8063613 15.38838,-1.3177264 5.14418,0.4886349 10.3017,2.3607178 13.94693,6.0231846 2.37691,2.388145 4.0264,5.457394 4.8936,8.713291 0.86721,3.255898 0.96817,6.693059 0.48603,10.027794 -0.96429,6.669471 -4.19374,12.80807 -7.97012,18.389344 -13.84893,20.46792 -35.11166,34.699392 -56.88947,46.380822 -33.34559,17.886285 -69.03608,30.987665 -105.01647,42.703425 -22.63303,7.36966 -45.43362,14.21508 -68.28914,20.86274 -17.22607,5.0103 -34.48446,9.90862 -51.73514,14.83353 -9.02115,2.57545 -18.0695,5.16854 -26.68339,8.88539 -14.13993,6.10131 -27.09907,15.35541 -36.35397,27.66437 -10.89849,14.49492 -16.18243,32.42457 -19.64074,50.22681 -4.95695,25.51671 -6.59174,51.57842 -6.83989,77.57096 -0.28002,29.33071 1.19486,58.69892 5.02142,87.7803 2.44073,18.54928 5.83818,36.97859 10.37765,55.12869 7.59513,30.36747 18.36666,59.87302 30.74329,88.6252 9.74908,22.64812 20.62556,45.26997 24.08886,69.68283 0.94772,6.68047 1.27724,13.7472 -1.4424,19.92218 -1.46559,3.32764 -3.78147,6.26204 -6.60631,8.55146 -2.82484,2.28942 -6.15039,3.9389 -9.65303,4.91495 -9.05199,2.52243 -19.02896,0.41707 -27.01434,-4.53619 -11.57039,-7.177 -18.83793,-19.48939 -25.02783,-31.61656 -10.90439,-21.36377 -19.89809,-43.67713 -27.39968,-66.45963 -13.95612,-42.38507 -22.74647,-86.36685 -28.01915,-130.67787 -4.84508,-40.71748 -6.73999,-81.75422 -6.67241,-122.7589 0.0353,-21.41269 0.60518,-42.83225 2.16951,-64.18775 1.25329,-17.10937 3.14595,-34.24631 2.23152,-51.37713 -0.42413,-7.94552 -1.46376,-15.90822 -3.91043,-23.47955 -4.09543,-12.67348 -12.05177,-23.88223 -21.73178,-33.03028 -9.68001,-9.14806 -21.05681,-16.33686 -32.86367,-22.50027 C 211.26394,109.49998 184.77073,100.9522 157.87141,94.776103 140.92038,90.88414 123.77018,87.913444 106.57723,85.289074 85.427496,82.060731 64.166064,79.347507 43.313957,74.559702 35.43554,72.750757 27.426893,70.556373 20.868318,65.831245 17.589031,63.468681 14.721616,60.479901 12.768954,56.94118 10.816291,53.40246 9.8097256,49.298094 10.213187,45.27657 c 0.358082,-3.569197 1.812426,-6.985663 3.922861,-9.886259 2.110434,-2.900597 4.860257,-5.300999 7.878283,-7.23979"
     style="fill:none;stroke:#000000;stroke-width:1.06299213000000004;stroke-linecap:butt;stroke-linejoin:miter;stroke-miterlimit:4;stroke-opacity:1;stroke-dasharray:none" />
  <path
     sodipodi:nodetypes="ssssssssssssssssssssssssssssssssssssssssss"
     inkscape:connector-curvature="0"
     inkscape:original-d="m 21.876845,23.014506 c 10.240419,-9.122309 21.0376,-7.598615 34.74835,-7.911739 59.057515,-1.348749 109.062145,10.223389 165.378025,31.324197 25.42969,9.528164 51.69049,24.850319 77.71737,30.693046 18.37626,4.125253 37.72047,11.235571 56.22769,15.853419 24.95605,6.226936 50.05554,6.938162 75.36428,4.832627 C 471.21734,94.486218 508.24608,91.43429 545.0325,73.983351 585.85808,54.6163 626.38517,19.525556 670.21379,12.183509 686.37408,9.476382 691.87423,0.95813974 705.30205,3.2353511 c 5.12857,0.8697459 20.71393,3.7488648 24.80087,8.4882439 6.76486,7.844784 7.37333,16.758758 4.74511,25.759625 -2.28785,7.835208 -7.02836,15.736261 -12.29558,23.055208 -14.67116,20.385934 -27.528,27.069276 -50.57288,38.037906 -34.59119,16.464296 -76.61392,33.056086 -112.09307,45.805736 -20.61745,7.40901 -41.39788,15.17741 -63.2316,18.57331 -26.45656,4.1149 -29.01551,3.6789 -53.42297,14.11993 -1.07856,0.46138 -25.31969,7.70729 -26.69754,8.2969 -15.8753,6.79331 -26.73208,14.85389 -35.10421,25.46483 -10.86575,13.77137 -16.06914,33.65023 -20.07549,50.72841 -5.73506,24.44735 -6.89129,50.03182 -7.11748,75.14182 -0.26435,29.34639 1.2013,59.15823 4.73361,88.37343 2.19923,18.18969 7.43842,35.96116 11.32119,53.81597 3.22626,14.83588 8.22887,29.19861 13.20491,43.36543 5.40612,15.39124 10.92772,30.55122 17.97013,45.83546 6.98468,15.15894 12.99192,31.15991 17.81594,46.91014 2.53013,8.26078 6.71757,15.9308 6.27292,24.49968 -0.36351,7.00526 -0.52979,15.93938 -3.08084,23.13049 -2.9127,8.2105 -9.43937,9.54214 -16.73025,12.85706 -18.1878,8.26936 -15.77268,9.47983 -30.90433,-3.5667 -6.35322,-5.47779 -22.01266,-22.61402 -26.40687,-29.71195 -12.96721,-20.94586 -21.86376,-44.77769 -28.57568,-68.60517 -12.31755,-43.7275 -24.53195,-89.7432 -29.23312,-135.14948 -4.31843,-41.70951 -4.98096,-81.42287 -5.22899,-123.15276 -0.12156,-20.45305 -0.7566,-41.34602 2.38453,-61.63215 2.6386,-17.04067 3.85839,-35.10159 2.81139,-52.25086 -0.72046,-11.8006 3.13563,-12.23211 -3.01596,-22.32822 C 276.9519,161.6614 252.59012,135.46056 234.97867,125.12971 211.67415,111.45932 183.97098,104.19463 157.87141,97.209456 141.37155,92.793504 124.01056,89.703787 106.72115,88.290863 84.414801,86.467947 62.634665,86.655702 42.569684,77.54403 26.551781,70.27017 10.775432,63.129857 6.7856403,45.996153 4.5850119,36.545806 14.631523,29.46874 21.876845,23.014506 z"
     inkscape:path-effect="#path-effect5144"
     id="path5107"
     d="m 21.876845,23.014506 c 10.341156,-6.097298 22.753129,-7.430901 34.74835,-7.911739 56.443505,-2.262581 112.540375,11.344927 165.378025,31.324197 26.05423,9.851771 51.50798,21.261812 77.71737,30.693046 18.34246,6.600384 37.07305,12.232549 56.22769,15.853419 24.79064,4.686263 50.16033,5.971749 75.36428,4.832627 38.87336,-1.756927 77.60759,-9.327091 113.71994,-23.822705 43.20988,-17.344586 82.0476,-44.266637 125.18129,-61.799842 11.24146,-4.5694868 22.96079,-8.5296884 35.08826,-8.9481579 4.5118,-0.1556837 9.07786,0.1906404 13.39856,1.4991373 4.32069,1.3084968 8.39767,3.6197266 11.40231,6.9891066 3.02426,3.391387 4.86242,7.751859 5.55811,12.242259 0.69568,4.490399 0.28635,9.108387 -0.813,13.517366 -2.1242,8.519198 -6.76449,16.23641 -12.29558,23.055208 -13.37968,16.494639 -31.83063,28.047056 -50.57288,38.037906 -35.66732,19.013026 -73.60441,33.465696 -112.09307,45.805736 -20.92054,6.70744 -42.03293,12.80486 -63.2316,18.57331 -17.77297,4.83627 -35.60775,9.44171 -53.42297,14.11993 -9.02033,2.36871 -18.06562,4.76601 -26.69754,8.2969 -13.52944,5.53423 -26.05858,13.98223 -35.10421,25.46483 -11.36435,14.42602 -16.62278,32.6913 -20.07549,50.72841 -4.73574,24.73967 -6.55212,49.95931 -7.11748,75.14182 -0.66293,29.52843 0.38902,59.15885 4.73361,88.37343 2.6978,18.14099 6.65836,36.07811 11.32119,53.81597 3.84274,14.61814 8.16573,29.1154 13.20491,43.36543 5.4718,15.47343 11.78037,30.63498 17.97013,45.83546 6.30929,15.49402 12.50213,31.04712 17.81594,46.91014 2.6818,8.00583 5.14844,16.13183 6.27292,24.49968 1.05462,7.84795 0.8133,16.2357 -3.08084,23.13049 -3.54196,6.27124 -9.85905,10.69823 -16.73025,12.85706 -10.1704,3.19539 -21.58852,1.61628 -30.90433,-3.5667 -11.72895,-6.52557 -19.78142,-18.03913 -26.40687,-29.71195 -12.25081,-21.58366 -21.03155,-44.96151 -28.57568,-68.60517 -14.03291,-43.97979 -23.96095,-89.2872 -29.23312,-135.14948 -4.69556,-40.84637 -5.69734,-82.04006 -5.22899,-123.15276 0.23424,-20.56164 0.83543,-41.12761 2.38453,-61.63215 1.31471,-17.40206 3.3134,-34.80643 2.81139,-52.25086 -0.21664,-7.52791 -0.90982,-15.0977 -3.01596,-22.32822 -3.61141,-12.3982 -11.29168,-23.35514 -20.68777,-32.21353 -9.3961,-8.85839 -20.47982,-15.74411 -31.90935,-21.7544 -24.26232,-12.7585 -50.3845,-21.81013 -77.10726,-27.920254 C 140.99396,93.350447 123.87223,90.653235 106.72115,88.290863 85.229469,85.330621 63.598194,82.878553 42.569684,77.54403 34.234691,75.429605 25.835852,72.778712 18.914611,67.675838 15.45399,65.124401 12.405376,61.968637 10.222055,58.264743 8.0387341,54.560848 6.7434149,50.295449 6.7856403,45.996153 6.8327025,41.204381 8.5440799,36.499505 11.281704,32.566478 14.019327,28.63345 17.748945,25.448377 21.876845,23.014506"
     style="fill:none;stroke:#000000;stroke-width:1.06299210000000000;stroke-linecap:butt;stroke-linejoin:miter;stroke-miterlimit:4;stroke-opacity:1;stroke-dasharray:none" />
  <path
     sodipodi:nodetypes="sssssssssssssssssssssssssssssssssssssss"
     inkscape:connector-curvature="0"
     inkscape:original-d="m 15.618161,22.66126 c 10.240422,-9.122309 14.707166,-9.705648 28.417916,-10.018772 7.259245,-0.165786 22.882194,-1.837734 38.018901,-1.227514 16.876945,0.680376 32.838552,3.194128 40.520832,4.097122 41.48219,4.875918 58.66774,11.73785 100.34329,27.353119 25.42969,9.528164 51.69049,26.07149 77.71737,31.914217 18.37627,4.125252 36.80459,13.576149 55.31181,18.193997 24.95605,6.226936 50.05554,6.938162 75.36428,4.832627 39.90478,-3.319838 76.93352,-6.371766 113.71994,-23.822705 40.82558,-19.367051 81.35267,-54.457796 125.18129,-61.799842 22.33247,-3.7410728 53.14095,-15.57288 67.92852,1.575371 12.65362,14.67362 3.25876,41.839813 -8.0593,57.566559 -14.67113,20.385944 -33.12502,29.511621 -56.16991,40.480251 -34.59119,16.46429 -77.02097,30.81728 -112.50012,43.56692 -20.61746,7.40901 -43.43319,12.42978 -65.26691,15.82567 -26.45656,4.11491 -27.18374,0.21894 -51.59121,10.65995 -13.50534,5.77732 -52.49944,18.97338 -61.59821,30.50528 -10.86575,13.77136 -14.33915,32.42905 -18.34549,49.50723 -5.73506,24.44735 -7.90895,49.72653 -8.13513,74.83653 -0.26435,29.34639 1.20129,58.85295 4.7336,88.06814 2.19923,18.1897 5.19962,36.26645 9.08238,54.12126 6.73137,30.95401 17.65048,59.84833 31.17504,89.20089 10.64804,23.10959 25.38128,46.50328 24.08886,71.40982 -0.36352,7.00526 0.61652,16.04115 -1.93453,23.23226 -2.91269,8.2105 -9.77157,11.32594 -17.06245,14.64086 -18.1878,8.26936 -22.02999,15.23969 -31.41313,-2.39934 -34.31197,-64.50176 -27.81325,-25.97226 -32.20746,-33.07019 -12.96721,-20.94586 -21.51946,-45.69354 -28.23139,-69.52103 -12.31754,-43.7275 -23.34977,-87.19909 -28.05094,-132.60537 -4.31842,-41.70952 -4.5739,-83.86521 -4.82193,-125.59509 -0.12156,-20.45305 0.0575,-41.04074 3.19864,-61.32687 2.63859,-17.04067 4.06193,-34.28748 3.01493,-51.43675 -0.72046,-11.8006 3.68032,-12.23211 -2.47127,-22.32822 C 274.95249,161.6614 251.47073,137.49585 233.85927,127.165 210.55474,113.49461 183.97098,106.94227 157.87141,99.957092 141.37155,95.54114 124.01056,91.739072 106.72115,90.326149 84.414801,88.503233 62.227607,88.99628 42.162626,79.884608 26.144723,72.610748 7.7225042,65.266908 3.7327126,48.133204 1.532084,38.682857 8.3728394,29.115494 15.618161,22.66126 z"
     inkscape:path-effect="#path-effect5141"
     id="path5109"
     d="m 15.618161,22.66126 c 8.04337,-6.213925 18.341451,-8.687036 28.417916,-10.018772 12.586684,-1.663494 25.335479,-1.795519 38.018901,-1.227514 13.568971,0.607662 27.099032,2.013483 40.520832,4.097122 34.31951,5.32786 67.85472,15.076806 100.34329,27.353119 26.19843,9.899486 51.74348,21.439756 77.71737,31.914217 18.02238,7.267864 36.32722,14.045113 55.31181,18.193997 24.66902,5.391157 50.1535,6.261604 75.36428,4.832627 38.82347,-2.200561 77.4279,-9.858748 113.71994,-23.822705 43.45368,-16.719513 82.96839,-42.157147 125.18129,-61.799842 11.09565,-5.1630773 22.6459,-9.9925376 34.85495,-10.8351197 6.10452,-0.42129104 12.32075,0.1850875 18.09922,2.1980578 5.77846,2.0129703 11.10646,5.4708989 14.97435,10.2124329 3.32531,4.076397 5.51705,9.031179 6.53591,14.192244 1.01886,5.161065 0.88329,10.522291 -0.15497,15.679488 -2.07653,10.314393 -7.67463,19.637205 -14.44024,27.694827 -14.94456,17.798505 -35.44415,29.965041 -56.16991,40.480251 -35.91743,18.2227 -73.76632,32.52967 -112.50012,43.56692 -21.53382,6.13609 -43.34485,11.26713 -65.26691,15.82567 -17.19292,3.57515 -34.46005,6.79973 -51.59121,10.65995 -11.39645,2.568 -22.79381,5.43823 -33.49318,10.12835 -10.69936,4.69013 -20.74413,11.3055 -28.10503,20.37693 -11.21524,13.82144 -15.27804,31.97428 -18.34549,49.50723 -4.32798,24.73787 -7.3483,49.73525 -8.13513,74.83653 -0.92196,29.41214 1.2251,58.85146 4.7336,88.06814 2.18216,18.17171 4.89583,36.30425 9.08238,54.12126 7.21421,30.70207 18.74054,60.21735 31.17504,89.20089 9.9365,23.16096 20.59243,46.45107 24.08886,71.40982 1.09362,7.80668 1.40389,16.09116 -1.93453,23.23226 -3.25995,6.97325 -9.79273,12.1101 -17.06245,14.64086 -10.17319,3.54153 -21.68331,2.22308 -31.41313,-2.39934 -14.11009,-6.70338 -24.27179,-19.61452 -32.20746,-33.07019 -12.73758,-21.59775 -21.02451,-45.505 -28.23139,-69.52103 -13.00232,-43.32859 -22.77264,-87.67691 -28.05094,-132.60537 -4.8926,-41.64542 -5.9167,-83.67756 -4.82193,-125.59509 0.5345,-20.46553 1.57282,-40.91902 3.19864,-61.32687 1.36445,-17.12704 3.14405,-34.25593 3.01493,-51.43675 -0.0564,-7.5096 -0.4887,-15.08483 -2.47127,-22.32822 -3.32398,-12.1443 -10.91304,-22.82659 -20.20726,-31.32072 C 256.0749,139.28278 245.10571,132.82632 233.85927,127.165 209.77559,115.04157 184.07731,106.30153 157.87141,99.957092 141.00233,95.873096 123.90464,92.769984 106.72115,90.326149 85.126753,87.254996 63.314507,85.208881 42.162626,79.884608 33.562142,77.719726 24.942982,74.943236 17.693457,69.834476 14.068695,67.280096 10.821772,64.150935 8.3495926,60.469618 5.8774134,56.788302 4.1955118,52.543371 3.7327126,48.133204 3.2219855,43.266315 4.213991,38.281983 6.3509603,33.879619 8.4879295,29.477255 11.745591,25.653024 15.618161,22.66126"
     style="fill:none;stroke:#000000;stroke-width:1.06299213000000004;stroke-linecap:butt;stroke-linejoin:miter;stroke-miterlimit:4;stroke-opacity:1;stroke-dasharray:none" />
  <path
     style="fill:none;stroke:#000000;stroke-width:1.06299210000000000;stroke-linecap:butt;stroke-linejoin:miter;stroke-miterlimit:4;stroke-opacity:1;stroke-dasharray:none"
     d="m 15.618161,22.66126 c 8.04337,-6.213925 18.341451,-8.687034 28.417916,-10.018772 12.586684,-1.663497 25.335479,-1.79553 38.018901,-1.227514 13.56897,0.607674 27.099032,2.013528 40.520832,4.097122 34.31954,5.327747 67.85498,15.076103 100.34329,27.353119 26.19821,9.900049 51.74269,21.441702 77.71737,31.914217 18.02284,7.26648 36.3283,14.040596 55.31181,18.193997 24.6684,5.397196 50.15426,6.28676 75.36428,4.832627 38.81554,-2.23891 77.36835,-10.030658 113.71994,-23.822705 43.53496,-16.517468 83.35184,-41.344598 125.18129,-61.799842 10.29474,-5.0342856 20.97785,-9.8786997 32.39071,-10.9142541 5.70643,-0.51777721 11.54415,-0.050028 16.97088,1.7890122 5.42672,1.83904 10.42881,5.0904448 13.98753,9.5812059 3.14684,3.971003 5.10357,8.830205 5.85608,13.84071 0.75251,5.010505 0.32415,10.166285 -0.98081,15.062051 -2.60991,9.791533 -8.60731,18.36658 -15.47868,25.814399 -14.48099,15.695822 -32.98922,27.090581 -51.89581,37.020267 -35.00035,18.38208 -72.14454,32.40903 -109.85425,44.27927 -21.70961,6.83374 -43.64153,12.96845 -65.77571,18.26801 -17.22509,4.12419 -34.57412,7.74316 -51.69298,12.28818 -11.35964,3.01596 -22.67132,6.46152 -33.21486,11.6549 -10.54354,5.19338 -20.34823,12.22293 -27.56924,21.49625 -10.92269,14.02708 -15.17217,32.01454 -18.34549,49.50723 -4.4831,24.71274 -7.39895,49.73123 -8.13513,74.83653 -0.86249,29.41266 1.26709,58.84774 4.7336,88.06814 2.15624,18.17568 4.8353,36.31769 9.08238,54.12126 7.31643,30.67013 19.20695,60.02981 31.17504,89.20089 7.11431,17.34046 14.28494,34.69969 19.63429,52.66325 1.83448,6.16034 3.45506,12.39708 4.45457,18.74657 1.22701,7.79476 1.44113,16.10003 -1.93453,23.23226 -3.29164,6.95471 -9.79972,12.10008 -17.06245,14.64086 -10.16914,3.55755 -21.68429,2.22854 -31.41313,-2.39934 -14.10627,-6.71016 -24.26986,-19.61629 -32.20746,-33.07019 -12.74118,-21.59576 -21.0258,-45.50449 -28.23139,-69.52103 -12.99991,-43.32926 -22.77202,-87.67703 -28.05094,-132.60537 -4.89318,-41.64536 -5.9168,-83.67755 -4.82193,-125.59509 0.53455,-20.46553 1.57283,-40.91902 3.19864,-61.32687 1.36444,-17.12704 3.14405,-34.25593 3.01493,-51.43675 -0.0564,-7.5096 -0.4887,-15.08483 -2.47127,-22.32822 -3.32398,-12.1443 -10.91304,-22.82659 -20.20726,-31.32072 C 256.0749,139.28278 245.10571,132.82632 233.85927,127.165 209.77559,115.04157 184.07731,106.30153 157.87141,99.957092 141.00233,95.873096 123.90464,92.769984 106.72115,90.326149 85.126753,87.254996 63.314507,85.208881 42.162626,79.884608 33.562142,77.719726 24.942982,74.943236 17.693458,69.834475 14.068695,67.280095 10.821772,64.150935 8.3495928,60.469618 5.8774135,56.788302 4.1955119,52.543371 3.7327126,48.133204 3.2219854,43.266315 4.2139908,38.281983 6.35096,33.879619 8.4879292,29.477254 11.745591,25.653023 15.618161,22.66126"
     id="path5111"
     inkscape:path-effect="#path-effect5138"
     inkscape:original-d="m 15.618161,22.66126 c 10.240422,-9.122309 14.707166,-9.705648 28.417916,-10.018772 7.259245,-0.165786 22.882194,-1.837734 38.018901,-1.227514 16.876945,0.680376 32.838552,3.194128 40.520832,4.097122 41.48219,4.875918 58.66774,11.73785 100.34329,27.353119 25.42969,9.528164 51.69049,26.07149 77.71737,31.914217 18.37627,4.125252 36.80459,13.576149 55.31181,18.193997 24.95605,6.226936 50.05554,6.938162 75.36428,4.832627 39.90478,-3.319838 76.93352,-6.371766 113.71994,-23.822705 40.82558,-19.367051 81.35267,-54.457796 125.18129,-61.799842 22.33247,-3.7410728 48.56155,-16.6922868 63.34912,0.455964 12.65362,14.67362 8.77236,54.620791 -10.60341,54.71716 -164.68362,0.819096 -28.85093,26.051635 -51.89581,37.020267 -34.59119,16.4643 -74.3751,31.52962 -109.85425,44.27927 -20.61746,7.40901 -43.94199,14.87212 -65.77571,18.26801 -26.45656,4.11491 -27.28551,1.84717 -51.69298,12.28818 -13.50534,5.77732 -51.68533,21.61925 -60.7841,33.15115 -10.86575,13.77136 -14.33915,32.42905 -18.34549,49.50723 -5.73506,24.44735 -7.90895,49.72653 -8.13513,74.83653 -0.26435,29.34639 1.20129,58.85295 4.7336,88.06814 2.19923,18.1897 5.19962,36.26645 9.08238,54.12126 6.73137,30.95401 17.65047,59.84833 31.17504,89.20089 7.8953,17.13528 15.44535,34.71467 19.63429,52.66325 1.4605,6.25788 4.78869,12.30771 4.45457,18.74657 -0.36351,7.00526 0.61652,16.04115 -1.93453,23.23226 -2.91269,8.2105 -9.77157,11.32594 -17.06245,14.64086 -18.1878,8.26936 -22.02999,15.23969 -31.41313,-2.39934 -34.31197,-64.50176 -27.81325,-25.97226 -32.20746,-33.07019 -12.96721,-20.94586 -21.51946,-45.69354 -28.23139,-69.52103 -12.31754,-43.7275 -23.34977,-87.19909 -28.05094,-132.60537 -4.31842,-41.70952 -4.5739,-83.86521 -4.82193,-125.59509 -0.12156,-20.45305 0.0575,-41.04074 3.19864,-61.32687 2.63859,-17.04067 4.06193,-34.28748 3.01493,-51.43675 -0.72046,-11.8006 3.68032,-12.23211 -2.47127,-22.32822 C 274.95249,161.6614 251.47073,137.49585 233.85927,127.165 210.55474,113.49461 183.97098,106.94227 157.87141,99.957092 141.37155,95.54114 124.01056,91.739072 106.72115,90.326149 84.414801,88.503233 62.227607,88.99628 42.162626,79.884608 26.144723,72.610748 7.7225042,65.266908 3.7327126,48.133204 1.532084,38.682857 8.3728394,29.115494 15.618161,22.66126 z"
     inkscape:connector-curvature="0"
     sodipodi:nodetypes="ssssssssssssssssssssssssssssssssssssssss" />
  <path
     sodipodi:nodetypes="ssssssssssssssssssssssssssssssssssssssssss"
     inkscape:connector-curvature="0"
     inkscape:original-d="M 13.379348,20.015389 C 23.619768,10.89308 29.816507,7.6638707 43.527257,7.3507462 50.786502,7.1849605 67.121799,6.2253626 82.258506,6.8355824 c 16.876945,0.6803759 32.635024,2.9905998 40.317304,3.8935936 41.48219,4.875918 59.38009,15.09607 101.05564,30.711339 25.42969,9.528164 50.97814,27.49619 77.00502,33.338917 18.37627,4.125252 36.80459,13.576149 55.31181,18.193997 24.95605,6.226936 50.05554,6.938162 75.36428,4.832627 C 471.21734,94.486218 508.24608,91.43429 545.0325,73.983351 585.85808,54.6163 626.38517,19.525556 670.21379,12.183509 682.59107,10.110104 696.14717,1.5826805 709.5612,0.84981392 c 7.17209,-0.39184295 14.62759,1.75851708 20.68853,5.69457248 3.05663,1.9850032 5.68268,4.6518116 7.89258,7.2144936 4.93167,5.718967 5.18092,14.006692 4.09632,21.556953 -1.6983,11.822059 -7.99635,23.461114 -14.90327,33.058443 -14.67113,20.385934 -31.49677,29.002799 -54.54166,39.971424 -34.59119,16.4643 -76.20686,31.73316 -111.68601,44.48281 -20.61745,7.409 -42.92436,13.7527 -64.75808,17.1486 -26.45656,4.11491 -27.38728,1.44011 -51.79475,11.88112 -13.50534,5.77732 -52.49944,18.97338 -61.59821,30.50528 -10.86575,13.77136 -14.33915,32.42905 -18.34549,49.50723 -5.73506,24.44735 -7.90895,49.72653 -8.13513,74.83653 -0.26435,29.34639 1.20129,58.85295 4.7336,88.06814 2.19923,18.1897 5.19962,36.26645 9.08238,54.12126 6.73137,30.95401 17.65048,59.84833 31.17504,89.20089 10.64804,23.10959 25.38128,46.50328 24.08886,71.40982 -0.36352,7.00526 2.11608,16.04115 -0.43497,23.23226 -2.91269,8.2105 -10.96585,13.00212 -18.25673,16.31704 -18.18779,8.26936 -34.77708,17.88796 -33.34665,-2.04022 3.88341,-54.10182 -29.54323,-26.68462 -33.93743,-33.78256 -12.96721,-20.94585 -21.66022,-46.30413 -28.37215,-70.13162 -12.31754,-43.7275 -23.20901,-88.72557 -27.91018,-134.13185 -4.31843,-41.70951 -3.55628,-83.45812 -3.8043,-125.18801 -0.12157,-20.45305 0.15928,-40.83722 3.3004,-61.12335 2.6386,-17.04066 6.30075,-34.08394 5.25375,-51.23321 -0.72046,-11.8006 3.68032,-12.23211 -2.47127,-22.32822 C 274.95249,161.6614 251.47073,137.49585 233.85927,127.165 210.55474,113.49461 183.97098,106.94227 157.87141,99.957092 141.37155,95.54114 124.01056,91.739072 106.72115,90.326149 84.414801,88.503233 62.227607,88.99628 42.162626,79.884608 26.144723,72.610748 5.2801619,63.129857 1.2903703,45.996153 -0.9102582,36.545806 6.1340257,26.469623 13.379348,20.015389 z"
     inkscape:path-effect="#path-effect4574"
     id="path5113"
     d="M 13.379348,20.015389 C 21.753719,12.817183 32.615532,9.0473647 43.527257,7.3507462 56.312039,5.362894 69.346057,6.0165179 82.258506,6.8355824 c 13.478815,0.8549903 26.961384,1.8864039 40.317304,3.8935936 34.90594,5.245825 68.4934,17.086218 101.05564,30.711339 25.80368,10.797118 51.11481,22.750958 77.00502,33.338917 17.98818,7.356376 36.31994,14.070912 55.31181,18.193997 24.67562,5.357014 50.15437,6.262442 75.36428,4.832627 C 470.13358,95.604269 508.71073,87.863125 545.0325,73.983351 588.5259,57.363055 628.19832,32.24867 670.21379,12.183509 682.64516,6.2467086 695.78652,0.64271195 709.5612,0.84981392 c 7.23882,0.10883554 14.5261,1.89498028 20.68853,5.69457248 3.05528,1.8838075 5.83704,4.2720076 7.89258,7.2144936 2.14314,3.067883 3.44938,6.676003 4.05245,10.369412 0.60306,3.69341 0.51993,7.475624 0.0439,11.187541 -1.55686,12.13907 -7.28903,23.476997 -14.90327,33.058443 -14.13508,17.786986 -34.29638,29.660953 -54.54166,39.971424 -35.75512,18.20928 -73.29037,32.83029 -111.68601,44.48281 -21.37145,6.48593 -43.01233,12.05657 -64.75808,17.1486 -17.24688,4.03857 -34.56331,7.77716 -51.79475,11.88112 -11.35577,2.70457 -22.73448,5.58801 -33.43648,10.25013 -10.702,4.66212 -20.77906,11.21278 -28.16173,20.25515 -11.25893,13.79005 -15.29292,31.9684 -18.34549,49.50723 -4.30615,24.74142 -7.34777,49.73552 -8.13513,74.83653 -0.92257,29.41181 1.25257,58.84849 4.7336,88.06814 2.16518,18.17448 4.84117,36.31643 9.08238,54.12126 7.30648,30.67299 19.17951,60.04057 31.17504,89.20089 9.57393,23.27356 19.31495,46.70094 24.08886,71.40982 0.74495,3.85573 1.36864,7.75142 1.4372,11.67785 0.0686,3.92644 -0.43234,7.90085 -1.87217,11.55441 -1.54337,3.9163 -4.14414,7.38159 -7.33223,10.13031 -3.1881,2.74872 -6.95236,4.79336 -10.9245,6.18673 -10.76759,3.77712 -22.94998,2.66265 -33.34665,-2.04022 -14.77238,-6.68219 -25.59945,-19.87742 -33.93743,-33.78256 -13.00416,-21.68687 -21.19044,-45.88597 -28.37215,-70.13162 -12.988,-43.84786 -23.02963,-88.66204 -27.91018,-134.13185 -4.45856,-41.53834 -4.59419,-83.41855 -3.8043,-125.18801 0.38594,-20.40835 0.99368,-40.84211 3.3004,-61.12335 1.94123,-17.06777 5.08696,-34.05621 5.25375,-51.23321 0.073,-7.51339 -0.4371,-15.09506 -2.47127,-22.32822 -3.4064,-12.11256 -10.99532,-22.76574 -20.27345,-31.2648 C 256.0248,139.33378 245.08643,132.84555 233.85927,127.165 209.79907,114.99138 184.08585,106.27322 157.87141,99.957092 140.99831,95.891678 123.89859,92.80899 106.72115,90.326149 85.136254,87.206252 63.358622,85.019902 42.162626,79.884608 32.942825,77.650866 23.681309,74.77989 15.917256,69.328851 12.035229,66.603332 8.5684874,63.241575 5.9666971,59.27556 3.3649069,55.309546 1.6471136,50.725986 1.2903703,45.996153 0.91764837,41.05447 2.0404738,36.048375 4.222525,31.598902 6.4045762,27.14943 9.6211621,23.245744 13.379348,20.015389"
     style="fill:none;stroke:#000000;stroke-width:1.06299213000000004;stroke-linecap:butt;stroke-linejoin:miter;stroke-miterlimit:4;stroke-opacity:1;stroke-dasharray:none" />
  <path
     sodipodi:type="arc"
     style="fill:#000000;stroke:none;stroke-width:3.54504366000000015;stroke-linecap:round;stroke-linejoin:miter;stroke-miterlimit:4;stroke-opacity:1;stroke-dasharray:none"
     id="path5115"
     sodipodi:cx="197.07362"
     sodipodi:cy="176.24985"
     sodipodi:rx="37.460278"
     sodipodi:ry="37.460278"
     d="m 234.5339,176.24985 a 37.460278,37.460278 0 1 1 -74.92055,0 37.460278,37.460278 0 1 1 74.92055,0 z"
     transform="matrix(0.2499264,0,0,0.2499264,0.13903915,0.53597054)" />
  <path
     d="m 234.5339,176.24985 a 37.460278,37.460278 0 1 1 -74.92055,0 37.460278,37.460278 0 1 1 74.92055,0 z"
     sodipodi:ry="37.460278"
     sodipodi:rx="37.460278"
     sodipodi:cy="176.24985"
     sodipodi:cx="197.07362"
     id="path5117"
     style="fill:#000000;stroke:none;stroke-width:3.54504366000000015;stroke-linecap:round;stroke-linejoin:miter;stroke-miterlimit:4;stroke-opacity:1;stroke-dasharray:none"
     sodipodi:type="arc"
     transform="matrix(0.2499264,0,0,0.2499264,644.51033,-2.4062245)" />
  <path
     transform="matrix(0.2499264,0,0,0.2499264,337.58931,595.56057)"
     sodipodi:type="arc"
     style="fill:#000000;stroke:none;stroke-width:3.54504366000000015;stroke-linecap:round;stroke-linejoin:miter;stroke-miterlimit:4;stroke-opacity:1;stroke-dasharray:none"
     id="path5119"
     sodipodi:cx="197.07362"
     sodipodi:cy="176.24985"
     sodipodi:rx="37.460278"
     sodipodi:ry="37.460278"
     d="m 234.5339,176.24985 a 37.460278,37.460278 0 1 1 -74.92055,0 37.460278,37.460278 0 1 1 74.92055,0 z" />
</svg>
