<?xml version="1.0" encoding="UTF-8" standalone="no"?>
<!-- Created with Inkscape (http://www.inkscape.org/) -->

<svg
   xmlns:dc="http://purl.org/dc/elements/1.1/"
   xmlns:cc="http://creativecommons.org/ns#"
   xmlns:rdf="http://www.w3.org/1999/02/22-rdf-syntax-ns#"
   xmlns:svg="http://www.w3.org/2000/svg"
   xmlns="http://www.w3.org/2000/svg"
   xmlns:sodipodi="http://sodipodi.sourceforge.net/DTD/sodipodi-0.dtd"
   xmlns:inkscape="http://www.inkscape.org/namespaces/inkscape"
   id="svg2"
   version="1.1"
   inkscape:version="0.48.2 r9819"
   width="2399.1538"
   height="906.44116"
   sodipodi:docname="17_WINDR.eps">
  <metadata
     id="metadata8">
    <rdf:RDF>
      <cc:Work
         rdf:about="">
        <dc:format>image/svg+xml</dc:format>
        <dc:type
           rdf:resource="http://purl.org/dc/dcmitype/StillImage" />
        <dc:title></dc:title>
      </cc:Work>
    </rdf:RDF>
  </metadata>
  <defs
     id="defs6" />
  <sodipodi:namedview
     pagecolor="#ffffff"
     bordercolor="#666666"
     borderopacity="1"
     objecttolerance="10"
     gridtolerance="10"
     guidetolerance="10"
     inkscape:pageopacity="0"
     inkscape:pageshadow="2"
     inkscape:window-width="1280"
     inkscape:window-height="752"
     id="namedview4"
     showgrid="false"
     fit-margin-top="0.3"
     fit-margin-right="0.3"
     fit-margin-bottom="0.3"
     fit-margin-left="0.3"
     inkscape:zoom="0.34657778"
     inkscape:cx="792.65624"
     inkscape:cy="385.54172"
     inkscape:window-x="0"
     inkscape:window-y="0"
     inkscape:window-maximized="1"
     inkscape:current-layer="svg2" />
  <g
     id="g3186"
     transform="translate(1149.624,-15.642922)">
    <path
       inkscape:connector-curvature="0"
       id="path3080"
       d="m 497.46477,892.30413 c -3.4105,0 -1.8364,4.76735 3.5625,10.78125 2.3474,2.6151 5.9344,2.5772 6.4375,-0.0625 0.421,-2.2085 -7.5188,-10.71875 -10,-10.71875 z"
       style="fill:#000000" />
    <path
       inkscape:connector-curvature="0"
       id="path3078"
       d="m 523.15227,868.64788 c 1.4373,-0.14318 1.60099,5.05779 0,9.25 -1.1056,2.8959 -1.4689,5.7084 -1.0625,7.875 0.3479,1.8545 0.18515,3.64195 -0.34375,3.96875 -1.7325,1.0708 -2.19615,-1.3224 -1.53125,-7.6875 0.3598,-3.4445 0.75505,-7.53845 0.90625,-9.09375 0.1511,-1.5553 0.75705,-3.31955 1.34375,-3.90625 0.25576,-0.25576 0.48217,-0.3858 0.6875,-0.40625 z"
       style="fill:#000000" />
    <path
       inkscape:connector-curvature="0"
       id="path3076"
       d="m 345.68352,814.14788 c -1.73643,0.0822 -3.04312,2.40494 -3.0625,6.46875 -0.029,5.9952 -0.88785,6.30375 -9.84375,3.34375 -10.317,-3.4096 -11.3408,-3.41825 -10.9375,0.0312 0.2694,2.3045 1.0549,2.93885 5.3125,4.15625 2.75,0.7863 6.42315,2.03095 8.15625,2.78125 1.7332,0.7503 3.67515,1.375 4.34375,1.375 0.7805,0 0.99845,0.8051 0.59375,2.25 -0.3466,1.2375 -0.92785,4.2063 -1.28125,6.625 -0.6229,4.2631 -0.55135,4.3875 1.78125,3.8125 1.3233,-0.3262 7.80625,-1.80515 14.40625,-3.28125 15.6477,-3.4998 15.43875,-2.84965 4.71875,-13.65625 -5.0496,-5.0904 -9.8863,-10.2625 -10.75,-11.5 -1.17806,-1.68788 -2.39564,-2.45556 -3.4375,-2.40625 z"
       style="fill:#000000" />
    <path
       inkscape:connector-curvature="0"
       id="path3074"
       d="m 249.83977,793.24163 c -1.05957,-0.17113 -1.83197,-0.16915 -2.15625,0.0312 -2.4032,1.4853 -0.60875,4.4883 3.46875,5.8125 2.1925,0.712 5.8,2.1121 8,3.125 2.2,1.0129 8.05,3.6825 13,5.9375 9.7352,4.4348 13.2077,5.0534 14.1875,2.5 1.0476,-2.73 -1.0261,-4.6317 -7.5,-6.875 -3.3948,-1.1763 -6.47165,-2.4405 -6.84375,-2.8125 -0.372,-0.3721 -1.29185,-0.65625 -2.03125,-0.65625 -0.7393,0 -3.231,-0.9112 -5.5625,-2 -5.43735,-2.53928 -11.3838,-4.54911 -14.5625,-5.0625 z"
       style="fill:#000000" />
    <path
       inkscape:connector-curvature="0"
       id="path3072"
       d="m 532.80852,783.52288 c -4.14115,-0.36757 -8.17256,2.54875 -10.78125,8.4375 -1.4339,3.2366 -3.09155,5.4379 -4.46875,5.875 -3.719,1.1804 -10.90625,5.8683 -10.90625,7.125 0,0.6541 -1.34345,2.1552 -2.96875,3.3125 -1.6253,1.1574 -4.39345,5.01305 -6.15625,8.59375 -1.7627,3.5806 -4.98025,8.40825 -7.15625,10.71875 -7.7079,8.1843 -8.1636,9.8254 -4.125,14.625 3.9153,4.6531 7.53245,2.2548 13.53125,-9 5.3449,-10.028 9.77565,-8.83915 5.46875,1.46875 -3.6522,8.741 -2.8116,15.9504 2.1875,19.125 4.3196,2.7432 4.37145,8.7958 0.15625,16 -1.609,2.75 -3.4171,6.125 -4,7.5 -0.5829,1.375 -1.9285,4.3264 -3,6.5625 -2.4985,5.2142 -2.4627,5.66245 0.6875,9.40625 3.7059,4.4042 6.13305,3.69215 9.84375,-2.84375 l 3.03125,-5.34375 0.3125,4.84375 c 0.3886,5.9742 0.81255,6.23695 9.03125,5.59375 7.5254,-0.5889 8.104,-1.09065 8.125,-6.96875 0.0133,-3.6848 -0.29145,-4.29725 -2.46875,-4.84375 -2.6918,-0.6756 -3.0678,-1.4322 -1.5,-3 1.412,-1.4115 1.42355,-9.82175 0.0312,-17.21875 -1.1187,-5.9439 -1.047,-6.5704 1.25,-11 2.6916,-5.191 3.46285,-8.6398 4.71875,-20.8125 0.9058,-8.78 4.5576,-16.38625 7.875,-16.40625 2.1018,-0.0127 12.11645,-4.6746 14.09375,-6.5625 3.3249,-3.1746 19.33345,-15.40625 20.15625,-15.40625 0.4811,0 0.875,-0.8225 0.875,-1.8125 0,-0.99 0.48165,-2.29415 1.09375,-2.90625 3.6308,-3.6308 -6.41285,-4.2788 -12.59375,-0.8125 -9.8623,5.531 -11.808,6.6864 -16.625,10 -5.8234,4.0057 -6.5344,4.1628 -9.0625,1.875 -2.4919,-2.2551 -2.3019,-2.89835 1.1875,-4.34375 3.8229,-1.5835 3.75065,-2.5955 -0.53125,-7.5 -2.30591,-2.64116 -4.82781,-4.06071 -7.3125,-4.28125 z m -1.28125,5.78125 c 1.1,0 2.2851,0.45 2.625,1 0.3399,0.55 -0.275,1 -1.375,1 -1.1,0 -2.2851,-0.45 -2.625,-1 -0.3399,-0.55 0.275,-1 1.375,-1 z m -4.03125,5.90625 c 1.88182,-0.60536 4.70663,1.12553 4.96875,3.84375 0.2788,2.8923 0.0312,3.25 -2.21875,3.25 -2.7722,0 -5.1336,-3.19085 -4.1875,-5.65625 0.29303,-0.76363 0.81023,-1.23571 1.4375,-1.4375 z m 34.625,0.53125 c 0.23687,-0.004 0.26844,0.16679 0.0625,0.5 -0.3755,0.6076 -2.99625,2.7955 -5.84375,4.875 -8.1398,5.9443 -13.0426,8.72175 -12.5,7.09375 0.2599,-0.7797 1.0258,-1.40625 1.6875,-1.40625 0.6617,0 1.51375,-0.45 1.90625,-1 1.85587,-2.60103 13.02943,-10.03649 14.6875,-10.0625 z m -54.03125,16.65625 c 0.3473,0.1678 0.5625,0.58652 0.5625,1.34375 0,0.8868 -1.8,3.43415 -4,5.65625 -4.5725,4.6184 -5.0067,4.0903 -1.6875,-2.1875 1.76873,-3.3453 4.0831,-5.3159 5.125,-4.8125 z m 5.875,23.65625 c 1.78302,-0.19004 4.07438,-0.15112 6.9375,0.0312 7.5029,0.4778 8.22645,1.65835 5.65625,9.03125 -1.0387,2.9796 -1.3118,3.0955 -6.25,2.9375 -2.8401,-0.0909 -6.56045,0.1853 -8.28125,0.625 -3.0139,0.7699 -3.14135,0.68295 -3.53125,-2.65625 -0.79223,-6.786 0.11968,-9.39864 5.46875,-9.96875 z m 4.09375,17.34375 c 0.52309,-0.0427 1.16875,0.0648 2.03125,0.28125 3.4384,0.8629 3.4771,0.80255 -4.0625,15.96875 -3.6463,7.3345 -7.52155,14.4278 -8.59375,15.75 l -1.9375,2.40625 0.5625,-2.59375 c 0.3048,-1.4165 2.574,-6.1703 5.0625,-10.5625 3.7821,-6.6756 4.58845,-8.9752 4.84375,-14.125 0.2646,-5.3367 0.52449,-6.99697 2.09375,-7.125 z"
       style="fill:#000000" />
    <path
       inkscape:connector-curvature="0"
       id="path3070"
       d="m 180.83977,756.92913 c -0.27482,0.0724 -0.54185,0.24412 -0.8125,0.46875 -2.2178,1.8405 -1.64715,3.47215 2.28125,6.53125 2.0204,1.5734 5.0579,4.03025 6.75,5.46875 1.692,1.4385 4.89375,3.58585 7.09375,4.78125 2.2,1.1954 6.7,3.7375 10,5.625 6.6438,3.8001 8.67605,4.19125 10.46875,2.03125 1.7025,-2.0515 0.7733,-3.047 -5.75,-6.1875 -5.8997,-2.8403 -21.52305,-12.8652 -26.59375,-17.0625 -1.67392,-1.38562 -2.61305,-1.87336 -3.4375,-1.65625 z"
       style="fill:#000000" />
    <path
       inkscape:connector-curvature="0"
       id="path3068"
       d="m 128.18352,702.30413 c -2.3034,0 -2.7077,3.18705 -0.6875,5.40625 1.6045,1.7623 6.21885,8.5184 15.34375,22.5 0.9288,1.4231 2.20975,3.1569 2.84375,3.875 1.7142,1.9417 4.4333,1.01115 4.8125,-1.65625 0.2006,-1.4108 -0.5005,-3.11715 -1.75,-4.28125 -1.1392,-1.0613 -4.38235,-5.3781 -7.21875,-9.625 -6.9569,-10.4166 -11.74375,-16.21875 -13.34375,-16.21875 z"
       style="fill:#000000" />
    <path
       inkscape:connector-curvature="0"
       id="path3066"
       d="m 568.21477,549.86663 c -4.28647,-0.054 -7.0625,1.19694 -7.0625,3.4375 l 0,2.5 14.875,0.6875 c 8.1814,0.38978 15.10855,0.95228 15.40625,1.25 1.1286,1.1286 6.02585,0.49987 7.21875,-0.9375 2.4311,-2.92931 -0.4336,-4.19295 -11.25,-4.9375 -5.6322,-0.38769 -12.1368,-1.06858 -14.4375,-1.5 -1.7119,-0.32101 -3.32118,-0.482 -4.75,-0.5 z m 67.46875,8.125 c -3.67728,0.007 -4.66185,0.66206 -4.84375,1.9375 -0.3618,2.53663 3.75485,4.31687 10.21875,4.4375 2.2555,0.0421 8.14375,0.63927 13.09375,1.34375 12.7648,1.8167 16.03425,1.83501 17.53125,0.0312 2.4428,-2.94343 -0.84885,-4.24307 -15.03125,-5.875 -10.9132,-1.25574 -17.29147,-1.88153 -20.96875,-1.875 z"
       style="fill:#000000" />
    <path
       inkscape:connector-curvature="0"
       id="path3064"
       d="m 887.05852,655.92913 c -0.23183,-0.34674 -0.37701,-0.52695 -0.71875,-1.125 -0.15457,-0.2705 -0.40244,-0.91341 -0.53125,-1.09375 -0.14824,-0.20752 -0.38301,-0.32372 -0.53125,-0.53125 -0.15625,-0.21875 -0.25477,-0.4783 -0.375,-0.71875 l -0.59375,-1.15625 -1.6875,0 c -3.6723,0 -3.8483,1.77699 -0.8125,9.1875 2.0488,5.00109 2.6807,13.94539 1.625,22.8125 -0.2463,2.0689 0.12375,2.5 2.15625,2.5 4.9272,0 6.24215,-12.96137 2.46875,-24.3125 -1.15854,-3.48505 -1.44677,-4.82677 -1,-5.5625 z"
       style="fill:#000000" />
    <path
       sodipodi:nodetypes="cscsscssssssssssssscssccsccsssscscsscsscsccscccsscscccscccccsscccsscccscscssssssscssssscsssssssssccscssscscscccssssscssccccccccsssccscssssscscssssscssssccsssssccccsscsscssccsssccscccsssscssccscsscc"
       inkscape:connector-curvature="0"
       id="path3062"
       d="m 602.83977,238.24163 c -6.65371,-0.56089 -7.65527,3.57504 -4.65625,13.84375 0.9188,3.14587 1.6875,7.82157 1.6875,10.40625 0.008,5.549 1.05005,6.64913 8.78125,9.25 3.025,1.01764 8.30415,3.11759 11.71875,4.6875 3.4145,1.5699 6.7895,2.88295 7.5,2.90625 1.2647,0.0416 5.1867,1.38767 23.1875,7.90625 27.5269,9.96822 92.04315,42.03517 101.53125,50.46875 0.8627,0.76683 3.5875,2.4197 6.0625,3.6875 2.475,1.26781 7.2,4.34594 10.5,6.84375 3.3,2.49781 6.71355,5.0125 7.59375,5.5625 5.6377,3.52267 9.79415,6.65071 12.40625,9.375 1.65,1.72088 4.575,4.10571 6.5,5.3125 4.2212,2.6463 13.12365,10.18622 21.40625,18.125 3.3494,3.21038 6.78725,6.13538 7.65625,6.5 3.8524,1.61637 33.9375,39.65163 33.9375,42.90625 0,0.43642 0.9,1.34429 2,2.03125 1.1,0.68696 2,1.74374 2,2.34375 0,0.60001 2.26595,5.85197 5.03125,11.65625 13.2297,27.76884 15.5426,51.88868 6.9375,72.40625 -1.0807,2.57696 -1.96875,5.58805 -1.96875,6.65625 0,1.06819 -0.63525,2.45385 -1.40625,3.09375 -0.771,0.63991 -1.6624,2.24845 -2,3.59375 -0.8269,3.2946 -16.18585,29.07462 -20.03125,33.625 -1.6878,1.99732 -4.8429,6.16199 -7,9.25 -2.1571,3.08801 -4.63885,6.37908 -5.53125,7.34375 -0.8923,0.96468 -4.05805,4.48125 -7.03125,7.78125 -2.9733,3.3 -8.14145,8.27702 -11.46875,11.0625 -3.3273,2.78548 -10.84375,9.76048 -16.71875,15.5 -13.6142,13.30032 -28.79135,27.43675 -32.46875,30.25 -1.5707,1.20162 -4.41875,3.66507 -6.34375,5.5 -5.7361,5.46768 -23.157,19.1866 -24.375,19.1875 -0.6212,4e-4 -2.925,1.61465 -5.125,3.59375 -4.6401,4.1741 -13.461,10.0938 -18.5,12.4375 -1.925,0.8954 -6.52405,3.8635 -10.21875,6.5625 -6.3146,4.6128 -10.0787,7.1286 -20.125,13.5625 -4.449,2.8492 -8.5907,3.47205 -11.75,1.78125 -1.7268,-0.9241 -19.56025,-5.84435 -28.90625,-7.96875 -16.3188,-3.7093 -55.4509,-10.99735 -63.5,-11.84375 -33.4434,-3.5166 -31.40995,-2.759 -29.65625,-11.25 1.7461,-8.45367 -0.23075,-9.04593 -8.90625,-2.6875 -2.4416,1.7895 -4.6857,3.26725 -5,3.28125 -0.3142,0.0136 -1.38125,0.81875 -2.34375,1.78125 -4.1271,4.1277 -4.09375,4.42603 -4.09375,-60.90625 0,-67.61459 0.1626,-65.70024 -5.5,-64.5 l -3.5,0.71875 -0.0937,102.96875 c -0.0943,108.91848 -0.0849,109.46875 4.53125,109.46875 5.1901,0 5.20905,-0.0184 4.96875,-40.1875 -0.2168,-36.2383 -0.1656,-37.3292 1.6875,-37 2.6571,0.472 7.48115,3.5779 10.34375,6.625 3.7271,3.9673 6.8659,3.4534 7.25,-1.1875 l 0.3125,-3.75 6,0.25 c 15.0859,0.6413 47.9171,5.69375 76,11.71875 8.3127,1.7835 32.5178,8.2096 36.0625,9.5625 l 2.9375,1.09375 -5.375,3.1875 c -2.9618,1.7465 -7.70355,5.01385 -10.53125,7.28125 -2.8276,2.2675 -7.8394,5.5742 -11.125,7.3125 -3.2856,1.7382 -7.76875,4.463 -9.96875,6.0625 -2.2,1.5995 -8.95,5.43565 -15,8.53125 -6.05,3.0956 -12.35,6.4996 -14,7.5625 -1.65,1.0628 -4.5011,2.62745 -6.3125,3.46875 -3.8864,1.8048 -4.74105,3.5305 -3.21875,6.375 1.5805,2.9531 5.47285,2.62235 9.84375,-0.84375 2.0303,-1.61 11.7875,-7.05545 21.6875,-12.09375 9.9,-5.0383 19.575,-10.17535 21.5,-11.40625 1.925,-1.2308 6.06475,-3.88535 9.21875,-5.90625 3.1541,-2.0208 6.0791,-3.713 6.5,-3.75 0.421,-0.0365 2.80625,-1.5772 5.28125,-3.4375 10.2939,-7.7372 12.8434,-8.85225 17.375,-7.53125 5.5884,1.6292 28.5069,10.6667 37.125,14.625 3.85,1.7683 8.6875,3.8917 10.75,4.75 4.6521,1.9361 4.67115,2.7438 0.15625,6.1875 -4.8779,3.7205 -3.1423,5.3844 6.4375,6.1875 16.1309,1.3524 18.02735,0.0472 -52.84375,36.0625 -12.375,6.2887 -29.25,14.94005 -37.5,19.21875 -8.25,4.2786 -22.65,11.71645 -32,16.53125 -29.1778,15.0252 -41.7378,21.58765 -49.5,25.84375 -4.125,2.2618 -11.55,6.00345 -16.5,8.34375 -9.4733,4.4789 -12.0851,8.4798 -8.4375,12.875 1.6459,1.9831 3.8453,1.78145 7.9375,-0.71875 1.925,-1.1761 16.775,-8.86205 33,-17.09375 91.0227,-46.1803 115.8126,-58.7195 202.5,-102.3125 52.25,-26.2753 103.55,-51.99015 114,-57.15625 59.7518,-29.5392 159.47958,-80.20506 167.74998,-85.21875 11.7709,-7.13578 -0.7276,-16.63891 -12.9062,-9.8125 -3.2154,1.80226 -9.2188,4.97239 -13.3438,7.03125 -4.1249,2.05886 -12.4499,6.35435 -18.5,9.53125 -6.05,3.1769 -20.6749,10.74389 -32.49998,16.84375 -18.5618,9.57495 -29.9248,15.55341 -36.75,19.28125 -0.9575,0.52297 -7.6,3.84577 -14.75,7.375 -7.15,3.52922 -19.525,9.77551 -27.5,13.90625 -7.975,4.1308 -23.95,12.36815 -35.5,18.28125 -49.5294,25.3569 -70.7003,36.17105 -81.5,41.65625 -6.325,3.2125 -12.175,6.2251 -13,6.6875 -8.8721,4.9728 -22.99105,11.4778 -23.59375,10.875 -0.4208,-0.4208 -0.3348,-3.8458 0.1875,-7.625 1.6672,-12.0619 -0.67105,-15.07975 -7.59375,-9.84375 -2.3633,1.7875 -5.0974,3.81265 -6.0625,4.53125 -1.5106,1.1249 -3.18465,0.6092 -12.09375,-3.6875 -5.6916,-2.7449 -16.86875,-7.6001 -24.84375,-10.8125 -20.1125,-8.1015 -19.90175,-7.79345 -9.15625,-12.96875 5.2908,-2.5482 28.62335,-17.1472 34.15625,-21.375 1.375,-1.0506 5.425,-4.0068 9,-6.5625 3.575,-2.5557 8.075,-5.9572 10,-7.5625 1.925,-1.6054 9.125,-7.05418 16,-12.125 21.9132,-16.16261 29.59575,-22.70315 50.15625,-42.5625 l 12.78125,-12.34375 3.78125,2.28125 c 2.0784,1.24539 4.45625,2.79854 5.28125,3.46875 0.825,0.67022 3.3,2.11289 5.5,3.21875 2.2,1.10585 5.7425,3.67519 7.875,5.6875 4.3126,4.06953 7.9327,4.47586 8.4375,0.9375 0.3462,-2.4266 -4.2636,-6.4969 -12.3125,-10.84375 -9.3922,-5.07224 -13.8507,-7.56952 -14.3125,-8.03125 -0.2538,-0.25385 4.45415,-5.77214 10.46875,-12.25 9.7303,-10.47963 19.8817,-23.00626 24.5,-30.28125 3.49,-5.49754 9.854,-17.8296 9.875,-19.125 0.0122,-0.75466 0.89315,-2.46875 1.96875,-3.84375 l 1.9375,-2.5 0.0625,4 c 0.082,5.75602 0.094,23.73671 0,67.25 l -0.0937,38.25 c -0.98546,3.24908 1.43389,2.49131 3.09375,3.6875 1.9177,-0.50148 2.01075,-1.3786 2.09375,-21.84375 0.395,-97.02712 0.79825,-110.69421 3.59375,-120.8125 4.1002,-14.84112 3.93375,-26.44531 -0.65625,-45.03125 -5.6708,-22.96179 -9.87755,-32.67939 -23.53125,-54.375 -12.7751,-20.2995 -62.9698,-68.29282 -81.3125,-77.75 -1.481,-0.76354 -3.21765,-1.825 -3.84375,-2.375 -1.6573,-1.45596 -9.86655,-7.71045 -17.34375,-13.1875 -3.575,-2.61867 -6.725,-5.02539 -7,-5.34375 -0.275,-0.31835 -2.525,-1.74541 -5,-3.1875 -2.475,-1.4421 -6.975,-4.50371 -10,-6.78125 -3.025,-2.27753 -8.425,-5.52191 -12,-7.21875 -3.575,-1.69683 -8.075,-4.29323 -10,-5.78125 -3.6226,-2.80026 -4.99395,-3.59882 -14.71875,-8.34375 -3.1783,-1.55075 -6.9777,-3.46325 -8.4375,-4.25 -1.4599,-0.78675 -3.2328,-1.40625 -3.9375,-1.40625 -0.7047,0 -2.20825,-0.83276 -3.34375,-1.84375 -1.1354,-1.01099 -3.6375,-2.45246 -5.5625,-3.1875 -1.925,-0.73504 -4.73055,-2.16339 -6.21875,-3.1875 -1.4882,-1.0241 -4.1882,-2.38601 -6,-3 -1.8118,-0.614 -4.40625,-1.8614 -5.78125,-2.78125 -1.375,-0.91985 -4.075,-2.24956 -6,-2.96875 -1.925,-0.71919 -6.5035,-2.83566 -10.1875,-4.6875 -3.6841,-1.85183 -7.1878,-3.34375 -7.75,-3.34375 -0.5621,0 -3.37745,-1.07897 -6.28125,-2.375 -2.9038,-1.29603 -8.43125,-3.32553 -12.28125,-4.53125 -3.85,-1.20571 -10.92955,-3.51183 -15.71875,-5.09375 -3.5396,-1.16916 -6.37585,-1.87554 -8.59375,-2.0625 z m 605.93743,266.3125 c -4.9205,0.53145 -5.0681,5.84765 1.875,11.03125 7.6252,5.69274 7.3962,5.98041 -13.25,16.4375 -28.8753,14.62515 -29.3167,15.05965 -21.2187,21.65625 3.1036,2.52813 6.0373,4.625 6.5313,4.625 1.1409,0 34.9265,-16.83474 36.9374,-18.40625 0.8251,-0.64469 3.1781,-1.93859 5.25,-2.875 l 3.7813,-1.71875 5.9687,5.5 c 3.2858,3.02064 6.4267,5.5 6.9688,5.5 1.6165,0 4.2877,-4.8668 3.625,-6.59375 -0.7793,-2.03078 0.9664,-13.41782 3.0312,-19.75 2.0368,-6.24577 1.6028,-6.62648 -9.375,-7.65625 -4.9563,-0.46492 -10.4032,-1.56331 -12.0937,-2.4375 -1.6905,-0.8742 -3.6602,-1.58065 -4.375,-1.59375 -0.7149,-0.013 -3.9757,-1.12276 -7.25,-2.46875 -2.6169,-1.07576 -4.7661,-1.42715 -6.4063,-1.25 z m -64.75,55.0625 c -0.7289,0.0302 -1.3236,0.20866 -1.75,0.5625 -0.7598,0.63067 -6.2155,3.6047 -12.125,6.59375 -5.9094,2.98905 -11.5305,6.11971 -12.4687,6.96875 -0.9382,0.84903 -2.1686,1.5625 -2.75,1.5625 -1.7693,0 -18.6291,9.01756 -21.0313,11.25 -2.9394,2.73186 -2.8778,3.01136 1.375,7.71875 1.9891,2.20158 4.234,4.03125 5,4.03125 4.7457,0 57.6336,-25.67193 58.7188,-28.5 1.3181,-3.43485 -9.8664,-10.39875 -14.9688,-10.1875 z m -439.78118,7.90625 c -1.08086,10e-4 -1.6097,0.35971 -2.3125,1.0625 -3.5022,3.50221 2.71395,6.15042 19.21875,8.1875 2.75,0.33941 7.025,1.24885 9.5,2.03125 2.475,0.7824 5.85,1.82667 7.5,2.3125 3.6804,1.08364 5.13615,0.62335 5.78125,-1.84375 0.8092,-3.09413 -4.77175,-5.20536 -21.28125,-8.03125 -3.575,-0.61193 -9.36165,-1.83766 -12.84375,-2.6875 -2.86055,-0.69814 -4.48164,-1.03266 -5.5625,-1.03125 z m 74.15625,19.4375 c -1.34558,0.0308 -2.28217,0.28645 -2.71875,0.8125 -1.9363,2.3331 0.008,3.78511 7.96875,5.96875 12.1059,3.32046 18.91585,5.68524 24.71875,8.5625 6.6198,3.28229 7.78125,3.25054 7.78125,-0.0937 0,-4.77418 -28.33096,-15.46548 -37.75,-15.25 z"
       style="fill:#000000" />
    <path
       inkscape:connector-curvature="0"
       id="path3060"
       d="m 309.87102,177.99163 c -14.17248,0.0327 -27.6639,0.49463 -32.71875,1.40625 -2.75,0.49595 -10.625,1.353 -17.5,1.90625 -6.875,0.55326 -14.75,1.67573 -17.5,2.5 -2.75,0.82426 -6.8,2.00505 -9,2.625 -27.4237,7.72778 -60.7725,24.01951 -70.4375,34.40625 -1.343,1.44324 -4.493,4.25369 -7,6.25 -7.5458,6.00856 -13.38935,11.49261 -16.78125,15.71875 -9.0833,11.3174 -12.4838,15.84901 -14.0625,18.78125 -0.955,1.77376 -2.68105,4.57106 -3.84375,6.21875 -10.1285,14.3525 -15.99475,30.71654 -20.96875,58.34375 -1.789095,9.93708 -1.459745,50.18481 0.53125,63.65625 3.4888,23.60573 4.4925,29.28276 7,39.5 1.5523,6.325 3.36675,15.1 4.03125,19.5 0.6645,4.4 2.1019,10.65005 3.1875,13.90625 1.9192,5.75633 1.97025,8.76233 1.78125,108.5 -0.1069,56.4188 0.113,103.33003 0.5,104.25 2.3655,5.62243 6.8245,1.91496 5.375,-4.46875 -1.3307,-5.86048 0.1545,-16.4653 3.1875,-22.875 1.571,-3.31994 0.72165,-5.8125 -1.96875,-5.8125 -2.2613,0 -2.125,3.21526 -2.125,-47 0,-112.4176 0.0255,-113.03294 3.125,-103.25 1.2142,3.83231 6.2577,15.78941 10.4375,24.75 7.9083,16.95363 10.0491,20.98177 16.0625,30 3.6674,5.5 7.76205,12.025 9.09375,14.5 4.4541,8.27767 10.70025,17.73233 16.15625,24.5 1.765,2.1894 7.74915,11.01609 8.21875,12.125 1.3367,3.1562 20.9313,25.73131 36.9375,42.5625 6.3666,6.69475 7.2347,8.0272 6,9.15625 -0.794,0.72602 -6.725,5.75502 -13.1875,11.15625 -17.3021,14.46073 -16.7439,16.84435 4.3125,17.96875 6.2115,0.3317 13.14,1.0028 15.375,1.5 2.2351,0.4971 8.10145,1.1971 13.03125,1.5625 4.9297,0.3654 10.0189,1.0707 11.3125,1.5625 1.2935,0.4918 4.09055,0.90625 6.21875,0.90625 2.1283,0 6.9984,0.6351 10.8125,1.4375 3.8141,0.8023 9.9613,1.77455 13.6875,2.15625 3.7263,0.3818 9.32315,1.5009 12.40625,2.5 11.4707,3.7171 14.9513,-0.6345 9.3125,-11.6875 -1.0978,-2.15173 -3.48505,-8.43892 -5.28125,-13.9375 -1.7963,-5.49858 -3.5608,-10.41875 -3.9375,-10.96875 -0.3767,-0.55 -1.23615,-3.25 -1.90625,-6 -2.3311,-9.56704 -3.4503,-13.03898 -6.3125,-19.5 -4.2723,-9.6438 -4.3966,-9.99809 -5.9375,-16.5 -2.0629,-8.70516 -4.62295,-8.72315 -15.34375,-0.0312 -4.4,3.56731 -8.3595,6.492 -8.8125,6.5 -1.6228,0.0294 -31.64445,-34.79881 -32.96875,-38.25 -0.5506,-1.43466 4.0305,-3.55212 6.4375,-2.96875 1.6979,0.41151 3.07765,-2.76327 1.84375,-4.25 -1.6296,-1.96353 -4.12245,-1.91346 -8.59375,0.21875 l -3.625,1.75 -2.15625,-2.75 c -1.1776,-1.51265 -4.4359,-5.55934 -7.25,-9 -9.9477,-12.16245 -25.2446,-35.21993 -32,-48.21875 -2.0009,-3.85 -4.9225,-8.8884 -6.5,-11.1875 -1.5775,-2.29909 -2.875,-4.50386 -2.875,-4.875 0,-0.37114 -1.30975,-2.60311 -2.90625,-4.96875 -1.5966,-2.36564 -3.2334,-5.33588 -3.625,-6.625 -0.3915,-1.28912 -1.508,-3.91875 -2.5,-5.84375 -3.0471,-5.91303 -13.96875,-28.9787 -13.96875,-29.5 0,-0.27019 -2.21195,-4.95669 -4.90625,-10.40625 -2.6942,-5.44956 -5.228,-11.40773 -5.625,-13.25 -0.397,-1.84226 -1.3553,-4.5874 -2.125,-6.09375 -0.7697,-1.50634 -1.86695,-6.45634 -2.46875,-11 -0.6019,-4.54365 -1.596,-8.8617 -2.1875,-9.59375 -3.1368,-3.8819 -4.65925,-40.09754 -2.65625,-63.09375 1.461,-16.77444 7.40615,-37.2557 14.96875,-51.5625 9.4882,-17.94931 8.87095,-17.2331 33.53125,-40.3125 7.1948,-6.7336 44.5731,-25.1875 51,-25.1875 1.2816,0 3.60795,-0.53588 5.15625,-1.15625 2.7524,-1.10284 6.2212,-1.98874 15.3125,-3.9375 15.0235,-3.22035 67.2182,-6.45645 76,-4.71875 1.925,0.38092 12.129,0.93727 22.6875,1.25 10.5585,0.31273 19.7835,0.77324 20.5,1.03125 1.7678,0.63661 23.7657,3.49258 31.8125,4.125 3.575,0.28097 7.85,0.89654 9.5,1.375 1.65,0.47845 5.04135,1.10426 7.53125,1.375 2.4898,0.27073 6.9898,1.41842 10,2.5625 3.0101,1.14407 5.84075,2.09347 6.28125,2.09375 0.9259,5.8e-4 3.8545,-6.54824 4.25,-9.5 0.1474,-1.1 0.7271,-4.025 1.3125,-6.5 3.2768,-13.85321 1.5415,-16.13667 -13.375,-17.5 -1.65,-0.15081 -3.675,-0.52009 -4.5,-0.8125 -0.825,-0.2924 -2.625,-0.75258 -4,-1 -1.375,-0.24742 -8.35,-1.62272 -15.5,-3.0625 -23.0836,-4.64832 -29.3879,-5.58804 -42,-6.28125 -4.4,-0.24185 -11.825,-0.87453 -16.5,-1.40625 -7.75525,-0.88204 -22.60877,-1.28272 -36.78125,-1.25 z m 179.875,368.46875 c -4.22737,0.0492 -6.92275,0.95796 -7.5625,2.625 -1.0538,2.7463 1.87345,3.85826 10.65625,4.03125 10.7632,0.212 28.18435,1.28612 28.71875,1.78125 1.1026,1.0217 6.99395,0.23147 8.09375,-1.09375 3.0028,-3.61809 -0.522,-4.59946 -22,-6.03125 -4.125,-0.27499 -10.0557,-0.77196 -13.1875,-1.09375 -1.7324,-0.178 -3.30962,-0.23514 -4.71875,-0.21875 z m -61.03125,0.25 c -9.38977,-0.10764 -19.24365,0.11536 -21.8125,0.78125 -3.112,0.80669 -4.35155,3.36719 -2.53125,5.1875 0.3912,0.39121 5.2287,0.46141 10.75,0.1875 5.5213,-0.27392 15.1077,-0.50565 21.3125,-0.53125 11.6022,-0.0479 14.5119,-1.17808 11.3125,-4.375 -0.70395,-0.70341 -9.64148,-1.14236 -19.03125,-1.25 z m -54.09375,1.375 c -10.9407,0.85958 -28.10485,2.76198 -34.28125,3.78125 -3.9112,0.64544 -5.36305,2.28113 -4.34375,4.9375 0.3166,0.825 0.73655,1.5 0.90625,1.5 0.1698,0 6.59635,-0.89384 14.28125,-1.96875 7.685,-1.0749 16.21875,-2.04478 18.96875,-2.15625 5.5953,-0.2268 7.5,-1.23443 7.5,-4 0,-1.61658 -0.92095,-2.25955 -3.03125,-2.09375 z m -69.28125,8.8125 c -1.99601,-0.0645 -5.68325,0.57472 -12.375,1.90625 -22.431,4.46331 -26.30305,6.17202 -23.15625,10.125 0.6239,0.7837 2.0629,0.86301 4.625,0.25 2.0463,-0.48959 7.54375,-1.83124 12.21875,-2.96875 4.675,-1.1375 10.93185,-2.49867 13.90625,-3.03125 6.5238,-1.16811 7.09375,-1.46383 7.09375,-3.875 0,-1.54794 -0.31649,-2.3417 -2.3125,-2.40625 z m -134.5625,40.75 c -3.98012,0.13419 -12.1445,4.03246 -22.4375,10.90625 -6.3603,4.24752 -7.5622,5.9911 -5.6875,8.25 1.7557,2.11549 2.6232,1.89445 7.3125,-1.8125 5.5127,-4.35787 13.62655,-9.17455 18.15625,-10.8125 4.3144,-1.56011 5.95595,-3.29082 5.15625,-5.375 -0.31655,-0.82491 -1.17329,-1.20098 -2.5,-1.15625 z"
       style="fill:#000000" />
    <path
       inkscape:connector-curvature="0"
       id="path2997"
       d="m 482.58977,15.991632 c -0.4339,0.44647 -12.15975,59.987499 -26.03125,132.312498 -13.8714,72.325 -25.4814,131.76849 -25.8125,132.125 -0.3311,0.35652 -14.26625,-1.34851 -30.96875,-3.8125 -18.2981,-2.69936 -30.73155,-4.11217 -31.28125,-3.5625 -2.7459,2.74591 2.9053,6.67404 79.6875,55.75 43.4331,27.76061 79.3981,50.46675 79.9375,50.46875 1.0134,0.003 111.67065,-46.80726 128.53125,-54.375 7.3295,-3.28976 9.5655,-4.75979 9.8125,-6.4375 0.4355,-2.95785 1.2268,-2.77578 -33.8125,-8.09375 -17.0342,-2.58531 -31.2051,-4.92386 -31.5,-5.21875 -0.5575,-0.55752 -41.46255,-269.939828 -41.84375,-275.562498 -0.119,-1.75657 -0.47455,-3.44331 -0.78125,-3.75 -1.0516,-1.05161 -75.1478,-10.65617 -75.9375,-9.84375 z m 6.09375,4.78125 c 13.61653,0.115167 65.05896,7.533134 66.0625,10.03125 0.4365,1.08664 10.10395,63.874999 21.46875,139.499998 11.3649,75.625 20.9909,137.82922 21.375,138.25 0.3841,0.42078 14.7834,2.87522 32,5.46875 27.5551,4.15093 30.9621,4.86593 28.4375,5.90625 -1.5775,0.65 -30.9523,13.15806 -65.25,27.78125 -34.2977,14.62319 -62.8727,26.56365 -63.5,26.53125 -1.0858,-0.056 -151.76915,-96.19726 -151.34375,-96.5625 0.112,-0.0962 12.50915,1.66134 27.53125,3.875 17.4779,2.57553 27.66605,3.67772 28.28125,3.0625 0.5288,-0.52878 12.21175,-59.67219 25.96875,-131.40625 13.7569,-71.734049 25.32665,-131.136108 25.71875,-131.999998 0.14392,-0.317113 1.30478,-0.453952 3.25,-0.4375 z"
       style="fill:#000000" />
    <text
       transform="matrix(0,-1,1,0,0,0)"
       sodipodi:linespacing="125%"
       id="text3082"
       y="553.24255"
       x="-327.2861"
       style="font-size:92.52360535px;font-style:normal;font-variant:normal;font-weight:normal;font-stretch:normal;line-height:125%;letter-spacing:0px;word-spacing:0px;fill:#000000;fill-opacity:1;stroke:none;font-family:Arial Hebrew;-inkscape-font-specification:Arial Hebrew"
       xml:space="preserve"><tspan
         y="553.24255"
         x="-327.2861"
         id="tspan3084"
         sodipodi:role="line">Wind</tspan></text>
    <text
       transform="matrix(0.89321527,-0.44962928,0.44962928,0.89321527,0,0)"
       sodipodi:linespacing="125%"
       id="text3086"
       y="1069.4554"
       x="73.229698"
       style="font-size:45.02273178px;font-style:normal;font-variant:normal;font-weight:normal;font-stretch:normal;line-height:125%;letter-spacing:0px;word-spacing:0px;fill:#000000;fill-opacity:1;stroke:none;font-family:Arial Hebrew;-inkscape-font-specification:Arial Hebrew"
       xml:space="preserve"><tspan
         y="1069.4554"
         x="73.229698"
         id="tspan3088"
         sodipodi:role="line">throwing direction for right-hander</tspan></text>
  </g>
  <g
     id="g3168"
     transform="translate(1179.624,-13.034028)">
    <path
       style="fill:#000000"
       d="m -427.55901,898.07484 c 3.4105,0 1.8364,4.76735 -3.5625,10.78125 -2.3474,2.6151 -5.9344,2.5772 -6.4375,-0.0625 -0.421,-2.2085 7.5188,-10.71875 10,-10.71875 z"
       id="path3090"
       inkscape:connector-curvature="0" />
    <path
       style="fill:#000000"
       d="m -453.24651,874.41859 c -1.4373,-0.14318 -1.60099,5.05779 0,9.25 1.1056,2.8959 1.4689,5.7084 1.0625,7.875 -0.3479,1.8545 -0.18515,3.64195 0.34375,3.96875 1.7325,1.0708 2.19615,-1.3224 1.53125,-7.6875 -0.3598,-3.4445 -0.75505,-7.53845 -0.90625,-9.09375 -0.1511,-1.5553 -0.75705,-3.31955 -1.34375,-3.90625 -0.25576,-0.25576 -0.48217,-0.3858 -0.6875,-0.40625 z"
       id="path3092"
       inkscape:connector-curvature="0" />
    <path
       style="fill:#000000"
       d="m -275.77776,819.91859 c 1.73643,0.0822 3.04312,2.40494 3.0625,6.46875 0.029,5.9952 0.88785,6.30375 9.84375,3.34375 10.317,-3.4096 11.3408,-3.41825 10.9375,0.0312 -0.2694,2.3045 -1.0549,2.93885 -5.3125,4.15625 -2.75,0.7863 -6.42315,2.03095 -8.15625,2.78125 -1.7332,0.7503 -3.67515,1.375 -4.34375,1.375 -0.7805,0 -0.99845,0.8051 -0.59375,2.25 0.3466,1.2375 0.92785,4.2063 1.28125,6.625 0.6229,4.2631 0.55135,4.3875 -1.78125,3.8125 -1.3233,-0.3262 -7.80625,-1.80515 -14.40625,-3.28125 -15.6477,-3.4998 -15.43875,-2.84965 -4.71875,-13.65625 5.0496,-5.0904 9.8863,-10.2625 10.75,-11.5 1.17806,-1.68788 2.39564,-2.45556 3.4375,-2.40625 z"
       id="path3094"
       inkscape:connector-curvature="0" />
    <path
       style="fill:#000000"
       d="m -179.934,799.01234 c 1.0596,-0.17113 1.832,-0.16915 2.1562,0.0312 2.4032,1.4853 0.6088,4.4883 -3.4687,5.8125 -2.1925,0.712 -5.8,2.1121 -8,3.125 -2.2,1.0129 -8.05,3.6825 -13,5.9375 -9.73521,4.4348 -13.20771,5.0534 -14.18751,2.5 -1.0476,-2.73 1.0261,-4.6317 7.5,-6.875 3.39481,-1.1763 6.47161,-2.4405 6.84371,-2.8125 0.372,-0.3721 1.2919,-0.65625 2.0313,-0.65625 0.7393,0 3.231,-0.9112 5.5625,-2 5.4373,-2.53928 11.3838,-4.54911 14.5625,-5.0625 z"
       id="path3096"
       inkscape:connector-curvature="0" />
    <path
       style="fill:#000000"
       d="m -462.90276,789.29359 c 4.14115,-0.36757 8.17256,2.54875 10.78125,8.4375 1.4339,3.2366 3.09155,5.4379 4.46875,5.875 3.719,1.1804 10.90625,5.8683 10.90625,7.125 0,0.6541 1.34345,2.1552 2.96875,3.3125 1.6253,1.1574 4.39345,5.01305 6.15625,8.59375 1.7627,3.5806 4.98025,8.40825 7.15625,10.71875 7.7079,8.1843 8.1636,9.8254 4.125,14.625 -3.9153,4.6531 -7.53245,2.2548 -13.53125,-9 -5.3449,-10.028 -9.77565,-8.83915 -5.46875,1.46875 3.6522,8.741 2.8116,15.9504 -2.1875,19.125 -4.3196,2.7432 -4.37145,8.7958 -0.15625,16 1.609,2.75 3.4171,6.125 4,7.5 0.5829,1.375 1.9285,4.3264 3,6.5625 2.4985,5.2142 2.4627,5.66245 -0.6875,9.40625 -3.7059,4.4042 -6.13305,3.69215 -9.84375,-2.84375 l -3.03125,-5.34375 -0.3125,4.84375 c -0.3886,5.9742 -0.81255,6.23695 -9.03125,5.59375 -7.5254,-0.5889 -8.104,-1.09065 -8.125,-6.96875 -0.0133,-3.6848 0.29145,-4.29725 2.46875,-4.84375 2.6918,-0.6756 3.0678,-1.4322 1.5,-3 -1.412,-1.4115 -1.42355,-9.82175 -0.0312,-17.21875 1.1187,-5.9439 1.047,-6.5704 -1.25,-11 -2.6916,-5.191 -3.46285,-8.6398 -4.71875,-20.8125 -0.9058,-8.78 -4.5576,-16.38625 -7.875,-16.40625 -2.1018,-0.0127 -12.11645,-4.6746 -14.09375,-6.5625 -3.3249,-3.1746 -19.33345,-15.40625 -20.15625,-15.40625 -0.4811,0 -0.875,-0.8225 -0.875,-1.8125 0,-0.99 -0.48165,-2.29415 -1.09375,-2.90625 -3.6308,-3.6308 6.41285,-4.2788 12.59375,-0.8125 9.8623,5.531 11.808,6.6864 16.625,10 5.8234,4.0057 6.5344,4.1628 9.0625,1.875 2.4919,-2.2551 2.3019,-2.89835 -1.1875,-4.34375 -3.8229,-1.5835 -3.75065,-2.5955 0.53125,-7.5 2.30591,-2.64116 4.82781,-4.06071 7.3125,-4.28125 z m 1.28125,5.78125 c -1.1,0 -2.2851,0.45 -2.625,1 -0.3399,0.55 0.275,1 1.375,1 1.1,0 2.2851,-0.45 2.625,-1 0.3399,-0.55 -0.275,-1 -1.375,-1 z m 4.03125,5.90625 c -1.88182,-0.60536 -4.70663,1.12553 -4.96875,3.84375 -0.2788,2.8923 -0.0312,3.25 2.21875,3.25 2.7722,0 5.1336,-3.19085 4.1875,-5.65625 -0.29303,-0.76363 -0.81023,-1.23571 -1.4375,-1.4375 z m -34.625,0.53125 c -0.23687,-0.004 -0.26844,0.16679 -0.0625,0.5 0.3755,0.6076 2.99625,2.7955 5.84375,4.875 8.1398,5.9443 13.0426,8.72175 12.5,7.09375 -0.2599,-0.7797 -1.0258,-1.40625 -1.6875,-1.40625 -0.6617,0 -1.51375,-0.45 -1.90625,-1 -1.85587,-2.60103 -13.02943,-10.03649 -14.6875,-10.0625 z m 54.03125,16.65625 c -0.3473,0.1678 -0.5625,0.58652 -0.5625,1.34375 0,0.8868 1.8,3.43415 4,5.65625 4.5725,4.6184 5.0067,4.0903 1.6875,-2.1875 -1.76873,-3.3453 -4.0831,-5.3159 -5.125,-4.8125 z m -5.875,23.65625 c -1.78302,-0.19004 -4.07438,-0.15112 -6.9375,0.0312 -7.5029,0.4778 -8.22645,1.65835 -5.65625,9.03125 1.0387,2.9796 1.3118,3.0955 6.25,2.9375 2.8401,-0.0909 6.56045,0.1853 8.28125,0.625 3.0139,0.7699 3.14135,0.68295 3.53125,-2.65625 0.79223,-6.786 -0.11968,-9.39864 -5.46875,-9.96875 z m -4.09375,17.34375 c -0.52309,-0.0427 -1.16875,0.0648 -2.03125,0.28125 -3.4384,0.8629 -3.4771,0.80255 4.0625,15.96875 3.6463,7.3345 7.52155,14.4278 8.59375,15.75 l 1.9375,2.40625 -0.5625,-2.59375 c -0.3048,-1.4165 -2.574,-6.1703 -5.0625,-10.5625 -3.7821,-6.6756 -4.58845,-8.9752 -4.84375,-14.125 -0.2646,-5.3367 -0.52449,-6.99697 -2.09375,-7.125 z"
       id="path3098"
       inkscape:connector-curvature="0" />
    <path
       style="fill:#000000"
       d="m -110.934,762.69984 c 0.2748,0.0724 0.5418,0.24412 0.8125,0.46875 2.2178,1.8405 1.6471,3.47215 -2.2813,6.53125 -2.0204,1.5734 -5.0579,4.03025 -6.75,5.46875 -1.692,1.4385 -4.8937,3.58585 -7.0937,4.78125 -2.2,1.1954 -6.7,3.7375 -10,5.625 -6.6438,3.8001 -8.6761,4.19125 -10.4688,2.03125 -1.7025,-2.0515 -0.7733,-3.047 5.75,-6.1875 5.8997,-2.8403 21.5231,-12.8652 26.5938,-17.0625 1.6739,-1.38562 2.613,-1.87336 3.4375,-1.65625 z"
       id="path3100"
       inkscape:connector-curvature="0" />
    <path
       style="fill:#000000"
       d="m -58.2778,708.07484 c 2.3034,0 2.7077,3.18705 0.6875,5.40625 -1.6045,1.7623 -6.2188,8.5184 -15.3437,22.5 -0.9288,1.4231 -2.2098,3.1569 -2.8438,3.875 -1.7142,1.9417 -4.4333,1.01115 -4.8125,-1.65625 -0.2006,-1.4108 0.5005,-3.11715 1.75,-4.28125 1.1392,-1.0613 4.3824,-5.3781 7.2188,-9.625 6.9569,-10.4166 11.7437,-16.21875 13.3437,-16.21875 z"
       id="path3102"
       inkscape:connector-curvature="0" />
    <path
       style="fill:#000000"
       d="m -498.30901,555.63734 c 4.28647,-0.054 7.0625,1.19694 7.0625,3.4375 l 0,2.5 -14.875,0.6875 c -8.1814,0.38978 -15.10855,0.95228 -15.40625,1.25 -1.1286,1.1286 -6.02585,0.49987 -7.21875,-0.9375 -2.4311,-2.92931 0.4336,-4.19295 11.25,-4.9375 5.6322,-0.38769 12.1368,-1.06858 14.4375,-1.5 1.7119,-0.32101 3.32118,-0.482 4.75,-0.5 z m -67.46875,8.125 c 3.67728,0.007 4.66185,0.66206 4.84375,1.9375 0.3618,2.53663 -3.75485,4.31687 -10.21875,4.4375 -2.2555,0.0421 -8.14375,0.63927 -13.09375,1.34375 -12.7648,1.8167 -16.03425,1.83501 -17.53125,0.0312 -2.4428,-2.94343 0.84885,-4.24307 15.03125,-5.875 10.9132,-1.25574 17.29147,-1.88153 20.96875,-1.875 z"
       id="path3104"
       inkscape:connector-curvature="0" />
    <path
       style="fill:#000000"
       d="m -817.15276,661.69984 c 0.23183,-0.34674 0.37701,-0.52695 0.71875,-1.125 0.15457,-0.2705 0.40244,-0.91341 0.53125,-1.09375 0.14824,-0.20752 0.38301,-0.32372 0.53125,-0.53125 0.15625,-0.21875 0.25477,-0.4783 0.375,-0.71875 l 0.59375,-1.15625 1.6875,0 c 3.6723,0 3.8483,1.77699 0.8125,9.1875 -2.0488,5.00109 -2.6807,13.94539 -1.625,22.8125 0.2463,2.0689 -0.12375,2.5 -2.15625,2.5 -4.9272,0 -6.24215,-12.96137 -2.46875,-24.3125 1.15854,-3.48505 1.44677,-4.82677 1,-5.5625 z"
       id="path3106"
       inkscape:connector-curvature="0" />
    <path
       style="fill:#000000"
       d="m -532.93401,244.01234 c 6.65371,-0.56089 7.65527,3.57504 4.65625,13.84375 -0.9188,3.14587 -1.6875,7.82157 -1.6875,10.40625 -0.008,5.549 -1.05005,6.64913 -8.78125,9.25 -3.025,1.01764 -8.30415,3.11759 -11.71875,4.6875 -3.4145,1.5699 -6.7895,2.88295 -7.5,2.90625 -1.2647,0.0416 -5.1867,1.38767 -23.1875,7.90625 -27.5269,9.96822 -92.04315,42.03517 -101.53125,50.46875 -0.8627,0.76683 -3.5875,2.4197 -6.0625,3.6875 -2.475,1.26781 -7.2,4.34594 -10.5,6.84375 -3.3,2.49781 -6.71355,5.0125 -7.59375,5.5625 -5.6377,3.52267 -9.79415,6.65071 -12.40625,9.375 -1.65,1.72088 -4.575,4.10571 -6.5,5.3125 -4.2212,2.6463 -13.12365,10.18622 -21.40625,18.125 -3.3494,3.21038 -6.78725,6.13538 -7.65625,6.5 -3.8524,1.61637 -33.9375,39.65163 -33.9375,42.90625 0,0.43642 -0.9,1.34429 -2,2.03125 -1.1,0.68696 -2,1.74374 -2,2.34375 0,0.60001 -2.26595,5.85197 -5.03125,11.65625 -13.2297,27.76884 -15.5426,51.88868 -6.9375,72.40625 1.0807,2.57696 1.96875,5.58805 1.96875,6.65625 0,1.06819 0.63525,2.45385 1.40625,3.09375 0.771,0.63991 1.6624,2.24845 2,3.59375 0.8269,3.2946 16.18585,29.07462 20.03125,33.625 1.6878,1.99732 4.8429,6.16199 7,9.25 2.1571,3.08801 4.63885,6.37908 5.53125,7.34375 0.8923,0.96468 4.05805,4.48125 7.03125,7.78125 2.9733,3.3 8.14145,8.27702 11.46875,11.0625 3.3273,2.78548 10.84375,9.76048 16.71875,15.5 13.6142,13.30032 28.79135,27.43675 32.46875,30.25 1.5707,1.20162 4.41875,3.66507 6.34375,5.5 5.7361,5.46768 23.157,19.1866 24.375,19.1875 0.6212,4e-4 2.925,1.61465 5.125,3.59375 4.6401,4.1741 13.461,10.0938 18.5,12.4375 1.925,0.8954 6.52405,3.8635 10.21875,6.5625 6.3146,4.6128 10.0787,7.1286 20.125,13.5625 4.449,2.8492 8.5907,3.47205 11.75,1.78125 1.7268,-0.9241 19.56025,-5.84435 28.90625,-7.96875 16.3188,-3.7093 55.4509,-10.99735 63.5,-11.84375 33.4434,-3.5166 31.40995,-2.759 29.65625,-11.25 -1.7461,-8.45367 0.23075,-9.04593 8.90625,-2.6875 2.4416,1.7895 4.6857,3.26725 5,3.28125 0.3142,0.0136 1.38125,0.81875 2.34375,1.78125 4.1271,4.1277 4.09375,4.42603 4.09375,-60.90625 0,-67.61459 -0.1626,-65.70024 5.5,-64.5 l 3.5,0.71875 0.0937,102.96875 c 0.0943,108.91848 0.0849,109.46875 -4.53125,109.46875 -5.1901,0 -5.20905,-0.0184 -4.96875,-40.1875 0.2168,-36.2383 0.1656,-37.3292 -1.6875,-37 -2.6571,0.472 -7.48115,3.5779 -10.34375,6.625 -3.7271,3.9673 -6.8659,3.4534 -7.25,-1.1875 l -0.3125,-3.75 -6,0.25 c -15.0859,0.6413 -47.9171,5.69375 -76,11.71875 -8.3127,1.7835 -32.5178,8.2096 -36.0625,9.5625 l -2.9375,1.09375 5.375,3.1875 c 2.9618,1.7465 7.70355,5.01385 10.53125,7.28125 2.8276,2.2675 7.8394,5.5742 11.125,7.3125 3.2856,1.7382 7.76875,4.463 9.96875,6.0625 2.2,1.5995 8.95,5.43565 15,8.53125 6.05,3.0956 12.35,6.4996 14,7.5625 1.65,1.0628 4.5011,2.62745 6.3125,3.46875 3.8864,1.8048 4.74105,3.5305 3.21875,6.375 -1.5805,2.9531 -5.47285,2.62235 -9.84375,-0.84375 -2.0303,-1.61 -11.7875,-7.05545 -21.6875,-12.09375 -9.9,-5.0383 -19.575,-10.17535 -21.5,-11.40625 -1.925,-1.2308 -6.06475,-3.88535 -9.21875,-5.90625 -3.1541,-2.0208 -6.0791,-3.713 -6.5,-3.75 -0.421,-0.0365 -2.80625,-1.5772 -5.28125,-3.4375 -10.2939,-7.7372 -12.8434,-8.85225 -17.375,-7.53125 -5.5884,1.6292 -28.5069,10.6667 -37.125,14.625 -3.85,1.7683 -8.6875,3.8917 -10.75,4.75 -4.6521,1.9361 -4.67115,2.7438 -0.15625,6.1875 4.8779,3.7205 3.1423,5.3844 -6.4375,6.1875 -16.1309,1.3524 -18.02735,0.0472 52.84375,36.0625 12.375,6.2887 29.25,14.94005 37.5,19.21875 8.25,4.2786 22.65,11.71645 32,16.53125 29.1778,15.0252 41.7378,21.58765 49.5,25.84375 4.125,2.2618 11.55,6.00345 16.5,8.34375 9.4733,4.4789 12.0851,8.4798 8.4375,12.875 -1.6459,1.9831 -3.8453,1.78145 -7.9375,-0.71875 -1.925,-1.1761 -16.775,-8.86205 -33,-17.09375 -91.0227,-46.1803 -115.8126,-58.7195 -202.5,-102.3125 -52.25,-26.2753 -103.55,-51.99015 -114,-57.15625 -59.7518,-29.5392 -159.47958,-80.20506 -167.74998,-85.21875 -11.77086,-7.13578 0.7276,-16.63891 12.9062,-9.8125 3.2154,1.80226 9.2188,4.97239 13.3438,7.03125 4.1249,2.05886 12.4499,6.35435 18.5,9.53125 6.05,3.1769 20.6749,10.74389 32.49998,16.84375 18.5618,9.57495 29.9248,15.55341 36.75,19.28125 0.9575,0.52297 7.6,3.84577 14.75,7.375 7.15,3.52922 19.525,9.77551 27.5,13.90625 7.975,4.1308 23.95,12.36815 35.5,18.28125 49.5294,25.3569 70.7003,36.17105 81.5,41.65625 6.325,3.2125 12.175,6.2251 13,6.6875 8.8721,4.9728 22.99105,11.4778 23.59375,10.875 0.4208,-0.4208 0.3348,-3.8458 -0.1875,-7.625 -1.6672,-12.0619 0.67105,-15.07975 7.59375,-9.84375 2.3633,1.7875 5.0974,3.81265 6.0625,4.53125 1.5106,1.1249 3.18465,0.6092 12.09375,-3.6875 5.6916,-2.7449 16.86875,-7.6001 24.84375,-10.8125 20.1125,-8.1015 19.90175,-7.79345 9.15625,-12.96875 -5.2908,-2.5482 -28.62335,-17.1472 -34.15625,-21.375 -1.375,-1.0506 -5.425,-4.0068 -9,-6.5625 -3.575,-2.5557 -8.075,-5.9572 -10,-7.5625 -1.925,-1.6054 -9.125,-7.05418 -16,-12.125 -21.9132,-16.16261 -29.59575,-22.70315 -50.15625,-42.5625 l -12.78125,-12.34375 -3.78125,2.28125 c -2.0784,1.24539 -4.45625,2.79854 -5.28125,3.46875 -0.825,0.67022 -3.3,2.11289 -5.5,3.21875 -2.2,1.10585 -5.7425,3.67519 -7.875,5.6875 -4.3126,4.06953 -7.9327,4.47586 -8.4375,0.9375 -0.3462,-2.4266 4.2636,-6.4969 12.3125,-10.84375 9.3922,-5.07224 13.8507,-7.56952 14.3125,-8.03125 0.2538,-0.25385 -4.45415,-5.77214 -10.46875,-12.25 -9.7303,-10.47963 -19.8817,-23.00626 -24.5,-30.28125 -3.49,-5.49754 -9.854,-17.8296 -9.875,-19.125 -0.0122,-0.75466 -0.89315,-2.46875 -1.96875,-3.84375 l -1.9375,-2.5 -0.0625,4 c -0.082,5.75602 -0.094,23.73671 0,67.25 l 0.0937,38.25 c 0.98546,3.24908 -1.43389,2.49131 -3.09375,3.6875 -1.9177,-0.50148 -2.01075,-1.3786 -2.09375,-21.84375 -0.395,-97.02712 -0.79825,-110.69421 -3.59375,-120.8125 -4.1002,-14.84112 -3.93375,-26.44531 0.65625,-45.03125 5.6708,-22.96179 9.87755,-32.67939 23.53125,-54.375 12.7751,-20.2995 62.9698,-68.29282 81.3125,-77.75 1.481,-0.76354 3.21765,-1.825 3.84375,-2.375 1.6573,-1.45596 9.86655,-7.71045 17.34375,-13.1875 3.575,-2.61867 6.725,-5.02539 7,-5.34375 0.275,-0.31835 2.525,-1.74541 5,-3.1875 2.475,-1.4421 6.975,-4.50371 10,-6.78125 3.025,-2.27753 8.425,-5.52191 12,-7.21875 3.575,-1.69683 8.075,-4.29323 10,-5.78125 3.6226,-2.80026 4.99395,-3.59882 14.71875,-8.34375 3.1783,-1.55075 6.9777,-3.46325 8.4375,-4.25 1.4599,-0.78675 3.2328,-1.40625 3.9375,-1.40625 0.7047,0 2.20825,-0.83276 3.34375,-1.84375 1.1354,-1.01099 3.6375,-2.45246 5.5625,-3.1875 1.925,-0.73504 4.73055,-2.16339 6.21875,-3.1875 1.4882,-1.0241 4.1882,-2.38601 6,-3 1.8118,-0.614 4.40625,-1.8614 5.78125,-2.78125 1.375,-0.91985 4.075,-2.24956 6,-2.96875 1.925,-0.71919 6.5035,-2.83566 10.1875,-4.6875 3.6841,-1.85183 7.1878,-3.34375 7.75,-3.34375 0.5621,0 3.37745,-1.07897 6.28125,-2.375 2.9038,-1.29603 8.43125,-3.32553 12.28125,-4.53125 3.85,-1.20571 10.92955,-3.51183 15.71875,-5.09375 3.5396,-1.16916 6.37585,-1.87554 8.59375,-2.0625 z m -605.93739,266.3125 c 4.9205,0.53145 5.0681,5.84765 -1.875,11.03125 -7.6252,5.69274 -7.3962,5.98041 13.25,16.4375 28.8753,14.62515 29.3167,15.05965 21.2187,21.65625 -3.1036,2.52813 -6.0373,4.625 -6.5313,4.625 -1.1409,0 -34.9265,-16.83474 -36.9374,-18.40625 -0.8251,-0.64469 -3.1781,-1.93859 -5.25,-2.875 l -3.7813,-1.71875 -5.9687,5.5 c -3.2858,3.02064 -6.4267,5.5 -6.9688,5.5 -1.6165,0 -4.2877,-4.8668 -3.625,-6.59375 0.7793,-2.03078 -0.9664,-13.41782 -3.0312,-19.75 -2.0368,-6.24577 -1.6028,-6.62648 9.375,-7.65625 4.9563,-0.46492 10.4032,-1.56331 12.0937,-2.4375 1.6905,-0.8742 3.6602,-1.58065 4.375,-1.59375 0.7149,-0.013 3.9757,-1.12276 7.25,-2.46875 2.6169,-1.07576 4.7661,-1.42715 6.4063,-1.25 z m 64.75,55.0625 c 0.7289,0.0302 1.3236,0.20866 1.75,0.5625 0.7598,0.63067 6.2155,3.6047 12.125,6.59375 5.9094,2.98905 11.5305,6.11971 12.4687,6.96875 0.9382,0.84903 2.1686,1.5625 2.75,1.5625 1.7693,0 18.6291,9.01756 21.0313,11.25 2.9394,2.73186 2.8778,3.01136 -1.375,7.71875 -1.9891,2.20158 -4.234,4.03125 -5,4.03125 -4.7457,0 -57.6336,-25.67193 -58.7188,-28.5 -1.3181,-3.43485 9.8664,-10.39875 14.9688,-10.1875 z m 439.78114,7.90625 c 1.08086,10e-4 1.6097,0.35971 2.3125,1.0625 3.5022,3.50221 -2.71395,6.15042 -19.21875,8.1875 -2.75,0.33941 -7.025,1.24885 -9.5,2.03125 -2.475,0.7824 -5.85,1.82667 -7.5,2.3125 -3.6804,1.08364 -5.13615,0.62335 -5.78125,-1.84375 -0.8092,-3.09413 4.77175,-5.20536 21.28125,-8.03125 3.575,-0.61193 9.36165,-1.83766 12.84375,-2.6875 2.86055,-0.69814 4.48164,-1.03266 5.5625,-1.03125 z m -74.15625,19.4375 c 1.34558,0.0308 2.28217,0.28645 2.71875,0.8125 1.9363,2.3331 -0.008,3.78511 -7.96875,5.96875 -12.1059,3.32046 -18.91585,5.68524 -24.71875,8.5625 -6.6198,3.28229 -7.78125,3.25054 -7.78125,-0.0937 0,-4.77418 28.33096,-15.46548 37.75,-15.25 z"
       id="path3108"
       inkscape:connector-curvature="0"
       sodipodi:nodetypes="cscsscssssssssssssscssccsccsssscscsscsscsccscccsscscccscccccsscccsscccscscssssssscssssscsssssssssccscssscscscccssssscssccccccccsssccscssssscscssssscssssccsssssccccsscsscssccsssccscccsssscssccscsscc" />
    <path
       style="fill:#000000"
       d="m -239.96526,183.76234 c 14.17248,0.0327 27.6639,0.49463 32.71876,1.40625 2.75,0.49595 10.625,1.353 17.5,1.90625 6.875,0.55326 14.75,1.67573 17.5,2.5 2.75,0.82426 6.8,2.00505 9,2.625 27.4237,7.72778 60.7725,24.01951 70.4375,34.40625 1.343,1.44324 4.493,4.25369 7,6.25 7.5458,6.00856 13.3893,11.49261 16.7812,15.71875 9.0833,11.3174 12.4838,15.84901 14.0625,18.78125 0.955,1.77376 2.6811,4.57106 3.8438,6.21875 10.1285,14.3525 15.9947,30.71654 20.9687,58.34375 1.7891,9.93708 1.4598,50.18481 -0.5312,63.65625 -3.4888,23.60573 -4.4925,29.28276 -7,39.5 -1.5523,6.325 -3.3668,15.1 -4.0313,19.5 -0.6645,4.4 -2.1019,10.65005 -3.1875,13.90625 -1.9192,5.75633 -1.9702,8.76233 -1.7812,108.5 0.1069,56.4188 -0.113,103.33003 -0.5,104.25 -2.3655,5.62243 -6.8245,1.91496 -5.375,-4.46875 1.3307,-5.86048 -0.1545,-16.4653 -3.1875,-22.875 -1.571,-3.31994 -0.7217,-5.8125 1.9687,-5.8125 2.2613,0 2.125,3.21526 2.125,-47 0,-112.4176 -0.025,-113.03294 -3.125,-103.25 -1.2142,3.83231 -6.2577,15.78941 -10.4375,24.75 -7.9083,16.95363 -10.0491,20.98177 -16.0625,30 -3.6674,5.5 -7.762,12.025 -9.0937,14.5 -4.4541,8.27767 -10.7003,17.73233 -16.1563,24.5 -1.765,2.1894 -7.7491,11.01609 -8.2187,12.125 -1.3367,3.1562 -20.9313,25.73131 -36.9375,42.5625 -6.3666,6.69475 -7.2347,8.0272 -6,9.15625 0.794,0.72602 6.725,5.75502 13.1875,11.15625 17.3021,14.46073 16.7439,16.84435 -4.3125,17.96875 -6.2115,0.3317 -13.14,1.0028 -15.375,1.5 -2.2351,0.4971 -8.1015,1.1971 -13.0313,1.5625 -4.9297,0.3654 -10.0189,1.0707 -11.3125,1.5625 -1.2935,0.4918 -4.0905,0.90625 -6.2187,0.90625 -2.1283,0 -6.9984,0.6351 -10.8125,1.4375 -3.81411,0.8023 -9.96131,1.77455 -13.68751,2.15625 -3.7263,0.3818 -9.32315,1.5009 -12.40625,2.5 -11.4707,3.7171 -14.9513,-0.6345 -9.3125,-11.6875 1.0978,-2.15173 3.48505,-8.43892 5.28125,-13.9375 1.7963,-5.49858 3.5608,-10.41875 3.9375,-10.96875 0.3767,-0.55 1.23615,-3.25 1.90625,-6 2.3311,-9.56704 3.4503,-13.03898 6.3125,-19.5 4.2723,-9.6438 4.3966,-9.99809 5.9375,-16.5 2.0629,-8.70516 4.62295,-8.72315 15.34376,-0.0312 4.4,3.56731 8.3595,6.492 8.8125,6.5 1.6228,0.0294 31.6444,-34.79881 32.9687,-38.25 0.5506,-1.43466 -4.0305,-3.55212 -6.4375,-2.96875 -1.6979,0.41151 -3.0776,-2.76327 -1.8437,-4.25 1.6296,-1.96353 4.1224,-1.91346 8.5937,0.21875 l 3.625,1.75 2.1563,-2.75 c 1.1776,-1.51265 4.4359,-5.55934 7.25,-9 9.9477,-12.16245 25.2446,-35.21993 32,-48.21875 2.0009,-3.85 4.9225,-8.8884 6.5,-11.1875 1.5775,-2.29909 2.875,-4.50386 2.875,-4.875 0,-0.37114 1.3097,-2.60311 2.9062,-4.96875 1.5966,-2.36564 3.2334,-5.33588 3.625,-6.625 0.3915,-1.28912 1.508,-3.91875 2.5,-5.84375 3.0471,-5.91303 13.9688,-28.9787 13.9688,-29.5 0,-0.27019 2.2119,-4.95669 4.9062,-10.40625 2.6942,-5.44956 5.228,-11.40773 5.625,-13.25 0.397,-1.84226 1.3553,-4.5874 2.125,-6.09375 0.7697,-1.50634 1.867,-6.45634 2.4688,-11 0.6019,-4.54365 1.596,-8.8617 2.1875,-9.59375 3.1368,-3.8819 4.6592,-40.09754 2.6562,-63.09375 -1.461,-16.77444 -7.4061,-37.2557 -14.9687,-51.5625 -9.4882,-17.94931 -8.871,-17.2331 -33.5313,-40.3125 -7.1948,-6.7336 -44.5731,-25.1875 -51,-25.1875 -1.2816,0 -3.6079,-0.53588 -5.1562,-1.15625 -2.7524,-1.10284 -6.2212,-1.98874 -15.3125,-3.9375 -15.0235,-3.22035 -67.21821,-6.45645 -76.00001,-4.71875 -1.925,0.38092 -12.129,0.93727 -22.6875,1.25 -10.5585,0.31273 -19.7835,0.77324 -20.5,1.03125 -1.7678,0.63661 -23.7657,3.49258 -31.8125,4.125 -3.575,0.28097 -7.85,0.89654 -9.5,1.375 -1.65,0.47845 -5.04135,1.10426 -7.53125,1.375 -2.4898,0.27073 -6.9898,1.41842 -10,2.5625 -3.0101,1.14407 -5.84075,2.09347 -6.28125,2.09375 -0.9259,5.8e-4 -3.8545,-6.54824 -4.25,-9.5 -0.1474,-1.1 -0.7271,-4.025 -1.3125,-6.5 -3.2768,-13.85321 -1.5415,-16.13667 13.375,-17.5 1.65,-0.15081 3.675,-0.52009 4.5,-0.8125 0.825,-0.2924 2.625,-0.75258 4,-1 1.375,-0.24742 8.35,-1.62272 15.5,-3.0625 23.0836,-4.64832 29.3879,-5.58804 42,-6.28125 4.4,-0.24185 11.825,-0.87453 16.5,-1.40625 7.75525,-0.88204 22.60877,-1.28272 36.78125,-1.25 z m -179.875,368.46875 c 4.22737,0.0492 6.92275,0.95796 7.5625,2.625 1.0538,2.7463 -1.87345,3.85826 -10.65625,4.03125 -10.7632,0.212 -28.18435,1.28612 -28.71875,1.78125 -1.1026,1.0217 -6.99395,0.23147 -8.09375,-1.09375 -3.0028,-3.61809 0.522,-4.59946 22,-6.03125 4.125,-0.27499 10.0557,-0.77196 13.1875,-1.09375 1.7324,-0.178 3.30962,-0.23514 4.71875,-0.21875 z m 61.03125,0.25 c 9.38977,-0.10764 19.24365,0.11536 21.8125,0.78125 3.112,0.80669 4.35155,3.36719 2.53125,5.1875 -0.3912,0.39121 -5.2287,0.46141 -10.75,0.1875 -5.5213,-0.27392 -15.1077,-0.50565 -21.3125,-0.53125 -11.6022,-0.0479 -14.5119,-1.17808 -11.3125,-4.375 0.70395,-0.70341 9.64148,-1.14236 19.03125,-1.25 z m 54.09375,1.375 c 10.9407,0.85958 28.10485,2.76198 34.28125,3.78125 3.9112,0.64544 5.36305,2.28113 4.34375,4.9375 -0.3166,0.825 -0.73655,1.5 -0.90625,1.5 -0.1698,0 -6.59635,-0.89384 -14.28125,-1.96875 -7.685,-1.0749 -16.21875,-2.04478 -18.96875,-2.15625 -5.5953,-0.2268 -7.5,-1.23443 -7.5,-4 0,-1.61658 0.92095,-2.25955 3.03125,-2.09375 z m 69.28125,8.8125 c 1.99601,-0.0645 5.68325,0.57472 12.375,1.90625 22.43101,4.46331 26.30301,6.17202 23.15621,10.125 -0.6239,0.7837 -2.0629,0.86301 -4.625,0.25 -2.0463,-0.48959 -7.54371,-1.83124 -12.21871,-2.96875 -4.675,-1.1375 -10.93185,-2.49867 -13.90625,-3.03125 -6.5238,-1.16811 -7.09375,-1.46383 -7.09375,-3.875 0,-1.54794 0.31649,-2.3417 2.3125,-2.40625 z m 134.56251,40.75 c 3.9801,0.13419 12.1445,4.03246 22.4375,10.90625 6.3603,4.24752 7.5622,5.9911 5.6875,8.25 -1.7557,2.11549 -2.6232,1.89445 -7.3125,-1.8125 -5.5127,-4.35787 -13.6266,-9.17455 -18.1563,-10.8125 -4.3144,-1.56011 -5.9559,-3.29082 -5.1562,-5.375 0.3165,-0.82491 1.1733,-1.20098 2.5,-1.15625 z"
       id="path3110"
       inkscape:connector-curvature="0" />
    <path
       style="fill:#000000"
       d="m -412.68401,21.762342 c 0.4339,0.44647 12.15975,59.987499 26.03125,132.312498 13.8714,72.325 25.4814,131.76849 25.8125,132.125 0.3311,0.35652 14.26625,-1.34851 30.96875,-3.8125 18.2981,-2.69936 30.73155,-4.11217 31.28125,-3.5625 2.7459,2.74591 -2.9053,6.67404 -79.6875,55.75 -43.4331,27.76061 -79.3981,50.46675 -79.9375,50.46875 -1.0134,0.003 -111.67065,-46.80726 -128.53125,-54.375 -7.3295,-3.28976 -9.5655,-4.75979 -9.8125,-6.4375 -0.4355,-2.95785 -1.2268,-2.77578 33.8125,-8.09375 17.0342,-2.58531 31.2051,-4.92386 31.5,-5.21875 0.5575,-0.55752 41.46255,-269.939828 41.84375,-275.562498 0.119,-1.75657 0.47455,-3.44331 0.78125,-3.75 1.0516,-1.05161 75.1478,-10.65617 75.9375,-9.84375 z m -6.09375,4.78125 c -13.61653,0.115167 -65.05896,7.533134 -66.0625,10.03125 -0.4365,1.08664 -10.10395,63.874998 -21.46875,139.499998 -11.3649,75.625 -20.9909,137.82922 -21.375,138.25 -0.3841,0.42078 -14.7834,2.87522 -32,5.46875 -27.5551,4.15093 -30.9621,4.86593 -28.4375,5.90625 1.5775,0.65 30.9523,13.15806 65.25,27.78125 34.2977,14.62319 62.8727,26.56365 63.5,26.53125 1.0858,-0.056 151.76915,-96.19726 151.34375,-96.5625 -0.112,-0.0962 -12.50915,1.66134 -27.53125,3.875 -17.4779,2.57553 -27.66605,3.67772 -28.28125,3.0625 -0.5288,-0.52878 -12.21175,-59.67219 -25.96875,-131.40625 -13.7569,-71.734049 -25.32665,-131.136108 -25.71875,-131.999998 -0.14392,-0.317113 -1.30478,-0.453952 -3.25,-0.4375 z"
       id="path3112"
       inkscape:connector-curvature="0" />
    <text
       xml:space="preserve"
       style="font-size:92.52360535px;font-style:normal;font-variant:normal;font-weight:normal;font-stretch:normal;line-height:125%;letter-spacing:0px;word-spacing:0px;fill:#000000;fill-opacity:1;stroke:none;font-family:Arial Hebrew;-inkscape-font-specification:Arial Hebrew"
       x="-333.05682"
       y="-414.35071"
       id="text3114"
       sodipodi:linespacing="125%"
       transform="matrix(0,-1,1,0,0,0)"><tspan
         sodipodi:role="line"
         id="tspan3116"
         x="-333.05682"
         y="-414.35071">Wind</tspan></text>
    <text
       xml:space="preserve"
       style="font-size:45.02273178px;font-style:normal;font-variant:normal;font-weight:normal;font-stretch:normal;line-height:125%;letter-spacing:0px;word-spacing:0px;fill:#000000;fill-opacity:1;stroke:none;font-family:Arial Hebrew;-inkscape-font-specification:Arial Hebrew"
       x="-799.50244"
       y="1040.4861"
       id="text3118"
       sodipodi:linespacing="125%"
       transform="matrix(0.89618967,0.44367114,-0.44367114,0.89618967,0,0)"><tspan
         id="tspan3156"
         sodipodi:role="line"
         x="-799.50244"
         y="1040.4861">throwing direction for left-hander</tspan></text>
  </g>
  <flowRoot
     xml:space="preserve"
     id="flowRoot3160"
     style="font-size:40px;font-style:normal;font-variant:normal;font-weight:normal;font-stretch:normal;line-height:125%;letter-spacing:0px;word-spacing:0px;fill:#000000;fill-opacity:1;stroke:none;font-family:Arial Hebrew;-inkscape-font-specification:Arial Hebrew"
     transform="translate(1149.624,-15.642922)"><flowRegion
       id="flowRegion3162"><rect
         id="rect3164"
         width="1520.5822"
         height="1113.7471"
         x="-1532.1237"
         y="-119.0082" /></flowRegion><flowPara
       id="flowPara3166"></flowPara></flowRoot></svg>
