<?xml version="1.0" encoding="UTF-8" standalone="no"?>
<!-- Created with Inkscape (http://www.inkscape.org/) -->

<svg
   xmlns:dc="http://purl.org/dc/elements/1.1/"
   xmlns:cc="http://creativecommons.org/ns#"
   xmlns:rdf="http://www.w3.org/1999/02/22-rdf-syntax-ns#"
   xmlns:svg="http://www.w3.org/2000/svg"
   xmlns="http://www.w3.org/2000/svg"
   xmlns:sodipodi="http://sodipodi.sourceforge.net/DTD/sodipodi-0.dtd"
   xmlns:inkscape="http://www.inkscape.org/namespaces/inkscape"
   id="svg2"
   version="1.1"
   inkscape:version="0.48.2 r9819"
   width="590.59473"
   height="856.04767"
   sodipodi:docname="NEIG.TIF">
  <metadata
     id="metadata8">
    <rdf:RDF>
      <cc:Work
         rdf:about="">
        <dc:format>image/svg+xml</dc:format>
        <dc:type
           rdf:resource="http://purl.org/dc/dcmitype/StillImage" />
        <dc:title></dc:title>
      </cc:Work>
    </rdf:RDF>
  </metadata>
  <defs
     id="defs6" />
  <sodipodi:namedview
     pagecolor="#ffffff"
     bordercolor="#666666"
     borderopacity="1"
     objecttolerance="10"
     gridtolerance="10"
     guidetolerance="10"
     inkscape:pageopacity="0"
     inkscape:pageshadow="2"
     inkscape:window-width="1280"
     inkscape:window-height="752"
     id="namedview4"
     showgrid="false"
     units="mm"
     fit-margin-top="0.3"
     fit-margin-left="0.3"
     fit-margin-right="0.3"
     fit-margin-bottom="0.3"
     inkscape:zoom="0.54566474"
     inkscape:cx="296.19699"
     inkscape:cy="427.98694"
     inkscape:window-x="0"
     inkscape:window-y="0"
     inkscape:window-maximized="0"
     inkscape:current-layer="svg2" />
  <path
     style="fill:#000000"
     d="m 511.79341,853.64059 c -0.41892,-0.7076 -2.62714,-2.453 -4.90716,-3.8787 -2.28001,-1.4256 -6.55501,-4.5419 -9.5,-6.925 -2.94498,-2.3832 -6.92951,-5.4282 -8.85451,-6.7668 -1.925,-1.3385 -3.95,-2.9347 -4.5,-3.5471 -1.53856,-1.7129 -9.20406,-7.46 -9.95028,-7.46 -0.36435,0 -1.87459,-1.2595 -3.35609,-2.7988 -1.4815,-1.5394 -4.26863,-3.9663 -6.19363,-5.3933 -4.47606,-3.3181 -44.34099,-42.8725 -46.44429,-46.0825 -1.48746,-2.2702 -1.42789,-2.7022 0.96204,-6.9783 1.40122,-2.507 3.146,-4.7879 3.8773,-5.0685 0.7495,-0.2876 4.10405,2.2891 7.6884,5.9056 3.49733,3.5287 6.72096,6.4158 7.16364,6.4158 1.19626,0 10.75291,7.2997 10.75291,8.2134 0,0.4326 0.675,0.7866 1.5,0.7866 0.825,0 1.5,0.367 1.5,0.8155 0,0.9673 28.89431,20.4501 36.33124,24.4974 2.84282,1.5471 5.31876,3.2346 5.50209,3.75 0.3779,1.0624 3.16667,1.2963 3.16667,0.2657 0,-0.3693 -2.025,-2.6118 -4.5,-4.9832 -2.475,-2.3715 -4.5,-4.5658 -4.5,-4.8763 0,-0.3106 -1.12795,-1.61 -2.50656,-2.8876 -1.37861,-1.2777 -3.89301,-4.0687 -5.58755,-6.2023 -1.69455,-2.1336 -5.1791,-6.1552 -7.74344,-8.937 -2.56435,-2.7818 -7.55019,-8.6318 -11.07964,-13 -3.52945,-4.3682 -7.01695,-8.4418 -7.75,-9.0525 -0.73305,-0.6106 -1.33281,-1.4098 -1.33281,-1.7759 0,-1.0981 -7.36375,-10.6138 -8.21345,-10.6138 -0.4326,0 -0.78655,-0.6375 -0.78655,-1.4167 0,-0.7792 -0.4015,-1.5667 -0.89221,-1.75 -0.99216,-0.3707 -13.1078,-18.2408 -13.1078,-19.3335 0,-0.3801 -0.83627,-1.8856 -1.85838,-3.3455 -2.91565,-4.1645 -8.14162,-13.9245 -8.14162,-15.2052 0,-0.6375 -1.30549,-3.0934 -2.90109,-5.4577 l -2.90109,-4.2986 3.49748,-3.0964 c 3.71159,-3.286 8.3047,-4.1689 8.3047,-1.5964 0,0.825 0.43844,1.5 0.97432,1.5 0.53588,0 1.63536,1.2375 2.4433,2.75 0.80795,1.5125 7.79451,9.2339 15.52569,17.1587 7.73119,7.9249 14.0567,14.7874 14.0567,15.25 0,0.4627 0.675,0.8413 1.5,0.8413 0.825,0 1.5,0.3868 1.5,0.8595 0,0.4728 1.60133,2.3853 3.55851,4.25 1.95718,1.8648 6.59001,6.3155 10.29518,9.8905 3.70516,3.575 12.27824,11.675 19.05128,18 6.77304,6.325 15.15101,14.3125 18.61771,17.75 3.46669,3.4375 6.58877,6.25 6.93795,6.25 0.34918,0 1.62588,1.0181 2.83712,2.2625 1.21124,1.2444 4.45225,4.0238 7.20225,6.1764 2.75,2.1526 6.21213,5.1845 7.69363,6.7375 1.4815,1.5529 2.96299,2.8236 3.29221,2.8236 0.32921,0 1.14208,0.4721 1.80637,1.0491 2.94879,2.5614 15.04729,10.9509 15.79224,10.9509 0.45371,0 1.10612,-1.6875 1.4498,-3.75 0.34368,-2.0625 1.26407,-5.4466 2.04531,-7.5203 0.78124,-2.0736 1.40884,-4.3236 1.39467,-5 -0.0142,-0.6763 -3.38824,-3.7047 -7.49791,-6.7297 -4.10968,-3.025 -7.47308,-5.8375 -7.47423,-6.25 -10e-4,-0.4125 -0.67709,-0.75 -1.50209,-0.75 -0.825,0 -1.5,-0.372 -1.5,-0.8267 0,-0.4546 -2.7,-2.7826 -6,-5.1733 -3.3,-2.3907 -6,-4.7187 -6,-5.1734 0,-0.4546 -0.4028,-0.8266 -0.8951,-0.8266 -0.49231,0 -3.07981,-2.0754 -5.75,-4.612 -2.6702,-2.5366 -7.5547,-6.6991 -10.85445,-9.25 -3.29975,-2.5509 -6.67475,-5.2145 -7.5,-5.9191 -0.82525,-0.7046 -3.74015,-3.1796 -6.47756,-5.5 -8.91096,-7.5535 -18.09374,-17.283 -20.29154,-21.4996 l -2.15084,-4.1265 3.57072,-4.2964 c 1.9639,-2.363 3.97079,-4.4464 4.45975,-4.6298 1.45747,-0.5464 1.0076,-5.8233 -0.61098,-7.1666 -0.825,-0.6847 -1.5,-1.7825 -1.5,-2.4395 0,-0.6569 -1.35,-3.8342 -3,-7.0605 -1.65,-3.2263 -3,-6.4222 -3,-7.102 0,-0.6798 -0.63595,-2.5099 -1.41321,-4.067 -0.77727,-1.5571 -2.07742,-4.406 -2.88923,-6.331 -0.81181,-1.925 -2.20087,-5.2028 -3.08679,-7.284 -1.94539,-4.5699 -2.0486,-6.716 -0.323,-6.716 0.70828,0 2.84578,-1.3317 4.75,-2.9594 4.18368,-3.576 5.08886,-3.6854 6.99147,-0.8448 2.23936,3.3434 17.76885,18.8042 18.88774,18.8042 0.541,0 1.3435,0.5987 1.78333,1.3305 0.43983,0.7318 3.16219,3.0778 6.04969,5.2135 2.8875,2.1356 5.25,4.2368 5.25,4.6694 0,0.4326 0.46822,0.7866 1.04049,0.7866 1.18397,0 7.28683,4.1114 7.79284,5.25 0.18334,0.4125 0.77798,0.75 1.32143,0.75 0.54345,0 1.72337,0.7352 2.62203,1.6339 1.87681,1.8768 3.024,0.2037 1.26802,-1.8493 -6.53198,-7.6369 -24.59974,-33.8919 -26.72204,-38.8307 -1.27217,-2.9605 -0.25506,-4.7897 3.67723,-6.6132 5.44843,-2.5266 5.87406,-2.4275 9.24377,2.1541 1.79093,2.4349 3.57418,4.4447 3.96277,4.4662 0.3886,0.021 2.6386,1.8334 5,4.0265 2.36141,2.1932 4.63096,3.9932 5.04346,4 0.4125,0.01 1.55977,0.8 2.54949,1.7625 4.20945,4.0937 17.1217,14.25 18.11677,14.25 0.59606,0 1.08374,0.3729 1.08374,0.8286 0,1.7142 31.56911,24.2967 36.68417,26.2414 l 2.31583,0.8805 0,71.4856 0,71.4856 -38.48833,-0.029 c -30.28819,-0.023 -38.6506,-0.3029 -39.25,-1.3154 z m -201.57137,-8.3276 c -0.23524,-0.4125 -0.97698,-3.9 -1.6483,-7.75 -0.67132,-3.85 -1.63882,-8.8 -2.15001,-11 -0.51119,-2.2 -1.3415,-6.7 -1.84513,-10 -1.02606,-6.7232 -3.15473,-16.2228 -4.81771,-21.5 -2.64565,-8.3956 -4.22916,-14.3494 -4.22916,-15.9011 0,-0.9193 -1.03663,-4.3551 -2.30363,-7.6352 -2.09951,-5.4353 -2.59262,-5.9919 -5.56532,-6.282 -1.79393,-0.175 -3.81713,0.1428 -4.49599,0.7062 -0.67886,0.5634 -3.23696,1.3297 -5.68467,1.7029 -2.44772,0.3732 -5.57539,1.2566 -6.95039,1.9631 -4.04539,2.0786 -10.89657,4.4461 -12.8666,4.4461 -1.00437,0 -3.23918,0.7049 -4.96625,1.5665 -5.24994,2.619 -8.142,2.07 -15.42687,-2.9284 -7.06294,-4.8462 -8.97668,-5.3136 -14.74688,-3.6017 -1.92137,0.57 -6.4184,1.6602 -9.9934,2.4228 -3.575,0.7625 -8.075,1.853 -10,2.4234 -1.925,0.5704 -5.75,1.5415 -8.5,2.158 -2.75,0.6166 -7.18918,1.7597 -9.86483,2.5402 -6.22031,1.8146 -8.27428,1.7845 -14.45503,-0.2116 -5.76771,-1.8628 -11.36964,-6.7958 -16.2229,-14.2856 -1.81174,-2.796 -3.66828,-5.0836 -4.12565,-5.0836 -0.45738,0 -0.83159,-0.6375 -0.83159,-1.4167 0,-0.7792 -0.3375,-1.5667 -0.75,-1.75 -2.06016,-0.9156 -24.25,-43.5914 -24.25,-46.6379 0,-0.6724 -0.38574,-2.004 -0.85721,-2.959 -0.47147,-0.955 -1.51696,-3.0864 -2.32333,-4.7364 -0.80637,-1.65 -2.25397,-5.7 -3.21689,-9 -0.96293,-3.3 -2.39243,-8.0854 -3.17667,-10.6342 -0.78425,-2.5489 -1.4259,-5.8546 -1.4259,-7.3461 0,-1.4916 -0.61988,-5.0312 -1.3775,-7.8658 -1.97285,-7.3814 -3.61422,-18.8457 -4.64793,-32.464 -0.49371,-6.5042 -1.1291,-12.4703 -1.41196,-13.2579 -0.28286,-0.7876 -1.20984,-7.282 -2.05995,-14.432 -1.88999,-15.8961 -5.788241,-40.5509 -8.538111,-54 -1.12456,-5.5 -2.41401,-12.025 -2.86545,-14.5 -1.34995,-7.4011 -3.25806,-14.3331 -4.72187,-17.1543 -0.75747,-1.4599 -1.37722,-3.5402 -1.37722,-4.6229 0,-4.5972 -7.83753,-18.3477 -15.08623,-26.4679 -11.13509,-12.4739 -17.8533,-23.3767 -17.9492,-29.1294 -0.0195,-1.169 -0.67855,-3.2505 -1.46457,-4.6255 -2.45147,-4.2884 -1.88732,-8.2375 1.5,-10.5 2.11518,-1.4129 2.9951,-2.8089 2.99713,-4.7551 0.002,-2.2419 1.25148,-3.672 6.70518,-7.6767 6.6218,-4.8624 13.37656,-7.3316 14.1021,-5.155 0.19924,0.5977 0.77476,1.0868 1.27892,1.0868 2.48896,0 7.91667,8.6256 7.91667,12.581 0,3.4342 -2.50638,3.0249 -4.03208,-0.6585 -2.54311,-6.1396 -9.90428,-7.9791 -16.24596,-4.0597 -3.80313,2.3505 -6.18939,6.0068 -2.9833,4.5711 0.96874,-0.4337 3.85321,-0.9742 6.40993,-1.201 l 4.6486,-0.4123 4.8514,6.3685 c 5.12848,6.7322 8.35141,7.9816 8.35141,3.2376 0,-1.3347 0.49815,-2.4267 1.10699,-2.4267 0.60884,0 0.84797,-0.675 0.53139,-1.5 -0.39262,-1.0232 0.056,-1.5 1.41115,-1.5 1.71276,0 1.94978,-0.5862 1.71862,-4.25 -0.23935,-3.7936 -0.0156,-4.2858 2.08356,-4.5829 1.29345,-0.1831 3.43094,-0.062 4.75,0.269 2.769101,0.695 3.015731,2.7363 1.253185,10.3721 -1.012175,4.3851 -0.906845,5.4676 0.907436,9.3263 4.3832,9.3225 3.56452,12.1477 -2.006961,6.9258 -1.79046,-1.6781 -3.70537,-3.0382 -4.25537,-3.0224 -1.94388,0.056 -5.32255,3.667 -5.65904,6.0487 -0.23989,1.698 -1.08203,2.5132 -2.84096,2.75 -1.375,0.1852 -3.44488,1.5039 -4.59973,2.9305 l -2.09974,2.5937 -2.40026,-2.8518 c -1.32015,-1.5685 -3.18777,-3.6747 -4.15027,-4.6804 -0.9625,-1.0058 -1.75,-2.7074 -1.75,-3.7815 0,-1.7558 0.50472,-1.8931 5,-1.3607 4.44799,0.5268 5,0.3831 5,-1.3012 0,-2.297 -6.8082,-11.058 -9.25662,-11.9117 -1.74552,-0.6086 -12.09705,3.6717 -13.20153,5.4588 -0.79606,1.288 3.07525,13.4897 6.26794,19.7555 1.45389,2.8533 5.46646,8.4421 8.91682,12.4196 3.45037,3.9775 6.27339,7.6533 6.27339,8.1683 0,0.515 1.125,1.8214 2.5,2.9029 1.375,1.0816 2.5,2.3929 2.5,2.914 0,0.5211 1.75213,4.6509 3.89361,9.1774 4.84299,10.2367 5.11924,11.0998 10.3155,32.23 0.541005,2.2 1.214885,6.229 1.497501,8.9534 0.28261,2.7244 1.08593,5.8744 1.78515,7 0.69922,1.1256 1.53593,5.6466 1.85936,10.0466 0.32343,4.4 1.02685,9.35 1.56316,11 1.15335,3.5484 3.8652,20.6216 4.55133,28.6542 0.26563,3.1098 0.90816,7.6098 1.42783,10 0.51968,2.3902 1.24048,7.9458 1.60179,12.3458 0.78655,9.5785 4.856,33.0494 7.54216,43.5 3.34444,13.0117 4.38298,16.5933 5.08576,17.5393 0.42466,0.5717 1.21469,2.8217 1.75562,5 1.24376,5.0087 3.83479,12.4339 5.12857,14.6971 0.54596,0.955 1.00792,2.305 1.02658,3 0.0187,0.695 0.90339,3.0636 1.96607,5.2636 1.06268,2.2 1.94741,4.4157 1.96607,4.9238 0.0514,1.4006 8.33067,17.8971 9.70239,19.3321 0.66029,0.6908 1.48533,2.1533 1.83342,3.25 0.34809,1.0967 1.05257,1.9941 1.56551,1.9941 0.51293,0 0.93261,0.675 0.93261,1.5 0,0.825 0.3902,1.5 0.86711,1.5 0.47692,0 1.98661,1.6875 3.35488,3.75 1.36827,2.0625 4.48897,5.8647 6.9349,8.4495 7.36142,7.7791 12.13429,8.5684 21.76812,3.5998 5.3828,-2.7761 7.85876,-3.35 18.66692,-4.3264 6.85353,-0.6192 12.88253,-1.5474 13.39776,-2.0626 0.58239,-0.5824 -0.73453,-2.6342 -3.48103,-5.4236 -2.4298,-2.4677 -4.43826,-5.0492 -4.46324,-5.7367 -0.025,-0.6875 -0.4099,-1.25 -0.85537,-1.25 -1.00286,0 -9.19005,-12.244 -9.19005,-13.7438 0,-0.5993 -0.3375,-1.2396 -0.75,-1.4229 -0.75161,-0.334 -5.9935,-10.7022 -8.25772,-16.3333 -3.17483,-7.8958 -7.99228,-30.678 -7.99228,-37.7962 0,-5.5209 2.32003,-16.3373 4.58044,-21.355 0.78076,-1.7331 1.41956,-3.5849 1.41956,-4.1151 0,-2.0669 4.25764,-6.2142 8.27865,-8.0641 7.6273,-3.509 9.1678,-3.9186 11.49618,-3.0573 1.91871,0.7099 2.15354,1.2757 1.5,3.6146 -1.32335,4.7362 -0.87809,39.1041 0.62408,48.1701 1.33374,8.0495 1.59651,8.598 6.34751,13.25 2.7259,2.6691 5.75549,4.853 6.73243,4.853 0.97694,0 2.33235,0.67 3.01201,1.489 0.67967,0.8189 1.61572,1.2541 2.08012,0.9671 0.4644,-0.287 -0.93659,-3.9034 -3.11331,-8.0365 -2.17672,-4.133 -3.95767,-7.8887 -3.95767,-8.3459 0,-1.4952 9.73063,-11.0737 11.24952,-11.0737 0.81442,0 2.62493,0.9 4.02335,2 1.39842,1.1 2.97076,2 3.49409,2 0.52333,0 3.48135,1.35 6.57338,3 3.09203,1.65 6.25027,3 7.01832,3 0.76805,0 1.95665,0.675 2.64134,1.5 0.68469,0.825 2.42729,1.5027 3.87244,1.5061 1.44516,0 3.9165,0.6784 5.49187,1.5 2.62001,1.3665 6.63569,2.0371 6.63569,1.1082 0,-0.2121 -0.67223,-1.6746 -1.49384,-3.25 -0.82161,-1.5754 -1.49661,-3.9064 -1.5,-5.1801 -0.003,-1.2736 -0.48038,-3.2018 -1.05998,-4.2848 -1.9352,-3.6159 -3.91506,-18.8511 -2.82303,-21.7233 1.35641,-3.5677 2.52728,-4.1429 8.46856,-4.1608 l 5.09171,-0.015 1.20006,4.25 c 0.66003,2.3375 1.82428,5.825 2.58723,7.75 0.76294,1.925 2.15574,6.0875 3.09512,9.25 0.93937,3.1625 2.079,5.75 2.53252,5.75 0.45351,0 1.33848,1.9125 1.9666,4.25 0.62812,2.3375 1.43296,4.475 1.78854,4.75 0.35558,0.275 2.22151,3.65 4.14651,7.5 1.925,3.85 3.8375,7.15 4.25,7.3333 0.4125,0.1834 0.75,0.8598 0.75,1.5032 0,0.6434 1.575,3.3852 3.5,6.0927 1.925,2.7076 3.5,5.3118 3.5,5.7873 0,1.0526 4.20407,7.152 5.25,7.6168 0.4125,0.1834 0.75194,0.8584 0.7543,1.5 0.002,0.6417 1.68987,3.4205 3.75,6.1752 2.06014,2.7547 4.99256,6.8424 6.5165,9.0838 1.52394,2.2414 3.54894,4.9375 4.5,5.9914 0.95106,1.054 2.95244,3.7163 4.44752,5.9163 1.49507,2.2 3.97007,5.4051 5.5,7.1225 1.52992,1.7174 5.48168,6.1652 8.78168,9.8839 3.3,3.7187 6.5625,7.3439 7.25,8.056 0.6875,0.7121 1.25,1.7769 1.25,2.3662 0,0.5892 0.5625,1.0749 1.25,1.0792 1.23203,0.01 3.75,4.3586 3.75,6.4798 0,1.1885 -8.36137,8.5124 -9.71822,8.5124 -0.46051,0 -1.55616,-0.7875 -2.43477,-1.75 -2.70691,-2.9654 -7.63166,-7.25 -8.33316,-7.25 -0.36617,0 -3.2974,-2.025 -6.51385,-4.5 -3.21645,-2.475 -6.33227,-4.5 -6.92404,-4.5 -1.03016,0 -1.65872,25.209 -1.13045,45.3377 0.2671,10.1773 -0.88415,11.6623 -9.04148,11.6623 -3.1823,0 -5.97847,-0.3375 -6.21372,-0.75 z m 212.8097,-191.1578 c -1.1,-0.4712 -3.38606,-3.7223 -5.08014,-7.2245 -6.83525,-14.1309 -9.18571,-19.5181 -9.86323,-22.6063 -0.39078,-1.7812 -1.12588,-3.4952 -1.63357,-3.809 -0.50768,-0.3137 -0.92306,-1.5789 -0.92306,-2.8114 0,-1.2326 -0.41877,-2.6685 -0.93059,-3.191 -1.4679,-1.4985 -8.16647,-21.7547 -7.6442,-23.1157 0.68025,-1.7727 7.29848,-2.8085 8.98764,-1.4067 0.76501,0.6349 1.69478,2.3735 2.06615,3.8634 1.09873,4.4081 10.17339,23.476 15.32864,32.209 1.13636,1.925 3.07599,5.525 4.31028,8 1.23429,2.475 2.5218,4.725 2.86113,5 0.33934,0.275 1.8818,2.6886 3.42771,5.3636 2.34592,4.0593 2.63092,5.2583 1.72342,7.25 -0.59802,1.3125 -1.9407,2.3864 -2.98374,2.3864 -1.04304,0 -3.19019,0.2135 -4.77144,0.4744 -1.58125,0.261 -3.775,0.089 -4.875,-0.3822 z m -346.99056,-2.3422 c -0.887,-3.1916 -3.33945,-9.2778 -6.54792,-16.25 -7.87593,-17.1149 -8.96153,-19.5566 -8.96153,-20.1559 0,-0.3577 -1.35,-3.5077 -3,-7 -1.65,-3.4922 -3,-7.008 -3,-7.8129 0,-1.4674 -1.97719,-6.5679 -4.59838,-11.8623 -0.77089,-1.557 -1.40162,-3.3275 -1.40162,-3.9342 0,-1.0297 -2.97021,-8.0406 -5.07164,-11.9712 -0.5106,-0.955 -0.93113,-2.53 -0.93452,-3.5 -0.003,-0.9699 -0.67839,-3.0525 -1.5,-4.6278 -0.82161,-1.5754 -1.49384,-3.6269 -1.49384,-4.5589 0,-0.932 -0.66069,-2.5681 -1.4682,-3.6357 -0.8075,-1.0676 -1.4825,-2.6922 -1.5,-3.6101 -0.0175,-0.9179 -0.67098,-2.9429 -1.4522,-4.5 -1.82387,-3.6352 -6.03351,-15.2046 -7.5796,-20.831 -1.22202,-4.4472 -3.11368,-9.6723 -4.52538,-12.5 -0.68645,-1.375 -1.56321,-4.4102 -1.94837,-6.7448 -0.38515,-2.3346 -1.11112,-4.4987 -1.61326,-4.809 -0.50215,-0.3103 -0.91299,-1.9173 -0.91299,-3.571 0,-1.6537 -0.47611,-3.8963 -1.05802,-4.9836 -0.58191,-1.0874 -1.69535,-5.8953 -2.47432,-10.6843 -0.77896,-4.789 -1.92864,-11.1823 -2.55485,-14.2073 -1.94312,-9.3866 0.2211,-27.4248 4.58686,-38.2301 0.4974,-1.2311 -0.4112,-2.8325 -3.15033,-5.5525 -2.11714,-2.1024 -4.74934,-5.5193 -5.84934,-7.5932 -1.1,-2.0738 -2.63839,-4.3002 -3.41865,-4.9474 -1.19696,-0.9929 -1.30896,-0.6299 -0.71666,2.3232 2.72055,13.5639 1.75084,17.572 -4.023146,16.6287 -1.562845,-0.2554 -3.404035,-0.5013 -4.091535,-0.5465 -0.69692,-0.046 -1.25,-1.3788 -1.25,-3.0127 0,-2.2706 0.50663,-3.0077 2.25,-3.2737 1.40821,-0.2149 2.10062,-0.8956 1.85073,-1.8196 -0.21959,-0.8119 -0.59585,-2.6012 -0.83612,-3.9762 -0.27756,-1.5884 -2.50215,-4.0573 -6.10073,-6.7707 -3.11514,-2.3488 -6.92303,-5.2654 -8.46199,-6.4812 -1.68773,-1.3333 -3.07664,-1.8189 -3.5,-1.2236 -0.38604,0.5428 -3.28939,2.9114 -6.45189,5.2636 -3.1625,2.3521 -5.75,4.6038 -5.75,5.0037 0,0.3999 -0.93526,1.3112 -2.07836,2.025 -2.30126,1.4372 -4.92164,0.1391 -4.92164,-2.4381 0,-2.6589 9.33229,-11.1886 14.18083,-12.9613 0.92445,-0.338 1.92283,-1.2452 2.21861,-2.016 0.29579,-0.7708 1.23302,-1.4014 2.08275,-1.4014 0.84972,0 2.40622,-0.5379 3.45889,-1.1953 1.66431,-1.0394 2.45576,-0.637 6.06795,3.0851 4.28627,4.4168 6.15898,4.7977 4.22115,0.8587 -0.60839,-1.2367 -1.33132,-3.8235 -1.60651,-5.7485 -0.74154,-5.1872 -6.23289,-27.1259 -10.13735,-40.5 -0.80283,-2.75 -3.49668,-13.325 -5.98632,-23.5 -2.48964,-10.175 -5.15964,-20.75 -5.93334,-23.5 -3.35574,-11.9276 -9.71652,-37.3868 -10.50249,-42.0366 -0.37527,-2.2201 -0.99828,-4.5478 -1.38446,-5.1726 -0.38618,-0.6249 -1.15363,-3.3084 -1.70544,-5.9635 -0.87042,-4.188 -2.82638,-12.5898 -5.89625,-25.3273 -0.46394,-1.925 -1.56776,-6.1685 -2.45292,-9.43 -1.4572,-5.3692 -1.46217,-6.0926 -0.0525,-7.6503 0.8563,-0.9462 2.46433,-1.9576 3.57341,-2.2477 2.51923,-0.6588 4.85397,4.2935 4.85397,10.2959 0,2.2176 0.39891,4.0321 0.88646,4.0321 0.48755,0 1.19511,2.1375 1.57235,4.75 0.37724,2.6125 1.84727,8.575 3.26674,13.25 1.41947,4.675 3.14975,11.2 3.84507,14.5 2.49205,11.8273 5.66205,25.0358 6.47995,27 0.45804,1.1 1.26606,4.025 1.79561,6.5 0.52954,2.475 1.8789,8.1 2.99858,12.5 1.11967,4.4 3.01786,12.05 4.21819,17 1.20033,4.95 2.76517,11.025 3.47743,13.5 1.94584,6.7615 4.15956,15.6238 5.995,24 0.90389,4.125 2.24761,9.975 2.98603,13 0.73843,3.025 2.07682,8.65 2.97421,12.5 4.087911,17.538 4.786971,19.4191 6.813401,18.3346 1.46523,-0.7842 2.41008,-0.5077 4.28532,1.254 1.32311,1.243 2.40565,3.0265 2.40565,3.9632 0,0.9368 0.675,2.2635 1.5,2.9482 0.825,0.6847 1.5,1.8648 1.5,2.6224 0,0.7577 0.45,1.3776 1,1.3776 0.55,0 1.00055,0.5625 1.00122,1.25 0.001,1.1386 0.88625,2.3297 7.10712,9.5641 1.09445,1.2727 2.41673,3.2977 2.93839,4.5 0.52167,1.2022 1.49545,2.9507 2.16396,3.8854 0.98295,1.3745 0.76103,3.0962 -1.16009,9 -2.69372,8.2782 -2.75175,8.5623 -3.84165,18.8005 -0.43912,4.125 -0.4482,9.75 -0.0202,12.5 0.42802,2.75 0.52335,5.8094 0.21184,6.7988 -0.3115,0.9893 0.11021,3.9143 0.93714,6.5 2.81577,8.8044 4.66225,15.873 4.66225,17.8479 0,1.0841 0.66069,2.8445 1.4682,3.9121 0.8075,1.0677 1.4825,3.1521 1.5,4.6322 0.0175,1.48 0.44718,2.9477 0.95486,3.2614 0.50769,0.3138 1.23991,2.0131 1.62716,3.7762 0.38725,1.7632 1.06091,3.8955 1.49702,4.7386 0.43612,0.843 1.69417,4.0078 2.79568,7.0328 1.10151,3.025 3.11957,8.425 4.48458,12 1.36501,3.575 3.7349,10.1 5.26641,14.5 1.53152,4.4 3.08013,8.225 3.44136,8.5 0.36123,0.275 0.98423,1.8354 1.38445,3.4677 0.40021,1.6322 1.77845,5.2322 3.06275,8 1.2843,2.7677 3.33156,7.3948 4.54946,10.2823 1.2179,2.8875 2.60894,5.25 3.09121,5.25 0.48227,0 0.87686,0.8323 0.87686,1.8496 0,1.0172 1.9125,5.6438 4.25,10.2811 2.3375,4.6374 5.31817,10.8926 6.62372,13.9004 1.30554,3.0079 3.18807,6.3689 4.18339,7.4689 0.99531,1.1 2.28857,3.125 2.87389,4.5 0.58532,1.375 1.46315,3.175 1.95072,4 2.89473,4.898 3.31776,6.7589 2.07438,9.125 -0.68644,1.3062 -1.85738,2.7348 -2.60208,3.1747 -0.74471,0.4398 -1.35402,1.9023 -1.35402,3.25 0,3.3632 -4.56523,3.5297 -5.49055,0.2003 z m 37.47949,0.2293 c -0.59479,-1.1114 -0.8124,-2.456 -0.48359,-2.988 0.32881,-0.532 1.26667,-3.5602 2.08413,-6.7293 1.06935,-4.1456 2.42151,-6.6036 4.82008,-8.762 5.38758,-4.8482 7.55511,-6.5 8.52929,-6.5 0.50379,0 1.78608,-1.1062 2.84952,-2.4581 1.06344,-1.352 3.1211,-2.9992 4.57258,-3.6605 1.45148,-0.6614 2.63905,-1.5802 2.63905,-2.0419 0,-0.4618 0.675,-0.8395 1.5,-0.8395 0.825,0 1.5,-0.4385 1.5,-0.9743 0,-0.5359 1.2375,-1.6358 2.75,-2.4442 1.5125,-0.8085 4.46254,-3.07 6.55565,-5.0257 2.09311,-1.9557 4.23061,-3.5558 4.75,-3.5558 0.51939,0 0.94435,-0.4645 0.94435,-1.0322 0,-0.5678 0.85045,-1.3553 1.88988,-1.75 1.03943,-0.3948 6.17796,-4.7678 11.41895,-9.7178 5.24099,-4.95 13.45912,-12.6 18.2625,-17 4.80338,-4.4 11.91351,-11.0375 15.8003,-14.75 3.88679,-3.7125 7.60572,-6.75 8.2643,-6.75 0.65857,0 1.3474,-0.3375 1.53074,-0.75 0.47259,-1.0634 5.63051,-4.4428 10.33333,-6.7703 2.2,-1.0889 4.22951,-2.2815 4.51002,-2.6504 0.28051,-0.3689 1.74726,-0.9813 3.25945,-1.3608 1.51218,-0.3796 2.97916,-1.0618 3.25995,-1.5161 0.28079,-0.4544 2.86404,-1.9878 5.74055,-3.4076 5.24764,-2.5903 6.05351,-3.0422 12.97559,-7.2763 4.86872,-2.978 6.2134,-2.1042 10.74061,6.9801 1.91739,3.8475 4.05489,7.2136 4.75,7.4804 0.69511,0.2667 1.26383,1.0707 1.26383,1.7865 0,1.4892 12.04407,13.9378 16.51882,17.0737 2.13669,1.4974 5.29501,2.2811 11.14937,2.7666 6.99287,0.5799 9.00731,0.3658 14,-1.4879 3.20749,-1.1909 6.05681,-2.4358 6.33181,-2.7666 0.275,-0.3307 3.2,-1.9172 6.5,-3.5254 3.3,-1.6083 8.74864,-4.6458 12.10807,-6.75 3.35944,-2.1043 6.62194,-3.8259 7.25,-3.8259 0.62807,0 1.14194,-0.369 1.14194,-0.8199 0,-0.451 3.856,-3.2635 8.5689,-6.25 7.75236,-4.9127 13.06139,-8.6476 17.526,-12.3296 0.8772,-0.7235 4.3647,-3.1963 7.75,-5.4952 3.38531,-2.2989 6.1551,-4.5597 6.1551,-5.0239 0,-0.9943 -5.75247,-5.4535 -8.19492,-6.3525 -1.41645,-0.5214 -1.67043,-0.01 -1.54583,3.1148 0.15533,3.8954 -2.68336,9.0664 -5.00925,9.1249 -0.6875,0.017 -1.25,0.4369 -1.25,0.9326 0,1.1323 -6.27243,4.8781 -9.54328,5.699 -2.99207,0.751 -2.79442,2.4225 -2.48696,-21.0334 0.17096,-13.0417 0.68103,-20.1599 1.63921,-22.8757 0.76507,-2.1684 1.39103,-4.7702 1.39103,-5.7817 0,-1.0115 0.95625,-2.3508 2.125,-2.9763 2.99177,-1.6012 6.875,0.5689 6.875,3.842 0,1.3404 1.35,4.1416 3,6.2249 1.65,2.0833 3,4.2855 3,4.8939 0,0.6083 0.34915,1.1061 0.77589,1.1061 0.42674,0 3.12609,3.1405 5.99854,6.9789 6.20205,8.2877 10.76718,11.0183 18.43573,11.0272 2.90941,0 6.56301,0.6702 8.11911,1.4819 1.5561,0.8116 6.2811,1.9714 10.5,2.5774 4.2189,0.6059 11.35015,1.6266 15.84721,2.2681 4.49706,0.6416 8.50956,1.504 8.91667,1.9165 0.4071,0.4125 2.35268,0.7607 4.32352,0.7738 1.97083,0.013 5.38333,0.5094 7.58333,1.1029 2.2,0.5934 6.7,1.4423 10,1.8864 3.3,0.4441 8.925,1.5302 12.5,2.4135 3.575,0.8833 7.5125,1.8323 8.75,2.1088 2.05518,0.4591 2.25,1.0739 2.25,7.1002 l 0,6.5975 -2.75,-0.6816 c -1.5125,-0.3749 -6.125,-1.1027 -10.25,-1.6172 -13.06272,-1.6293 -32.24758,-4.9965 -34.09165,-5.9834 -0.97728,-0.523 -3.80353,-0.9509 -6.28056,-0.9509 -2.47702,0 -7.34411,-0.6553 -10.81574,-1.4563 -3.47163,-0.8009 -9.68705,-1.5749 -13.81205,-1.7201 l -7.5,-0.2638 -6.41822,4.9701 c -3.53002,2.7335 -7.79281,6.2076 -9.47286,7.7201 -1.68005,1.5125 -3.62935,2.75 -4.33178,2.75 -0.70243,0 -1.27714,0.675 -1.27714,1.5 0,0.825 -0.36577,1.5 -0.81283,1.5 -0.44706,0 -3.5721,2.7 -6.94454,6 -3.37243,3.3 -6.56916,6 -7.10383,6 -0.53467,0 -1.12213,0.3986 -1.30547,0.8857 -0.35204,0.9354 -9.50176,8.1143 -10.34198,8.1143 -0.27024,0 -1.27885,0.7232 -2.24135,1.6071 -3.03099,2.7836 -15.35158,10.3803 -17.85348,11.0082 -1.31809,0.3308 -2.39652,1.0027 -2.39652,1.4931 0,0.4904 -0.75207,0.8916 -1.67126,0.8916 -0.91919,0 -2.3817,0.6223 -3.25001,1.3829 -0.86831,0.7607 -4.63011,2.4011 -8.35956,3.6454 -3.72946,1.2443 -7.01852,2.647 -7.30902,3.117 -0.29051,0.4701 -1.53664,0.8547 -2.76918,0.8547 -1.23254,0 -2.678,0.437 -3.21213,0.9711 -1.56748,1.5675 -15.45678,3.1572 -21.42885,2.4526 -3.025,-0.3569 -6.89219,-1.2911 -8.59376,-2.0761 -3.25152,-1.5 -18.40624,-16.5975 -18.40624,-18.3367 0,-0.556 -0.46114,-1.0109 -1.02475,-1.0109 -0.56361,0 -1.46254,-1.0125 -1.99761,-2.25 -1.2635,-2.9222 -2.9493,-5.4372 -5.70181,-8.5063 l -2.22416,-2.48 -8.27584,4.2013 c -4.5517,2.3107 -10.97583,5.7558 -14.27583,7.6557 -3.3,1.8999 -7.125,3.9968 -8.5,4.6597 -1.375,0.6629 -3.36683,1.9908 -4.42629,2.951 -1.05945,0.9601 -2.85945,2.0396 -4,2.3988 -2.68888,0.8468 -9.57371,7.7161 -9.57371,9.5521 0,0.7797 -0.5417,1.9594 -1.20377,2.6214 -1.84514,1.8452 -6.75514,21.1973 -7.53451,29.6963 -0.67279,7.3368 -4.11429,10.2194 -9.02529,7.5595 -0.95504,-0.5173 -3.83338,-1.6879 -6.39633,-2.6014 -4.80956,-1.7144 -5.79906,-3.1933 -5.82645,-8.7081 -0.008,-1.5125 -0.19542,-2.75 -0.41758,-2.75 -0.22217,0 -3.1904,1.575 -6.59607,3.5 -3.40567,1.925 -6.42165,3.5 -6.70216,3.5 -0.28052,0 -2.21455,1.35 -4.29784,3 -2.08329,1.65 -4.10829,3 -4.5,3 -0.39171,0 -2.41671,1.35 -4.5,3 -2.08329,1.65 -4.07877,3 -4.4344,3 -0.89133,0 -6.98837,4.3262 -7.39893,5.25 -0.18334,0.4125 -0.97084,0.75 -1.75,0.75 -0.77917,0 -2.24999,0.7875 -3.2685,1.75 -4.05745,3.8343 -8.39926,7.25 -9.21581,7.25 -0.4741,0 -1.34864,-0.9093 -1.94342,-2.0207 z m 210.93189,-110.2293 c -0.0435,-0.6875 -0.0843,-3.725 -0.0906,-6.75 -0.0145,-6.9844 -1.73864,-21.2338 -2.77143,-22.9049 -0.63043,-1.02 -2.34335,-1.0373 -8.61408,-0.087 -7.89435,1.1967 -13.03982,0.3975 -21.12727,-3.2813 -1.2004,-0.546 -2.86363,-0.7314 -3.69607,-0.412 -1.28423,0.4928 -4.31979,6.1584 -7.6001,14.185 -0.44956,1.1 -1.53825,3.643 -2.41933,5.6511 -0.88108,2.0081 -1.60196,4.7205 -1.60196,6.0275 0,2.7668 -2.57612,6.8324 -4.3067,6.7968 -1.28055,-0.026 -4.6933,-6.1587 -4.6933,-8.4332 0,-0.7566 -0.3375,-1.5256 -0.75,-1.7089 -0.4125,-0.1833 -2.01994,-2.0334 -3.57209,-4.1111 -2.78422,-3.7271 -2.80116,-3.8345 -1.26236,-8 1.46125,-3.9556 3.6045,-13.8113 5.09053,-23.4086 0.81498,-5.2634 -0.65148,-8.6362 -9.39931,-21.6183 -8.14516,-12.0876 -7.56121,-10.9846 -9.63231,-18.1953 -0.94784,-3.3 -2.11166,-6.7723 -2.58627,-7.7163 -0.47461,-0.9439 -1.27891,-3.4189 -1.78732,-5.5 -1.21517,-4.974 -2.99363,-10.1128 -4.71185,-13.6148 -0.76395,-1.557 -1.38901,-3.893 -1.38901,-5.1909 0,-1.298 -0.41538,-2.6167 -0.92306,-2.9305 -0.50769,-0.3137 -1.21893,-1.9175 -1.58055,-3.5639 -0.54329,-2.4736 -1.06694,-2.9193 -3.01506,-2.566 -4.01141,0.7274 -6.32643,-0.4359 -7.00367,-3.5193 -0.35011,-1.5941 -1.05082,-2.8983 -1.55712,-2.8983 -0.50629,0 -0.92054,-0.7811 -0.92054,-1.7357 0,-0.9546 -1.08555,-3.9921 -2.41233,-6.75 -7.88083,-16.3814 -8.52489,-18.7445 -5.6564,-20.7536 2.29572,-1.608 10.99397,-1.385 14.6271,0.375 3.09359,1.4986 6.90522,10.1335 8.5107,19.2803 0.47459,2.7037 1.32819,5.3812 1.89691,5.95 0.56871,0.5687 1.03402,1.8372 1.03402,2.819 0,2.0454 6.79666,22.8045 7.96086,24.315 0.42391,0.55 1.01054,2.125 1.30361,3.5 0.52451,2.4608 2.2415,7.5769 3.85945,11.5 0.45366,1.1 1.74792,4.5319 2.87614,7.6266 1.12821,3.0946 2.96701,6.6946 4.08622,8 4.61034,5.3772 5.62836,6.6224 9.91091,12.1234 2.46206,3.1625 4.81989,5.75 5.23964,5.75 0.41974,0 0.76317,0.4606 0.76317,1.0235 0,0.5629 2.8125,3.9374 6.25,7.4988 l 6.25,6.4752 17.4166,0.079 c 13.49304,0.061 17.5891,-0.2199 18.18235,-1.2487 0.42116,-0.7304 1.92119,-2.878 3.3334,-4.7723 1.41221,-1.8944 2.56765,-3.9944 2.56765,-4.6667 0,-0.6723 0.33751,-1.3724 0.75001,-1.5557 1.13853,-0.506 5.25,-6.6089 5.25,-7.7929 0,-0.5722 0.3888,-1.0404 0.864,-1.0404 0.4752,0 2.16143,-1.9125 3.74719,-4.25 1.58575,-2.3375 3.15632,-4.475 3.49016,-4.75 0.33384,-0.275 0.90037,-7.475 1.25896,-16 0.63034,-14.9854 2.23419,-26.3523 4.3035,-30.5 0.54879,-1.1 1.74893,-3.499 2.66699,-5.3311 0.91806,-1.8321 1.6692,-3.9145 1.6692,-4.6275 0,-0.7131 0.675,-1.8568 1.5,-2.5414 0.825,-0.6847 1.5,-2.2597 1.5,-3.5 0,-1.2404 0.61884,-2.7688 1.37521,-3.3965 0.75637,-0.6277 1.66168,-2.9328 2.01182,-5.1224 0.35013,-2.1896 1.08129,-3.9811 1.62479,-3.9811 0.5435,0 0.98818,-0.8877 0.98818,-1.9727 0,-1.085 1.07891,-4.3475 2.39757,-7.25 1.31867,-2.9025 3.43319,-7.9773 4.69893,-11.2773 2.62682,-6.8486 4.17574,-8.5 7.97218,-8.5 4.23615,0 4.8275,1.598 3.88561,10.5 -0.46555,4.4 -0.87072,13.904 -0.90037,21.12 l -0.0539,13.1201 -4.5,1.2599 c -3.96434,1.1099 -4.5,1.5938 -4.5,4.0648 0,1.5428 -0.50791,4.0718 -1.12869,5.6201 -1.42207,3.5468 -3.75163,23.3928 -4.4388,37.8151 -0.58406,12.2581 -1.45744,14.7939 -8.15381,23.674 -2.35329,3.1207 -4.2787,5.9515 -4.2787,6.2905 0,0.8692 -4.34382,6.9661 -5.25,7.3688 -0.4125,0.1833 -0.75,0.8976 -0.75,1.5872 0,0.6896 -1.88838,3.891 -4.1964,7.1141 -2.87895,4.0204 -4.30915,7.1325 -4.55553,9.9128 -0.19753,2.2289 -1.00915,6.2718 -1.8036,8.9841 -0.79446,2.7123 -1.44447,5.9943 -1.44447,7.2933 0,1.299 -0.76637,4.9622 -1.70304,8.1404 -1.25082,4.2442 -2.3659,6.0914 -4.19937,6.9567 -3.2519,1.5346 -6.0771,1.5018 -6.17677,-0.072 z m -37.92083,-79.6352 c -5.39052,-1.8108 -12.50315,-6.7649 -12.81955,-8.9291 -0.37996,-2.5989 0.74171,-2.7061 6.67879,-0.6385 5.64409,1.9657 7.07528,1.4131 10.34033,-3.9924 1.48468,-2.458 4.62204,-5.8618 6.97191,-7.5641 4.12542,-2.9884 4.58663,-3.0856 13.39855,-2.8231 l 9.12607,0.2719 4.40195,-4.209 c 2.42107,-2.3149 4.87445,-4.2138 5.45195,-4.2197 3.32933,-0.034 4.82089,7.6066 1.95001,9.9892 -0.825,0.6847 -1.50001,1.8857 -1.50001,2.669 0,0.7832 -1.63028,4.7211 -3.62283,8.7509 -4.86454,9.838 -6.54049,10.6052 -24.31872,11.1326 -7.45715,0.2212 -14.68345,0.024 -16.05845,-0.4377 z m 22.87212,-7.7502 c 1.85467,-0.7505 4.55467,-1.3715 6,-1.3799 1.44534,-0.01 3.12386,-0.346 3.73005,-0.75 1.25026,-0.8334 4.86172,-8.1279 4.27874,-8.6423 -0.65406,-0.5771 -15.27573,1.3814 -17.38091,2.3281 -9.05,4.0696 -11.14965,5.2656 -12.19114,6.9441 -0.65513,1.0559 -0.89748,2.2134 -0.53855,2.5724 1.12133,1.1213 12.56426,0.3592 16.10181,-1.0724 z M 59.517929,429.54629 c -1.05369,-1.2696 -0.63492,-2.1247 2.57096,-5.25 6.99147,-6.8156 11.87496,-10.2137 14.69285,-10.2236 1.5125,-0.01 2.75,0.3791 2.75,0.8543 0,0.4752 1.75563,2.0806 3.90141,3.5676 3.57152,2.4751 4.75858,4.7802 5.172,10.0434 0.17222,2.1924 -2.13096,1.5038 -3.04932,-0.9117 -1.07216,-2.82 -3.24236,-3.9206 -9.69584,-4.9175 -3.95468,-0.6109 -4.40585,-0.4103 -8.67105,3.8549 -4.91277,4.9127 -5.78704,5.2527 -7.67101,2.9826 z m 342.763801,-23.9529 c -0.9625,-1.3236 -1.75277,-2.997 -1.75616,-3.7185 -0.003,-0.7216 -0.60489,-2.4592 -1.33667,-3.8614 -0.73178,-1.4022 -1.61687,-5.6161 -1.96687,-9.3641 -0.51187,-5.4815 -0.27121,-7.6236 1.23025,-10.9505 1.02664,-2.2748 2.027,-4.9986 2.22303,-6.0531 0.19603,-1.0544 0.88845,-2.0942 1.53872,-2.3107 2.26822,-0.7552 3.70028,4.3085 4.40523,15.5766 0.3905,6.2419 1.20556,11.8444 1.81124,12.45 0.60567,0.6057 1.10123,3.2613 1.10123,5.9013 0,4.5773 -0.12758,4.7985 -2.75,4.7686 -1.72866,-0.02 -3.39994,-0.9253 -4.5,-2.4382 z m -301.75,-32.0968 0,-7.5665 2.75,0.3165 c 2.5733,0.296 2.76967,0.6607 3.05605,5.6757 0.22692,3.9737 -0.13632,5.8481 -1.40499,7.25 -3.38179,3.7368 -4.40106,2.4224 -4.40106,-5.6757 z m 248.55227,-2.9336 c -0.37115,-2.475 -1.09724,-4.5 -1.61354,-4.5 -1.48108,0 -1.09497,-2.7009 0.63316,-4.4291 1.32098,-1.3209 3.75517,-1.5036 15.25,-1.1446 l 13.67811,0.4272 0.31387,3.0801 c 0.23227,2.2793 -0.15773,3.2216 -1.5,3.6244 -0.99763,0.2993 -3.16387,1.2496 -4.81387,2.1118 -1.65,0.8622 -5.8125,1.8008 -9.25,2.0858 -4.35646,0.3612 -6.25,0.9312 -6.25,1.8813 0,0.8359 -1.11624,1.3631 -2.88646,1.3631 -2.65434,0 -2.94072,-0.3619 -3.56127,-4.5 z m 86.08611,-3 c -0.44897,-1.17 -2.43947,-1.5 -9.04798,-1.5 -4.82748,0 -8.75097,-0.4508 -9.11997,-1.0479 -0.35619,-0.5763 -1.39524,-0.9571 -2.30902,-0.8463 -2.88365,0.3498 -5.16141,-1.2372 -5.16141,-3.5962 0,-2.7501 2.15705,-3.4713 10.5,-3.5105 3.3,-0.015 7.8,-0.6412 10,-1.3903 2.20001,-0.7491 5.80001,-1.2885 8.00001,-1.1985 l 4,0.1637 0.30122,5.183 c 0.16567,2.8507 -0.18766,6.0965 -0.78518,7.213 -1.27257,2.3778 -5.53274,2.7318 -6.37767,0.53 z m -108.43838,-0.7 c -0.66,-0.66 -1.2,-3.163 -1.2,-5.5621 0,-2.3992 -0.70988,-6.5325 -1.57751,-9.1851 -0.86763,-2.6526 -1.43013,-6.1122 -1.25,-7.6879 0.27923,-2.4426 0.82408,-2.9124 3.69609,-3.1871 3.82163,-0.3656 9.14144,1.499 9.11143,3.1935 -0.0189,1.0645 -2.43582,14.8919 -3.64951,20.8787 -0.59305,2.9253 -3.02148,3.659 -5.1305,1.55 z m 138.51779,-9.05 c -0.96649,-3.4375 -2.04005,-9.0872 -2.3857,-12.5549 -0.58511,-5.87 -0.48029,-6.3436 1.51973,-6.8666 1.1815,-0.309 2.14819,-0.9593 2.14819,-1.4452 0,-0.4858 0.675,-0.8833 1.5,-0.8833 0.825,0 1.5,-0.45 1.5,-1 0,-0.55 0.6172,-1 1.37155,-1 1.0494,0 1.49594,2.6423 1.90117,11.25 0.46898,9.962 0.31195,11.5602 -1.37155,13.9595 -1.04564,1.4902 -1.90117,3.1777 -1.90117,3.75 0,0.5723 -0.56812,1.0405 -1.26249,1.0405 -0.69455,0 -2.053,-2.8116 -3.01973,-6.25 z m -364.71779,-14.857 c 0,-6.9817 0.21957,-8.0227 1.58179,-7.5 0.86998,0.3338 1.99498,0.607 2.5,0.607 1.3723,0 1.11912,12.3991 -0.28179,13.8 -2.92242,2.9224 -3.8,1.3273 -3.8,-6.907 z m 268.44113,3.6388 c -1.06762,-0.8075 -2.70291,-1.4825 -3.63397,-1.5 -2.11434,-0.04 -8.80716,-3.9211 -8.80716,-5.1075 0,-0.483 1.16914,-1.6443 2.5981,-2.5806 2.0692,-1.3558 2.97835,-1.4648 4.46605,-0.5357 1.02738,0.6416 4.35824,1.4592 7.4019,1.8169 l 5.53395,0.6504 0,4.3624 c 0,4.1143 -0.15964,4.3623 -2.80887,4.3623 -1.54488,0 -3.68238,-0.6607 -4.75,-1.4682 z m 37.95291,-2.9474 c -0.29875,-0.7785 -0.39713,-2.691 -0.21861,-4.25 0.28132,-2.4568 0.85752,-2.9187 4.32457,-3.4667 2.2,-0.3477 5.42642,-1.2202 7.16983,-1.9389 2.61155,-1.0766 3.44814,-1.0758 4.75,0 3.06231,2.5414 1.84308,4.563 -3.93704,6.5277 -3.03446,1.0314 -6.01456,2.4746 -6.62244,3.2071 -1.45675,1.7552 -4.78014,1.7043 -5.46631,-0.084 z m 34.01428,-7.4086 c -2.80044,-1.4717 -6.01141,-3.1258 -7.1355,-3.6758 -10.95023,-5.3578 -13.46354,-6.5 -14.30246,-6.5 -0.5337,0 -0.97036,-0.45 -0.97036,-1 0,-0.55 -0.86786,-1 -1.92857,-1 -1.06072,0 -2.60357,-0.675 -3.42857,-1.5 -0.825,-0.825 -2.44798,-1.5 -3.60661,-1.5 -1.15864,0 -3.14397,-0.6797 -4.41185,-1.5105 -3.64561,-2.3887 -21.58761,-2.3931 -28.8744,-0.01 -3.1625,1.0356 -5.75,2.2149 -5.75,2.6207 0,0.4059 -1.31891,1.0276 -2.9309,1.3817 -1.612,0.3541 -3.4671,1.2898 -4.12245,2.0795 -0.65535,0.7896 -1.61168,1.4357 -2.12518,1.4357 -0.51351,0 -3.5276,1.287 -6.69799,2.86 -14.33063,7.1101 -22.0442,7.7265 -29.46483,2.3545 -9.00128,-6.5164 -9.66463,-11.7913 -1.91396,-15.2197 2.48025,-1.0972 5.01484,-1.9902 5.63243,-1.9845 1.12747,0.01 20.65636,-7.9673 25.95392,-10.6022 1.55707,-0.7746 3.4331,-1.4082 4.16896,-1.4082 0.73586,0 2.61189,-0.632 4.16896,-1.4044 2.66477,-1.3218 8.69481,-3.093 14.33104,-4.2093 1.375,-0.2723 4.4125,-0.9792 6.75,-1.5707 l 4.25,-1.0755 -0.0197,-5.6201 c -0.0108,-3.091 -0.64196,-9.151 -1.40252,-13.4665 -0.94294,-5.3505 -1.08476,-8.8497 -0.44581,-11 0.51537,-1.7345 0.85522,-6.9785 0.75524,-11.6535 -0.1,-4.675 -0.16048,-10.1875 -0.13442,-12.25 0.0444,-3.5129 -0.14289,-3.75 -2.96113,-3.75 -2.78118,0 -2.95646,-0.2074 -2.3197,-2.7444 1.02926,-4.1009 2.24544,-5.0907 7.16091,-5.8278 5.83125,-0.8745 7.37859,0.9789 6.78767,8.13 -0.41407,5.0109 -0.36654,5.1078 5.08073,10.3542 4.19516,4.0405 5.53557,6.0417 5.65422,8.442 0.25836,5.2261 -0.17054,7.9109 -2.1001,13.146 -1.62791,4.4167 -2.90564,6.9955 -8.67099,17.5 -2.03576,3.7092 -1.82113,8.998 0.36557,9.008 0.9625,0 6.70342,0.6626 12.7576,1.4626 11.6671,1.5416 22.86454,4.7685 33.28768,9.5929 3.48935,1.6151 6.69585,2.9365 7.12556,2.9365 0.42971,0 2.89713,1.125 5.48315,2.5 2.58601,1.375 4.90304,2.5 5.14893,2.5 1.36253,0 0.0608,-2.9772 -2.55291,-5.8389 -1.65,-1.8065 -3,-3.7068 -3,-4.2228 3e-5,-0.5161 -0.67497,-0.9383 -1.49997,-0.9383 -0.825,0 -1.5,-0.4063 -1.5,-0.9028 0,-0.4965 -2.3625,-2.4419 -5.25,-4.3232 -7.46389,-4.8628 -16.67398,-6.774 -32.64309,-6.774 -14.41659,0 -14.6523,-0.1227 -11.35692,-5.9127 0.9625,-1.6911 2.3125,-3.0775 3,-3.081 0.6875,0 1.25,-0.4196 1.25,-0.9248 0,-1.4311 6.47627,-5.0815 9.01536,-5.0815 2.74089,0 14.34679,-4.0746 14.81797,-5.2023 0.18334,-0.4387 0.9227,-0.7977 1.64302,-0.7977 0.72033,0 1.5687,-0.675 1.88529,-1.5 0.31658,-0.825 1.20962,-1.5 1.98454,-1.5 0.77492,0 1.96914,-0.675 2.65383,-1.5 0.72077,-0.8685 2.90224,-1.5 5.18146,-1.5 2.17659,0 3.6792,-0.4165 3.36091,-0.9315 -0.80464,-1.3019 -20.89071,-11.0685 -22.76361,-11.0685 -0.84364,0 -2.09408,-0.675 -2.77877,-1.5 -0.68469,-0.825 -2.07452,-1.5 -3.08852,-1.5 -1.73742,0 -3.55621,-0.6979 -13.50769,-5.1833 -3.83105,-1.7267 -6.40379,-5.0598 -6.40379,-8.2964 0,-2.5631 3.66457,-2.5838 9.10475,-0.051 2.96739,1.3813 5.92025,2.5159 6.56192,2.5213 0.64166,0 1.31666,0.3561 1.5,0.7794 0.26467,0.6112 26.49242,13.9198 32.83334,16.6605 2.40554,1.0397 5.27468,2.8726 9.11006,5.8199 1.9683,1.5125 4.02656,2.75 4.57393,2.75 0.54736,0 1.53713,3.2625 2.19949,7.25 1.23419,7.43 2.85498,15.6592 6.09072,30.9243 3.08073,14.5338 1.01394,27.7953 -4.7242,30.3128 -1.2375,0.5429 -2.26107,1.4429 -2.2746,2 -0.0135,0.5571 -1.60703,1.8004 -3.5411,2.7629 -5.231,2.6032 -12.84652,2.1732 -19.02599,-1.0742 z m -340.77803,-17.4258 c -0.331636,-1.2375 -0.609126,-4.8516 -0.616636,-8.0314 -0.0145,-6.1581 1.555986,-8.1506 4.499076,-5.7081 2.27056,1.8844 2.02499,12.1929 -0.34147,14.3345 -2.3926,2.1653 -2.82052,2.0934 -3.54097,-0.595 z m 217.62538,-3.5708 c -0.9873,-0.627 -1.00384,-4.1521 -0.0801,-17.0659 0.95233,-13.3132 1.51056,-16.7159 3.06691,-18.6945 2.76971,-3.5211 3.85754,-2.9808 3.68705,1.8312 -0.0828,2.3375 0.16658,9.8061 0.55422,16.5969 l 0.70479,12.3468 -2.78137,2.9032 c -3.01829,3.1504 -3.29403,3.2618 -5.15151,2.0823 z m 16.74433,-12.0538 c 0,-3.3041 -0.41838,-6.266 -0.92974,-6.582 -1.65854,-1.025 -7.09339,-12.8359 -7.72549,-16.7888 -0.53329,-3.335 -0.11645,-4.5688 3.14196,-9.2999 2.06625,-3.0001 4.03953,-5.4553 4.38505,-5.4559 0.34552,-7e-4 1.97822,-1.1828 3.62822,-2.6269 1.65,-1.4441 5.1375,-3.9571 7.75,-5.5845 2.6125,-1.6275 4.75,-3.3216 4.75,-3.7648 0,-0.4432 1.0125,-1.0748 2.25,-1.4036 2.04884,-0.5443 4.63305,-2.5198 11.75,-8.9822 1.375,-1.2485 3.4,-2.6306 4.5,-3.0713 4.35721,-1.7457 13.17731,-2.2882 14.56938,-0.8961 1.31226,1.3122 0.11024,4.3306 -1.72462,4.3306 -2.20768,0 -20.96993,14.5837 -28.91376,22.4743 -5.86868,5.8294 -7.3816,8.0266 -8.88553,12.9043 -1.60553,5.2073 -1.67733,6.8453 -0.62862,14.3418 1.08068,7.7251 1.019,8.7822 -0.70724,12.1214 -1.34426,2.6003 -2.66019,3.7497 -4.55039,3.9746 -2.61897,0.3116 -2.65922,0.2255 -2.65922,-5.691 z m -234.36852,-11.8273 c -0.347306,-0.3473 -0.631476,-4.2046 -0.631476,-8.5718 0,-6.8297 0.22125,-7.8554 1.581786,-7.3333 0.86998,0.3338 1.99498,0.607 2.5,0.607 0.50501,0 0.91821,3.1341 0.91821,6.9648 0,5.778 -0.3184,7.1352 -1.86852,7.9648 -1.02768,0.55 -2.15268,0.7158 -2.5,0.3685 z m -0.631476,-37.7391 c 0,-4.0925 0.35899,-7.6629 0.797746,-7.934 2.75212,-1.7009 4.99752,5.3223 3.77871,11.8191 -0.49418,2.6342 -1.17373,3.5559 -2.62177,3.5559 -1.764456,0 -1.954686,-0.7242 -1.954686,-7.441 z m -0.1367,-23.809 c -0.620495,-1.1349 -0.389295,-13.9249 0.25897,-14.3256 0.460016,-0.2843 1.745696,-0.03 2.857056,0.5645 3.61851,1.9366 2.31333,14.0111 -1.51451,14.0111 -0.80565,0 -1.526326,-0.1125 -1.601516,-0.25 z m -57.157505,-32.2896 c -2.19283,-7.1213 -2.1499,-9.111 0.20988,-9.7281 2.30839,-0.6037 4.08433,0.9624 4.08433,3.6017 0,1.0636 0.53183,3.709 1.18184,5.8786 0.97765,3.2631 0.93445,4.1011 -0.25,4.8507 -2.67173,1.6907 -3.51744,0.9458 -5.22605,-4.6029 z m 56.29421,-4.4604 c 0,-6.8 0.0714,-7 2.499991,-7 2.42857,0 2.5,0.2 2.5,7 0,6.8 -0.0714,7 -2.5,7 -2.428561,0 -2.499991,-0.2 -2.499991,-7 z m -61.53531,-19.0572 c -0.7263,-1.1751 -1.35725,-4.3245 -2.14221,-10.6928 -0.46807,-3.7974 -0.30388,-4.25 1.54164,-4.25 2.53698,0 3.67109,2.0589 4.5787,8.3124 0.46571,3.2088 0.30088,5.2915 -0.49463,6.25 -1.41482,1.7048 -2.58598,1.8327 -3.4835,0.3804 z m 62.19039,-4.6919 c -0.5044,-0.8161 -0.90809,-7.0276 -0.75197,-11.5705 0.0801,-2.3302 0.48734,-2.7641 2.346881,-2.5 2.01803,0.2866 2.28053,0.9578 2.54616,6.5097 0.25482,5.3259 0.019,6.3384 -1.68931,7.2527 -1.09201,0.5844 -2.195306,0.7231 -2.451761,0.3081 z m -69.99988,-26.0009 c -0.25456,-0.4125 -0.61862,-3.6608 -0.80902,-7.2184 -0.29067,-5.4313 -0.0764,-6.5232 1.33635,-6.8103 2.24468,-0.4562 3.46731,2.0923 4.33152,9.0287 0.70858,5.6872 0.68849,5.75 -1.83981,5.75 -1.40591,0 -2.76448,-0.3375 -3.01904,-0.75 z m 69.04257,-4.8856 c -0.99203,-0.992 -0.83749,-11.5956 0.1927,-13.2214 0.53946,-0.8514 1.651541,-1.1058 2.984671,-0.6826 1.87636,0.5955 2.12485,1.4266 2.12485,7.107 0,3.5379 -0.4132,6.4326 -0.91821,6.4326 -0.50502,0 -1.54102,0.239 -2.30224,0.5311 -0.761206,0.2921 -1.698001,0.2171 -2.081771,-0.1667 z m -75.13144,-24.6144 c -3.04155,-10.2506 -2.97711,-12.75 0.32874,-12.75 1.3219,0 2.20863,1.5523 3.46219,6.0612 0.92683,3.3336 1.42405,6.4836 1.10493,7 -0.85006,1.3754 -4.46356,1.1457 -4.89586,-0.3112 z m 74.43367,-13.3164 0,-7.566498 2.749991,0.3165 c 2.68644,0.3091 2.75679,0.4839 3.04381,7.566398 l 0.29381,7.25 -3.04381,0 -3.043801,0 0,-7.5664 z m -73,-7.311198 c 0,-1.6113 2.46104,-2.8927 6.5,-3.3843 2.2,-0.2678 6.475,-0.9753 9.5,-1.5722 13.04534,-2.5742 28.43241,-4.2432 41,-4.447 11.43065,-0.1854 13.5,0.011 13.5,1.2811 0,1.2338 -2.48474,1.6048 -14,2.0906 -7.7,0.3249 -14.94326,0.8958 -16.09614,1.2686 -1.15288,0.3728 -6.10288,1.107 -11,1.6314 -4.89712,0.5245 -12.27886,1.6174 -16.40386,2.4289 -8.69779,1.7109 -13,1.9435 -13,0.7029 z m -9.17387,-14.5479 c -1.75561,-5.8246 -1.51238,-9.0972 0.74039,-9.9617 1.77669,-0.6818 2.62289,0.785 3.66374,6.3506 1.46886,7.8543 1.41351,8.516 -0.73814,8.8244 -1.64569,0.2359 -2.30699,-0.7045 -3.66599,-5.2133 z m 82.87164,-0.2101 c -0.38378,-0.3838 -0.69777,-3.7203 -0.69777,-7.4145 0,-6.0544 0.2143,-6.7727 2.173535,-7.2851 1.195446,-0.3126 2.545446,-0.3385 2.999996,-0.058 1.13688,0.7027 1.04961,14.3928 -0.0917,14.3928 -0.50502,0 -1.54102,0.239 -2.30224,0.5311 -0.761206,0.2921 -1.698001,0.2171 -2.081771,-0.1667 z m -42.60137,-18.573 c -1.32198,-0.7103 -3.26435,-2.4513 -4.31638,-3.8688 -5.78512,-7.7952 -4.71068,-28.8813 1.78248,-34.9813 3.7234,-3.498 12.15161,-3.498 15.875,0 7.2499,6.8109 7.34031,30.2215 0.14283,36.9832 -2.95071,2.7721 -9.98621,3.7461 -13.48393,1.8669 z m 9.45463,-9.2593 c 0.83195,-1.9912 1.44897,-6.689 1.44897,-11.0321 0,-9.6105 -1.85465,-14.5 -5.5,-14.5 -3.64535,0 -5.5,4.8895 -5.5,14.5 0,9.6105 1.85465,14.5 5.5,14.5 2.02397,0 2.92397,-0.7705 4.05103,-3.4679 z m -49.55103,8.4358 c 0,-3.1447 3.75941,-8.8918 10.32504,-15.7842 7.76272,-8.1492 9.24363,-10.7819 8.26293,-14.6892 -1.12312,-4.4749 -8.0665,-4.4204 -9.19405,0.072 -0.62308,2.4826 -2.06436,2.896 -6.21818,1.7837 -1.91928,-0.514 -2.21373,-1.0779 -1.68992,-3.2364 0.34889,-1.4377 1.91551,-3.9135 3.48136,-5.5018 5.60456,-5.685 17.03684,-4.3726 20.51589,2.3551 3.35239,6.4828 1.01798,12.9406 -7.76701,21.4861 l -6.21606,6.0467 7.75,0.292 7.75,0.2921 0,3.9579 0,3.958 -13.5,0 c -8.6134,0 -13.5,-0.3736 -13.5,-1.0321 z m -6.3639101,-7.7179 c -1.43632,-4.4749 -2.00022,-8.0483 -1.74678,-11.0696 0.0649,-0.774 1.03697,-1.1874 2.3514003,-1 1.9260798,0.2747 2.4160798,1.2898 3.4896298,7.2296 0.91902,5.0848 0.95517,7.264 0.13685,8.25 -1.83644,2.2128 -2.63215,1.5715 -4.2311001,-3.41 z m 88.3639101,-10.6836 c 0,-6.5453 0.23617,-7.5644 1.749995,-7.5511 3.650636,0.032 4.363736,1.4532 4.051836,8.0757 -0.29021,6.1621 -0.40775,6.4212 -3.05184,6.7254 l -2.749991,0.3164 0,-7.5664 z m -15.07692,-8.4895 c -1.995,-1.995 -2.92308,-3.9244 -2.92308,-6.0769 0,-4.3019 4.69809,-9 9,-9 4.30191,0 9,4.6981 9,9 0,4.3019 -4.69809,9 -9,9 -2.1525,0 -4.08192,-0.9281 -6.07692,-2.9231 z m 9.03705,-3.5289 c 1.5546,-1.8732 1.0116,-4.5366 -1.21013,-5.9357 -3.4649,-2.1821 -7.36659,2.7349 -4.71013,5.9357 1.54461,1.8612 4.37565,1.8612 5.92026,0 z m -87.4799301,-3.9379 c -1.69703,-2.59 -3.55634003,-12.2481 -2.75828,-14.3278 0.27063,-0.7052997 1.01067,-1.2822997 1.64452,-1.2822997 1.86775,0 3.70679,3.8056997 4.65532,9.6336997 1.30796,8.0364 -0.35407,10.8411 -3.54156,5.9764 z m 93.5198001,-14.5031 c 0,-7.4284999 0.27647,-9.1069999 1.5,-9.1069999 0.824995,0 1.499991,0.45 1.499991,1 0,0.55 0.675,1 1.5,1 1.2,0 1.5,1.5 1.5,7.4999999 0,5.8077 -0.31999,7.5 -1.41821,7.5 -0.78002,0 -2.130016,0.2731 -2.999991,0.607 -1.37103,0.5261 -1.58179,-0.6065 -1.58179,-8.5 z"
     id="path2989"
     inkscape:connector-curvature="0" />
</svg>
