<?xml version="1.0" encoding="UTF-8" standalone="no"?>
<!-- Created with Inkscape (http://www.inkscape.org/) -->

<svg
   xmlns:dc="http://purl.org/dc/elements/1.1/"
   xmlns:cc="http://creativecommons.org/ns#"
   xmlns:rdf="http://www.w3.org/1999/02/22-rdf-syntax-ns#"
   xmlns:svg="http://www.w3.org/2000/svg"
   xmlns="http://www.w3.org/2000/svg"
   xmlns:sodipodi="http://sodipodi.sourceforge.net/DTD/sodipodi-0.dtd"
   xmlns:inkscape="http://www.inkscape.org/namespaces/inkscape"
   id="svg2"
   version="1.1"
   inkscape:version="0.48.2 r9819"
   width="2413.6719"
   height="888.29761"
   sodipodi:docname="HORI2.TIF">
  <metadata
     id="metadata8">
    <rdf:RDF>
      <cc:Work
         rdf:about="">
        <dc:format>image/svg+xml</dc:format>
        <dc:type
           rdf:resource="http://purl.org/dc/dcmitype/StillImage" />
        <dc:title></dc:title>
      </cc:Work>
    </rdf:RDF>
  </metadata>
  <defs
     id="defs6" />
  <sodipodi:namedview
     pagecolor="#ffffff"
     bordercolor="#666666"
     borderopacity="1"
     objecttolerance="10"
     gridtolerance="10"
     guidetolerance="10"
     inkscape:pageopacity="0"
     inkscape:pageshadow="2"
     inkscape:window-width="640"
     inkscape:window-height="480"
     id="namedview4"
     showgrid="false"
     fit-margin-top="0.3"
     fit-margin-left="0.3"
     fit-margin-right="0.3"
     fit-margin-bottom="0.3"
     inkscape:zoom="0.12626628"
     inkscape:cx="712.98579"
     inkscape:cy="550.77561"
     inkscape:window-x="0"
     inkscape:window-y="0"
     inkscape:window-maximized="0"
     inkscape:current-layer="svg2" />
  <path
     style="fill:#000000"
     d="m 491.3807,886.12499 c 0,-1.7475 -1.4032,-1.9215 -21,-2.6039 -11.55,-0.4022 -21,-1.1345 -21,-1.6274 0,-0.4928 -2.025,-0.8961 -4.5,-0.8961 -3.33333,0 -4.5,-0.3889 -4.5,-1.5 0,-1.2157 -1.61111,-1.5 -8.5,-1.5 -5,0 -8.5,-0.4118 -8.5,-1 0,-0.55 -0.66643,-1 -1.48095,-1 -0.81452,0 -1.7633,-1.125 -2.10841,-2.5 -0.3451,-1.375 -1.02867,-2.5 -1.51905,-2.5 -1.38879,0 -1.04819,-2.9863 0.51939,-4.5538 0.77604,-0.7761 1.17356,-2.3189 0.88337,-3.4286 -0.41488,-1.5865 -1.35733,-2.0176 -4.41098,-2.0176 -2.13585,0 -3.88337,-0.45 -3.88337,-1 0,-0.55 -0.9,-1 -2,-1 -1.11111,0 -2,-0.6667 -2,-1.5 0,-0.825 -0.73297,-1.5 -1.62883,-1.5 -1.38663,0 -1.52531,-0.7804 -0.93267,-5.2479 0.38289,-2.8864 1.34086,-5.6087 2.12883,-6.0497 0.78797,-0.441 1.43267,-1.709 1.43267,-2.8178 0,-1.1089 0.51453,-2.9775 1.1434,-4.1525 0.85786,-1.603 0.85786,-2.2317 0,-2.5176 -0.62887,-0.2097 -1.1434,-0.9526 -1.1434,-1.6511 0,-1.7432 -10.90024,-2.5634 -34.06754,-2.5634 -14.07546,0 -18.89256,-0.3124 -19.273,-1.25 -0.38294,-0.9438 -0.7895,-0.8825 -1.65946,0.25 -0.86996,1.1325 -1.27652,1.1938 -1.65946,0.25 -0.34572,-0.852 -3.02771,-1.25 -8.42387,-1.25 -4.61111,0 -7.91667,-0.4175 -7.91667,-1 0,-1.4393 -2.73883,-1.2342 -3.33772,0.25 -0.40351,1 -0.52017,1 -0.58333,0 -0.0445,-0.7047 -1.38772,-1.25 -3.07895,-1.25 -2,0 -3,-0.5 -3,-1.5 0,-1.1333 -1.22222,-1.5 -5,-1.5 -2.75,0 -5,-0.3975 -5,-0.8834 0,-0.4858 -0.9,-1.1187 -2,-1.4063 -1.1633,-0.3043 -2,-1.3641 -2,-2.5333 0,-1.1057 -0.5625,-2.2373 -1.25,-2.5147 -1,-0.4035 -1,-0.5202 0,-0.5834 0.6875,-0.043 1.25,-1.145 1.25,-2.4481 0,-1.9608 -0.64631,-2.4759 -3.75,-2.989 -2.0625,-0.3409 -5.4375,-0.6247 -7.5,-0.6308 -2.66178,-0.01 -3.75,-0.4463 -3.75,-1.511 0,-1.2222 -1.66667,-1.5 -9,-1.5 -5.33333,0 -9,-0.4074 -9,-1 0,-0.55 -1.07252,-1 -2.38337,-1 -2.43814,0 -3.57417,-2.1006 -3.60298,-6.6621 -0.011,-1.7466 0.75497,-2.292 3.98635,-2.8379 3.03642,-0.513 4,-1.1364 4,-2.5879 0,-1.5731 0.72975,-1.9121 4.11663,-1.9121 3.71926,0 4.06239,-0.2074 3.55474,-2.1487 -0.81812,-3.1284 0.35706,-7.8513 1.95363,-7.8513 0.75625,0 1.375,-0.675 1.375,-1.5 0,-1.25 2,-1.5 12,-1.5 10,0 12,0.25 12,1.5 0,1.2534 2.05556,1.5 12.5,1.5 7.66667,0 12.5,0.3867 12.5,1 0,0.55 0.48214,1 1.07143,1 1.73064,0 3.92857,2.6976 3.92857,4.8216 0,2.142 1.82018,3.1784 5.58179,3.1784 1.72011,0 2.41821,0.5557 2.41821,1.925 0,1.7051 1.02751,2.0052 9,2.6289 4.95,0.3872 9,1.096 9,1.5751 0,0.479 2.925,0.871 6.5,0.871 4.80796,0 6.5,0.3534 6.5,1.3575 0,1.5399 7.98937,2.6425 19.14669,2.6425 5.42516,0 6.85331,0.3126 6.85331,1.5 0,1.2464 1.94444,1.5 11.5,1.5 7,0 11.5,0.3913 11.5,1 0,0.5622 2.79446,1 6.38337,1 6.82432,0 7.56524,0.6512 7.60298,6.6826 0.008,1.2966 0.82553,2.4403 2.01365,2.8174 1.1,0.3491 2,1.4534 2,2.4538 0,1.3893 1.06317,1.9785 4.5,2.4939 2.475,0.3712 4.5,1.0973 4.5,1.6136 0,0.5163 1.575,0.9387 3.5,0.9387 2.44444,0 3.5,0.4524 3.5,1.5 0,1.1111 1.16667,1.5 4.5,1.5 2.475,0 4.5,0.45 4.5,1 0,0.55 1.575,1 3.5,1 1.925,0 3.5,0.45 3.5,1 0,0.55 1.0882,1 2.41821,1 3.68896,0 5.58179,1.0259 5.58179,3.0252 0,2.8801 1.09769,4.9748 2.60699,4.9748 0.76615,0 1.39301,0.675 1.39301,1.5 0,1.078 1.10185,1.5 3.91667,1.5 2.15416,0 4.07241,0.4672 4.26276,1.0383 0.19035,0.5711 3.60285,1.3113 7.58333,1.645 5.97474,0.5009 7.23724,0.91 7.23724,2.3451 0,1.7647 2.66636,2.9332 6.75,2.9579 1.57878,0.01 2.25,0.6103 2.25,2.0137 0,1.385 0.66667,2 2.16809,2 5.48944,0 14.83191,2.2693 14.83191,3.6027 0,0.7685 0.64468,1.3973 1.43261,1.3973 0.78794,0 1.71826,0.9 2.06739,2 0.74067,2.3336 -0.21711,6 -1.56739,6 -0.51293,0 -0.93261,0.6447 -0.93261,1.4326 0,0.7879 -0.9,1.7183 -2,2.0674 -1.1,0.3491 -2,1.2795 -2,2.0674 0,0.8614 -0.99671,1.4326 -2.5,1.4326 -1.375,0 -2.5,0.45 -2.5,1 0,0.55 -0.675,1 -1.5,1 -0.825,0 -1.5,0.45 -1.5,1 0,0.55 -1.35,1 -3,1 -2,0 -3,0.5 -3,1.5 0,0.9333 -0.94444,1.5 -2.5,1.5 -1.375,0 -2.5,0.45 -2.5,1 0,0.55 -2.3625,1.0039 -5.25,1.0087 -2.8875,0 -7.6125,0.2925 -10.5,0.6393 -4.22639,0.5076 -5.25,0.9934 -5.25,2.4913 0,1.5662 -0.79143,1.8607 -5,1.8607 -4.21995,0 -5,-0.2921 -5,-1.8726 z m -222,-20.1274 c 0,-0.6352 -7.75244,-1.0013 -21.25,-1.0037 -31.29233,-0.01 -49.75,-0.9892 -49.75,-2.6519 0,-0.9267 -1.39807,-1.3444 -4.5,-1.3444 -2.475,0 -4.5,-0.45 -4.5,-1 0,-0.55 -1.35,-1 -3,-1 -1.8427,0 -3,-0.5176 -3,-1.3417 0,-0.738 -1.76155,-1.8695 -3.91456,-2.5146 -3.54036,-1.0607 -3.98179,-1.5707 -4.61784,-5.3355 -0.55208,-3.2677 -0.35172,-4.4198 0.93193,-5.3584 2.32815,-1.7024 -0.23943,-7.4498 -3.3281,-7.4498 -0.58929,0 -1.07143,-0.45 -1.07143,-1 0,-0.55 -0.675,-1 -1.5,-1 -0.825,0 -1.5,-0.6187 -1.5,-1.375 0,-0.7562 -1.35,-1.645 -3,-1.975 -2.793,-0.5586 -3,-0.9065 -3,-5.0417 0,-2.6176 0.51332,-4.6488 1.25,-4.946 1,-0.4035 1,-0.5202 0,-0.5834 -0.6875,-0.043 -1.25,-0.9209 -1.25,-1.9501 0,-1.4903 -1.01773,-2.0061 -5,-2.5344 -3.96704,-0.5263 -5,-1.047 -5,-2.5204 0,-2.1064 -2.02176,-2.7934 -10.9746,-3.7291 -4.09895,-0.4285 -6.0254,-1.0638 -6.0254,-1.9874 0,-0.8848 -1.21879,-1.3575 -3.5,-1.3575 -1.925,0 -3.5,-0.45 -3.5,-1 0,-0.55 -1.8,-1 -4,-1 -2.88889,0 -4,-0.4167 -4,-1.5 0,-1.0408 -1.04647,-1.5 -3.41821,-1.5 -4.40522,0 -6.58179,-0.8621 -6.58179,-2.607 0,-0.9253 -1.17503,-1.393 -3.5,-1.393 -1.925,0 -3.5,-0.45 -3.5,-1 0,-0.55 -1.2375,-1.005 -2.75,-1.011 -6.141043,-0.025 -10.250003,-1.2228 -10.250003,-2.989 0,-1.7662 -4.10896,-2.9644 -10.25,-2.989 -1.5125,-0.01 -2.75,-0.461 -2.75,-1.011 0,-0.55 -2.025,-1 -4.5,-1 -3.33333,0 -4.5,-0.3889 -4.5,-1.5 0,-1.0833 -1.11111,-1.5 -4,-1.5 -2.2,0 -4,-0.45 -4,-1 0,-0.55 -0.675,-1 -1.5,-1 -0.825,0 -1.5,-0.45 -1.5,-1 0,-0.55 -1.35,-1 -3,-1 -2,0 -3,-0.5 -3,-1.5 0,-0.825 -0.38115,-1.5 -0.84699,-1.5 -1.60928,0 -5.15301,-3.7402 -5.15301,-5.4387 0,-1.9421 2.29685,-4.5613 4,-4.5613 1.36919,0 4,-2.4838 4,-3.7766 0,-1.1265 16.84916,-2.2234 34.15556,-2.2234 12.17777,0 12.844443,-0.1038 12.844443,-2 0,-2.7283 1.75749,-2.5368 2.29427,0.25 l 0.43337,2.25 0.13618,-2.25 c 0.13188,-2.179 0.46141,-2.25 10.44455,-2.25 l 10.30836,0 1.76074,6.75 c 0.96841,3.7125 1.99975,7.9468 2.29187,9.4096 0.29503,1.4774 1.37557,2.8804 2.43089,3.1564 1.04487,0.2732 1.89977,1.2139 1.89977,2.0904 0,0.927 0.83667,1.5936 2,1.5936 1.1,0 2,0.45 2,1 0,0.55 1.575,1 3.5,1 1.925,0 3.5,0.45 3.5,1 0,0.5641 2.83333,1 6.5,1 5.11111,0 6.5,0.3205 6.5,1.5 0,1.1644 1.32407,1.5 5.91667,1.5 3.25416,0 6.06666,0.4366 6.25,0.9701 0.18333,0.5335 5.39583,1.2762 11.58333,1.6503 9.814,0.5935 11.25,0.905 11.25,2.4402 0,1.4863 1.32145,1.8699 8.5,2.4679 4.675,0.3894 8.5,1.1048 8.5,1.5898 0,0.4849 0.84375,0.8817 1.875,0.8817 2.33939,0 3.32499,4.1794 2.18138,9.25 -0.86567,3.8383 -0.093,4.75 4.02541,4.75 1.22768,0 1.91821,0.6941 1.91821,1.928 0,1.5871 0.9727,2.0496 5.5,2.6153 4.29746,0.5369 5.5,1.0678 5.5,2.4281 0,1.4588 1.33768,1.8519 8.25,2.425 4.5375,0.3762 8.4,1.1159 8.58333,1.6438 0.18334,0.5279 2.54584,0.9598 5.25,0.9598 3.70371,0 4.91667,0.3701 4.91667,1.5 0,1.1515 1.27778,1.5 5.5,1.5 3.025,0 5.5,0.45 5.5,1 0,0.6 4,1 10,1 5.54904,0 10,0.4169 10,0.9366 0,0.5152 1.4625,1.0777 3.25,1.25 l 3.25,0.3134 -0.30373,11.4623 c -0.16705,6.3042 -0.69602,11.9349 -1.17549,12.5127 -0.47946,0.5777 -1.01778,2.8447 -1.19627,5.0377 -0.31072,3.8179 -0.48381,4.0005 -4.07451,4.2977 -2.0625,0.1707 -3.75,0.7332 -3.75,1.25 0,1.4544 -10.74429,1.1603 -11.33772,-0.3104 -0.40351,-1 -0.52017,-1 -0.58333,0 -0.0931,1.4745 -2.07895,1.7133 -2.07895,0.25 z m 1679.0236,-35.4717 c -1.5313,-1.8451 -2.9762,-8.0345 -2.1453,-9.1897 0.342,-0.4755 1.9718,-1.3192 3.6218,-1.8748 2.4564,-0.8272 3.1243,-1.7309 3.686,-4.9871 1.4618,-8.4733 1.9309,-9.4767 4.4306,-9.4767 1.3109,0 2.3834,-0.36 2.3834,-0.7999 0,-0.9855 10.3678,-3.1961 15.0602,-3.2111 7.9566,-0.026 10.5738,-1.042 13.0579,-5.0715 2.7368,-4.4394 5.5446,-4.9847 11.664,-2.2653 2.0449,0.9087 6.1929,1.9832 9.2179,2.3878 3.025,0.4046 13.6991,1.7879 23.7202,3.074 l 18.2202,2.3383 0.631,2.8727 c 0.3567,1.6242 0.1524,3.3512 -0.4702,3.9738 -0.6057,0.6057 -1.1012,2.1297 -1.1012,3.3868 0,2.5212 -1.8644,11.041 -2.8803,13.162 -0.5155,1.0764 -7.0827,1.4253 -32.6326,1.7334 -30.6832,0.37 -39.3816,1.0548 -56.8134,4.4727 -6.5606,1.2863 -8.2216,1.1959 -9.6502,-0.5254 z M 257.15178,807.74759 c -0.68735,-4.9893 -4.17603,-17.2086 -5.02014,-17.5833 -0.41302,-0.1833 -0.75094,-2.2833 -0.75094,-4.6667 0,-2.3833 -0.46396,-4.488 -1.03103,-4.677 -0.56707,-0.189 -1.4913,-3.489 -2.05385,-7.3333 -0.56256,-3.8443 -1.48177,-9.2397 -2.04271,-11.9897 -0.56093,-2.75 -1.41355,-7.475 -1.89472,-10.5 -1.82165,-11.4525 -2.03112,-12 -4.59119,-12 -1.45467,0 -2.3865,0.5857 -2.3865,1.5 0,0.9334 -0.94444,1.5 -2.5,1.5 -1.375,0 -2.5,0.45 -2.5,1 0,0.55 -0.9,1 -2,1 -1.1,0 -2,0.45 -2,1 0,0.5883 -3.5,1 -8.5,1 -5,0 -8.5,0.4118 -8.5,1 0,0.55 -1.125,1 -2.5,1 -1.55556,0 -2.5,0.5667 -2.5,1.5 0,0.9152 -0.9324,1.5 -2.39159,1.5 -1.73802,0 -2.5689,-0.7064 -3.0404,-2.585 -0.90047,-3.5878 0.20104,-6.415 2.49938,-6.415 1.39478,0 1.93261,-0.6957 1.93261,-2.5 0,-1.375 0.47341,-2.5 1.05202,-2.5 0.57861,0 1.52263,-1.35 2.09782,-3 0.5752,-1.65 1.45179,-3 1.94799,-3 0.49619,0 0.90217,-0.9321 0.90217,-2.0714 0,-2.4463 1.74217,-4.3946 4.79664,-5.364 1.43855,-0.4566 2.20336,-1.5061 2.20336,-3.0235 0,-1.6452 0.7304,-2.5076 2.5,-2.9517 2.09867,-0.5267 2.5,-1.2167 2.5,-4.2982 0,-4.8485 2.18541,-15.2912 3.20008,-15.2912 0.43995,0 0.79992,-1.1166 0.79992,-2.4814 0,-2.9656 1.55308,-13.9838 3.52653,-25.0186 0.78689,-4.4 1.97136,-12.1625 2.63216,-17.25 0.6608,-5.0875 1.57042,-9.25 2.02138,-9.25 0.45096,0 0.81993,-2.9391 0.81993,-6.5313 0,-4.8832 0.37853,-6.6767 1.5,-7.107 1.12219,-0.4307 1.50474,-2.2488 1.51881,-7.2187 0.0103,-3.6536 0.86895,-12.5475 1.90801,-19.7641 1.93268,-13.4231 1.63081,-26.4727 -0.8878,-38.3789 -0.52355,-2.475 -0.97152,-6.15 -0.99547,-8.1666 -0.024,-2.0167 -0.52258,-3.8264 -1.10806,-4.0215 -2.78756,-0.9292 -2.19443,-17.8119 0.62578,-17.8119 0.7913,0 1.43873,0.8513 1.43873,1.8916 0,1.1837 0.93557,2.1264 2.5,2.5191 1.375,0.3451 2.5,1.0689 2.5,1.6084 0,0.5395 0.675,0.9809 1.5,0.9809 0.825,0 1.5,0.675 1.5,1.5 0,0.825 0.675,1.5 1.5,1.5 0.825,0 1.5,0.45 1.5,1 0,0.55 0.9,1 2,1 1.11111,0 2,0.6667 2,1.5 0,0.8334 0.88889,1.5 2,1.5 1.1,0 2,-0.4821 2,-1.0714 0,-1.3845 2.54409,-3.9286 3.92857,-3.9286 0.58929,0 1.07143,-0.4821 1.07143,-1.0714 0,-1.8 2.44667,-3.6481 5.80665,-4.3861 2.1583,-0.474 3.19335,-1.2887 3.19335,-2.5135 0,-1.1212 0.99922,-2.0629 2.6208,-2.4699 2.79559,-0.7017 5.3792,-2.8011 5.3792,-4.3711 0,-1.2561 5.25875,-2.2676 6.34133,-1.2197 1.0853,1.0506 -0.31763,23.0317 -1.46998,23.0317 -0.47924,0 -0.87135,3.375 -0.87135,7.5 0,4.125 -0.37476,7.5 -0.83279,7.5 -0.8718,0 -3.24751,11.1779 -2.5369,11.9362 0.98864,1.0551 5.88558,-1.6658 6.22144,-3.4568 0.20415,-1.0887 0.99603,-2.3392 1.75972,-2.7791 0.76369,-0.4398 1.38853,-1.6012 1.38853,-2.581 0,-0.9797 1.125,-2.3834 2.5,-3.1193 1.375,-0.7358 2.5,-2.176 2.5,-3.2003 0,-1.0244 0.63439,-2.1059 1.40975,-2.4034 0.77537,-0.2975 1.68394,-1.6334 2.01905,-2.9686 0.33512,-1.3352 1.05073,-2.4277 1.59025,-2.4277 0.53952,0 0.98095,-0.675 0.98095,-1.5 0,-2.6172 3.72679,-1.7247 4.42567,1.0599 0.77616,3.0925 -0.31182,9.6798 -1.75271,10.6121 -0.57121,0.3696 -1.38678,3.931 -1.81238,7.9142 -0.42561,3.9832 -1.17604,7.5058 -1.66763,7.828 -0.49159,0.3222 -1.20477,4.3958 -1.58484,9.0524 -0.38007,4.6567 -1.09785,8.7181 -1.59508,9.0254 -0.49722,0.3073 -1.6129,8.1973 -2.47929,17.5334 -0.86638,9.336 -2.2361,22.1496 -3.04382,28.4746 -3.76891,29.5132 -4.48992,36.8231 -4.48992,45.5203 0,6.9661 0.38087,9.7178 1.5,10.8369 0.825,0.825 1.5,1.9518 1.5,2.504 0,0.5522 0.9,1.2897 2,1.6388 1.1,0.3492 2,1.0545 2,1.5674 0,0.513 1.125,0.9326 2.5,0.9326 1.83333,0 2.5,0.5334 2.5,2 0,1.4667 0.66667,2 2.5,2 1.78423,0 2.5,0.5408 2.5,1.8887 0,1.3668 0.96718,2.0702 3.5,2.5454 l 3.5,0.6566 0,6.9546 c 0,5.5787 0.303,6.9547 1.53138,6.9547 0.84227,0 1.82688,0.7875 2.18803,1.75 0.36116,0.9625 1.19488,2.2 1.85273,2.75 1.20232,1.0053 2.09799,4.015 3.12465,10.5 0.30475,1.925 1.12053,3.8307 1.81284,4.2349 0.69231,0.4042 1.57998,2.8792 1.9726,5.5 0.39262,2.6208 1.18064,5.0543 1.75116,5.4078 0.57918,0.3588 0.74829,1.7942 0.38291,3.25 -0.54757,2.1817 -1.2196,2.6073 -4.1163,2.6073 -2.82555,0 -3.57323,-0.4436 -4.06761,-2.4133 -0.36083,-1.4377 -1.58137,-2.6582 -3.01905,-3.0191 -1.4637,-0.3673 -2.41334,-1.334 -2.41334,-2.4566 0,-1.4585 -0.97776,-1.9611 -4.61214,-2.3707 -7.26421,-0.8188 -12.38786,0.1703 -12.38786,2.3914 0,1.3262 -0.7254,1.8683 -2.5,1.8683 -1.77542,0 -2.5,-0.542 -2.5,-1.87 0,-1.3596 -1.21337,-2.2098 -4.44548,-3.1147 -3.27357,-0.9165 -4.52576,-1.8049 -4.75,-3.3697 -0.16749,-1.1688 -1.15601,-2.2875 -2.19671,-2.4861 -1.70877,-0.3259 -1.83429,0.1093 -1.29485,4.4898 0.32853,2.6679 0.8975,8.5274 1.26437,13.0211 l 0.66703,8.1704 -4.62218,0.6932 c -2.94041,0.4409 -4.62218,1.1976 -4.62218,2.0796 0,0.8667 -1.09925,1.3864 -2.93261,1.3864 -3.62632,0 -3.76389,0.4376 -4.63779,14.75 -0.3778,6.1875 -1.07901,11.25 -1.55825,11.25 -0.47924,0 -0.87135,0.9 -0.87135,2 0,1.2948 -0.66667,2 -1.89059,2 -1.37447,0 -2.01283,-0.8872 -2.33833,-3.25 z m -11.35287,-111.357 c 0.86999,-0.3338 1.58179,-1.4588 1.58179,-2.5 0,-1.0542 0.69627,-1.893 1.57143,-1.893 2.81326,0 4.42857,-2.7095 4.42857,-7.4285 0,-2.5143 -0.45,-4.5715 -1,-4.5715 -1.4148,0 -1.35811,-41.7139 0.0573,-42.1857 0.63104,-0.2104 1.20828,-4.9813 1.43173,-11.8334 0.20591,-6.3145 0.15022,-10.2434 -0.12376,-8.7309 -0.27398,1.5125 -0.91825,2.75 -1.43172,2.75 -0.51347,0 -0.93358,2.25 -0.93358,5 0,2.75 -0.40077,5 -0.89059,5 -1.05281,0 -1.84668,4.2411 -3.08858,16.5 -0.50146,4.95 -1.36653,11.7 -1.92237,15 -0.55584,3.3 -1.26393,9.825 -1.57353,14.5 -0.3096,4.675 -0.83179,11.3125 -1.16042,14.75 -0.60437,6.3219 -0.27954,6.9221 3.0537,5.643 z m 1775.74819,96.4838 c -1.7434,-4.5718 -4.183,-16.4104 -4.1747,-20.2584 l 0.01,-3.8817 3.8726,0.5194 c 2.1299,0.2857 4.4398,0.1689 5.1331,-0.2596 0.8482,-0.5242 1.5427,-5.4745 2.1235,-15.1377 0.4747,-7.8973 1.0887,-15.7088 1.3645,-17.3588 0.2758,-1.65 0.7774,-10.875 1.1147,-20.5 l 0.6133,-17.5 -5.0473,-3.3631 c -2.776,-1.8497 -5.2867,-3.9872 -5.5794,-4.75 -0.2927,-0.7628 -1.2214,-1.3869 -2.0636,-1.3869 -0.8423,0 -1.5314,-0.2247 -1.5314,-0.4994 0,-0.9972 5.52,-11.0056 6.25,-11.3319 0.4125,-0.1844 0.75,-1.1371 0.75,-2.1171 0,-2.5354 3.811,-7.0516 5.9505,-7.0516 4.488,0 22.4132,11.1331 25.3492,15.7441 0.4398,0.6908 1.2041,1.2559 1.6985,1.2559 1.3326,0 5.5488,4.2233 6.3296,6.3403 0.3733,1.0121 0.3397,2.3621 -0.075,3 -1.1651,1.7939 -3.2018,14.2389 -3.872,23.6597 -0.3326,4.675 -1.3807,13.1983 -2.3291,18.9406 -1.6224,9.8234 -2.2483,21.1514 -2.4612,44.5488 l -0.091,9.9893 -5.5,0.662 c -3.025,0.3641 -8.425,0.9218 -12,1.2395 -3.575,0.3176 -8.3962,0.8691 -10.7137,1.2254 -3.8036,0.5849 -4.3018,0.4167 -5.12,-1.7288 z m -20.5254,-6.6488 c -0.819,-1.3252 -2.3906,-12.562 -3.1599,-22.5938 -0.3739,-4.8762 -1.2832,-10.3098 -2.0206,-12.0748 -0.7375,-1.7649 -1.8575,-6.3253 -2.4889,-10.1342 -0.6314,-3.8088 -2.4583,-10.3981 -4.0598,-14.6429 -1.6014,-4.2448 -2.9117,-8.447 -2.9117,-9.3383 0,-0.8912 -1.35,-4.5372 -3,-8.102 -1.65,-3.5648 -3,-7.5751 -3,-8.9117 0,-1.3367 -0.3383,-2.4303 -0.7517,-2.4303 -0.9679,0 -4.9787,-7.7111 -5.7807,-11.1139 -0.498,-2.1127 -0.2016,-2.7224 1.5453,-3.1792 2.0422,-0.534 2.1218,-0.9414 1.442,-7.386 -0.3957,-3.7515 -1.1099,-7.8627 -1.5872,-9.136 -0.4772,-1.2733 -0.8677,-4.268 -0.8677,-6.6549 0,-4.0862 0.263,-4.4941 4.5,-6.9771 2.475,-1.4504 4.5,-3.0682 4.5,-3.595 0,-0.5268 1.575,-0.9579 3.5,-0.9579 1.925,0 3.5,0.4415 3.5,0.981 0,0.5395 1.2375,1.2766 2.75,1.6379 5.1257,1.2244 5.2495,1.6305 5.2576,17.2536 0,8.0451 0.4338,17.3275 0.9549,20.6275 0.5211,3.3 1.0548,8.7 1.186,12 0.1312,3.3 0.5413,6.45 0.9115,7 0.6221,0.9246 2.4399,20.2338 3.3419,35.5 0.2112,3.575 0.9016,10.325 1.5342,15 0.6325,4.675 1.0182,12.775 0.857,18 -0.2916,9.4529 -0.3063,9.5016 -2.9487,9.8073 -1.4605,0.1691 -2.9021,-0.092 -3.2035,-0.5793 z m -668.0907,-28.478 c 1.4687,-6.7309 2.3206,-7.4448 2.3863,-2 0.05,4.1442 -0.2693,5.25 -1.5161,5.25 -1.2607,0 -1.4363,-0.6557 -0.8702,-3.25 z m 1056.4498,-6.6199 c 0,-1.4744 -0.9518,-1.9772 -4.4995,-2.3771 -5.8267,-0.6568 -7.7666,-2.265 -6.9911,-5.7957 0.5185,-2.3609 0.1958,-2.8644 -2.4204,-3.7764 -3.143,-1.0956 -4.0725,-3.1591 -3.9107,-8.6809 0.092,-3.1369 -2.0507,-25.8289 -2.4492,-25.9375 -0.126,-0.034 -1.2355,-0.625 -2.4655,-1.3125 -1.2301,-0.6875 -3.0424,-1.25 -4.0275,-1.25 -0.9851,0 -2.6787,-0.6143 -3.7636,-1.3651 -1.0849,-0.7509 -5.1225,-1.9071 -8.9725,-2.5694 -3.85,-0.6623 -10.141,-2.073 -13.9799,-3.1348 -3.8389,-1.0619 -8.3389,-1.94 -10,-1.9515 -1.6611,-0.012 -5.9451,-0.6858 -9.5201,-1.4985 -3.575,-0.8127 -10.775,-1.922 -16,-2.4651 -5.225,-0.543 -13.55,-1.4965 -18.5,-2.1189 -4.95,-0.6223 -11.7,-1.4162 -15,-1.7641 l -6,-0.6326 -0.051,-7 c -0.084,-11.49 -0.044,-11.461 -6.7877,-5 -2.583,2.475 -5.3154,4.5 -6.0719,4.5 -0.7565,0 -1.6532,0.7238 -1.9926,1.6084 -0.5671,1.4777 -0.8164,1.4777 -3.0718,0 -1.3501,-0.8846 -3.3705,-1.6084 -4.4898,-1.6084 -1.1194,0 -2.0352,-0.45 -2.0352,-1 0,-0.55 -0.4454,-1 -0.9898,-1 -0.5443,0 -4.1489,-2.025 -8.0102,-4.5 -3.8613,-2.475 -7.4659,-4.5 -8.0102,-4.5 -0.5444,0 -0.9898,-0.45 -0.9898,-1 0,-0.55 -0.6451,-1 -1.4336,-1 -1.8283,0 -11.5664,-6.0193 -11.5664,-7.1494 0,-0.4678 -0.5901,-0.8506 -1.3114,-0.8506 -0.7213,0 -2.2775,-0.9 -3.4582,-2 -1.1807,-1.1 -2.5371,-2 -3.0143,-2 -0.4771,0 -1.9244,-1.125 -3.2161,-2.5 -1.2917,-1.375 -2.9228,-2.5 -3.6246,-2.5 -0.7018,0 -1.6359,-0.5651 -2.0757,-1.2559 -0.4398,-0.6907 -2.4482,-2.4839 -4.4631,-3.9848 -2.0149,-1.501 -4.2649,-3.2983 -5,-3.9941 -0.7351,-0.6959 -3.1366,-2.5949 -5.3366,-4.2201 -2.2,-1.6251 -4.588,-3.7626 -5.3067,-4.75 -0.7187,-0.9873 -1.6563,-1.7951 -2.0836,-1.7951 -1.2818,0 -9.1097,-7.6016 -9.1097,-8.8464 0,-0.6344 -0.6891,-1.1536 -1.5314,-1.1536 -0.8422,0 -1.7904,-0.675 -2.107,-1.5 -0.3166,-0.825 -1.3723,-1.5 -2.3461,-1.5 -0.9739,0 -2.3308,0.675 -3.0155,1.5 -0.6847,0.825 -1.6719,1.5 -2.1939,1.5 -0.5219,0 -1.5762,0.5625 -2.3428,1.25 -3.1032,2.783 -4.4125,3.75 -5.0767,3.75 -0.3838,0 -2.0903,1.0217 -3.7922,2.2704 -1.7019,1.2486 -4.3319,2.8997 -5.8444,3.6689 -1.5125,0.7693 -2.75,1.7727 -2.75,2.2297 0,0.4571 -0.8679,0.831 -1.9286,0.831 -1.0607,0 -2.6199,0.6914 -3.4649,1.5364 -0.845,0.845 -3.0147,2.2094 -4.8215,3.0319 -1.8067,0.8225 -4.635,2.3762 -6.285,3.4526 -1.65,1.0764 -3.675,2.2583 -4.5,2.6264 -0.825,0.3681 -3.5853,2.173 -6.134,4.011 -2.5487,1.838 -5.0987,3.3417 -5.6666,3.3417 -0.568,0 -1.1827,0.3747 -1.3661,0.8327 -0.1833,0.4579 -3.7083,3.2621 -7.8333,6.2315 -8.4548,6.0862 -8.3938,6.041 -12.5,9.2506 -1.65,1.2897 -3.7875,2.6323 -4.75,2.9837 -0.9625,0.3513 -1.75,1.2279 -1.75,1.9479 0,1.5402 -3.5087,4.7536 -5.1904,4.7536 -1.7521,0 -7.7722,-2.0105 -12.538,-4.1873 -2.3256,-1.0623 -5.824,-2.1903 -7.7743,-2.5068 -1.9502,-0.3165 -3.8657,-1.0773 -4.2567,-1.6906 -1.4933,-2.3428 -4.1642,-10.9299 -3.6555,-11.7529 0.2931,-0.4743 5.2314,-0.8624 10.9739,-0.8624 6.294,0 10.441,-0.3971 10.441,-1 0,-0.55 -0.6423,-1 -1.4274,-1 -0.7851,0 -2.3124,-1.125 -3.3939,-2.5 -1.0816,-1.375 -2.6638,-2.5 -3.5159,-2.5 -2.6004,0 -4.6618,-3.8723 -3.5784,-6.7219 1.1839,-3.1138 4.815,-6.2012 7.3446,-6.2448 2.3458,-0.04 8.1181,1.729 11.7253,3.5942 4.0275,2.0826 5.2985,1.7207 9.2267,-2.6275 1.9876,-2.2 3.8065,-4 4.0421,-4 0.6173,0 8.8888,-8.5063 17.5769,-18.076 4.125,-4.5436 8.2875,-9.0852 9.25,-10.0925 0.9625,-1.0073 1.75,-1.9999 1.75,-2.2058 0,-0.2058 1.5713,-2.0897 3.4918,-4.1864 1.9205,-2.0967 3.7508,-4.6283 4.0674,-5.6257 0.3166,-0.9975 1.1899,-1.8136 1.9408,-1.8136 0.7509,0 1.6509,-0.9 2,-2 0.3491,-1.1 1.0545,-2 1.5674,-2 0.5129,0 0.9326,-0.6591 0.9326,-1.4648 0,-0.8056 0.9,-1.9465 2,-2.5352 1.1,-0.5887 2,-1.8631 2,-2.8321 0,-0.9689 1.3309,-2.8656 2.9577,-4.2148 1.6267,-1.3492 2.9767,-3.133 3,-3.964 0.023,-0.831 1.5048,-3.1964 3.2923,-5.2565 2.4911,-2.871 3.9951,-3.744 6.441,-3.7391 1.755,0 3.4691,0.4565 3.809,1.0065 0.3399,0.55 2.1512,1 4.0251,1 1.8739,0 4.9694,0.7451 6.879,1.6557 3.2312,1.5408 3.6471,1.5408 5.9987,0 1.3898,-0.9106 3.4161,-1.6557 4.503,-1.6557 1.0869,0 2.2431,-0.4318 2.5693,-0.9596 0.3262,-0.5278 3.0527,-1.735 6.059,-2.6826 3.0062,-0.9477 5.4659,-2.0908 5.4659,-2.5404 0,-0.4495 0.6429,-0.8174 1.4286,-0.8174 2.4724,0 4.5714,-3.0122 4.5714,-6.5602 0,-1.8796 0.925,-6.7891 2.0556,-10.91 1.1477,-4.1837 1.9206,-9.5844 1.75,-12.2292 l -0.3056,-4.7367 -7,-1.5985 c -3.85,-0.8792 -7.9,-2.0809 -9,-2.6703 -1.1,-0.5895 -4.638,-1.5589 -7.8623,-2.1542 -7.0895,-1.309 -8.6832,-2.4799 -8.1371,-5.9781 0.2286,-1.4645 0.6799,-4.3503 1.0028,-6.4128 0.323,-2.0625 1.0081,-3.75 1.5226,-3.75 0.5144,0 4.724,-1.8 9.3546,-4 4.6306,-2.2 8.6893,-4 9.0193,-4 0.3301,0 1.4436,-0.7875 2.4746,-1.75 1.031,-0.9625 4.9164,-3.775 8.6342,-6.25 9.9181,-6.6025 12.7962,-9.464 12.0101,-11.9406 -0.85,-2.6783 -1.9477,-2.5968 -5.9299,0.4406 -1.8027,1.375 -3.6157,2.5 -4.0289,2.5 -0.4132,0 -1.9732,0.8701 -3.4666,1.9335 -1.4935,1.0635 -3.9254,2.2373 -5.4044,2.6085 -1.4789,0.3711 -2.689,1.0761 -2.689,1.5664 0,0.4904 -0.5625,0.8915 -1.25,0.8912 -0.6875,-2e-4 -4.175,1.3995 -7.75,3.1103 -3.575,1.7109 -8.3,3.9623 -10.5,5.0032 -5.2264,2.4727 -9.5,2.5119 -9.5,0.087 0,-0.99 -0.4789,-2.2789 -1.0643,-2.8643 -1.1819,-1.1819 -0.1864,-2.4634 4.5331,-5.8357 9.1078,-6.5079 35.5559,-31.1502 35.509,-33.0844 -0.012,-0.5036 -0.9023,-2.0406 -1.9778,-3.4156 -1.0755,-1.375 -1.9655,-3.0613 -1.9778,-3.7473 -0.012,-0.6861 -1.4,-4.2861 -3.084,-8 -2.9996,-6.6154 -3.5231,-7.6953 -5.698,-11.7527 -1.8323,-3.4183 -4.2402,-9.2553 -4.2402,-10.2787 0,-0.537 -0.625,-1.4951 -1.3889,-2.1291 -0.7639,-0.634 -1.9058,-3.2054 -2.5375,-5.7143 -1.1248,-4.4668 -1.0708,-4.6636 2.5944,-9.4698 2.0586,-2.6994 4.0157,-4.9081 4.3489,-4.9081 0.3333,0 1.6303,-0.9543 2.8822,-2.1206 1.8974,-1.7677 2.6775,-1.9377 4.6885,-1.0214 1.3268,0.6045 2.4124,1.9094 2.4124,2.8998 0,0.9904 0.9,2.4493 2,3.2422 1.1,0.7928 2.0162,1.9047 2.036,2.4707 0.02,0.5661 1.1425,2.3793 2.495,4.0293 2.2856,2.7883 2.4594,2.8454 2.464,0.809 0,-1.205 -0.445,-2.4691 -0.995,-2.809 -0.55,-0.3399 -1,-1.8515 -1,-3.359 0,-1.5076 -0.4759,-3.2169 -1.0576,-3.7986 -1.8048,-1.8049 -2.4694,-12.3952 -0.8424,-13.4254 2.5519,-1.6157 5.9,-1.0705 5.9,0.9609 0,2.8787 2.5957,8.4462 4.9174,10.5474 1.1455,1.0366 2.0826,2.3053 2.0826,2.8195 0,1.0424 3.3014,4.89 9.9056,11.5441 l 4.4056,4.4389 -1.1911,7.7807 c -1.5401,10.0606 -1.2808,46.7188 0.4456,62.9915 0.7294,6.875 1.6105,15.425 1.9579,19 0.3475,3.575 1.2719,8.8192 2.0541,11.6539 1.788,6.4791 1.7788,7.3461 -0.078,7.3461 -0.825,0 -1.5,0.45 -1.5,1 0,0.55 -0.9,1 -2,1 -1.1,0 -2,0.631 -2,1.4022 0,0.7712 -1.35,1.8727 -3,2.4479 -3.1072,1.0832 -4.179,4.1499 -1.4503,4.1499 1.981,0 7.2049,2.6935 9.6602,4.9809 1.7164,1.5991 1.7494,1.917 0.3441,3.3223 -0.8547,0.8546 -1.5683,2.1486 -1.5858,2.8754 -0.017,0.7267 -0.6665,2.1593 -1.4422,3.1834 -0.7757,1.0241 -2.1384,4.3991 -3.0282,7.5 -0.8898,3.1009 -2.4908,7.3021 -3.5578,9.3361 -1.067,2.034 -1.94,4.3013 -1.94,5.0386 0,0.7372 -0.8932,3.0924 -1.9849,5.2336 -1.0917,2.1413 -1.8085,4.0696 -1.5929,4.2852 1.1414,1.1414 6.6138,-3.0915 7.1411,-5.5237 0.6352,-2.9296 1.2415,-4.6099 3.7819,-10.4818 1.5221,-3.5182 1.8941,-3.75 6.0162,-3.75 2.7865,0 4.8739,0.5786 5.7064,1.5817 0.722,0.87 2.7574,2.3325 4.523,3.25 1.7657,0.9176 4.7176,2.4678 6.5598,3.445 3.1218,1.656 5.5539,5.467 7.3219,11.4733 0.3642,1.2375 1.0022,2.25 1.4176,2.25 0.4155,0 1.7988,2.1375 3.074,4.75 1.2753,2.6125 3.1134,5.65 4.0847,6.75 0.9713,1.1 2.7531,3.9125 3.9596,6.25 1.2064,2.3375 2.5493,4.25 2.9842,4.25 0.4348,0 1.0898,1.1922 1.4556,2.6495 0.5859,2.3346 7.622,12.4124 11.3374,16.2387 2.5633,2.6398 1.0702,12.9199 -3.0523,21.0154 -0.9533,1.872 -1.7333,4.4044 -1.7333,5.6276 0,1.2231 -0.675,2.7841 -1.5,3.4688 -0.825,0.6847 -1.5,1.829 -1.5,2.543 0,0.7139 -1.401,1.6058 -3.1133,1.9819 -2.3484,0.5158 -3.8124,0.1668 -5.9595,-1.4206 -1.5654,-1.1574 -3.3144,-2.1043 -3.8867,-2.1043 -1.5556,0 -1.194,-6.213 0.4913,-8.4411 3.4689,-4.5864 0.1737,-5.812 -8.5318,-3.1733 -2.475,0.7502 -7.403,1.7 -10.9512,2.1107 l -6.4512,0.7468 4.415,3.8784 c 2.4282,2.1332 4.8855,3.8785 5.4606,3.8785 0.5751,0 1.6078,0.9 2.2947,2 0.687,1.1 2.1077,2 3.1572,2 1.0495,0 2.0582,0.3481 2.2416,0.7736 0.4244,0.9851 14.2604,8.2264 15.7181,8.2264 3.7781,0 6.8557,7.1181 3.6152,8.3616 -2.2118,0.8488 -1.837,3.6384 0.4888,3.6384 1.0939,0 5.4253,-0.9428 9.6253,-2.095 8.2125,-2.2531 15.4906,-2.6148 20.657,-1.0266 7.4655,2.2949 11.7241,3.1216 16.0806,3.1216 2.5408,0 6.5386,0.4336 8.8839,0.9635 2.3454,0.5299 7.6394,1.4671 11.7644,2.0826 4.125,0.6155 8.4194,1.2921 9.5432,1.5036 1.4991,0.2822 2.3253,-0.3631 3.103,-2.4233 1.3563,-3.5933 0.4305,-4.7776 -6.6619,-8.5213 -3.0164,-1.5922 -6.1947,-3.5047 -7.063,-4.25 -0.8683,-0.7453 -1.9207,-1.3551 -2.3387,-1.3551 -0.4179,0 -4.979,-2.025 -10.1358,-4.5 -5.1567,-2.475 -9.9667,-4.5 -10.6888,-4.5 -0.7222,0 -2.2006,-0.6101 -3.2855,-1.3558 -1.0849,-0.7457 -4.3872,-2.1492 -7.3385,-3.1189 l -5.366,-1.7631 -2.384,2.7744 c -1.3112,1.526 -2.384,3.3795 -2.384,4.1189 0,0.7395 -0.845,1.3445 -1.8779,1.3445 -2.3032,0 -8.7766,-2.632 -9.5496,-3.8827 -0.3103,-0.5022 -0.2746,-4.3401 0.079,-8.5287 0.5072,-5.9998 1.1327,-8.1433 2.9481,-10.1022 2.6198,-2.8267 5.1412,-3.1493 7.9588,-1.0182 1.0676,0.8075 2.6441,1.4825 3.5033,1.5 0.8592,0.017 3.4249,0.9318 5.7017,2.0318 2.2767,1.1 4.8224,2 5.657,2 0.8346,0 3.2189,0.8712 5.2983,1.936 2.0794,1.0648 5.4683,2.2399 7.5308,2.6113 2.0625,0.3714 3.75,1.0264 3.75,1.4556 0,0.4291 1.2375,1.0888 2.75,1.4658 1.5125,0.377 4.1,1.2943 5.75,2.0384 3.7993,1.7134 16.2698,6.3308 28.5,10.5528 1.925,0.6645 4.2814,1.5979 5.2364,2.0741 0.9551,0.4763 2.616,0.866 3.691,0.866 1.075,0 2.2327,0.45 2.5726,1 0.3399,0.55 1.7012,1 3.0251,1 1.3239,0 3.9387,0.7304 5.8108,1.6231 2.9088,1.3871 3.5934,2.4136 4.7078,7.0589 0.7172,2.9896 1.3382,10.5921 1.3801,16.8943 0.064,9.6189 0.2835,11.1748 1.3672,9.6911 0.71,-0.9721 2.96,-3.6901 5,-6.0401 3.2575,-3.7526 4.0702,-4.1936 6.6762,-3.6229 1.6319,0.3575 3.8124,1.1552 4.8455,1.7727 1.5491,0.9261 2.1459,0.7285 3.4048,-1.1271 2.0715,-3.0535 4.1616,-2.8321 9.1007,0.964 4.516,3.4709 5.0424,5.4578 3.1237,11.7926 -3.2892,10.8601 -4.8975,17.9759 -4.9184,21.7608 -0.013,2.3471 -0.8908,8.4221 -1.9508,13.5 -1.06,5.0779 -2.2208,12.2701 -2.5796,15.9826 l -0.6523,6.75 -6.4204,0 c -5.6041,-1e-4 -6.4196,-0.2376 -6.4196,-1.87 z m -131.2091,-129.771 c 2.579,-0.6909 2.4844,-2.1921 -0.2386,-3.7876 -1.0057,-0.5893 -2.9827,-2.1077 -4.3934,-3.3742 -2.2604,-2.0295 -3.2824,-2.2389 -8.6118,-1.7648 -16.5995,1.4768 -33.0134,2.4668 -41.6901,2.5145 -7.3134,0.04 -9.773,0.3918 -10.1811,1.4553 -0.788,2.0534 0.1794,2.5926 4.7408,2.6419 2.2458,0.024 6.3333,0.6689 9.0833,1.4325 5.1812,1.4387 46.5569,2.1505 51.2909,0.8824 z M 20.380697,739.99759 c 0,-10.1232 0.15078,-11 1.89159,-11 1.16989,0 2.12461,-0.9284 2.50233,-2.4333 0.3359,-1.3384 1.50968,-2.7187 2.6084,-3.0674 1.09873,-0.3487 1.99768,-1.4879 1.99768,-2.5315 0,-1.0436 0.9,-2.3791 2,-2.9678 1.1,-0.5887 2,-1.9057 2,-2.9267 0,-1.1462 0.95646,-2.0965 2.5,-2.4839 1.375,-0.3451 2.5,-1.2939 2.5,-2.1084 0,-0.8145 0.63811,-1.481 1.41803,-1.481 1.18741,0 1.3907,-3.6999 1.25,-22.75 -0.0924,-12.5125 0.23698,-35.2511 0.732,-50.5304 0.71722,-22.1381 0.63394,-28.5866 -0.41006,-31.75 -0.72055,-2.1832 -1.60787,-3.9696 -1.97182,-3.9696 -0.36395,0 -1.28479,-2.9857 -2.04631,-6.6349 -0.76152,-3.6492 -1.90133,-7.1517 -2.5329,-7.7833 -0.63158,-0.6315 -1.4101,-2.4833 -1.73004,-4.115 -1.29156,-6.5869 -3.27164,-13.252 -4.32851,-14.5703 -0.61579,-0.768 -1.43219,-3.1965 -1.81422,-5.3965 -1.2015,-6.9189 -2.83787,-11.5 -4.10783,-11.5 -1.43093,0 -2.42537,-3.1525 -2.44469,-7.75 -0.0115,-2.7473 0.34932,-3.25 2.33334,-3.25 3.06386,0 6.65301,3.1653 6.65301,5.8673 0,1.2291 0.63555,2.1327 1.5,2.1327 0.825,0 1.5,0.675 1.5,1.5 0,0.825 0.45,1.5 1,1.5 1.29694,0 5,3.7031 5,5 0,0.55 0.40598,1 0.90217,1 0.4962,0 1.37279,1.35 1.94799,3 0.57519,1.65 1.48791,3 2.02827,3 0.54036,0 1.12627,1.0079 1.30202,2.2398 0.17575,1.2319 1.06579,2.3819 1.97785,2.5557 1.49553,0.2849 1.604,-0.8921 1.10505,-11.9898 -0.32602,-7.2513 -1.00714,-12.6137 -1.65831,-13.0557 -0.76448,-0.5188 -0.64276,-1.0534 0.39496,-1.7347 1.00305,-0.6584 1.08588,-0.9897 0.25,-1 -0.86123,-0.01 -1.26093,-1.9591 -1.28513,-6.2653 -0.0193,-3.4375 -0.67851,-9.175 -1.46487,-12.75 -2.16255,-9.8315 -1.99662,-12 0.91821,-12 3.66855,0 5.58179,1.023 5.58179,2.9846 0,0.9738 0.62608,2.2901 1.39129,2.9252 0.76521,0.6351 1.6868,3.1253 2.04799,5.5339 0.36119,2.4085 1.31011,4.6299 2.10871,4.9364 0.79861,0.3064 1.45201,1.1981 1.45201,1.9816 0,0.7834 0.63257,1.6671 1.4057,1.9638 0.77314,0.2967 1.71279,1.9375 2.08812,3.6464 0.57537,2.6197 1.0215,3.0012 2.84429,2.4328 2.29478,-0.7157 3.62142,-2.1817 3.64658,-4.0297 0.027,-1.9863 12.09367,-3.3178 14.58825,-1.6097 1.53333,1.05 2.46946,3.7673 4.04258,11.7347 1.63399,8.2757 1.76393,12.5 0.38448,12.5 -0.55,0 -1,0.675 -1,1.5 0,0.8286 -0.88677,1.5 -1.98095,1.5 -1.27134,0 -2.20249,0.8827 -2.59941,2.4642 -0.34016,1.3553 -1.47373,2.7356 -2.51905,3.0674 -1.60074,0.508 -1.90059,1.5906 -1.90059,6.8618 0,3.4422 0.62762,10.9493 1.39472,16.6826 0.76709,5.7332 1.97481,17.2865 2.6838,25.674 0.709,8.3875 1.59477,15.25 1.96837,15.25 0.37361,0 0.96386,2.8125 1.31167,6.25 0.34781,3.4375 1.0493,9.85 1.55886,14.25 0.50956,4.4 1.25167,11.0375 1.64913,14.75 0.39746,3.7125 1.04871,6.75 1.44721,6.75 0.39851,0 1.02806,1.6875 1.39902,3.75 0.71212,3.9595 3.50147,22.304 3.55551,23.3834 0.0174,0.3484 0.96511,0.8775 2.10592,1.1758 1.14082,0.2983 2.3183,1.4758 2.61663,2.6166 0.29833,1.1408 0.93994,2.0742 1.42579,2.0742 0.48585,0 0.883373,1.025 0.883373,2.2778 0,2.3553 3.0862,5.7163 5.26143,5.73 1.2904,0.01 3.73857,4.4106 3.73857,6.723 0,0.7326 0.675,1.591 1.5,1.9076 0.825,0.3166 1.5,1.5525 1.5,2.7464 0,1.1939 0.9,2.9414 2,3.8832 1.1,0.9419 2,2.3919 2,3.2222 0,0.8304 0.675,1.5098 1.5,1.5098 1.04762,0 1.5,1.0556 1.5,3.5 0,2.8334 -0.38095,3.5 -2,3.5 -1.11111,0 -2,-0.6666 -2,-1.5 0,-0.825 -0.675,-1.5 -1.5,-1.5 -0.825,0 -1.5,-0.45 -1.5,-1 0,-0.55 -1.125,-1 -2.5,-1 -1.375,0 -2.5,-0.45 -2.5,-1 0,-0.55 -0.84591,-1 -1.87981,-1 -1.57826,0 -1.94799,0.9427 -2.30486,5.8763 -0.51796,7.1608 -2.18406,9.1237 -7.743903,9.1237 -2.23929,0 -4.07143,0.45 -4.07143,1 0,0.55 -2.25,1 -5,1 -2.75,0 -5,0.45 -5,1 0,0.55 -1.59545,1 -3.54545,1 -3.81359,0 -8.45455,-3.566 -8.45455,-6.4963 0,-0.873 -0.9,-2.5533 -2,-3.734 -1.1,-1.1808 -2,-2.7369 -2,-3.4582 0,-0.7905 -1.19171,-1.3115 -3,-1.3115 -1.87581,0 -3,0.5142 -3,1.3722 0,0.8276 -1.58745,1.6261 -4,2.0118 -2.2,0.3518 -4,1.0844 -4,1.6279 0,0.5435 -0.9,0.9881 -2,0.9881 -1.11111,0 -2,0.6667 -2,1.5 0,1.0477 -1.05556,1.5 -3.5,1.5 -1.925,0 -3.5,0.45 -3.5,1 0,0.55 -0.9,1 -2,1 -1.1,0 -2,0.45 -2,1 0,0.55 -1.575,1 -3.5,1 -1.925,0 -3.5,0.45 -3.5,1 0,0.55 -0.9,1 -2,1 -1.11111,0 -2,0.6667 -2,1.5 0,0.9334 -0.94444,1.5 -2.5,1.5 l -2.5,0 0,-11 z m 37,-52.4304 c 0,-1.7587 0.62156,-2.5188 2.24887,-2.75 3.29535,-0.4683 4.3622,-6.7367 2.91397,-17.1216 -1.72223,-12.3496 -3.16284,-26.9789 -3.16284,-32.1184 0,-2.5188 -0.45,-4.5796 -1,-4.5796 -0.58407,0 -1,-3.3571 -1,-8.0714 0,-7.5691 -0.10488,-7.9665 -1.68536,-6.3861 -1.50032,1.5004 -1.73426,5.6255 -2.13072,37.5715 l -0.44537,35.886 2.13073,0 c 1.58984,0 2.13072,-0.6169 2.13072,-2.4304 z m 142.000003,46.9304 c 0,-1.2807 -2.77778,-1.5 -19,-1.5 -12,0 -19,-0.3684 -19,-1 0,-0.5777 -3.16667,-1 -7.5,-1 -4.33333,0 -7.5,-0.4222 -7.5,-1 0,-0.5777 -3.16667,-1 -7.5,-1 -6,0 -7.5,-0.3 -7.5,-1.5 0,-1 -1,-1.5 -3,-1.5 -1.65,0 -3,-0.3925 -3,-0.8722 0,-0.4797 -1.8,-1.16 -4,-1.5118 -2.93693,-0.4696 -4,-1.1148 -4,-2.4278 0,-0.9835 -0.4881,-2.2763 -1.08466,-2.8728 -0.59657,-0.5966 -0.93407,-2.1491 -0.75,-3.45 l 0.33466,-2.3654 38.25,-0.2618 c 33.08027,-0.2265 38.25,-0.4631 38.25,-1.75 0,-1.2304 1.97188,-1.4882 11.38337,-1.4882 10.95965,0 11.40581,0.084 11.98634,2.25 1.04493,3.8992 0.6964,5.2468 -1.61971,6.2629 -1.2375,0.5429 -2.3974,2.0272 -2.57756,3.2983 -0.18016,1.2711 -0.91032,2.5348 -1.62257,2.8081 -0.71226,0.2733 -2.35706,3.1708 -3.65513,6.4388 -1.91243,4.8148 -2.79021,5.9419 -4.62743,5.9419 -1.34872,0 -2.26731,-0.6077 -2.26731,-1.5 z m 169,-9.3905 0,-6.1095 259.75,-0.023 c 142.86247,-0.013 267.39997,-0.2318 276.74997,-0.4869 9.35,-0.255 33.2,-0.6905 53,-0.9677 19.8,-0.2771 45.67503,-0.7276 57.50003,-1.0009 20.2564,-0.4682 59.2737,-0.8301 218,-2.0218 172.4214,-1.2946 238.6646,-1.5367 413.5,-1.5113 103.4,0.015 204.6501,0.2548 225.0001,0.5328 20.35,0.278 49.9602,0.6818 65.8004,0.8973 28.3799,0.3861 28.8288,0.4247 30.75,2.6398 3.1369,3.6169 2.494,5.5449 -2.3004,6.8988 -5.112,1.4436 -67.4559,1.7997 -447.2501,2.554 -146.85,0.2917 -281.85,0.743 -300,1.0028 -18.15,0.2598 -71.025,0.6828 -117.5,0.94 -46.475,0.2571 -87.65,0.727 -91.5,1.0441 -3.85,0.3171 -149.76253,0.8341 -324.25,1.1489 l -317.25,0.5723 0,-6.1095 z m 1720.2986,-1.4873 c -1.7608,-0.6555 -3.524,-1.5144 -3.9182,-1.9085 -1.1772,-1.1772 1.7083,-5.5191 4.0601,-6.1093 1.2011,-0.3015 21.731,-0.8267 45.6218,-1.1672 23.8908,-0.3404 48.8378,-1.1764 55.4378,-1.8576 18.1975,-1.8783 124.8021,-2.9792 130.598,-1.3487 3.6242,1.0196 10.902,7.6215 10.902,9.8895 0,2.2462 1.5517,2.1126 -28.5,2.4533 -97.7801,1.1086 -211.2847,1.1343 -214.2015,0.048 z m -754.1407,-18.6222 c 0,-1.375 0.227,-1.9375 0.5044,-1.25 0.2774,0.6875 0.2774,1.8125 0,2.5 -0.2774,0.6875 -0.5044,0.125 -0.5044,-1.25 z m -339.86873,-33.6886 c -1.4775,-3.8505 1.1703,-104.6936 3.1721,-120.8114 0.2733,-2.2 0.5657,-10.3 0.6498,-18 0.084,-7.7 0.5482,-16.8589 1.0314,-20.3532 1.01793,-7.3609 1.63883,-14.313 2.31703,-25.9465 0.2662,-4.5649 0.7545,-8.7375 1.0852,-9.2726 0.3307,-0.535 0.9899,-8.5001 1.4649,-17.7002 0.475,-9.2001 1.5208,-21.2275 2.3241,-26.7275 1.5973,-10.9369 3.2836,-25.7297 4.6168,-40.5 0.4716,-5.225 1.535,-13.325 2.3632,-18 0.8282,-4.675 1.7921,-12.1 2.142,-16.5 0.3499,-4.4 1.0517,-10.25 1.5595,-13 0.5078,-2.75 1.1404,-7.025 1.4057,-9.5 0.2654,-2.475 1.1726,-7.425 2.016,-11 0.8434,-3.575 1.5344,-8.975 1.5355,-12 0,-3.025 0.6478,-8.65 1.4371,-12.5 3.115,-15.1938 4.5905,-24.468 4.5905,-28.8533 0,-4.5355 1.6885,-14.331 4.5352,-26.3108 0.8056,-3.3903 1.4648,-8.0112 1.4648,-10.2688 0,-2.2575 1.125,-7.3246 2.5,-11.2602 1.375,-3.9355 2.5,-8.4005 2.5,-9.9222 0,-3.6314 0.9926,-4.1066 6.179,-2.9581 2.3766,0.5263 7.246,1.473 10.821,2.1038 8.6384,1.5242 9.2226,2.0871 7.4323,7.1616 -0.7878,2.2327 -1.4323,5.3264 -1.4323,6.8747 0,1.5484 -0.4057,3.0661 -0.9016,3.3725 -0.4959,0.3065 -1.2097,3.3706 -1.5864,6.809 -0.3766,3.4385 -1.5195,9.8518 -2.5398,14.2518 -1.0202,4.4 -2.5823,12.95 -3.4713,19 -0.8891,6.05 -2.4734,15.5 -3.5208,21 -2.3994,12.5991 -3.7977,21.0951 -4.9375,30 -0.4929,3.85 -1.5778,10.825 -2.411,15.5 -0.8332,4.675 -1.7811,11.2 -2.1064,14.5 -0.3254,3.3 -1.0174,8.7 -1.5378,12 -3.0336,19.2363 -4.1781,27.7817 -5.0467,37.6797 -0.5338,6.0827 -1.2085,11.4447 -1.4994,11.9154 -0.291,0.4707 -0.7496,3.6794 -1.0193,7.1304 -0.2697,3.451 -1.1307,10.7745 -1.9132,16.2745 -0.7826,5.5 -1.6848,14.725 -2.0049,20.5 -0.3202,5.775 -0.7212,11.4 -0.8912,12.5 -0.911,5.8947 -1.6011,11.7849 -2.1676,18.5 -0.348,4.125 -0.8045,8.85 -1.0144,10.5 -0.21,1.65 -0.8137,11.391 -1.3415,21.6467 -0.5279,10.2557 -1.1979,20.1557 -1.4889,22 -1.349,8.5506 -1.9175,16.8763 -3.1434,46.0312 -0.3395,8.0728 -0.7815,15.9478 -0.9823,17.5 -0.2009,1.5522 -0.4045,16.7721 -0.4526,33.8221 -0.048,17.05 -0.4207,31.5365 -0.828,32.1923 -0.4575,0.7363 -4.4874,1.3647 -10.5396,1.6434 -8.00873,0.3688 -9.90243,0.1817 -10.36523,-1.0243 z m 992.46093,-26.5757 c -2.0625,-1.1482 -3.75,-2.6924 -3.75,-3.4315 0,-1.7915 4.2858,-8.499 7.4562,-11.6695 1.3991,-1.399 2.5438,-3.2392 2.5438,-4.0892 0,-0.85 0.4362,-1.5455 0.9693,-1.5455 0.5331,0 2.6706,-2.551 4.75,-5.6689 2.0794,-3.1179 4.2307,-6.3409 4.7807,-7.1623 0.55,-0.8213 1.675,-2.2431 2.5,-3.1596 0.825,-0.9165 2.4,-2.7714 3.5,-4.1219 7.7982,-9.5745 12.3383,-14.8093 15.1968,-17.5221 1.8168,-1.7242 3.3032,-3.4307 3.3032,-3.7922 0,-0.7219 1.7719,-2.9944 3.7979,-4.8709 0.7138,-0.6611 1.8388,-1.7879 2.5,-2.5039 0.6612,-0.716 4.0146,-4.2727 7.4521,-7.9038 3.4375,-3.631 6.25,-6.9524 6.25,-7.3808 0,-0.4283 0.9,-1.0644 2,-1.4136 1.1,-0.3491 2,-1.2794 2,-2.0674 0,-0.7879 0.3375,-1.4407 0.75,-1.4507 0.4125,-0.01 3.5888,-2.71 7.0584,-6 3.4696,-3.29 6.5651,-5.9819 6.8788,-5.9819 0.5095,0 6.1614,-4.6437 10.3967,-8.5421 0.8711,-0.8018 2.0389,-1.4579 2.595,-1.4579 0.5561,0 1.8256,-0.9 2.8211,-2 0.9955,-1.1 2.3601,-2 3.0325,-2 1.592,0 3.9505,-2.8503 3.0793,-3.7215 -0.3702,-0.3702 -2.2785,-0.6276 -4.2406,-0.572 -3.4673,0.098 -3.5521,0.012 -3.0168,-3.0527 1.397,-8.0006 1.9671,-10.2418 2.9036,-11.4157 0.5536,-0.694 1.7346,-2.719 2.6243,-4.5 1.4959,-2.9943 1.9377,-3.2128 5.8694,-2.9019 3.7608,0.2973 4.1776,0.1241 3.6102,-1.5 -0.3527,-1.0099 -1.1575,-2.2862 -1.7884,-2.8362 -2.1357,-1.8621 -5.5735,-7.3001 -5.5735,-8.8164 0,-0.9821 1.4077,-1.7456 4.0375,-2.1899 3.5629,-0.6019 3.9579,-0.9355 3.3608,-2.8379 -0.3722,-1.1857 -1.9593,-3.4738 -3.5269,-5.0848 -1.5677,-1.611 -3.1401,-3.861 -3.4944,-5 -0.3542,-1.139 -1.9339,-3.7107 -3.5105,-5.7149 -1.5766,-2.0041 -2.8665,-4.0615 -2.8665,-4.5718 0,-0.5104 -1.3375,-2.6956 -2.9722,-4.8561 -1.6347,-2.1605 -2.9847,-4.4207 -3,-5.0226 -0.015,-0.602 -1.1644,-2.402 -2.5536,-4 -1.3893,-1.5981 -2.788,-3.9181 -3.1085,-5.1556 -0.3204,-1.2375 -0.9115,-2.25 -1.3136,-2.25 -0.4021,0 -1.2581,-1.0125 -1.9022,-2.25 -0.6441,-1.2375 -2.0716,-3.6 -3.1722,-5.25 -1.1005,-1.65 -2.2732,-3.7875 -2.606,-4.75 -0.3327,-0.9625 -1.2275,-1.75 -1.9883,-1.75 -0.7609,0 -1.3834,-0.6839 -1.3834,-1.5198 0,-0.836 -1.1252,-3.3023 -2.5004,-5.4808 -1.3752,-2.1785 -3.2377,-5.8036 -4.1388,-8.0557 -1.5644,-3.9098 -1.5483,-4.2157 0.3564,-6.7692 1.0971,-1.471 2.7464,-2.8222 3.665,-3.0028 1.7629,-0.3466 5.5281,3.4355 5.5845,5.6097 0.018,0.7048 0.7083,1.5404 1.5333,1.857 0.825,0.3166 1.5,1.1973 1.5,1.9572 0,1.2738 1.6313,3.6588 4.75,6.9446 0.6875,0.7243 1.25,1.6272 1.25,2.0064 0,0.3792 1.2375,2.1807 2.75,4.0034 1.5125,1.8227 4.325,5.4301 6.25,8.0163 1.925,2.5862 4.7375,5.928 6.25,7.4262 1.5125,1.4982 2.75,3.0213 2.75,3.3847 0,0.3633 5.8491,6.5097 12.998,13.6585 14.5181,14.5182 14.1684,13.5071 7.152,20.6752 -1.8425,1.8824 -3.1925,3.505 -3,3.6058 5.9636,3.1238 6.3231,3.589 7.6177,9.8587 0.7183,3.4786 1.6343,7.8996 2.0355,9.8246 0.6518,3.1276 1.1534,3.5707 4.7131,4.1644 2.191,0.3654 5.7837,1.1868 7.9837,1.8254 2.2,0.6386 5.8,1.4891 8,1.8901 5.676,1.0345 10.482,3.3519 10.606,5.1142 0.2673,3.7988 -0.4217,7.6186 -1.7046,9.4502 -0.7708,1.1004 -1.4014,2.8423 -1.4014,3.8708 0,1.659 -0.5924,1.808 -5.25,1.3205 -10.6411,-1.1137 -20.3909,-2.4569 -25.6365,-3.5318 -6.2979,-1.2905 -15.1135,-1.461 -15.1135,-0.2923 0,0.4463 0.9,1.7774 2,2.9582 1.1,1.1807 2,2.5604 2,3.0661 0,0.5056 0.7362,1.5303 1.636,2.2771 0.8998,0.7468 2.7012,3.0451 4.003,5.1074 1.3019,2.0623 3.9646,5.3946 5.9171,7.4052 4.0371,4.157 3.915,5.8925 -0.4826,6.8584 -1.6839,0.3698 -3.4018,1.2337 -3.8175,1.9197 -1.433,2.3642 -4.2324,2.6201 -6.2787,0.5738 -1.0875,-1.0876 -2.4273,-1.9774 -2.9773,-1.9774 -0.55,0 -1,-0.45 -1,-1 0,-0.55 -0.675,-1 -1.5,-1 -0.825,0 -1.5,-0.675 -1.5,-1.5 0,-0.825 -0.8151,-1.5 -1.8114,-1.5 -0.9963,0 -2.7907,-0.9123 -3.9876,-2.0273 l -2.176,-2.0273 0.5171,6.2773 c 0.2845,3.4525 0.6973,8.3269 0.9173,10.832 0.4696,5.3453 0.043,6.1763 -3.9594,7.7045 -7.3561,2.8092 -12.7025,1.1874 -14.5511,-4.414 -1.3125,-3.977 -3.2911,-4.2788 -5.5409,-0.8452 -0.9009,1.375 -2.0968,2.5 -2.6576,2.5 -0.5608,0 -3.7419,2.5875 -7.0692,5.75 -3.3273,3.1625 -7.3513,6.9875 -8.9423,8.5 -1.591,1.5125 -3.0941,2.75 -3.3402,2.75 -0.5068,0 -15.3987,15.0645 -15.3987,15.5772 0,0.1825 -1.0125,1.4003 -2.25,2.706 -1.2375,1.3057 -3.6819,4.1387 -5.432,6.2955 -1.7501,2.1567 -4.3436,5.3435 -5.7635,7.0817 -4.3462,5.3208 -9.5043,12.7174 -10.5408,15.1153 -0.541,1.2516 -1.6654,2.5372 -2.4987,2.8569 -0.8332,0.3198 -1.515,1.2224 -1.515,2.0058 0,0.7834 -0.675,1.6834 -1.5,2 -0.825,0.3166 -1.5,1.1183 -1.5,1.7815 0,1.1601 -5.1417,6.673 -6.0547,6.4918 -0.2449,-0.049 -2.1328,-1.0278 -4.1953,-2.176 z m -652.422,-35.2357 c 0,-3.85 0.1852,-5.3024 0.4017,-3.2277 0.2165,2.0748 0.2128,5.2248 -0.01,7 -0.2209,1.7753 -0.398,0.078 -0.3936,-3.7723 z M 291.44409,559.83099 c -0.0349,-0.9167 -0.58662,-1.8411 -1.22612,-2.0543 -0.84409,-0.2813 -0.43302,-4.7635 1.5,-16.3556 1.4645,-8.7824 2.66273,-18.3205 2.66273,-21.1957 0,-4.9096 -0.15215,-5.2278 -2.5,-5.2278 -1.78624,0 -2.5,0.5405 -2.5,1.893 0,2.0755 -1.85325,3.107 -5.58179,3.107 -1.70535,0 -2.41821,0.5577 -2.41821,1.8916 0,1.1837 -0.93557,2.1264 -2.5,2.5191 -1.375,0.3451 -2.5,1.2376 -2.5,1.9834 0,0.7458 -1.35,1.6259 -3,1.9559 -2.38284,0.4766 -3,1.1195 -3,3.125 0,2.0846 -0.47968,2.5274 -2.75,2.5387 -4.71111,0.023 -7.25,1.11 -7.25,3.103 0,1.4259 -0.72859,1.8833 -3,1.8833 -2.5098,0 -3,-0.3968 -3,-2.4285 0,-1.3358 -0.675,-3.1036 -1.5,-3.9286 -0.825,-0.825 -1.5,-2.834 -1.5,-4.4644 0,-1.6759 -0.63435,-3.2079 -1.45932,-3.5245 -0.87037,-0.334 -1.73073,-2.6059 -2.13181,-5.6294 -0.36987,-2.7882 -1.04238,-5.2981 -1.49447,-5.5775 -0.45209,-0.2794 -1.1259,-3.1943 -1.49736,-6.4775 -1.02449,-9.0554 -2.50594,-7.9057 -3.90495,3.0304 -0.31662,2.475 -0.83631,6.525 -1.15487,9 -0.31856,2.475 -1.20425,4.8599 -1.96821,5.2997 -0.76395,0.4399 -1.38901,1.4524 -1.38901,2.25 0,2.2074 -3.69251,1.7342 -4.28975,-0.5497 -0.28766,-1.1 -0.93888,-2 -1.44717,-2 -0.52441,0 -0.35765,2.7034 0.38554,6.25 0.72034,3.4375 1.31908,7.7931 1.33054,9.679 0.0235,3.867 2.00819,10.071 3.22173,10.071 1.5731,0 0.76287,1.8768 -1.06001,2.4553 -2.88418,0.9154 -5.14088,-0.4288 -5.14088,-3.0623 0,-1.3161 -0.45,-2.393 -1,-2.393 -0.55,0 -1,-1.125 -1,-2.5 0,-1.375 -0.51289,-2.5 -1.13976,-2.5 -1.51554,0 -3.78864,-3.0771 -3.82844,-5.1826 -0.0175,-0.9254 -0.93306,-1.9686 -2.03459,-2.3183 -1.33199,-0.4227 -2.37656,-2.12 -3.11872,-5.0673 -0.64582,-2.5648 -1.69781,-4.4318 -2.4972,-4.4318 -0.7978,0 -1.38129,-1.0311 -1.38129,-2.4409 0,-1.3426 -0.45,-2.7191 -1,-3.0591 -0.55,-0.3399 -1,-1.6683 -1,-2.952 0,-1.2837 -0.675,-2.593 -1.5,-2.9096 -0.825,-0.3166 -1.5,-1.4632 -1.5,-2.548 0,-1.0848 -0.45,-2.2504 -1,-2.5904 -0.55,-0.3399 -1,-1.4703 -1,-2.5119 0,-2.8779 -2.15301,-6.9881 -3.66052,-6.9881 -0.73671,0 -1.33948,-1.0248 -1.33948,-2.2775 0,-1.2526 -0.66056,-3.2205 -1.46791,-4.3732 -0.80735,-1.1526 -1.76042,-3.925 -2.11794,-6.1608 -0.35751,-2.2357 -1.27195,-4.3037 -2.03209,-4.5953 -0.76013,-0.2917 -1.38206,-1.2933 -1.38206,-2.2258 0,-2.1631 -3.15447,-9.3674 -4.10163,-9.3674 -0.39421,0 -1.29576,-3.2625 -2.00345,-7.25 -0.70769,-3.9875 -1.84114,-7.8122 -2.51878,-8.4994 -2.07477,-2.1039 -2.85825,-11.8038 -2.72609,-33.7506 0.1275,-21.1743 1.76353,-43.4959 3.2595,-44.4719 0.75268,-0.491 1.12222,-4.362 2.74731,-28.7781 0.33861,-5.0875 0.93927,-9.25 1.33479,-9.25 0.39553,0 1.01532,-2.8125 1.37731,-6.25 0.362,-3.4375 1.09043,-9.625 1.61874,-13.75 0.52831,-4.125 1.44156,-12 2.02945,-17.5 0.58788,-5.5 1.49701,-11.575 2.02029,-13.5 0.52327,-1.925 0.95926,-6.2 0.96885,-9.5 0.01,-3.3 0.68177,-8.475 1.49371,-11.5 0.81194,-3.025 1.4816,-7.1875 1.48813,-9.25 0.008,-2.5771 0.45851,-3.75 1.43991,-3.75 1.00012,0 1.61339,-1.723 2.04654,-5.75 0.34018,-3.1625 1.08309,-7.55 1.65093,-9.75 0.56783,-2.2 2.44371,-11.65 4.16861,-21 1.7249,-9.35 3.48936,-17.14996 3.92103,-17.33329 0.43167,-0.18334 0.78485,-1.42084 0.78485,-2.75 0,-1.32917 0.39188,-2.41667 0.87083,-2.41667 0.47896,0 1.17631,-2.7 1.54966,-6 0.37335,-3.3 1.10648,-6 1.62917,-6 0.52269,0 0.94457,-0.7875 0.93752,-1.75 -0.0181,-2.47789 3.07983,-16.21398 4.39794,-19.5 0.60671,-1.5125 1.44325,-2.75 1.85899,-2.75 0.41574,0 0.75589,-1.0882 0.75589,-2.41821 0,-4.50047 0.98934,-5.58179 5.10699,-5.58179 2.14115,0 3.89301,0.45 3.89301,1 0,0.55 1.36412,1 3.03138,1 1.96793,0 3.26386,0.61393 3.69405,1.75 0.85045,2.24592 2.83243,4.25 4.20314,4.25 0.58929,0 1.07143,0.62391 1.07143,1.38646 0,0.87656 1.65494,1.63463 4.5,2.06127 2.93547,0.4402 4.5,1.17502 4.5,2.11354 0,0.7913 0.675,1.43873 1.5,1.43873 0.825,0 1.5,0.41425 1.5,0.92054 0,0.5063 1.35,1.21706 3,1.57946 2.06324,0.45316 3,1.25861 3,2.57946 0,1.17444 0.6912,1.92054 1.77924,1.92054 0.97858,0 2.42792,0.9 3.22076,2 0.79284,1.1 2.24218,2 3.22076,2 0.97858,0 1.77924,0.62622 1.77924,1.39159 0,0.76538 1.125,1.67395 2.5,2.01905 1.375,0.34511 2.5,1.06889 2.5,1.60841 0,0.53952 0.9,0.98095 2,0.98095 1.11111,0 2,0.66667 2,1.5 0,0.825 0.675,1.5 1.5,1.5 0.825,0 1.5,0.45 1.5,1 0,0.55 0.675,1 1.5,1 0.825,0 1.5,0.40122 1.5,0.89159 0,0.49038 1.125,1.17395 2.5,1.51905 1.66165,0.41705 2.5,1.32315 2.5,2.70203 0,1.23357 0.81078,2.28659 2,2.59758 1.1,0.28766 2,1.32238 2,2.29939 0,0.97701 0.675,2.0354 1.5,2.35199 0.825,0.31658 1.5,1.46777 1.5,2.5582 0,1.09042 0.72922,4.59205 1.62048,7.78133 1.85835,6.6501 3.26071,14.3823 4.04424,22.2988 0.29939,3.025 0.93212,5.7422 1.40605,6.0382 0.47393,0.296 1.33824,4.7448 1.92067,9.8863 0.58243,5.1414 1.3001,9.7382 1.59481,10.2151 0.29472,0.4769 0.96395,5.0049 1.48719,10.0624 0.52323,5.0574 1.31921,9.4434 1.76884,9.7467 0.91567,0.6175 3.24017,14.4961 3.90271,23.3013 0.23796,3.1625 0.77743,5.75 1.19882,5.75 0.844,0 2.37461,11.049 4.08664,29.5 0.6124,6.6 1.74111,17.625 2.50825,24.5 0.76714,6.875 1.93161,19.1375 2.58772,27.25 0.78987,9.7665 1.58183,14.75 2.344,14.75 1.08816,0 3.60046,39.2708 3.54867,55.4708 -0.0298,9.3108 -1.97721,16.3019 -4.7338,16.9938 -1.42481,0.3576 -2.28529,1.3245 -2.28529,2.5681 0,1.0969 -0.45,2.8884 -1,3.9809 -0.55,1.0925 -1.45,2.8803 -2,3.9729 -0.55,1.0925 -1,2.6522 -1,3.466 0,1.5497 -3.06415,8.6845 -4.1003,9.5475 -1.29032,1.0748 -2.8997,4.9754 -2.8997,7.0279 0,1.3184 -0.77894,2.3631 -2,2.6824 -1.27635,0.3338 -2,1.364 -2,2.8473 0,1.2784 -0.39808,2.5704 -0.88461,2.8711 -0.48654,0.3007 -1.18911,2.5773 -1.56128,5.059 -0.44167,2.9453 -1.17628,4.5123 -2.11538,4.5123 -0.7913,0 -1.43873,0.9142 -1.43873,2.0314 0,1.1173 -0.675,2.2904 -1.5,2.607 -0.825,0.3166 -1.5,1.6666 -1.5,3 0,1.3334 -0.675,2.6834 -1.5,3 -0.825,0.3166 -1.5,1.6203 -1.5,2.8972 0,1.2769 -0.675,2.9966 -1.5,3.8216 -0.825,0.825 -1.5,3.1071 -1.5,5.0714 0,2.8328 -0.39004,3.5714 -1.88606,3.5714 -1.76603,0 -3.33376,2.3681 -6.03082,9.1096 -0.63826,1.5954 -0.97743,1.8361 -1.01973,0.7238 z m -66.98361,-124.8334 c 0.64924,-3.3 1.49981,-6 1.89017,-6 0.39036,0 1.28232,-3.2625 1.98214,-7.25 0.69982,-3.9875 1.8569,-7.925 2.57129,-8.75 0.71439,-0.825 1.62034,-3.6733 2.01322,-6.3295 0.39289,-2.6562 1.27981,-5.0465 1.97093,-5.3117 0.69113,-0.2652 1.53999,-2.2544 1.88635,-4.4205 0.34637,-2.166 1.07444,-3.9383 1.61794,-3.9383 0.5435,0 0.98432,-1.0125 0.97961,-2.25 -0.009,-2.4874 4.52193,-23.5134 6.08828,-28.25 2.56519,-7.7569 1.70138,-31.5263 -2.09939,-57.7685 -0.53918,-3.7227 -0.98032,-8.4507 -0.98032,-10.5066 0,-2.0559 -0.43708,-5.2621 -0.97128,-7.1247 -0.53421,-1.8627 -1.27509,-6.8097 -1.6464,-10.9934 -0.37132,-4.1837 -1.04743,-7.851 -1.50248,-8.1496 -0.45505,-0.2985 -1.12879,-3.786 -1.4972,-7.75 -0.36841,-3.9639 -1.05522,-7.2072 -1.52624,-7.2072 -0.47102,0 -0.8564,-1.0984 -0.8564,-2.4409 0,-1.3426 -0.45,-2.7191 -1,-3.0591 -0.55,-0.3399 -1,-3.0371 -1,-5.9939 0,-2.9567 -0.46993,-6.6119 -1.04429,-8.1226 -0.57436,-1.5106 -1.4905,-6.3774 -2.03587,-10.8151 -1.69795,-13.816 -2.13001,-16.04746 -3.24369,-16.75238 -1.86592,-1.18106 -2.67494,0.15937 -2.71177,4.49308 -0.0196,2.305 -0.68756,6.8909 -1.48438,10.1909 -0.79682,3.3 -1.45579,7.425 -1.46438,9.1667 -0.009,1.7417 -0.46533,3.3167 -1.01497,3.5 -0.90842,0.303 -2.24754,10.0747 -3.643,26.5833 -0.29057,3.4375 -0.88073,6.25 -1.31147,6.25 -0.82291,0 -1.46579,6.3934 -2.96636,29.5 -0.50005,7.7 -1.45582,17.6 -2.12393,22 -1.3074,8.6102 -2.02833,113.7569 -0.78848,114.9994 0.36708,0.3678 2.50458,0.9152 4.75,1.2164 3.02285,0.4054 4.08259,1.0044 4.08259,2.3075 0,1.0433 1.01803,2.0154 2.5,2.3874 1.375,0.3451 2.5,1.0689 2.5,1.6084 0,2.7877 1.03556,0.2886 2.07978,-5.0191 z m -131.881793,111.25 c -0.61717,-2.0625 -1.39975,-6.785 -1.73906,-10.4945 -0.38373,-4.1949 -1.14513,-7.0401 -2.01418,-7.5264 -1.1765,-0.6584 -4.34925,-18.6381 -4.45199,-25.2291 -0.0129,-0.825 -0.42119,-2.1282 -0.9074,-2.8961 -0.71265,-1.1255 -1.38816,-0.892 -3.48469,1.2046 -1.43037,1.4303 -2.60067,3.4945 -2.60067,4.5871 0,1.0925 -0.45,2.2645 -1,2.6044 -0.55,0.34 -1,1.4369 -1,2.4377 0,1.0791 -1.22104,2.3255 -3,3.0623 -1.65,0.6835 -3,1.8692 -3,2.6349 0,0.7658 -0.41715,2.1737 -0.927,3.1287 -0.50985,0.955 -1.17073,2.5239 -1.46862,3.4864 -0.29788,0.9625 -1.45573,1.75 -2.573,1.75 -1.48704,0 -2.03138,-0.6541 -2.03138,-2.4409 0,-1.3426 -0.45,-2.7191 -1,-3.0591 -0.55,-0.3399 -1,-1.4263 -1,-2.4143 0,-1.1696 -1.13392,-2.1201 -3.25,-2.7244 -2.2263,-0.6357 -3.35059,-1.6257 -3.56933,-3.143 -0.19706,-1.3668 -1.2501,-2.4486 -2.75,-2.825 -1.72661,-0.4334 -2.43067,-1.3028 -2.43067,-3.0017 0,-1.4092 -0.58848,-2.3916 -1.43261,-2.3916 -0.78794,0 -1.71826,-0.9 -2.06739,-2 -0.34913,-1.1 -1.05445,-2 -1.56739,-2 -0.51293,0 -0.93261,-0.675 -0.93261,-1.5 0,-0.9214 -0.9364,-1.5 -2.4276,-1.5 l -2.42759,0 -0.32241,20.9521 c -0.20853,13.5518 -0.71281,21.3417 -1.42776,22.0553 -1.68185,1.6788 -6.39464,0.1335 -6.39464,-2.0967 0,-1.1634 -0.94678,-2.1102 -2.5,-2.5 -1.375,-0.3451 -2.5,-1.0287 -2.5,-1.5191 0,-0.4903 -0.62252,-0.8916 -1.38337,-0.8916 -0.76085,0 -1.65471,-1.0125 -1.98634,-2.25 -0.33164,-1.2375 -0.60913,-26.6427 -0.61664,-56.456 l -0.0136,-54.206 -2.81541,-4.794 c -2.60743,-4.4398 -6.34695,-12.0407 -8.2623905,-16.794 -0.44327,-1.1 -1.83778,-5.375 -3.09891,-9.5 -1.26114,-4.125 -2.66693,-7.7698 -3.12399,-8.0997 -1.6338,-1.179 -2.92868996,-12.6008 -2.76626996,-24.4003 0.1945,-14.1296 1.84607996,-32.7307 2.97233996,-33.4762 0.4352,-0.2881 1.0836,-5.2488 1.44088,-11.0238 0.35728,-5.775 1.36021,-12.75 2.22873,-15.5 0.86853,-2.75 2.19325,-10.175 2.94383,-16.5 0.7505805,-6.325 1.8560205,-13.525 2.4565405,-16 0.60051,-2.475 1.60639,-7.9875 2.2353,-12.25 0.6289,-4.2625 1.51379,-7.75 1.9664,-7.75 0.45262,0 0.82295,-1.125 0.82295,-2.5 0,-1.5555 0.56667,-2.5 1.5,-2.5 1.13701,0 1.5,-1.2326 1.5,-5.0936 0,-4.1812 0.34379,-5.1835 1.9193,-5.5955 1.45026,-0.3793 2.08916,-1.7616 2.61433,-5.6564 0.38227,-2.835 0.97744,-5.6045 1.3226,-6.1545 1.31655,-2.0978 3.11491,-8.1042 3.14377,-10.49996 0.0319,-2.65056 2.16297,-9.4963 3.31466,-10.648 0.37694,-0.37693 0.68534,-1.46219 0.68534,-2.41168 0,-0.94949 0.57663,-1.94762 1.28141,-2.21806 0.70477,-0.27045 1.87136,-2.7936 2.59241,-5.60699 0.72105,-2.8134 1.71942,-5.11527 2.21859,-5.11527 0.49918,0 0.90759,-0.675 0.90759,-1.5 0,-0.825 0.35033,-1.5 0.77851,-1.5 0.42818,0 1.58025,-3.11224 2.56014,-6.91609 0.97989,-3.80385 2.33999,-7.13035 3.02243,-7.39223 0.68245,-0.26188 2.09858,-2.99964 3.14695,-6.08391 1.04838,-3.08427 2.2234,-5.60777 2.61116,-5.60777 0.38776,0 1.00317,-1.76475 1.36757,-3.92166 0.36441,-2.15692 1.30397,-4.16779 2.0879,-4.46862 0.78389,-0.30082 1.42529,-1.58673 1.42529,-2.85758 0,-1.27084 0.9,-2.9593 2,-3.75214 1.1,-0.79284 2,-2.46718 2,-3.72076 0,-1.25358 0.45,-2.27924 1,-2.27924 0.55,0 1,-0.69674 1,-1.54831 0,-0.85156 0.9,-3.41109 2,-5.68783 1.1,-2.27673 2,-4.72618 2,-5.44322 0,-0.71703 0.9,-1.86575 2,-2.55271 1.1,-0.68696 2,-2.04078 2,-3.00848 0,-0.9677 0.45,-1.75945 1,-1.75945 0.55,0 1,-0.9 1,-2 0,-1.1 0.40598,-2 0.90217,-2 0.4962,0 1.37279,-1.35 1.94799,-3 0.57519,-1.65 1.51921,-2.999995 2.09782,-2.999995 0.57861,0 1.05202,-0.675 1.05202,-1.5 0,-0.825 0.45,-1.5 1,-1.5 0.55,0 1,0.62622 1,1.39159 0,0.76538 1.125,1.67395 2.5,2.01905 1.375,0.34511 2.5,1.293885 2.5,2.108405 0,0.81452 0.48214,1.48095 1.07143,1.48095 0.58928,0 1.73653,0.6651 2.54944,1.47801 1.95869,1.9587 0.82505,8.21298 -1.73724,9.58427 -1.036,0.55445 -1.88363,1.57754 -1.88363,2.27354 0,2.08179 -2.4227,6.64799 -3.53168,6.65638 -0.56743,0.004 -1.64184,2.07426 -2.38758,4.59992 -0.74574,2.52567 -2.41898,5.65522 -3.71832,6.95455 -1.29933,1.29933 -2.36242,3.297 -2.36242,4.43926 0,1.14226 -0.675,2.33586 -1.5,2.65244 -0.825,0.31659 -1.5,1.39714 -1.5,2.40123 0,1.00409 -0.81295,2.08365 -1.80656,2.399 -1.26219,0.40061 -2.92036,3.96155 -5.50284,11.81739 -2.03295,6.18421 -3.695,11.80651 -3.69344,12.49401 0.002,0.6875 -0.61591,1.25 -1.37216,1.25 -0.75625,0 -1.64219,1.33594 -1.96875,2.96875 -0.32656,1.63281 -1.43935,3.81435 -2.47286,4.84786 -1.03352,1.03352 -2.1779,3.74758 -2.54307,6.03125 -0.36518,2.28368 -1.08106,4.15214 -1.59086,4.15214 -0.5098,0 -1.23393,2.0473 -1.60916,4.54954 -0.37524,2.50225 -1.30281,5.17011 -2.06127,5.92858 -0.75847,0.75846 -1.37903,1.80973 -1.37903,2.33614 0,0.52642 -0.67223,2.24606 -1.49384,3.82143 -0.82161,1.57537 -1.49661,3.85127 -1.5,5.05757 -0.003,1.2063 -0.85227,2.786 -1.8864,3.5103 -1.17676,0.8242 -2.07867,2.9968 -2.41061,5.8067 -0.87225,7.3839 -2.44997,13.4033 -3.61484,13.7916 -0.60187,0.2007 -1.09431,1.0023 -1.09431,1.7815 0,0.7791 -0.44143,1.4166 -0.98095,1.4166 -0.53952,0 -1.28381,1.2375 -1.65397,2.75 -0.37016,1.5125 -0.97282,2.975 -1.33925,3.25 -0.36642,0.275 -1.46028,6.7042 -2.43079,14.287 -1.38988,10.8595 -1.86988,24.1308 -2.26052,62.5 -0.48922,48.0517 -0.0273,65.213 1.75525,65.213 0.50063,0 0.91023,-0.8642 0.91023,-1.9205 0,-1.3209 0.93676,-2.1263 3,-2.5795 1.65,-0.3624 3,-1.2981 3,-2.0794 0,-0.8486 1.00659,-1.4206 2.5,-1.4206 1.375,0 2.5,-0.45 2.5,-1 0,-0.55 0.73472,-1 1.6327,-1 1.88467,0 5.3673,-3.668 5.3673,-5.653 0,-0.7408 0.675,-1.347 1.5,-1.347 0.825,0 1.5,-0.4142 1.5,-0.9205 0,-0.5063 1.35,-1.2171 3,-1.5795 1.65,-0.3624 3,-1.2981 3,-2.0794 0,-0.7813 0.675,-1.4206 1.5,-1.4206 0.825,0 1.5,-0.45 1.5,-1 0,-0.55 0.6289,-1 1.39756,-1 1.09868,0 1.53119,-2.9405 2.02247,-13.75 0.3437,-7.5625 1.06838,-19.6 1.6104,-26.75 0.54201,-7.15 1.18682,-19.3 1.43291,-27 0.24608,-7.7 0.90372,-19.625 1.46141,-26.5 0.5577,-6.875 1.04737,-25.55 1.08817,-41.5 0.0408,-15.95 0.48645,-31.02496 0.99033,-33.49996 0.50388,-2.475 1.23003,-12.375 1.61366,-22 0.59343,-14.88849 0.96001,-17.7305 2.45645,-19.04457 0.96742,-0.84952 2.07268,-3.21699 2.45615,-5.26105 0.38347,-2.04406 1.0962,-3.96306 1.58385,-4.26444 0.48765,-0.30139 0.88664,-1.64642 0.88664,-2.98896 0,-1.34254 0.40114,-2.44098 0.89142,-2.44098 0.49028,0 1.64629,-1.88661 2.56892,-4.19248 0.92262,-2.30586 2.54648,-4.94614 3.60858,-5.86729 1.06209,-0.92115 1.93108,-2.60421 1.93108,-3.74014 0,-1.18706 0.85048,-2.33525 2,-2.70009 1.1,-0.34913 2,-1.47413 2,-2.5 0,-1.02587 0.9,-2.15087 2,-2.5 2.97569,-0.94445 6,0.36547 6,2.59877 0,1.0802 0.63439,2.20744 1.40975,2.50497 0.77537,0.29754 1.683943,1.63341 2.019053,2.96862 0.33512,1.3352 1.05073,2.42764 1.59025,2.42764 0.53952,0 0.98095,0.9 0.98095,2 0,1.33333 0.66667,2 2,2 1.46667,0 2,0.66667 2,2.5 0,1.375 0.44143,2.5 0.98095,2.5 0.53952,0 1.2633,1.125 1.60841,2.5 0.3451,1.375 1.00828,2.5 1.47373,2.5 0.46546,0 1.14176,1.575 1.50289,3.5 0.36113,1.925 1.05652,3.5 1.54531,3.5 0.48879,0 0.88871,0.79319 0.88871,1.76265 0,0.96946 1.125,2.60749 2.5,3.64007 1.375,1.03259 2.5,2.48939 2.5,3.23735 0,0.74796 0.3634,1.35993 0.80755,1.35993 0.44416,0 1.64677,1.90212 2.67248,4.22694 1.02571,2.32482 2.68731,5.10968 3.69245,6.18857 1.00513,1.07889 1.82752,2.77676 1.82752,3.77305 0,0.99629 0.40114,1.81144 0.89142,1.81144 0.49028,0 1.61164,1.8 2.4919,4 0.88027,2.2 2.05413,4 2.60858,4 0.55446,0 1.0081,1.125 1.0081,2.5 0,1.375 0.3375,2.50285 0.75,2.50632 1.00599,0.008 4.25,5.79023 4.25,7.57472 0,0.78043 0.675,1.41896 1.5,1.41896 0.93333,0 1.5,0.94444 1.5,2.5 0,1.375 0.45,2.5 1,2.5 0.55,0 1,1.30186 1,2.89301 0,1.64908 0.64497,3.14051 1.5,3.46862 0.825,0.31658 1.5,1.71473 1.5,3.10703 0,1.3922 0.40122,2.5313 0.89159,2.5313 0.49038,0 1.17395,1.125 1.51905,2.5 0.34511,1.375 1.29389,2.5 2.10841,2.5 0.81452,0 1.48095,0.7029 1.48095,1.562 0,0.859 1.08794,3.8965 2.41764,6.75 1.32971,2.8534 2.97594,7.1005 3.65829,9.438 0.68236,2.3375 1.61942,4.25 2.08236,4.25 0.46294,0 0.84171,0.9142 0.84171,2.0314 0,1.1173 0.6534,2.2821 1.45201,2.5886 0.80241,0.3079 1.74983,2.5432 2.11771,4.9964 0.42595,2.8404 1.34364,4.8021 2.54799,5.4466 1.03526,0.5541 1.88229,1.8016 1.88229,2.7722 0,0.9707 0.38495,2.1923 0.85545,2.7148 1.06177,1.1791 4.14455,10.7654 4.14455,12.8879 0,0.8592 0.41383,1.5621 0.91963,1.5621 0.5058,0 1.65877,2.2254 2.56215,4.9452 1.29845,3.9092 1.42147,5.7422 0.58728,8.75 -0.58038,2.0927 -1.34804,7.2923 -1.70592,11.5548 -0.35788,4.2625 -0.98873,7.75 -1.40188,7.75 -0.41315,0 -0.97319,1.6875 -1.24453,3.75 -0.27134,2.0625 -1.44965,8.7 -2.61847,14.75 -1.16882,6.05 -2.41329,13.025 -2.76547,15.5 -0.35219,2.475 -1.00188,4.7397 -1.44376,5.0326 -0.44188,0.2929 -1.32278,3.8929 -1.95755,8 -0.63477,4.1071 -1.45627,7.6924 -1.82555,7.9674 -0.85364,0.6357 -2.67108,8.4223 -4.14216,17.7465 -0.6288,3.9855 -1.55289,7.4996 -2.05352,7.809 -0.50064,0.3094 -0.91025,2.2811 -0.91025,4.3814 0,2.1004 -0.62507,5.3363 -1.38905,7.191 -0.76398,1.8547 -1.70621,5.7346 -2.09384,8.6221 -0.46054,3.4306 -1.17874,5.25 -2.0724,5.25 -1.31197,0 -2.67249,3.6941 -4.07132,11.0545 -0.36015,1.8951 -0.99938,3.8955 -1.42052,4.4455 -0.42113,0.55 -1.08391,3.1375 -1.47283,5.75 -0.38892,2.6125 -1.08564,4.75 -1.54827,4.75 -0.46263,0 -1.1556,1.6762 -1.53994,3.7249 -0.38434,2.0488 -1.30473,4.3309 -2.04531,5.0715 -0.74059,0.7406 -1.34652,2.8628 -1.34652,4.716 0,1.8533 -0.45,3.6477 -1,3.9876 -0.55,0.34 -1,1.454 -1,2.4757 0,1.0217 -0.48907,2.0207 -1.08682,2.2199 -1.03681,0.3456 -4.54734,8.7925 -5.63325,13.5544 -0.2822,1.2375 -0.86904,2.25 -1.3041,2.25 -0.43505,0 -1.36766,2.25 -2.07247,5 -0.7048,2.75 -1.64639,5 -2.09241,5 -0.44602,0 -0.82526,1.0125 -0.84275,2.25 -0.0175,1.2375 -0.6925,3.1235 -1.5,4.1912 -0.80751,1.0676 -1.4682,2.9801 -1.4682,4.25 0,1.3856 -0.59978,2.3088 -1.5,2.3088 -0.83333,0 -1.5,0.8889 -1.5,2 0,1.1111 -0.66667,2 -1.5,2 -0.92366,0 -1.5,0.9379 -1.5,2.441 0,1.3426 -0.45,2.7191 -1,3.059 -0.55,0.34 -1,1.4364 -1,2.4366 0,1.0002 -0.63982,2.3496 -1.42183,2.9986 -0.782,0.649 -1.72415,2.9694 -2.09366,5.1565 -0.77932,4.6128 -3.21524,9.9083 -4.55775,9.9083 -0.50972,0 -0.92676,0.4689 -0.92676,1.0418 0,0.573 -0.9,2.0079 -2,3.1886 -1.1,1.1807 -2,2.8771 -2,3.7696 0,0.8926 -0.83287,2.5169 -1.850833,3.6095 -1.01795,1.0927 -2.16334,3.6525 -2.54531,5.6886 -0.8933,4.7617 -2.97341,4.739 -4.40587,-0.048 z m 2209.802113,-16.25 c -0.825,-0.5331 -2.4804,-0.9762 -3.6786,-0.9847 -1.1982,-0.01 -2.9406,-0.7773 -3.872,-1.7087 -1.5912,-1.5912 -1.7681,-1.5912 -2.9316,0 -1.7148,2.3451 -2.9272,2.1247 -5.1277,-0.9323 -1.0396,-1.4441 -2.9026,-3.8716 -4.1401,-5.3943 -1.2375,-1.5228 -2.25,-3.8611 -2.25,-5.1962 0,-3.3365 -2.8495,-11.4627 -5.7099,-16.2838 -4.741,-7.9905 -7.3756,-14.4458 -7.8249,-19.1728 -0.2523,-2.6549 -1.1695,-14.9522 -2.0381,-27.3272 -0.8686,-12.375 -1.7391,-24.1825 -1.9345,-26.239 -0.5255,-5.5312 -2.6793,-10.7579 -4.4435,-10.7832 -0.852,-0.012 -2.6741,-0.9022 -4.0491,-1.9778 -1.375,-1.0755 -3.0574,-1.9655 -3.7386,-1.9777 -0.6812,-0.012 -2.1289,-0.7846 -3.2172,-1.7164 -1.3395,-1.147 -4.0078,-1.7515 -8.2614,-1.8717 -3.6155,-0.1021 -8.6178,-1.0808 -11.7828,-2.3053 -3.025,-1.1703 -6.5125,-2.1281 -7.75,-2.1284 -1.2375,-2e-4 -3.15,-0.9005 -4.25,-2.0005 -1.1,-1.1 -2.45,-2 -3,-2 -0.55,0 -1,-0.9158 -1,-2.0351 0,-1.9816 -2.5974,-6.8537 -4.3027,-8.0707 -0.4669,-0.3333 -1.098,-2.4626 -1.4024,-4.7318 -0.6765,-5.0437 1.6408,-6.6956 4.6023,-3.2808 1.0106,1.1651 2.2346,2.1172 2.7201,2.1157 0.4855,0 2.9077,0.9764 5.3827,2.1732 2.475,1.1968 5.625,2.6006 7,3.1195 1.375,0.5188 3.2814,1.3409 4.2364,1.8267 0.9551,0.4858 2.6666,0.8833 3.8035,0.8833 2.4179,0 8.96,-4.9284 8.9601,-6.75 0,-0.6875 0.5952,-1.25 1.3227,-1.25 0.7276,0 2.2793,-1.9151 3.4483,-4.2558 1.169,-2.3408 3.0188,-5.2148 4.1107,-6.3868 1.0918,-1.172 2.2902,-3.7568 2.663,-5.7441 0.3728,-1.9873 1.0778,-3.6133 1.5666,-3.6133 0.4888,0 0.8887,-1.0699 0.8887,-2.3775 0,-1.3077 0.654,-2.9204 1.4533,-3.5837 1.173,-0.9735 1.991,-0.7077 4.2398,1.3775 1.5326,1.4211 3.0563,2.5837 3.3862,2.5837 0.3298,0 1.1004,1.099 1.7124,2.4422 0.85,1.8655 0.7934,3.1051 -0.2395,5.25 -4.1537,8.6252 -6.5522,14.1165 -6.5522,15.0013 0,0.88 -1.0222,2.3194 -4.9815,7.0143 -0.5602,0.6643 -1.0185,1.6447 -1.0185,2.1786 0,0.5339 -0.5625,1.5794 -1.25,2.3233 -5.4001,5.8432 -5.3521,5.63 -1.646,7.308 5.4928,2.487 11.284,6.1463 11.6994,7.3926 0.2121,0.6363 -0.162,1.8168 -0.8313,2.6234 -1.024,1.2338 -0.7348,1.4663 1.8237,1.4663 5.5949,0 6.2042,0.6939 6.2042,7.0662 0,3.2187 0.4534,9.133 1.0076,13.143 0.5542,4.01 1.4297,13.3658 1.9456,20.7908 1.3218,19.0221 3.6169,33.2927 6.0694,37.7386 1.1413,2.0688 2.6858,4.8864 3.4323,6.2614 0.7465,1.375 2.1476,6.1 3.1136,10.5 1.6344,7.4449 3.6344,11.6305 4.9357,10.3292 0.3035,-0.3035 0.1136,-1.7043 -0.422,-3.113 -0.7335,-1.9293 -0.6183,-2.8563 0.467,-3.757 2.0347,-1.6886 6.4508,1.3049 6.4508,4.3728 0,3.8951 2.2924,6.0596 5.6968,5.3787 3.4983,-0.6997 10.2011,-4.7582 10.2571,-6.2107 0.021,-0.55 -0.8597,-2.4733 -1.9576,-4.2741 -1.098,-1.8008 -1.9963,-3.8726 -1.9963,-4.604 0,-0.7314 -1.125,-2.5437 -2.5,-4.0274 -1.375,-1.4836 -2.5,-3.0922 -2.5,-3.5746 0,-0.4823 -0.5858,-1.4717 -1.3019,-2.1984 -2.4044,-2.4406 -5.6064,-10.2977 -5.2252,-12.8215 0.2077,-1.375 1.0494,-6.55 1.8703,-11.5 3.3416,-20.1477 3.9077,-26.3426 4,-43.7767 l 0.097,-18.2233 -3.5455,-7.5 c -2.346,-4.9627 -4.4502,-7.98 -6.2198,-8.9189 -1.4709,-0.7805 -2.6744,-2.018 -2.6744,-2.75 0,-0.7321 -0.6955,-1.3311 -1.5455,-1.3311 -0.85,0 -2.6704,-1.125 -4.0454,-2.5 -1.375,-1.375 -2.8171,-2.5021 -3.2046,-2.5047 -0.6283,0 -4.3376,-3.0609 -10.9188,-8.9978 -1.2178,-1.0986 -2.7102,-1.9975 -3.3164,-1.9975 -0.6111,0 -0.9612,-1.217 -0.7857,-2.7316 0.4201,-3.6264 5.3331,-5.6498 7.2739,-2.9956 0.6946,0.95 1.7061,1.7272 2.2478,1.7272 0.5416,0 1.7992,0.9 2.7947,2 0.9955,1.1 2.1218,2 2.5028,2 0.3811,0 3.1238,2.3729 6.095,5.2731 2.9712,2.9003 6.7197,6.1628 8.3301,7.25 7.3803,4.9832 10.6216,9.1167 14.1033,17.9856 3.736,9.5162 4.3114,15.4001 2.4996,25.5577 -0.5331,2.9885 -1.1959,9.0336 -1.4729,13.4336 -0.5243,8.3292 -1.7082,19.0237 -3.7085,33.5 -0.646,4.675 -1.1753,9.85 -1.1763,11.5 0,3.7476 3.9028,12.4001 5.9511,13.1861 0.841,0.3227 1.9435,1.5378 2.45,2.7003 0.5066,1.1625 1.3062,2.7886 1.777,3.6136 3.347,5.8656 5.4299,13.0702 4.2478,14.693 -0.3295,0.4523 -2.9099,2.0564 -5.7343,3.5647 -5.2199,2.7875 -10.6516,3.4956 -13.3647,1.7423 z m -1103.6676,-2.785 c -17.9845,-6.4448 -25.5258,-25.0518 -23.9997,-59.215 1.1408,-25.5375 7.0334,-38.9189 20.1672,-45.7971 4.2942,-2.2488 6.2705,-2.6233 14,-2.6524 7.361,-0.028 9.9546,0.396 14.2416,2.3273 9.0186,4.0628 15.2095,12.8114 18.839,26.6222 1.4676,5.5845 1.8396,10.7411 1.8396,25.5 0,14.759 -0.372,19.9156 -1.8396,25.5 -5.0758,19.314 -14.4137,28.2333 -30.508,29.1402 -5.6901,0.3206 -8.8572,-0.034 -12.7401,-1.4252 z m 15.2007,-16.412 c 5.8195,-2.6516 8.4812,-14.35 8.447,-37.1253 -0.04,-26.8432 -3.7451,-37.6777 -12.8835,-37.6777 -10.1221,0 -13.8172,12.8122 -12.8339,44.5 0.4401,14.1815 0.8889,17.9545 2.7069,22.7571 2.9879,7.8931 8.0475,10.5147 14.5635,7.5459 z m 282.7993,16.412 c -17.9845,-6.4448 -25.5258,-25.0518 -23.9997,-59.215 1.1408,-25.5375 7.0334,-38.9189 20.1672,-45.7971 4.2942,-2.2488 6.2705,-2.6233 14,-2.6524 7.361,-0.028 9.9546,0.396 14.2416,2.3273 9.0186,4.0628 15.2095,12.8114 18.839,26.6222 1.4676,5.5845 1.8396,10.7411 1.8396,25.5 0,14.759 -0.372,19.9156 -1.8396,25.5 -5.0758,19.314 -14.4137,28.2333 -30.508,29.1402 -5.6901,0.3206 -8.8572,-0.034 -12.7401,-1.4252 z m 15.2007,-16.412 c 5.8195,-2.6516 8.4812,-14.35 8.447,-37.1253 -0.04,-26.8432 -3.7451,-37.6777 -12.8835,-37.6777 -10.1221,0 -13.8172,12.8122 -12.8339,44.5 0.4401,14.1815 0.8889,17.9545 2.7069,22.7571 2.9879,7.8931 8.0475,10.5147 14.5635,7.5459 z m 398.9669,16.5425 c -8.512,-1.4763 -12.5,-2.9994 -12.5,-4.7739 0,-0.5998 -0.8318,-1.61 -1.8485,-2.2449 -1.2906,-0.806 -2.0556,-2.9162 -2.5343,-6.9906 -0.3772,-3.2098 -0.8903,-7.1861 -1.1402,-8.8361 -1.3803,-9.1105 -1.6446,-24.2818 -0.4879,-28 0.6844,-2.2 1.5875,-6.475 2.0068,-9.5 0.9033,-6.516 10.5283,-30.589 15.5932,-39 0.828,-1.375 2.3955,-4.4761 3.4833,-6.8915 1.0878,-2.4153 3.204,-5.9049 4.7027,-7.7546 3.8839,-4.7935 16.0355,-17.3539 16.7891,-17.3539 0.3484,0 1.8842,-1.2375 3.4129,-2.75 4.3331,-4.287 5.786,-5.25 7.9217,-5.25 1.0907,0 2.2897,-0.4959 2.6643,-1.102 0.3746,-0.6061 2.2011,-1.7372 4.059,-2.5134 1.8578,-0.7763 3.3779,-1.7703 3.3779,-2.2089 0,-0.4387 2.2444,-1.3728 4.9874,-2.0758 4.3195,-1.1071 4.8596,-1.5173 4.0322,-3.0632 -1.1237,-2.0997 0.5181,-3.8051 6.1315,-6.369 4.6104,-2.1058 8.185,-2.1131 12.1946,-0.025 1.7349,0.9035 4.0543,2.1113 5.1543,2.6839 1.1,0.5727 3.1448,1.6202 4.544,2.3277 2.8122,1.4222 6.956,5.8026 6.956,7.3532 0,0.5458 0.6891,0.9924 1.5314,0.9924 0.8422,0 1.8321,0.7875 2.1996,1.75 0.3675,0.9625 1.0367,2.2 1.4871,2.75 0.4504,0.55 1.7106,2.0813 2.8004,3.403 1.0898,1.3217 1.9815,3.6842 1.9815,5.25 0,1.5658 0.3375,2.8505 0.75,2.8548 0.9253,0.01 3.25,4.8757 3.25,6.8029 0,1.0876 0.8612,1.2533 3.75,0.7212 4.3883,-0.8083 23.7172,-7.0587 27.0202,-8.7376 3.1546,-1.6034 4.2252,-0.1147 3.5441,4.9285 -0.5072,3.7553 -1.0339,4.4471 -4.758,6.25 -2.3033,1.1149 -4.8012,2.0272 -5.551,2.0272 -1.6164,0 -7.7811,1.8796 -10.2417,3.1228 -0.9551,0.4824 -2.9033,0.8772 -4.3295,0.8772 -1.4261,0 -5.4711,1.1514 -8.9888,2.5587 -4.2611,1.7047 -7.8225,2.4557 -10.6705,2.25 -4.1457,-0.2994 -4.2767,-0.4144 -4.3393,-3.8087 -0.093,-5.0571 -2.537,-14.1725 -4.4237,-16.5 -0.8916,-1.1 -2.7837,-3.8 -4.2047,-6 -5.5414,-8.5794 -11.3122,-12.8469 -18.9773,-14.0336 -3.0392,-0.4706 -3.1334,-0.4128 -1.0798,0.6618 2.9779,1.5583 2.8385,2.6786 -0.5,4.0177 -1.5125,0.6067 -3.875,1.5573 -5.25,2.1124 -1.375,0.5551 -3.625,1.4516 -5,1.9922 -1.375,0.5405 -3.2814,1.3803 -4.2364,1.8662 -0.9551,0.4858 -2.6202,0.8833 -3.7003,0.8833 -1.0802,0 -2.3238,0.6101 -2.7636,1.3558 -0.4398,0.7457 -2.502,2.154 -4.5827,3.1296 -2.0806,0.9756 -5.1657,3.0655 -6.8557,4.6442 -1.6901,1.5787 -3.414,2.8704 -3.8311,2.8704 -0.417,0 -2.0056,1.8 -3.5302,4 -1.5246,2.2 -3.3858,4 -4.136,4 -0.7502,0 -1.364,0.694 -1.364,1.5422 0,1.5934 -1.2251,3.3951 -4.25,6.2504 -0.9625,0.9085 -1.75,2.0646 -1.75,2.569 0,0.5045 -1.3187,3.0604 -2.9305,5.6799 -1.6118,2.6195 -3.4847,6.6121 -4.1619,8.8725 -0.6772,2.2604 -1.8335,4.6095 -2.5694,5.2203 -0.736,0.6108 -1.3382,1.9289 -1.3382,2.9291 0,1.0002 -0.399,2.0651 -0.8866,2.3665 -0.4877,0.3014 -1.2011,2.2405 -1.5853,4.309 -0.3843,2.0686 -1.5192,5.3361 -2.5221,7.2611 -4.5054,8.648 -6.5892,22.6642 -4.6307,31.1467 0.8068,3.4943 1.7925,9.6866 2.1905,13.7606 0.6399,6.5508 1.125,7.8516 4.1953,11.25 4.0811,4.5173 5.8912,5.0048 3.8376,1.0336 -0.9399,-1.8176 -1.1309,-3.3177 -0.541,-4.25 0.7397,-1.1692 1.4802,-0.8383 3.927,1.7549 1.6584,1.7576 3.0153,3.5979 3.0153,4.0894 0,0.9601 5.0058,3.5423 5.6392,2.909 0.2093,-0.2094 -0.6363,-1.4802 -1.8793,-2.824 -2.2919,-2.478 -5.7599,-7.4375 -5.7599,-8.2372 0,-0.2405 1.35,-0.908 3,-1.4832 1.65,-0.5752 3,-1.5307 3,-2.1235 0,-0.665 1.1488,-0.4836 3,0.4737 2.9876,1.5449 2.9998,1.5399 2.9577,-1.2243 -0.028,-1.8224 -1.0582,-3.6182 -3,-5.2288 -1.6268,-1.3492 -2.9577,-3.0367 -2.9577,-3.75 0,-0.7133 -0.3778,-1.2969 -0.8395,-1.2969 -1.4898,0 -3.1605,-4.9754 -3.1605,-9.4122 0,-2.8039 0.7013,-5.2097 2,-6.8607 1.1,-1.3984 2,-3.0341 2,-3.6348 0,-0.6008 0.5184,-1.0923 1.1521,-1.0923 1.2606,0 8.811,-7.9839 8.8338,-9.3411 0.01,-0.4625 1.8141,-3.4071 4.0141,-6.5434 2.2,-3.1363 4,-6.0518 4,-6.4788 0,-0.427 1.35,-2.7385 3,-5.1367 1.65,-2.3982 3,-4.8096 3,-5.3588 0,-0.5491 0.5861,-1.593 1.3024,-2.3198 1.8044,-1.8307 4.6976,-9.3659 4.6976,-12.2347 0,-1.305 0.7549,-2.6624 1.6775,-3.0165 2.9319,-1.125 4.4902,1.758 4.6616,8.6243 0.1436,5.7528 -0.1613,6.8654 -2.8391,10.3595 -3.1477,4.1074 -3.7551,5.0029 -7,10.3206 -1.7275,2.831 -5.5522,8.0936 -12.2722,16.8861 -0.9503,1.2434 -3.1799,3.9434 -4.9546,6 -1.7747,2.0566 -3.2372,4.1539 -3.25,4.6606 -0.013,0.5066 -0.6481,1.6316 -1.4119,2.5 -0.7638,0.8683 -1.6945,3.0182 -2.0682,4.7776 -0.5507,2.5921 -0.2872,3.4439 1.3887,4.4906 1.1375,0.7104 2.0682,1.8257 2.0682,2.4785 0,0.6527 1.115,2.0639 2.4778,3.1359 1.3627,1.0719 2.9377,3.1589 3.5,4.6376 1.3459,3.5402 1.3162,15.2587 -0.041,16.0974 -1.5825,0.9781 -4.937,-2.5109 -4.937,-5.1349 0,-1.2573 -0.3375,-2.4943 -0.75,-2.7489 -0.4125,-0.2546 -0.7144,1.1814 -0.6709,3.191 0.1196,5.5241 0.273,5.9722 2.2608,6.6031 1.0119,0.3212 2.4298,1.6861 3.1507,3.0333 2.9761,5.5608 -2.9405,6.7334 -19.4906,3.863 z m -521.5001,-1.7401 c 0,-0.7671 0.943,-4.4796 2.0955,-8.25 3.6409,-11.9106 8.7844,-18.9802 29.1688,-40.0914 7.9842,-8.2689 12.6094,-13.9428 14.2655,-17.5 5.9316,-12.7409 0.3169,-24.9456 -10.7908,-23.4558 -5.4273,0.728 -8.4125,3.8736 -9.8741,10.4049 l -1.2179,5.4423 -6.0735,-0.6118 c -13.6728,-1.3773 -15.5735,-1.7474 -15.5735,-3.0321 0,-0.7154 0.9393,-4.3418 2.0873,-8.0586 1.6799,-5.4388 3.1012,-7.7718 7.282,-11.9526 6.9902,-6.9902 12.8262,-9.0003 26.1307,-9.0003 8.9333,0 10.6095,0.2994 15.7144,2.8062 16.2511,7.9803 21.0982,25.3827 12.1701,43.6938 -3.16,6.4808 -5.7447,9.5755 -19.0207,22.7726 -8.4501,8.4 -15.3638,15.7125 -15.3638,16.25 0,0.6032 7.4672,0.9774 19.5,0.9774 l 19.5,0 0,10.5 0,10.5 -35,0 c -29.2696,0 -35,-0.2283 -35,-1.3946 z m -89,-35.6054 0,-9 20,0 20,0 0,9 0,9 -20,0 -20,0 0,-9 z m 270,-27.3135 c -4.8532,-1.5383 -12.2752,-9.2429 -13.7777,-14.3025 -2.7025,-9.1005 -0.7952,-16.8664 5.75,-23.4116 4.6625,-4.6626 9.9722,-6.9724 16.0277,-6.9724 9.1566,0 19.3003,7.2738 21.7777,15.6161 2.7025,9.1005 0.7952,16.8664 -5.75,23.4116 -6.5168,6.5168 -15.0101,8.517 -24.0277,5.6588 z m 13.0327,-12.2034 c 3.1602,-1.6342 5.9673,-6.0952 5.9673,-9.4831 0,-5.3001 -5.6999,-11 -11,-11 -5.3001,0 -11,5.6999 -11,11 0,3.2871 2.7597,7.8053 5.7626,9.4346 3.5391,1.9204 6.6222,1.9349 10.2701,0.049 z m 375.1604,-18.6901 c -1.6564,-1.6564 -1.4917,-5.3001 0.307,-6.793 0.825,-0.6847 1.5,-1.8166 1.5,-2.5154 0,-2.0178 2.8763,-2.7101 12.2472,-2.9477 6.5078,-0.165 9.2161,-0.6461 10.5787,-1.8793 1.0074,-0.9117 2.8275,-1.6576 4.0447,-1.6576 1.2171,0 3.1791,-0.9 4.3598,-2 3.3536,-3.1244 5.5712,-2.5744 6.3496,1.5747 0.3688,1.9661 0.2767,3.9242 -0.2047,4.3513 -1.3325,1.1823 -11.9784,3.8708 -20.3753,5.1457 -7.4368,1.1291 -11.5934,2.7744 -15.557,6.1582 -1.5932,1.3602 -2.326,1.4871 -3.25,0.5631 z m 26.557,-63.4823 c -3.5421,-0.9256 -1.8828,-4.011 3.5997,-6.6933 2.9423,-1.4396 6.0699,-2.6174 6.9503,-2.6174 0.8803,0 1.9605,-0.5625 2.4003,-1.25 1.0413,-1.6276 8.7467,-5.75 10.7478,-5.75 0.8536,0 1.5519,-0.4289 1.5519,-0.953 0,-0.9607 4.5868,-3.3379 8.75,-4.5348 1.2375,-0.3558 2.25,-1.012 2.25,-1.4582 0,-0.4462 1.4625,-1.4029 3.25,-2.1259 1.7875,-0.723 3.475,-1.5693 3.75,-1.8807 1.1088,-1.2554 9.0265,-6.0474 9.9921,-6.0474 0.5693,0 1.8164,-0.421 2.7715,-0.9356 4.9797,-2.6834 8.8298,-4.0644 11.331,-4.0644 1.5331,0 3.0337,-0.3986 3.3348,-0.8858 0.3011,-0.4872 3.5902,-1.6505 7.3091,-2.5851 3.7188,-0.9347 7.5429,-2.1111 8.4979,-2.6142 0.9551,-0.5032 2.4176,-0.9149 3.25,-0.9149 2.5939,0 1.6561,-1.9316 -1.2364,-2.5467 -1.5125,-0.3217 -3.9444,-1.2302 -5.4043,-2.019 -1.4599,-0.7889 -3.2599,-1.4389 -4,-1.4446 -0.7401,-0.01 -2.2457,-1.1593 -3.3457,-2.5635 -1.1,-1.4043 -2.675,-3.323 -3.5,-4.2639 -0.825,-0.9409 -2.4,-3.4999 -3.5,-5.6865 -1.1,-2.1867 -2.32,-4.2165 -2.7112,-4.5108 -0.3912,-0.2943 -1.4037,-2.1923 -2.25,-4.2179 -1.7896,-4.2832 -2.1884,-24.6974 -0.5152,-26.3707 0.6982,-0.6982 0.3803,-1.6059 -1,-2.855 -1.113,-1.0072 -2.0236,-2.4142 -2.0236,-3.1267 0,-0.7124 -0.7875,-1.7673 -1.75,-2.3442 -1.6651,-0.9981 -1.6644,-1.1155 0.014,-2.4204 1.5498,-1.2047 0.8205,-1.4346 -6,-1.8912 -7.2774,-0.4872 -13.2387,-2.2809 -13.2565,-3.9889 0,-0.4125 -0.6828,-0.75 -1.5078,-0.75 -0.825,0 -1.5,-0.4682 -1.5,-1.0405 0,-0.5722 -1.0029,-2.3969 -2.2286,-4.0548 l -2.2285,-3.0143 1.9785,-3.6454 c 1.7185,-3.1662 3.2932,-4.1865 11.9786,-7.7607 5.5,-2.2633 11.6215,-4.8226 13.6033,-5.6874 3.7878,-1.6527 3.5941,-1.1834 5.5909,-13.5498 0.3691,-2.2857 1.7563,-4.2106 4.6655,-6.47411 2.2772,-1.7717 4.3653,-3.49737 4.6403,-3.83483 0.8577,-1.0525 5.2432,-2.14501 12,-2.98938 3.575,-0.44676 8.8821,-1.12713 11.7937,-1.51194 4.2254,-0.55847 5.537,-0.38149 6.5,0.87704 0.6634,0.86718 2.4936,1.8876 4.0669,2.2676 2.5879,0.62504 2.796,0.48728 2.1826,-1.44527 -0.5905,-1.86059 -0.2873,-2.13617 2.3507,-2.13617 1.6658,0 6.8885,0.9 11.6061,2 4.7176,1.1 9.4797,2 10.5824,2 1.1027,0 3.2181,1.125 4.701,2.5 1.4829,1.375 3.2633,2.49996 3.9564,2.49996 0.6931,0 1.2602,0.9 1.2602,2 0,1.1 0.3596,2 0.7991,2 0.4395,0 1.3967,1.6875 2.127,3.75 0.7304,2.0625 1.8193,4.3648 2.4198,5.1162 1.6259,2.0345 3.6681,7.8249 5.3373,15.1338 1.5359,6.7251 1.318,18.1754 -0.5806,30.5 -0.5083,3.3 -1.4675,9.5634 -2.1315,13.9186 -0.7731,5.0707 -1.8895,8.6509 -3.1043,9.9548 -1.0433,1.1199 -1.7777,2.3423 -1.6319,2.7165 0.301,0.7724 9.1523,11.1491 12.4237,14.5646 2.1017,2.1943 2.5892,2.2429 18.5,1.8454 18.5778,-0.4642 30.8491,0.6732 35.8848,3.326 6.5588,3.4553 10.9566,6.3745 10.9566,7.2729 0,0.4957 0.594,0.9012 1.3199,0.9012 0.7259,0 2.8634,1.313 4.75,2.9177 1.8866,1.6047 4.9363,4.1922 6.7773,5.75 1.8409,1.5578 4.6188,4.0698 6.173,5.5823 1.5543,1.5125 3.1211,2.75 3.4818,2.75 0.3608,0 3.2428,2.25 6.4045,5 3.1618,2.75 6.0262,5 6.3654,5 0.3393,0 2.2576,1.5032 4.2629,3.3403 2.6433,2.4216 3.5525,4.0031 3.3057,5.75 -0.4042,2.8607 -4.4959,3.9713 -5.452,1.4799 -0.3313,-0.8636 -1.1168,-1.5758 -1.7455,-1.5827 -1.2368,-0.014 -6.0367,-3.8056 -14.0633,-11.1103 -7.936,-7.2223 -11.2794,-9.8772 -12.4389,-9.8772 -0.5887,0 -1.5339,-0.866 -2.1004,-1.9245 -1.624,-3.0345 -13.0407,-11.2594 -18.5299,-13.3495 -3.9334,-1.4977 -7.5455,-1.8911 -17.0651,-1.8584 -6.6416,0.023 -13.3132,0.5119 -14.8256,1.0869 -1.5125,0.575 -4.7164,1.0455 -7.1198,1.0455 -2.4034,0 -5.4116,0.3988 -6.6849,0.8862 -2.5464,0.9748 -9.8151,7.4934 -9.8151,8.8023 0,1.8046 -10.4694,9.3643 -17.7084,12.7868 -5.4547,2.5788 -16.8262,2.1745 -24.433,-0.8687 -3.5835,-1.4336 -6.9006,-2.6066 -7.3713,-2.6066 -0.9246,0 -8.3391,-3.2712 -12.6416,-5.5773 -3.3932,-1.8187 -6.5297,-1.7983 -11.8457,0.077 -2.3383,0.825 -5.7699,1.5 -7.6257,1.5 -1.8559,0 -3.3743,0.45 -3.3743,1 0,0.55 -0.7875,1.0068 -1.75,1.0151 -2.6524,0.023 -15.2007,5.018 -22.25,8.8571 -4.8194,2.6248 -7.5575,4.0615 -17.5,9.1829 -6.05,3.1163 -12.35,6.3808 -14,7.2544 -1.65,0.8735 -3.675,1.8412 -4.5,2.1504 -0.825,0.3092 -2.85,1.4243 -4.5,2.478 -2.91,1.8585 -6.1473,2.3143 -9.75,1.3728 z m 137.6797,-38.8107 c 3.759,-1.925 7.3418,-3.5 7.9618,-3.5 0.6201,0 1.6895,-0.9 2.3764,-2 0.687,-1.1 1.9202,-2 2.7406,-2 0.8203,0 1.5019,-0.3375 1.5147,-0.75 0.013,-0.4125 1.5878,-2.4872 3.5,-4.6104 1.9122,-2.1232 3.4768,-4.0659 3.4768,-4.3171 0,-0.2512 -1.5064,-1.8891 -3.3476,-3.6396 -1.8411,-1.7506 -3.5552,-3.825 -3.809,-4.6099 -1.0561,-3.266 -2.6278,0.428 -3.785,8.8956 -1.2039,8.8096 -1.2997,9.0314 -3.9016,9.0314 -2.1835,0 -2.9044,-0.6803 -3.9736,-3.75 -0.7183,-2.0625 -1.5308,-4.875 -1.8053,-6.25 -0.2746,-1.375 -0.7055,-3.5125 -0.9576,-4.75 -0.5106,-2.5064 -2.4203,-3.0981 -2.4203,-0.75 0,0.825 -0.4705,1.5 -1.0455,1.5 -0.575,0 -2.0815,1.0125 -3.3478,2.25 -1.2663,1.2375 -4.5083,3.3293 -7.2045,4.6483 -2.6962,1.3191 -5.8022,2.8639 -6.9022,3.433 -1.9985,1.0339 -7.6784,2.3194 -14.75,3.3384 -2.0625,0.2972 -3.75,0.9112 -3.75,1.3644 0,0.4532 2.5875,1.5307 5.75,2.3943 3.1625,0.8637 7.024,2.2456 8.581,3.071 1.5571,0.8253 3.8682,1.5006 5.1357,1.5006 1.2676,0 3.5936,0.6723 5.169,1.4939 4.3156,2.2507 7.2877,1.8502 14.794,-1.9939 z m -24.1797,-15.3778 c 2.0625,-0.8767 3.75,-2.1082 3.75,-2.7367 0,-0.6286 1.3177,-1.6886 2.9281,-2.3557 1.6105,-0.6671 3.1714,-1.8467 3.4687,-2.6213 0.2972,-0.7747 1.1511,-1.4085 1.8975,-1.4085 0.7464,0 2.3678,-1.0758 3.6032,-2.3908 1.9812,-2.109 2.2131,-3.2758 1.9665,-9.8972 -0.1932,-5.1868 0.1377,-8.0091 1.0707,-9.1333 1.7558,-2.1156 0.506,-3.335 -1.8866,-1.8408 -1.4192,0.8863 -2.4799,0.8773 -4.4677,-0.038 -3.1771,-1.4627 -2.9536,-4.2 0.343,-4.2 2.1776,0 2.421,-0.481 2.7836,-5.5 0.2186,-3.025 0.3416,-6.175 0.2735,-7 -0.068,-0.825 -0.1703,-2.9625 -0.2272,-4.75 -0.1975,-6.2164 -3.9453,-2.9917 -5.2078,4.4809 -0.8979,5.3144 -2.4337,6.5683 -6.9968,5.7122 -4.1863,-0.7853 -5.5487,-2.7961 -5.5487,-8.1895 0,-2.1329 -0.9,-5.7407 -2,-8.0175 -1.1,-2.2767 -2,-4.6637 -2,-5.3044 0,-0.7201 -0.8592,-0.9347 -2.25,-0.562 -1.2375,0.3316 -4.3554,0.6091 -6.9286,0.6166 -2.8093,0.01 -5.2778,0.613 -6.1785,1.5137 -0.825,0.825 -2.0947,1.5117 -2.8215,1.526 -0.7268,0.014 -4.6806,1.1393 -8.7863,2.5 -4.3125,1.4292 -9.8023,2.4761 -13,2.479 l -5.5351,0.01 3,2.5084 c 1.65,1.3796 4.5282,3.1818 6.396,4.005 3.3109,1.4591 3.3509,1.5464 1.595,3.4866 -0.9905,1.0945 -2.6312,1.99 -3.646,1.99 -1.6863,0 -1.845,0.9885 -1.845,11.4932 0,8.7048 0.4211,12.4652 1.7359,15.5 0.9547,2.2037 2.0957,4.0068 2.5355,4.0068 0.4398,0 1.6643,1.9125 2.7211,4.25 3.5363,7.8216 6.0192,9.8638 13.6446,11.2222 8.281,1.4753 20.4787,0.8324 25.6129,-1.35 z m -36.25,-10.0111 c -1.9292,-0.5322 -2.5738,-1.4535 -2.8234,-4.0355 -0.2825,-2.922 -0.092,-3.2422 1.5,-2.5272 1.0029,0.4502 5.6484,0.9027 10.3234,1.0055 6.6536,0.1462 8.4282,0.4865 8.1692,1.5665 -0.8637,3.6028 -10.476,5.837 -17.1692,3.9907 z m -2.996,-12.8662 c -4.5192,-0.5278 -6.004,-1.8352 -6.004,-5.2865 0,-2.2021 2.7269,-14.8825 3.3605,-15.6271 0.079,-0.093 1.3802,-0.4791 2.8915,-0.8584 2.4208,-0.6076 2.7438,-0.4089 2.7126,1.6687 -0.019,1.2972 -0.6786,3.4834 -1.4646,4.8584 -0.786,1.375 -1.4451,4.4125 -1.4646,6.75 -0.033,3.9966 0.1316,4.25 2.7646,4.25 1.54,0 3.2917,-0.4917 3.8926,-1.0926 0.7902,-0.7902 1.6909,-0.7725 3.2537,0.064 l 2.161,1.1565 -2.3037,1.7986 c -2.8881,2.2549 -5.3522,2.8379 -9.7996,2.3185 z m 10.1835,-24.5058 c 0.2689,-2.787 0.658,-3.2003 2.7876,-2.961 1.3613,0.153 3.7464,-0.2485 5.3002,-0.8921 5.0068,-2.0739 10.3161,2.7551 6.4747,5.8889 -0.6875,0.5609 -4.3156,1.0611 -8.0625,1.1115 l -6.8126,0.092 0.3126,-3.239 z m 54.7089,3.2351 c 2.4635,-4.7263 2.8455,-10.9742 0.671,-10.9742 -1.7312,0 -2.6151,2.5558 -3.5106,10.15 -0.7628,6.4695 -0.1896,6.6359 2.8396,0.8242 z m -34.6328,-31.1296 c 1.23,-0.6355 2.9114,-1.4661 3.7364,-1.8459 0.825,-0.3797 1.9728,-2.1101 2.5507,-3.8453 0.578,-1.7352 1.5905,-3.6945 2.25,-4.3541 0.6596,-0.6596 1.1993,-2.2638 1.1993,-3.565 0,-1.3012 0.44,-3.1879 0.9778,-4.1928 0.7306,-1.3651 0.3513,-3.0054 -1.5,-6.4872 -2.602,-4.8936 -3.1335,-7.5543 -1.5092,-7.5543 0.5328,0 0.7283,-0.6262 0.4346,-1.3916 -0.4111,-1.0714 -1.1278,-0.8413 -3.1146,1 -2.686,2.4892 -5.7252,3.1123 -6.7886,1.3916 -1.7748,-2.87172 -8.6506,0.603 -11.3781,5.75 -0.6557,1.2375 -1.7389,2.2539 -2.4071,2.2586 -1.2974,0.01 -4.7639,10.0296 -4.7332,13.6824 0.01,1.2051 -0.4316,2.4691 -0.9816,2.809 -0.55,0.34 -1,1.904 -1,3.4757 0,1.5717 -0.5625,3.0846 -1.25,3.3621 -0.6875,0.2774 3.8186,0.5399 10.0136,0.5833 6.7202,0.047 12.1656,-0.3871 13.5,-1.0765 z m 41.5854,-1.8199 c 1.3045,-0.7616 0.969,-0.9702 -1.599,-0.9943 -2.4577,-0.023 -3.25,-0.4714 -3.25,-1.8392 0,-0.9949 -0.6607,-2.6824 -1.4682,-3.75 -0.8075,-1.0677 -1.4825,-2.7287 -1.5,-3.6912 -0.018,-0.9625 -0.4515,-1.75 -0.9644,-1.75 -0.5129,0 -1.2527,-1.0125 -1.6439,-2.25 -0.3912,-1.2375 -1.8214,-3.7079 -3.1783,-5.4898 -2.5389,-3.3341 -2.4509,-6.2602 0.1882,-6.2602 1.223,0 3.5666,-2.7818 3.5666,-4.23342 0,-0.75696 -7.0428,0.49362 -7.5683,1.34392 -0.3023,0.4893 -1.1689,0.8895 -1.9256,0.8895 -0.7568,0 -2.5465,0.4451 -3.9772,0.989 l -2.6013,0.989 2.2862,4.261 c 1.2574,2.3436 2.6332,4.4142 3.0572,4.6014 1.4464,0.6384 3.729,6.0538 3.7346,8.86 0,1.5398 0.4428,4.3746 0.9772,6.2996 l 0.9717,3.5 6.6217,-0.2557 c 3.642,-0.1406 7.3647,-0.6894 8.2728,-1.2196 z m -69.3297,-7.1909 c 0.3936,-3.3914 1.1379,-7.5539 1.654,-9.25 1.7902,-5.8833 1.8799,-9.2948 0.2792,-10.6232 -0.9202,-0.7637 -1.9007,-0.9115 -2.4426,-0.3682 -2.0824,2.0877 -6.0103,10.7137 -6.0155,13.2105 0,1.4834 -0.4855,4.4255 -1.0721,6.538 -1.4415,5.1914 -0.6815,6.6591 3.4481,6.6591 l 3.4332,0 0.7157,-6.1662 z m -430.9187,39.594 c -4.3446,-0.7306 -8.6196,-1.6131 -9.5,-1.9611 -1.8759,-0.7415 -25.4556,-4.7414 -44.6007,-7.5656 -3.85,-0.568 -8.6272,-1.4531 -10.616,-1.9669 -1.9888,-0.5138 -6.0093,-0.9342 -8.9343,-0.9342 -3.3501,0 -6.9154,-0.7731 -9.634,-2.0892 -4.8725,-2.3587 -5.4009,-4.3778 -2.7844,-10.64 0.8423,-2.0158 1.3191,-4.2183 1.0595,-4.8946 -0.2595,-0.6763 0.064,-2.4223 0.7187,-3.8801 1.1374,-2.5323 1.4581,-2.6285 7.1905,-2.1575 7.7045,0.633 29.9516,4.2545 34.4934,5.615 1.9214,0.5755 4.9524,1.0464 6.7356,1.0464 1.7833,0 5.1613,0.4317 7.5066,0.9593 2.3454,0.5276 6.7394,1.4067 9.7644,1.9536 3.025,0.547 10.3076,1.9094 16.1835,3.0276 5.876,1.1183 13.8832,2.3306 17.7939,2.6941 8.4006,0.7807 9.504,1.9478 7.4425,7.8719 -0.7644,2.1964 -1.3966,5.2099 -1.4048,6.6965 -0.01,1.4866 -0.5373,3.8491 -1.1756,5.25 -1.0537,2.3125 -1.6752,2.5358 -6.75,2.4251 -3.0742,-0.067 -9.1442,-0.7196 -13.4888,-1.4503 z m -192.1559,-31.3163 c -0.4984,-0.4984 -19.322,-3.7601 -29.4448,-5.1022 -10.7914,-1.4307 -32.2067,-5.0247 -37,-6.2094 -2.475,-0.6118 -7.65,-1.4773 -11.5,-1.9233 -11.1242,-1.2889 -15.8018,-2.3614 -18.75,-4.2991 -3.1893,-2.0962 -3.2491,-2.3919 -1.2562,-6.2132 0.8217,-1.5753 1.4967,-4.4516 1.5,-6.3918 0,-1.94008 0.7428,-4.57915 1.6432,-5.86457 1.4594,-2.08362 2.1373,-2.26207 6.25,-1.64522 2.5371,0.38054 7.313,1.05985 10.613,1.50956 11.4159,1.55573 19.2696,2.98966 21.9443,4.0066 1.4772,0.56164 4.5691,1.02943 6.8708,1.03963 2.3017,0.01 8.0099,0.7256 12.6849,1.59 4.675,0.8643 11.65,1.9417 15.5,2.3941 3.85,0.4524 11.2433,1.7619 16.4295,2.91 5.1862,1.1481 11.1583,2.0874 13.2714,2.0874 4.8607,0 6.6916,3.0011 4.9241,8.0713 -0.6188,1.775 -1.125,4.96 -1.125,7.078 0,2.1179 -0.3975,3.8507 -0.8834,3.8507 -0.4858,0 -1.1166,0.8922 -1.4018,1.9827 -0.4337,1.6586 -1.2787,1.9495 -5.1698,1.7802 -2.5582,-0.1114 -4.8533,-0.4045 -5.1002,-0.6514 z m -205.5504,-32.42335 c -7.2495,-1.73396 -12.6655,-2.7639 -19.3944,-3.68811 -3.85,-0.5288 -9.25,-1.41769 -12,-1.97532 -2.75,-0.55764 -8.6434,-1.39706 -13.0965,-1.86538 -4.453,-0.46832 -8.5288,-1.11868 -9.0571,-1.44524 -0.5284,-0.32656 -3.1287,-0.85398 -5.7784,-1.17206 -2.6498,-0.31807 -5.2468,-0.84347 -5.7711,-1.16755 -0.5244,-0.32408 -5.9589,-0.9916 -12.0767,-1.48337 -6.1178,-0.49178 -11.5726,-1.34345 -12.1217,-1.89261 -0.5492,-0.54916 -1.9784,-0.99847 -3.1761,-0.99847 -3.2393,0 -4.7726,-2.42306 -3.949,-6.24084 0.3867,-1.79254 0.9253,-6.03834 1.1969,-9.43512 l 0.4938,-6.17597 3.8813,-0.65573 c 2.1346,-0.36066 4.4488,-0.30493 5.1426,0.12383 1.3183,0.81478 7.4903,1.88913 19.312,3.36164 3.85,0.47955 8.125,1.14376 9.5,1.47602 1.375,0.33226 8.575,1.48324 16,2.55774 7.425,1.0745 15.075,2.43629 17,3.02619 1.925,0.5899 6.65,1.45592 10.5,1.92447 12.1474,1.47839 27.9712,4.17802 28.7299,4.9015 1.0809,1.0308 -1.071,12.98858 -3.206,17.81509 -1.6931,3.82756 -2.1521,4.17483 -5.2944,4.00602 -1.8924,-0.10166 -4.9682,-0.55019 -6.8351,-0.99673 z m -202.3527,-31.43441 c -3.8271,-0.19502 -7.4931,-0.79841 -8.1467,-1.34088 -0.6537,-0.54246 -4.9474,-1.41034 -9.5417,-1.92861 -9.3685,-1.05684 -17.92163,-2.3671 -25.35333,-3.88393 -4.5309,-0.92476 -18.2527,-2.86801 -37,-5.23985 -3.85,-0.48709 -7.675,-1.02982 -8.5,-1.20606 -0.825,-0.17624 -3.3998,-0.67605 -5.7217,-1.11069 -5.0762,-0.95019 -5.9939,-2.91629 -4.2569,-9.12002 0.6724,-2.40177 0.9951,-5.55702 0.717,-7.01167 -0.8221,-4.30088 2.1674,-6.41199 9.0801,-6.41199 3.2002,0 8.0377,0.6447 10.75,1.43267 2.7123,0.78797 9.4315,1.92506 14.9315,2.52685 5.5,0.6018 12.925,1.72847 16.5,2.50371 3.575,0.77525 9.2,1.67169 12.5,1.9921 3.30003,0.32041 8.92503,1.05011 12.50003,1.62156 3.575,0.57146 9.65,1.41124 13.5,1.8662 9.1204,1.07775 18.5536,2.70064 20.7274,3.56594 1.9985,0.79551 1.9858,6.53446 -0.023,10.17523 -0.6627,1.20134 -1.2049,3.30955 -1.2049,4.6849 0,3.63139 -1.7484,7.66189 -3.2252,7.43498 -0.7012,-0.10772 -4.406,-0.35542 -8.2331,-0.55044 z M 619.8807,144.22002 c -8.58342,-4.64014 -17.13709,-8.22239 -19.63335,-8.22239 -1.02666,0 -1.86665,-0.45 -1.86665,-1 0,-0.55 -1.035,-1 -2.3,-1 -1.265,0 -2.7275,-0.41054 -3.25,-0.91231 -1.14646,-1.10098 -15.8785,-6.08769 -17.98462,-6.08769 -0.82089,0 -2.27391,-0.41027 -3.22895,-0.91171 -0.95504,-0.50144 -4.43643,-1.4502 -7.73643,-2.10836 -3.3,-0.65815 -8.025,-1.79181 -10.5,-2.51923 -7.86083,-2.31037 -12.37456,-3.34277 -17,-3.88834 -11.7267,-1.38315 -24.24535,-3.64803 -27.36244,-4.95044 -3.87014,-1.61704 -5.11346,-4.27163 -4.22323,-9.01694 0.67707,-3.609125 2.17195,-5.829115 8.33567,-12.378965 2.3375,-2.48394 4.25,-4.63731 4.25,-4.78528 0,-0.14797 1.575,-1.89085 3.5,-3.87307 1.925,-1.98222 3.50055,-3.93336 3.50122,-4.33585 6.7e-4,-0.4025 1.13838,-2.05409 2.52823,-3.6702 1.38986,-1.61612 2.78809,-3.97862 3.10719,-5.25 0.3191,-1.27139 0.98139,-2.31161 1.47177,-2.31161 0.49037,0 0.89159,-0.45 0.89159,-1 0,-0.55 0.7875,-1.86775 1.75,-2.92832 3.23143,-3.56071 4.25,-4.98168 4.25,-5.92898 0,-0.51795 1.6225,-3.34944 3.60556,-6.29221 4.62826,-6.86812 8.39274,-14.29226 8.4006,-16.56725 0.003,-0.98078 0.67839,-3.07218 1.5,-4.64755 0.82161,-1.57537 1.49384,-4.15376 1.49384,-5.72976 0,-4.57367 6.33836,-19.9059303 8.22911,-19.9059303 0.42399,0 0.77089,-0.65461 0.77089,-1.45469 0,-2.07797003 6.15265,-2.98007003 10.51221,-1.54128 5.36452,1.77045 7.47946,5.88355 7.48405,14.5548403 0.002,4.66354 -0.49447,7.71757 -1.46446,9 -0.8075,1.06762 -1.4825,2.63205 -1.5,3.4765 -0.0175,0.84445 -2.2915,6.01945 -5.05336,11.5 -5.70435,11.31953 -6.4237,12.55763 -10.22844,17.60459 -1.5125,2.00631 -2.75,3.95273 -2.75,4.32537 0,0.37264 -0.5625,1.30477 -1.25,2.07139 -1.48984,1.66132 -2.13459,2.45288 -7.30077,8.96328 -2.1822,2.75 -4.94935,6.125 -6.14922,7.5 -6.03941,6.9209 -7.35889,8.64605 -7.89734,10.32536 -0.32191,1.00395 -0.33503,2.07562 -0.0292,2.38148 0.30587,0.30587 0.13644,1.34032 -0.37652,2.29878 -2.09752,3.91925 5.88994,7.175115 22.00301,8.968915 5.775,0.6429 12.38677,1.58664 14.69282,2.09719 2.30605,0.51055 5.77238,0.92827 7.70295,0.92827 1.93057,0 4.5438,0.39175 5.80718,0.87056 1.26338,0.47881 4.99705,1.64866 8.29705,2.59967 3.3,0.951 6.78139,2.13425 7.73643,2.62943 0.95504,0.49519 2.40627,0.90034 3.22496,0.90034 0.81869,0 4.43606,1.35 8.03861,3 3.60255,1.65 7.21382,3 8.02504,3 0.81123,0 1.47496,0.39541 1.47496,0.87868 0,0.48327 1.28858,1.41243 2.86351,2.06478 3.9031,1.61672 11.57543,8.84893 13.53321,12.75688 3.74168,7.46883 1.33945,11.1446 -7.76907,11.88781 -4.4653,0.36435 -6.03186,-0.0704 -12.12765,-3.36576 z m 216.49997,-1.22239 c -0.825,-0.53316 -3.975,-0.98412 -7,-1.00215 -5.8546,-0.0349 -20.1971,-2.21519 -25.9934,-3.95142 -1.9214,-0.57554 -5.2964,-1.04894 -7.5,-1.05201 -2.2036,-0.003 -5.5816,-0.40211 -7.5066,-0.88676 -1.925,-0.48466 -7.55,-1.41087 -12.5,-2.05825 -4.95,-0.64738 -12.59997,-1.80396 -16.99997,-2.57017 -4.4,-0.76621 -11.9833,-1.81189 -16.8518,-2.32372 -11.8206,-1.24271 -12.1252,-1.59531 -10.5968,-12.2663 0.6609,-4.61407 1.6995,-9.01166 2.3081,-9.77242 0.8655,-1.08201 3.0475,-1.24543 10.0205,-0.75048 4.9026,0.34801 9.4103,1.02926 10.017,1.5139 0.6066,0.48464 6.3949,1.41754 12.8628,2.0731 6.46787,0.65556 13.21787,1.63485 14.99997,2.1762 1.7821,0.54135 6.8402,1.38677 11.2402,1.87871 4.4,0.49195 11.375,1.59081 15.5,2.44193 4.125,0.85112 9.5858,1.54801 12.1352,1.54866 2.5493,6.5e-4 6.8243,0.65629 9.5,1.45697 2.6756,0.80069 7.0023,1.72826 9.6148,2.06128 l 4.75,0.60548 -0.024,4.68872 c -0.033,6.21833 -1.7115,13.23937 -3.6885,15.42396 -1.8319,2.02386 -2.2295,2.09477 -4.2875,0.76477 z"
     id="path2987"
     inkscape:connector-curvature="0" />
</svg>
