<?xml version="1.0" encoding="UTF-8" standalone="no"?>
<!-- Created with Inkscape (http://www.inkscape.org/) -->

<svg
   xmlns:dc="http://purl.org/dc/elements/1.1/"
   xmlns:cc="http://creativecommons.org/ns#"
   xmlns:rdf="http://www.w3.org/1999/02/22-rdf-syntax-ns#"
   xmlns:svg="http://www.w3.org/2000/svg"
   xmlns="http://www.w3.org/2000/svg"
   xmlns:sodipodi="http://sodipodi.sourceforge.net/DTD/sodipodi-0.dtd"
   xmlns:inkscape="http://www.inkscape.org/namespaces/inkscape"
   id="svg2"
   version="1.1"
   inkscape:version="0.48.2 r9819"
   width="292.38049"
   height="510.10995"
   xml:space="preserve"
   sodipodi:docname="68_SCHW.eps"><metadata
     id="metadata8"><rdf:RDF><cc:Work
         rdf:about=""><dc:format>image/svg+xml</dc:format><dc:type
           rdf:resource="http://purl.org/dc/dcmitype/StillImage" /><dc:title></dc:title></cc:Work></rdf:RDF></metadata><defs
     id="defs6" /><sodipodi:namedview
     pagecolor="#ffffff"
     bordercolor="#666666"
     borderopacity="1"
     objecttolerance="10"
     gridtolerance="10"
     guidetolerance="10"
     inkscape:pageopacity="0"
     inkscape:pageshadow="2"
     inkscape:window-width="1280"
     inkscape:window-height="752"
     id="namedview4"
     showgrid="false"
     fit-margin-top="0.3"
     fit-margin-left="0.3"
     fit-margin-right="0.3"
     fit-margin-bottom="0.3"
     inkscape:zoom="0.71272481"
     inkscape:cx="150.2282"
     inkscape:cy="449.21641"
     inkscape:window-x="0"
     inkscape:window-y="0"
     inkscape:window-maximized="1"
     inkscape:current-layer="g10" /><g
     id="g10"
     inkscape:groupmode="layer"
     inkscape:label="ink_ext_XXXXXX"
     transform="matrix(1.25,0,0,-1.25,-0.88701125,510.15126)"><g
       id="g5383"><path
         d="m 234.374,359.78501 -0.432,0.432 -232.56036,0 0,-0.864 232.56036,0 -0.432,0.432 0.864,0 0,0.432 -0.432,0 0.432,-0.432"
         style="fill:#000000;fill-opacity:1;fill-rule:nonzero;stroke:none"
         id="path16"
         inkscape:connector-curvature="0" /><path
         d="m 233.942,285.98501 0.432,0.432 0,73.368 -0.864,0 0,-73.368 0.432,0.432 0,-0.864 0.432,0 0,0.432 -0.432,-0.432"
         style="fill:#000000;fill-opacity:1;fill-rule:nonzero;stroke:none"
         id="path18"
         inkscape:connector-curvature="0" /><path
         d="m 0.949609,286.41701 0.432031,-0.432 232.56036,0 0,0.864 -232.56036,0 0.43203,-0.432 -0.864061,0 0,-0.432 0.432031,0 -0.432031,0.432"
         style="fill:#000000;fill-opacity:1;fill-rule:nonzero;stroke:none"
         id="path20"
         inkscape:connector-curvature="0" /><path
         d="m 1.38164,360.21701 -0.432031,-0.432 0,-73.368 0.864061,0 0,73.368 -0.43203,-0.432 0,0.864 -0.432031,0 0,-0.432 0.432031,0.432"
         style="fill:#000000;fill-opacity:1;fill-rule:nonzero;stroke:none"
         id="path22"
         inkscape:connector-curvature="0" /><path
         d="m 115.214,404.56901 1.944,0.936 2.016,0.792 2.088,0.504 2.16,0.432 2.16,0.144 2.232,0.072 2.232,-0.144 2.16,-0.36 2.16,-0.504 2.16,-0.648 2.016,-0.792 1.944,-1.008 1.872,-1.08 1.728,-1.296 1.512,-1.44 1.44,-1.584 1.944,-2.376 2.016,-2.304 1.944,-2.376 2.016,-2.448 1.944,-2.376 2.016,-2.448 1.944,-2.448 2.016,-2.448 1.944,-2.448 2.016,-2.448 1.944,-2.448 1.944,-2.52 1.944,-2.448 1.944,-2.448 1.944,-2.448 1.944,-2.448 1.872,-2.448 1.872,-2.376 1.872,-2.448 1.872,-2.376 1.8,-2.376 1.8,-2.304 1.8,-2.376 1.728,-2.304 1.728,-2.232 1.728,-2.232 1.656,-2.232 1.656,-2.16 1.584,-2.16 1.584,-2.088 1.512,-2.088 1.512,-2.016 0.72,-1.224 0.504,-1.224 0.216,-1.368 0.072,-1.296 -0.216,-1.296 -0.288,-1.296 -0.576,-1.08 -0.648,-1.008 -0.864,-0.864 -1.008,-0.576 -1.08,-0.36 -1.152,-0.072 -1.296,0.216 -1.368,0.648 -1.44,1.008 -1.512,1.44 -1.8,2.088 -1.728,2.088 -1.8,2.016 -1.8,2.088 -1.728,2.088 -1.8,2.16 -1.728,2.088 -1.8,2.088 -1.728,2.088 -1.728,2.088 -1.8,2.16 -1.728,2.088 -1.8,2.088 -1.728,2.16 -1.728,2.088 -1.8,2.088 -1.728,2.16 -1.8,2.088 -1.728,2.088 -1.728,2.088 -1.8,2.16 -1.728,2.088 -1.8,2.088 -1.728,2.088 -1.8,2.088 -1.728,2.088 -1.8,2.088 -1.8,2.016 -1.728,2.088 -1.8,2.016 -1.8,2.088 -1.8,2.016 -0.792,0.792 -0.792,0.792 -0.864,0.72 -0.936,0.72 -0.936,0.648 -0.936,0.576 -1.008,0.576 -1.008,0.432 -0.936,0.432 -0.936,0.288 -1.008,0.288 -1.08,0.216 -1.008,0.216 -1.008,0.072 -1.008,0.072 -0.936,0 -1.152,-0.072 -1.152,-0.144 -1.08,-0.216 -1.152,-0.288 -1.08,-0.36 -1.08,-0.36 -1.008,-0.432 -0.936,-0.432 -2.448,-1.224 -2.52,-1.296 -2.448,-1.224 -2.448,-1.296 -2.448,-1.224 -2.448,-1.296 -2.5202,-1.296 -2.4481,-1.296 -2.448,-1.296 -2.4481,-1.296 -2.4476,-1.368 -2.4481,-1.296 -2.5199,-1.296 -2.448,-1.296 -2.4481,-1.368 -2.448,-1.296 -2.4481,-1.368 -2.448,-1.296 -2.4481,-1.368 -2.448,-1.296 -2.4481,-1.296 -2.4476,-1.368 -2.5203,-1.296 -2.4477,-1.368 -2.448,-1.296 -2.4481,-1.296 -2.448,-1.296 -2.4481,-1.296 -2.448,-1.296 -2.52,-1.296 -2.448,-1.296 -2.448,-1.296 -1.8719,-0.792 -1.7281,-0.432 -1.4399,-0.072 -1.2961,0.216 -1.0801,0.432 -0.864,0.72 -0.7199,0.936 -0.4321,1.08 -0.2879,1.152 -0.0718,1.224 0.1437,1.296 0.3602,1.224 0.5757,1.296 0.7204,1.152 1.0078,1.008 1.1519,0.864 2.5922,1.584 2.5199,1.584 2.5918,1.584 2.5922,1.584 2.5922,1.584 2.5918,1.512 2.5922,1.584 2.5918,1.512 2.5922,1.584 2.5918,1.512 2.664,1.584 2.5918,1.512 2.5922,1.512 2.6641,1.512 2.5918,1.512 2.664,1.512 2.5922,1.512 2.6641,1.512 2.6637,1.512 2.5921,1.512 2.6641,1.44 2.6641,1.512 2.6636,1.44 2.5922,1.512 2.6641,1.44 2.6641,1.512 2.664,1.44 2.664,1.44 2.592,1.512 2.664,1.44 2.664,1.44 2.664,1.44"
         style="fill:#ffffff;fill-opacity:1;fill-rule:evenodd;stroke:none"
         id="path24"
         inkscape:connector-curvature="0" /><path
         d="m 147.398,398.88101 0,0 -1.512,1.584 -1.512,1.512 -1.8,1.296 -1.872,1.08 -2.016,1.008 -2.016,0.864 -2.16,0.648 -2.232,0.504 -2.16,0.36 -2.304,0.144 -2.232,-0.072 -2.232,-0.144 -2.16,-0.432 -2.16,-0.504 -2.016,-0.864 -2.016,-0.936 0.432,-0.72 1.872,0.936 2.016,0.72 2.016,0.504 2.16,0.432 2.088,0.144 2.232,0.072 2.16,-0.144 2.16,-0.36 2.088,-0.504 2.16,-0.648 2.016,-0.72 1.872,-1.008 1.872,-1.08 1.656,-1.296 1.512,-1.368 1.368,-1.584 0,0 0.72,0.576"
         style="fill:#000000;fill-opacity:1;fill-rule:nonzero;stroke:none"
         id="path26"
         inkscape:connector-curvature="0" /><path
         d="m 206.438,323.78501 0,0 -1.512,2.016 -1.512,2.088 -1.584,2.088 -1.584,2.16 -1.656,2.16 -1.656,2.232 -1.728,2.232 -1.728,2.232 -1.728,2.304 -1.8,2.376 -1.8,2.304 -1.8,2.376 -1.872,2.376 -1.872,2.448 -1.872,2.376 -1.872,2.448 -1.944,2.448 -1.944,2.448 -1.944,2.448 -1.944,2.448 -1.944,2.52 -1.944,2.448 -2.016,2.448 -1.944,2.448 -2.016,2.448 -1.944,2.448 -2.016,2.448 -1.944,2.376 -2.016,2.448 -1.944,2.376 -2.016,2.304 -1.944,2.376 -0.72,-0.576 1.944,-2.376 2.016,-2.304 1.944,-2.376 2.016,-2.448 1.944,-2.376 2.016,-2.448 1.944,-2.448 2.016,-2.448 1.944,-2.448 2.016,-2.448 1.944,-2.448 1.944,-2.52 1.944,-2.448 1.944,-2.448 1.944,-2.448 1.944,-2.448 1.872,-2.448 1.872,-2.376 1.872,-2.448 1.872,-2.376 1.8,-2.376 1.8,-2.304 1.8,-2.376 1.728,-2.304 1.728,-2.232 1.728,-2.232 1.656,-2.232 1.656,-2.16 1.584,-2.16 1.584,-2.088 1.512,-2.088 1.512,-2.016 0,0 0.72,0.576"
         style="fill:#000000;fill-opacity:1;fill-rule:nonzero;stroke:none"
         id="path28"
         inkscape:connector-curvature="0" /><path
         d="m 195.782,314.85701 0.072,0 1.512,-1.512 1.512,-1.008 1.44,-0.72 1.44,-0.216 1.224,0.072 1.152,0.432 1.152,0.576 0.936,0.936 0.648,1.08 0.648,1.152 0.288,1.368 0.216,1.368 -0.072,1.368 -0.216,1.44 -0.576,1.296 -0.72,1.296 -0.72,-0.576 0.72,-1.152 0.432,-1.152 0.216,-1.296 0.072,-1.224 -0.216,-1.224 -0.288,-1.224 -0.504,-1.008 -0.648,-0.936 -0.792,-0.792 -0.864,-0.576 -1.008,-0.288 -1.08,-0.072 -1.152,0.216 -1.296,0.576 -1.368,1.008 -1.512,1.368 0.072,0 -0.72,-0.576"
         style="fill:#000000;fill-opacity:1;fill-rule:nonzero;stroke:none"
         id="path30"
         inkscape:connector-curvature="0" /><path
         d="m 139.334,381.74501 0,0 1.728,-2.016 1.8,-2.088 1.8,-2.016 1.728,-2.088 1.8,-2.016 1.8,-2.088 1.728,-2.088 1.8,-2.088 1.728,-2.088 1.8,-2.088 1.728,-2.088 1.8,-2.16 1.728,-2.088 1.728,-2.088 1.8,-2.088 1.728,-2.16 1.8,-2.088 1.728,-2.088 1.728,-2.16 1.8,-2.088 1.728,-2.088 1.8,-2.16 1.728,-2.088 1.728,-2.088 1.8,-2.088 1.728,-2.088 1.8,-2.16 1.728,-2.088 1.8,-2.088 1.8,-2.016 1.728,-2.088 1.8,-2.088 0.72,0.576 -1.8,2.088 -1.728,2.088 -1.8,2.016 -1.8,2.088 -1.728,2.088 -1.8,2.16 -1.728,2.088 -1.8,2.088 -1.728,2.088 -1.728,2.088 -1.8,2.16 -1.728,2.088 -1.8,2.088 -1.728,2.16 -1.728,2.088 -1.8,2.088 -1.728,2.16 -1.8,2.088 -1.728,2.088 -1.728,2.088 -1.8,2.16 -1.728,2.088 -1.8,2.088 -1.728,2.088 -1.8,2.088 -1.728,2.088 -1.8,2.088 -1.8,2.016 -1.728,2.088 -1.8,2.016 -1.8,2.088 -1.872,2.016 0,0 -0.576,-0.576"
         style="fill:#000000;fill-opacity:1;fill-rule:nonzero;stroke:none"
         id="path32"
         inkscape:connector-curvature="0" /><path
         d="m 132.134,386.92901 0.072,-0.072 0.936,-0.36 1.008,-0.576 0.936,-0.576 0.864,-0.648 0.936,-0.72 0.864,-0.648 0.792,-0.792 0.792,-0.792 0.576,0.576 -0.792,0.792 -0.792,0.792 -0.864,0.792 -0.936,0.72 -1.008,0.648 -0.936,0.576 -1.008,0.576 -1.08,0.504 0.072,-0.072 -0.432,-0.72"
         style="fill:#000000;fill-opacity:1;fill-rule:nonzero;stroke:none"
         id="path34"
         inkscape:connector-curvature="0" /><path
         d="m 124.43,388.44101 0.936,0 1.008,-0.072 0.936,-0.072 1.008,-0.216 1.08,-0.216 0.936,-0.288 0.936,-0.288 0.864,-0.36 0.432,0.72 -1.008,0.504 -0.936,0.288 -1.08,0.288 -1.08,0.216 -1.008,0.216 -1.08,0.072 -1.008,0.072 -0.936,0 0,-0.864"
         style="fill:#000000;fill-opacity:1;fill-rule:nonzero;stroke:none"
         id="path36"
         inkscape:connector-curvature="0" /><path
         d="m 116.006,386.20901 0,0 0.864,0.432 1.008,0.36 1.08,0.36 1.08,0.36 1.08,0.288 1.08,0.216 1.152,0.144 1.08,0.072 0,0.864 -1.224,-0.072 -1.152,-0.144 -1.08,-0.216 -1.224,-0.288 -1.08,-0.36 -1.08,-0.36 -1.008,-0.504 -1.008,-0.432 0,0 0.432,-0.72"
         style="fill:#000000;fill-opacity:1;fill-rule:nonzero;stroke:none"
         id="path38"
         inkscape:connector-curvature="0" /><path
         d="m 37.3098,344.52101 0,0 2.448,1.296 2.4481,1.296 2.5199,1.296 2.448,1.296 2.4481,1.296 2.448,1.296 2.4481,1.296 2.4476,1.296 2.4481,1.368 2.5203,1.296 2.4476,1.368 2.4481,1.296 2.448,1.296 2.4481,1.368 2.448,1.296 2.4481,1.368 2.448,1.296 2.4481,1.368 2.4476,1.296 2.5203,1.296 2.4481,1.296 2.4476,1.368 2.4481,1.296 2.448,1.296 2.4481,1.296 2.5202,1.296 2.448,1.296 2.448,1.224 2.448,1.296 2.448,1.224 2.52,1.296 2.448,1.224 -0.432,0.72 -2.448,-1.224 -2.52,-1.296 -2.448,-1.224 -2.448,-1.296 -2.448,-1.224 -2.448,-1.296 -2.5202,-1.296 -2.4481,-1.296 -2.448,-1.296 -2.4477,-1.296 -2.448,-1.368 -2.4481,-1.296 -2.5199,-1.296 -2.4481,-1.296 -2.448,-1.368 -2.4481,-1.296 -2.448,-1.368 -2.448,-1.296 -2.4481,-1.368 -2.448,-1.296 -2.4477,-1.296 -2.448,-1.368 -2.5204,-1.296 -2.4476,-1.368 -2.4481,-1.296 -2.448,-1.296 -2.4481,-1.296 -2.448,-1.296 -2.448,-1.296 -2.52,-1.296 -2.448,-1.296 -2.4481,-1.296 0,0 0.4321,-0.72"
         style="fill:#000000;fill-opacity:1;fill-rule:nonzero;stroke:none"
         id="path40"
         inkscape:connector-curvature="0" /><path
         d="m 31.0457,356.54501 0,0 -1.2238,-0.864 -1.0801,-1.08 -0.7199,-1.224 -0.6481,-1.368 -0.3601,-1.296 -0.1438,-1.368 0.0719,-1.296 0.2879,-1.224 0.5043,-1.152 0.7918,-1.008 0.9359,-0.792 1.152,-0.504 1.4402,-0.216 1.5117,0.072 1.8,0.432 1.9442,0.864 -0.4321,0.72 -1.8,-0.72 -1.6558,-0.432 -1.368,-0.072 -1.1519,0.216 -1.0082,0.36 -0.7918,0.648 -0.6481,0.864 -0.3601,1.008 -0.2879,1.08 -0.0719,1.152 0.1437,1.224 0.3602,1.152 0.5039,1.224 0.7199,1.08 0.936,0.936 1.08,0.864 0,0 -0.432,0.72"
         style="fill:#000000;fill-opacity:1;fill-rule:nonzero;stroke:none"
         id="path42"
         inkscape:connector-curvature="0" /><path
         d="m 114.998,404.92901 0,0 -2.664,-1.44 -2.664,-1.44 -2.664,-1.44 -2.592,-1.512 -2.664,-1.44 -2.6641,-1.44 -2.664,-1.512 -2.6641,-1.44 -2.5922,-1.512 -2.6636,-1.44 -2.6641,-1.512 -2.6641,-1.44 -2.5922,-1.512 -2.6636,-1.512 -2.6641,-1.512 -2.5922,-1.512 -2.664,-1.512 -2.5918,-1.512 -2.6641,-1.512 -2.5918,-1.512 -2.5922,-1.512 -2.664,-1.584 -2.5918,-1.512 -2.5922,-1.584 -2.5918,-1.512 -2.5922,-1.584 -2.5918,-1.512 -2.5922,-1.584 -2.5918,-1.584 -2.5922,-1.584 -2.5199,-1.584 -2.5922,-1.584 0.432,-0.72 2.5922,1.584 2.5199,1.584 2.5918,1.584 2.5922,1.584 2.5918,1.584 2.5922,1.512 2.5918,1.584 2.5922,1.512 2.5922,1.584 2.5918,1.512 2.664,1.584 2.5918,1.512 2.5922,1.512 2.6641,1.512 2.5918,1.512 2.6641,1.512 2.5921,1.512 2.6641,1.512 2.6637,1.512 2.5922,1.512 2.664,1.44 2.6641,1.512 2.6637,1.44 2.5921,1.512 2.6641,1.44 2.6641,1.512 2.664,1.44 2.664,1.44 2.592,1.512 2.664,1.44 2.664,1.44 2.664,1.44 0,0 -0.432,0.72"
         style="fill:#000000;fill-opacity:1;fill-rule:nonzero;stroke:none"
         id="path44"
         inkscape:connector-curvature="0" /><path
         d="m 151.79,389.23301 -1.44,1.8 -1.584,1.8 -1.584,1.728 -1.656,1.656 -1.728,1.512 -1.8,1.368 -1.8,1.224 -1.944,1.08 -1.944,0.864 -2.016,0.576 -2.088,0.432 -2.088,0.144 -2.232,-0.144 -2.232,-0.432 -2.304,-0.792 -2.376,-1.152 -2.664,-1.44 -2.664,-1.512 -2.592,-1.44 -2.664,-1.44 -2.664,-1.512 -2.736,-1.44 -2.664,-1.44 -2.6643,-1.512 -2.664,-1.44 -2.736,-1.512 -2.664,-1.44 -2.736,-1.44 -2.664,-1.512 -2.6637,-1.44 -2.7363,-1.512 -2.6637,-1.44 -2.7363,-1.512 -2.6637,-1.44 -2.7363,-1.512 -2.6637,-1.512 -2.7363,-1.44 -2.6637,-1.512 -2.6641,-1.512 -2.7359,-1.512 -2.6641,-1.44 -2.664,-1.512 -2.6641,-1.512 -2.6641,-1.512 -2.664,-1.512 -2.6641,-1.584 -2.5918,-1.512 -2.664,-1.512 -1.0801,-0.936 -1.0797,-1.296 -0.9363,-1.512 -0.6481,-1.44 -0.0719,-1.224 0.5762,-0.72 1.5117,0 2.4481,1.008 78.4083,41.112 2.016,1.008 2.016,0.864 2.016,0.864 1.944,0.648 1.944,0.576 1.944,0.432 1.872,0.288 1.8,0.144 1.8,-0.072 1.8,-0.288 1.728,-0.432 1.656,-0.648 1.584,-0.864 1.584,-1.152 1.512,-1.296 1.44,-1.656 1.656,-2.016 1.728,-2.088 1.656,-2.016 1.728,-2.088 1.656,-2.016 1.656,-2.088 1.728,-2.088 1.656,-2.016 1.656,-2.088 1.728,-2.016 1.656,-2.088 1.728,-2.088 1.656,-2.016 1.656,-2.088 1.728,-2.088 1.656,-2.016 1.728,-2.088 1.656,-2.088 1.728,-2.016 1.656,-2.088 1.728,-2.016 1.656,-2.088 1.728,-2.016 1.728,-2.088 1.656,-2.016 1.728,-2.088 1.728,-2.016 1.656,-2.088 1.728,-2.016 1.728,-2.016 1.728,-2.088 1.728,-2.016 0.504,-0.648 0.504,-0.72 0.576,-0.72 0.648,-0.72 0.648,-0.648 0.648,-0.648 0.72,-0.504 0.792,-0.432 0.36,-0.072 0.36,0.072 0.432,0.072 0.36,0.216 0.288,0.288 0.288,0.288 0.216,0.288 0.072,0.36 0.144,0.576 0,0.576 -0.072,0.576 -0.144,0.576 -0.216,0.504 -0.288,0.576 -0.288,0.504 -0.288,0.432 -51.768,67.392"
         style="fill:#ffffff;fill-opacity:1;fill-rule:evenodd;stroke:none"
         id="path46"
         inkscape:connector-curvature="0" /><path
         d="m 121.19,400.53701 0,0 2.304,1.08 2.304,0.792 2.16,0.432 2.16,0.144 2.016,-0.144 2.088,-0.432 1.944,-0.576 1.872,-0.792 1.944,-1.08 1.8,-1.224 1.728,-1.368 1.728,-1.44 1.656,-1.656 1.584,-1.728 1.512,-1.8 1.44,-1.8 0.72,0.576 -1.44,1.8 -1.656,1.8 -1.584,1.728 -1.656,1.656 -1.728,1.584 -1.872,1.368 -1.8,1.224 -1.944,1.08 -2.016,0.936 -2.088,0.576 -2.088,0.432 -2.16,0.144 -2.304,-0.144 -2.304,-0.432 -2.304,-0.792 -2.448,-1.224 0,0 0.432,-0.72"
         style="fill:#000000;fill-opacity:1;fill-rule:nonzero;stroke:none"
         id="path48"
         inkscape:connector-curvature="0" /><path
         d="m 35.5098,353.01701 0,0 2.664,1.512 2.5918,1.512 2.6641,1.584 2.6641,1.512 2.664,1.512 2.6641,1.512 2.664,1.512 2.6641,1.44 2.7359,1.512 2.6641,1.512 2.6637,1.512 2.7359,1.44 2.6641,1.512 2.7363,1.512 2.6637,1.44 2.7363,1.512 2.6637,1.44 2.7363,1.512 2.6637,1.44 2.664,1.512 2.736,1.44 2.664,1.44 2.736,1.512 2.664,1.44 2.6643,1.512 2.664,1.44 2.736,1.44 2.664,1.512 2.664,1.44 2.592,1.44 2.664,1.512 2.664,1.44 -0.432,0.72 -2.664,-1.44 -2.664,-1.512 -2.592,-1.44 -2.664,-1.44 -2.664,-1.512 -2.736,-1.44 -2.664,-1.44 -2.6643,-1.512 -2.6641,-1.44 -2.7359,-1.512 -2.6641,-1.44 -2.7359,-1.44 -2.6641,-1.512 -2.6636,-1.44 -2.7364,-1.512 -2.6636,-1.44 -2.7364,-1.512 -2.6636,-1.44 -2.7364,-1.512 -2.6636,-1.512 -2.7364,-1.44 -2.6636,-1.512 -2.6641,-1.512 -2.7359,-1.512 -2.6641,-1.44 -2.6641,-1.512 -2.664,-1.512 -2.6641,-1.512 -2.664,-1.512 -2.6637,-1.584 -2.5922,-1.512 -2.6641,-1.512 0,0 0.4321,-0.72"
         style="fill:#000000;fill-opacity:1;fill-rule:nonzero;stroke:none"
         id="path50"
         inkscape:connector-curvature="0" /><path
         d="m 35.7977,347.61701 0,0 -2.3039,-0.936 -1.2961,0 -0.2879,0.36 0.0718,1.008 0.5762,1.368 0.936,1.512 1.0082,1.224 1.0078,0.864 -0.4321,0.72 -1.1519,-1.008 -1.152,-1.368 -0.9359,-1.512 -0.7199,-1.512 -0.0723,-1.44 0.8641,-1.08 1.7281,0 2.5918,1.08 0,0 -0.432,0.72"
         style="fill:#000000;fill-opacity:1;fill-rule:nonzero;stroke:none"
         id="path52"
         inkscape:connector-curvature="0" /><path
         d="m 114.206,388.72901 0,0 -78.4083,-41.112 0.432,-0.72 78.4083,41.112 0,0 -0.432,0.72"
         style="fill:#000000;fill-opacity:1;fill-rule:nonzero;stroke:none"
         id="path54"
         inkscape:connector-curvature="0" /><path
         d="m 143.438,387.07301 0,0 -1.512,1.656 -1.512,1.368 -1.656,1.152 -1.584,0.864 -1.728,0.72 -1.8,0.432 -1.8,0.288 -1.872,0.072 -1.872,-0.144 -1.872,-0.288 -2.016,-0.432 -1.944,-0.576 -1.944,-0.648 -2.016,-0.864 -2.088,-0.936 -2.016,-1.008 0.432,-0.72 2.016,1.008 1.944,0.792 2.016,0.864 1.944,0.648 1.944,0.576 1.872,0.432 1.872,0.288 1.728,0.144 1.728,-0.072 1.8,-0.288 1.656,-0.432 1.584,-0.576 1.584,-0.864 1.512,-1.152 1.512,-1.224 1.368,-1.656 0,0 0.72,0.576"
         style="fill:#000000;fill-opacity:1;fill-rule:nonzero;stroke:none"
         id="path56"
         inkscape:connector-curvature="0" /><path
         d="m 197.654,321.33701 0,0 -1.728,2.016 -1.728,2.088 -1.728,2.016 -1.728,2.016 -1.656,2.088 -1.728,2.016 -1.728,2.088 -1.656,2.016 -1.728,2.088 -1.728,2.016 -1.656,2.088 -1.728,2.016 -1.656,2.088 -1.728,2.016 -1.656,2.088 -1.728,2.088 -1.656,2.016 -1.728,2.088 -1.656,2.088 -1.656,2.016 -1.728,2.088 -1.656,2.088 -1.728,2.016 -1.656,2.088 -1.656,2.016 -1.728,2.088 -1.656,2.088 -1.656,2.016 -1.728,2.088 -1.656,2.016 -1.728,2.088 -1.656,2.016 -0.72,-0.576 1.656,-2.016 1.728,-2.088 1.656,-2.016 1.728,-2.088 1.656,-2.016 1.656,-2.088 1.728,-2.088 1.656,-2.016 1.656,-2.088 1.728,-2.016 1.656,-2.088 1.728,-2.088 1.656,-2.016 1.656,-2.088 1.728,-2.088 1.656,-2.016 1.728,-2.088 1.656,-2.088 1.728,-2.016 1.656,-2.088 1.728,-2.016 1.656,-2.088 1.728,-2.016 1.728,-2.088 1.656,-2.016 1.728,-2.088 1.728,-2.016 1.656,-2.088 1.728,-2.016 1.728,-2.016 1.728,-2.088 1.728,-2.016 0,0 0.72,0.576"
         style="fill:#000000;fill-opacity:1;fill-rule:nonzero;stroke:none"
         id="path58"
         inkscape:connector-curvature="0" /><path
         d="m 202.478,316.44101 0.072,-0.072 -0.792,0.432 -0.648,0.504 -0.648,0.576 -0.648,0.648 -0.576,0.72 -0.576,0.72 -0.504,0.72 -0.504,0.648 -0.72,-0.576 0.504,-0.648 0.504,-0.72 0.576,-0.72 0.72,-0.72 0.648,-0.648 0.648,-0.72 0.792,-0.504 0.792,-0.432 0.072,-0.072 0.288,0.864"
         style="fill:#000000;fill-opacity:1;fill-rule:nonzero;stroke:none"
         id="path60"
         inkscape:connector-curvature="0" /><path
         d="m 204.278,317.66501 0,-0.36 -0.216,-0.144 -0.216,-0.288 -0.288,-0.216 -0.216,-0.144 -0.36,-0.072 -0.288,-0.072 -0.216,0.072 -0.288,-0.864 0.504,-0.072 0.432,0.072 0.504,0.072 0.504,0.288 0.288,0.36 0.36,0.288 0.216,0.432 0.144,0.432 0,-0.072 -0.864,0.288"
         style="fill:#000000;fill-opacity:1;fill-rule:nonzero;stroke:none"
         id="path62"
         inkscape:connector-curvature="0" /><path
         d="m 203.198,321.55301 0,0 0.288,-0.36 0.288,-0.504 0.288,-0.576 0.144,-0.432 0.144,-0.504 0.072,-0.504 0,-0.504 -0.144,-0.504 0.864,-0.288 0.144,0.648 0,0.648 -0.072,0.648 -0.144,0.648 -0.288,0.576 -0.288,0.576 -0.288,0.504 -0.288,0.504 0,0 -0.72,-0.576"
         style="fill:#000000;fill-opacity:1;fill-rule:nonzero;stroke:none"
         id="path64"
         inkscape:connector-curvature="0" /><path
         d="m 151.43,388.94501 0,0 51.768,-67.392 0.72,0.576 -51.768,67.392 0,0 -0.72,-0.576"
         style="fill:#000000;fill-opacity:1;fill-rule:nonzero;stroke:none"
         id="path66"
         inkscape:connector-curvature="0" /><path
         sodipodi:nodetypes="ccccccccccc"
         inkscape:connector-curvature="0"
         id="path68"
         d="m 63.293509,354.46811 c 1.325319,-1.38989 2.543804,-2.68584 3.75,-4.025 -0.253299,-0.17228 -0.51591,-0.56956 -0.763712,-0.60904 -0.703762,0.74468 -1.407525,1.48936 -2.111288,2.23404 1.416667,-8.225 2.833333,-16.45 4.25,-24.675 -0.278805,0.0371 -0.845717,-0.33281 -0.90348,0.0167 -1.39884,8.18611 -2.79768,16.37222 -4.19652,24.55833 -0.416667,-0.96667 -0.833333,-1.93333 -1.25,-2.9 -0.32078,0.0842 -0.63209,0.19305 -0.925,0.35 0.716323,1.68348 1.436399,3.36537 2.15,5.05 z"
         style="fill:#000000;fill-opacity:1;fill-rule:nonzero;stroke:none" /><path
         sodipodi:nodetypes="cccccccccc"
         inkscape:connector-curvature="0"
         id="path76"
         d="m 158.58724,354.41531 c -1.28306,-1.26931 -2.59885,-2.56984 -3.875,-3.875 l 0.7,-0.725 2.275,2.325 -5.225,-24.65 0.875,-0.15 5.2,24.425 1.05,-2.825 c 0.36535,0.13651 0.56299,0.22555 0.95,0.375 -0.65582,1.69778 -1.30363,3.43047 -1.95,5.1 z"
         style="fill:#000000;fill-opacity:1;fill-rule:nonzero;stroke:none" /><path
         id="path86"
         transform="matrix(0.8,0,0,-0.8,0,421)"
         d="m 77.15625,76.34375 -0.5625,0.34375 -0.34375,0.625 0,0.65625 0.09375,0.53125 0.34375,0.625 0.46875,0.375 0.625,0.25 0.625,0 0.53125,-0.53125 0.28125,-0.46875 0.09375,-0.53125 0,-0.53125 -0.09375,-0.28125 -0.375,-0.4375 -0.4375,-0.375 -0.53125,-0.25 -0.65625,0 -0.0625,0 z"
         style="fill:#ff0000;fill-opacity:1;fill-rule:nonzero;stroke:none"
         inkscape:connector-curvature="0" /><path
         id="path96"
         transform="matrix(0.8,0,0,-0.8,0,421)"
         d="m 199.71875,76.0625 -0.53125,0.375 -0.28125,0.625 0,0.625 0.0937,0.53125 0.28125,0.625 0.53125,0.375 0.53125,0.28125 0.71875,0 0.5625,-0.46875 0.25,-0.4375 0.1875,-0.625 -0.0937,-0.625 -0.4375,-0.65625 -0.46875,-0.34375 -0.625,-0.28125 -0.625,0 -0.0937,0 z"
         style="fill:#ff0000;fill-opacity:1;fill-rule:nonzero;stroke:none"
         inkscape:connector-curvature="0" /></g><g
       id="g5415"
       transform="translate(0,-1.2109375e-6)"><path
         d="m 2.46172,140.14101 231.48,0 0,71.784 -231.48,0 0,-71.784 z"
         style="fill:#ffffff;fill-opacity:1;fill-rule:evenodd;stroke:none"
         id="path104"
         inkscape:connector-curvature="0" /><path
         d="m 234.374,211.92501 -0.432,0.432 -231.48028,0 0,-0.864 231.48028,0 -0.432,0.432 0.864,0 0,0.432 -0.432,0 0.432,-0.432"
         style="fill:#000000;fill-opacity:1;fill-rule:nonzero;stroke:none"
         id="path106"
         inkscape:connector-curvature="0" /><path
         d="m 233.942,139.70901 0.432,0.432 0,71.784 -0.864,0 0,-71.784 0.432,0.432 0,-0.864 0.432,0 0,0.432 -0.432,-0.432"
         style="fill:#000000;fill-opacity:1;fill-rule:nonzero;stroke:none"
         id="path108"
         inkscape:connector-curvature="0" /><path
         d="m 2.02969,140.14101 0.43203,-0.432 231.48028,0 0,0.864 -231.48028,0 0.43203,-0.432 -0.86406,0 0,-0.432 0.43203,0 -0.43203,0.432"
         style="fill:#000000;fill-opacity:1;fill-rule:nonzero;stroke:none"
         id="path110"
         inkscape:connector-curvature="0" /><path
         d="m 2.46172,212.35701 -0.43203,-0.432 0,-71.784 0.86406,0 0,71.784 -0.43203,-0.432 0,0.864 -0.43203,0 0,-0.432 0.43203,0.432"
         style="fill:#000000;fill-opacity:1;fill-rule:nonzero;stroke:none"
         id="path112"
         inkscape:connector-curvature="0" /><path
         d="m 79.934,247.70901 1.5117,1.512 1.6563,1.296 1.8,1.224 1.9437,1.008 1.9441,0.864 2.0879,0.72 2.1602,0.504 2.1598,0.36 2.232,0.216 2.1601,0.072 2.2322,-0.144 2.16,-0.36 2.088,-0.504 2.016,-0.648 1.944,-0.864 1.872,-1.08 2.592,-1.584 2.664,-1.656 2.664,-1.656 2.664,-1.656 2.664,-1.656 2.664,-1.728 2.664,-1.656 2.664,-1.728 2.736,-1.728 2.664,-1.728 2.664,-1.728 2.664,-1.728 2.664,-1.728 2.664,-1.728 2.592,-1.728 2.664,-1.656 2.592,-1.728 2.592,-1.728 2.52,-1.728 2.52,-1.656 2.52,-1.656 2.52,-1.728 2.448,-1.656 2.376,-1.584 2.376,-1.656 2.376,-1.584 2.304,-1.584 2.304,-1.584 2.16,-1.512 2.232,-1.512 2.088,-1.512 2.088,-1.44 1.08,-0.936 0.792,-1.08 0.72,-1.224 0.432,-1.224 0.288,-1.296 0.072,-1.296 -0.144,-1.224 -0.288,-1.152 -0.504,-1.08 -0.72,-0.864 -0.936,-0.648 -1.08,-0.432 -1.368,-0.144 -1.512,0.216 -1.656,0.504 -1.944,0.936 -2.376,1.368 -2.304,1.44 -2.376,1.44 -2.376,1.368 -2.304,1.44 -2.376,1.44 -2.376,1.44 -2.304,1.44 -2.376,1.44 -2.304,1.44 -2.376,1.44 -2.376,1.512 -2.304,1.44 -2.376,1.44 -2.304,1.44 -2.376,1.512 -2.376,1.44 -2.304,1.44 -2.376,1.44 -2.376,1.44 -2.304,1.512 -2.376,1.44 -2.376,1.44 -2.376,1.44 -2.304,1.44 -2.376,1.44 -2.376,1.44 -2.376,1.44 -2.376,1.368 -2.376,1.44 -2.376,1.44 -2.376,1.368 -0.936,0.432 -1.008,0.432 -1.08,0.432 -1.08,0.36 -1.08,0.36 -1.152,0.216 -1.152,0.216 -1.08,0.144 -0.936,0.072 -2.0882,0 -1.0078,-0.144 -1.0082,-0.144 -1.0078,-0.216 -1.0082,-0.288 -0.8641,-0.288 -1.0797,-0.432 -1.0082,-0.504 -1.0078,-0.576 -1.0082,-0.648 -0.8641,-0.648 -0.864,-0.648 -0.7918,-0.72 -0.72,-0.648 -1.9441,-1.944 -1.8719,-1.944 -1.9441,-1.944 -1.8719,-2.016 -1.9441,-1.944 -1.8719,-2.016 -1.8723,-1.944 -1.8718,-2.016 -1.9438,-2.016 -1.8723,-1.944 -1.8718,-2.016 -1.8719,-2.016 -1.8723,-2.016 -1.8719,-2.016 -1.8718,-2.016 -1.8723,-2.016 -1.8719,-2.016 -1.8718,-2.016 -1.8723,-2.016 -1.8719,-2.016 -1.8719,-2.016 -1.8722,-2.016 -1.8719,-1.944 -1.8719,-2.016 -1.8722,-2.016 -1.8719,-2.016 -1.8719,-2.016 -1.8723,-1.944 -1.8718,-2.016 -1.8719,-1.944 -1.9441,-2.016 -1.8719,-1.944 -1.5121,-1.368 -1.5121,-0.864 -1.368,-0.576 -1.2957,-0.144 -1.1524,0.072 -1.0796,0.432 -0.9364,0.648 -0.7918,0.864 -0.648,1.008 -0.5039,1.152 -0.2879,1.224 -0.0723,1.296 0.0723,1.296 0.3598,1.296 0.5761,1.296 0.7918,1.152 1.8723,2.304 1.8719,2.304 1.9437,2.232 1.8723,2.304 1.9437,2.304 1.8723,2.304 1.9437,2.232 1.9442,2.304 1.9441,2.304 1.9438,2.232 1.9441,2.304 1.9442,2.232 2.016,2.232 1.9437,2.304 1.9442,2.232 2.016,2.304 1.9437,2.232 2.016,2.232 2.0161,2.232 1.9441,2.232 2.016,2.232 2.016,2.232 2.016,2.232 2.0161,2.232 2.016,2.232 2.016,2.232 2.016,2.16 2.016,2.232 2.016,2.232 2.0161,2.16 2.016,2.232 2.016,2.16"
         style="fill:#ffffff;fill-opacity:1;fill-rule:evenodd;stroke:none"
         id="path114"
         inkscape:connector-curvature="0" /><path
         d="m 112.118,252.24501 0,0 -1.872,1.08 -2.016,0.936 -2.016,0.648 -2.16,0.504 -2.16,0.36 -2.3042,0.144 -2.1601,-0.072 -2.3039,-0.216 -2.1602,-0.36 -2.2316,-0.504 -2.0883,-0.72 -2.016,-0.936 -1.9438,-1.008 -1.8722,-1.224 -1.6559,-1.368 -1.5121,-1.512 0.5762,-0.576 1.5121,1.512 1.6558,1.224 1.7282,1.224 1.9437,1.008 1.8723,0.792 2.0879,0.72 2.0879,0.504 2.1601,0.36 2.1598,0.216 2.1601,0.072 2.1602,-0.144 2.16,-0.36 2.016,-0.504 2.016,-0.648 1.872,-0.792 1.872,-1.08 0,0 0.432,0.72"
         style="fill:#000000;fill-opacity:1;fill-rule:nonzero;stroke:none"
         id="path116"
         inkscape:connector-curvature="0" /><path
         d="m 192.758,199.32501 -0.072,0 -2.088,1.44 -2.088,1.512 -2.232,1.512 -2.16,1.512 -2.304,1.584 -2.304,1.584 -2.376,1.584 -2.376,1.656 -2.376,1.584 -2.448,1.656 -2.52,1.728 -2.52,1.656 -2.52,1.656 -2.52,1.728 -2.592,1.728 -2.592,1.728 -2.664,1.656 -2.592,1.728 -2.664,1.728 -2.664,1.728 -2.664,1.728 -2.664,1.728 -2.664,1.728 -2.736,1.728 -2.664,1.728 -2.664,1.656 -2.664,1.728 -2.664,1.656 -2.664,1.656 -2.664,1.656 -2.664,1.656 -2.592,1.584 -0.432,-0.72 2.592,-1.584 2.664,-1.656 2.664,-1.656 2.664,-1.656 2.664,-1.656 2.664,-1.728 2.664,-1.656 2.664,-1.728 2.736,-1.728 2.664,-1.728 2.664,-1.728 2.664,-1.728 2.664,-1.728 2.664,-1.728 2.592,-1.728 2.664,-1.656 2.592,-1.728 2.592,-1.728 2.52,-1.728 2.52,-1.656 2.52,-1.656 2.52,-1.728 2.448,-1.656 2.376,-1.584 2.376,-1.656 2.376,-1.584 2.304,-1.584 2.304,-1.584 2.16,-1.512 2.232,-1.512 2.088,-1.512 2.088,-1.44 -0.072,0 0.576,0.72"
         style="fill:#000000;fill-opacity:1;fill-rule:nonzero;stroke:none"
         id="path118"
         inkscape:connector-curvature="0" /><path
         d="m 185.486,187.66101 0,0 2.016,-1.008 1.728,-0.504 1.584,-0.216 1.44,0.144 1.224,0.504 1.008,0.72 0.792,0.936 0.576,1.152 0.288,1.224 0.144,1.296 -0.072,1.368 -0.288,1.368 -0.504,1.296 -0.72,1.224 -0.864,1.152 -1.08,1.008 -0.576,-0.72 1.08,-0.864 0.72,-1.008 0.72,-1.224 0.36,-1.152 0.288,-1.224 0.072,-1.224 -0.144,-1.152 -0.288,-1.08 -0.432,-1.008 -0.648,-0.792 -0.864,-0.576 -0.936,-0.36 -1.296,-0.144 -1.44,0.216 -1.584,0.504 -1.872,0.864 0,0 -0.432,-0.72"
         style="fill:#000000;fill-opacity:1;fill-rule:nonzero;stroke:none"
         id="path120"
         inkscape:connector-curvature="0" /><path
         d="m 110.102,233.66901 0,0 2.376,-1.368 2.376,-1.44 2.376,-1.44 2.376,-1.368 2.376,-1.44 2.376,-1.44 2.376,-1.44 2.304,-1.44 2.376,-1.44 2.376,-1.44 2.376,-1.44 2.304,-1.512 2.376,-1.44 2.376,-1.44 2.304,-1.44 2.376,-1.44 2.376,-1.512 2.304,-1.44 2.376,-1.44 2.304,-1.44 2.376,-1.512 2.376,-1.44 2.304,-1.44 2.376,-1.44 2.304,-1.44 2.376,-1.44 2.376,-1.44 2.304,-1.44 2.376,-1.368 2.376,-1.44 2.304,-1.44 2.376,-1.368 0.432,0.72 -2.376,1.368 -2.304,1.44 -2.376,1.44 -2.376,1.368 -2.304,1.44 -2.376,1.44 -2.376,1.44 -2.304,1.44 -2.376,1.44 -2.304,1.44 -2.376,1.44 -2.376,1.512 -2.304,1.44 -2.376,1.44 -2.304,1.44 -2.376,1.512 -2.376,1.44 -2.304,1.44 -2.376,1.44 -2.376,1.44 -2.304,1.512 -2.376,1.44 -2.376,1.44 -2.376,1.44 -2.304,1.44 -2.376,1.44 -2.376,1.44 -2.376,1.44 -2.376,1.368 -2.376,1.44 -2.376,1.44 -2.376,1.368 0,0 -0.432,-0.72"
         style="fill:#000000;fill-opacity:1;fill-rule:nonzero;stroke:none"
         id="path122"
         inkscape:connector-curvature="0" /><path
         d="m 101.678,236.18901 0.072,0 1.008,-0.144 1.152,-0.216 1.08,-0.216 1.08,-0.36 1.08,-0.36 1.08,-0.432 1.008,-0.36 0.864,-0.432 0.432,0.72 -1.008,0.432 -1.008,0.504 -1.08,0.432 -1.08,0.36 -1.08,0.36 -1.224,0.216 -1.152,0.216 -1.152,0.144 0.072,0 -0.144,-0.864"
         style="fill:#000000;fill-opacity:1;fill-rule:nonzero;stroke:none"
         id="path124"
         inkscape:connector-curvature="0" /><path
         d="m 93.9738,235.18101 0,0 0.8641,0.288 0.9359,0.288 1.0078,0.216 1.0082,0.144 0.936,0.144 2.0882,0 0.864,-0.072 0.144,0.864 -1.008,0.072 -2.0882,0 -1.0801,-0.144 -1.0078,-0.144 -1.0082,-0.216 -1.0797,-0.288 -0.8641,-0.288 0,0 0.2879,-0.864"
         style="fill:#000000;fill-opacity:1;fill-rule:nonzero;stroke:none"
         id="path126"
         inkscape:connector-curvature="0" /><path
         d="m 86.7738,230.50101 0,0 0.72,0.648 0.7921,0.648 0.8637,0.648 0.7922,0.648 1.0082,0.648 1.0078,0.576 0.936,0.504 1.08,0.36 -0.2879,0.864 -1.08,-0.504 -1.0801,-0.504 -1.0078,-0.576 -1.0082,-0.648 -0.936,-0.648 -0.864,-0.648 -0.7918,-0.792 -0.7203,-0.648 0,0 0.5761,-0.576"
         style="fill:#000000;fill-opacity:1;fill-rule:nonzero;stroke:none"
         id="path128"
         inkscape:connector-curvature="0" /><path
         d="m 26.5098,166.70901 0,0 1.8718,1.944 1.9442,2.016 1.8719,1.944 1.8722,2.016 1.8719,1.944 1.8719,2.016 1.8722,2.016 1.8719,2.016 1.8719,2.016 1.8723,1.944 1.8718,2.016 1.8719,2.016 1.8723,2.016 1.8718,2.016 1.8719,2.016 1.8723,2.016 1.8719,2.016 1.8718,2.016 1.8723,2.016 1.8719,2.016 1.8719,2.016 1.8718,2.016 1.8723,1.944 1.9437,2.016 1.8723,2.016 1.8719,1.944 1.8719,2.016 1.9441,1.944 1.8719,2.016 1.9441,1.944 1.8719,1.944 1.9441,1.944 -0.5761,0.576 -1.9438,-1.944 -1.8723,-1.944 -1.9437,-1.944 -1.8723,-2.016 -1.9437,-1.944 -1.8719,-2.016 -1.8723,-1.944 -1.8718,-2.016 -1.9442,-2.016 -1.8719,-1.944 -1.8718,-2.016 -1.8723,-2.016 -1.8719,-2.016 -1.8718,-2.016 -1.8723,-2.016 -1.8719,-2.016 -1.8719,-2.016 -1.8722,-2.016 -1.8719,-2.016 -1.8719,-2.016 -1.8722,-2.016 -1.8719,-2.016 -1.8719,-1.944 -1.8723,-2.016 -1.8718,-2.016 -1.8719,-2.016 -1.8723,-2.016 -1.8718,-1.944 -1.8719,-2.016 -1.8719,-1.944 -1.9441,-2.016 -1.8719,-1.944 0,0 0.5758,-0.576"
         style="fill:#000000;fill-opacity:1;fill-rule:nonzero;stroke:none"
         id="path130"
         inkscape:connector-curvature="0" /><path
         d="m 16.502,176.06901 0,0 -0.7922,-1.224 -0.6481,-1.368 -0.3597,-1.368 -0.0723,-1.368 0.0723,-1.368 0.2878,-1.296 0.5758,-1.224 0.6481,-1.08 0.864,-0.936 1.0082,-0.648 1.2239,-0.504 1.2242,-0.072 1.4398,0.144 1.4399,0.648 1.584,0.864 1.5121,1.44 -0.5758,0.576 -1.5121,-1.296 -1.4403,-0.864 -1.2957,-0.504 -1.1519,-0.144 -1.0801,0.072 -0.9359,0.36 -0.8641,0.648 -0.7199,0.792 -0.6481,0.936 -0.432,1.08 -0.2883,1.152 -0.0718,1.224 0.0718,1.224 0.3602,1.224 0.5039,1.224 0.7922,1.08 0,0 -0.7199,0.576"
         style="fill:#000000;fill-opacity:1;fill-rule:nonzero;stroke:none"
         id="path132"
         inkscape:connector-curvature="0" /><path
         d="m 79.6457,247.99701 0,0 -2.016,-2.16 -2.016,-2.232 -2.016,-2.16 -2.0161,-2.232 -2.016,-2.232 -2.016,-2.16 -2.0156,-2.232 -2.016,-2.232 -2.016,-2.232 -2.0161,-2.232 -2.016,-2.232 -2.016,-2.232 -1.9441,-2.232 -2.016,-2.232 -2.0161,-2.232 -2.016,-2.232 -2.016,-2.304 -1.9437,-2.232 -1.9442,-2.304 -1.9441,-2.232 -2.016,-2.232 -1.9438,-2.304 -1.9441,-2.232 -1.9442,-2.304 -1.9437,-2.304 -1.9442,-2.232 -1.8718,-2.304 -1.9442,-2.304 -1.8719,-2.304 -1.9441,-2.232 -1.8719,-2.304 -1.8718,-2.304 0.7199,-0.576 1.8719,2.304 1.8718,2.304 1.9442,2.232 1.8718,2.304 1.9442,2.304 1.8719,2.304 1.9441,2.232 1.9441,2.304 1.9438,2.304 1.9441,2.232 1.9442,2.304 1.8718,2.232 2.0879,2.232 1.9442,2.304 1.9437,2.232 2.016,2.304 1.8723,2.232 2.016,2.232 2.016,2.232 1.9438,2.232 2.016,2.232 2.016,2.232 2.016,2.232 2.0161,2.232 2.016,2.232 2.016,2.232 2.016,2.16 2.016,2.232 2.016,2.232 2.016,2.16 2.0161,2.232 2.016,2.16 0,0 -0.5762,0.576"
         style="fill:#000000;fill-opacity:1;fill-rule:nonzero;stroke:none"
         id="path134"
         inkscape:connector-curvature="0" /><path
         d="m 119.246,244.32501 -1.944,1.296 -1.944,1.224 -2.088,1.152 -2.016,1.008 -2.16,0.936 -2.088,0.72 -2.088,0.648 -2.16,0.432 -2.088,0.144 -2.1602,0 -2.0879,-0.216 -2.016,-0.576 -2.0161,-0.792 -1.9441,-1.152 -1.9437,-1.44 -1.8,-1.8 -2.0161,-2.232 -2.016,-2.16 -2.0883,-2.232 -2.016,-2.16 -2.016,-2.232 -2.0879,-2.232 -2.016,-2.232 -2.0879,-2.16 -2.016,-2.232 -2.0879,-2.232 -2.016,-2.232 -2.0879,-2.232 -2.016,-2.16 -2.0883,-2.232 -2.0879,-2.232 -2.016,-2.232 -2.0879,-2.232 -2.016,-2.232 -2.0879,-2.232 -2.016,-2.232 -2.016,-2.304 -2.0883,-2.232 -2.016,-2.232 -2.016,-2.232 -2.0161,-2.232 -2.016,-2.304 -2.016,-2.232 -2.0156,-2.232 -2.016,-2.304 -2.016,-2.232 -1.9442,-2.304 -2.016,-2.232 -0.432,-0.576 -0.3598,-0.648 -0.2883,-0.792 -0.2879,-0.864 -0.216,-0.864 -0.1441,-0.864 -0.0719,-0.792 0,-0.792 0.1441,-0.648 0.2161,-0.504 0.3597,-0.36 0.4321,-0.144 0.648,0.144 0.7922,0.36 0.9359,0.72 1.0797,1.008 60.3363,63.144 1.584,1.584 1.5117,1.512 1.6563,1.368 1.584,1.296 1.584,1.152 1.6558,1.008 1.6563,0.792 1.7277,0.72 1.6563,0.432 1.728,0.36 1.8,0.072 1.8,-0.072 1.8,-0.36 1.872,-0.576 1.872,-0.792 1.944,-1.08 2.232,-1.44 2.232,-1.44 2.304,-1.44 2.232,-1.44 2.232,-1.44 2.304,-1.44 2.232,-1.44 2.304,-1.44 2.232,-1.44 2.304,-1.44 2.232,-1.44 2.304,-1.44 2.232,-1.368 2.304,-1.44 2.232,-1.44 2.304,-1.44 2.232,-1.44 2.304,-1.44 2.304,-1.44 2.232,-1.368 2.304,-1.44 2.304,-1.44 2.232,-1.368 2.304,-1.44 2.304,-1.44 2.232,-1.368 2.304,-1.44 2.304,-1.368 2.304,-1.44 2.232,-1.368 2.304,-1.44 2.304,-1.368 0.72,-0.504 0.792,-0.504 0.792,-0.504 0.792,-0.432 0.864,-0.432 0.864,-0.36 0.864,-0.216 0.936,-0.144 0.36,0 0.288,0.144 0.36,0.216 0.288,0.36 0.216,0.288 0.144,0.432 0.072,0.36 -0.072,0.288 -0.144,0.576 -0.144,0.504 -0.288,0.504 -0.288,0.504 -0.36,0.432 -0.432,0.432 -0.504,0.36 -0.504,0.36 -71.208,47.808"
         style="fill:#ffffff;fill-opacity:1;fill-rule:evenodd;stroke:none"
         id="path136"
         inkscape:connector-curvature="0" /><path
         d="m 86.9898,245.62101 0,0 1.8,1.728 1.8719,1.44 1.9442,1.152 1.9441,0.72 1.9438,0.576 2.016,0.216 2.1602,0 2.016,-0.144 2.16,-0.432 2.016,-0.648 2.088,-0.72 2.088,-0.864 2.016,-1.008 2.088,-1.152 1.944,-1.224 1.944,-1.296 0.432,0.72 -1.944,1.296 -1.944,1.224 -2.088,1.152 -2.016,1.008 -2.232,1.008 -2.088,0.72 -2.16,0.648 -2.16,0.432 -2.16,0.144 -2.1602,0 -2.1602,-0.216 -2.0879,-0.576 -2.0879,-0.864 -1.9441,-1.152 -2.016,-1.44 -1.8,-1.872 0,0 0.5761,-0.576"
         style="fill:#000000;fill-opacity:1;fill-rule:nonzero;stroke:none"
         id="path138"
         inkscape:connector-curvature="0" /><path
         d="m 21.8297,174.19701 0,0 2.016,2.232 1.9441,2.304 2.0161,2.232 2.016,2.304 2.016,2.232 2.016,2.232 2.016,2.304 2.016,2.232 2.0161,2.232 2.016,2.232 2.0879,2.232 2.016,2.304 2.016,2.232 2.0879,2.232 2.016,2.232 2.0879,2.232 2.016,2.232 2.0883,2.232 2.0879,2.232 2.016,2.16 2.0879,2.232 2.016,2.232 2.0879,2.232 2.016,2.232 2.0883,2.16 2.016,2.232 2.0879,2.232 2.016,2.232 2.016,2.16 2.0879,2.232 2.016,2.16 2.016,2.232 -0.5761,0.576 -2.016,-2.232 -2.0161,-2.16 -2.0878,-2.232 -2.0161,-2.16 -2.016,-2.232 -2.0879,-2.232 -2.016,-2.232 -2.0879,-2.16 -2.016,-2.232 -2.0883,-2.232 -2.0156,-2.232 -2.0883,-2.232 -2.016,-2.16 -2.0879,-2.232 -2.0879,-2.232 -2.016,-2.232 -2.0883,-2.232 -2.016,-2.232 -2.0879,-2.232 -2.016,-2.232 -2.016,-2.304 -2.0879,-2.232 -2.016,-2.232 -2.016,-2.232 -2.016,-2.232 -2.0161,-2.304 -2.016,-2.232 -2.016,-2.232 -2.016,-2.304 -2.016,-2.232 -1.9438,-2.304 -2.016,-2.232 0,0 0.5758,-0.576"
         style="fill:#000000;fill-opacity:1;fill-rule:nonzero;stroke:none"
         id="path140"
         inkscape:connector-curvature="0" /><path
         d="m 24.0617,169.15701 0,0 -1.0801,-0.936 -0.8636,-0.72 -0.7203,-0.288 -0.5039,-0.144 -0.2161,0.072 -0.216,0.216 -0.1437,0.432 -0.1442,0.576 0,0.72 0.0719,0.72 0.1441,0.864 0.2161,0.792 0.2879,0.864 0.216,0.792 0.3601,0.576 0.3598,0.504 -0.5758,0.576 -0.5039,-0.648 -0.3602,-0.72 -0.3601,-0.792 -0.2879,-0.864 -0.216,-0.936 -0.1442,-0.864 -0.0718,-0.864 0,-0.864 0.1441,-0.72 0.2879,-0.576 0.5039,-0.504 0.6481,-0.216 0.7921,0.144 0.8637,0.432 1.0082,0.72 1.0801,1.08 0,0 -0.5762,0.576"
         style="fill:#000000;fill-opacity:1;fill-rule:nonzero;stroke:none"
         id="path142"
         inkscape:connector-curvature="0" /><path
         d="m 84.3977,232.30101 0,0 -60.336,-63.144 0.5762,-0.576 60.3359,63.144 0,0 -0.5761,0.576"
         style="fill:#000000;fill-opacity:1;fill-rule:nonzero;stroke:none"
         id="path144"
         inkscape:connector-curvature="0" /><path
         d="m 112.334,239.78901 0,0 -1.944,1.08 -1.944,0.864 -1.944,0.576 -1.8,0.36 -1.872,0.072 -1.872,-0.072 -1.7283,-0.36 -1.7277,-0.432 -1.7282,-0.792 -1.7281,-0.792 -1.6559,-1.008 -1.6558,-1.152 -1.5844,-1.296 -1.6558,-1.44 -1.5122,-1.512 -1.5839,-1.584 0.5761,-0.576 1.584,1.584 1.5121,1.512 1.6559,1.296 1.584,1.296 1.5121,1.152 1.6558,1.008 1.584,0.792 1.7281,0.648 1.584,0.432 1.7282,0.36 1.728,0.072 1.728,-0.072 1.8,-0.36 1.8,-0.576 1.8,-0.72 1.944,-1.08 0,0 0.432,0.72"
         style="fill:#000000;fill-opacity:1;fill-rule:nonzero;stroke:none"
         id="path146"
         inkscape:connector-curvature="0" /><path
         d="m 185.054,194.21301 0,0 -2.304,1.368 -2.304,1.44 -2.232,1.368 -2.304,1.44 -2.304,1.368 -2.304,1.44 -2.232,1.368 -2.304,1.44 -2.304,1.44 -2.232,1.368 -2.304,1.44 -2.304,1.44 -2.232,1.368 -2.304,1.44 -2.304,1.44 -2.232,1.44 -2.304,1.44 -2.232,1.44 -2.304,1.44 -2.232,1.368 -2.304,1.44 -2.232,1.44 -2.304,1.44 -2.232,1.44 -2.304,1.44 -2.232,1.44 -2.304,1.44 -2.232,1.44 -2.232,1.44 -2.304,1.44 -2.232,1.44 -2.232,1.44 -0.432,-0.72 2.232,-1.44 2.232,-1.44 2.304,-1.44 2.232,-1.44 2.232,-1.44 2.304,-1.44 2.232,-1.44 2.304,-1.44 2.232,-1.44 2.304,-1.44 2.232,-1.44 2.304,-1.44 2.232,-1.368 2.304,-1.44 2.232,-1.44 2.304,-1.44 2.232,-1.44 2.304,-1.44 2.304,-1.44 2.232,-1.368 2.304,-1.44 2.304,-1.44 2.232,-1.368 2.304,-1.44 2.304,-1.44 2.232,-1.368 2.304,-1.44 2.304,-1.368 2.304,-1.44 2.232,-1.368 2.304,-1.44 2.304,-1.368 0,0 0.432,0.72"
         style="fill:#000000;fill-opacity:1;fill-rule:nonzero;stroke:none"
         id="path148"
         inkscape:connector-curvature="0" /><path
         d="m 191.534,191.18901 0,0 -0.936,0.144 -0.792,0.216 -0.864,0.288 -0.792,0.432 -0.792,0.432 -0.792,0.504 -0.792,0.504 -0.72,0.504 -0.432,-0.72 0.72,-0.504 0.792,-0.504 0.792,-0.504 0.792,-0.432 0.936,-0.432 0.864,-0.432 0.936,-0.216 0.936,-0.144 0,0 0.144,0.864"
         style="fill:#000000;fill-opacity:1;fill-rule:nonzero;stroke:none"
         id="path150"
         inkscape:connector-curvature="0" /><path
         d="m 192.686,192.77301 0,-0.072 0.072,-0.144 -0.072,-0.216 -0.072,-0.36 -0.216,-0.216 -0.216,-0.36 -0.288,-0.144 -0.144,-0.072 -0.216,0 -0.144,-0.864 0.504,0 0.432,0.216 0.432,0.288 0.36,0.36 0.216,0.36 0.216,0.504 0.072,0.504 -0.072,0.432 0,-0.072 -0.864,-0.144"
         style="fill:#000000;fill-opacity:1;fill-rule:nonzero;stroke:none"
         id="path152"
         inkscape:connector-curvature="0" /><path
         d="m 190.238,196.15701 0,0 0.504,-0.36 0.432,-0.36 0.432,-0.36 0.288,-0.36 0.288,-0.504 0.216,-0.432 0.144,-0.504 0.144,-0.504 0.864,0.144 -0.144,0.648 -0.144,0.504 -0.36,0.576 -0.288,0.504 -0.432,0.504 -0.432,0.504 -0.576,0.36 -0.504,0.36 0,0 -0.432,-0.72"
         style="fill:#000000;fill-opacity:1;fill-rule:nonzero;stroke:none"
         id="path154"
         inkscape:connector-curvature="0" /><path
         d="m 119.03,243.96501 0,0 71.208,-47.808 0.432,0.72 -71.208,47.808 0,0 -0.432,-0.72"
         style="fill:#000000;fill-opacity:1;fill-rule:nonzero;stroke:none"
         id="path156"
         inkscape:connector-curvature="0" /><path
         inkscape:connector-curvature="0"
         id="path158"
         d="m 69.05,206.5 -0.275,-0.725 -1.65,-4.4 0.925,-0.35 1.075,2.875 5.2,-24.05 0.85,0.15 -5.25,24.25 2.3,-2.375 0.375,0.375 0.35,0.35 -3.3,3.4 -0.6,0.5 z"
         style="fill:#000000;fill-opacity:1;fill-rule:nonzero;stroke:none" /><path
         inkscape:connector-curvature="0"
         id="path166"
         d="m 148.05,208.6 -0.3,-0.65 -2.075,-4.25 0.925,-0.5 1.35,2.85 2.975,-23.3 0.875,0.15 -3,23.325 2.05,-2.45 0.375,0.275 0.425,0.375 -3.1,3.6 -0.5,0.575 z"
         style="fill:#000000;fill-opacity:1;fill-rule:nonzero;stroke:none" /><path
         id="path176"
         transform="matrix(0.8,0,0,-0.8,0,421)"
         d="m 62.375,282.6875 -0.15625,0.0937 -0.46875,0.4375 -0.25,0.53125 0,0.5625 0.15625,0.625 0.1875,0.4375 0.46875,0.53125 0.625,0.28125 0.71875,-0.0937 L 63.75,286 l 0.4375,-0.4375 0.28125,-0.46875 0.09375,-0.53125 -0.09375,-0.625 -0.46875,-0.625 -0.4375,-0.375 -0.625,-0.25 -0.5625,0 z"
         style="fill:#ff0000;fill-opacity:1;fill-rule:nonzero;stroke:none"
         inkscape:connector-curvature="0" /><path
         id="path186"
         transform="matrix(0.8,0,0,-0.8,0,421)"
         d="m 84.625,261.09375 -0.625,0.4375 -0.28125,0.53125 -0.09375,0.53125 0.09375,0.65625 0.34375,0.625 0.5625,0.4375 0.625,0.28125 0.71875,-0.0937 0.09375,-0.0937 0.4375,-0.4375 0.28125,-0.46875 0.09375,-0.625 -0.09375,-0.625 -0.375,-0.53125 -0.53125,-0.28125 -0.4375,-0.28125 -0.625,-0.0625 -0.1875,0 z"
         style="fill:#ff0000;fill-opacity:1;fill-rule:nonzero;stroke:none"
         inkscape:connector-curvature="0" /><path
         id="path196"
         transform="matrix(0.8,0,0,-0.8,0,421)"
         d="m 184.0625,259.1875 -0.53125,0.375 -0.375,0.53125 -0.0937,0.625 0.0937,0.625 0.375,0.53125 0.4375,0.375 0.625,0.28125 0.46875,0 0.0937,0 0.625,-0.375 0.28125,-0.53125 0.0625,-0.53125 -0.0625,-0.65625 -0.28125,-0.625 -0.53125,-0.34375 -0.5625,-0.28125 -0.53125,0 -0.0937,0 z"
         style="fill:#ff0000;fill-opacity:1;fill-rule:nonzero;stroke:none"
         inkscape:connector-curvature="0" /><path
         id="path206"
         transform="matrix(0.8,0,0,-0.8,0,421)"
         d="m 165.0625,248.375 -0.53125,0.5625 -0.25,0.4375 -0.0937,0.71875 0.25,0.625 -0.0937,-0.15625 0.28125,0.625 0.375,0.4375 0.4375,0.28125 0.71875,0 0.53125,-0.46875 0.46875,-0.625 0.0937,-0.625 -0.1875,-0.71875 -0.375,-0.53125 -0.4375,-0.375 -0.53125,-0.1875 -0.65625,0 z"
         style="fill:#ff0000;fill-opacity:1;fill-rule:nonzero;stroke:none"
         inkscape:connector-curvature="0" /></g><g
       id="g5450"><path
         d="m 100.55831,92.2891 1.656,1.2957 1.728,1.08 1.872,0.936 1.944,0.7922 2.088,0.5758 2.088,0.432 2.088,0.216 2.16,0.0723 2.16,-0.0723 2.088,-0.2879 2.088,-0.432 2.088,-0.5758 1.944,-0.7922 1.872,-0.9359 1.8,-1.152 1.656,-1.2961 2.304,-1.9441 2.304,-1.9438 2.304,-1.9441 2.304,-2.016 2.304,-2.016 2.376,-2.0161 2.304,-2.016 2.376,-2.016 2.304,-2.0879 2.304,-2.016 2.376,-2.0879 2.304,-2.0883 2.304,-2.0156 2.304,-2.0883 2.304,-2.016 2.232,-2.0879 2.304,-2.016 2.232,-2.016 2.232,-2.016 2.16,-2.016 2.232,-2.0161 2.088,-1.9437 2.16,-2.016 2.088,-1.9442 2.088,-1.8718 2.016,-1.9442 2.016,-1.8719 1.944,-1.8 1.944,-1.8 1.872,-1.8 1.872,-1.7281 1.8,-1.7281 0.864,-1.0801 0.72,-1.2238 0.504,-1.2961 0.216,-1.2957 0.144,-1.2961 -0.144,-1.2961 -0.288,-1.2238 -0.432,-1.0801 -0.648,-0.9359 -0.792,-0.7922 -1.008,-0.5758 -1.08,-0.216 -1.296,0 -1.44,0.3597 -1.512,0.7922 -1.728,1.152 -2.088,1.7281 -2.016,1.6559 -2.088,1.7281 -2.088,1.7277 -2.088,1.7282 -2.016,1.7281 -2.088,1.7277 -2.016,1.7281 -2.088,1.8 -2.088,1.7282 -2.016,1.7277 -2.088,1.7281 -2.016,1.8 -2.088,1.7281 -2.016,1.7278 -2.088,1.8 -2.016,1.7281 -2.088,1.7281 -2.088,1.7278 -2.016,1.8 -2.088,1.7281 -2.088,1.7281 -2.016,1.7278 -2.088,1.8 -2.088,1.7281 -2.016,1.7281 -2.088,1.7277 -2.088,1.7282 -2.088,1.7281 -2.088,1.7277 -2.088,1.6563 -2.088,1.7281 -0.792,0.5758 -0.936,0.5761 -0.936,0.5758 -1.008,0.5039 -1.08,0.4321 -1.152,0.432 -1.08,0.3602 -1.08,0.2878 -0.864,0.1442 -0.936,0.1437 -0.936,0.0723 -1.008,0.0719 -1.008,0 -1.008,-0.0719 -0.936,-0.1441 -0.936,-0.2161 -1.08,-0.2878 -1.08,-0.3602 -1.008,-0.432 -1.008,-0.5039 -1.008,-0.5039 -0.864,-0.5762 -0.864,-0.5758 -0.72,-0.5762 -2.088,-1.6558 -2.16,-1.7282 -2.088298,-1.6558 -2.0879,-1.7281 -2.0879,-1.7282 -2.0879,-1.6558 -2.0883,-1.7281 -2.0879,-1.7278 -2.0879,-1.7281 -2.0883,-1.7281 -2.0878,-1.8 -2.0879,-1.7278 -2.0879,-1.7281 -2.0883,-1.7281 -2.016,-1.7278 -2.0879,-1.8 -2.0879,-1.7281 -2.016,-1.7281 -2.0879,-1.8 -2.0883,-1.7277 -2.0879,-1.7282 -2.016,-1.7281 -2.0879,-1.7277 -2.0883,-1.8 -2.0879,-1.7281 -2.016,-1.7282 -2.0879,-1.7281 -2.0879,-1.6559 -2.0882,-1.7281 -2.0879,-1.7277 -2.0879,-1.7281 -2.0879,-1.6559 -1.6563,-1.152 -1.5121,-0.7203 -1.3679,-0.3597 -1.2957,0 -1.0801,0.2879 -1.0082,0.5039 -0.7918,0.7922 -0.6481,0.9359 -0.5039,1.0801 -0.2883,1.1519 -0.0718,1.2961 0.0718,1.2957 0.2883,1.2961 0.4321,1.2242 0.7199,1.152 0.9359,1.0078 2.0879,2.016 2.1602,2.016 2.1597,2.016 2.0883,2.0161 2.1598,2.016 2.1601,2.016 2.1602,2.016 2.1598,2.016 2.1601,2.016 2.232,2.0161 2.1598,1.9441 2.1602,2.0156 2.232,2.016 2.1598,1.9442 2.232,2.016 2.1601,1.9441 2.2321,1.9438 2.232,2.016 2.232,1.9441 2.1598,1.9442 2.232,1.9437 2.2321,1.9442 2.232,2.016 2.232,1.8719 2.2321,1.9441 2.232,1.9438 2.232,1.9441 2.2321,1.9441 2.232,1.8719 2.3039,1.9441 2.232,1.9438 2.232098,1.8723"
         style="fill:#ffffff;fill-opacity:1;fill-rule:evenodd;stroke:none"
         id="path214"
         inkscape:connector-curvature="0" /><path
         d="m 132.16631,92.5051 0,0 -1.728,1.2957 -1.8,1.1519 -1.944,0.9364 -1.944,0.8636 -2.16,0.5762 -2.088,0.432 -2.16,0.2879 -2.16,0.0723 -2.16,-0.0723 -2.16,-0.216 -2.088,-0.432 -2.16,-0.5758 -1.944,-0.8641 -1.944,-0.9359 -1.728,-1.0801 -1.728,-1.2961 0.576,-0.7199 1.584,1.2961 1.728,1.0801 1.8,0.9359 1.944,0.7199 2.016,0.5758 2.088,0.4321 2.016,0.216 2.16,0.0722 2.16,-0.0722 2.016,-0.2879 2.088,-0.4321 2.016,-0.5757 1.944,-0.7203 1.8,-0.936 1.8,-1.1519 1.584,-1.2961 0,0 0.576,0.7203"
         style="fill:#000000;fill-opacity:1;fill-rule:nonzero;stroke:none"
         id="path216"
         inkscape:connector-curvature="0" /><path
         d="m 202.22231,29.5051 0,0 -1.8,1.7277 -1.872,1.7281 -1.872,1.8 -1.944,1.8 -1.944,1.8 -2.016,1.8719 -2.016,1.9442 -2.088,1.8718 -2.088,1.9442 -2.16,2.016 -2.088,1.9437 -2.232,2.0161 -2.16,2.016 -2.232,2.016 -2.232,2.016 -2.304,2.016 -2.232,2.0883 -2.304,2.0156 -2.304,2.0883 -2.304,2.016 -2.304,2.0879 -2.376,2.0879 -2.304,2.016 -2.304,2.0883 -2.376,2.0879 -2.304,2.016 -2.376,2.016 -2.304,1.9438 -2.304,2.0882 -2.304,1.9438 -2.304,1.9441 -2.304,1.9442 -0.576,-0.7203 2.304,-1.9438 2.304,-1.9441 2.304,-1.9442 2.304,-1.9437 2.304,-2.0883 2.376,-2.0156 2.304,-2.016 2.376,-1.9442 2.304,-2.0879 2.304,-2.016 2.376,-2.0883 2.304,-2.0879 2.304,-2.016 2.304,-2.0879 2.304,-2.016 2.232,-2.0879 2.304,-2.016 2.232,-2.016 2.232,-2.016 2.16,-2.016 2.232,-2.016 2.088,-1.9442 2.16,-2.016 2.088,-1.9438 2.088,-1.8722 2.016,-1.9438 2.016,-1.8722 1.944,-1.8 1.944,-1.8 1.872,-1.8 1.872,-1.7278 1.8,-1.7281 0,0 0.576,0.5762"
         style="fill:#000000;fill-opacity:1;fill-rule:nonzero;stroke:none"
         id="path218"
         inkscape:connector-curvature="0" /><path
         d="m 193.72631,18.8488 0,0 1.8,-1.1519 1.584,-0.8641 1.512,-0.3598 1.44,0 1.152,0.2161 1.152,0.6476 0.864,0.8641 0.648,1.0082 0.504,1.1519 0.288,1.2961 0.144,1.368 -0.144,1.368 -0.216,1.3679 -0.576,1.368 -0.72,1.2238 -0.936,1.1524 -0.576,-0.5762 0.792,-1.0082 0.72,-1.2238 0.432,-1.2239 0.216,-1.2242 0.144,-1.2238 -0.144,-1.2242 -0.288,-1.152 -0.36,-1.0078 -0.648,-0.864 -0.72,-0.72 -0.864,-0.5043 -1.008,-0.216 -1.152,0 -1.368,0.3602 -1.44,0.7199 -1.656,1.152 0,0 -0.576,-0.72"
         style="fill:#000000;fill-opacity:1;fill-rule:nonzero;stroke:none"
         id="path220"
         inkscape:connector-curvature="0" /><path
         d="m 127.63031,74.3609 0,0 2.088,-1.7281 2.088,-1.6558 2.088,-1.7282 2.088,-1.7277 2.088,-1.7281 2.088,-1.7282 2.016,-1.7281 2.088,-1.7277 2.088,-1.8 2.016,-1.7281 2.088,-1.7282 2.088,-1.7277 2.016,-1.8 2.088,-1.7281 2.088,-1.7281 2.016,-1.7278 2.088,-1.8 2.016,-1.7281 2.088,-1.7281 2.016,-1.8 2.088,-1.7278 2.016,-1.7281 2.088,-1.7281 2.088,-1.8 2.016,-1.7278 2.088,-1.7281 2.016,-1.7281 2.088,-1.7277 2.088,-1.7282 2.088,-1.7281 2.016,-1.6558 2.088,-1.7282 0.576,0.72 -2.088,1.7281 -2.016,1.6558 -2.088,1.7282 -2.088,1.7281 -2.088,1.7277 -2.016,1.7281 -2.088,1.7282 -2.016,1.7281 -2.088,1.8 -2.088,1.7277 -2.016,1.7282 -2.088,1.7281 -2.016,1.8 -2.088,1.7277 -2.016,1.7281 -2.088,1.8 -2.016,1.7282 -2.088,1.7277 -2.088,1.7281 -2.016,1.8 -2.088,1.7281 -2.088,1.7278 -2.016,1.7281 -2.088,1.8 -2.088,1.7281 -2.016,1.7278 -2.088,1.7281 -2.088,1.7281 -2.088,1.7278 -2.088,1.7281 -2.088,1.6558 -2.088,1.7282 0,0 -0.576,-0.72"
         style="fill:#000000;fill-opacity:1;fill-rule:nonzero;stroke:none"
         id="path222"
         inkscape:connector-curvature="0" /><path
         d="m 119.78231,78.0328 0,0 1.008,-0.2879 1.08,-0.3601 1.152,-0.4321 1.08,-0.3597 0.936,-0.5039 0.936,-0.5762 0.936,-0.5758 0.72,-0.5762 0.576,0.72 -0.864,0.5761 -0.936,0.5758 -0.936,0.5762 -1.08,0.5039 -1.08,0.5039 -1.152,0.432 -1.08,0.3602 -1.152,0.2879 0,0 -0.144,-0.8641"
         style="fill:#000000;fill-opacity:1;fill-rule:nonzero;stroke:none"
         id="path224"
         inkscape:connector-curvature="0" /><path
         d="m 112.29431,78.0328 0.072,0 0.864,0.216 0.936,0.1442 0.936,0.0718 1.008,0 1.008,-0.0718 0.864,-0.0719 0.936,-0.1441 0.864,-0.1442 0.144,0.8641 -0.864,0.1441 -0.936,0.1438 -1.008,0.0722 -1.008,0.0719 -1.008,0 -1.08,-0.0719 -0.936,-0.1441 -1.008,-0.216 0.072,0 0.144,-0.8641"
         style="fill:#000000;fill-opacity:1;fill-rule:nonzero;stroke:none"
         id="path226"
         inkscape:connector-curvature="0" /><path
         d="m 104.87831,74.2891 0,0 0.72,0.5757 0.792,0.5762 0.864,0.5758 1.008,0.5043 1.008,0.5039 0.936,0.3598 1.08,0.3601 1.008,0.2879 -0.144,0.8641 -1.152,-0.2879 -1.08,-0.3602 -1.08,-0.5039 -1.008,-0.5039 -1.008,-0.5043 -0.864,-0.5758 -0.936,-0.5761 -0.72,-0.5758 0,0 0.576,-0.7199"
         style="fill:#000000;fill-opacity:1;fill-rule:nonzero;stroke:none"
         id="path228"
         inkscape:connector-curvature="0" /><path
         d="m 38.278212,19.0648 0,0 2.0879,1.6563 2.0879,1.7277 2.0882,1.7282 2.0879,1.7281 2.0879,1.6558 2.0879,1.7282 2.016,1.7277 2.0883,1.7281 2.0879,1.8 2.0879,1.7281 2.016,1.7278 2.0883,1.7281 2.0879,1.7281 2.0879,1.8 2.016,1.7278 2.0879,1.7281 2.0883,1.8 2.016,1.7281 2.0879,1.7278 2.0879,1.7281 2.0878,1.7281 2.0883,1.8 2.0879,1.7277 2.0879,1.7282 2.0883,1.7281 2.0879,1.7277 2.0879,1.6563 2.0879,1.7281 2.0882,1.7277 2.088098,1.6563 2.16,1.7277 2.088,1.6563 -0.576,0.7199 -2.088,-1.6563 -2.16,-1.7277 -2.088198,-1.6562 -2.0879,-1.7278 -2.0879,-1.7281 -2.0883,-1.6559 -2.0879,-1.7281 -2.0879,-1.7281 -2.0883,-1.7278 -2.0878,-1.7281 -2.0879,-1.8 -2.0879,-1.7281 -2.0883,-1.7277 -2.0879,-1.7282 -2.016,-1.7281 -2.0879,-1.8 -2.0879,-1.7277 -2.016,-1.7281 -2.0883,-1.8 -2.0879,-1.7282 -2.0879,-1.7277 -2.016,-1.7281 -2.0883,-1.7282 -2.0879,-1.8 -2.0879,-1.7281 -2.016,-1.7277 -2.0879,-1.7281 -2.0882,-1.6559 -2.0879,-1.7281 -2.0879,-1.7281 -2.0879,-1.7278 -2.0883,-1.6562 0,0 0.5762,-0.72"
         style="fill:#000000;fill-opacity:1;fill-rule:nonzero;stroke:none"
         id="path230"
         inkscape:connector-curvature="0" /><path
         d="m 29.926212,29.5051 0,0 -1.0082,-1.0082 -0.7199,-1.2239 -0.5039,-1.296 -0.2883,-1.368 -0.0719,-1.368 0.0719,-1.368 0.2883,-1.2242 0.5758,-1.1519 0.648,-1.0078 0.936,-0.8641 1.08,-0.5762 1.152,-0.2879 1.4402,0 1.4399,0.3602 1.584,0.7918 1.7281,1.1519 -0.5762,0.72 -1.584,-1.152 -1.4398,-0.648 -1.2961,-0.3598 -1.152,0 -1.0082,0.2879 -0.9359,0.432 -0.6481,0.7199 -0.6476,0.8641 -0.432,1.0082 -0.2883,1.0797 -0.0719,1.2242 0.0719,1.2238 0.2883,1.2243 0.3597,1.1519 0.7199,1.0797 0.8641,1.0082 0,0 -0.5758,0.5762"
         style="fill:#000000;fill-opacity:1;fill-rule:nonzero;stroke:none"
         id="path232"
         inkscape:connector-curvature="0" /><path
         d="m 100.27031,92.6488 0,0 -2.232398,-1.8718 -2.232,-1.9442 -2.3039,-1.9437 -2.232,-1.8723 -2.2321,-2.016 -2.232,-1.9438 -2.2316,-1.9441 -2.2321,-1.8719 -2.232,-1.9441 -2.232,-2.016 -2.2321,-1.9442 -2.232,-1.9437 -2.1601,-1.9442 -2.2321,-1.9437 -2.2316,-2.016 -2.232,-1.9442 -2.1602,-1.9441 -2.232,-2.016 -2.1602,-1.9438 -2.2316,-2.016 -2.1602,-2.016 -2.1601,-1.9442 -2.2321,-2.016 -2.1597,-2.016 -2.1602,-2.016 -2.1598,-2.016 -2.1601,-2.016 -2.1602,-2.016 -2.0879,-2.0161 -2.1597,-2.016 -2.1602,-2.0156 -2.0879,-2.016 0.5758,-0.5762 2.0883,2.016 2.1598,2.016 2.1601,2.0161 2.0879,2.016 2.1602,2.016 2.1597,2.016 2.1602,2.016 2.1597,2.016 2.1602,2.016 2.232,2.0161 2.1602,1.9437 2.1598,2.016 2.232,2.016 2.1601,1.9442 2.2321,2.016 2.1597,1.9438 2.2321,1.9441 2.232,2.016 2.232,1.9441 2.1602,1.9438 2.2316,1.9441 2.2321,1.9442 2.232,2.016 2.232,1.8 2.2321,2.0156 2.232,1.9442 2.232,1.9441 2.232,1.8719 2.2321,1.8719 2.3039,1.9441 2.232,1.9441 2.232198,1.8719 0,0 -0.576,0.7199"
         style="fill:#000000;fill-opacity:1;fill-rule:nonzero;stroke:none"
         id="path234"
         inkscape:connector-curvature="0" /><path
         d="m 137.85431,83.6488 -1.728,1.5121 -1.728,1.5121 -1.8,1.368 -1.872,1.2957 -1.872,1.2242 -1.944,1.0801 -1.944,0.8641 -2.016,0.7199 -2.016,0.5039 -2.016,0.216 -2.016,0.0719 -2.016,-0.2879 -2.088,-0.5039 -2.016,-0.8641 -1.944,-1.2242 -2.016,-1.5117 -2.232,-1.9441 -2.232,-1.8719 -2.304,-1.9442 -2.232398,-1.8718 -2.3039,-1.9442 -2.232,-1.9437 -2.3039,-1.8723 -2.232,-1.9437 -2.304,-1.9442 -2.232,-1.9441 -2.3039,-1.8719 -2.3043,-1.9441 -2.2316,-1.9438 -2.3043,-1.9441 -2.2321,-1.9442 -2.3039,-1.9437 -2.3039,-1.9442 -2.232,-1.9441 -2.3039,-1.9437 -2.232,-1.9442 -2.3039,-1.9437 -2.2321,-1.9442 -2.3043,-2.016 -2.2316,-1.9441 -2.232,-1.9438 -2.2321,-1.9441 -2.232,-2.016 -2.232,-1.9442 -2.2321,-1.9437 -2.232,-2.016 -2.1602,-1.9442 -2.2316,-2.016 -0.5043,-0.5039 -0.432,-0.6481 -0.4321,-0.7199 -0.3597,-0.7922 -0.3602,-0.8636 -0.216,-0.8641 -0.216,-0.7922 -0.0719,-0.7918 0,-0.648 0.1442,-0.5762 0.2878,-0.3598 0.504,-0.216 0.5761,0 0.7918,0.2879 1.0082,0.5762 1.152,0.8637 66.456098,54.864 1.728,1.368 1.728,1.2242 1.728,1.152 1.728,1.08 1.656,0.8637 1.728,0.7922 1.728,0.5762 1.728,0.5039 1.656,0.216 1.728,0.0719 1.656,-0.1438 1.728,-0.2883 1.728,-0.5758 1.656,-0.864 1.728,-1.0082 1.656,-1.368 1.944,-1.7277 2.016,-1.7281 1.944,-1.6559 2.016,-1.7281 1.944,-1.7282 2.016,-1.7281 1.944,-1.7277 2.016,-1.7281 1.944,-1.6559 2.016,-1.7281 1.944,-1.7281 2.016,-1.7278 1.944,-1.7281 2.016,-1.7281 2.016,-1.6559 1.944,-1.7281 2.016,-1.7278 2.016,-1.7281 1.944,-1.6558 2.016,-1.7282 2.016,-1.7281 2.016,-1.7277 1.944,-1.6563 2.016,-1.7277 2.016,-1.7281 2.016,-1.6563 2.016,-1.7277 1.944,-1.7281 2.016,-1.6559 2.016,-1.7281 2.016,-1.6559 2.016,-1.7281 0.648,-0.5762 0.648,-0.5758 0.648,-0.5761 0.72,-0.5758 0.792,-0.5039 0.792,-0.4321 0.792,-0.3601 0.864,-0.2879 0.72,0.0719 0.648,0.432 0.432,0.5762 0.072,0.7199 0,0.5758 -0.144,0.5762 -0.144,0.5039 -0.216,0.5039 -0.288,0.5043 -0.36,0.5039 -0.432,0.432 -0.432,0.432 -61.848,56.5918"
         style="fill:#ffffff;fill-opacity:1;fill-rule:evenodd;stroke:none"
         id="path236"
         inkscape:connector-curvature="0" /><path
         d="m 107.11031,89.2648 0,0 1.944,1.5122 1.944,1.2238 1.944,0.7922 2.016,0.5039 1.944,0.2879 2.016,-0.0719 1.944,-0.216 1.944,-0.5039 2.016,-0.72 1.872,-0.7921 1.944,-1.0801 1.872,-1.2238 1.8,-1.2961 1.8,-1.368 1.728,-1.5121 1.728,-1.4399 0.576,0.5762 -1.728,1.584 -1.728,1.5117 -1.8,1.368 -1.944,1.2961 -1.872,1.2238 -1.944,1.0801 -2.016,0.9363 -2.016,0.7199 -2.088,0.5039 -2.088,0.2161 -2.016,0.0718 -2.088,-0.2879 -2.16,-0.5039 -2.088,-0.9359 -1.944,-1.2242 -2.088,-1.5121 0,0 0.576,-0.72"
         style="fill:#000000;fill-opacity:1;fill-rule:nonzero;stroke:none"
         id="path238"
         inkscape:connector-curvature="0" /><path
         d="m 34.894212,27.1289 0,0 2.232,2.016 2.1598,1.9442 2.232,2.016 2.2321,1.8719 2.232,2.016 2.232,2.016 2.232,1.8719 2.2321,1.9441 2.232,1.9438 2.3039,2.016 2.232,1.9441 2.304,1.9441 2.232,1.9438 2.3039,1.9441 2.232,1.9442 2.3039,1.9437 2.3043,1.9442 2.2321,1.9437 2.3039,1.9442 2.232,1.9441 2.3039,1.9438 2.3039,1.8722 2.232,1.9438 2.3039,1.9441 2.2321,1.9441 2.3043,1.8719 2.2316,1.9442 2.3043,1.9437 2.232098,1.8723 2.304,1.9437 2.232,1.8723 2.232,1.9437 -0.576,0.72 -2.232,-1.9438 -2.232,-1.8722 -2.303998,-1.9438 -2.2323,-1.8723 -2.3039,-1.9437 -2.232,-1.9442 -2.3039,-1.8718 -2.232,-1.9442 -2.3039,-1.9437 -2.2321,-1.9442 -2.3043,-1.8718 -2.3039,-1.9442 -2.232,-1.9441 -2.3039,-1.9438 -2.232,-1.9441 -2.304,-1.9441 -2.3039,-1.9438 -2.232,-1.9441 -2.3039,-1.9442 -2.232,-1.9437 -2.3043,-1.9442 -2.2321,-1.9437 -2.3039,-2.016 -2.232,-1.9442 -2.232,-1.9441 -2.2321,-2.016 -2.232,-2.016 -2.2316,-1.8719 -2.2321,-2.016 -2.232,-2.0161 -2.1601,-1.9437 -2.2321,-2.016 0,0 0.5762,-0.5762"
         style="fill:#000000;fill-opacity:1;fill-rule:nonzero;stroke:none"
         id="path240"
         inkscape:connector-curvature="0" /><path
         d="m 36.190312,21.7289 0,0 -1.0801,-0.8641 -1.0082,-0.5757 -0.648,-0.2161 -0.4321,0 -0.2879,0.1438 -0.216,0.216 -0.0719,0.432 0,0.5762 0.0719,0.7199 0.216,0.72 0.2161,0.864 0.2878,0.8641 0.3602,0.7199 0.432,0.7199 0.4321,0.5762 0.432,0.5039 -0.5762,0.5762 -0.5758,-0.5043 -0.432,-0.7199 -0.432,-0.72 -0.3602,-0.864 -0.432,-0.8641 -0.216,-0.864 -0.216,-0.8637 -0.0719,-0.8641 0,-0.7199 0.216,-0.7203 0.3602,-0.5039 0.7199,-0.2879 0.7199,0 0.9359,0.3598 1.0082,0.5761 1.2239,0.8641 0,0 -0.5758,0.7199"
         style="fill:#000000;fill-opacity:1;fill-rule:nonzero;stroke:none"
         id="path242"
         inkscape:connector-curvature="0" /><path
         d="m 102.64631,76.593 0,0 -66.455998,-54.8641 0.5758,-0.7199 66.456198,54.864 0,0 -0.576,0.72"
         style="fill:#000000;fill-opacity:1;fill-rule:nonzero;stroke:none"
         id="path244"
         inkscape:connector-curvature="0" /><path
         d="m 130.51031,80.193 0,-0.0719 -1.728,1.4398 -1.728,1.0079 -1.728,0.9363 -1.8,0.5758 -1.728,0.2879 -1.728,0.1441 -1.728,-0.0719 -1.728,-0.216 -1.8,-0.5039 -1.728,-0.5762 -1.8,-0.864 -1.656,-0.8641 -1.728,-1.0801 -1.728,-1.1519 -1.8,-1.2239 -1.728,-1.3679 0.576,-0.72 1.728,1.368 1.656,1.2238 1.728,1.152 1.728,1.0801 1.656,0.864 1.656,0.72 1.728,0.5761 1.656,0.5039 1.584,0.2161 1.728,0.0718 1.584,-0.1437 1.728,-0.2883 1.656,-0.5758 1.584,-0.7922 1.728,-1.0078 1.584,-1.2961 0,-0.0719 0.576,0.72"
         style="fill:#000000;fill-opacity:1;fill-rule:nonzero;stroke:none"
         id="path246"
         inkscape:connector-curvature="0" /><path
         d="m 194.23031,25.4008 0,0.0722 -2.016,1.7278 -2.016,1.6562 -2.016,1.7278 -2.016,1.6562 -1.944,1.6559 -2.016,1.8 -2.016,1.6558 -2.016,1.7282 -2.016,1.7281 -1.944,1.6558 -2.016,1.7282 -2.016,1.7277 -2.016,1.7281 -1.944,1.6563 -2.016,1.7277 -2.016,1.6563 -1.944,1.8 -2.016,1.6558 -2.016,1.6559 -1.944,1.7281 -2.016,1.7281 -1.944,1.7278 -2.016,1.8 -1.944,1.6562 -2.016,1.6559 -1.944,1.7281 -2.016,1.7277 -1.944,1.7282 -2.016,1.8 -1.944,1.6558 -2.016,1.6563 -1.944,1.8 -0.576,-0.72 1.944,-1.6562 2.016,-1.8 1.944,-1.6559 2.016,-1.6558 1.944,-1.7281 2.016,-1.7282 1.944,-1.7277 2.016,-1.8 1.944,-1.6563 2.016,-1.6558 1.944,-1.7281 2.016,-1.7282 1.944,-1.7277 2.016,-1.8 2.016,-1.6562 1.944,-1.6559 2.016,-1.8 2.016,-1.7281 1.944,-1.6559 2.016,-1.7281 2.016,-1.7278 2.016,-1.7281 1.944,-1.6558 2.016,-1.7282 2.016,-1.7281 2.016,-1.6558 2.016,-1.6559 1.944,-1.8 2.016,-1.6563 2.016,-1.7281 2.016,-1.6558 2.016,-1.7282 0,0.0723 0.576,0.5758"
         style="fill:#000000;fill-opacity:1;fill-rule:nonzero;stroke:none"
         id="path248"
         inkscape:connector-curvature="0" /><path
         d="m 199.91831,21.657 0,0 -0.792,0.2879 -0.72,0.2879 -0.792,0.432 -0.792,0.504 -0.648,0.5761 -0.648,0.5039 -0.648,0.5762 -0.648,0.5758 -0.576,-0.5758 0.648,-0.5762 0.648,-0.5758 0.648,-0.648 0.792,-0.5762 0.792,-0.5039 0.792,-0.432 0.864,-0.432 0.936,-0.2879 0,0 0.144,0.864"
         style="fill:#000000;fill-opacity:1;fill-rule:nonzero;stroke:none"
         id="path250"
         inkscape:connector-curvature="0" /><path
         d="m 201.28631,23.025 0,-0.0723 -0.072,-0.5039 -0.288,-0.432 -0.504,-0.2879 -0.504,-0.0719 -0.144,-0.864 0.936,0.0718 0.792,0.5762 0.576,0.7199 0.072,0.936 0,-0.0719 -0.864,0"
         style="fill:#000000;fill-opacity:1;fill-rule:nonzero;stroke:none"
         id="path252"
         inkscape:connector-curvature="0" /><path
         d="m 199.41431,26.7688 0,-0.0719 0.432,-0.3602 0.36,-0.4316 0.36,-0.4321 0.288,-0.5042 0.144,-0.4321 0.144,-0.5039 0.144,-0.5039 0,-0.5039 0.864,0 0,0.648 -0.144,0.6481 -0.144,0.5039 -0.288,0.5758 -0.288,0.5043 -0.36,0.5758 -0.504,0.432 -0.432,0.5039 0,-0.0719 -0.576,-0.5761"
         style="fill:#000000;fill-opacity:1;fill-rule:nonzero;stroke:none"
         id="path254"
         inkscape:connector-curvature="0" /><path
         d="m 137.56631,83.3609 0,0 61.848,-56.5921 0.576,0.5761 -61.848,56.5922 0,0 -0.576,-0.5762"
         style="fill:#000000;fill-opacity:1;fill-rule:nonzero;stroke:none"
         id="path256"
         inkscape:connector-curvature="0" /><path
         d="m 81.766112,17.625 1.0082,-0.216 -0.216,-0.5762 -0.2161,-0.5039 -0.3601,-0.432 -0.3602,-0.3602 -0.4316,-0.2879 -0.432,-0.216 -0.5043,-0.0719 -0.5039,-0.0718 -0.5758,0 -0.5762,0.1437 -0.432,0.1442 -0.3598,0.216 -0.3602,0.216 -0.2878,0.3598 -0.2883,0.3601 -0.216,0.432 -0.1438,0.5039 -0.1441,0.504 -0.0719,0.5042 0,1.0797 0.0719,0.5043 0.1441,0.5039 0.1438,0.4321 0.216,0.3597 0.3601,0.3602 0.2879,0.2879 0.4321,0.2883 0.432,0.216 0.432,0.1437 0.432,0.0723 0.504,0 0.5039,-0.0723 0.432,-0.0718 0.432,-0.2161 0.4321,-0.216 0.3601,-0.3601 0.2879,-0.3598 0.216,-0.432 0.1442,-0.5039 -1.0082,-0.2161 -0.0719,0.3598 -0.1442,0.3602 -0.216,0.2879 -0.216,0.216 -0.2879,0.0719 -0.2879,0.1441 -0.3601,0.0719 -0.72,0 -0.3601,-0.0719 -0.3598,-0.1441 -0.2883,-0.1438 -0.216,-0.216 -0.2156,-0.2879 -0.216,-0.2883 -0.1442,-0.2879 -0.0718,-0.3601 -0.0723,-0.2879 -0.0719,-0.3602 0,-0.7918 0.0719,-0.432 0.0723,-0.432 0.1437,-0.3598 0.1442,-0.2883 0.216,-0.2879 0.216,-0.216 0.216,-0.216 0.3598,-0.1441 0.2883,-0.0719 0.3597,-0.0719 0.6481,0 0.3601,0.0719 0.3598,0.1441 0.3601,0.1438 0.2161,0.2882 0.216,0.3598 0.1437,0.3602 0.1442,0.432 z m 5.9039,-0.9359 0.864,-0.2161 -0.0718,-0.2882 -0.2161,-0.3598 -0.216,-0.2883 -0.2879,-0.2156 -0.3601,-0.216 -0.3602,-0.0723 -0.4316,-0.1437 -0.432,0 -0.5762,0.0718 -0.432,0.0719 -0.504,0.216 -0.3601,0.3602 -0.3598,0.432 -0.216,0.432 -0.0723,0.5758 -0.0718,0.6481 0.0718,0.648 0.0723,0.5039 0.216,0.5039 0.3598,0.3602 0.3601,0.3601 0.4321,0.2161 0.5039,0.1437 0.5039,0.0723 0.5043,-0.0723 0.5039,-0.1437 0.432,-0.2161 0.3598,-0.3601 0.2883,-0.3602 0.216,-0.5039 0.1437,-0.5039 0,-0.864 -4.032,0 0.0723,-0.4321 0.0718,-0.2879 0.1442,-0.3601 0.216,-0.216 0.2156,-0.1438 0.2883,-0.1441 0.3598,-0.0719 0.5761,0 0.2161,0.0719 0.216,0.0719 0.216,0.0722 0.1437,0.0719 0.1442,0.1441 0.1441,0.216 0.1438,0.2161 0,0 z m -3.168,1.6558 3.168,0 0,0.2879 -0.0719,0.216 -0.1441,0.216 -0.1438,0.1442 -0.2883,0.216 -0.216,0.1438 -0.3598,0.0722 -0.648,0 -0.3602,-0.0722 -0.216,-0.1438 -0.2156,-0.1441 -0.216,-0.2161 -0.1442,-0.216 -0.0718,-0.216 -0.0723,-0.2879 z m 5.2563,-3.384 0,5.4719 0.7918,0 0,-0.7918 0.3601,0.3598 0.3598,0.2883 0.432,0.1437 0.5043,0.0723 0.2879,0 0.216,-0.0723 0.216,-0.0719 0.216,-0.0718 0.1438,-0.1442 0.1441,-0.0719 0.1442,-0.1441 0.1437,-0.1441 0.0723,-0.1438 0.0719,-0.1441 0,-0.1442 0.0718,-0.1437 0,-0.1442 0.0723,-0.216 0,-3.8879 -0.8641,0 0,3.4559 -0.0722,0.2883 0,0.1437 -0.0719,0.1442 -0.0719,0.1437 -0.0722,0.1442 -0.1438,0.0718 -0.0723,0.0723 -0.1437,0.0719 -0.1441,0.0719 -0.1438,0.0722 -0.432,0 -0.2883,-0.0722 -0.2879,-0.1438 -0.216,-0.1441 -0.216,-0.2879 -0.0719,-0.2879 -0.1441,-0.3602 0,-3.384 -0.7918,0 z m 7.5597,0.8641 0.1442,-0.8641 -0.1442,-0.0718 -0.7918,0 -0.216,0.0718 -0.1441,0 -0.1442,0.0719 -0.1437,0.0723 -0.1442,0.0719 -0.0718,0.1441 -0.0719,0.1437 -0.0723,0.1442 0,3.9598 -0.648,0 0,0.864 0.648,0 0,1.2961 0.936,0.5762 0,-1.8723 0.864,0 0,-0.864 -0.864,0 0,-3.5278 0.0722,-0.0722 0,-0.0719 0.0719,0 0.0719,-0.0719 0.648,0 0,0 z m 1.0801,-0.8641 0,5.4719 0.648,0 0,-0.7918 0.1442,0.216 0.216,0.216 0.144,0.1438 0.144,0.0723 0.144,0.0718 0.144,0.0719 0.143998,0.0723 0.432,0 0.216,-0.0723 0.216,-0.1437 0.288,-0.0723 -0.36,-0.7918 -0.144,0.0719 -0.144,0.0719 -0.144,0.0722 -0.36,0 -0.143998,-0.0722 -0.072,-0.0719 -0.144,-0.0719 -0.144,-0.1441 -0.072,-0.0719 -0.072,-0.1442 -0.072,-0.1441 -0.0723,-0.2879 -0.0718,-0.216 -0.0719,-0.2879 0,-3.168 -0.7922,0"
         style="fill:#000000;fill-opacity:1;fill-rule:evenodd;stroke:none"
         id="path258"
         inkscape:connector-curvature="0" /><path
         d="m 105.52631,16.6891 0.864,-0.2161 -0.144,-0.2882 -0.144,-0.3598 -0.216,-0.2883 -0.288,-0.2156 -0.36,-0.216 -0.36,-0.0723 -0.432,-0.1437 -0.432,0 -0.576,0.0718 -0.504,0.0719 -0.432,0.216 -0.36,0.3602 -0.36,0.432 -0.216,0.432 -0.072,0.5758 -0.072,0.6481 0.072,0.648 0.072,0.5039 0.216,0.5039 0.36,0.3602 0.36,0.3601 0.432,0.2161 0.504,0.1437 0.504,0.0723 0.504,-0.0723 0.504,-0.1437 0.432,-0.2161 0.36,-0.3601 0.288,-0.3602 0.216,-0.5039 0.072,-0.5039 0.072,-0.5761 0,-0.2879 -4.032,0 0,-0.4321 0.144,-0.2879 0.072,-0.3601 0.216,-0.216 0.288,-0.1438 0.288,-0.1441 0.36,-0.0719 0.576,0 0.216,0.0719 0.216,0.0719 0.216,0.0722 0.144,0.0719 0.144,0.1441 0.144,0.216 0.144,0.2161 0,0 z m -3.168,1.6558 3.168,0 0,0.2879 -0.072,0.216 -0.144,0.216 -0.144,0.1442 -0.288,0.216 -0.288,0.1438 -0.288,0.0722 -0.648,0 -0.36,-0.0722 -0.288,-0.1438 -0.216,-0.1441 -0.216,-0.2161 -0.072,-0.216 -0.144,-0.216 0,-0.2879 z m 7.776,-0.648 0,0.3601 0.072,0.3598 0.072,0.2883 0.072,0.2879 0.144,0.2879 0.144,0.216 0.144,0.216 0.216,0.1441 0.288,0.2879 0.432,0.216 0.432,0.0719 0.504,0.0723 0.504,-0.0723 0.432,-0.1437 0.432,-0.2161 0.36,-0.3601 0.288,-0.3602 0.216,-0.432 0.072,-0.5758 0.072,-0.5761 0,-0.504 -0.072,-0.432 -0.072,-0.3598 -0.144,-0.3601 -0.144,-0.2879 -0.144,-0.216 -0.288,-0.216 -0.288,-0.1442 -0.288,-0.1437 -0.36,-0.1442 -0.288,-0.0718 -0.288,0 -0.576,0.0718 -0.504,0.0719 -0.432,0.216 -0.288,0.3602 -0.36,0.432 -0.216,0.432 -0.072,0.5758 -0.072,0.6481 z m 0.936,0 0,-0.4321 0.072,-0.432 0.144,-0.2879 0.144,-0.2879 0.288,-0.216 0.288,-0.0722 0.288,-0.1438 0.648,0 0.288,0.1438 0.288,0.0722 0.216,0.216 0.216,0.2879 0.144,0.2879 0.072,0.432 0,0.936 -0.072,0.3601 -0.144,0.2879 -0.216,0.2879 -0.216,0.216 -0.288,0.1442 -0.288,0.0719 -0.288,0.0722 -0.36,0 -0.288,-0.1441 -0.288,-0.1442 -0.288,-0.216 -0.144,-0.2879 -0.144,-0.3597 -0.072,-0.3602 0,-0.432 z m 5.328,-2.736 0,4.6079 -0.864,0 0,0.864 0.864,0 0,1.152 0.072,0.1441 0.072,0.1441 0.072,0.1438 0.144,0.1441 0.144,0.1442 0.216,0.0719 0.216,0.0718 0.216,0.0723 0.72,0 0.216,-0.0723 0.216,0 -0.144,-0.9359 -0.144,0.0719 -0.576,0 -0.144,-0.0719 -0.144,0 -0.144,-0.0719 -0.072,-0.0722 0,-0.1438 -0.072,-0.1441 0,-0.6481 1.008,0 0,-0.864 -1.008,0 0,-4.6079 -0.864,0 z m 5.616,0 0,5.4719 0.72,0 0,-0.7918 0.144,0.216 0.216,0.216 0.144,0.1438 0.144,0.0723 0.072,0.0718 0.144,0.0719 0.144,0.0723 0.432,0 0.288,-0.0723 0.216,-0.1437 0.288,-0.0723 -0.36,-0.7918 -0.144,0.0719 -0.216,0.0719 -0.144,0.0722 -0.36,0 -0.144,-0.0722 -0.072,-0.0719 -0.072,-0.0719 -0.144,-0.1441 -0.072,-0.0719 -0.072,-0.1442 -0.072,-0.1441 -0.072,-0.2879 -0.072,-0.216 -0.072,-0.2879 0,-3.168 -0.864,0"
         style="fill:#000000;fill-opacity:1;fill-rule:evenodd;stroke:none"
         id="path260"
         inkscape:connector-curvature="0" /><path
         d="m 125.18231,17.6969 0,0.3601 0.072,0.3598 0,0.2883 0.144,0.2879 0.072,0.2879 0.144,0.216 0.144,0.216 0.216,0.1441 0.36,0.2879 0.36,0.216 0.432,0.0719 0.504,0.0723 0.504,-0.0723 0.504,-0.1437 0.36,-0.2161 0.36,-0.3601 0.36,-0.3602 0.216,-0.432 0.072,-0.5758 0.072,-0.5761 0,-0.504 -0.072,-0.432 -0.072,-0.3598 -0.144,-0.3601 -0.144,-0.2879 -0.216,-0.216 -0.288,-0.216 -0.288,-0.1442 -0.288,-0.1437 -0.288,-0.1442 -0.36,-0.0718 -0.288,0 -0.504,0.0718 -0.504,0.0719 -0.432,0.216 -0.36,0.3602 -0.288,0.432 -0.216,0.432 -0.144,0.5758 0,0.6481 z m 0.864,0 0,-0.4321 0.144,-0.432 0.072,-0.2879 0.216,-0.2879 0.288,-0.216 0.216,-0.0722 0.288,-0.1438 0.648,0 0.36,0.1438 0.216,0.0722 0.216,0.216 0.216,0.2879 0.144,0.2879 0.072,0.432 0,0.936 -0.072,0.3601 -0.144,0.2879 -0.216,0.2879 -0.216,0.216 -0.216,0.1442 -0.36,0.0719 -0.288,0.0722 -0.36,0 -0.288,-0.1441 -0.216,-0.1442 -0.288,-0.216 -0.216,-0.2879 -0.072,-0.3597 -0.144,-0.3602 0,-0.432 z m 7.056,-1.8719 0.144,-0.8641 -0.216,-0.0718 -0.72,0 -0.216,0.0718 -0.144,0 -0.144,0.0719 -0.144,0.0723 -0.144,0.0719 -0.072,0.1441 -0.072,0.1437 -0.072,0.1442 0,3.9598 -0.72,0 0,0.864 0.72,0 0,1.2961 0.864,0.5762 0,-1.8723 0.936,0 0,-0.864 -0.936,0 0,-3.5278 0.072,-0.0722 0,-0.0719 0.072,0 0.072,-0.0719 0.72,0 0,0 z m 4.464,-0.216 -0.216,-0.1442 -0.216,-0.1437 -0.288,-0.1441 -0.216,-0.1442 -0.288,-0.0719 -0.216,0 -0.288,-0.0718 -0.648,0 -0.36,0.1437 -0.288,0.0723 -0.288,0.216 -0.216,0.2156 -0.144,0.2883 -0.072,0.2879 0,0.432 0.072,0.216 0,0.3602 0.144,0.1437 0.072,0.1442 0.144,0.1437 0.144,0.0723 0.144,0.0719 0.216,0.1441 0.144,0.0719 0.36,0 0.144,0.0719 0.216,0 0.216,0.0722 0.576,0.0719 0.432,0.0719 0.36,0.0722 0.288,0.0719 0,0.5039 -0.072,0.216 -0.072,0.1442 -0.072,0.1437 -0.216,0.0723 -0.216,0.1438 -0.288,0.0722 -0.648,0 -0.216,-0.0722 -0.216,-0.0719 -0.144,-0.0719 -0.144,-0.1441 -0.144,-0.1442 -0.144,-0.216 -0.072,-0.2156 -0.936,0.1437 0.072,0.2879 0.072,0.2883 0.144,0.1438 0.144,0.1441 0.144,0.216 0.216,0.1441 0.216,0.0719 0.288,0.1442 0.288,0.0718 0.288,0.0719 0.288,0.0723 0.648,0 0.36,-0.0723 0.216,-0.0719 0.216,-0.0718 0.216,-0.0723 0.144,-0.0719 0.144,-0.1441 0.144,-0.1438 0.072,-0.1441 0.072,-0.0719 0.072,-0.1441 0.072,-0.216 0.072,-0.1442 0,-3.384 0.072,-0.216 0.072,-0.1437 0,-0.216 0.072,-0.2161 -0.936,0 -0.072,0.1442 -0.072,0.216 -0.072,0.1437 0,0.1442 z m -0.072,1.8719 -0.288,-0.0719 -0.36,-0.0723 -0.36,-0.0719 -0.504,-0.0718 -0.288,0 -0.216,-0.0719 -0.144,0 -0.144,-0.0723 -0.072,-0.0718 -0.144,0 -0.072,-0.0719 -0.072,-0.0723 -0.072,-0.0719 -0.072,-0.1441 0,-0.2879 0.072,-0.1441 0.072,-0.0719 0.144,-0.0719 0.144,-0.0722 0.216,-0.0719 0.216,-0.0719 0.504,0 0.216,0.0719 0.288,0.0719 0.216,0.0722 0.216,0.0719 0.144,0.0719 0.144,0.1441 0.072,0.1441 0.072,0.1438 0,0.216 0.072,0.216 0,0.4321 z m 4.248,-1.6559 0.144,-0.8641 -0.216,-0.0718 -0.72,0 -0.216,0.0718 -0.144,0 -0.144,0.0719 -0.144,0.0723 -0.144,0.0719 -0.072,0.1441 -0.072,0.1437 -0.072,0.1442 0,3.9598 -0.72,0 0,0.864 0.72,0 0,1.2961 0.936,0.5762 0,-1.8723 0.864,0 0,-0.864 -0.864,0 0,-3.6719 0.072,0 0.072,-0.0719 0.72,0 0,0 z m 1.008,5.6879 0,0.9359 0.864,0 0,-0.9359 -0.864,0 z m 0,-6.552 0,5.4719 0.864,0 0,-5.4719 -0.864,0 z m 1.944,2.736 0,0.3601 0.072,0.3598 0.072,0.2883 0.072,0.2879 0.144,0.2879 0.144,0.216 0.144,0.216 0.216,0.1441 0.36,0.2879 0.36,0.216 0.432,0.0719 0.504,0.0723 0.504,-0.0723 0.432,-0.1437 0.432,-0.2161 0.36,-0.3601 0.288,-0.3602 0.216,-0.432 0.144,-0.5758 0,-1.5121 -0.072,-0.3598 -0.144,-0.3601 -0.144,-0.2879 -0.216,-0.216 -0.288,-0.216 -0.288,-0.1442 -0.288,-0.1437 -0.288,-0.1442 -0.36,-0.0718 -0.288,0 -0.576,0.0718 -0.432,0.0719 -0.432,0.216 -0.36,0.3602 -0.36,0.432 -0.216,0.432 -0.072,0.5758 -0.072,0.6481 z m 0.936,0 0,-0.4321 0.144,-0.432 0.072,-0.2879 0.216,-0.2879 0.216,-0.216 0.288,-0.0722 0.288,-0.1438 0.648,0 0.288,0.1438 0.288,0.0722 0.216,0.216 0.216,0.2879 0.144,0.2879 0.072,0.432 0,0.936 -0.072,0.3601 -0.144,0.2879 -0.216,0.2879 -0.216,0.216 -0.288,0.1442 -0.288,0.0719 -0.288,0.0722 -0.36,0 -0.288,-0.1441 -0.288,-0.1442 -0.216,-0.216 -0.216,-0.2879 -0.072,-0.3597 -0.144,-0.3602 0,-0.432 z m 5.184,-2.736 0,5.4719 0.792,0 0,-0.7918 0.36,0.3598 0.36,0.2883 0.432,0.1437 0.504,0.0723 0.288,0 0.216,-0.0723 0.216,-0.0719 0.216,-0.0718 0.144,-0.1442 0.144,-0.0719 0.144,-0.1441 0.144,-0.1441 0.072,-0.1438 0.072,-0.1441 0,-0.1442 0.072,-0.1437 0,-0.1442 0.072,-0.216 0,-3.8879 -0.864,0 0,3.4559 -0.072,0.2883 0,0.1437 -0.072,0.1442 -0.072,0.1437 -0.072,0.1442 -0.144,0.0718 -0.072,0.0723 -0.144,0.0719 -0.144,0.0719 -0.144,0.0722 -0.432,0 -0.288,-0.0722 -0.288,-0.1438 -0.216,-0.1441 -0.216,-0.2879 -0.072,-0.2879 -0.144,-0.3602 0,-3.384 -0.792,0"
         style="fill:#000000;fill-opacity:1;fill-rule:evenodd;stroke:none"
         id="path262"
         inkscape:connector-curvature="0" /><path
         d="m 233.97431,109.065 -0.576,0.576 -231.2642681,0 0,-1.152 231.2642681,0 -0.576,0.576 1.152,0 0,0.576 -0.576,0 0.576,-0.576"
         style="fill:#000000;fill-opacity:1;fill-rule:nonzero;stroke:none"
         id="path264"
         inkscape:connector-curvature="0" /><path
         d="m 233.39831,0.273047 0.576,0.575781 0,108.216172 -1.152,0 0,-108.216172 0.576,0.576172 0,-1.151953 0.576,0 0,0.575781 -0.576,-0.575781"
         style="fill:#000000;fill-opacity:1;fill-rule:nonzero;stroke:none"
         id="path266"
         inkscape:connector-curvature="0" /><path
         d="m 1.5582619,0.848828 0.57578,-0.575781 231.2642681,0 0,1.151953 -231.2642681,0 0.57618,-0.576172 -1.15196,0 0,-0.575781 0.57578,0 -0.57578,0.575781"
         style="fill:#000000;fill-opacity:1;fill-rule:nonzero;stroke:none"
         id="path268"
         inkscape:connector-curvature="0" /><path
         d="m 2.1340419,109.641 -0.57578,-0.576 0,-108.216172 1.15196,0 0,108.216172 -0.57618,-0.576 0,1.152 -0.57578,0 0,-0.576 0.57578,0.576"
         style="fill:#000000;fill-opacity:1;fill-rule:nonzero;stroke:none"
         id="path270"
         inkscape:connector-curvature="0" /><path
         d="m 158.44631,50.9609 0.144,1.0801 -75.168398,8.784 -0.2879,-2.1602 75.168298,-8.7839 0.144,1.08"
         style="fill:#e6e6e6;fill-opacity:1;fill-rule:nonzero;stroke:none"
         id="path272"
         inkscape:connector-curvature="0" /><path
         inkscape:connector-curvature="0"
         id="path274"
         d="m 115.25809,48.18084 -6.01409,-7.787751 3.64108,-0.688362 -2.89718,-14.88145 1.44024,-0.209291 2.89281,14.806578 3.64108,-0.688362 -2.70394,9.448638 z"
         style="fill:#000000;fill-opacity:1;fill-rule:nonzero;stroke:none" /><path
         sodipodi:nodetypes="cccccc"
         d="m 147.14231,61.473 -0.216,1.0797 -79.109127,-15.9117 0.481705,-2.1601 79.059422,15.9121 -0.216,1.08"
         style="fill:#e6e6e6;fill-opacity:1;fill-rule:nonzero;stroke:none"
         id="path278"
         inkscape:connector-curvature="0" /><path
         inkscape:connector-curvature="0"
         id="path282"
         d="m 68.049606,47.028744 -0.425,-0.275 -0.275,-0.5 c -0.04376,-0.5734 0.04811,-1.188608 0.375,-1.675 0.384817,-0.486256 1.237286,-0.454176 1.6,0.05 0.260336,0.305328 0.391477,0.726608 0.325,1.125 -0.192166,0.509648 -0.55995,0.982592 -1.075,1.2 -0.169307,0.0569 -0.346718,0.08221 -0.525,0.075 z"
         style="fill:#ff0000;fill-opacity:1;fill-rule:nonzero;stroke:none" /><path
         id="path3477"
         transform="matrix(0.8,0,0,-0.8,0,421)"
         d="m 104.875,450.15625 c -0.59255,0.0318 -1.12319,0.42116 -1.34375,0.96875 -0.28634,0.93166 0.20926,2.03545 1.09375,2.4375 l 0.71875,0.15625 c 0.68535,-0.27115 1.08263,-1.03172 1.0625,-1.75 -2.7e-4,-0.86484 -0.69945,-1.62734 -1.53125,-1.8125 z"
         style="fill:#ff0000;fill-opacity:1;fill-rule:nonzero;stroke:none"
         inkscape:connector-curvature="0" /><path
         id="path3825"
         transform="matrix(0.8,0,0,-0.8,0,421)"
         d="m 182.375,447.875 c -0.42379,0.1447 -0.77931,0.4875 -0.9375,0.90625 -0.15699,0.50529 -0.006,1.04683 0.15625,1.53125 0.097,0.69522 0.8419,1.22875 1.53125,1.09375 0.34673,-0.1036 0.6267,-0.34943 0.8125,-0.65625 0.37536,-0.72229 0.27791,-1.65551 -0.1875,-2.3125 -0.28685,-0.44818 -0.8666,-0.62977 -1.375,-0.5625 z"
         style="fill:#ff0000;fill-opacity:1;fill-rule:nonzero;stroke:none"
         inkscape:connector-curvature="0" /><path
         id="path312"
         transform="matrix(0.8,0,0,-0.8,0,421)"
         d="m 196.6875,460.46875 c -0.8482,0.22953 -1.3654,1.23773 -1.0625,2.0625 0.17291,0.56623 0.5702,1.06735 1.09375,1.34375 0.39306,0.38319 1.16724,0.18562 1.3125,-0.34375 0.17527,-0.43266 0.367,-0.89678 0.28125,-1.375 -0.0906,-0.79793 -0.7201,-1.56287 -1.53125,-1.6875 -0.0358,-0.005 -0.0577,0.002 -0.0937,0 z"
         style="fill:#ff0000;fill-opacity:1;fill-rule:nonzero;stroke:none"
         inkscape:connector-curvature="0" /><path
         inkscape:connector-curvature="0"
         id="path320"
         d="m 116.75631,58.3 c -1.45666,0.02589 -2.76406,-1.349621 -2.66707,-2.802722 -0.0261,-1.481729 1.40021,-2.80542 2.87662,-2.662371 1.48736,0.05257 2.74092,1.55024 2.52185,3.024154 -0.12591,1.341064 -1.3806,2.474711 -2.7314,2.440939 z"
         style="fill:#ff0000;fill-opacity:1;fill-rule:evenodd;stroke:none" /></g></g></svg>