<?xml version="1.0" encoding="UTF-8" standalone="no"?>
<!-- Created with Inkscape (http://www.inkscape.org/) -->

<svg
   xmlns:dc="http://purl.org/dc/elements/1.1/"
   xmlns:cc="http://creativecommons.org/ns#"
   xmlns:rdf="http://www.w3.org/1999/02/22-rdf-syntax-ns#"
   xmlns:svg="http://www.w3.org/2000/svg"
   xmlns="http://www.w3.org/2000/svg"
   xmlns:sodipodi="http://sodipodi.sourceforge.net/DTD/sodipodi-0.dtd"
   xmlns:inkscape="http://www.inkscape.org/namespaces/inkscape"
   id="svg2"
   version="1.1"
   inkscape:version="0.48.2 r9819"
   width="1333.1541"
   height="770.24042"
   sodipodi:docname="EINH.TIF">
  <metadata
     id="metadata8">
    <rdf:RDF>
      <cc:Work
         rdf:about="">
        <dc:format>image/svg+xml</dc:format>
        <dc:type
           rdf:resource="http://purl.org/dc/dcmitype/StillImage" />
        <dc:title></dc:title>
      </cc:Work>
    </rdf:RDF>
  </metadata>
  <defs
     id="defs6" />
  <sodipodi:namedview
     pagecolor="#ffffff"
     bordercolor="#666666"
     borderopacity="1"
     objecttolerance="10"
     gridtolerance="10"
     guidetolerance="10"
     inkscape:pageopacity="0"
     inkscape:pageshadow="2"
     inkscape:window-width="640"
     inkscape:window-height="480"
     id="namedview4"
     showgrid="false"
     fit-margin-top="0.3"
     fit-margin-right="0.3"
     fit-margin-bottom="0.3"
     fit-margin-left="0.3"
     inkscape:zoom="0.25198556"
     inkscape:cx="664.46915"
     inkscape:cy="415.04054"
     inkscape:window-x="325"
     inkscape:window-y="26"
     inkscape:window-maximized="0"
     inkscape:current-layer="svg2" />
  <path
     style="fill:#000000"
     d="m 497.42352,768.4077 c -5.55976,-1.0331 -12.23456,-2.7896 -14.8329,-3.9034 -2.59834,-1.1138 -5.24944,-2.0254 -5.89135,-2.0258 -2.09357,-0.001 -12.99994,-5.5867 -20.66709,-10.5837 -4.125,-2.6885 -9.075,-5.7308 -11,-6.7606 -12.24458,-6.5505 -23.42484,-19.825 -32.55652,-38.655 -5.27063,-10.8682 -12.44307,-32.384 -13.50097,-40.5 -0.50184,-3.85 -1.38935,-9.475 -1.97225,-12.5 -1.97269,-10.2374 -1.39627,-23.6823 1.3505,-31.49996 1.3527,-3.85 3.18114,-8.35 4.06319,-10 0.88205,-1.65 1.6065,-3.89601 1.60989,-4.99114 0.006,-1.96766 5.345,-13.19517 9.0391,-19.00886 1.04843,-1.65 2.59649,-4.21818 3.44012,-5.70706 4.86223,-8.58104 12.85305,-18.05749 29.42448,-34.89501 10.23135,-10.39564 19.08652,-18.90043 19.67815,-18.89955 0.59162,8.9e-4 2.14622,-1.13791 3.45465,-2.53068 1.30844,-1.39276 8.06213,-6.35701 15.0082,-11.03166 11.91038,-8.01558 17.33491,-12.19192 35.31118,-27.18604 4.12118,-3.4375 7.90869,-6.25 8.41668,-6.25 0.50799,0 1.78087,-0.94788 2.82861,-2.10641 1.04775,-1.15852 3.70499,-3.01898 5.90499,-4.13433 2.2,-1.11536 4.225,-2.35012 4.5,-2.74391 0.275,-0.39378 5.58087,-4.00929 11.79082,-8.03447 7.13363,-4.62388 11.18374,-7.86256 11,-8.79617 -0.15995,-0.81272 -2.3436,-2.07567 -4.85256,-2.80656 -3.90753,-1.1383 -10.82158,-4.48774 -30.18826,-14.62438 -3.06581,-1.60467 -3.76939,-2.53667 -3.8563,-5.10827 -0.26026,-7.7015 0.54822,-7.08406 -10.19342,-7.78474 -8.83152,-0.57608 -17.6853,-2.41986 -30.70028,-6.39327 -2.475,-0.75561 -6.75,-1.66195 -9.5,-2.0141 -2.75,-0.35214 -7.925,-1.48326 -11.5,-2.51359 -3.575,-1.03034 -8.3,-2.13504 -10.5,-2.45491 -6.03719,-0.87776 -6.03427,-0.87506 -7.48669,-6.92942 -0.74531,-3.10677 -1.7282,-5.87926 -2.1842,-6.16109 -1.53877,-0.95101 -0.84339,-4.58774 1.42089,-7.43109 1.2375,-1.55398 3.375,-4.422 4.75,-6.37338 1.375,-1.95137 3.27581,-3.80901 4.22402,-4.12807 2.3419,-0.78804 6.23792,-6.41338 5.14894,-7.43441 -1.22325,-1.1469 -5.37296,0.61816 -5.37296,2.28536 0,0.75748 -0.8571,2.1529 -1.90466,3.10093 -2.19893,1.99 -5.03435,1.43564 -18.09534,-3.53792 -4.125,-1.57078 -9.39225,-3.32232 -11.705,-3.89231 -5.5991,-1.37993 -7.11043,-3.11142 -7.89802,-9.04858 -0.36333,-2.73889 -1.05128,-5.22126 -1.52879,-5.51637 -0.4775,-0.29512 -0.86819,-1.37862 -0.86819,-2.40779 0,-1.02916 -1.35,-4.78789 -3,-8.35272 -1.65,-3.56484 -2.99564,-7.30873 -2.99031,-8.31977 0.006,-1.06196 3.80632,-5.13557 9,-9.6462 4.94467,-4.29436 8.99031,-8.22329 8.99031,-8.73095 0,-1.02212 -2.73632,-1.78116 -7.89915,-2.19117 -1.86953,-0.14847 -3.72385,-0.94494 -4.1207,-1.76994 -5.52468,-11.48505 -6.08591,-15.003 -3.02833,-18.98238 1.3351,-1.73761 1.60367,-2.8483 0.89515,-3.70201 -1.73764,-2.09372 0.0114,-4.94961 6.44272,-10.52006 6.99117,-6.05534 16.79037,-10.33443 25.71031,-11.22711 15.53873,-1.55507 21.62369,-1.83259 46.5,-2.12073 14.85,-0.172 29.025,-0.79489 31.5,-1.38419 2.475,-0.5893 6.975,-1.51902 10,-2.06605 3.025,-0.54702 9.02703,-1.84277 13.33785,-2.87943 4.31082,-1.03667 8.64753,-1.67312 9.63714,-1.41433 2.3877,0.6244 3.50176,-1.29899 1.26927,-2.19133 -0.95934,-0.38346 -12.76926,-0.90409 -26.24426,-1.15696 -13.475,-0.25287 -29.675,-0.92907 -36,-1.50268 -6.325,-0.57361 -15.325,-1.23021 -20,-1.45912 -4.675,-0.22891 -16.375,-0.91232 -26,-1.51869 -9.625,-0.60637 -21.1,-1.24079 -25.5,-1.40983 -27.03121,-1.03848 -37.0964,-1.56722 -46,-2.41646 -10.04283,-0.95789 -32.35877,-1.67818 -81.41888,-2.62792 -14.53039,-0.28129 -26.72379,-0.69988 -27.09644,-0.93019 -0.37266,-0.23032 -9.58678,-0.6958 -20.47583,-1.03441 -10.88904,-0.33861 -20.80297,-0.99764 -22.03094,-1.46452 -1.22797,-0.46687 -6.59209,-0.87249 -11.92026,-0.90136 -5.32817,-0.0289 -9.99584,-0.23386 -10.37261,-0.45552 -0.37677,-0.22166 -6.31004,-0.71313 -13.18504,-1.09216 -6.875,-0.37903 -15.65,-1.07511 -19.5,-1.54683 -3.85,-0.47173 -10.825,-1.11559 -15.5,-1.4308 -16.86393,-1.13704 -27.55177,-2.29898 -43.5,-4.72916 -7.15,-1.08951 -15.924997,-2.37497 -19.499997,-2.85658 -20.726452,-2.79218 -67.064443,-11.1616 -85.6615626,-15.47191 -1.613506,-0.37397 -2.334535,-1.52476 -2.84374104,-4.53872 -0.856496,-5.06956 0.73170904,-7.38075 4.43110904,-6.44827 15.0914266,3.80399 57.2051576,11.0915 89.0741946,15.41373 37.562137,5.09435 78.417797,9.63111 99.999997,11.10437 8.525,0.58194 21.35,1.47453 28.5,1.98354 7.15,0.509 22.45,1.18848 34,1.50994 11.55,0.32147 23.925,0.98199 27.5,1.46783 9.30311,1.26429 32.44516,2.72434 71.5,4.51099 18.7,0.85547 38.07859,2.01107 43.06353,2.56801 4.98494,0.55693 19.05195,1.41829 31.26003,1.91413 12.20808,0.49585 22.53174,1.10872 22.94147,1.36195 0.40974,0.25323 9.74272,0.75637 20.73997,1.11808 10.99725,0.36172 22.02,1.11034 24.495,1.66361 4.20815,0.9407 12.20186,1.33933 47.71325,2.37935 15.1669,0.4442 21.9892,1.15418 48.78675,5.07714 24.45301,3.57973 32.83222,5.17806 36.10893,6.88775 1.59009,0.82966 4.46607,1.78504 6.39107,2.12306 4.02346,0.70651 18.00415,5.35405 19.51215,6.48634 0.55668,0.41799 3.80501,1.40519 7.21851,2.19379 8.74923,2.02127 24.83703,12.31735 36.55226,23.39321 9.97618,9.43172 16.88877,24.44235 14.76978,32.07247 -0.57285,2.06273 -1.04406,4.97372 -1.04712,6.46886 -0.008,3.90761 -7.65491,18.58223 -12.13193,23.28156 -7.17989,7.53641 -29.57834,29.99773 -34.9772,35.07538 -2.96805,2.79146 -5.90376,5.71646 -6.52381,6.5 -1.75054,2.21212 -5.37241,5.07077 -11.37976,8.98174 -3.02892,1.97192 -7.75392,5.3063 -10.5,7.40973 -2.74609,2.10343 -6.39671,4.41541 -8.11249,5.13772 -1.71579,0.72232 -5.20718,2.90679 -7.75866,4.85437 -2.55147,1.94758 -4.84674,3.54106 -5.10059,3.54106 -0.44876,0 -3.29046,1.85683 -25.76816,16.83747 -5.91086,3.93939 -10.95521,7.16253 -11.20966,7.16253 -0.25445,0 -4.4183,2.98538 -9.25298,6.63418 -8.15769,6.15672 -26.49692,18.49355 -34.04034,22.899 -1.7875,1.04392 -3.25,2.23946 -3.25,2.65675 0,0.41729 -1.2375,1.39921 -2.75,2.18204 -2.7438,1.42013 -4.54523,2.81499 -29.22358,22.62803 -7.19312,5.775 -15.34976,12.1569 -18.12588,14.18201 -8.86374,6.46586 -32.66414,28.86636 -37.61113,35.39889 -1.21582,1.60551 -3.80963,4.63853 -5.76402,6.74006 -5.68714,6.1153 -14.25639,17.13537 -16.57933,21.32105 -1.17759,2.12189 -2.92881,4.75799 -3.8916,5.85799 -3.30878,3.78033 -7.80527,13.00548 -8.45755,17.35179 -0.3592,2.39349 -1.98172,7.19354 -3.6056,10.66679 -2.58034,5.51898 -2.96162,7.49138 -3.0249,15.64818 -0.0398,5.1333 0.40145,10.9053 0.9806,12.8266 0.57914,1.9214 1.05299,5.8377 1.05299,8.703 0,2.8652 0.4022,6.2432 0.89378,7.5066 0.49158,1.2634 1.68,4.997 2.64094,8.297 2.98127,10.2381 3.52885,11.5761 11.23181,27.4446 6.8416,14.094 8.14641,16.0854 14.9216,22.7732 4.08344,4.0308 9.7616,8.6973 12.61815,10.3702 12.26399,7.1819 22.52428,13.5614 25.00375,15.5466 1.52419,1.2203 5.56218,2.656 9.42801,3.3523 3.71908,0.6697 10.21194,2.0717 14.42857,3.1154 14.32221,3.5452 29.14392,2.1381 43.33339,-4.1138 5.60631,-2.4701 15.01348,-11.6457 17.15628,-16.7339 2.26007,-5.3667 4.15415,-28.4091 3.6377,-44.2546 -0.25993,-7.975 0.006,-18.55 0.59082,-23.5 2.62646,-22.2285 3.04437,-25.316 4.12829,-30.5 0.63251,-3.025 2.04401,-7.9614 3.13667,-10.9698 3.07712,-8.47213 18.52445,-38.27088 22.64484,-43.6831 13.7884,-18.11137 28.16677,-33.55907 42.67341,-45.84706 3.24652,-2.75 6.61774,-5.675 7.49159,-6.5 3.0576,-2.88667 17.58391,-14.59425 22.37279,-18.03151 2.65781,-1.90767 6.31722,-4.70599 8.13201,-6.21849 1.8148,-1.5125 3.60241,-2.75 3.97248,-2.75 0.37007,0 3.32348,-1.8 6.56312,-4 3.23964,-2.2 6.33944,-4 6.88843,-4 0.54899,0 1.58618,-0.7897 2.30487,-1.75489 0.71868,-0.96519 3.09664,-2.65269 5.28434,-3.75 2.1877,-1.09731 6.2377,-3.39606 9,-5.10834 2.7623,-1.71227 7.27236,-4.30388 10.02236,-5.75911 2.75,-1.45524 7.925,-4.50461 11.5,-6.77637 6.33102,-4.0231 11.74495,-7.10809 23,-13.10597 3.025,-1.61204 5.95,-3.28253 6.5,-3.71219 0.83495,-0.65228 13.65075,-7.54143 23.58829,-12.67992 1.42356,-0.73609 3.4058,-2.24169 4.40499,-3.34578 0.99918,-1.10409 2.26094,-2.00743 2.80391,-2.00743 1.44586,0 23.26395,-14.86971 28.24521,-19.25 2.34548,-2.0625 4.82397,-3.75 5.50777,-3.75 3.64676,0 27.59929,-27.22561 39.59009,-45 7.68546,-11.39245 15.17734,-28.17309 17.78176,-39.82838 1.82954,-8.18753 1.18327,-14.45199 -2.6484,-25.67162 -2.61628,-7.6608 -10.15639,-22.95981 -13.55336,-27.5 -4.93869,-6.60076 -15.72249,-17.23058 -21.43144,-21.12543 -3.14115,-2.143 -8.42962,-6.15868 -11.75216,-8.92373 -5.52066,-4.59433 -19.93356,-12.5961 -26.03666,-14.45506 -1.375,-0.41881 -6.63675,-2.72669 -11.69277,-5.12863 -5.05602,-2.40193 -9.47185,-4.36715 -9.81295,-4.36715 -0.3411,0 -2.95435,-1.06508 -5.80723,-2.36685 -10.30087,-4.70028 -12.69169,-5.57078 -22.36299,-8.14238 -5.40323,-1.43672 -11.62406,-3.30314 -13.82406,-4.1476 -2.2,-0.84445 -6.025,-1.88822 -8.5,-2.31947 -2.475,-0.43126 -8.775,-2.00393 -14,-3.49483 -16.09313,-4.59201 -23.9993,-6.27886 -37.42536,-7.98504 -7.10894,-0.9034 -13.22526,-1.8279 -13.5918,-2.05444 -0.36655,-0.22653 -6.02514,-0.87173 -12.57464,-1.43376 -6.54951,-0.56204 -22.2582,-2.3901 -34.9082,-4.06236 -53.42136,-7.06201 -63.48664,-7.99401 -102.5,-9.49113 -48.89882,-1.87646 -81.97356,-3.34982 -89,-3.96461 -3.025,-0.26468 -9.325,-0.7315 -14,-1.03738 -4.675,-0.30587 -11.03092,-0.77542 -14.12426,-1.04343 -3.09334,-0.26802 -14.56834,-1.15788 -25.5,-1.97748 -10.93166,-0.8196 -21.22574,-1.66871 -22.87574,-1.88692 -1.65,-0.2182 -7.725,-0.69778 -13.5,-1.06575 -25.13996,-1.60183 -76.3745,-7.67511 -118.5,-14.04685 -13.2,-1.99658 -26.475,-3.99816 -29.5,-4.44796 -3.025,-0.44981 -9.1,-1.53064 -13.5,-2.40186 -4.4,-0.87122 -12.95,-2.49095 -19,-3.5994 -28.36627,-5.19712 -89.525159,-19.58108 -115.499989,-27.16443 -5.775,-1.68602 -13.65,-3.93635 -17.5,-5.00076 -8.75259,-2.41981 -12.238681,-5.80831 -9.801821,-9.52743 0.842513,-1.28583 2.124762,-2.337884 2.849443,-2.337884 0.724682,0 1.616309,-0.94114 1.981394,-2.09142 0.428728,-1.3508 1.249367,-1.91429 2.317388,-1.59121 0.909478,0.27511 5.478596,1.69876 10.153596,3.16366 13.578806,4.254894 50.643412,14.278964 62.999992,17.038264 3.025,0.6755 13.374997,3.06244 22.999997,5.30431 26.34752,6.13691 61.31594,12.7281 96.5,18.18928 7.15,1.10981 17.05,2.676 22,3.48044 13.7206,2.22976 36.37828,5.24843 52.5,6.99456 7.975,0.86376 16.3,1.76518 18.5,2.00316 2.2,0.23798 16.375,1.77857 31.5,3.42354 54.3043,5.90604 65.79286,6.73435 104.87275,7.56115 14.50502,0.30688 26.65502,0.72648 27,0.93243 0.34499,0.20596 5.35225,0.67014 11.12725,1.03153 5.775,0.36138 11.625,0.86014 13,1.10834 1.375,0.24821 9.58449,0.8909 18.24332,1.42821 19.54071,1.21256 37.14699,2.91736 41.75668,4.04325 1.925,0.47017 8.9,1.36173 15.5,1.98123 31.44255,2.95135 52.94339,5.49066 76,8.97584 11.83248,1.78857 28.17339,3.94439 37.90504,5.00074 5.44777,0.59134 16.11238,2.63836 23.69913,4.54893 7.58675,1.91057 14.91982,3.47377 16.29571,3.47377 2.42278,0 2.48967,-0.18122 2.12218,-5.75 -0.47171,-7.14815 1.19061,-12.30325 4.47794,-13.88675 1.375,-0.66233 5.65,-1.75035 9.5,-2.41781 3.85,-0.66747 9.43701,-2.11345 12.41558,-3.21331 5.22889,-1.93079 5.46158,-1.93682 6.75,-0.1748 1.68519,2.30463 1.73814,10.50829 0.0824,12.7726 -0.72088,0.98586 -3.48696,2.06548 -6.52057,2.54503 -2.89773,0.45807 -5.48782,1.05208 -5.75576,1.32002 -0.26794,0.26794 2.77882,1.55696 6.77057,2.86448 9.88454,3.23775 11.89231,5.11714 11.53664,10.79896 -0.35214,5.62543 -1.88169,5.11363 27.7211,9.27565 3.85,0.5413 9.925,1.13477 13.5,1.31884 3.575,0.18407 8.62611,0.65685 11.22468,1.05063 4.19226,0.63527 5.3755,0.35 10.5,-2.5315 3.17643,-1.78611 8.3469,-5.32299 11.48993,-7.85975 3.14304,-2.53676 7.94993,-6.30852 10.68199,-8.38169 l 4.96736,-3.7694 4.07526,2.12414 c 5.7245,2.98377 6.20136,6.5018 1.81317,13.37678 -2.9449,4.61377 -5.75239,9.5419 -5.75239,10.09746 0,0.32963 1.24605,0.32565 2.76901,-0.009 2.30355,-0.50594 3.41051,0.0488 6.58533,3.3001 6.01156,6.1564 4.11475,9.57752 -7.61532,13.73515 -2.06855,0.73318 -5.74962,2.70127 -8.18018,4.37354 -2.43055,1.67226 -4.84551,3.04048 -5.36657,3.04048 -0.52106,0 -1.56498,0.74964 -2.31983,1.66587 -1.24329,1.50912 -1.09014,1.59596 1.62756,0.92289 1.65,-0.40864 4.575,-1.42083 6.5,-2.2493 1.925,-0.82847 4.97777,-2.14377 6.78393,-2.92288 1.8062,-0.77897 3.74211,-1.41643 4.30206,-1.41643 0.55996,0 7.30262,-3.15 14.9837,-7 7.68108,-3.85 14.84184,-7 15.91279,-7 2.09858,0 4.01756,2.73227 4.01756,5.72026 0,1.85232 -7.36624,8.27974 -9.48912,8.27974 -0.61905,0 -4.24975,1.63972 -8.06821,3.64381 -3.81847,2.0041 -11.44267,5.87619 -16.94267,8.60464 l -10,4.96083 3.5,2.63237 c 8.44248,6.34964 12.97209,12.19878 20.35441,26.28389 9.81706,18.73047 15.39305,37.4307 14.126,47.37446 -1.03219,8.10063 -9.10699,33.9452 -11.13041,35.62449 -2.24305,1.86156 -1.66544,4.17854 0.9,3.61024 2.08895,-0.46276 16.27918,-6.01248 19.80962,-7.74745 0.85779,-0.42154 4.11244,-1.2964 7.23256,-1.94414 3.12012,-0.64773 5.93235,-1.59742 6.2494,-2.11042 1.3036,-2.10927 13.42166,0.35145 27.56067,5.59654 l 3.60225,1.33631 12.77379,-12.92097 12.77381,-12.92098 -0.8016,-13.26181 c -0.4408,-7.29399 -0.7839,-14.56361 -0.7623,-16.15471 0.04,-2.98112 2.2489,-5.28945 7.56927,-7.91147 2.8576,-1.40832 14.2449,-9.8715 20.6016,-15.3115 2.9638,-2.5363 5.03615,-3.30729 11.14105,-4.14495 9.9831,-1.36978 35.0481,-5.93149 37.25,-6.77933 2.1181,-0.81555 2.2043,-3.00819 0.3412,-8.6749 -0.7749,-2.35672 -1.7313,-5.85995 -2.1254,-7.78495 -0.3941,-1.925 -1.6622,-5.15186 -2.8179,-7.1708 -2.0581,-3.59545 -2.0627,-3.71336 -0.2247,-5.74439 3.9361,-4.34928 14.6256,-5.40744 19.0968,-1.89039 3.2262,2.53769 9.1047,14.60611 10.0773,20.6884 0.366,2.28883 0.981,4.35653 1.3666,4.59489 0.3857,0.23835 4.2641,-0.44131 8.6187,-1.51036 4.3546,-1.06906 8.2228,-1.94905 8.596,-1.95554 1.6189,-0.0282 3.74,3.32127 5.3553,8.45661 0.9569,3.04237 2.0158,5.53698 2.353,5.54358 1.7254,0.0338 40.6607,-9.64875 51.6131,-12.83526 7.7784,-2.26306 10.3034,-4.59507 24.2061,-22.3562 4.625,-5.90866 7.8247,-9.04374 10.0227,-9.82057 4.7493,-1.67846 17.6934,-4.8987 26.2712,-6.53579 9.799,-1.87016 14.0253,-2.85756 22.5,-5.25672 3.85,-1.08992 8.7892,-2.29696 10.9761,-2.68229 4.1521,-0.73164 11.5471,-2.90158 32.5635,-9.55522 14.2015,-4.49607 15.5167,-4.66749 16.84,-2.19483 0.7069,1.32086 0.087,3.51989 -2.4212,8.59304 -2.3969,4.84757 -3.2085,7.63137 -2.8082,9.63267 0.4312,2.156 0.091,3.06731 -1.4535,3.89392 -1.3034,0.69754 -2.2676,2.58676 -2.7264,5.34221 -0.3905,2.34467 -1.6312,6.06304 -2.757,8.26304 -1.2679,2.47749 -2.0787,6.07063 -2.1302,9.44004 l -0.083,5.44005 -9,2.67777 c -4.95,1.47278 -14.175,3.18503 -20.5,3.80501 -14.5916,1.43027 -28.9652,4.12792 -49,9.19637 -7.3058,1.84823 -21.8853,4.6354 -28.9778,5.53969 -1.9372,0.247 -5.0972,0.88577 -7.0222,1.4195 -1.925,0.53373 -4.85,0.97947 -6.5,0.99055 -1.65,0.0111 -5.025,0.73209 -7.5,1.60227 -2.475,0.87018 -7.425,2.00195 -11,2.51504 -3.575,0.51309 -8.75,1.56463 -11.5,2.33677 -10.4697,2.93963 -17.5652,4.53694 -20.154,4.53694 -8.1687,0 -63.4321,15.41373 -76.846,21.43343 -4.9003,2.19907 -14.7787,6.31768 -18,7.50472 -1.825,0.67251 -5.9375,4.67546 -10.5,10.2203 -10.65535,12.94947 -19.36215,23.25803 -20.13725,23.84155 -0.3652,0.275 -5.1226,4.80623 -10.57187,10.06939 -9.41793,9.09619 -15.03265,13.48392 -26.30466,20.55627 -5.01065,3.14382 -42.05859,15.83549 -55.48634,19.0082 -12.22765,2.88916 -17.80278,4.48881 -25.5,7.31666 -9.86302,3.62352 -17.91097,5.12203 -20.11528,3.74541 -1.35901,-0.84871 -2.88648,0.0144 -8.05381,4.55111 -6.52375,5.72753 -14.51364,11.30498 -39.26158,27.40708 -14.08373,9.16349 -17.41014,11.08778 -36.06933,20.86568 -20.78346,10.89107 -24.20255,12.84111 -31.71788,18.08992 -4.24484,2.96465 -7.9217,5.39028 -8.1708,5.39028 -1.44721,0 -18.81966,11.65478 -31.43375,21.08819 -23.14767,17.31091 -26.67319,20.12642 -34.42027,27.48834 -4.00713,3.80791 -9.07931,8.252 -11.2715,9.87577 -4.66703,3.45688 -17.58902,16.50597 -21.33783,21.5477 -1.43134,1.925 -4.19685,5.35846 -6.14556,7.6299 -5.70786,6.65315 -19.52115,26.44081 -22.24775,31.8701 -1.38106,2.75 -3.98393,8.6 -5.78417,12.99996 -1.80023,4.4 -3.60896,8.45 -4.01938,9 -0.70802,0.9488 -2.33126,10.6951 -3.41428,20.5 -0.27337,2.475 -0.93892,8.325 -1.479,13 -3.11792,26.9896 -3.66211,34.277 -3.13641,42 0.58527,8.5983 -0.12603,12.6769 -4.62159,26.5 -3.73542,11.4859 -13.9267,22.3303 -27.5275,29.2916 -5.82034,2.979 -7.46778,3.3369 -17.35163,3.7688 -6.00638,0.2625 -12.2707,0.6504 -13.9207,0.8619 -1.65,0.2115 -7.5489,-0.4607 -13.10866,-1.4938 z m 98.73675,-332.7315 c 9.96627,-7.06254 17.20591,-12.68955 18.80462,-14.61588 1.3176,-1.58762 1.12228,-1.69814 -2.47819,-1.40227 -2.91251,0.23934 -4.20342,0.91602 -5.06571,2.65537 -2.18487,4.40718 -2.9495,4.60109 -8.58441,2.17702 -6.68086,-2.87403 -24.35733,-5.86138 -32.51,-5.49424 -8.4876,0.38222 -22.2944,3.58835 -22.2944,5.17706 0,1.64438 7.14398,5.30326 13.5,6.91419 19.79112,5.01607 24.77048,6.42773 27.22081,7.71716 1.52855,0.80436 3.22919,1.48634 3.77919,1.51551 0.55,0.0292 3.98264,-2.06059 7.62809,-4.64392 z m -61.95045,-20.22989 c 0.30848,-0.92543 8.2409,-3.1931 16.32236,-4.66613 5.33771,-0.97292 40.69773,-0.40169 46.23015,0.74684 3.5182,0.73037 5.78302,0.77725 6.56953,0.13597 2.03681,-1.66071 22.56533,-5.35871 29.454,-5.30584 6.01733,0.0462 6.9021,-0.23778 11.41625,-3.66393 6.74031,-5.11575 18.598,-15.08664 22.89875,-19.25508 17.36355,-16.82941 20.93132,-20.40537 20.93132,-20.97937 0,-0.36268 -1.9125,-1.24632 -4.25,-1.96365 -2.3375,-0.71733 -6.17823,-1.91435 -8.53495,-2.66006 -2.35672,-0.7457 -5.09947,-1.35582 -6.09501,-1.35582 -0.99554,0 -2.63452,-0.91101 -3.64219,-2.02448 -1.82926,-2.0213 -1.83713,-2.01963 -5.02772,1.07282 -2.98221,2.89047 -3.4545,3.02949 -7.07286,2.08189 -4.61219,-1.20786 -11.9732,-1.94245 -26.86712,-2.68121 l -10.98985,-0.54512 -7.01015,3.48435 c -9.08866,4.51746 -18.7524,8.24029 -24.95196,9.61243 -5.35015,1.18414 -17.23081,1.14985 -22.05819,-0.0637 -9.29351,-2.33622 -9.94926,-2.23744 -14.50652,2.18523 l -4.28687,4.16026 -11.19389,-1.196 c -11.23202,-1.20005 -22.34404,-0.79051 -53.51272,1.97228 -14.50534,1.28575 -15.18099,1.81318 -13.89616,10.84778 1.05255,7.4012 2.12557,9.09294 5.7686,9.09484 3.23182,0.002 17.04865,2.3581 27.12756,4.62652 8.59007,1.93334 10.90054,3.44157 10.27611,6.70807 -0.63353,3.31408 1.14059,4.23956 11.46799,5.98237 5.08426,0.858 10.24688,2.26237 11.47251,3.12083 2.60841,1.82701 3.48889,1.94435 3.96103,0.52791 z m 3.07345,-56.54836 c 7.34886,-8.4065 7.68014,-8.65404 10.58557,-7.9098 3.59074,0.91978 20.4544,3.32744 32.3592,4.62 l 9.69587,1.05272 9.80413,-3.69793 c 5.39228,-2.03386 12.04238,-4.54775 14.77801,-5.58642 4.19976,-1.59458 6.68991,-1.8009 16,-1.32569 6.06437,0.30954 13.18578,0.98257 15.82535,1.49561 2.63957,0.51304 6.91457,0.93969 9.5,0.94811 2.58543,0.008 5.37322,0.44043 6.1951,0.96002 1.10146,0.69633 2.03581,0.2656 3.55398,-1.63836 3.05191,-3.82747 8.08085,-3.57005 18.55941,0.94999 4.73424,2.04217 9.26011,3.71304 10.0575,3.71304 1.39027,0 7.83479,-8.15059 7.83479,-9.90892 0,-1.44893 -8.55184,-11.94861 -12.11713,-14.87703 -1.86058,-1.52822 -5.68674,-5.01406 -8.50257,-7.74632 -2.81584,-2.73225 -8.32834,-7.85922 -12.25,-11.39326 -6.10302,-5.49979 -7.1303,-6.90118 -7.1303,-9.72695 0,-4.79481 3.80736,-7.18056 8.65932,-5.42607 4.85733,1.75643 5.25496,0.67698 1.16986,-3.17577 -1.91299,-1.80417 -4.28389,-4.51003 -5.26868,-6.013 -0.98479,-1.50297 -2.32844,-2.73268 -2.9859,-2.73268 -0.65745,0 -4.0932,-1.16315 -7.63499,-2.58477 -3.54178,-1.42163 -9.2925,-3.42642 -12.77936,-4.45509 -5.47724,-1.61585 -6.25952,-1.66122 -5.75,-0.33344 0.32436,0.84528 0.58975,3.321 0.58975,5.5016 0,3.45163 0.41869,4.18518 3.23528,5.66821 4.19231,2.2074 10.76472,8.55969 10.76472,10.40419 0,2.06051 -6.25023,8.7993 -8.16136,8.7993 -1.7696,0 -8.83864,-6.80367 -8.83864,-8.50684 0,-1.50047 -8.01898,-7.49316 -10.0268,-7.49316 -0.91477,0 -2.43525,-0.85308 -3.37884,-1.89573 -1.46521,-1.61904 -1.61501,-3.13556 -1.02636,-10.39037 l 0.68925,-8.49464 -4.37863,-0.75732 c -17.42602,-3.01396 -25.86884,-3.51916 -29.26919,-1.75141 -1.95181,1.0147 -6.08778,1.69997 -11.10943,1.84068 -12.45549,0.34901 -24.43803,1.41188 -28.91582,2.56488 -2.2463,0.5784 -6.44668,1.53915 -9.33418,2.13498 -4.82411,0.99546 -5.25,1.31029 -5.25,3.88095 0,1.6562 -0.72437,3.18528 -1.77542,3.74779 -2.442,1.30692 -14.9328,0.23162 -34.22458,-2.9463 -9.35856,-1.54163 -27.3527,-1.82109 -43.46315,-0.675 -13.85843,0.98587 -14.00091,1.02087 -19,4.66698 -2.77027,2.0205 -7.0624,4.8422 -9.53807,6.27044 -2.47567,1.42823 -5.34748,3.53189 -6.3818,4.6748 -1.76802,1.95365 -1.78153,2.22919 -0.22573,4.60365 1.10779,1.69069 2.56694,2.52562 4.41387,2.52562 1.51746,0 5.21959,0.7146 8.22695,1.58801 14.76972,4.28945 24.41544,6.51183 34.29119,7.9007 10.12841,1.42441 24.50673,4.67015 26.70394,6.0281 1.56648,0.96814 1.15941,2.35161 -2.07524,7.05301 l -3.04804,4.43018 -23.70196,0.0239 c -13.03608,0.0131 -25.40739,0.41977 -27.49181,0.90367 -2.6525,0.61579 -5.7247,2.7844 -10.23707,7.22615 -3.54596,3.49047 -6.45303,6.87101 -6.46014,7.51229 -0.0326,2.93576 13.92957,10.80274 23.48706,13.23381 2.2,0.5596 6.475,1.72503 9.5,2.58985 21.36693,6.10859 33.92834,7.47139 64.75109,7.02489 l 16.25108,-0.23541 4.24892,-4.8604 z m 116.36187,-19.56089 c -1.56472,-2.23395 -7.50425,-8.4851 -14.07586,-14.81436 -4.01653,-3.86841 -5.77599,-4.74635 -13.33214,-6.65248 -4.78773,-1.20776 -12.07996,-3.40722 -16.20496,-4.8877 -5.64622,-2.02644 -10.12381,-2.82549 -18.11533,-3.23276 -11.26166,-0.57392 -11.75084,-0.4707 -36.88467,7.78261 -12.0533,3.95801 -56.3731,8.17377 -58.94037,5.6065 -1.45093,-1.45093 -1.34894,-2.02004 0.80767,-4.50662 1.57532,-1.81637 2.94346,-2.15181 8.75,-2.14532 3.78548,0.004 11.8327,-0.93756 17.8827,-2.09286 32.01904,-6.11435 37.41734,-7.33616 42.09649,-9.52776 2.80307,-1.31289 5.68854,-2.38707 6.41214,-2.38707 0.72361,0 3.29496,-1.15995 5.7141,-2.57766 5.63514,-3.30241 7.58626,-3.03041 30.27727,4.22096 18.86915,6.03001 19.97211,6.44712 24.5,9.26521 2.63734,1.64145 3.78679,1.74422 9.50843,0.85012 6.44633,-1.00733 6.55605,-0.98504 11.5,2.33652 4.99975,3.35905 8.39593,6.66973 8.4583,8.24536 0.0183,0.46228 2.05827,3.21079 4.53327,6.10781 4.50807,5.27675 5.58994,8.27425 3.25,9.00461 -0.6875,0.21459 -4.2977,0.59947 -8.02268,0.85528 -5.85415,0.40204 -6.95464,0.20534 -8.11436,-1.45039 z M 1114.3045,231.88365 c -0.9284,-0.42063 -1.0763,-3.89136 -0.6063,-14.23036 0.9354,-20.57767 0.1123,-25.85704 -5.2864,-33.90787 -4.6559,-6.94315 -5.0327,-9.94271 -1.1173,-8.89329 1.2308,0.32989 3.0033,0.60595 3.9389,0.61346 1.0448,0.008 3.0842,2.48706 5.2863,6.42482 3.5119,6.27974 3.6877,6.42523 8.575,7.09741 5.7054,0.78469 8.1399,2.67573 7.4847,5.81375 -0.2501,1.19772 -1.1505,5.4165 -2.0009,9.37508 -0.8504,3.95857 -1.5462,10.96006 -1.5462,15.55887 0,10.47112 -0.806,11.70423 -8.0222,12.27283 -3.0128,0.23739 -6.0303,0.18128 -6.7056,-0.1247 z M 968.53218,185.47924 c -0.9955,-1.1 -2.1815,-2 -2.6356,-2 -0.454,0 -3.28769,-1.575 -6.29695,-3.5 -3.00926,-1.925 -5.88112,-3.5 -6.38191,-3.5 -0.50079,0 -2.52467,-1.2375 -4.49751,-2.75 -1.97285,-1.5125 -5.29722,-3.76873 -7.38751,-5.01385 -8.42991,-5.02143 -19.68372,-11.23615 -20.34678,-11.23615 -0.38768,0 -3.23587,-1.11933 -6.32931,-2.48739 -3.89078,-1.72069 -5.62443,-3.05402 -5.62443,-4.32569 0,-2.26051 4.01596,-6.18692 6.32802,-6.18692 0.93451,0 2.56294,-0.53947 3.61872,-1.19881 1.64534,-1.02753 2.75072,-0.59974 7.73644,2.99401 3.19925,2.30605 10.09182,6.73298 15.31682,9.83762 12.53476,7.44803 18.95149,11.59255 22,14.20965 1.375,1.18042 4.6375,3.74437 7.25,5.69768 5.19657,3.88538 6.10247,6.92589 2.92127,9.80486 -2.37947,2.15334 -3.47037,2.08698 -5.67127,-0.34501 z m -244.64922,-7.48256 c -0.26541,-0.2654 -2.18957,-0.7011 -4.27592,-0.96822 -4.08168,-0.52259 -6.57486,-2.04994 -6.57486,-4.02786 0,-0.67857 1.62347,-3.35995 3.6077,-5.95862 1.98424,-2.59868 5.60202,-8.73839 8.0395,-13.6438 4.7481,-9.55551 5.01496,-9.73651 12.2278,-8.29394 2.70194,0.54039 3.12414,1.04806 3.11868,3.75 -0.004,1.82546 -2.51751,8.09516 -6.04499,15.07674 -7.17639,14.20353 -8.33969,15.82393 -10.09791,14.0657 z M 1095.5323,166.9228 c -3.3445,-2.77956 -3.0231,-2.53508 -10.1871,-7.74754 -6.1764,-4.49381 -22.9244,-15.49547 -27.2487,-17.89951 -2.9833,-1.65849 -4.1287,-5.02061 -2.131,-6.25521 0.5132,-0.31721 3.0716,-0.97624 5.6852,-1.46451 4.0085,-0.74887 5.5444,-0.53446 9.8168,1.37034 7.2649,3.23901 22.0115,12.28052 31.1801,19.11735 8.9227,6.65348 9.3482,7.11176 9.3694,10.09152 0.012,1.67867 -1.0204,2.5089 -4.6628,3.75 -6.2846,2.14137 -8.283,1.97868 -11.8219,-0.96244 z m -383.27539,-5.84968 c -1.26758,-2.78203 -4.76235,-4.84133 -13.11109,-7.72572 -6.76326,-2.33662 -7.98507,-2.57053 -20.11364,-3.85066 -5.225,-0.55147 -12.425,-1.70314 -16,-2.55925 -13.01213,-3.11602 -18.61826,-4.6285 -24.5,-6.60986 -3.3,-1.11165 -8.025,-2.60978 -10.5,-3.32917 -14.15689,-4.11487 -31.73691,-14.41945 -44.09453,-25.84614 -3.077,-2.84519 -6.902,-6.32033 -8.5,-7.72252 -4.5977,-4.034304 -12.40698,-13.052084 -12.39016,-14.307564 0.0642,-4.7892 4.36677,-4.44978 16.48469,1.30043 21.63808,10.267724 34.95727,14.953994 47,16.536624 2.75,0.3614 6.04564,1.17001 7.32365,1.79692 2.53923,1.24557 5.17635,6.54947 5.17635,10.4109 0,2.92713 1.66598,6.31213 3.10661,6.31213 1.6481,0 7.89339,-7.82669 7.89339,-9.89212 0,-1.47918 3.48763,-2.27037 6.66496,-1.512 1.55927,0.37218 11.38504,3.57346 21.83504,7.11398 10.45,3.54051 21.0637,7.0747 23.586,7.85375 5.74834,1.77547 6.75839,2.95585 11.49743,13.43639 3.05456,6.75524 3.851,9.7316 3.88003,14.5 0.0324,5.31847 -0.19843,6.0336 -2.03208,6.29578 -1.40285,0.20059 -2.4349,-0.50808 -3.20665,-2.2019 z m 271.77534,-5.09388 c -2.475,-1.89745 -5.0019,-3.46118 -5.6152,-3.47496 -0.6134,-0.0138 -2.1884,-0.86533 -3.5,-1.89236 -1.9694,-1.54197 -39.99035,-21.41756 -49.61169,-25.93465 -1.52525,-0.71608 -3.44818,-1.73763 -4.27318,-2.2701 -0.825,-0.53248 -3.075,-1.63826 -5,-2.4573 -1.925,-0.81904 -5.59132,-2.60999 -8.14738,-3.9799 -2.55606,-1.3699 -5.15801,-2.49073 -5.78212,-2.49073 -0.6241,0 -2.80778,-0.74779 -4.85262,-1.66175 -8.0805,-3.61167 -10.99993,-4.30871 -18.10679,-4.32319 -5.98728,-0.0122 -20.8867,-2.02794 -32.61109,-4.41194 -1.1,-0.22367 -4.925,-0.94514 -8.5,-1.60326 -3.575,-0.65813 -8.3,-1.638524 -10.5,-2.178654 -2.2,-0.54013 -6.7,-1.44334 -10,-2.00713 -3.3,-0.5638 -7.125,-1.6006 -8.5,-2.30402 -1.375,-0.70341 -3.625,-1.28111 -5,-1.28377 -1.375,-0.003 -5.2983,-0.95465 -8.71845,-2.11556 -3.42015,-1.1609 -7.155,-2.11073 -8.29966,-2.11073 -1.14467,0 -3.41129,-0.68781 -5.03695,-1.52847 -1.62565,-0.84066 -8.01581,-2.90985 -14.20034,-4.5982 -6.18453,-1.68836 -14.1696,-3.8996 -17.7446,-4.91389 -8.47082,-2.4033 -11.29602,-2.39481 -13.5,0.0406 -0.99549,1.1 -2.52773,2.00655 -3.40499,2.01455 -0.87725,0.008 -3.62001,0.7488 -6.09501,1.64621 -2.51145,0.91062 -8.47709,1.76951 -13.5,1.94364 -4.95,0.1716 -14.7332,0.55479 -21.74045,0.85154 -7.10259,0.30079 -15.95292,0.0626 -20,-0.53821 -3.99275,-0.5928 -9.95955,-1.46547 -13.25955,-1.93929 -10.44319,-1.49948 -17.84359,-2.90783 -23,-4.37707 -19.39888,-5.52742 -29.84126,-7.08907 -41.5117,-6.20807 -7.68071,0.57981 -9.63708,1.11219 -13.38682,3.64286 -2.41534,1.63009 -4.75164,2.9638 -5.19179,2.9638 -0.44014,0 -2.02622,1.17455 -3.52463,2.61012 -2.29016,2.19411 -3.16408,2.46354 -5.48327,1.69048 -5.58363,-1.86121 -5.44043,-3.94139 0.66235,-9.62167 3.06028,-2.84841 9.05065,-6.95396 13.31194,-9.12345 l 7.74779,-3.94453 12.18807,1.147 c 6.70343,0.63086 16.01306,2.04394 20.68806,3.14018 10.06492,2.36014 38.51039,7.71765 51.3865,9.67829 10.45732,1.59233 39.29486,1.84927 44.8635,0.39973 2.0625,-0.53688 5.2125,-1.40162 7,-1.92164 18.76848,-5.46014 15.31133,-5.50845 33.75,0.47166 4.125,1.33784 11.775,3.34494 17,4.46022 5.225,1.11528 17.825,4.21761 28,6.89406 16.18066,4.2562 29.24789,7.12404 39.5,8.669 10.87747,1.6392 25.37654,3.58932 33.5,4.50575 11.97689,1.35114 19.99346,3.317564 27,6.622944 12.31444,5.80942 39.70674,19.79735 43.8109,22.37211 2.04674,1.28402 2.44847,1.2647 3.51426,-0.16899 1.81338,-2.43932 9.58465,-4.09764 27.67481,-5.90557 6.3251,-0.63212 14.4251,-1.9994 18.0001,-3.0384 3.575,-1.03901 10.55005,-2.34415 15.50005,-2.90033 16.7708,-1.88436 24.9904,-3.04625 28,-3.95798 1.65,-0.49986 6.825,-1.18854 11.5,-1.53041 4.675,-0.34187 10.075,-0.82906 12,-1.08263 9.1327,-1.20303 12.6281,-0.90364 15.4603,1.32419 1.5452,1.21543 3.239,2.20987 3.7641,2.20987 1.0175,0 38.6191,-18.665154 57.7756,-28.679424 27.4712,-14.36086 36.8951,-19.12885 43,-21.75576 3.575,-1.53831 9.875,-4.36116 14,-6.27301 4.125,-1.91185 9.3,-4.18085 11.5,-5.04224 2.2,-0.861382 4.45,-1.889202 5,-2.284052 0.55,-0.39485 5.275,-2.38675 10.5,-4.42646 11.206,-4.37452 25.0791,-10.01547 30,-12.19825 4.0371,-1.79079 17.2823,-6.71694 34.5,-12.83129 20.5339,-7.29198 37.2998,-14.1218996 39.5787,-16.1231496 4.0217,-3.53157 6.0082,-0.80263 3.8735,5.32104 -1.1748,3.3698996 -2.3079,4.0573396 -12.9522,7.8576796 -20.0227,7.14874 -23.645,8.47031 -25.5,9.30353 -7.2537,3.25813 -27.5299,11.60268 -35.5,14.60978 -23.0467,8.69544 -38.0111,15.134512 -61.5,26.462922 -8.25,3.97888 -17.025,8.04903 -19.5,9.04479 -2.475,0.99576 -8.1,3.62595 -12.5,5.84488 -4.4,2.21893 -12.05,5.81842 -17,7.99888 -19.5792,8.62457 -28.3933,12.892714 -48.5,23.485714 -9.0758,4.78151 -9.9018,5.01919 -18.5,5.32349 -4.95,0.17519 -12.15,0.76498 -16,1.31065 -3.85,0.54566 -10.15,1.26223 -14,1.59237 -3.85,0.33014 -10.6,1.22258 -15,1.9832 -4.4,0.76063 -12.0952,1.85462 -17.1004,2.43108 -11.9517,1.37653 -18.85955,2.77426 -33.39965,6.75812 -3.025,0.82882 -8.1287,2.09826 -11.3415,2.82098 -3.21277,0.72272 -6.07037,1.54296 -6.35017,1.82275 -1.0139,1.01391 0.8357,2.54903 7.45047,6.18363 17.5067,9.61932 21.5418,13.30272 17.6726,16.13195 -2.5894,1.89346 -3.3981,1.68498 -8.4314,-2.1738 z"
     id="path2991"
     inkscape:connector-curvature="0" />
</svg>
