<?xml version="1.0" encoding="UTF-8" standalone="no"?>
<!-- Created with Inkscape (http://www.inkscape.org/) -->

<svg
   xmlns:dc="http://purl.org/dc/elements/1.1/"
   xmlns:cc="http://creativecommons.org/ns#"
   xmlns:rdf="http://www.w3.org/1999/02/22-rdf-syntax-ns#"
   xmlns:svg="http://www.w3.org/2000/svg"
   xmlns="http://www.w3.org/2000/svg"
   xmlns:sodipodi="http://sodipodi.sourceforge.net/DTD/sodipodi-0.dtd"
   xmlns:inkscape="http://www.inkscape.org/namespaces/inkscape"
   id="svg2"
   version="1.1"
   inkscape:version="0.48.2 r9819"
   width="187.45517"
   height="192.00732"
   xml:space="preserve"
   sodipodi:docname="Elastik2vinge.pdf"><metadata
     id="metadata8"><rdf:RDF><cc:Work
         rdf:about=""><dc:format>image/svg+xml</dc:format><dc:type
           rdf:resource="http://purl.org/dc/dcmitype/StillImage" /><dc:title></dc:title></cc:Work></rdf:RDF></metadata><defs
     id="defs6"><inkscape:path-effect
       effect="spiro"
       id="path-effect3037"
       is_visible="true" /><inkscape:path-effect
       effect="spiro"
       id="path-effect3031"
       is_visible="true" /></defs><sodipodi:namedview
     pagecolor="#ffffff"
     bordercolor="#666666"
     borderopacity="1"
     objecttolerance="10"
     gridtolerance="10"
     guidetolerance="10"
     inkscape:pageopacity="0"
     inkscape:pageshadow="2"
     inkscape:window-width="1280"
     inkscape:window-height="752"
     id="namedview4"
     showgrid="false"
     fit-margin-top="0.3"
     fit-margin-left="0.3"
     fit-margin-right="0.3"
     fit-margin-bottom="0.3"
     inkscape:zoom="1.2303281"
     inkscape:cx="22.735022"
     inkscape:cy="125.81096"
     inkscape:window-x="0"
     inkscape:window-y="0"
     inkscape:window-maximized="1"
     inkscape:current-layer="g10" /><g
     id="g10"
     inkscape:groupmode="layer"
     inkscape:label="Elastik2vinge"
     transform="matrix(1.25,0,0,-1.25,-0.559375,191.58906)"><g
       id="g3813"><path
         sodipodi:nodetypes="cccsccsscc"
         inkscape:original-d="M 1.039,152.791 52.191,78.967 89.465,25.139 c 0,0 1.333534,-1.812167 2.121266,-3.067573 C 94.099,18.066891 99.49525,10.235717 108.30941,6.2426315 118.62756,1.3441705 134.52504,1.4208041 142.639,6.389 c 7.64769,4.547295 8.55866,-38.558938 6.54342,14.17975 -0.22865,5.983734 -2.69663,19.616935 -5.40683,28.386749 -0.60783,1.966848 -2.31949,3.470744 -2.78759,4.835501 l -63.398,99"
         inkscape:path-effect="#path-effect3031"
         d="M 1.039,152.791 C 18.093767,128.18584 35.144434,103.57784 52.191,78.967 64.617846,61.025843 77.042513,43.083176 89.465,25.139 90.172627,24.116839 90.868071,23.08619 91.586266,22.071427 96.050481,15.763783 101.73029,10.296127 108.30941,6.2426315 113.569,3.0021183 119.50417,0.64781983 125.67519,0.36021841 131.84621,0.07261699 138.26619,2.0252097 142.639,6.389 c 3.74796,3.740225 5.7484,8.944826 6.54342,14.17975 1.47041,9.682103 -0.90747,19.688415 -5.40683,28.386749 -0.85508,1.653074 -1.78556,3.26714 -2.78759,4.835501 l -63.398,99"
         style="fill:#b3b3b3;fill-opacity:1;fill-rule:nonzero;stroke:#280b0b;stroke-width:0.83868098;stroke-linecap:butt;stroke-linejoin:miter;stroke-miterlimit:4;stroke-opacity:1;stroke-dasharray:none"
         id="path3029"
         inkscape:connector-curvature="0" /><path
         inkscape:connector-curvature="0"
         id="path3033"
         style="fill:#ffffff;fill-opacity:1;fill-rule:nonzero;stroke:#280b0b;stroke-width:0.83868098;stroke-linecap:butt;stroke-linejoin:miter;stroke-miterlimit:4;stroke-opacity:1;stroke-dasharray:none"
         d="M 23.439,152.791 C 40.547457,128.22311 57.598186,103.61502 74.591,78.967 86.965122,61.018378 99.308533,43.048583 111.62116,25.057721 c 2.39056,-3.493014 4.84209,-6.993902 7.96844,-9.847288 3.12636,-2.853387 6.94929,-5.04486 11.11981,-5.7678015 3.39527,-0.5885545 7.0385,-0.1557098 9.98475,1.6314225 2.70243,1.639235 4.67976,4.335994 5.74804,7.310721 1.26923,3.534289 1.31008,7.400104 0.88151,11.130849 -0.61765,5.376735 -2.18333,10.637065 -4.54023,15.509004 -0.76042,1.571861 -1.60229,3.103526 -2.49464,4.604427 -0.79393,1.335368 -1.62805,2.646843 -2.50084,3.932053 L 73.134838,152.791"
         inkscape:path-effect="#path-effect3031"
         inkscape:original-d="M 23.439,152.791 74.591,78.967 111.62116,25.057721 c 0,0 7.51089,-10.370188 19.08825,-15.6150895 10.31815,-4.898461 1.87079,-3.3367735 9.98475,1.6314225 7.64769,4.547295 7.76332,-45.427966 5.74804,7.310721 -0.091,2.381098 1.29129,6.66377 0.88151,11.130849 -0.47947,5.226805 -3.18214,10.596176 -4.54023,15.509004 -0.49247,1.781474 -1.53456,3.284444 -2.49464,4.604427 -1.09126,1.50034 -2.1003,2.764271 -2.50084,3.932053 L 73.134838,152.791"
         sodipodi:nodetypes="cccccsssscc" /><path
         id="path26"
         transform="matrix(0.8,0,0,-0.8,0.6875,153.03125)"
         d="m 141.4375,71.0625 -60.46875,45.5 1.03125,1.5 60.4375,-45.46875 -1,-1.53125 z"
         style="fill:#000000;fill-opacity:1;fill-rule:nonzero;stroke:#000000;stroke-width:0.81807709;stroke-linecap:butt;stroke-linejoin:miter;stroke-miterlimit:4;stroke-opacity:1;stroke-dasharray:none"
         inkscape:connector-curvature="0" /><path
         id="path30"
         transform="matrix(0.8,0,0,-0.8,0.6875,153.03125)"
         d="m 153.8125,90.375 -71.40625,28.25 1.03125,1.5 71.34375,-28.21875 -0.96875,-1.53125 z"
         style="fill:#000000;fill-opacity:1;fill-rule:nonzero;stroke:#000000;stroke-width:0.81807709;stroke-linecap:butt;stroke-linejoin:miter;stroke-miterlimit:4;stroke-opacity:1;stroke-dasharray:none"
         inkscape:connector-curvature="0" /></g></g></svg>