<?xml version="1.0" encoding="UTF-8" standalone="no"?>
<!-- Creator: CorelDRAW X5 -->

<svg
   xmlns:dc="http://purl.org/dc/elements/1.1/"
   xmlns:cc="http://creativecommons.org/ns#"
   xmlns:rdf="http://www.w3.org/1999/02/22-rdf-syntax-ns#"
   xmlns:svg="http://www.w3.org/2000/svg"
   xmlns="http://www.w3.org/2000/svg"
   xmlns:sodipodi="http://sodipodi.sourceforge.net/DTD/sodipodi-0.dtd"
   xmlns:inkscape="http://www.inkscape.org/namespaces/inkscape"
   xml:space="preserve"
   width="321.64246"
   height="165.94116"
   style="fill-rule:evenodd"
   viewBox="0 0 9077.4649 4683.2285"
   id="svg2"
   version="1.1"
   inkscape:version="0.48.2 r9819"
   sodipodi:docname="03_BLINK.svg"><metadata
   id="metadata33"><rdf:RDF><cc:Work
       rdf:about=""><dc:format>image/svg+xml</dc:format><dc:type
         rdf:resource="http://purl.org/dc/dcmitype/StillImage" /><dc:title></dc:title></cc:Work></rdf:RDF></metadata><sodipodi:namedview
   pagecolor="#ffffff"
   bordercolor="#666666"
   borderopacity="1"
   objecttolerance="10"
   gridtolerance="10"
   guidetolerance="10"
   inkscape:pageopacity="0"
   inkscape:pageshadow="2"
   inkscape:window-width="1280"
   inkscape:window-height="752"
   id="namedview31"
   showgrid="false"
   showguides="true"
   inkscape:guide-bbox="true"
   inkscape:snap-to-guides="false"
   inkscape:snap-grids="false"
   fit-margin-top="0"
   fit-margin-left="0"
   fit-margin-right="0"
   fit-margin-bottom="0"
   inkscape:zoom="1.2685914"
   inkscape:cx="114.02058"
   inkscape:cy="111.38327"
   inkscape:window-x="0"
   inkscape:window-y="0"
   inkscape:window-maximized="1"
   inkscape:current-layer="svg2"><sodipodi:guide
     orientation="0,1"
     position="-71.892962,56.839536"
     id="guide3117" /><sodipodi:guide
     orientation="0,1"
     position="-252.40813,1.6602159"
     id="guide3123" /><sodipodi:guide
     orientation="0,1"
     position="-225.60675,11.119526"
     id="guide3125" /><sodipodi:guide
     orientation="0,1"
     position="-172.00399,22.155396"
     id="guide3127" /><sodipodi:guide
     orientation="0,1"
     position="341.16361,29.249876"
     id="guide3129" /><sodipodi:guide
     orientation="0,1"
     position="-227.18331,63.934016"
     id="guide3143" /><sodipodi:guide
     orientation="-0.70710678,0.70710678"
     position="-164.90951,78.122976"
     id="guide3161" /><sodipodi:guide
     orientation="0.70710678,0.70710678"
     position="-165.69779,56.051256"
     id="guide3163" /><sodipodi:guide
     orientation="0.70710678,0.70710678"
     position="155.91877,73.393326"
     id="guide3173" /><sodipodi:guide
     orientation="-0.70710678,0.70710678"
     position="189.81464,93.100226"
     id="guide3175" /></sodipodi:namedview>
 <defs
   id="defs4">
  <style
   type="text/css"
   id="style6">
   
    .str2 {stroke:#2A2A29;stroke-width:10.16;stroke-linejoin:round}
    .str0 {stroke:#2A2A29;stroke-width:25.4}
    .str1 {stroke:#2A2A29;stroke-width:40.64}
    .fil1 {fill:#2A2A29}
    .fil0 {fill:#FEFEFE}
   
  </style>
 
  
  
 
   
   
   
   
   
   
   
   
   
   
  </defs>
 <path
   style="fill:#fefefe;stroke:#2a2a29;stroke-width:25.39999962"
   inkscape:connector-curvature="0"
   id="path3095"
   d="m 5338.3684,818.02554 c -429,-364 -1171,-364 -1600,0 -1255,1060.99996 -2619,2290.99996 -3599.00002,3228.99996 -277,267 -74.000004,884 399,502 1138.00002,-925 2253.00002,-1912 3401.00002,-2822 112,-90 262,-169 399,-202 127,-28 279,-28 401,0 142,31 290,115 399,202 1151,910 2263,1899 3401,2822 465,379 681,-233 399,-502 -1156,-1110 -2377,-2186 -3599,-3228.99996 z"
   class="fil0 str0" /><path
   style="fill:#fefefe;stroke:#2a2a29;stroke-width:25.39999962"
   inkscape:connector-curvature="0"
   id="path3097"
   d="m 3418.3684,1250.0255 c 470,-423.99996 1052,-774.99996 1600,-299.99996 1232,1061.99996 2489,2115.99996 3698,3199.99996 53,48 94,135 119,201 30,79 8,127 -18,201 -10,28 -58,-5 -84,-18 -38,-20 -84,-58 -117,-84 l -3401,-2799 c -475,-391 -932,-597 -1400,-201 -1097,935 -2192,1882 -3299.00002,2802 -79,66 -165,145 -267,168 -41,8 -97,-41 -102,-86 -8,-64 23,-140 69,-183 l 3200.00002,-2901 z"
   class="fil0 str0" /><path
   style="fill:#fefefe;stroke:#2a2a29;stroke-width:25.39999962"
   inkscape:connector-curvature="0"
   id="path3099"
   d="m 5338.3684,818.02554 c -429,-364 -1219,-328 -1600,0 -1245,1070.99996 -2619,2308.99996 -3599.00002,3228.99996 -279,264 -74.000004,884 399,502 1138.00002,-925 2253.00002,-1912 3401.00002,-2822 112,-90 262,-169 399,-202 127,-28 279,-28 401,0 142,31 290,115 399,202 1151,910 2263,1899 3401,2822 465,379 681,-233 399,-502 -1156,-1110 -2377,-2186 -3599,-3228.99996 z"
   class="fil0 str0" /><path
   style="fill:#fefefe;stroke:#2a2a29;stroke-width:25.39999962"
   inkscape:connector-curvature="0"
   id="path3101"
   d="m 3496.3684,1187.0255 c 437,-388.99996 980,-687.99996 1521,-235.99996 1240,1035.99996 2489,2115.99996 3698,3199.99996 122,109 251,587 -99,300 l -3401,-2799 c -470,-386 -940,-594 -1400,-201 -1085,935 -2169,1880 -3266.00002,2802 -89,76 -183,170 -300,198 -43,10 -102,-51 -102,-99 0,-74 64,-231 117,-279 l 3231.00002,-2885 z"
   class="fil0 str0" /><circle
   style="fill:#2a2a29;stroke:#2a2a29;stroke-width:40.63999939"
   sodipodi:ry="58"
   sodipodi:rx="58"
   sodipodi:cy="7466"
   sodipodi:cx="5415"
   id="circle3103"
   r="58"
   cy="7466"
   cx="5415"
   class="fil1 str1"
   transform="matrix(-1,0,0,1,10016.368,-4640.9745)" /><path
   style="fill:#2a2a29;stroke:#2a2a29;stroke-width:10.15999985;stroke-linejoin:round"
   inkscape:connector-curvature="0"
   id="path3105"
   d="m 8365.3684,4405.0255 429,-472 -203,117 -201,211 c 0,10 -25,43 -33,56 -5,13 -10,30 -10,38 0,20 20,28 18,51 z"
   class="fil1 str2" /><polygon
   transform="matrix(-1,0,0,1,9847.0354,-4697.4189)"
   style="fill:#2a2a29;stroke:#2a2a29;stroke-width:10.15999985;stroke-linejoin:round"
   id="polygon3107"
   points="9487,8591 9446,8579 9408,8584 9352,8614 9156,8848 9073,9066 "
   class="fil1 str2" />
<text
   transform="matrix(0.74324755,-0.6690165,0.6690165,0.74324755,0,0)"
   sodipodi:linespacing="125%"
   id="text3119"
   y="3538.2219"
   x="-2145.4097"
   style="font-size:454.04440308px;font-style:normal;font-variant:normal;font-weight:normal;font-stretch:normal;line-height:125%;letter-spacing:0px;word-spacing:0px;fill:#0000ff;fill-opacity:1;stroke:none;font-family:Times New Roman;-inkscape-font-specification:Times New Roman"
   xml:space="preserve"><tspan
     y="3538.2219"
     x="-2145.4097"
     id="tspan3121"
     sodipodi:role="line">Arm 1</tspan></text>
<text
   xml:space="preserve"
   style="font-size:454.04440308px;font-style:normal;font-variant:normal;font-weight:normal;font-stretch:normal;line-height:125%;letter-spacing:0px;word-spacing:0px;fill:#0000ff;fill-opacity:1;stroke:none;font-family:Times New Roman;-inkscape-font-specification:Times New Roman"
   x="7617.3218"
   y="-2144.6567"
   id="text3135"
   sodipodi:linespacing="125%"
   transform="matrix(0.76726413,0.64133124,-0.64133124,0.76726413,0,0)"><tspan
     sodipodi:role="line"
     id="tspan3137"
     x="7617.3218"
     y="-2144.6567">Arm 2</tspan></text>
<text
   xml:space="preserve"
   style="font-size:454.04440308px;font-style:normal;font-variant:normal;font-weight:normal;font-stretch:normal;line-height:125%;letter-spacing:0px;word-spacing:0px;fill:#0000ff;fill-opacity:1;stroke:none;font-family:Times New Roman;-inkscape-font-specification:Times New Roman"
   x="-1023.6346"
   y="3001.6494"
   id="text3145"
   sodipodi:linespacing="125%"
   transform="matrix(0.74285386,-0.66945362,0.66945362,0.74285386,0,0)"><tspan
     sodipodi:role="line"
     id="tspan3147"
     x="-1023.6346"
     y="3001.6494">Leading Edge</tspan></text>
<text
   transform="matrix(0.76453051,0.64458755,-0.64458755,0.76453051,0,0)"
   sodipodi:linespacing="125%"
   id="text3153"
   y="-2921.624"
   x="5425.5698"
   style="font-size:454.04440308px;font-style:normal;font-variant:normal;font-weight:normal;font-stretch:normal;line-height:125%;letter-spacing:0px;word-spacing:0px;fill:#0000ff;fill-opacity:1;stroke:none;font-family:Times New Roman;-inkscape-font-specification:Times New Roman"
   xml:space="preserve"><tspan
     y="-2921.624"
     x="5425.5698"
     id="tspan3155"
     sodipodi:role="line">Trailing Edge</tspan></text>
<text
   xml:space="preserve"
   style="font-size:454.04440308px;font-style:normal;font-variant:normal;font-weight:normal;font-stretch:normal;line-height:125%;letter-spacing:0px;word-spacing:0px;fill:#0000ff;fill-opacity:1;stroke:none;font-family:Times New Roman;-inkscape-font-specification:Times New Roman"
   x="-999.84338"
   y="4250.9521"
   id="text3169"
   sodipodi:linespacing="125%"
   transform="matrix(0.74285386,-0.66945362,0.66945362,0.74285386,0,0)"><tspan
     sodipodi:role="line"
     id="tspan3171"
     x="-999.84338"
     y="4250.9521">Trailing Edge</tspan></text>
<text
   transform="matrix(0.76453051,0.64458755,-0.64458755,0.76453051,0,0)"
   sodipodi:linespacing="125%"
   id="text3177"
   y="-1634.4312"
   x="5451.9604"
   style="font-size:454.04440308px;font-style:normal;font-variant:normal;font-weight:normal;font-stretch:normal;line-height:125%;letter-spacing:0px;word-spacing:0px;fill:#0000ff;fill-opacity:1;stroke:none;font-family:Times New Roman;-inkscape-font-specification:Times New Roman"
   xml:space="preserve"><tspan
     y="-1634.4312"
     x="5451.9604"
     id="tspan3179"
     sodipodi:role="line">Leading Edge</tspan></text>
<text
   transform="matrix(0.99996323,-0.00857522,0.00857522,0.99996323,0,0)"
   sodipodi:linespacing="125%"
   id="text3185"
   y="3619.7417"
   x="2951.3162"
   style="font-size:454.04440308px;font-style:normal;font-variant:normal;font-weight:normal;font-stretch:normal;line-height:125%;letter-spacing:0px;word-spacing:0px;fill:#0000ff;fill-opacity:1;stroke:none;font-family:Times New Roman;-inkscape-font-specification:Times New Roman"
   xml:space="preserve"><tspan
     y="3619.7417"
     x="2951.3162"
     id="tspan3187"
     sodipodi:role="line">Center of gravity</tspan></text>
<text
   xml:space="preserve"
   style="font-size:454.04440308px;font-style:normal;font-variant:normal;font-weight:normal;font-stretch:normal;line-height:125%;letter-spacing:0px;word-spacing:0px;fill:#0000ff;fill-opacity:1;stroke:none;font-family:Times New Roman;-inkscape-font-specification:Times New Roman"
   x="3941.866"
   y="354.33499"
   id="text3193"
   sodipodi:linespacing="125%"
   transform="matrix(0.99996323,-0.00857522,0.00857522,0.99996323,0,0)"><tspan
     sodipodi:role="line"
     id="tspan3195"
     x="3941.866"
     y="354.33499">Elbow</tspan></text>
</svg>